%TF.GenerationSoftware,KiCad,Pcbnew,6.0.4-6f826c9f35~116~ubuntu20.04.1*%
%TF.CreationDate,2022-04-06T12:57:03+00:00*%
%TF.ProjectId,STEPUPDC02A,53544550-5550-4444-9330-32412e6b6963,rev?*%
%TF.SameCoordinates,Original*%
%TF.FileFunction,Legend,Top*%
%TF.FilePolarity,Positive*%
%FSLAX46Y46*%
G04 Gerber Fmt 4.6, Leading zero omitted, Abs format (unit mm)*
G04 Created by KiCad (PCBNEW 6.0.4-6f826c9f35~116~ubuntu20.04.1) date 2022-04-06 12:57:03*
%MOMM*%
%LPD*%
G01*
G04 APERTURE LIST*
%ADD10C,0.300000*%
%ADD11C,0.050000*%
%ADD12C,0.150000*%
%ADD13R,1.524000X1.524000*%
G04 APERTURE END LIST*
D10*
X8134047Y15971761D02*
X8194523Y16153190D01*
X8194523Y16455571D01*
X8134047Y16576523D01*
X8073571Y16637000D01*
X7952619Y16697476D01*
X7831666Y16697476D01*
X7710714Y16637000D01*
X7650238Y16576523D01*
X7589761Y16455571D01*
X7529285Y16213666D01*
X7468809Y16092714D01*
X7408333Y16032238D01*
X7287380Y15971761D01*
X7166428Y15971761D01*
X7045476Y16032238D01*
X6985000Y16092714D01*
X6924523Y16213666D01*
X6924523Y16516047D01*
X6985000Y16697476D01*
X6924523Y17060333D02*
X6924523Y17786047D01*
X8194523Y17423190D02*
X6924523Y17423190D01*
X7529285Y18209380D02*
X7529285Y18632714D01*
X8194523Y18814142D02*
X8194523Y18209380D01*
X6924523Y18209380D01*
X6924523Y18814142D01*
X8194523Y19358428D02*
X6924523Y19358428D01*
X6924523Y19842238D01*
X6985000Y19963190D01*
X7045476Y20023666D01*
X7166428Y20084142D01*
X7347857Y20084142D01*
X7468809Y20023666D01*
X7529285Y19963190D01*
X7589761Y19842238D01*
X7589761Y19358428D01*
X6924523Y20628428D02*
X7952619Y20628428D01*
X8073571Y20688904D01*
X8134047Y20749380D01*
X8194523Y20870333D01*
X8194523Y21112238D01*
X8134047Y21233190D01*
X8073571Y21293666D01*
X7952619Y21354142D01*
X6924523Y21354142D01*
X8194523Y21958904D02*
X6924523Y21958904D01*
X6924523Y22442714D01*
X6985000Y22563666D01*
X7045476Y22624142D01*
X7166428Y22684619D01*
X7347857Y22684619D01*
X7468809Y22624142D01*
X7529285Y22563666D01*
X7589761Y22442714D01*
X7589761Y21958904D01*
X8194523Y23228904D02*
X6924523Y23228904D01*
X6924523Y23531285D01*
X6985000Y23712714D01*
X7105952Y23833666D01*
X7226904Y23894142D01*
X7468809Y23954619D01*
X7650238Y23954619D01*
X7892142Y23894142D01*
X8013095Y23833666D01*
X8134047Y23712714D01*
X8194523Y23531285D01*
X8194523Y23228904D01*
X8073571Y25224619D02*
X8134047Y25164142D01*
X8194523Y24982714D01*
X8194523Y24861761D01*
X8134047Y24680333D01*
X8013095Y24559380D01*
X7892142Y24498904D01*
X7650238Y24438428D01*
X7468809Y24438428D01*
X7226904Y24498904D01*
X7105952Y24559380D01*
X6985000Y24680333D01*
X6924523Y24861761D01*
X6924523Y24982714D01*
X6985000Y25164142D01*
X7045476Y25224619D01*
X6924523Y26010809D02*
X6924523Y26131761D01*
X6985000Y26252714D01*
X7045476Y26313190D01*
X7166428Y26373666D01*
X7408333Y26434142D01*
X7710714Y26434142D01*
X7952619Y26373666D01*
X8073571Y26313190D01*
X8134047Y26252714D01*
X8194523Y26131761D01*
X8194523Y26010809D01*
X8134047Y25889857D01*
X8073571Y25829380D01*
X7952619Y25768904D01*
X7710714Y25708428D01*
X7408333Y25708428D01*
X7166428Y25768904D01*
X7045476Y25829380D01*
X6985000Y25889857D01*
X6924523Y26010809D01*
X7045476Y26917952D02*
X6985000Y26978428D01*
X6924523Y27099380D01*
X6924523Y27401761D01*
X6985000Y27522714D01*
X7045476Y27583190D01*
X7166428Y27643666D01*
X7287380Y27643666D01*
X7468809Y27583190D01*
X8194523Y26857476D01*
X8194523Y27643666D01*
X7831666Y28127476D02*
X7831666Y28732238D01*
X8194523Y28006523D02*
X6924523Y28429857D01*
X8194523Y28853190D01*
X1735666Y14411476D02*
X1735666Y13504333D01*
X1675190Y13322904D01*
X1554238Y13201952D01*
X1372809Y13141476D01*
X1251857Y13141476D01*
X2279952Y13504333D02*
X2884714Y13504333D01*
X2159000Y13141476D02*
X2582333Y14411476D01*
X3005666Y13141476D01*
X4154714Y13262428D02*
X4094238Y13201952D01*
X3912809Y13141476D01*
X3791857Y13141476D01*
X3610428Y13201952D01*
X3489476Y13322904D01*
X3429000Y13443857D01*
X3368523Y13685761D01*
X3368523Y13867190D01*
X3429000Y14109095D01*
X3489476Y14230047D01*
X3610428Y14351000D01*
X3791857Y14411476D01*
X3912809Y14411476D01*
X4094238Y14351000D01*
X4154714Y14290523D01*
X4699000Y13141476D02*
X4699000Y14411476D01*
X4699000Y13806714D02*
X5424714Y13806714D01*
X5424714Y13141476D02*
X5424714Y14411476D01*
X6271380Y14411476D02*
X6513285Y14411476D01*
X6634238Y14351000D01*
X6755190Y14230047D01*
X6815666Y13988142D01*
X6815666Y13564809D01*
X6755190Y13322904D01*
X6634238Y13201952D01*
X6513285Y13141476D01*
X6271380Y13141476D01*
X6150428Y13201952D01*
X6029476Y13322904D01*
X5969000Y13564809D01*
X5969000Y13988142D01*
X6029476Y14230047D01*
X6150428Y14351000D01*
X6271380Y14411476D01*
X1886857Y12258523D02*
X1947333Y12319000D01*
X2068285Y12379476D01*
X2370666Y12379476D01*
X2491619Y12319000D01*
X2552095Y12258523D01*
X2612571Y12137571D01*
X2612571Y12016619D01*
X2552095Y11835190D01*
X1826380Y11109476D01*
X2612571Y11109476D01*
X3398761Y12379476D02*
X3519714Y12379476D01*
X3640666Y12319000D01*
X3701142Y12258523D01*
X3761619Y12137571D01*
X3822095Y11895666D01*
X3822095Y11593285D01*
X3761619Y11351380D01*
X3701142Y11230428D01*
X3640666Y11169952D01*
X3519714Y11109476D01*
X3398761Y11109476D01*
X3277809Y11169952D01*
X3217333Y11230428D01*
X3156857Y11351380D01*
X3096380Y11593285D01*
X3096380Y11895666D01*
X3156857Y12137571D01*
X3217333Y12258523D01*
X3277809Y12319000D01*
X3398761Y12379476D01*
X5031619Y11109476D02*
X4305904Y11109476D01*
X4668761Y11109476D02*
X4668761Y12379476D01*
X4547809Y12198047D01*
X4426857Y12077095D01*
X4305904Y12016619D01*
X5636380Y11109476D02*
X5878285Y11109476D01*
X5999238Y11169952D01*
X6059714Y11230428D01*
X6180666Y11411857D01*
X6241142Y11653761D01*
X6241142Y12137571D01*
X6180666Y12258523D01*
X6120190Y12319000D01*
X5999238Y12379476D01*
X5757333Y12379476D01*
X5636380Y12319000D01*
X5575904Y12258523D01*
X5515428Y12137571D01*
X5515428Y11835190D01*
X5575904Y11714238D01*
X5636380Y11653761D01*
X5757333Y11593285D01*
X5999238Y11593285D01*
X6120190Y11653761D01*
X6180666Y11714238D01*
X6241142Y11835190D01*
X11236173Y22539476D02*
X9966173Y22539476D01*
X9966173Y23023285D01*
X10026650Y23144238D01*
X10087126Y23204714D01*
X10208078Y23265190D01*
X10389507Y23265190D01*
X10510459Y23204714D01*
X10570935Y23144238D01*
X10631411Y23023285D01*
X10631411Y22539476D01*
X9966173Y24051380D02*
X9966173Y24293285D01*
X10026650Y24414238D01*
X10147602Y24535190D01*
X10389507Y24595666D01*
X10812840Y24595666D01*
X11054745Y24535190D01*
X11175697Y24414238D01*
X11236173Y24293285D01*
X11236173Y24051380D01*
X11175697Y23930428D01*
X11054745Y23809476D01*
X10812840Y23749000D01*
X10389507Y23749000D01*
X10147602Y23809476D01*
X10026650Y23930428D01*
X9966173Y24051380D01*
X9966173Y25019000D02*
X11236173Y25321380D01*
X10329030Y25563285D01*
X11236173Y25805190D01*
X9966173Y26107571D01*
X10570935Y26591380D02*
X10570935Y27014714D01*
X11236173Y27196142D02*
X11236173Y26591380D01*
X9966173Y26591380D01*
X9966173Y27196142D01*
X11236173Y28466142D02*
X10631411Y28042809D01*
X11236173Y27740428D02*
X9966173Y27740428D01*
X9966173Y28224238D01*
X10026650Y28345190D01*
X10087126Y28405666D01*
X10208078Y28466142D01*
X10389507Y28466142D01*
X10510459Y28405666D01*
X10570935Y28345190D01*
X10631411Y28224238D01*
X10631411Y27740428D01*
X11236173Y29978047D02*
X9966173Y29978047D01*
X11236173Y30582809D02*
X9966173Y30582809D01*
X11236173Y31308523D01*
X9966173Y31308523D01*
X13280873Y24444476D02*
X13280873Y23718761D01*
X13280873Y24081619D02*
X12010873Y24081619D01*
X12192302Y23960666D01*
X12313254Y23839714D01*
X12373730Y23718761D01*
X13159921Y24988761D02*
X13220397Y25049238D01*
X13280873Y24988761D01*
X13220397Y24928285D01*
X13159921Y24988761D01*
X13280873Y24988761D01*
X12555159Y25774952D02*
X12494683Y25654000D01*
X12434207Y25593523D01*
X12313254Y25533047D01*
X12252778Y25533047D01*
X12131826Y25593523D01*
X12071350Y25654000D01*
X12010873Y25774952D01*
X12010873Y26016857D01*
X12071350Y26137809D01*
X12131826Y26198285D01*
X12252778Y26258761D01*
X12313254Y26258761D01*
X12434207Y26198285D01*
X12494683Y26137809D01*
X12555159Y26016857D01*
X12555159Y25774952D01*
X12615635Y25654000D01*
X12676111Y25593523D01*
X12797064Y25533047D01*
X13038969Y25533047D01*
X13159921Y25593523D01*
X13220397Y25654000D01*
X13280873Y25774952D01*
X13280873Y26016857D01*
X13220397Y26137809D01*
X13159921Y26198285D01*
X13038969Y26258761D01*
X12797064Y26258761D01*
X12676111Y26198285D01*
X12615635Y26137809D01*
X12555159Y26016857D01*
X12797064Y26803047D02*
X12797064Y27770666D01*
X12010873Y28980190D02*
X12010873Y28375428D01*
X12615635Y28314952D01*
X12555159Y28375428D01*
X12494683Y28496380D01*
X12494683Y28798761D01*
X12555159Y28919714D01*
X12615635Y28980190D01*
X12736588Y29040666D01*
X13038969Y29040666D01*
X13159921Y28980190D01*
X13220397Y28919714D01*
X13280873Y28798761D01*
X13280873Y28496380D01*
X13220397Y28375428D01*
X13159921Y28314952D01*
X12010873Y29403523D02*
X13280873Y29826857D01*
X12010873Y30250190D01*
X11236173Y8992809D02*
X9966173Y8992809D01*
X9966173Y9476619D01*
X10026650Y9597571D01*
X10087126Y9658047D01*
X10208078Y9718523D01*
X10389507Y9718523D01*
X10510459Y9658047D01*
X10570935Y9597571D01*
X10631411Y9476619D01*
X10631411Y8992809D01*
X9966173Y10504714D02*
X9966173Y10746619D01*
X10026650Y10867571D01*
X10147602Y10988523D01*
X10389507Y11049000D01*
X10812840Y11049000D01*
X11054745Y10988523D01*
X11175697Y10867571D01*
X11236173Y10746619D01*
X11236173Y10504714D01*
X11175697Y10383761D01*
X11054745Y10262809D01*
X10812840Y10202333D01*
X10389507Y10202333D01*
X10147602Y10262809D01*
X10026650Y10383761D01*
X9966173Y10504714D01*
X9966173Y11472333D02*
X11236173Y11774714D01*
X10329030Y12016619D01*
X11236173Y12258523D01*
X9966173Y12560904D01*
X10570935Y13044714D02*
X10570935Y13468047D01*
X11236173Y13649476D02*
X11236173Y13044714D01*
X9966173Y13044714D01*
X9966173Y13649476D01*
X11236173Y14919476D02*
X10631411Y14496142D01*
X11236173Y14193761D02*
X9966173Y14193761D01*
X9966173Y14677571D01*
X10026650Y14798523D01*
X10087126Y14859000D01*
X10208078Y14919476D01*
X10389507Y14919476D01*
X10510459Y14859000D01*
X10570935Y14798523D01*
X10631411Y14677571D01*
X10631411Y14193761D01*
X9966173Y16673285D02*
X9966173Y16915190D01*
X10026650Y17036142D01*
X10147602Y17157095D01*
X10389507Y17217571D01*
X10812840Y17217571D01*
X11054745Y17157095D01*
X11175697Y17036142D01*
X11236173Y16915190D01*
X11236173Y16673285D01*
X11175697Y16552333D01*
X11054745Y16431380D01*
X10812840Y16370904D01*
X10389507Y16370904D01*
X10147602Y16431380D01*
X10026650Y16552333D01*
X9966173Y16673285D01*
X9966173Y17761857D02*
X10994269Y17761857D01*
X11115221Y17822333D01*
X11175697Y17882809D01*
X11236173Y18003761D01*
X11236173Y18245666D01*
X11175697Y18366619D01*
X11115221Y18427095D01*
X10994269Y18487571D01*
X9966173Y18487571D01*
X9966173Y18910904D02*
X9966173Y19636619D01*
X11236173Y19273761D02*
X9966173Y19273761D01*
X13280873Y10111619D02*
X12010873Y10111619D01*
X12918016Y10534952D01*
X12010873Y10958285D01*
X13280873Y10958285D01*
X12918016Y11502571D02*
X12918016Y12107333D01*
X13280873Y11381619D02*
X12010873Y11804952D01*
X13280873Y12228285D01*
X12010873Y12530666D02*
X13280873Y13377333D01*
X12010873Y13377333D02*
X13280873Y12530666D01*
X12131826Y14768285D02*
X12071350Y14828761D01*
X12010873Y14949714D01*
X12010873Y15252095D01*
X12071350Y15373047D01*
X12131826Y15433523D01*
X12252778Y15494000D01*
X12373730Y15494000D01*
X12555159Y15433523D01*
X13280873Y14707809D01*
X13280873Y15494000D01*
X12555159Y16219714D02*
X12494683Y16098761D01*
X12434207Y16038285D01*
X12313254Y15977809D01*
X12252778Y15977809D01*
X12131826Y16038285D01*
X12071350Y16098761D01*
X12010873Y16219714D01*
X12010873Y16461619D01*
X12071350Y16582571D01*
X12131826Y16643047D01*
X12252778Y16703523D01*
X12313254Y16703523D01*
X12434207Y16643047D01*
X12494683Y16582571D01*
X12555159Y16461619D01*
X12555159Y16219714D01*
X12615635Y16098761D01*
X12676111Y16038285D01*
X12797064Y15977809D01*
X13038969Y15977809D01*
X13159921Y16038285D01*
X13220397Y16098761D01*
X13280873Y16219714D01*
X13280873Y16461619D01*
X13220397Y16582571D01*
X13159921Y16643047D01*
X13038969Y16703523D01*
X12797064Y16703523D01*
X12676111Y16643047D01*
X12615635Y16582571D01*
X12555159Y16461619D01*
X12010873Y17066380D02*
X13280873Y17489714D01*
X12010873Y17913047D01*
X13159921Y18336380D02*
X13220397Y18396857D01*
X13280873Y18336380D01*
X13220397Y18275904D01*
X13159921Y18336380D01*
X13280873Y18336380D01*
X12797064Y18336380D02*
X12071350Y18275904D01*
X12010873Y18336380D01*
X12071350Y18396857D01*
X12797064Y18336380D01*
X12010873Y18336380D01*
X2449285Y26913380D02*
X2449285Y27336714D01*
X3114523Y27518142D02*
X3114523Y26913380D01*
X1844523Y26913380D01*
X1844523Y27518142D01*
X3114523Y28062428D02*
X1844523Y28062428D01*
X3114523Y28788142D01*
X1844523Y28788142D01*
X1904999Y17730142D02*
X1844523Y17609190D01*
X1844523Y17427761D01*
X1904999Y17246333D01*
X2025952Y17125380D01*
X2146904Y17064904D01*
X2388809Y17004428D01*
X2570238Y17004428D01*
X2812142Y17064904D01*
X2933095Y17125380D01*
X3054047Y17246333D01*
X3114523Y17427761D01*
X3114523Y17548714D01*
X3054047Y17730142D01*
X2993571Y17790619D01*
X2570238Y17790619D01*
X2570238Y17548714D01*
X3114523Y18334904D02*
X1844523Y18334904D01*
X3114523Y19060619D01*
X1844523Y19060619D01*
X3114523Y19665380D02*
X1844523Y19665380D01*
X1844523Y19967761D01*
X1905000Y20149190D01*
X2025952Y20270142D01*
X2146904Y20330619D01*
X2388809Y20391095D01*
X2570238Y20391095D01*
X2812142Y20330619D01*
X2933095Y20270142D01*
X3054047Y20149190D01*
X3114523Y19967761D01*
X3114523Y19665380D01*
X6162523Y18185190D02*
X4892523Y18185190D01*
X5799666Y18608523D01*
X4892523Y19031857D01*
X6162523Y19031857D01*
X6162523Y20241380D02*
X6162523Y19636619D01*
X4892523Y19636619D01*
X5799666Y20604238D02*
X5799666Y21209000D01*
X6162523Y20483285D02*
X4892523Y20906619D01*
X6162523Y21329952D01*
X5497285Y22176619D02*
X5557761Y22358047D01*
X5618238Y22418523D01*
X5739190Y22479000D01*
X5920619Y22479000D01*
X6041571Y22418523D01*
X6102047Y22358047D01*
X6162523Y22237095D01*
X6162523Y21753285D01*
X4892523Y21753285D01*
X4892523Y22176619D01*
X4953000Y22297571D01*
X5013476Y22358047D01*
X5134428Y22418523D01*
X5255380Y22418523D01*
X5376333Y22358047D01*
X5436809Y22297571D01*
X5497285Y22176619D01*
X5497285Y21753285D01*
X6041571Y23023285D02*
X6102047Y23083761D01*
X6162523Y23023285D01*
X6102047Y22962809D01*
X6041571Y23023285D01*
X6162523Y23023285D01*
X6041571Y24353761D02*
X6102047Y24293285D01*
X6162523Y24111857D01*
X6162523Y23990904D01*
X6102047Y23809476D01*
X5981095Y23688523D01*
X5860142Y23628047D01*
X5618238Y23567571D01*
X5436809Y23567571D01*
X5194904Y23628047D01*
X5073952Y23688523D01*
X4953000Y23809476D01*
X4892523Y23990904D01*
X4892523Y24111857D01*
X4953000Y24293285D01*
X5013476Y24353761D01*
X4892523Y24777095D02*
X4892523Y25623761D01*
X6162523Y24777095D01*
X6162523Y25623761D01*
D11*
%TO.C,J1*%
X14239857Y29364809D02*
X13954142Y29364809D01*
X14097000Y29364809D02*
X14097000Y29864809D01*
X14049380Y29793380D01*
X14001761Y29745761D01*
X13954142Y29721952D01*
%TO.C,J4*%
X14239857Y17553809D02*
X13954142Y17553809D01*
X14097000Y17553809D02*
X14097000Y18053809D01*
X14049380Y17982380D01*
X14001761Y17934761D01*
X13954142Y17910952D01*
D12*
%TO.C,J1*%
X14478000Y30861000D02*
X19558000Y30861000D01*
X19558000Y23241000D02*
X14478000Y23241000D01*
X19558000Y30861000D02*
X19558000Y23241000D01*
X14478000Y23241000D02*
X14478000Y30861000D01*
%TO.C,J2*%
X3810000Y26289000D02*
X3810000Y21209000D01*
X1270000Y21209000D02*
X1270000Y26289000D01*
X3810000Y21209000D02*
X1270000Y21209000D01*
X1270000Y26289000D02*
X3810000Y26289000D01*
%TO.C,J4*%
X19558000Y8890000D02*
X14478000Y8890000D01*
X14478000Y8890000D02*
X14478000Y19050000D01*
X19558000Y19050000D02*
X19558000Y8890000D01*
X14478000Y19050000D02*
X19558000Y19050000D01*
%TD*%
D13*
%TO.C,J1*%
X15748000Y29591000D03*
X18288000Y29591000D03*
X15748000Y27051000D03*
X18288000Y27051000D03*
X15748000Y24511000D03*
X18288000Y24511000D03*
%TD*%
%TO.C,J2*%
X2540000Y22479000D03*
X2540000Y25019000D03*
%TD*%
%TO.C,J4*%
X15748000Y17780000D03*
X18288000Y17780000D03*
X15748000Y15240000D03*
X18288000Y15240000D03*
X15748000Y12700000D03*
X18288000Y12700000D03*
X15748000Y10160000D03*
X18288000Y10160000D03*
%TD*%
M02*
