M48
; DRILL file {KiCad 6.0.4-6f826c9f35~116~ubuntu20.04.1} date Wed Apr  6 12:57:03 2022
; FORMAT={-:-/ absolute / metric / decimal}
; #@! TF.CreationDate,2022-04-06T12:57:03+00:00
; #@! TF.GenerationSoftware,Kicad,Pcbnew,6.0.4-6f826c9f35~116~ubuntu20.04.1
; #@! TF.FileFunction,Plated,1,2,PTH
FMAT,2
METRIC
; #@! TA.AperFunction,Plated,PTH,ViaDrill
T1C0.400
; #@! TA.AperFunction,Plated,PTH,ComponentDrill
T2C0.889
; #@! TA.AperFunction,Plated,PTH,ComponentDrill
T3C3.000
%
G90
G05
T1
X1.397Y14.859
X1.397Y13.462
X2.794Y13.462
X3.937Y13.462
X4.191Y22.479
X4.826Y28.702
X4.826Y12.573
X4.826Y11.303
X4.826Y10.16
X4.953Y26.67
X6.35Y26.67
X6.731Y20.574
X8.001Y20.574
X9.017Y19.685
X9.017Y18.288
X9.271Y17.018
X10.033Y18.034
X11.811Y18.034
X12.7Y29.591
X13.97Y29.591
X15.621Y19.558
X15.748Y22.733
X16.891Y19.558
X17.018Y22.733
X18.415Y22.733
X18.415Y19.558
T2
X2.54Y25.019
X2.54Y22.479
X15.748Y29.591
X15.748Y27.051
X15.748Y24.511
X15.748Y17.78
X15.748Y15.24
X15.748Y12.7
X15.748Y10.16
X18.288Y29.591
X18.288Y27.051
X18.288Y24.511
X18.288Y17.78
X18.288Y15.24
X18.288Y12.7
X18.288Y10.16
T3
X5.08Y35.56
X5.08Y5.08
X15.24Y35.56
X15.24Y5.08
T0
M30
