  0
SECTION
  2
HEADER
  9
$ANGBASE
  50
0.0
  9
$ANGDIR
  70
1
  9
$MEASUREMENT
  70
0
  0
ENDSEC
  0
SECTION
  2
TABLES
  0
TABLE
  2
LTYPE
  70
4
  0
LTYPE
  5
40F
  2
CONTINUOUS
  70
0
  3
Solid line
  72
65
  73
0
  40
0.0
  0
LTYPE
  5
410
  2
DASHDOT
 70
0
  3
Dash Dot ____ _ ____ _
 72
65
 73
4
 40
2.0
 49
1.25
 49
-0.25
 49
0.25
 49
-0.25
  0
LTYPE
  5
411
  2
DASHED
 70
0
  3
Dashed __ __ __ __ __
 72
65
 73
2
 40
0.75
 49
0.5
 49
-0.25
  0
LTYPE
  5
43B
  2
DOTTED
 70
0
  3
Dotted .  .  .  .
 72
65
 73
2
 40
0.2
 49
0.0
 49
-0.2
  0
ENDTAB
  0
TABLE
  2
STYLE
  70
4
  0
STYLE
  2
KICAD
  70
0
  40
0
  41
1
  42
1
  50
0
  71
0
  3
isocp.shx
  0
STYLE
  2
KICADB
  70
0
  40
0
  41
1
  42
1
  50
0
  71
0
  3
isocp.shx
  0
STYLE
  2
KICADI
  70
0
  40
0
  41
1
  42
1
  50
15
  71
0
  3
isocp.shx
  0
STYLE
  2
KICADBI
  70
0
  40
0
  41
1
  42
1
  50
15
  71
0
  3
isocp.shx
  0
ENDTAB
  0
TABLE
  2
LAYER
  70
1
  0
LAYER
  2
BLACK
  70
0
  62
7
  6
CONTINUOUS
  0
ENDTAB
  0
ENDSEC
  0
SECTION
  2
ENTITIES
0
LINE
8
BLACK
6
CONTINUOUS
10
0.614917
20
0.325098
11
0.628769
21
0.322656
0
LINE
8
BLACK
6
CONTINUOUS
10
0.628769
20
0.322656
11
0.642262
21
0.318684
0
LINE
8
BLACK
6
CONTINUOUS
10
0.642262
20
0.318684
11
0.655228
21
0.313234
0
LINE
8
BLACK
6
CONTINUOUS
10
0.655228
20
0.313234
11
0.667506
21
0.306372
0
LINE
8
BLACK
6
CONTINUOUS
10
0.667506
20
0.306372
11
0.678942
21
0.298184
0
LINE
8
BLACK
6
CONTINUOUS
10
0.678942
20
0.298184
11
0.689395
21
0.288773
0
LINE
8
BLACK
6
CONTINUOUS
10
0.689395
20
0.288773
11
0.698733
21
0.278255
0
LINE
8
BLACK
6
CONTINUOUS
10
0.698733
20
0.278255
11
0.706841
21
0.266761
0
LINE
8
BLACK
6
CONTINUOUS
10
0.706841
20
0.266761
11
0.713617
21
0.254436
0
LINE
8
BLACK
6
CONTINUOUS
10
0.713617
20
0.254436
11
0.718977
21
0.241432
0
LINE
8
BLACK
6
CONTINUOUS
10
0.718977
20
0.241432
11
0.722853
21
0.227912
0
LINE
8
BLACK
6
CONTINUOUS
10
0.722853
20
0.227912
11
0.725199
21
0.214043
0
LINE
8
BLACK
6
CONTINUOUS
10
0.725199
20
0.214043
11
0.725984
21
0.2
0
LINE
8
BLACK
6
CONTINUOUS
10
0.725984
20
0.2
11
0.725935
21
0.196482
0
LINE
8
BLACK
6
CONTINUOUS
10
0.725935
20
0.196482
11
0.724758
21
0.182466
0
LINE
8
BLACK
6
CONTINUOUS
10
0.724758
20
0.182466
11
0.722026
21
0.168669
0
LINE
8
BLACK
6
CONTINUOUS
10
0.722026
20
0.168669
11
0.717773
21
0.155262
0
LINE
8
BLACK
6
CONTINUOUS
10
0.717773
20
0.155262
11
0.712052
21
0.142413
0
LINE
8
BLACK
6
CONTINUOUS
10
0.712052
20
0.142413
11
0.704935
21
0.130281
0
LINE
8
BLACK
6
CONTINUOUS
10
0.704935
20
0.130281
11
0.69651
21
0.119019
0
LINE
8
BLACK
6
CONTINUOUS
10
0.69651
20
0.119019
11
0.686881
21
0.108766
0
LINE
8
BLACK
6
CONTINUOUS
10
0.686881
20
0.108766
11
0.67617
21
0.0996498
0
LINE
8
BLACK
6
CONTINUOUS
10
0.67617
20
0.0996498
11
0.664509
21
0.0917846
0
LINE
8
BLACK
6
CONTINUOUS
10
0.664509
20
0.0917846
11
0.652045
21
0.0852682
0
LINE
8
BLACK
6
CONTINUOUS
10
0.652045
20
0.0852682
11
0.638931
21
0.0801819
0
LINE
8
BLACK
6
CONTINUOUS
10
0.638931
20
0.0801819
11
0.625333
21
0.0765889
0
LINE
8
BLACK
6
CONTINUOUS
10
0.625333
20
0.0765889
11
0.611418
21
0.0745343
0
LINE
8
BLACK
6
CONTINUOUS
10
0.611418
20
0.0745343
11
0.597362
21
0.0740434
0
LINE
8
BLACK
6
CONTINUOUS
10
0.597362
20
0.0740434
11
0.583338
21
0.0751224
0
LINE
8
BLACK
6
CONTINUOUS
10
0.583338
20
0.0751224
11
0.569522
21
0.077758
0
LINE
8
BLACK
6
CONTINUOUS
10
0.569522
20
0.077758
11
0.556085
21
0.0819172
0
LINE
8
BLACK
6
CONTINUOUS
10
0.556085
20
0.0819172
11
0.543197
21
0.0875482
0
LINE
8
BLACK
6
CONTINUOUS
10
0.543197
20
0.0875482
11
0.531016
21
0.0945809
0
LINE
8
BLACK
6
CONTINUOUS
10
0.531016
20
0.0945809
11
0.519695
21
0.102927
0
LINE
8
BLACK
6
CONTINUOUS
10
0.519695
20
0.102927
11
0.509375
21
0.112484
0
LINE
8
BLACK
6
CONTINUOUS
10
0.509375
20
0.112484
11
0.500184
21
0.123131
0
LINE
8
BLACK
6
CONTINUOUS
10
0.500184
20
0.123131
11
0.492238
21
0.134737
0
LINE
8
BLACK
6
CONTINUOUS
10
0.492238
20
0.134737
11
0.485634
21
0.147156
0
LINE
8
BLACK
6
CONTINUOUS
10
0.485634
20
0.147156
11
0.480457
21
0.160233
0
LINE
8
BLACK
6
CONTINUOUS
10
0.480457
20
0.160233
11
0.476769
21
0.173806
0
LINE
8
BLACK
6
CONTINUOUS
10
0.476769
20
0.173806
11
0.474617
21
0.187706
0
LINE
8
BLACK
6
CONTINUOUS
10
0.474617
20
0.187706
11
0.474028
21
0.201759
0
LINE
8
BLACK
6
CONTINUOUS
10
0.474028
20
0.201759
11
0.475009
21
0.21579
0
LINE
8
BLACK
6
CONTINUOUS
10
0.475009
20
0.21579
11
0.477548
21
0.229624
0
LINE
8
BLACK
6
CONTINUOUS
10
0.477548
20
0.229624
11
0.481614
21
0.243089
0
LINE
8
BLACK
6
CONTINUOUS
10
0.481614
20
0.243089
11
0.487154
21
0.256017
0
LINE
8
BLACK
6
CONTINUOUS
10
0.487154
20
0.256017
11
0.494102
21
0.268247
0
LINE
8
BLACK
6
CONTINUOUS
10
0.494102
20
0.268247
11
0.502369
21
0.279626
0
LINE
8
BLACK
6
CONTINUOUS
10
0.502369
20
0.279626
11
0.511853
21
0.290012
0
LINE
8
BLACK
6
CONTINUOUS
10
0.511853
20
0.290012
11
0.522436
21
0.299277
0
LINE
8
BLACK
6
CONTINUOUS
10
0.522436
20
0.299277
11
0.533986
21
0.307304
0
LINE
8
BLACK
6
CONTINUOUS
10
0.533986
20
0.307304
11
0.546359
21
0.313994
0
LINE
8
BLACK
6
CONTINUOUS
10
0.546359
20
0.313994
11
0.5594
21
0.319263
0
LINE
8
BLACK
6
CONTINUOUS
10
0.5594
20
0.319263
11
0.572947
21
0.323045
0
LINE
8
BLACK
6
CONTINUOUS
10
0.572947
20
0.323045
11
0.586831
21
0.325294
0
LINE
8
BLACK
6
CONTINUOUS
10
0.586831
20
0.325294
11
0.60088
21
0.325981
0
LINE
8
BLACK
6
CONTINUOUS
10
0.60088
20
0.325981
11
0.614917
21
0.325098
0
LINE
8
BLACK
6
CONTINUOUS
10
0.214917
20
0.325098
11
0.228769
21
0.322656
0
LINE
8
BLACK
6
CONTINUOUS
10
0.228769
20
0.322656
11
0.242262
21
0.318684
0
LINE
8
BLACK
6
CONTINUOUS
10
0.242262
20
0.318684
11
0.255228
21
0.313234
0
LINE
8
BLACK
6
CONTINUOUS
10
0.255228
20
0.313234
11
0.267506
21
0.306372
0
LINE
8
BLACK
6
CONTINUOUS
10
0.267506
20
0.306372
11
0.278942
21
0.298184
0
LINE
8
BLACK
6
CONTINUOUS
10
0.278942
20
0.298184
11
0.289395
21
0.288773
0
LINE
8
BLACK
6
CONTINUOUS
10
0.289395
20
0.288773
11
0.298733
21
0.278255
0
LINE
8
BLACK
6
CONTINUOUS
10
0.298733
20
0.278255
11
0.306841
21
0.266761
0
LINE
8
BLACK
6
CONTINUOUS
10
0.306841
20
0.266761
11
0.313617
21
0.254436
0
LINE
8
BLACK
6
CONTINUOUS
10
0.313617
20
0.254436
11
0.318977
21
0.241432
0
LINE
8
BLACK
6
CONTINUOUS
10
0.318977
20
0.241432
11
0.322853
21
0.227912
0
LINE
8
BLACK
6
CONTINUOUS
10
0.322853
20
0.227912
11
0.325199
21
0.214043
0
LINE
8
BLACK
6
CONTINUOUS
10
0.325199
20
0.214043
11
0.325984
21
0.2
0
LINE
8
BLACK
6
CONTINUOUS
10
0.325984
20
0.2
11
0.325935
21
0.196482
0
LINE
8
BLACK
6
CONTINUOUS
10
0.325935
20
0.196482
11
0.324758
21
0.182466
0
LINE
8
BLACK
6
CONTINUOUS
10
0.324758
20
0.182466
11
0.322026
21
0.168669
0
LINE
8
BLACK
6
CONTINUOUS
10
0.322026
20
0.168669
11
0.317773
21
0.155262
0
LINE
8
BLACK
6
CONTINUOUS
10
0.317773
20
0.155262
11
0.312052
21
0.142413
0
LINE
8
BLACK
6
CONTINUOUS
10
0.312052
20
0.142413
11
0.304935
21
0.130281
0
LINE
8
BLACK
6
CONTINUOUS
10
0.304935
20
0.130281
11
0.29651
21
0.119019
0
LINE
8
BLACK
6
CONTINUOUS
10
0.29651
20
0.119019
11
0.286881
21
0.108766
0
LINE
8
BLACK
6
CONTINUOUS
10
0.286881
20
0.108766
11
0.27617
21
0.0996498
0
LINE
8
BLACK
6
CONTINUOUS
10
0.27617
20
0.0996498
11
0.264509
21
0.0917846
0
LINE
8
BLACK
6
CONTINUOUS
10
0.264509
20
0.0917846
11
0.252045
21
0.0852682
0
LINE
8
BLACK
6
CONTINUOUS
10
0.252045
20
0.0852682
11
0.238931
21
0.0801819
0
LINE
8
BLACK
6
CONTINUOUS
10
0.238931
20
0.0801819
11
0.225333
21
0.0765889
0
LINE
8
BLACK
6
CONTINUOUS
10
0.225333
20
0.0765889
11
0.211418
21
0.0745343
0
LINE
8
BLACK
6
CONTINUOUS
10
0.211418
20
0.0745343
11
0.197362
21
0.0740434
0
LINE
8
BLACK
6
CONTINUOUS
10
0.197362
20
0.0740434
11
0.183338
21
0.0751224
0
LINE
8
BLACK
6
CONTINUOUS
10
0.183338
20
0.0751224
11
0.169522
21
0.077758
0
LINE
8
BLACK
6
CONTINUOUS
10
0.169522
20
0.077758
11
0.156085
21
0.0819172
0
LINE
8
BLACK
6
CONTINUOUS
10
0.156085
20
0.0819172
11
0.143197
21
0.0875482
0
LINE
8
BLACK
6
CONTINUOUS
10
0.143197
20
0.0875482
11
0.131016
21
0.0945809
0
LINE
8
BLACK
6
CONTINUOUS
10
0.131016
20
0.0945809
11
0.119695
21
0.102927
0
LINE
8
BLACK
6
CONTINUOUS
10
0.119695
20
0.102927
11
0.109375
21
0.112484
0
LINE
8
BLACK
6
CONTINUOUS
10
0.109375
20
0.112484
11
0.100184
21
0.123131
0
LINE
8
BLACK
6
CONTINUOUS
10
0.100184
20
0.123131
11
0.0922376
21
0.134737
0
LINE
8
BLACK
6
CONTINUOUS
10
0.0922376
20
0.134737
11
0.0856343
21
0.147156
0
LINE
8
BLACK
6
CONTINUOUS
10
0.0856343
20
0.147156
11
0.0804566
21
0.160233
0
LINE
8
BLACK
6
CONTINUOUS
10
0.0804566
20
0.160233
11
0.0767688
21
0.173806
0
LINE
8
BLACK
6
CONTINUOUS
10
0.0767688
20
0.173806
11
0.074617
21
0.187706
0
LINE
8
BLACK
6
CONTINUOUS
10
0.074617
20
0.187706
11
0.074028
21
0.201759
0
LINE
8
BLACK
6
CONTINUOUS
10
0.074028
20
0.201759
11
0.0750092
21
0.21579
0
LINE
8
BLACK
6
CONTINUOUS
10
0.0750092
20
0.21579
11
0.0775482
21
0.229624
0
LINE
8
BLACK
6
CONTINUOUS
10
0.0775482
20
0.229624
11
0.0816135
21
0.243089
0
LINE
8
BLACK
6
CONTINUOUS
10
0.0816135
20
0.243089
11
0.0871544
21
0.256017
0
LINE
8
BLACK
6
CONTINUOUS
10
0.0871544
20
0.256017
11
0.0941019
21
0.268247
0
LINE
8
BLACK
6
CONTINUOUS
10
0.0941019
20
0.268247
11
0.102369
21
0.279626
0
LINE
8
BLACK
6
CONTINUOUS
10
0.102369
20
0.279626
11
0.111853
21
0.290012
0
LINE
8
BLACK
6
CONTINUOUS
10
0.111853
20
0.290012
11
0.122436
21
0.299277
0
LINE
8
BLACK
6
CONTINUOUS
10
0.122436
20
0.299277
11
0.133986
21
0.307304
0
LINE
8
BLACK
6
CONTINUOUS
10
0.133986
20
0.307304
11
0.146359
21
0.313994
0
LINE
8
BLACK
6
CONTINUOUS
10
0.146359
20
0.313994
11
0.1594
21
0.319263
0
LINE
8
BLACK
6
CONTINUOUS
10
0.1594
20
0.319263
11
0.172947
21
0.323045
0
LINE
8
BLACK
6
CONTINUOUS
10
0.172947
20
0.323045
11
0.186831
21
0.325294
0
LINE
8
BLACK
6
CONTINUOUS
10
0.186831
20
0.325294
11
0.20088
21
0.325981
0
LINE
8
BLACK
6
CONTINUOUS
10
0.20088
20
0.325981
11
0.214917
21
0.325098
0
LINE
8
BLACK
6
CONTINUOUS
10
0.753013
20
0.437275
11
0.755568
21
0.435568
0
LINE
8
BLACK
6
CONTINUOUS
10
0.755568
20
0.435568
11
0.757275
21
0.433013
0
LINE
8
BLACK
6
CONTINUOUS
10
0.757275
20
0.433013
11
0.757874
21
0.43
0
LINE
8
BLACK
6
CONTINUOUS
10
0.757874
20
0.43
11
0.757874
21
0.37
0
LINE
8
BLACK
6
CONTINUOUS
10
0.757874
20
0.37
11
0.757275
21
0.366987
0
LINE
8
BLACK
6
CONTINUOUS
10
0.757275
20
0.366987
11
0.755568
21
0.364432
0
LINE
8
BLACK
6
CONTINUOUS
10
0.755568
20
0.364432
11
0.753013
21
0.362725
0
LINE
8
BLACK
6
CONTINUOUS
10
0.753013
20
0.362725
11
0.75
21
0.362126
0
LINE
8
BLACK
6
CONTINUOUS
10
0.75
20
0.362126
11
0.69
21
0.362126
0
LINE
8
BLACK
6
CONTINUOUS
10
0.69
20
0.362126
11
0.686987
21
0.362725
0
LINE
8
BLACK
6
CONTINUOUS
10
0.686987
20
0.362725
11
0.684432
21
0.364432
0
LINE
8
BLACK
6
CONTINUOUS
10
0.684432
20
0.364432
11
0.682725
21
0.366987
0
LINE
8
BLACK
6
CONTINUOUS
10
0.682725
20
0.366987
11
0.682126
21
0.37
0
LINE
8
BLACK
6
CONTINUOUS
10
0.682126
20
0.37
11
0.682126
21
0.43
0
LINE
8
BLACK
6
CONTINUOUS
10
0.682126
20
0.43
11
0.682725
21
0.433013
0
LINE
8
BLACK
6
CONTINUOUS
10
0.682725
20
0.433013
11
0.684432
21
0.435568
0
LINE
8
BLACK
6
CONTINUOUS
10
0.684432
20
0.435568
11
0.686987
21
0.437275
0
LINE
8
BLACK
6
CONTINUOUS
10
0.686987
20
0.437275
11
0.69
21
0.437874
0
LINE
8
BLACK
6
CONTINUOUS
10
0.69
20
0.437874
11
0.75
21
0.437874
0
LINE
8
BLACK
6
CONTINUOUS
10
0.75
20
0.437874
11
0.753013
21
0.437275
0
LINE
8
BLACK
6
CONTINUOUS
10
0.653013
20
0.437275
11
0.655568
21
0.435568
0
LINE
8
BLACK
6
CONTINUOUS
10
0.655568
20
0.435568
11
0.657275
21
0.433013
0
LINE
8
BLACK
6
CONTINUOUS
10
0.657275
20
0.433013
11
0.657874
21
0.43
0
LINE
8
BLACK
6
CONTINUOUS
10
0.657874
20
0.43
11
0.657874
21
0.37
0
LINE
8
BLACK
6
CONTINUOUS
10
0.657874
20
0.37
11
0.657275
21
0.366987
0
LINE
8
BLACK
6
CONTINUOUS
10
0.657275
20
0.366987
11
0.655568
21
0.364432
0
LINE
8
BLACK
6
CONTINUOUS
10
0.655568
20
0.364432
11
0.653013
21
0.362725
0
LINE
8
BLACK
6
CONTINUOUS
10
0.653013
20
0.362725
11
0.65
21
0.362126
0
LINE
8
BLACK
6
CONTINUOUS
10
0.65
20
0.362126
11
0.59
21
0.362126
0
LINE
8
BLACK
6
CONTINUOUS
10
0.59
20
0.362126
11
0.586987
21
0.362725
0
LINE
8
BLACK
6
CONTINUOUS
10
0.586987
20
0.362725
11
0.584432
21
0.364432
0
LINE
8
BLACK
6
CONTINUOUS
10
0.584432
20
0.364432
11
0.582725
21
0.366987
0
LINE
8
BLACK
6
CONTINUOUS
10
0.582725
20
0.366987
11
0.582126
21
0.37
0
LINE
8
BLACK
6
CONTINUOUS
10
0.582126
20
0.37
11
0.582126
21
0.43
0
LINE
8
BLACK
6
CONTINUOUS
10
0.582126
20
0.43
11
0.582725
21
0.433013
0
LINE
8
BLACK
6
CONTINUOUS
10
0.582725
20
0.433013
11
0.584432
21
0.435568
0
LINE
8
BLACK
6
CONTINUOUS
10
0.584432
20
0.435568
11
0.586987
21
0.437275
0
LINE
8
BLACK
6
CONTINUOUS
10
0.586987
20
0.437275
11
0.59
21
0.437874
0
LINE
8
BLACK
6
CONTINUOUS
10
0.59
20
0.437874
11
0.65
21
0.437874
0
LINE
8
BLACK
6
CONTINUOUS
10
0.65
20
0.437874
11
0.653013
21
0.437275
0
LINE
8
BLACK
6
CONTINUOUS
10
0.517013
20
0.516475
11
0.519568
21
0.514768
0
LINE
8
BLACK
6
CONTINUOUS
10
0.519568
20
0.514768
11
0.521275
21
0.512213
0
LINE
8
BLACK
6
CONTINUOUS
10
0.521275
20
0.512213
11
0.521874
21
0.5092
0
LINE
8
BLACK
6
CONTINUOUS
10
0.521874
20
0.5092
11
0.521874
21
0.4108
0
LINE
8
BLACK
6
CONTINUOUS
10
0.521874
20
0.4108
11
0.521275
21
0.407787
0
LINE
8
BLACK
6
CONTINUOUS
10
0.521275
20
0.407787
11
0.519568
21
0.405232
0
LINE
8
BLACK
6
CONTINUOUS
10
0.519568
20
0.405232
11
0.517013
21
0.403525
0
LINE
8
BLACK
6
CONTINUOUS
10
0.517013
20
0.403525
11
0.514
21
0.402926
0
LINE
8
BLACK
6
CONTINUOUS
10
0.514
20
0.402926
11
0.4136
21
0.402926
0
LINE
8
BLACK
6
CONTINUOUS
10
0.4136
20
0.402926
11
0.410587
21
0.403525
0
LINE
8
BLACK
6
CONTINUOUS
10
0.410587
20
0.403525
11
0.408032
21
0.405232
0
LINE
8
BLACK
6
CONTINUOUS
10
0.408032
20
0.405232
11
0.406325
21
0.407787
0
LINE
8
BLACK
6
CONTINUOUS
10
0.406325
20
0.407787
11
0.405726
21
0.4108
0
LINE
8
BLACK
6
CONTINUOUS
10
0.405726
20
0.4108
11
0.405726
21
0.5092
0
LINE
8
BLACK
6
CONTINUOUS
10
0.405726
20
0.5092
11
0.406325
21
0.512213
0
LINE
8
BLACK
6
CONTINUOUS
10
0.406325
20
0.512213
11
0.408032
21
0.514768
0
LINE
8
BLACK
6
CONTINUOUS
10
0.408032
20
0.514768
11
0.410587
21
0.516475
0
LINE
8
BLACK
6
CONTINUOUS
10
0.410587
20
0.516475
11
0.4136
21
0.517074
0
LINE
8
BLACK
6
CONTINUOUS
10
0.4136
20
0.517074
11
0.514
21
0.517074
0
LINE
8
BLACK
6
CONTINUOUS
10
0.514
20
0.517074
11
0.517013
21
0.516475
0
LINE
8
BLACK
6
CONTINUOUS
10
0.318213
20
0.516475
11
0.320768
21
0.514768
0
LINE
8
BLACK
6
CONTINUOUS
10
0.320768
20
0.514768
11
0.322475
21
0.512213
0
LINE
8
BLACK
6
CONTINUOUS
10
0.322475
20
0.512213
11
0.323074
21
0.5092
0
LINE
8
BLACK
6
CONTINUOUS
10
0.323074
20
0.5092
11
0.323074
21
0.4108
0
LINE
8
BLACK
6
CONTINUOUS
10
0.323074
20
0.4108
11
0.322475
21
0.407787
0
LINE
8
BLACK
6
CONTINUOUS
10
0.322475
20
0.407787
11
0.320768
21
0.405232
0
LINE
8
BLACK
6
CONTINUOUS
10
0.320768
20
0.405232
11
0.318213
21
0.403525
0
LINE
8
BLACK
6
CONTINUOUS
10
0.318213
20
0.403525
11
0.3152
21
0.402926
0
LINE
8
BLACK
6
CONTINUOUS
10
0.3152
20
0.402926
11
0.2148
21
0.402926
0
LINE
8
BLACK
6
CONTINUOUS
10
0.2148
20
0.402926
11
0.211787
21
0.403525
0
LINE
8
BLACK
6
CONTINUOUS
10
0.211787
20
0.403525
11
0.209232
21
0.405232
0
LINE
8
BLACK
6
CONTINUOUS
10
0.209232
20
0.405232
11
0.207525
21
0.407787
0
LINE
8
BLACK
6
CONTINUOUS
10
0.207525
20
0.407787
11
0.206926
21
0.4108
0
LINE
8
BLACK
6
CONTINUOUS
10
0.206926
20
0.4108
11
0.206926
21
0.5092
0
LINE
8
BLACK
6
CONTINUOUS
10
0.206926
20
0.5092
11
0.207525
21
0.512213
0
LINE
8
BLACK
6
CONTINUOUS
10
0.207525
20
0.512213
11
0.209232
21
0.514768
0
LINE
8
BLACK
6
CONTINUOUS
10
0.209232
20
0.514768
11
0.211787
21
0.516475
0
LINE
8
BLACK
6
CONTINUOUS
10
0.211787
20
0.516475
11
0.2148
21
0.517074
0
LINE
8
BLACK
6
CONTINUOUS
10
0.2148
20
0.517074
11
0.3152
21
0.517074
0
LINE
8
BLACK
6
CONTINUOUS
10
0.3152
20
0.517074
11
0.318213
21
0.516475
0
LINE
8
BLACK
6
CONTINUOUS
10
0.653013
20
0.537275
11
0.655568
21
0.535568
0
LINE
8
BLACK
6
CONTINUOUS
10
0.655568
20
0.535568
11
0.657275
21
0.533013
0
LINE
8
BLACK
6
CONTINUOUS
10
0.657275
20
0.533013
11
0.657874
21
0.53
0
LINE
8
BLACK
6
CONTINUOUS
10
0.657874
20
0.53
11
0.657874
21
0.47
0
LINE
8
BLACK
6
CONTINUOUS
10
0.657874
20
0.47
11
0.657275
21
0.466987
0
LINE
8
BLACK
6
CONTINUOUS
10
0.657275
20
0.466987
11
0.655568
21
0.464432
0
LINE
8
BLACK
6
CONTINUOUS
10
0.655568
20
0.464432
11
0.653013
21
0.462725
0
LINE
8
BLACK
6
CONTINUOUS
10
0.653013
20
0.462725
11
0.65
21
0.462126
0
LINE
8
BLACK
6
CONTINUOUS
10
0.65
20
0.462126
11
0.59
21
0.462126
0
LINE
8
BLACK
6
CONTINUOUS
10
0.59
20
0.462126
11
0.586987
21
0.462725
0
LINE
8
BLACK
6
CONTINUOUS
10
0.586987
20
0.462725
11
0.584432
21
0.464432
0
LINE
8
BLACK
6
CONTINUOUS
10
0.584432
20
0.464432
11
0.582725
21
0.466987
0
LINE
8
BLACK
6
CONTINUOUS
10
0.582725
20
0.466987
11
0.582126
21
0.47
0
LINE
8
BLACK
6
CONTINUOUS
10
0.582126
20
0.47
11
0.582126
21
0.53
0
LINE
8
BLACK
6
CONTINUOUS
10
0.582126
20
0.53
11
0.582725
21
0.533013
0
LINE
8
BLACK
6
CONTINUOUS
10
0.582725
20
0.533013
11
0.584432
21
0.535568
0
LINE
8
BLACK
6
CONTINUOUS
10
0.584432
20
0.535568
11
0.586987
21
0.537275
0
LINE
8
BLACK
6
CONTINUOUS
10
0.586987
20
0.537275
11
0.59
21
0.537874
0
LINE
8
BLACK
6
CONTINUOUS
10
0.59
20
0.537874
11
0.65
21
0.537874
0
LINE
8
BLACK
6
CONTINUOUS
10
0.65
20
0.537874
11
0.653013
21
0.537275
0
LINE
8
BLACK
6
CONTINUOUS
10
0.753013
20
0.537275
11
0.755568
21
0.535568
0
LINE
8
BLACK
6
CONTINUOUS
10
0.755568
20
0.535568
11
0.757275
21
0.533013
0
LINE
8
BLACK
6
CONTINUOUS
10
0.757275
20
0.533013
11
0.757874
21
0.53
0
LINE
8
BLACK
6
CONTINUOUS
10
0.757874
20
0.53
11
0.757874
21
0.47
0
LINE
8
BLACK
6
CONTINUOUS
10
0.757874
20
0.47
11
0.757275
21
0.466987
0
LINE
8
BLACK
6
CONTINUOUS
10
0.757275
20
0.466987
11
0.755568
21
0.464432
0
LINE
8
BLACK
6
CONTINUOUS
10
0.755568
20
0.464432
11
0.753013
21
0.462725
0
LINE
8
BLACK
6
CONTINUOUS
10
0.753013
20
0.462725
11
0.75
21
0.462126
0
LINE
8
BLACK
6
CONTINUOUS
10
0.75
20
0.462126
11
0.69
21
0.462126
0
LINE
8
BLACK
6
CONTINUOUS
10
0.69
20
0.462126
11
0.686987
21
0.462725
0
LINE
8
BLACK
6
CONTINUOUS
10
0.686987
20
0.462725
11
0.684432
21
0.464432
0
LINE
8
BLACK
6
CONTINUOUS
10
0.684432
20
0.464432
11
0.682725
21
0.466987
0
LINE
8
BLACK
6
CONTINUOUS
10
0.682725
20
0.466987
11
0.682126
21
0.47
0
LINE
8
BLACK
6
CONTINUOUS
10
0.682126
20
0.47
11
0.682126
21
0.53
0
LINE
8
BLACK
6
CONTINUOUS
10
0.682126
20
0.53
11
0.682725
21
0.533013
0
LINE
8
BLACK
6
CONTINUOUS
10
0.682725
20
0.533013
11
0.684432
21
0.535568
0
LINE
8
BLACK
6
CONTINUOUS
10
0.684432
20
0.535568
11
0.686987
21
0.537275
0
LINE
8
BLACK
6
CONTINUOUS
10
0.686987
20
0.537275
11
0.69
21
0.537874
0
LINE
8
BLACK
6
CONTINUOUS
10
0.69
20
0.537874
11
0.75
21
0.537874
0
LINE
8
BLACK
6
CONTINUOUS
10
0.75
20
0.537874
11
0.753013
21
0.537275
0
LINE
8
BLACK
6
CONTINUOUS
10
0.753013
20
0.637275
11
0.755568
21
0.635568
0
LINE
8
BLACK
6
CONTINUOUS
10
0.755568
20
0.635568
11
0.757275
21
0.633013
0
LINE
8
BLACK
6
CONTINUOUS
10
0.757275
20
0.633013
11
0.757874
21
0.63
0
LINE
8
BLACK
6
CONTINUOUS
10
0.757874
20
0.63
11
0.757874
21
0.57
0
LINE
8
BLACK
6
CONTINUOUS
10
0.757874
20
0.57
11
0.757275
21
0.566987
0
LINE
8
BLACK
6
CONTINUOUS
10
0.757275
20
0.566987
11
0.755568
21
0.564432
0
LINE
8
BLACK
6
CONTINUOUS
10
0.755568
20
0.564432
11
0.753013
21
0.562725
0
LINE
8
BLACK
6
CONTINUOUS
10
0.753013
20
0.562725
11
0.75
21
0.562126
0
LINE
8
BLACK
6
CONTINUOUS
10
0.75
20
0.562126
11
0.69
21
0.562126
0
LINE
8
BLACK
6
CONTINUOUS
10
0.69
20
0.562126
11
0.686987
21
0.562725
0
LINE
8
BLACK
6
CONTINUOUS
10
0.686987
20
0.562725
11
0.684432
21
0.564432
0
LINE
8
BLACK
6
CONTINUOUS
10
0.684432
20
0.564432
11
0.682725
21
0.566987
0
LINE
8
BLACK
6
CONTINUOUS
10
0.682725
20
0.566987
11
0.682126
21
0.57
0
LINE
8
BLACK
6
CONTINUOUS
10
0.682126
20
0.57
11
0.682126
21
0.63
0
LINE
8
BLACK
6
CONTINUOUS
10
0.682126
20
0.63
11
0.682725
21
0.633013
0
LINE
8
BLACK
6
CONTINUOUS
10
0.682725
20
0.633013
11
0.684432
21
0.635568
0
LINE
8
BLACK
6
CONTINUOUS
10
0.684432
20
0.635568
11
0.686987
21
0.637275
0
LINE
8
BLACK
6
CONTINUOUS
10
0.686987
20
0.637275
11
0.69
21
0.637874
0
LINE
8
BLACK
6
CONTINUOUS
10
0.69
20
0.637874
11
0.75
21
0.637874
0
LINE
8
BLACK
6
CONTINUOUS
10
0.75
20
0.637874
11
0.753013
21
0.637275
0
LINE
8
BLACK
6
CONTINUOUS
10
0.653013
20
0.637275
11
0.655568
21
0.635568
0
LINE
8
BLACK
6
CONTINUOUS
10
0.655568
20
0.635568
11
0.657275
21
0.633013
0
LINE
8
BLACK
6
CONTINUOUS
10
0.657275
20
0.633013
11
0.657874
21
0.63
0
LINE
8
BLACK
6
CONTINUOUS
10
0.657874
20
0.63
11
0.657874
21
0.57
0
LINE
8
BLACK
6
CONTINUOUS
10
0.657874
20
0.57
11
0.657275
21
0.566987
0
LINE
8
BLACK
6
CONTINUOUS
10
0.657275
20
0.566987
11
0.655568
21
0.564432
0
LINE
8
BLACK
6
CONTINUOUS
10
0.655568
20
0.564432
11
0.653013
21
0.562725
0
LINE
8
BLACK
6
CONTINUOUS
10
0.653013
20
0.562725
11
0.65
21
0.562126
0
LINE
8
BLACK
6
CONTINUOUS
10
0.65
20
0.562126
11
0.59
21
0.562126
0
LINE
8
BLACK
6
CONTINUOUS
10
0.59
20
0.562126
11
0.586987
21
0.562725
0
LINE
8
BLACK
6
CONTINUOUS
10
0.586987
20
0.562725
11
0.584432
21
0.564432
0
LINE
8
BLACK
6
CONTINUOUS
10
0.584432
20
0.564432
11
0.582725
21
0.566987
0
LINE
8
BLACK
6
CONTINUOUS
10
0.582725
20
0.566987
11
0.582126
21
0.57
0
LINE
8
BLACK
6
CONTINUOUS
10
0.582126
20
0.57
11
0.582126
21
0.63
0
LINE
8
BLACK
6
CONTINUOUS
10
0.582126
20
0.63
11
0.582725
21
0.633013
0
LINE
8
BLACK
6
CONTINUOUS
10
0.582725
20
0.633013
11
0.584432
21
0.635568
0
LINE
8
BLACK
6
CONTINUOUS
10
0.584432
20
0.635568
11
0.586987
21
0.637275
0
LINE
8
BLACK
6
CONTINUOUS
10
0.586987
20
0.637275
11
0.59
21
0.637874
0
LINE
8
BLACK
6
CONTINUOUS
10
0.59
20
0.637874
11
0.65
21
0.637874
0
LINE
8
BLACK
6
CONTINUOUS
10
0.65
20
0.637874
11
0.653013
21
0.637275
0
LINE
8
BLACK
6
CONTINUOUS
10
0.150513
20
0.614775
11
0.153068
21
0.613068
0
LINE
8
BLACK
6
CONTINUOUS
10
0.153068
20
0.613068
11
0.154775
21
0.610513
0
LINE
8
BLACK
6
CONTINUOUS
10
0.154775
20
0.610513
11
0.155374
21
0.6075
0
LINE
8
BLACK
6
CONTINUOUS
10
0.155374
20
0.6075
11
0.155374
21
0.5725
0
LINE
8
BLACK
6
CONTINUOUS
10
0.155374
20
0.5725
11
0.154775
21
0.569487
0
LINE
8
BLACK
6
CONTINUOUS
10
0.154775
20
0.569487
11
0.153068
21
0.566932
0
LINE
8
BLACK
6
CONTINUOUS
10
0.153068
20
0.566932
11
0.150513
21
0.565225
0
LINE
8
BLACK
6
CONTINUOUS
10
0.150513
20
0.565225
11
0.1475
21
0.564626
0
LINE
8
BLACK
6
CONTINUOUS
10
0.1475
20
0.564626
11
0.0925
21
0.564626
0
LINE
8
BLACK
6
CONTINUOUS
10
0.0925
20
0.564626
11
0.0894867
21
0.565225
0
LINE
8
BLACK
6
CONTINUOUS
10
0.0894867
20
0.565225
11
0.0869322
21
0.566932
0
LINE
8
BLACK
6
CONTINUOUS
10
0.0869322
20
0.566932
11
0.0852254
21
0.569487
0
LINE
8
BLACK
6
CONTINUOUS
10
0.0852254
20
0.569487
11
0.084626
21
0.5725
0
LINE
8
BLACK
6
CONTINUOUS
10
0.084626
20
0.5725
11
0.084626
21
0.6075
0
LINE
8
BLACK
6
CONTINUOUS
10
0.084626
20
0.6075
11
0.0852254
21
0.610513
0
LINE
8
BLACK
6
CONTINUOUS
10
0.0852254
20
0.610513
11
0.0869322
21
0.613068
0
LINE
8
BLACK
6
CONTINUOUS
10
0.0869322
20
0.613068
11
0.0894867
21
0.614775
0
LINE
8
BLACK
6
CONTINUOUS
10
0.0894867
20
0.614775
11
0.0925
21
0.615374
0
LINE
8
BLACK
6
CONTINUOUS
10
0.0925
20
0.615374
11
0.1475
21
0.615374
0
LINE
8
BLACK
6
CONTINUOUS
10
0.1475
20
0.615374
11
0.150513
21
0.614775
0
LINE
8
BLACK
6
CONTINUOUS
10
0.335513
20
0.614775
11
0.338068
21
0.613068
0
LINE
8
BLACK
6
CONTINUOUS
10
0.338068
20
0.613068
11
0.339775
21
0.610513
0
LINE
8
BLACK
6
CONTINUOUS
10
0.339775
20
0.610513
11
0.340374
21
0.6075
0
LINE
8
BLACK
6
CONTINUOUS
10
0.340374
20
0.6075
11
0.340374
21
0.5725
0
LINE
8
BLACK
6
CONTINUOUS
10
0.340374
20
0.5725
11
0.339775
21
0.569487
0
LINE
8
BLACK
6
CONTINUOUS
10
0.339775
20
0.569487
11
0.338068
21
0.566932
0
LINE
8
BLACK
6
CONTINUOUS
10
0.338068
20
0.566932
11
0.335513
21
0.565225
0
LINE
8
BLACK
6
CONTINUOUS
10
0.335513
20
0.565225
11
0.3325
21
0.564626
0
LINE
8
BLACK
6
CONTINUOUS
10
0.3325
20
0.564626
11
0.2775
21
0.564626
0
LINE
8
BLACK
6
CONTINUOUS
10
0.2775
20
0.564626
11
0.274487
21
0.565225
0
LINE
8
BLACK
6
CONTINUOUS
10
0.274487
20
0.565225
11
0.271932
21
0.566932
0
LINE
8
BLACK
6
CONTINUOUS
10
0.271932
20
0.566932
11
0.270225
21
0.569487
0
LINE
8
BLACK
6
CONTINUOUS
10
0.270225
20
0.569487
11
0.269626
21
0.5725
0
LINE
8
BLACK
6
CONTINUOUS
10
0.269626
20
0.5725
11
0.269626
21
0.6075
0
LINE
8
BLACK
6
CONTINUOUS
10
0.269626
20
0.6075
11
0.270225
21
0.610513
0
LINE
8
BLACK
6
CONTINUOUS
10
0.270225
20
0.610513
11
0.271932
21
0.613068
0
LINE
8
BLACK
6
CONTINUOUS
10
0.271932
20
0.613068
11
0.274487
21
0.614775
0
LINE
8
BLACK
6
CONTINUOUS
10
0.274487
20
0.614775
11
0.2775
21
0.615374
0
LINE
8
BLACK
6
CONTINUOUS
10
0.2775
20
0.615374
11
0.3325
21
0.615374
0
LINE
8
BLACK
6
CONTINUOUS
10
0.3325
20
0.615374
11
0.335513
21
0.614775
0
LINE
8
BLACK
6
CONTINUOUS
10
0.240513
20
0.614775
11
0.243068
21
0.613068
0
LINE
8
BLACK
6
CONTINUOUS
10
0.243068
20
0.613068
11
0.244775
21
0.610513
0
LINE
8
BLACK
6
CONTINUOUS
10
0.244775
20
0.610513
11
0.245374
21
0.6075
0
LINE
8
BLACK
6
CONTINUOUS
10
0.245374
20
0.6075
11
0.245374
21
0.5725
0
LINE
8
BLACK
6
CONTINUOUS
10
0.245374
20
0.5725
11
0.244775
21
0.569487
0
LINE
8
BLACK
6
CONTINUOUS
10
0.244775
20
0.569487
11
0.243068
21
0.566932
0
LINE
8
BLACK
6
CONTINUOUS
10
0.243068
20
0.566932
11
0.240513
21
0.565225
0
LINE
8
BLACK
6
CONTINUOUS
10
0.240513
20
0.565225
11
0.2375
21
0.564626
0
LINE
8
BLACK
6
CONTINUOUS
10
0.2375
20
0.564626
11
0.1825
21
0.564626
0
LINE
8
BLACK
6
CONTINUOUS
10
0.1825
20
0.564626
11
0.179487
21
0.565225
0
LINE
8
BLACK
6
CONTINUOUS
10
0.179487
20
0.565225
11
0.176932
21
0.566932
0
LINE
8
BLACK
6
CONTINUOUS
10
0.176932
20
0.566932
11
0.175225
21
0.569487
0
LINE
8
BLACK
6
CONTINUOUS
10
0.175225
20
0.569487
11
0.174626
21
0.5725
0
LINE
8
BLACK
6
CONTINUOUS
10
0.174626
20
0.5725
11
0.174626
21
0.6075
0
LINE
8
BLACK
6
CONTINUOUS
10
0.174626
20
0.6075
11
0.175225
21
0.610513
0
LINE
8
BLACK
6
CONTINUOUS
10
0.175225
20
0.610513
11
0.176932
21
0.613068
0
LINE
8
BLACK
6
CONTINUOUS
10
0.176932
20
0.613068
11
0.179487
21
0.614775
0
LINE
8
BLACK
6
CONTINUOUS
10
0.179487
20
0.614775
11
0.1825
21
0.615374
0
LINE
8
BLACK
6
CONTINUOUS
10
0.1825
20
0.615374
11
0.2375
21
0.615374
0
LINE
8
BLACK
6
CONTINUOUS
10
0.2375
20
0.615374
11
0.240513
21
0.614775
0
LINE
8
BLACK
6
CONTINUOUS
10
0.498289
20
0.681842
11
0.500843
21
0.680135
0
LINE
8
BLACK
6
CONTINUOUS
10
0.500843
20
0.680135
11
0.50255
21
0.67758
0
LINE
8
BLACK
6
CONTINUOUS
10
0.50255
20
0.67758
11
0.50315
21
0.674567
0
LINE
8
BLACK
6
CONTINUOUS
10
0.50315
20
0.674567
11
0.50315
21
0.576142
0
LINE
8
BLACK
6
CONTINUOUS
10
0.50315
20
0.576142
11
0.50255
21
0.573128
0
LINE
8
BLACK
6
CONTINUOUS
10
0.50255
20
0.573128
11
0.500843
21
0.570574
0
LINE
8
BLACK
6
CONTINUOUS
10
0.500843
20
0.570574
11
0.498289
21
0.568867
0
LINE
8
BLACK
6
CONTINUOUS
10
0.498289
20
0.568867
11
0.495276
21
0.568268
0
LINE
8
BLACK
6
CONTINUOUS
10
0.495276
20
0.568268
11
0.404724
21
0.568268
0
LINE
8
BLACK
6
CONTINUOUS
10
0.404724
20
0.568268
11
0.401711
21
0.568867
0
LINE
8
BLACK
6
CONTINUOUS
10
0.401711
20
0.568867
11
0.399157
21
0.570574
0
LINE
8
BLACK
6
CONTINUOUS
10
0.399157
20
0.570574
11
0.39745
21
0.573128
0
LINE
8
BLACK
6
CONTINUOUS
10
0.39745
20
0.573128
11
0.39685
21
0.576142
0
LINE
8
BLACK
6
CONTINUOUS
10
0.39685
20
0.576142
11
0.39685
21
0.674567
0
LINE
8
BLACK
6
CONTINUOUS
10
0.39685
20
0.674567
11
0.39745
21
0.67758
0
LINE
8
BLACK
6
CONTINUOUS
10
0.39745
20
0.67758
11
0.399157
21
0.680135
0
LINE
8
BLACK
6
CONTINUOUS
10
0.399157
20
0.680135
11
0.401711
21
0.681842
0
LINE
8
BLACK
6
CONTINUOUS
10
0.401711
20
0.681842
11
0.404724
21
0.682441
0
LINE
8
BLACK
6
CONTINUOUS
10
0.404724
20
0.682441
11
0.495276
21
0.682441
0
LINE
8
BLACK
6
CONTINUOUS
10
0.495276
20
0.682441
11
0.498289
21
0.681842
0
LINE
8
BLACK
6
CONTINUOUS
10
0.150513
20
0.689775
11
0.153068
21
0.688068
0
LINE
8
BLACK
6
CONTINUOUS
10
0.153068
20
0.688068
11
0.154775
21
0.685513
0
LINE
8
BLACK
6
CONTINUOUS
10
0.154775
20
0.685513
11
0.155374
21
0.6825
0
LINE
8
BLACK
6
CONTINUOUS
10
0.155374
20
0.6825
11
0.155374
21
0.6475
0
LINE
8
BLACK
6
CONTINUOUS
10
0.155374
20
0.6475
11
0.154775
21
0.644487
0
LINE
8
BLACK
6
CONTINUOUS
10
0.154775
20
0.644487
11
0.153068
21
0.641932
0
LINE
8
BLACK
6
CONTINUOUS
10
0.153068
20
0.641932
11
0.150513
21
0.640225
0
LINE
8
BLACK
6
CONTINUOUS
10
0.150513
20
0.640225
11
0.1475
21
0.639626
0
LINE
8
BLACK
6
CONTINUOUS
10
0.1475
20
0.639626
11
0.0925
21
0.639626
0
LINE
8
BLACK
6
CONTINUOUS
10
0.0925
20
0.639626
11
0.0894867
21
0.640225
0
LINE
8
BLACK
6
CONTINUOUS
10
0.0894867
20
0.640225
11
0.0869322
21
0.641932
0
LINE
8
BLACK
6
CONTINUOUS
10
0.0869322
20
0.641932
11
0.0852254
21
0.644487
0
LINE
8
BLACK
6
CONTINUOUS
10
0.0852254
20
0.644487
11
0.084626
21
0.6475
0
LINE
8
BLACK
6
CONTINUOUS
10
0.084626
20
0.6475
11
0.084626
21
0.6825
0
LINE
8
BLACK
6
CONTINUOUS
10
0.084626
20
0.6825
11
0.0852254
21
0.685513
0
LINE
8
BLACK
6
CONTINUOUS
10
0.0852254
20
0.685513
11
0.0869322
21
0.688068
0
LINE
8
BLACK
6
CONTINUOUS
10
0.0869322
20
0.688068
11
0.0894867
21
0.689775
0
LINE
8
BLACK
6
CONTINUOUS
10
0.0894867
20
0.689775
11
0.0925
21
0.690374
0
LINE
8
BLACK
6
CONTINUOUS
10
0.0925
20
0.690374
11
0.1475
21
0.690374
0
LINE
8
BLACK
6
CONTINUOUS
10
0.1475
20
0.690374
11
0.150513
21
0.689775
0
LINE
8
BLACK
6
CONTINUOUS
10
0.240513
20
0.689775
11
0.243068
21
0.688068
0
LINE
8
BLACK
6
CONTINUOUS
10
0.243068
20
0.688068
11
0.244775
21
0.685513
0
LINE
8
BLACK
6
CONTINUOUS
10
0.244775
20
0.685513
11
0.245374
21
0.6825
0
LINE
8
BLACK
6
CONTINUOUS
10
0.245374
20
0.6825
11
0.245374
21
0.6475
0
LINE
8
BLACK
6
CONTINUOUS
10
0.245374
20
0.6475
11
0.244775
21
0.644487
0
LINE
8
BLACK
6
CONTINUOUS
10
0.244775
20
0.644487
11
0.243068
21
0.641932
0
LINE
8
BLACK
6
CONTINUOUS
10
0.243068
20
0.641932
11
0.240513
21
0.640225
0
LINE
8
BLACK
6
CONTINUOUS
10
0.240513
20
0.640225
11
0.2375
21
0.639626
0
LINE
8
BLACK
6
CONTINUOUS
10
0.2375
20
0.639626
11
0.1825
21
0.639626
0
LINE
8
BLACK
6
CONTINUOUS
10
0.1825
20
0.639626
11
0.179487
21
0.640225
0
LINE
8
BLACK
6
CONTINUOUS
10
0.179487
20
0.640225
11
0.176932
21
0.641932
0
LINE
8
BLACK
6
CONTINUOUS
10
0.176932
20
0.641932
11
0.175225
21
0.644487
0
LINE
8
BLACK
6
CONTINUOUS
10
0.175225
20
0.644487
11
0.174626
21
0.6475
0
LINE
8
BLACK
6
CONTINUOUS
10
0.174626
20
0.6475
11
0.174626
21
0.6825
0
LINE
8
BLACK
6
CONTINUOUS
10
0.174626
20
0.6825
11
0.175225
21
0.685513
0
LINE
8
BLACK
6
CONTINUOUS
10
0.175225
20
0.685513
11
0.176932
21
0.688068
0
LINE
8
BLACK
6
CONTINUOUS
10
0.176932
20
0.688068
11
0.179487
21
0.689775
0
LINE
8
BLACK
6
CONTINUOUS
10
0.179487
20
0.689775
11
0.1825
21
0.690374
0
LINE
8
BLACK
6
CONTINUOUS
10
0.1825
20
0.690374
11
0.2375
21
0.690374
0
LINE
8
BLACK
6
CONTINUOUS
10
0.2375
20
0.690374
11
0.240513
21
0.689775
0
LINE
8
BLACK
6
CONTINUOUS
10
0.335513
20
0.689775
11
0.338068
21
0.688068
0
LINE
8
BLACK
6
CONTINUOUS
10
0.338068
20
0.688068
11
0.339775
21
0.685513
0
LINE
8
BLACK
6
CONTINUOUS
10
0.339775
20
0.685513
11
0.340374
21
0.6825
0
LINE
8
BLACK
6
CONTINUOUS
10
0.340374
20
0.6825
11
0.340374
21
0.6475
0
LINE
8
BLACK
6
CONTINUOUS
10
0.340374
20
0.6475
11
0.339775
21
0.644487
0
LINE
8
BLACK
6
CONTINUOUS
10
0.339775
20
0.644487
11
0.338068
21
0.641932
0
LINE
8
BLACK
6
CONTINUOUS
10
0.338068
20
0.641932
11
0.335513
21
0.640225
0
LINE
8
BLACK
6
CONTINUOUS
10
0.335513
20
0.640225
11
0.3325
21
0.639626
0
LINE
8
BLACK
6
CONTINUOUS
10
0.3325
20
0.639626
11
0.2775
21
0.639626
0
LINE
8
BLACK
6
CONTINUOUS
10
0.2775
20
0.639626
11
0.274487
21
0.640225
0
LINE
8
BLACK
6
CONTINUOUS
10
0.274487
20
0.640225
11
0.271932
21
0.641932
0
LINE
8
BLACK
6
CONTINUOUS
10
0.271932
20
0.641932
11
0.270225
21
0.644487
0
LINE
8
BLACK
6
CONTINUOUS
10
0.270225
20
0.644487
11
0.269626
21
0.6475
0
LINE
8
BLACK
6
CONTINUOUS
10
0.269626
20
0.6475
11
0.269626
21
0.6825
0
LINE
8
BLACK
6
CONTINUOUS
10
0.269626
20
0.6825
11
0.270225
21
0.685513
0
LINE
8
BLACK
6
CONTINUOUS
10
0.270225
20
0.685513
11
0.271932
21
0.688068
0
LINE
8
BLACK
6
CONTINUOUS
10
0.271932
20
0.688068
11
0.274487
21
0.689775
0
LINE
8
BLACK
6
CONTINUOUS
10
0.274487
20
0.689775
11
0.2775
21
0.690374
0
LINE
8
BLACK
6
CONTINUOUS
10
0.2775
20
0.690374
11
0.3325
21
0.690374
0
LINE
8
BLACK
6
CONTINUOUS
10
0.3325
20
0.690374
11
0.335513
21
0.689775
0
LINE
8
BLACK
6
CONTINUOUS
10
0.653013
20
0.737275
11
0.655568
21
0.735568
0
LINE
8
BLACK
6
CONTINUOUS
10
0.655568
20
0.735568
11
0.657275
21
0.733013
0
LINE
8
BLACK
6
CONTINUOUS
10
0.657275
20
0.733013
11
0.657874
21
0.73
0
LINE
8
BLACK
6
CONTINUOUS
10
0.657874
20
0.73
11
0.657874
21
0.67
0
LINE
8
BLACK
6
CONTINUOUS
10
0.657874
20
0.67
11
0.657275
21
0.666987
0
LINE
8
BLACK
6
CONTINUOUS
10
0.657275
20
0.666987
11
0.655568
21
0.664432
0
LINE
8
BLACK
6
CONTINUOUS
10
0.655568
20
0.664432
11
0.653013
21
0.662725
0
LINE
8
BLACK
6
CONTINUOUS
10
0.653013
20
0.662725
11
0.65
21
0.662126
0
LINE
8
BLACK
6
CONTINUOUS
10
0.65
20
0.662126
11
0.59
21
0.662126
0
LINE
8
BLACK
6
CONTINUOUS
10
0.59
20
0.662126
11
0.586987
21
0.662725
0
LINE
8
BLACK
6
CONTINUOUS
10
0.586987
20
0.662725
11
0.584432
21
0.664432
0
LINE
8
BLACK
6
CONTINUOUS
10
0.584432
20
0.664432
11
0.582725
21
0.666987
0
LINE
8
BLACK
6
CONTINUOUS
10
0.582725
20
0.666987
11
0.582126
21
0.67
0
LINE
8
BLACK
6
CONTINUOUS
10
0.582126
20
0.67
11
0.582126
21
0.73
0
LINE
8
BLACK
6
CONTINUOUS
10
0.582126
20
0.73
11
0.582725
21
0.733013
0
LINE
8
BLACK
6
CONTINUOUS
10
0.582725
20
0.733013
11
0.584432
21
0.735568
0
LINE
8
BLACK
6
CONTINUOUS
10
0.584432
20
0.735568
11
0.586987
21
0.737275
0
LINE
8
BLACK
6
CONTINUOUS
10
0.586987
20
0.737275
11
0.59
21
0.737874
0
LINE
8
BLACK
6
CONTINUOUS
10
0.59
20
0.737874
11
0.65
21
0.737874
0
LINE
8
BLACK
6
CONTINUOUS
10
0.65
20
0.737874
11
0.653013
21
0.737275
0
LINE
8
BLACK
6
CONTINUOUS
10
0.753013
20
0.737275
11
0.755568
21
0.735568
0
LINE
8
BLACK
6
CONTINUOUS
10
0.755568
20
0.735568
11
0.757275
21
0.733013
0
LINE
8
BLACK
6
CONTINUOUS
10
0.757275
20
0.733013
11
0.757874
21
0.73
0
LINE
8
BLACK
6
CONTINUOUS
10
0.757874
20
0.73
11
0.757874
21
0.67
0
LINE
8
BLACK
6
CONTINUOUS
10
0.757874
20
0.67
11
0.757275
21
0.666987
0
LINE
8
BLACK
6
CONTINUOUS
10
0.757275
20
0.666987
11
0.755568
21
0.664432
0
LINE
8
BLACK
6
CONTINUOUS
10
0.755568
20
0.664432
11
0.753013
21
0.662725
0
LINE
8
BLACK
6
CONTINUOUS
10
0.753013
20
0.662725
11
0.75
21
0.662126
0
LINE
8
BLACK
6
CONTINUOUS
10
0.75
20
0.662126
11
0.69
21
0.662126
0
LINE
8
BLACK
6
CONTINUOUS
10
0.69
20
0.662126
11
0.686987
21
0.662725
0
LINE
8
BLACK
6
CONTINUOUS
10
0.686987
20
0.662725
11
0.684432
21
0.664432
0
LINE
8
BLACK
6
CONTINUOUS
10
0.684432
20
0.664432
11
0.682725
21
0.666987
0
LINE
8
BLACK
6
CONTINUOUS
10
0.682725
20
0.666987
11
0.682126
21
0.67
0
LINE
8
BLACK
6
CONTINUOUS
10
0.682126
20
0.67
11
0.682126
21
0.73
0
LINE
8
BLACK
6
CONTINUOUS
10
0.682126
20
0.73
11
0.682725
21
0.733013
0
LINE
8
BLACK
6
CONTINUOUS
10
0.682725
20
0.733013
11
0.684432
21
0.735568
0
LINE
8
BLACK
6
CONTINUOUS
10
0.684432
20
0.735568
11
0.686987
21
0.737275
0
LINE
8
BLACK
6
CONTINUOUS
10
0.686987
20
0.737275
11
0.69
21
0.737874
0
LINE
8
BLACK
6
CONTINUOUS
10
0.69
20
0.737874
11
0.75
21
0.737874
0
LINE
8
BLACK
6
CONTINUOUS
10
0.75
20
0.737874
11
0.753013
21
0.737275
0
LINE
8
BLACK
6
CONTINUOUS
10
0.245513
20
0.779775
11
0.248068
21
0.778068
0
LINE
8
BLACK
6
CONTINUOUS
10
0.248068
20
0.778068
11
0.249775
21
0.775513
0
LINE
8
BLACK
6
CONTINUOUS
10
0.249775
20
0.775513
11
0.250374
21
0.7725
0
LINE
8
BLACK
6
CONTINUOUS
10
0.250374
20
0.7725
11
0.250374
21
0.7175
0
LINE
8
BLACK
6
CONTINUOUS
10
0.250374
20
0.7175
11
0.249775
21
0.714487
0
LINE
8
BLACK
6
CONTINUOUS
10
0.249775
20
0.714487
11
0.248068
21
0.711932
0
LINE
8
BLACK
6
CONTINUOUS
10
0.248068
20
0.711932
11
0.245513
21
0.710225
0
LINE
8
BLACK
6
CONTINUOUS
10
0.245513
20
0.710225
11
0.2425
21
0.709626
0
LINE
8
BLACK
6
CONTINUOUS
10
0.2425
20
0.709626
11
0.2075
21
0.709626
0
LINE
8
BLACK
6
CONTINUOUS
10
0.2075
20
0.709626
11
0.204487
21
0.710225
0
LINE
8
BLACK
6
CONTINUOUS
10
0.204487
20
0.710225
11
0.201932
21
0.711932
0
LINE
8
BLACK
6
CONTINUOUS
10
0.201932
20
0.711932
11
0.200225
21
0.714487
0
LINE
8
BLACK
6
CONTINUOUS
10
0.200225
20
0.714487
11
0.199626
21
0.7175
0
LINE
8
BLACK
6
CONTINUOUS
10
0.199626
20
0.7175
11
0.199626
21
0.7725
0
LINE
8
BLACK
6
CONTINUOUS
10
0.199626
20
0.7725
11
0.200225
21
0.775513
0
LINE
8
BLACK
6
CONTINUOUS
10
0.200225
20
0.775513
11
0.201932
21
0.778068
0
LINE
8
BLACK
6
CONTINUOUS
10
0.201932
20
0.778068
11
0.204487
21
0.779775
0
LINE
8
BLACK
6
CONTINUOUS
10
0.204487
20
0.779775
11
0.2075
21
0.780374
0
LINE
8
BLACK
6
CONTINUOUS
10
0.2075
20
0.780374
11
0.2425
21
0.780374
0
LINE
8
BLACK
6
CONTINUOUS
10
0.2425
20
0.780374
11
0.245513
21
0.779775
0
LINE
8
BLACK
6
CONTINUOUS
10
0.320513
20
0.779775
11
0.323068
21
0.778068
0
LINE
8
BLACK
6
CONTINUOUS
10
0.323068
20
0.778068
11
0.324775
21
0.775513
0
LINE
8
BLACK
6
CONTINUOUS
10
0.324775
20
0.775513
11
0.325374
21
0.7725
0
LINE
8
BLACK
6
CONTINUOUS
10
0.325374
20
0.7725
11
0.325374
21
0.7175
0
LINE
8
BLACK
6
CONTINUOUS
10
0.325374
20
0.7175
11
0.324775
21
0.714487
0
LINE
8
BLACK
6
CONTINUOUS
10
0.324775
20
0.714487
11
0.323068
21
0.711932
0
LINE
8
BLACK
6
CONTINUOUS
10
0.323068
20
0.711932
11
0.320513
21
0.710225
0
LINE
8
BLACK
6
CONTINUOUS
10
0.320513
20
0.710225
11
0.3175
21
0.709626
0
LINE
8
BLACK
6
CONTINUOUS
10
0.3175
20
0.709626
11
0.2825
21
0.709626
0
LINE
8
BLACK
6
CONTINUOUS
10
0.2825
20
0.709626
11
0.279487
21
0.710225
0
LINE
8
BLACK
6
CONTINUOUS
10
0.279487
20
0.710225
11
0.276932
21
0.711932
0
LINE
8
BLACK
6
CONTINUOUS
10
0.276932
20
0.711932
11
0.275225
21
0.714487
0
LINE
8
BLACK
6
CONTINUOUS
10
0.275225
20
0.714487
11
0.274626
21
0.7175
0
LINE
8
BLACK
6
CONTINUOUS
10
0.274626
20
0.7175
11
0.274626
21
0.7725
0
LINE
8
BLACK
6
CONTINUOUS
10
0.274626
20
0.7725
11
0.275225
21
0.775513
0
LINE
8
BLACK
6
CONTINUOUS
10
0.275225
20
0.775513
11
0.276932
21
0.778068
0
LINE
8
BLACK
6
CONTINUOUS
10
0.276932
20
0.778068
11
0.279487
21
0.779775
0
LINE
8
BLACK
6
CONTINUOUS
10
0.279487
20
0.779775
11
0.2825
21
0.780374
0
LINE
8
BLACK
6
CONTINUOUS
10
0.2825
20
0.780374
11
0.3175
21
0.780374
0
LINE
8
BLACK
6
CONTINUOUS
10
0.3175
20
0.780374
11
0.320513
21
0.779775
0
LINE
8
BLACK
6
CONTINUOUS
10
0.498289
20
0.851133
11
0.500843
21
0.849426
0
LINE
8
BLACK
6
CONTINUOUS
10
0.500843
20
0.849426
11
0.50255
21
0.846872
0
LINE
8
BLACK
6
CONTINUOUS
10
0.50255
20
0.846872
11
0.50315
21
0.843858
0
LINE
8
BLACK
6
CONTINUOUS
10
0.50315
20
0.843858
11
0.50315
21
0.745433
0
LINE
8
BLACK
6
CONTINUOUS
10
0.50315
20
0.745433
11
0.50255
21
0.74242
0
LINE
8
BLACK
6
CONTINUOUS
10
0.50255
20
0.74242
11
0.500843
21
0.739865
0
LINE
8
BLACK
6
CONTINUOUS
10
0.500843
20
0.739865
11
0.498289
21
0.738158
0
LINE
8
BLACK
6
CONTINUOUS
10
0.498289
20
0.738158
11
0.495276
21
0.737559
0
LINE
8
BLACK
6
CONTINUOUS
10
0.495276
20
0.737559
11
0.404724
21
0.737559
0
LINE
8
BLACK
6
CONTINUOUS
10
0.404724
20
0.737559
11
0.401711
21
0.738158
0
LINE
8
BLACK
6
CONTINUOUS
10
0.401711
20
0.738158
11
0.399157
21
0.739865
0
LINE
8
BLACK
6
CONTINUOUS
10
0.399157
20
0.739865
11
0.39745
21
0.74242
0
LINE
8
BLACK
6
CONTINUOUS
10
0.39745
20
0.74242
11
0.39685
21
0.745433
0
LINE
8
BLACK
6
CONTINUOUS
10
0.39685
20
0.745433
11
0.39685
21
0.843858
0
LINE
8
BLACK
6
CONTINUOUS
10
0.39685
20
0.843858
11
0.39745
21
0.846872
0
LINE
8
BLACK
6
CONTINUOUS
10
0.39745
20
0.846872
11
0.399157
21
0.849426
0
LINE
8
BLACK
6
CONTINUOUS
10
0.399157
20
0.849426
11
0.401711
21
0.851133
0
LINE
8
BLACK
6
CONTINUOUS
10
0.401711
20
0.851133
11
0.404724
21
0.851732
0
LINE
8
BLACK
6
CONTINUOUS
10
0.404724
20
0.851732
11
0.495276
21
0.851732
0
LINE
8
BLACK
6
CONTINUOUS
10
0.495276
20
0.851732
11
0.498289
21
0.851133
0
LINE
8
BLACK
6
CONTINUOUS
10
0.231005
20
0.917983
11
0.23356
21
0.916276
0
LINE
8
BLACK
6
CONTINUOUS
10
0.23356
20
0.916276
11
0.233898
21
0.915771
0
LINE
8
BLACK
6
CONTINUOUS
10
0.233898
20
0.915771
11
0.234235
21
0.916276
0
LINE
8
BLACK
6
CONTINUOUS
10
0.234235
20
0.916276
11
0.23679
21
0.917983
0
LINE
8
BLACK
6
CONTINUOUS
10
0.23679
20
0.917983
11
0.239803
21
0.918583
0
LINE
8
BLACK
6
CONTINUOUS
10
0.239803
20
0.918583
11
0.265394
21
0.918583
0
LINE
8
BLACK
6
CONTINUOUS
10
0.265394
20
0.918583
11
0.268407
21
0.917983
0
LINE
8
BLACK
6
CONTINUOUS
10
0.268407
20
0.917983
11
0.270961
21
0.916276
0
LINE
8
BLACK
6
CONTINUOUS
10
0.270961
20
0.916276
11
0.271299
21
0.915771
0
LINE
8
BLACK
6
CONTINUOUS
10
0.271299
20
0.915771
11
0.271637
21
0.916276
0
LINE
8
BLACK
6
CONTINUOUS
10
0.271637
20
0.916276
11
0.274191
21
0.917983
0
LINE
8
BLACK
6
CONTINUOUS
10
0.274191
20
0.917983
11
0.277205
21
0.918583
0
LINE
8
BLACK
6
CONTINUOUS
10
0.277205
20
0.918583
11
0.302795
21
0.918583
0
LINE
8
BLACK
6
CONTINUOUS
10
0.302795
20
0.918583
11
0.305809
21
0.917983
0
LINE
8
BLACK
6
CONTINUOUS
10
0.305809
20
0.917983
11
0.308363
21
0.916276
0
LINE
8
BLACK
6
CONTINUOUS
10
0.308363
20
0.916276
11
0.31007
21
0.913722
0
LINE
8
BLACK
6
CONTINUOUS
10
0.31007
20
0.913722
11
0.310669
21
0.910709
0
LINE
8
BLACK
6
CONTINUOUS
10
0.310669
20
0.910709
11
0.310669
21
0.849291
0
LINE
8
BLACK
6
CONTINUOUS
10
0.310669
20
0.849291
11
0.31007
21
0.846278
0
LINE
8
BLACK
6
CONTINUOUS
10
0.31007
20
0.846278
11
0.308363
21
0.843724
0
LINE
8
BLACK
6
CONTINUOUS
10
0.308363
20
0.843724
11
0.305809
21
0.842017
0
LINE
8
BLACK
6
CONTINUOUS
10
0.305809
20
0.842017
11
0.302795
21
0.841417
0
LINE
8
BLACK
6
CONTINUOUS
10
0.302795
20
0.841417
11
0.277205
21
0.841417
0
LINE
8
BLACK
6
CONTINUOUS
10
0.277205
20
0.841417
11
0.274191
21
0.842017
0
LINE
8
BLACK
6
CONTINUOUS
10
0.274191
20
0.842017
11
0.271637
21
0.843724
0
LINE
8
BLACK
6
CONTINUOUS
10
0.271637
20
0.843724
11
0.271299
21
0.844229
0
LINE
8
BLACK
6
CONTINUOUS
10
0.271299
20
0.844229
11
0.270961
21
0.843724
0
LINE
8
BLACK
6
CONTINUOUS
10
0.270961
20
0.843724
11
0.268407
21
0.842017
0
LINE
8
BLACK
6
CONTINUOUS
10
0.268407
20
0.842017
11
0.265394
21
0.841417
0
LINE
8
BLACK
6
CONTINUOUS
10
0.265394
20
0.841417
11
0.239803
21
0.841417
0
LINE
8
BLACK
6
CONTINUOUS
10
0.239803
20
0.841417
11
0.23679
21
0.842017
0
LINE
8
BLACK
6
CONTINUOUS
10
0.23679
20
0.842017
11
0.234235
21
0.843724
0
LINE
8
BLACK
6
CONTINUOUS
10
0.234235
20
0.843724
11
0.233898
21
0.844229
0
LINE
8
BLACK
6
CONTINUOUS
10
0.233898
20
0.844229
11
0.23356
21
0.843724
0
LINE
8
BLACK
6
CONTINUOUS
10
0.23356
20
0.843724
11
0.231005
21
0.842017
0
LINE
8
BLACK
6
CONTINUOUS
10
0.231005
20
0.842017
11
0.227992
21
0.841417
0
LINE
8
BLACK
6
CONTINUOUS
10
0.227992
20
0.841417
11
0.202402
21
0.841417
0
LINE
8
BLACK
6
CONTINUOUS
10
0.202402
20
0.841417
11
0.199388
21
0.842017
0
LINE
8
BLACK
6
CONTINUOUS
10
0.199388
20
0.842017
11
0.196834
21
0.843724
0
LINE
8
BLACK
6
CONTINUOUS
10
0.196834
20
0.843724
11
0.195127
21
0.846278
0
LINE
8
BLACK
6
CONTINUOUS
10
0.195127
20
0.846278
11
0.194528
21
0.849291
0
LINE
8
BLACK
6
CONTINUOUS
10
0.194528
20
0.849291
11
0.194528
21
0.910709
0
LINE
8
BLACK
6
CONTINUOUS
10
0.194528
20
0.910709
11
0.195127
21
0.913722
0
LINE
8
BLACK
6
CONTINUOUS
10
0.195127
20
0.913722
11
0.196834
21
0.916276
0
LINE
8
BLACK
6
CONTINUOUS
10
0.196834
20
0.916276
11
0.199388
21
0.917983
0
LINE
8
BLACK
6
CONTINUOUS
10
0.199388
20
0.917983
11
0.202402
21
0.918583
0
LINE
8
BLACK
6
CONTINUOUS
10
0.202402
20
0.918583
11
0.227992
21
0.918583
0
LINE
8
BLACK
6
CONTINUOUS
10
0.227992
20
0.918583
11
0.231005
21
0.917983
0
LINE
8
BLACK
6
CONTINUOUS
10
0.133013
20
0.922275
11
0.135568
21
0.920568
0
LINE
8
BLACK
6
CONTINUOUS
10
0.135568
20
0.920568
11
0.137275
21
0.918013
0
LINE
8
BLACK
6
CONTINUOUS
10
0.137275
20
0.918013
11
0.137874
21
0.915
0
LINE
8
BLACK
6
CONTINUOUS
10
0.137874
20
0.915
11
0.137874
21
0.855
0
LINE
8
BLACK
6
CONTINUOUS
10
0.137874
20
0.855
11
0.137275
21
0.851987
0
LINE
8
BLACK
6
CONTINUOUS
10
0.137275
20
0.851987
11
0.135568
21
0.849432
0
LINE
8
BLACK
6
CONTINUOUS
10
0.135568
20
0.849432
11
0.133013
21
0.847725
0
LINE
8
BLACK
6
CONTINUOUS
10
0.133013
20
0.847725
11
0.13
21
0.847126
0
LINE
8
BLACK
6
CONTINUOUS
10
0.13
20
0.847126
11
0.07
21
0.847126
0
LINE
8
BLACK
6
CONTINUOUS
10
0.07
20
0.847126
11
0.0669867
21
0.847725
0
LINE
8
BLACK
6
CONTINUOUS
10
0.0669867
20
0.847725
11
0.0644322
21
0.849432
0
LINE
8
BLACK
6
CONTINUOUS
10
0.0644322
20
0.849432
11
0.0627254
21
0.851987
0
LINE
8
BLACK
6
CONTINUOUS
10
0.0627254
20
0.851987
11
0.062126
21
0.855
0
LINE
8
BLACK
6
CONTINUOUS
10
0.062126
20
0.855
11
0.062126
21
0.915
0
LINE
8
BLACK
6
CONTINUOUS
10
0.062126
20
0.915
11
0.0627254
21
0.918013
0
LINE
8
BLACK
6
CONTINUOUS
10
0.0627254
20
0.918013
11
0.0644322
21
0.920568
0
LINE
8
BLACK
6
CONTINUOUS
10
0.0644322
20
0.920568
11
0.0669867
21
0.922275
0
LINE
8
BLACK
6
CONTINUOUS
10
0.0669867
20
0.922275
11
0.07
21
0.922874
0
LINE
8
BLACK
6
CONTINUOUS
10
0.07
20
0.922874
11
0.13
21
0.922874
0
LINE
8
BLACK
6
CONTINUOUS
10
0.13
20
0.922874
11
0.133013
21
0.922275
0
LINE
8
BLACK
6
CONTINUOUS
10
0.531753
20
0.952905
11
0.534308
21
0.951198
0
LINE
8
BLACK
6
CONTINUOUS
10
0.534308
20
0.951198
11
0.536015
21
0.948643
0
LINE
8
BLACK
6
CONTINUOUS
10
0.536015
20
0.948643
11
0.536614
21
0.94563
0
LINE
8
BLACK
6
CONTINUOUS
10
0.536614
20
0.94563
11
0.536614
21
0.882638
0
LINE
8
BLACK
6
CONTINUOUS
10
0.536614
20
0.882638
11
0.536015
21
0.879625
0
LINE
8
BLACK
6
CONTINUOUS
10
0.536015
20
0.879625
11
0.534308
21
0.87707
0
LINE
8
BLACK
6
CONTINUOUS
10
0.534308
20
0.87707
11
0.531753
21
0.875363
0
LINE
8
BLACK
6
CONTINUOUS
10
0.531753
20
0.875363
11
0.52874
21
0.874764
0
LINE
8
BLACK
6
CONTINUOUS
10
0.52874
20
0.874764
11
0.37126
21
0.874764
0
LINE
8
BLACK
6
CONTINUOUS
10
0.37126
20
0.874764
11
0.368247
21
0.875363
0
LINE
8
BLACK
6
CONTINUOUS
10
0.368247
20
0.875363
11
0.365692
21
0.87707
0
LINE
8
BLACK
6
CONTINUOUS
10
0.365692
20
0.87707
11
0.363985
21
0.879625
0
LINE
8
BLACK
6
CONTINUOUS
10
0.363985
20
0.879625
11
0.363386
21
0.882638
0
LINE
8
BLACK
6
CONTINUOUS
10
0.363386
20
0.882638
11
0.363386
21
0.94563
0
LINE
8
BLACK
6
CONTINUOUS
10
0.363386
20
0.94563
11
0.363985
21
0.948643
0
LINE
8
BLACK
6
CONTINUOUS
10
0.363985
20
0.948643
11
0.365692
21
0.951198
0
LINE
8
BLACK
6
CONTINUOUS
10
0.365692
20
0.951198
11
0.368247
21
0.952905
0
LINE
8
BLACK
6
CONTINUOUS
10
0.368247
20
0.952905
11
0.37126
21
0.953504
0
LINE
8
BLACK
6
CONTINUOUS
10
0.37126
20
0.953504
11
0.52874
21
0.953504
0
LINE
8
BLACK
6
CONTINUOUS
10
0.52874
20
0.953504
11
0.531753
21
0.952905
0
LINE
8
BLACK
6
CONTINUOUS
10
0.653013
20
1.00227
11
0.655568
21
1.00057
0
LINE
8
BLACK
6
CONTINUOUS
10
0.655568
20
1.00057
11
0.657275
21
0.998013
0
LINE
8
BLACK
6
CONTINUOUS
10
0.657275
20
0.998013
11
0.657874
21
0.995
0
LINE
8
BLACK
6
CONTINUOUS
10
0.657874
20
0.995
11
0.657874
21
0.935
0
LINE
8
BLACK
6
CONTINUOUS
10
0.657874
20
0.935
11
0.657275
21
0.931987
0
LINE
8
BLACK
6
CONTINUOUS
10
0.657275
20
0.931987
11
0.655568
21
0.929432
0
LINE
8
BLACK
6
CONTINUOUS
10
0.655568
20
0.929432
11
0.653013
21
0.927725
0
LINE
8
BLACK
6
CONTINUOUS
10
0.653013
20
0.927725
11
0.65
21
0.927126
0
LINE
8
BLACK
6
CONTINUOUS
10
0.65
20
0.927126
11
0.59
21
0.927126
0
LINE
8
BLACK
6
CONTINUOUS
10
0.59
20
0.927126
11
0.586987
21
0.927725
0
LINE
8
BLACK
6
CONTINUOUS
10
0.586987
20
0.927725
11
0.584432
21
0.929432
0
LINE
8
BLACK
6
CONTINUOUS
10
0.584432
20
0.929432
11
0.582725
21
0.931987
0
LINE
8
BLACK
6
CONTINUOUS
10
0.582725
20
0.931987
11
0.582126
21
0.935
0
LINE
8
BLACK
6
CONTINUOUS
10
0.582126
20
0.935
11
0.582126
21
0.995
0
LINE
8
BLACK
6
CONTINUOUS
10
0.582126
20
0.995
11
0.582725
21
0.998013
0
LINE
8
BLACK
6
CONTINUOUS
10
0.582725
20
0.998013
11
0.584432
21
1.00057
0
LINE
8
BLACK
6
CONTINUOUS
10
0.584432
20
1.00057
11
0.586987
21
1.00227
0
LINE
8
BLACK
6
CONTINUOUS
10
0.586987
20
1.00227
11
0.59
21
1.00287
0
LINE
8
BLACK
6
CONTINUOUS
10
0.59
20
1.00287
11
0.65
21
1.00287
0
LINE
8
BLACK
6
CONTINUOUS
10
0.65
20
1.00287
11
0.653013
21
1.00227
0
LINE
8
BLACK
6
CONTINUOUS
10
0.753013
20
1.00227
11
0.755568
21
1.00057
0
LINE
8
BLACK
6
CONTINUOUS
10
0.755568
20
1.00057
11
0.757275
21
0.998013
0
LINE
8
BLACK
6
CONTINUOUS
10
0.757275
20
0.998013
11
0.757874
21
0.995
0
LINE
8
BLACK
6
CONTINUOUS
10
0.757874
20
0.995
11
0.757874
21
0.935
0
LINE
8
BLACK
6
CONTINUOUS
10
0.757874
20
0.935
11
0.757275
21
0.931987
0
LINE
8
BLACK
6
CONTINUOUS
10
0.757275
20
0.931987
11
0.755568
21
0.929432
0
LINE
8
BLACK
6
CONTINUOUS
10
0.755568
20
0.929432
11
0.753013
21
0.927725
0
LINE
8
BLACK
6
CONTINUOUS
10
0.753013
20
0.927725
11
0.75
21
0.927126
0
LINE
8
BLACK
6
CONTINUOUS
10
0.75
20
0.927126
11
0.69
21
0.927126
0
LINE
8
BLACK
6
CONTINUOUS
10
0.69
20
0.927126
11
0.686987
21
0.927725
0
LINE
8
BLACK
6
CONTINUOUS
10
0.686987
20
0.927725
11
0.684432
21
0.929432
0
LINE
8
BLACK
6
CONTINUOUS
10
0.684432
20
0.929432
11
0.682725
21
0.931987
0
LINE
8
BLACK
6
CONTINUOUS
10
0.682725
20
0.931987
11
0.682126
21
0.935
0
LINE
8
BLACK
6
CONTINUOUS
10
0.682126
20
0.935
11
0.682126
21
0.995
0
LINE
8
BLACK
6
CONTINUOUS
10
0.682126
20
0.995
11
0.682725
21
0.998013
0
LINE
8
BLACK
6
CONTINUOUS
10
0.682725
20
0.998013
11
0.684432
21
1.00057
0
LINE
8
BLACK
6
CONTINUOUS
10
0.684432
20
1.00057
11
0.686987
21
1.00227
0
LINE
8
BLACK
6
CONTINUOUS
10
0.686987
20
1.00227
11
0.69
21
1.00287
0
LINE
8
BLACK
6
CONTINUOUS
10
0.69
20
1.00287
11
0.75
21
1.00287
0
LINE
8
BLACK
6
CONTINUOUS
10
0.75
20
1.00287
11
0.753013
21
1.00227
0
LINE
8
BLACK
6
CONTINUOUS
10
0.133013
20
1.02227
11
0.135568
21
1.02057
0
LINE
8
BLACK
6
CONTINUOUS
10
0.135568
20
1.02057
11
0.137275
21
1.01801
0
LINE
8
BLACK
6
CONTINUOUS
10
0.137275
20
1.01801
11
0.137874
21
1.015
0
LINE
8
BLACK
6
CONTINUOUS
10
0.137874
20
1.015
11
0.137874
21
0.955
0
LINE
8
BLACK
6
CONTINUOUS
10
0.137874
20
0.955
11
0.137275
21
0.951987
0
LINE
8
BLACK
6
CONTINUOUS
10
0.137275
20
0.951987
11
0.135568
21
0.949432
0
LINE
8
BLACK
6
CONTINUOUS
10
0.135568
20
0.949432
11
0.133013
21
0.947725
0
LINE
8
BLACK
6
CONTINUOUS
10
0.133013
20
0.947725
11
0.13
21
0.947126
0
LINE
8
BLACK
6
CONTINUOUS
10
0.13
20
0.947126
11
0.07
21
0.947126
0
LINE
8
BLACK
6
CONTINUOUS
10
0.07
20
0.947126
11
0.0669867
21
0.947725
0
LINE
8
BLACK
6
CONTINUOUS
10
0.0669867
20
0.947725
11
0.0644322
21
0.949432
0
LINE
8
BLACK
6
CONTINUOUS
10
0.0644322
20
0.949432
11
0.0627254
21
0.951987
0
LINE
8
BLACK
6
CONTINUOUS
10
0.0627254
20
0.951987
11
0.062126
21
0.955
0
LINE
8
BLACK
6
CONTINUOUS
10
0.062126
20
0.955
11
0.062126
21
1.015
0
LINE
8
BLACK
6
CONTINUOUS
10
0.062126
20
1.015
11
0.0627254
21
1.01801
0
LINE
8
BLACK
6
CONTINUOUS
10
0.0627254
20
1.01801
11
0.0644322
21
1.02057
0
LINE
8
BLACK
6
CONTINUOUS
10
0.0644322
20
1.02057
11
0.0669867
21
1.02227
0
LINE
8
BLACK
6
CONTINUOUS
10
0.0669867
20
1.02227
11
0.07
21
1.02287
0
LINE
8
BLACK
6
CONTINUOUS
10
0.07
20
1.02287
11
0.13
21
1.02287
0
LINE
8
BLACK
6
CONTINUOUS
10
0.13
20
1.02287
11
0.133013
21
1.02227
0
LINE
8
BLACK
6
CONTINUOUS
10
0.231005
20
1.02428
11
0.23356
21
1.02258
0
LINE
8
BLACK
6
CONTINUOUS
10
0.23356
20
1.02258
11
0.235267
21
1.02002
0
LINE
8
BLACK
6
CONTINUOUS
10
0.235267
20
1.02002
11
0.235866
21
1.01701
0
LINE
8
BLACK
6
CONTINUOUS
10
0.235866
20
1.01701
11
0.235866
21
0.955591
0
LINE
8
BLACK
6
CONTINUOUS
10
0.235866
20
0.955591
11
0.235267
21
0.952577
0
LINE
8
BLACK
6
CONTINUOUS
10
0.235267
20
0.952577
11
0.23356
21
0.950023
0
LINE
8
BLACK
6
CONTINUOUS
10
0.23356
20
0.950023
11
0.231005
21
0.948316
0
LINE
8
BLACK
6
CONTINUOUS
10
0.231005
20
0.948316
11
0.227992
21
0.947717
0
LINE
8
BLACK
6
CONTINUOUS
10
0.227992
20
0.947717
11
0.202402
21
0.947717
0
LINE
8
BLACK
6
CONTINUOUS
10
0.202402
20
0.947717
11
0.199388
21
0.948316
0
LINE
8
BLACK
6
CONTINUOUS
10
0.199388
20
0.948316
11
0.196834
21
0.950023
0
LINE
8
BLACK
6
CONTINUOUS
10
0.196834
20
0.950023
11
0.195127
21
0.952577
0
LINE
8
BLACK
6
CONTINUOUS
10
0.195127
20
0.952577
11
0.194528
21
0.955591
0
LINE
8
BLACK
6
CONTINUOUS
10
0.194528
20
0.955591
11
0.194528
21
1.01701
0
LINE
8
BLACK
6
CONTINUOUS
10
0.194528
20
1.01701
11
0.195127
21
1.02002
0
LINE
8
BLACK
6
CONTINUOUS
10
0.195127
20
1.02002
11
0.196834
21
1.02258
0
LINE
8
BLACK
6
CONTINUOUS
10
0.196834
20
1.02258
11
0.199388
21
1.02428
0
LINE
8
BLACK
6
CONTINUOUS
10
0.199388
20
1.02428
11
0.202402
21
1.02488
0
LINE
8
BLACK
6
CONTINUOUS
10
0.202402
20
1.02488
11
0.227992
21
1.02488
0
LINE
8
BLACK
6
CONTINUOUS
10
0.227992
20
1.02488
11
0.231005
21
1.02428
0
LINE
8
BLACK
6
CONTINUOUS
10
0.305809
20
1.02428
11
0.308363
21
1.02258
0
LINE
8
BLACK
6
CONTINUOUS
10
0.308363
20
1.02258
11
0.31007
21
1.02002
0
LINE
8
BLACK
6
CONTINUOUS
10
0.31007
20
1.02002
11
0.310669
21
1.01701
0
LINE
8
BLACK
6
CONTINUOUS
10
0.310669
20
1.01701
11
0.310669
21
0.955591
0
LINE
8
BLACK
6
CONTINUOUS
10
0.310669
20
0.955591
11
0.31007
21
0.952577
0
LINE
8
BLACK
6
CONTINUOUS
10
0.31007
20
0.952577
11
0.308363
21
0.950023
0
LINE
8
BLACK
6
CONTINUOUS
10
0.308363
20
0.950023
11
0.305809
21
0.948316
0
LINE
8
BLACK
6
CONTINUOUS
10
0.305809
20
0.948316
11
0.302795
21
0.947717
0
LINE
8
BLACK
6
CONTINUOUS
10
0.302795
20
0.947717
11
0.277205
21
0.947717
0
LINE
8
BLACK
6
CONTINUOUS
10
0.277205
20
0.947717
11
0.274191
21
0.948316
0
LINE
8
BLACK
6
CONTINUOUS
10
0.274191
20
0.948316
11
0.271637
21
0.950023
0
LINE
8
BLACK
6
CONTINUOUS
10
0.271637
20
0.950023
11
0.26993
21
0.952577
0
LINE
8
BLACK
6
CONTINUOUS
10
0.26993
20
0.952577
11
0.269331
21
0.955591
0
LINE
8
BLACK
6
CONTINUOUS
10
0.269331
20
0.955591
11
0.269331
21
1.01701
0
LINE
8
BLACK
6
CONTINUOUS
10
0.269331
20
1.01701
11
0.26993
21
1.02002
0
LINE
8
BLACK
6
CONTINUOUS
10
0.26993
20
1.02002
11
0.271637
21
1.02258
0
LINE
8
BLACK
6
CONTINUOUS
10
0.271637
20
1.02258
11
0.274191
21
1.02428
0
LINE
8
BLACK
6
CONTINUOUS
10
0.274191
20
1.02428
11
0.277205
21
1.02488
0
LINE
8
BLACK
6
CONTINUOUS
10
0.277205
20
1.02488
11
0.302795
21
1.02488
0
LINE
8
BLACK
6
CONTINUOUS
10
0.302795
20
1.02488
11
0.305809
21
1.02428
0
LINE
8
BLACK
6
CONTINUOUS
10
0.531753
20
1.09464
11
0.534308
21
1.09293
0
LINE
8
BLACK
6
CONTINUOUS
10
0.534308
20
1.09293
11
0.536015
21
1.09038
0
LINE
8
BLACK
6
CONTINUOUS
10
0.536015
20
1.09038
11
0.536614
21
1.08736
0
LINE
8
BLACK
6
CONTINUOUS
10
0.536614
20
1.08736
11
0.536614
21
1.02437
0
LINE
8
BLACK
6
CONTINUOUS
10
0.536614
20
1.02437
11
0.536015
21
1.02136
0
LINE
8
BLACK
6
CONTINUOUS
10
0.536015
20
1.02136
11
0.534308
21
1.0188
0
LINE
8
BLACK
6
CONTINUOUS
10
0.534308
20
1.0188
11
0.531753
21
1.0171
0
LINE
8
BLACK
6
CONTINUOUS
10
0.531753
20
1.0171
11
0.52874
21
1.0165
0
LINE
8
BLACK
6
CONTINUOUS
10
0.52874
20
1.0165
11
0.37126
21
1.0165
0
LINE
8
BLACK
6
CONTINUOUS
10
0.37126
20
1.0165
11
0.368247
21
1.0171
0
LINE
8
BLACK
6
CONTINUOUS
10
0.368247
20
1.0171
11
0.365692
21
1.0188
0
LINE
8
BLACK
6
CONTINUOUS
10
0.365692
20
1.0188
11
0.363985
21
1.02136
0
LINE
8
BLACK
6
CONTINUOUS
10
0.363985
20
1.02136
11
0.363386
21
1.02437
0
LINE
8
BLACK
6
CONTINUOUS
10
0.363386
20
1.02437
11
0.363386
21
1.08736
0
LINE
8
BLACK
6
CONTINUOUS
10
0.363386
20
1.08736
11
0.363985
21
1.09038
0
LINE
8
BLACK
6
CONTINUOUS
10
0.363985
20
1.09038
11
0.365692
21
1.09293
0
LINE
8
BLACK
6
CONTINUOUS
10
0.365692
20
1.09293
11
0.368247
21
1.09464
0
LINE
8
BLACK
6
CONTINUOUS
10
0.368247
20
1.09464
11
0.37126
21
1.09524
0
LINE
8
BLACK
6
CONTINUOUS
10
0.37126
20
1.09524
11
0.52874
21
1.09524
0
LINE
8
BLACK
6
CONTINUOUS
10
0.52874
20
1.09524
11
0.531753
21
1.09464
0
LINE
8
BLACK
6
CONTINUOUS
10
0.753013
20
1.10227
11
0.755568
21
1.10057
0
LINE
8
BLACK
6
CONTINUOUS
10
0.755568
20
1.10057
11
0.757275
21
1.09801
0
LINE
8
BLACK
6
CONTINUOUS
10
0.757275
20
1.09801
11
0.757874
21
1.095
0
LINE
8
BLACK
6
CONTINUOUS
10
0.757874
20
1.095
11
0.757874
21
1.035
0
LINE
8
BLACK
6
CONTINUOUS
10
0.757874
20
1.035
11
0.757275
21
1.03199
0
LINE
8
BLACK
6
CONTINUOUS
10
0.757275
20
1.03199
11
0.755568
21
1.02943
0
LINE
8
BLACK
6
CONTINUOUS
10
0.755568
20
1.02943
11
0.753013
21
1.02773
0
LINE
8
BLACK
6
CONTINUOUS
10
0.753013
20
1.02773
11
0.75
21
1.02713
0
LINE
8
BLACK
6
CONTINUOUS
10
0.75
20
1.02713
11
0.69
21
1.02713
0
LINE
8
BLACK
6
CONTINUOUS
10
0.69
20
1.02713
11
0.686987
21
1.02773
0
LINE
8
BLACK
6
CONTINUOUS
10
0.686987
20
1.02773
11
0.684432
21
1.02943
0
LINE
8
BLACK
6
CONTINUOUS
10
0.684432
20
1.02943
11
0.682725
21
1.03199
0
LINE
8
BLACK
6
CONTINUOUS
10
0.682725
20
1.03199
11
0.682126
21
1.035
0
LINE
8
BLACK
6
CONTINUOUS
10
0.682126
20
1.035
11
0.682126
21
1.095
0
LINE
8
BLACK
6
CONTINUOUS
10
0.682126
20
1.095
11
0.682725
21
1.09801
0
LINE
8
BLACK
6
CONTINUOUS
10
0.682725
20
1.09801
11
0.684432
21
1.10057
0
LINE
8
BLACK
6
CONTINUOUS
10
0.684432
20
1.10057
11
0.686987
21
1.10227
0
LINE
8
BLACK
6
CONTINUOUS
10
0.686987
20
1.10227
11
0.69
21
1.10287
0
LINE
8
BLACK
6
CONTINUOUS
10
0.69
20
1.10287
11
0.75
21
1.10287
0
LINE
8
BLACK
6
CONTINUOUS
10
0.75
20
1.10287
11
0.753013
21
1.10227
0
LINE
8
BLACK
6
CONTINUOUS
10
0.653013
20
1.10227
11
0.655568
21
1.10057
0
LINE
8
BLACK
6
CONTINUOUS
10
0.655568
20
1.10057
11
0.657275
21
1.09801
0
LINE
8
BLACK
6
CONTINUOUS
10
0.657275
20
1.09801
11
0.657874
21
1.095
0
LINE
8
BLACK
6
CONTINUOUS
10
0.657874
20
1.095
11
0.657874
21
1.035
0
LINE
8
BLACK
6
CONTINUOUS
10
0.657874
20
1.035
11
0.657275
21
1.03199
0
LINE
8
BLACK
6
CONTINUOUS
10
0.657275
20
1.03199
11
0.655568
21
1.02943
0
LINE
8
BLACK
6
CONTINUOUS
10
0.655568
20
1.02943
11
0.653013
21
1.02773
0
LINE
8
BLACK
6
CONTINUOUS
10
0.653013
20
1.02773
11
0.65
21
1.02713
0
LINE
8
BLACK
6
CONTINUOUS
10
0.65
20
1.02713
11
0.59
21
1.02713
0
LINE
8
BLACK
6
CONTINUOUS
10
0.59
20
1.02713
11
0.586987
21
1.02773
0
LINE
8
BLACK
6
CONTINUOUS
10
0.586987
20
1.02773
11
0.584432
21
1.02943
0
LINE
8
BLACK
6
CONTINUOUS
10
0.584432
20
1.02943
11
0.582725
21
1.03199
0
LINE
8
BLACK
6
CONTINUOUS
10
0.582725
20
1.03199
11
0.582126
21
1.035
0
LINE
8
BLACK
6
CONTINUOUS
10
0.582126
20
1.035
11
0.582126
21
1.095
0
LINE
8
BLACK
6
CONTINUOUS
10
0.582126
20
1.095
11
0.582725
21
1.09801
0
LINE
8
BLACK
6
CONTINUOUS
10
0.582725
20
1.09801
11
0.584432
21
1.10057
0
LINE
8
BLACK
6
CONTINUOUS
10
0.584432
20
1.10057
11
0.586987
21
1.10227
0
LINE
8
BLACK
6
CONTINUOUS
10
0.586987
20
1.10227
11
0.59
21
1.10287
0
LINE
8
BLACK
6
CONTINUOUS
10
0.59
20
1.10287
11
0.65
21
1.10287
0
LINE
8
BLACK
6
CONTINUOUS
10
0.65
20
1.10287
11
0.653013
21
1.10227
0
LINE
8
BLACK
6
CONTINUOUS
10
0.165513
20
1.11727
11
0.168068
21
1.11557
0
LINE
8
BLACK
6
CONTINUOUS
10
0.168068
20
1.11557
11
0.169775
21
1.11301
0
LINE
8
BLACK
6
CONTINUOUS
10
0.169775
20
1.11301
11
0.170374
21
1.11
0
LINE
8
BLACK
6
CONTINUOUS
10
0.170374
20
1.11
11
0.170374
21
1.075
0
LINE
8
BLACK
6
CONTINUOUS
10
0.170374
20
1.075
11
0.169775
21
1.07199
0
LINE
8
BLACK
6
CONTINUOUS
10
0.169775
20
1.07199
11
0.168068
21
1.06943
0
LINE
8
BLACK
6
CONTINUOUS
10
0.168068
20
1.06943
11
0.165513
21
1.06773
0
LINE
8
BLACK
6
CONTINUOUS
10
0.165513
20
1.06773
11
0.1625
21
1.06713
0
LINE
8
BLACK
6
CONTINUOUS
10
0.1625
20
1.06713
11
0.1075
21
1.06713
0
LINE
8
BLACK
6
CONTINUOUS
10
0.1075
20
1.06713
11
0.104487
21
1.06773
0
LINE
8
BLACK
6
CONTINUOUS
10
0.104487
20
1.06773
11
0.101932
21
1.06943
0
LINE
8
BLACK
6
CONTINUOUS
10
0.101932
20
1.06943
11
0.100225
21
1.07199
0
LINE
8
BLACK
6
CONTINUOUS
10
0.100225
20
1.07199
11
0.099626
21
1.075
0
LINE
8
BLACK
6
CONTINUOUS
10
0.099626
20
1.075
11
0.099626
21
1.11
0
LINE
8
BLACK
6
CONTINUOUS
10
0.099626
20
1.11
11
0.100225
21
1.11301
0
LINE
8
BLACK
6
CONTINUOUS
10
0.100225
20
1.11301
11
0.101932
21
1.11557
0
LINE
8
BLACK
6
CONTINUOUS
10
0.101932
20
1.11557
11
0.104487
21
1.11727
0
LINE
8
BLACK
6
CONTINUOUS
10
0.104487
20
1.11727
11
0.1075
21
1.11787
0
LINE
8
BLACK
6
CONTINUOUS
10
0.1075
20
1.11787
11
0.1625
21
1.11787
0
LINE
8
BLACK
6
CONTINUOUS
10
0.1625
20
1.11787
11
0.165513
21
1.11727
0
LINE
8
BLACK
6
CONTINUOUS
10
0.330513
20
1.13977
11
0.333068
21
1.13807
0
LINE
8
BLACK
6
CONTINUOUS
10
0.333068
20
1.13807
11
0.334775
21
1.13551
0
LINE
8
BLACK
6
CONTINUOUS
10
0.334775
20
1.13551
11
0.335374
21
1.1325
0
LINE
8
BLACK
6
CONTINUOUS
10
0.335374
20
1.1325
11
0.335374
21
1.0775
0
LINE
8
BLACK
6
CONTINUOUS
10
0.335374
20
1.0775
11
0.334775
21
1.07449
0
LINE
8
BLACK
6
CONTINUOUS
10
0.334775
20
1.07449
11
0.333068
21
1.07193
0
LINE
8
BLACK
6
CONTINUOUS
10
0.333068
20
1.07193
11
0.330513
21
1.07023
0
LINE
8
BLACK
6
CONTINUOUS
10
0.330513
20
1.07023
11
0.3275
21
1.06963
0
LINE
8
BLACK
6
CONTINUOUS
10
0.3275
20
1.06963
11
0.2925
21
1.06963
0
LINE
8
BLACK
6
CONTINUOUS
10
0.2925
20
1.06963
11
0.289487
21
1.07023
0
LINE
8
BLACK
6
CONTINUOUS
10
0.289487
20
1.07023
11
0.286932
21
1.07193
0
LINE
8
BLACK
6
CONTINUOUS
10
0.286932
20
1.07193
11
0.285225
21
1.07449
0
LINE
8
BLACK
6
CONTINUOUS
10
0.285225
20
1.07449
11
0.284626
21
1.0775
0
LINE
8
BLACK
6
CONTINUOUS
10
0.284626
20
1.0775
11
0.284626
21
1.1325
0
LINE
8
BLACK
6
CONTINUOUS
10
0.284626
20
1.1325
11
0.285225
21
1.13551
0
LINE
8
BLACK
6
CONTINUOUS
10
0.285225
20
1.13551
11
0.286932
21
1.13807
0
LINE
8
BLACK
6
CONTINUOUS
10
0.286932
20
1.13807
11
0.289487
21
1.13977
0
LINE
8
BLACK
6
CONTINUOUS
10
0.289487
20
1.13977
11
0.2925
21
1.14037
0
LINE
8
BLACK
6
CONTINUOUS
10
0.2925
20
1.14037
11
0.3275
21
1.14037
0
LINE
8
BLACK
6
CONTINUOUS
10
0.3275
20
1.14037
11
0.330513
21
1.13977
0
LINE
8
BLACK
6
CONTINUOUS
10
0.255513
20
1.13977
11
0.258068
21
1.13807
0
LINE
8
BLACK
6
CONTINUOUS
10
0.258068
20
1.13807
11
0.259775
21
1.13551
0
LINE
8
BLACK
6
CONTINUOUS
10
0.259775
20
1.13551
11
0.260374
21
1.1325
0
LINE
8
BLACK
6
CONTINUOUS
10
0.260374
20
1.1325
11
0.260374
21
1.0775
0
LINE
8
BLACK
6
CONTINUOUS
10
0.260374
20
1.0775
11
0.259775
21
1.07449
0
LINE
8
BLACK
6
CONTINUOUS
10
0.259775
20
1.07449
11
0.258068
21
1.07193
0
LINE
8
BLACK
6
CONTINUOUS
10
0.258068
20
1.07193
11
0.255513
21
1.07023
0
LINE
8
BLACK
6
CONTINUOUS
10
0.255513
20
1.07023
11
0.2525
21
1.06963
0
LINE
8
BLACK
6
CONTINUOUS
10
0.2525
20
1.06963
11
0.2175
21
1.06963
0
LINE
8
BLACK
6
CONTINUOUS
10
0.2175
20
1.06963
11
0.214487
21
1.07023
0
LINE
8
BLACK
6
CONTINUOUS
10
0.214487
20
1.07023
11
0.211932
21
1.07193
0
LINE
8
BLACK
6
CONTINUOUS
10
0.211932
20
1.07193
11
0.210225
21
1.07449
0
LINE
8
BLACK
6
CONTINUOUS
10
0.210225
20
1.07449
11
0.209626
21
1.0775
0
LINE
8
BLACK
6
CONTINUOUS
10
0.209626
20
1.0775
11
0.209626
21
1.1325
0
LINE
8
BLACK
6
CONTINUOUS
10
0.209626
20
1.1325
11
0.210225
21
1.13551
0
LINE
8
BLACK
6
CONTINUOUS
10
0.210225
20
1.13551
11
0.211932
21
1.13807
0
LINE
8
BLACK
6
CONTINUOUS
10
0.211932
20
1.13807
11
0.214487
21
1.13977
0
LINE
8
BLACK
6
CONTINUOUS
10
0.214487
20
1.13977
11
0.2175
21
1.14037
0
LINE
8
BLACK
6
CONTINUOUS
10
0.2175
20
1.14037
11
0.2525
21
1.14037
0
LINE
8
BLACK
6
CONTINUOUS
10
0.2525
20
1.14037
11
0.255513
21
1.13977
0
LINE
8
BLACK
6
CONTINUOUS
10
0.436478
20
1.18397
11
0.439032
21
1.18226
0
LINE
8
BLACK
6
CONTINUOUS
10
0.439032
20
1.18226
11
0.440739
21
1.17971
0
LINE
8
BLACK
6
CONTINUOUS
10
0.440739
20
1.17971
11
0.441339
21
1.17669
0
LINE
8
BLACK
6
CONTINUOUS
10
0.441339
20
1.17669
11
0.441339
21
1.12551
0
LINE
8
BLACK
6
CONTINUOUS
10
0.441339
20
1.12551
11
0.440739
21
1.1225
0
LINE
8
BLACK
6
CONTINUOUS
10
0.440739
20
1.1225
11
0.439032
21
1.11994
0
LINE
8
BLACK
6
CONTINUOUS
10
0.439032
20
1.11994
11
0.436478
21
1.11824
0
LINE
8
BLACK
6
CONTINUOUS
10
0.436478
20
1.11824
11
0.433465
21
1.11764
0
LINE
8
BLACK
6
CONTINUOUS
10
0.433465
20
1.11764
11
0.366535
21
1.11764
0
LINE
8
BLACK
6
CONTINUOUS
10
0.366535
20
1.11764
11
0.363522
21
1.11824
0
LINE
8
BLACK
6
CONTINUOUS
10
0.363522
20
1.11824
11
0.360968
21
1.11994
0
LINE
8
BLACK
6
CONTINUOUS
10
0.360968
20
1.11994
11
0.359261
21
1.1225
0
LINE
8
BLACK
6
CONTINUOUS
10
0.359261
20
1.1225
11
0.358661
21
1.12551
0
LINE
8
BLACK
6
CONTINUOUS
10
0.358661
20
1.12551
11
0.358661
21
1.17669
0
LINE
8
BLACK
6
CONTINUOUS
10
0.358661
20
1.17669
11
0.359261
21
1.17971
0
LINE
8
BLACK
6
CONTINUOUS
10
0.359261
20
1.17971
11
0.360968
21
1.18226
0
LINE
8
BLACK
6
CONTINUOUS
10
0.360968
20
1.18226
11
0.363522
21
1.18397
0
LINE
8
BLACK
6
CONTINUOUS
10
0.363522
20
1.18397
11
0.366535
21
1.18457
0
LINE
8
BLACK
6
CONTINUOUS
10
0.366535
20
1.18457
11
0.433465
21
1.18457
0
LINE
8
BLACK
6
CONTINUOUS
10
0.433465
20
1.18457
11
0.436478
21
1.18397
0
LINE
8
BLACK
6
CONTINUOUS
10
0.753013
20
1.20227
11
0.755568
21
1.20057
0
LINE
8
BLACK
6
CONTINUOUS
10
0.755568
20
1.20057
11
0.757275
21
1.19801
0
LINE
8
BLACK
6
CONTINUOUS
10
0.757275
20
1.19801
11
0.757874
21
1.195
0
LINE
8
BLACK
6
CONTINUOUS
10
0.757874
20
1.195
11
0.757874
21
1.135
0
LINE
8
BLACK
6
CONTINUOUS
10
0.757874
20
1.135
11
0.757275
21
1.13199
0
LINE
8
BLACK
6
CONTINUOUS
10
0.757275
20
1.13199
11
0.755568
21
1.12943
0
LINE
8
BLACK
6
CONTINUOUS
10
0.755568
20
1.12943
11
0.753013
21
1.12773
0
LINE
8
BLACK
6
CONTINUOUS
10
0.753013
20
1.12773
11
0.75
21
1.12713
0
LINE
8
BLACK
6
CONTINUOUS
10
0.75
20
1.12713
11
0.69
21
1.12713
0
LINE
8
BLACK
6
CONTINUOUS
10
0.69
20
1.12713
11
0.686987
21
1.12773
0
LINE
8
BLACK
6
CONTINUOUS
10
0.686987
20
1.12773
11
0.684432
21
1.12943
0
LINE
8
BLACK
6
CONTINUOUS
10
0.684432
20
1.12943
11
0.682725
21
1.13199
0
LINE
8
BLACK
6
CONTINUOUS
10
0.682725
20
1.13199
11
0.682126
21
1.135
0
LINE
8
BLACK
6
CONTINUOUS
10
0.682126
20
1.135
11
0.682126
21
1.195
0
LINE
8
BLACK
6
CONTINUOUS
10
0.682126
20
1.195
11
0.682725
21
1.19801
0
LINE
8
BLACK
6
CONTINUOUS
10
0.682725
20
1.19801
11
0.684432
21
1.20057
0
LINE
8
BLACK
6
CONTINUOUS
10
0.684432
20
1.20057
11
0.686987
21
1.20227
0
LINE
8
BLACK
6
CONTINUOUS
10
0.686987
20
1.20227
11
0.69
21
1.20287
0
LINE
8
BLACK
6
CONTINUOUS
10
0.69
20
1.20287
11
0.75
21
1.20287
0
LINE
8
BLACK
6
CONTINUOUS
10
0.75
20
1.20287
11
0.753013
21
1.20227
0
LINE
8
BLACK
6
CONTINUOUS
10
0.653013
20
1.20227
11
0.655568
21
1.20057
0
LINE
8
BLACK
6
CONTINUOUS
10
0.655568
20
1.20057
11
0.657275
21
1.19801
0
LINE
8
BLACK
6
CONTINUOUS
10
0.657275
20
1.19801
11
0.657874
21
1.195
0
LINE
8
BLACK
6
CONTINUOUS
10
0.657874
20
1.195
11
0.657874
21
1.135
0
LINE
8
BLACK
6
CONTINUOUS
10
0.657874
20
1.135
11
0.657275
21
1.13199
0
LINE
8
BLACK
6
CONTINUOUS
10
0.657275
20
1.13199
11
0.655568
21
1.12943
0
LINE
8
BLACK
6
CONTINUOUS
10
0.655568
20
1.12943
11
0.653013
21
1.12773
0
LINE
8
BLACK
6
CONTINUOUS
10
0.653013
20
1.12773
11
0.65
21
1.12713
0
LINE
8
BLACK
6
CONTINUOUS
10
0.65
20
1.12713
11
0.59
21
1.12713
0
LINE
8
BLACK
6
CONTINUOUS
10
0.59
20
1.12713
11
0.586987
21
1.12773
0
LINE
8
BLACK
6
CONTINUOUS
10
0.586987
20
1.12773
11
0.584432
21
1.12943
0
LINE
8
BLACK
6
CONTINUOUS
10
0.584432
20
1.12943
11
0.582725
21
1.13199
0
LINE
8
BLACK
6
CONTINUOUS
10
0.582725
20
1.13199
11
0.582126
21
1.135
0
LINE
8
BLACK
6
CONTINUOUS
10
0.582126
20
1.135
11
0.582126
21
1.195
0
LINE
8
BLACK
6
CONTINUOUS
10
0.582126
20
1.195
11
0.582725
21
1.19801
0
LINE
8
BLACK
6
CONTINUOUS
10
0.582725
20
1.19801
11
0.584432
21
1.20057
0
LINE
8
BLACK
6
CONTINUOUS
10
0.584432
20
1.20057
11
0.586987
21
1.20227
0
LINE
8
BLACK
6
CONTINUOUS
10
0.586987
20
1.20227
11
0.59
21
1.20287
0
LINE
8
BLACK
6
CONTINUOUS
10
0.59
20
1.20287
11
0.65
21
1.20287
0
LINE
8
BLACK
6
CONTINUOUS
10
0.65
20
1.20287
11
0.653013
21
1.20227
0
LINE
8
BLACK
6
CONTINUOUS
10
0.165513
20
1.19227
11
0.168068
21
1.19057
0
LINE
8
BLACK
6
CONTINUOUS
10
0.168068
20
1.19057
11
0.169775
21
1.18801
0
LINE
8
BLACK
6
CONTINUOUS
10
0.169775
20
1.18801
11
0.170374
21
1.185
0
LINE
8
BLACK
6
CONTINUOUS
10
0.170374
20
1.185
11
0.170374
21
1.15
0
LINE
8
BLACK
6
CONTINUOUS
10
0.170374
20
1.15
11
0.169775
21
1.14699
0
LINE
8
BLACK
6
CONTINUOUS
10
0.169775
20
1.14699
11
0.168068
21
1.14443
0
LINE
8
BLACK
6
CONTINUOUS
10
0.168068
20
1.14443
11
0.165513
21
1.14273
0
LINE
8
BLACK
6
CONTINUOUS
10
0.165513
20
1.14273
11
0.1625
21
1.14213
0
LINE
8
BLACK
6
CONTINUOUS
10
0.1625
20
1.14213
11
0.1075
21
1.14213
0
LINE
8
BLACK
6
CONTINUOUS
10
0.1075
20
1.14213
11
0.104487
21
1.14273
0
LINE
8
BLACK
6
CONTINUOUS
10
0.104487
20
1.14273
11
0.101932
21
1.14443
0
LINE
8
BLACK
6
CONTINUOUS
10
0.101932
20
1.14443
11
0.100225
21
1.14699
0
LINE
8
BLACK
6
CONTINUOUS
10
0.100225
20
1.14699
11
0.099626
21
1.15
0
LINE
8
BLACK
6
CONTINUOUS
10
0.099626
20
1.15
11
0.099626
21
1.185
0
LINE
8
BLACK
6
CONTINUOUS
10
0.099626
20
1.185
11
0.100225
21
1.18801
0
LINE
8
BLACK
6
CONTINUOUS
10
0.100225
20
1.18801
11
0.101932
21
1.19057
0
LINE
8
BLACK
6
CONTINUOUS
10
0.101932
20
1.19057
11
0.104487
21
1.19227
0
LINE
8
BLACK
6
CONTINUOUS
10
0.104487
20
1.19227
11
0.1075
21
1.19287
0
LINE
8
BLACK
6
CONTINUOUS
10
0.1075
20
1.19287
11
0.1625
21
1.19287
0
LINE
8
BLACK
6
CONTINUOUS
10
0.1625
20
1.19287
11
0.165513
21
1.19227
0
LINE
8
BLACK
6
CONTINUOUS
10
0.436478
20
1.32176
11
0.439032
21
1.32006
0
LINE
8
BLACK
6
CONTINUOUS
10
0.439032
20
1.32006
11
0.440739
21
1.3175
0
LINE
8
BLACK
6
CONTINUOUS
10
0.440739
20
1.3175
11
0.441339
21
1.31449
0
LINE
8
BLACK
6
CONTINUOUS
10
0.441339
20
1.31449
11
0.441339
21
1.26331
0
LINE
8
BLACK
6
CONTINUOUS
10
0.441339
20
1.26331
11
0.440739
21
1.26029
0
LINE
8
BLACK
6
CONTINUOUS
10
0.440739
20
1.26029
11
0.439032
21
1.25774
0
LINE
8
BLACK
6
CONTINUOUS
10
0.439032
20
1.25774
11
0.436478
21
1.25603
0
LINE
8
BLACK
6
CONTINUOUS
10
0.436478
20
1.25603
11
0.433465
21
1.25543
0
LINE
8
BLACK
6
CONTINUOUS
10
0.433465
20
1.25543
11
0.366535
21
1.25543
0
LINE
8
BLACK
6
CONTINUOUS
10
0.366535
20
1.25543
11
0.363522
21
1.25603
0
LINE
8
BLACK
6
CONTINUOUS
10
0.363522
20
1.25603
11
0.360968
21
1.25774
0
LINE
8
BLACK
6
CONTINUOUS
10
0.360968
20
1.25774
11
0.359261
21
1.26029
0
LINE
8
BLACK
6
CONTINUOUS
10
0.359261
20
1.26029
11
0.358661
21
1.26331
0
LINE
8
BLACK
6
CONTINUOUS
10
0.358661
20
1.26331
11
0.358661
21
1.31449
0
LINE
8
BLACK
6
CONTINUOUS
10
0.358661
20
1.31449
11
0.359261
21
1.3175
0
LINE
8
BLACK
6
CONTINUOUS
10
0.359261
20
1.3175
11
0.360968
21
1.32006
0
LINE
8
BLACK
6
CONTINUOUS
10
0.360968
20
1.32006
11
0.363522
21
1.32176
0
LINE
8
BLACK
6
CONTINUOUS
10
0.363522
20
1.32176
11
0.366535
21
1.32236
0
LINE
8
BLACK
6
CONTINUOUS
10
0.366535
20
1.32236
11
0.433465
21
1.32236
0
LINE
8
BLACK
6
CONTINUOUS
10
0.433465
20
1.32236
11
0.436478
21
1.32176
0
LINE
8
BLACK
6
CONTINUOUS
10
0.614917
20
1.5251
11
0.628769
21
1.52266
0
LINE
8
BLACK
6
CONTINUOUS
10
0.628769
20
1.52266
11
0.642262
21
1.51868
0
LINE
8
BLACK
6
CONTINUOUS
10
0.642262
20
1.51868
11
0.655228
21
1.51323
0
LINE
8
BLACK
6
CONTINUOUS
10
0.655228
20
1.51323
11
0.667506
21
1.50637
0
LINE
8
BLACK
6
CONTINUOUS
10
0.667506
20
1.50637
11
0.678942
21
1.49818
0
LINE
8
BLACK
6
CONTINUOUS
10
0.678942
20
1.49818
11
0.689395
21
1.48877
0
LINE
8
BLACK
6
CONTINUOUS
10
0.689395
20
1.48877
11
0.698733
21
1.47825
0
LINE
8
BLACK
6
CONTINUOUS
10
0.698733
20
1.47825
11
0.706841
21
1.46676
0
LINE
8
BLACK
6
CONTINUOUS
10
0.706841
20
1.46676
11
0.713617
21
1.45444
0
LINE
8
BLACK
6
CONTINUOUS
10
0.713617
20
1.45444
11
0.718977
21
1.44143
0
LINE
8
BLACK
6
CONTINUOUS
10
0.718977
20
1.44143
11
0.722853
21
1.42791
0
LINE
8
BLACK
6
CONTINUOUS
10
0.722853
20
1.42791
11
0.725199
21
1.41404
0
LINE
8
BLACK
6
CONTINUOUS
10
0.725199
20
1.41404
11
0.725984
21
1.4
0
LINE
8
BLACK
6
CONTINUOUS
10
0.725984
20
1.4
11
0.725935
21
1.39648
0
LINE
8
BLACK
6
CONTINUOUS
10
0.725935
20
1.39648
11
0.724758
21
1.38247
0
LINE
8
BLACK
6
CONTINUOUS
10
0.724758
20
1.38247
11
0.722026
21
1.36867
0
LINE
8
BLACK
6
CONTINUOUS
10
0.722026
20
1.36867
11
0.717773
21
1.35526
0
LINE
8
BLACK
6
CONTINUOUS
10
0.717773
20
1.35526
11
0.712052
21
1.34241
0
LINE
8
BLACK
6
CONTINUOUS
10
0.712052
20
1.34241
11
0.704935
21
1.33028
0
LINE
8
BLACK
6
CONTINUOUS
10
0.704935
20
1.33028
11
0.69651
21
1.31902
0
LINE
8
BLACK
6
CONTINUOUS
10
0.69651
20
1.31902
11
0.686881
21
1.30877
0
LINE
8
BLACK
6
CONTINUOUS
10
0.686881
20
1.30877
11
0.67617
21
1.29965
0
LINE
8
BLACK
6
CONTINUOUS
10
0.67617
20
1.29965
11
0.664509
21
1.29178
0
LINE
8
BLACK
6
CONTINUOUS
10
0.664509
20
1.29178
11
0.652045
21
1.28527
0
LINE
8
BLACK
6
CONTINUOUS
10
0.652045
20
1.28527
11
0.638931
21
1.28018
0
LINE
8
BLACK
6
CONTINUOUS
10
0.638931
20
1.28018
11
0.625333
21
1.27659
0
LINE
8
BLACK
6
CONTINUOUS
10
0.625333
20
1.27659
11
0.611418
21
1.27453
0
LINE
8
BLACK
6
CONTINUOUS
10
0.611418
20
1.27453
11
0.597362
21
1.27404
0
LINE
8
BLACK
6
CONTINUOUS
10
0.597362
20
1.27404
11
0.583338
21
1.27512
0
LINE
8
BLACK
6
CONTINUOUS
10
0.583338
20
1.27512
11
0.569522
21
1.27776
0
LINE
8
BLACK
6
CONTINUOUS
10
0.569522
20
1.27776
11
0.556085
21
1.28192
0
LINE
8
BLACK
6
CONTINUOUS
10
0.556085
20
1.28192
11
0.543197
21
1.28755
0
LINE
8
BLACK
6
CONTINUOUS
10
0.543197
20
1.28755
11
0.531016
21
1.29458
0
LINE
8
BLACK
6
CONTINUOUS
10
0.531016
20
1.29458
11
0.519695
21
1.30293
0
LINE
8
BLACK
6
CONTINUOUS
10
0.519695
20
1.30293
11
0.509375
21
1.31248
0
LINE
8
BLACK
6
CONTINUOUS
10
0.509375
20
1.31248
11
0.500184
21
1.32313
0
LINE
8
BLACK
6
CONTINUOUS
10
0.500184
20
1.32313
11
0.492238
21
1.33474
0
LINE
8
BLACK
6
CONTINUOUS
10
0.492238
20
1.33474
11
0.485634
21
1.34716
0
LINE
8
BLACK
6
CONTINUOUS
10
0.485634
20
1.34716
11
0.480457
21
1.36023
0
LINE
8
BLACK
6
CONTINUOUS
10
0.480457
20
1.36023
11
0.476769
21
1.37381
0
LINE
8
BLACK
6
CONTINUOUS
10
0.476769
20
1.37381
11
0.474617
21
1.38771
0
LINE
8
BLACK
6
CONTINUOUS
10
0.474617
20
1.38771
11
0.474028
21
1.40176
0
LINE
8
BLACK
6
CONTINUOUS
10
0.474028
20
1.40176
11
0.475009
21
1.41579
0
LINE
8
BLACK
6
CONTINUOUS
10
0.475009
20
1.41579
11
0.477548
21
1.42962
0
LINE
8
BLACK
6
CONTINUOUS
10
0.477548
20
1.42962
11
0.481614
21
1.44309
0
LINE
8
BLACK
6
CONTINUOUS
10
0.481614
20
1.44309
11
0.487154
21
1.45602
0
LINE
8
BLACK
6
CONTINUOUS
10
0.487154
20
1.45602
11
0.494102
21
1.46825
0
LINE
8
BLACK
6
CONTINUOUS
10
0.494102
20
1.46825
11
0.502369
21
1.47963
0
LINE
8
BLACK
6
CONTINUOUS
10
0.502369
20
1.47963
11
0.511853
21
1.49001
0
LINE
8
BLACK
6
CONTINUOUS
10
0.511853
20
1.49001
11
0.522436
21
1.49928
0
LINE
8
BLACK
6
CONTINUOUS
10
0.522436
20
1.49928
11
0.533986
21
1.5073
0
LINE
8
BLACK
6
CONTINUOUS
10
0.533986
20
1.5073
11
0.546359
21
1.51399
0
LINE
8
BLACK
6
CONTINUOUS
10
0.546359
20
1.51399
11
0.5594
21
1.51926
0
LINE
8
BLACK
6
CONTINUOUS
10
0.5594
20
1.51926
11
0.572947
21
1.52305
0
LINE
8
BLACK
6
CONTINUOUS
10
0.572947
20
1.52305
11
0.586831
21
1.52529
0
LINE
8
BLACK
6
CONTINUOUS
10
0.586831
20
1.52529
11
0.60088
21
1.52598
0
LINE
8
BLACK
6
CONTINUOUS
10
0.60088
20
1.52598
11
0.614917
21
1.5251
0
LINE
8
BLACK
6
CONTINUOUS
10
0.214917
20
1.5251
11
0.228769
21
1.52266
0
LINE
8
BLACK
6
CONTINUOUS
10
0.228769
20
1.52266
11
0.242262
21
1.51868
0
LINE
8
BLACK
6
CONTINUOUS
10
0.242262
20
1.51868
11
0.255228
21
1.51323
0
LINE
8
BLACK
6
CONTINUOUS
10
0.255228
20
1.51323
11
0.267506
21
1.50637
0
LINE
8
BLACK
6
CONTINUOUS
10
0.267506
20
1.50637
11
0.278942
21
1.49818
0
LINE
8
BLACK
6
CONTINUOUS
10
0.278942
20
1.49818
11
0.289395
21
1.48877
0
LINE
8
BLACK
6
CONTINUOUS
10
0.289395
20
1.48877
11
0.298733
21
1.47825
0
LINE
8
BLACK
6
CONTINUOUS
10
0.298733
20
1.47825
11
0.306841
21
1.46676
0
LINE
8
BLACK
6
CONTINUOUS
10
0.306841
20
1.46676
11
0.313617
21
1.45444
0
LINE
8
BLACK
6
CONTINUOUS
10
0.313617
20
1.45444
11
0.318977
21
1.44143
0
LINE
8
BLACK
6
CONTINUOUS
10
0.318977
20
1.44143
11
0.322853
21
1.42791
0
LINE
8
BLACK
6
CONTINUOUS
10
0.322853
20
1.42791
11
0.325199
21
1.41404
0
LINE
8
BLACK
6
CONTINUOUS
10
0.325199
20
1.41404
11
0.325984
21
1.4
0
LINE
8
BLACK
6
CONTINUOUS
10
0.325984
20
1.4
11
0.325935
21
1.39648
0
LINE
8
BLACK
6
CONTINUOUS
10
0.325935
20
1.39648
11
0.324758
21
1.38247
0
LINE
8
BLACK
6
CONTINUOUS
10
0.324758
20
1.38247
11
0.322026
21
1.36867
0
LINE
8
BLACK
6
CONTINUOUS
10
0.322026
20
1.36867
11
0.317773
21
1.35526
0
LINE
8
BLACK
6
CONTINUOUS
10
0.317773
20
1.35526
11
0.312052
21
1.34241
0
LINE
8
BLACK
6
CONTINUOUS
10
0.312052
20
1.34241
11
0.304935
21
1.33028
0
LINE
8
BLACK
6
CONTINUOUS
10
0.304935
20
1.33028
11
0.29651
21
1.31902
0
LINE
8
BLACK
6
CONTINUOUS
10
0.29651
20
1.31902
11
0.286881
21
1.30877
0
LINE
8
BLACK
6
CONTINUOUS
10
0.286881
20
1.30877
11
0.27617
21
1.29965
0
LINE
8
BLACK
6
CONTINUOUS
10
0.27617
20
1.29965
11
0.264509
21
1.29178
0
LINE
8
BLACK
6
CONTINUOUS
10
0.264509
20
1.29178
11
0.252045
21
1.28527
0
LINE
8
BLACK
6
CONTINUOUS
10
0.252045
20
1.28527
11
0.238931
21
1.28018
0
LINE
8
BLACK
6
CONTINUOUS
10
0.238931
20
1.28018
11
0.225333
21
1.27659
0
LINE
8
BLACK
6
CONTINUOUS
10
0.225333
20
1.27659
11
0.211418
21
1.27453
0
LINE
8
BLACK
6
CONTINUOUS
10
0.211418
20
1.27453
11
0.197362
21
1.27404
0
LINE
8
BLACK
6
CONTINUOUS
10
0.197362
20
1.27404
11
0.183338
21
1.27512
0
LINE
8
BLACK
6
CONTINUOUS
10
0.183338
20
1.27512
11
0.169522
21
1.27776
0
LINE
8
BLACK
6
CONTINUOUS
10
0.169522
20
1.27776
11
0.156085
21
1.28192
0
LINE
8
BLACK
6
CONTINUOUS
10
0.156085
20
1.28192
11
0.143197
21
1.28755
0
LINE
8
BLACK
6
CONTINUOUS
10
0.143197
20
1.28755
11
0.131016
21
1.29458
0
LINE
8
BLACK
6
CONTINUOUS
10
0.131016
20
1.29458
11
0.119695
21
1.30293
0
LINE
8
BLACK
6
CONTINUOUS
10
0.119695
20
1.30293
11
0.109375
21
1.31248
0
LINE
8
BLACK
6
CONTINUOUS
10
0.109375
20
1.31248
11
0.100184
21
1.32313
0
LINE
8
BLACK
6
CONTINUOUS
10
0.100184
20
1.32313
11
0.0922376
21
1.33474
0
LINE
8
BLACK
6
CONTINUOUS
10
0.0922376
20
1.33474
11
0.0856343
21
1.34716
0
LINE
8
BLACK
6
CONTINUOUS
10
0.0856343
20
1.34716
11
0.0804566
21
1.36023
0
LINE
8
BLACK
6
CONTINUOUS
10
0.0804566
20
1.36023
11
0.0767688
21
1.37381
0
LINE
8
BLACK
6
CONTINUOUS
10
0.0767688
20
1.37381
11
0.074617
21
1.38771
0
LINE
8
BLACK
6
CONTINUOUS
10
0.074617
20
1.38771
11
0.074028
21
1.40176
0
LINE
8
BLACK
6
CONTINUOUS
10
0.074028
20
1.40176
11
0.0750092
21
1.41579
0
LINE
8
BLACK
6
CONTINUOUS
10
0.0750092
20
1.41579
11
0.0775482
21
1.42962
0
LINE
8
BLACK
6
CONTINUOUS
10
0.0775482
20
1.42962
11
0.0816135
21
1.44309
0
LINE
8
BLACK
6
CONTINUOUS
10
0.0816135
20
1.44309
11
0.0871544
21
1.45602
0
LINE
8
BLACK
6
CONTINUOUS
10
0.0871544
20
1.45602
11
0.0941019
21
1.46825
0
LINE
8
BLACK
6
CONTINUOUS
10
0.0941019
20
1.46825
11
0.102369
21
1.47963
0
LINE
8
BLACK
6
CONTINUOUS
10
0.102369
20
1.47963
11
0.111853
21
1.49001
0
LINE
8
BLACK
6
CONTINUOUS
10
0.111853
20
1.49001
11
0.122436
21
1.49928
0
LINE
8
BLACK
6
CONTINUOUS
10
0.122436
20
1.49928
11
0.133986
21
1.5073
0
LINE
8
BLACK
6
CONTINUOUS
10
0.133986
20
1.5073
11
0.146359
21
1.51399
0
LINE
8
BLACK
6
CONTINUOUS
10
0.146359
20
1.51399
11
0.1594
21
1.51926
0
LINE
8
BLACK
6
CONTINUOUS
10
0.1594
20
1.51926
11
0.172947
21
1.52305
0
LINE
8
BLACK
6
CONTINUOUS
10
0.172947
20
1.52305
11
0.186831
21
1.52529
0
LINE
8
BLACK
6
CONTINUOUS
10
0.186831
20
1.52529
11
0.20088
21
1.52598
0
LINE
8
BLACK
6
CONTINUOUS
10
0.20088
20
1.52598
11
0.214917
21
1.5251
  0
ENDSEC
  0
EOF
