  0
SECTION
  2
HEADER
  9
$ANGBASE
  50
0.0
  9
$ANGDIR
  70
1
  9
$MEASUREMENT
  70
0
  0
ENDSEC
  0
SECTION
  2
TABLES
  0
TABLE
  2
LTYPE
  70
4
  0
LTYPE
  5
40F
  2
CONTINUOUS
  70
0
  3
Solid line
  72
65
  73
0
  40
0.0
  0
LTYPE
  5
410
  2
DASHDOT
 70
0
  3
Dash Dot ____ _ ____ _
 72
65
 73
4
 40
2.0
 49
1.25
 49
-0.25
 49
0.25
 49
-0.25
  0
LTYPE
  5
411
  2
DASHED
 70
0
  3
Dashed __ __ __ __ __
 72
65
 73
2
 40
0.75
 49
0.5
 49
-0.25
  0
LTYPE
  5
43B
  2
DOTTED
 70
0
  3
Dotted .  .  .  .
 72
65
 73
2
 40
0.2
 49
0.0
 49
-0.2
  0
ENDTAB
  0
TABLE
  2
STYLE
  70
4
  0
STYLE
  2
KICAD
  70
0
  40
0
  41
1
  42
1
  50
0
  71
0
  3
isocp.shx
  0
STYLE
  2
KICADB
  70
0
  40
0
  41
1
  42
1
  50
0
  71
0
  3
isocp.shx
  0
STYLE
  2
KICADI
  70
0
  40
0
  41
1
  42
1
  50
15
  71
0
  3
isocp.shx
  0
STYLE
  2
KICADBI
  70
0
  40
0
  41
1
  42
1
  50
15
  71
0
  3
isocp.shx
  0
ENDTAB
  0
TABLE
  2
LAYER
  70
1
  0
LAYER
  2
BLACK
  70
0
  62
7
  6
CONTINUOUS
  0
ENDTAB
  0
ENDSEC
  0
SECTION
  2
ENTITIES
0
LINE
8
BLACK
6
CONTINUOUS
10
0.22051
20
0.316316
11
0.233874
21
0.313148
0
LINE
8
BLACK
6
CONTINUOUS
10
0.233874
20
0.313148
11
0.246781
21
0.308451
0
LINE
8
BLACK
6
CONTINUOUS
10
0.246781
20
0.308451
11
0.259055
21
0.302286
0
LINE
8
BLACK
6
CONTINUOUS
10
0.259055
20
0.302286
11
0.270531
21
0.294739
0
LINE
8
BLACK
6
CONTINUOUS
10
0.270531
20
0.294739
11
0.281052
21
0.28591
0
LINE
8
BLACK
6
CONTINUOUS
10
0.281052
20
0.28591
11
0.290478
21
0.27592
0
LINE
8
BLACK
6
CONTINUOUS
10
0.290478
20
0.27592
11
0.29868
21
0.264903
0
LINE
8
BLACK
6
CONTINUOUS
10
0.29868
20
0.264903
11
0.305547
21
0.253008
0
LINE
8
BLACK
6
CONTINUOUS
10
0.305547
20
0.253008
11
0.310987
21
0.240396
0
LINE
8
BLACK
6
CONTINUOUS
10
0.310987
20
0.240396
11
0.314927
21
0.227238
0
LINE
8
BLACK
6
CONTINUOUS
10
0.314927
20
0.227238
11
0.317312
21
0.213712
0
LINE
8
BLACK
6
CONTINUOUS
10
0.317312
20
0.213712
11
0.31811
21
0.2
0
LINE
8
BLACK
6
CONTINUOUS
10
0.31811
20
0.2
11
0.317312
21
0.186288
0
LINE
8
BLACK
6
CONTINUOUS
10
0.317312
20
0.186288
11
0.314927
21
0.172762
0
LINE
8
BLACK
6
CONTINUOUS
10
0.314927
20
0.172762
11
0.310987
21
0.159604
0
LINE
8
BLACK
6
CONTINUOUS
10
0.310987
20
0.159604
11
0.305547
21
0.146992
0
LINE
8
BLACK
6
CONTINUOUS
10
0.305547
20
0.146992
11
0.29868
21
0.135097
0
LINE
8
BLACK
6
CONTINUOUS
10
0.29868
20
0.135097
11
0.290478
21
0.12408
0
LINE
8
BLACK
6
CONTINUOUS
10
0.290478
20
0.12408
11
0.281052
21
0.11409
0
LINE
8
BLACK
6
CONTINUOUS
10
0.281052
20
0.11409
11
0.270531
21
0.105261
0
LINE
8
BLACK
6
CONTINUOUS
10
0.270531
20
0.105261
11
0.259055
21
0.0977135
0
LINE
8
BLACK
6
CONTINUOUS
10
0.259055
20
0.0977135
11
0.246781
21
0.0915493
0
LINE
8
BLACK
6
CONTINUOUS
10
0.246781
20
0.0915493
11
0.233874
21
0.0868516
0
LINE
8
BLACK
6
CONTINUOUS
10
0.233874
20
0.0868516
11
0.22051
21
0.0836841
0
LINE
8
BLACK
6
CONTINUOUS
10
0.22051
20
0.0836841
11
0.206867
21
0.0820896
0
LINE
8
BLACK
6
CONTINUOUS
10
0.206867
20
0.0820896
11
0.193133
21
0.0820896
0
LINE
8
BLACK
6
CONTINUOUS
10
0.193133
20
0.0820896
11
0.17949
21
0.0836841
0
LINE
8
BLACK
6
CONTINUOUS
10
0.17949
20
0.0836841
11
0.166126
21
0.0868516
0
LINE
8
BLACK
6
CONTINUOUS
10
0.166126
20
0.0868516
11
0.153219
21
0.0915493
0
LINE
8
BLACK
6
CONTINUOUS
10
0.153219
20
0.0915493
11
0.140945
21
0.0977135
0
LINE
8
BLACK
6
CONTINUOUS
10
0.140945
20
0.0977135
11
0.129469
21
0.105261
0
LINE
8
BLACK
6
CONTINUOUS
10
0.129469
20
0.105261
11
0.118948
21
0.11409
0
LINE
8
BLACK
6
CONTINUOUS
10
0.118948
20
0.11409
11
0.109522
21
0.12408
0
LINE
8
BLACK
6
CONTINUOUS
10
0.109522
20
0.12408
11
0.10132
21
0.135097
0
LINE
8
BLACK
6
CONTINUOUS
10
0.10132
20
0.135097
11
0.0944528
21
0.146992
0
LINE
8
BLACK
6
CONTINUOUS
10
0.0944528
20
0.146992
11
0.0890127
21
0.159604
0
LINE
8
BLACK
6
CONTINUOUS
10
0.0890127
20
0.159604
11
0.0850734
21
0.172762
0
LINE
8
BLACK
6
CONTINUOUS
10
0.0850734
20
0.172762
11
0.0826884
21
0.186288
0
LINE
8
BLACK
6
CONTINUOUS
10
0.0826884
20
0.186288
11
0.0818898
21
0.2
0
LINE
8
BLACK
6
CONTINUOUS
10
0.0818898
20
0.2
11
0.0826884
21
0.213712
0
LINE
8
BLACK
6
CONTINUOUS
10
0.0826884
20
0.213712
11
0.0850734
21
0.227238
0
LINE
8
BLACK
6
CONTINUOUS
10
0.0850734
20
0.227238
11
0.0890127
21
0.240396
0
LINE
8
BLACK
6
CONTINUOUS
10
0.0890127
20
0.240396
11
0.0944528
21
0.253008
0
LINE
8
BLACK
6
CONTINUOUS
10
0.0944528
20
0.253008
11
0.10132
21
0.264903
0
LINE
8
BLACK
6
CONTINUOUS
10
0.10132
20
0.264903
11
0.109522
21
0.27592
0
LINE
8
BLACK
6
CONTINUOUS
10
0.109522
20
0.27592
11
0.118948
21
0.28591
0
LINE
8
BLACK
6
CONTINUOUS
10
0.118948
20
0.28591
11
0.129469
21
0.294739
0
LINE
8
BLACK
6
CONTINUOUS
10
0.129469
20
0.294739
11
0.140945
21
0.302286
0
LINE
8
BLACK
6
CONTINUOUS
10
0.140945
20
0.302286
11
0.153219
21
0.308451
0
LINE
8
BLACK
6
CONTINUOUS
10
0.153219
20
0.308451
11
0.166126
21
0.313148
0
LINE
8
BLACK
6
CONTINUOUS
10
0.166126
20
0.313148
11
0.17949
21
0.316316
0
LINE
8
BLACK
6
CONTINUOUS
10
0.17949
20
0.316316
11
0.193133
21
0.31791
0
LINE
8
BLACK
6
CONTINUOUS
10
0.193133
20
0.31791
11
0.206867
21
0.31791
0
LINE
8
BLACK
6
CONTINUOUS
10
0.206867
20
0.31791
11
0.22051
21
0.316316
0
LINE
8
BLACK
6
CONTINUOUS
10
0.62051
20
0.316316
11
0.633874
21
0.313148
0
LINE
8
BLACK
6
CONTINUOUS
10
0.633874
20
0.313148
11
0.646781
21
0.308451
0
LINE
8
BLACK
6
CONTINUOUS
10
0.646781
20
0.308451
11
0.659055
21
0.302286
0
LINE
8
BLACK
6
CONTINUOUS
10
0.659055
20
0.302286
11
0.670531
21
0.294739
0
LINE
8
BLACK
6
CONTINUOUS
10
0.670531
20
0.294739
11
0.681052
21
0.28591
0
LINE
8
BLACK
6
CONTINUOUS
10
0.681052
20
0.28591
11
0.690478
21
0.27592
0
LINE
8
BLACK
6
CONTINUOUS
10
0.690478
20
0.27592
11
0.69868
21
0.264903
0
LINE
8
BLACK
6
CONTINUOUS
10
0.69868
20
0.264903
11
0.705547
21
0.253008
0
LINE
8
BLACK
6
CONTINUOUS
10
0.705547
20
0.253008
11
0.710987
21
0.240396
0
LINE
8
BLACK
6
CONTINUOUS
10
0.710987
20
0.240396
11
0.714927
21
0.227238
0
LINE
8
BLACK
6
CONTINUOUS
10
0.714927
20
0.227238
11
0.717312
21
0.213712
0
LINE
8
BLACK
6
CONTINUOUS
10
0.717312
20
0.213712
11
0.71811
21
0.2
0
LINE
8
BLACK
6
CONTINUOUS
10
0.71811
20
0.2
11
0.717312
21
0.186288
0
LINE
8
BLACK
6
CONTINUOUS
10
0.717312
20
0.186288
11
0.714927
21
0.172762
0
LINE
8
BLACK
6
CONTINUOUS
10
0.714927
20
0.172762
11
0.710987
21
0.159604
0
LINE
8
BLACK
6
CONTINUOUS
10
0.710987
20
0.159604
11
0.705547
21
0.146992
0
LINE
8
BLACK
6
CONTINUOUS
10
0.705547
20
0.146992
11
0.69868
21
0.135097
0
LINE
8
BLACK
6
CONTINUOUS
10
0.69868
20
0.135097
11
0.690478
21
0.12408
0
LINE
8
BLACK
6
CONTINUOUS
10
0.690478
20
0.12408
11
0.681052
21
0.11409
0
LINE
8
BLACK
6
CONTINUOUS
10
0.681052
20
0.11409
11
0.670531
21
0.105261
0
LINE
8
BLACK
6
CONTINUOUS
10
0.670531
20
0.105261
11
0.659055
21
0.0977135
0
LINE
8
BLACK
6
CONTINUOUS
10
0.659055
20
0.0977135
11
0.646781
21
0.0915493
0
LINE
8
BLACK
6
CONTINUOUS
10
0.646781
20
0.0915493
11
0.633874
21
0.0868516
0
LINE
8
BLACK
6
CONTINUOUS
10
0.633874
20
0.0868516
11
0.62051
21
0.0836841
0
LINE
8
BLACK
6
CONTINUOUS
10
0.62051
20
0.0836841
11
0.606867
21
0.0820896
0
LINE
8
BLACK
6
CONTINUOUS
10
0.606867
20
0.0820896
11
0.593133
21
0.0820896
0
LINE
8
BLACK
6
CONTINUOUS
10
0.593133
20
0.0820896
11
0.57949
21
0.0836841
0
LINE
8
BLACK
6
CONTINUOUS
10
0.57949
20
0.0836841
11
0.566126
21
0.0868516
0
LINE
8
BLACK
6
CONTINUOUS
10
0.566126
20
0.0868516
11
0.553219
21
0.0915493
0
LINE
8
BLACK
6
CONTINUOUS
10
0.553219
20
0.0915493
11
0.540945
21
0.0977135
0
LINE
8
BLACK
6
CONTINUOUS
10
0.540945
20
0.0977135
11
0.529469
21
0.105261
0
LINE
8
BLACK
6
CONTINUOUS
10
0.529469
20
0.105261
11
0.518948
21
0.11409
0
LINE
8
BLACK
6
CONTINUOUS
10
0.518948
20
0.11409
11
0.509522
21
0.12408
0
LINE
8
BLACK
6
CONTINUOUS
10
0.509522
20
0.12408
11
0.50132
21
0.135097
0
LINE
8
BLACK
6
CONTINUOUS
10
0.50132
20
0.135097
11
0.494453
21
0.146992
0
LINE
8
BLACK
6
CONTINUOUS
10
0.494453
20
0.146992
11
0.489013
21
0.159604
0
LINE
8
BLACK
6
CONTINUOUS
10
0.489013
20
0.159604
11
0.485073
21
0.172762
0
LINE
8
BLACK
6
CONTINUOUS
10
0.485073
20
0.172762
11
0.482688
21
0.186288
0
LINE
8
BLACK
6
CONTINUOUS
10
0.482688
20
0.186288
11
0.48189
21
0.2
0
LINE
8
BLACK
6
CONTINUOUS
10
0.48189
20
0.2
11
0.482688
21
0.213712
0
LINE
8
BLACK
6
CONTINUOUS
10
0.482688
20
0.213712
11
0.485073
21
0.227238
0
LINE
8
BLACK
6
CONTINUOUS
10
0.485073
20
0.227238
11
0.489013
21
0.240396
0
LINE
8
BLACK
6
CONTINUOUS
10
0.489013
20
0.240396
11
0.494453
21
0.253008
0
LINE
8
BLACK
6
CONTINUOUS
10
0.494453
20
0.253008
11
0.50132
21
0.264903
0
LINE
8
BLACK
6
CONTINUOUS
10
0.50132
20
0.264903
11
0.509522
21
0.27592
0
LINE
8
BLACK
6
CONTINUOUS
10
0.509522
20
0.27592
11
0.518948
21
0.28591
0
LINE
8
BLACK
6
CONTINUOUS
10
0.518948
20
0.28591
11
0.529469
21
0.294739
0
LINE
8
BLACK
6
CONTINUOUS
10
0.529469
20
0.294739
11
0.540945
21
0.302286
0
LINE
8
BLACK
6
CONTINUOUS
10
0.540945
20
0.302286
11
0.553219
21
0.308451
0
LINE
8
BLACK
6
CONTINUOUS
10
0.553219
20
0.308451
11
0.566126
21
0.313148
0
LINE
8
BLACK
6
CONTINUOUS
10
0.566126
20
0.313148
11
0.57949
21
0.316316
0
LINE
8
BLACK
6
CONTINUOUS
10
0.57949
20
0.316316
11
0.593133
21
0.31791
0
LINE
8
BLACK
6
CONTINUOUS
10
0.593133
20
0.31791
11
0.606867
21
0.31791
0
LINE
8
BLACK
6
CONTINUOUS
10
0.606867
20
0.31791
11
0.62051
21
0.316316
0
LINE
8
BLACK
6
CONTINUOUS
10
0.65
20
0.47
11
0.59
21
0.47
0
LINE
8
BLACK
6
CONTINUOUS
10
0.59
20
0.47
11
0.59
21
0.53
0
LINE
8
BLACK
6
CONTINUOUS
10
0.59
20
0.53
11
0.65
21
0.53
0
LINE
8
BLACK
6
CONTINUOUS
10
0.65
20
0.53
11
0.65
21
0.47
0
LINE
8
BLACK
6
CONTINUOUS
10
0.75
20
0.47
11
0.69
21
0.47
0
LINE
8
BLACK
6
CONTINUOUS
10
0.69
20
0.47
11
0.69
21
0.53
0
LINE
8
BLACK
6
CONTINUOUS
10
0.69
20
0.53
11
0.75
21
0.53
0
LINE
8
BLACK
6
CONTINUOUS
10
0.75
20
0.53
11
0.75
21
0.47
0
LINE
8
BLACK
6
CONTINUOUS
10
0.65
20
0.57
11
0.59
21
0.57
0
LINE
8
BLACK
6
CONTINUOUS
10
0.59
20
0.57
11
0.59
21
0.63
0
LINE
8
BLACK
6
CONTINUOUS
10
0.59
20
0.63
11
0.65
21
0.63
0
LINE
8
BLACK
6
CONTINUOUS
10
0.65
20
0.63
11
0.65
21
0.57
0
LINE
8
BLACK
6
CONTINUOUS
10
0.75
20
0.57
11
0.69
21
0.57
0
LINE
8
BLACK
6
CONTINUOUS
10
0.69
20
0.57
11
0.69
21
0.63
0
LINE
8
BLACK
6
CONTINUOUS
10
0.69
20
0.63
11
0.75
21
0.63
0
LINE
8
BLACK
6
CONTINUOUS
10
0.75
20
0.63
11
0.75
21
0.57
0
LINE
8
BLACK
6
CONTINUOUS
10
0.13
20
0.955
11
0.07
21
0.955
0
LINE
8
BLACK
6
CONTINUOUS
10
0.07
20
0.955
11
0.07
21
1.015
0
LINE
8
BLACK
6
CONTINUOUS
10
0.07
20
1.015
11
0.13
21
1.015
0
LINE
8
BLACK
6
CONTINUOUS
10
0.13
20
1.015
11
0.13
21
0.955
0
LINE
8
BLACK
6
CONTINUOUS
10
0.65
20
1.035
11
0.59
21
1.035
0
LINE
8
BLACK
6
CONTINUOUS
10
0.59
20
1.035
11
0.59
21
1.095
0
LINE
8
BLACK
6
CONTINUOUS
10
0.59
20
1.095
11
0.65
21
1.095
0
LINE
8
BLACK
6
CONTINUOUS
10
0.65
20
1.095
11
0.65
21
1.035
0
LINE
8
BLACK
6
CONTINUOUS
10
0.75
20
1.035
11
0.69
21
1.035
0
LINE
8
BLACK
6
CONTINUOUS
10
0.69
20
1.035
11
0.69
21
1.095
0
LINE
8
BLACK
6
CONTINUOUS
10
0.69
20
1.095
11
0.75
21
1.095
0
LINE
8
BLACK
6
CONTINUOUS
10
0.75
20
1.095
11
0.75
21
1.035
0
LINE
8
BLACK
6
CONTINUOUS
10
0.22051
20
1.51632
11
0.233874
21
1.51315
0
LINE
8
BLACK
6
CONTINUOUS
10
0.233874
20
1.51315
11
0.246781
21
1.50845
0
LINE
8
BLACK
6
CONTINUOUS
10
0.246781
20
1.50845
11
0.259055
21
1.50229
0
LINE
8
BLACK
6
CONTINUOUS
10
0.259055
20
1.50229
11
0.270531
21
1.49474
0
LINE
8
BLACK
6
CONTINUOUS
10
0.270531
20
1.49474
11
0.281052
21
1.48591
0
LINE
8
BLACK
6
CONTINUOUS
10
0.281052
20
1.48591
11
0.290478
21
1.47592
0
LINE
8
BLACK
6
CONTINUOUS
10
0.290478
20
1.47592
11
0.29868
21
1.4649
0
LINE
8
BLACK
6
CONTINUOUS
10
0.29868
20
1.4649
11
0.305547
21
1.45301
0
LINE
8
BLACK
6
CONTINUOUS
10
0.305547
20
1.45301
11
0.310987
21
1.4404
0
LINE
8
BLACK
6
CONTINUOUS
10
0.310987
20
1.4404
11
0.314927
21
1.42724
0
LINE
8
BLACK
6
CONTINUOUS
10
0.314927
20
1.42724
11
0.317312
21
1.41371
0
LINE
8
BLACK
6
CONTINUOUS
10
0.317312
20
1.41371
11
0.31811
21
1.4
0
LINE
8
BLACK
6
CONTINUOUS
10
0.31811
20
1.4
11
0.317312
21
1.38629
0
LINE
8
BLACK
6
CONTINUOUS
10
0.317312
20
1.38629
11
0.314927
21
1.37276
0
LINE
8
BLACK
6
CONTINUOUS
10
0.314927
20
1.37276
11
0.310987
21
1.3596
0
LINE
8
BLACK
6
CONTINUOUS
10
0.310987
20
1.3596
11
0.305547
21
1.34699
0
LINE
8
BLACK
6
CONTINUOUS
10
0.305547
20
1.34699
11
0.29868
21
1.3351
0
LINE
8
BLACK
6
CONTINUOUS
10
0.29868
20
1.3351
11
0.290478
21
1.32408
0
LINE
8
BLACK
6
CONTINUOUS
10
0.290478
20
1.32408
11
0.281052
21
1.31409
0
LINE
8
BLACK
6
CONTINUOUS
10
0.281052
20
1.31409
11
0.270531
21
1.30526
0
LINE
8
BLACK
6
CONTINUOUS
10
0.270531
20
1.30526
11
0.259055
21
1.29771
0
LINE
8
BLACK
6
CONTINUOUS
10
0.259055
20
1.29771
11
0.246781
21
1.29155
0
LINE
8
BLACK
6
CONTINUOUS
10
0.246781
20
1.29155
11
0.233874
21
1.28685
0
LINE
8
BLACK
6
CONTINUOUS
10
0.233874
20
1.28685
11
0.22051
21
1.28368
0
LINE
8
BLACK
6
CONTINUOUS
10
0.22051
20
1.28368
11
0.206867
21
1.28209
0
LINE
8
BLACK
6
CONTINUOUS
10
0.206867
20
1.28209
11
0.193133
21
1.28209
0
LINE
8
BLACK
6
CONTINUOUS
10
0.193133
20
1.28209
11
0.17949
21
1.28368
0
LINE
8
BLACK
6
CONTINUOUS
10
0.17949
20
1.28368
11
0.166126
21
1.28685
0
LINE
8
BLACK
6
CONTINUOUS
10
0.166126
20
1.28685
11
0.153219
21
1.29155
0
LINE
8
BLACK
6
CONTINUOUS
10
0.153219
20
1.29155
11
0.140945
21
1.29771
0
LINE
8
BLACK
6
CONTINUOUS
10
0.140945
20
1.29771
11
0.129469
21
1.30526
0
LINE
8
BLACK
6
CONTINUOUS
10
0.129469
20
1.30526
11
0.118948
21
1.31409
0
LINE
8
BLACK
6
CONTINUOUS
10
0.118948
20
1.31409
11
0.109522
21
1.32408
0
LINE
8
BLACK
6
CONTINUOUS
10
0.109522
20
1.32408
11
0.10132
21
1.3351
0
LINE
8
BLACK
6
CONTINUOUS
10
0.10132
20
1.3351
11
0.0944528
21
1.34699
0
LINE
8
BLACK
6
CONTINUOUS
10
0.0944528
20
1.34699
11
0.0890127
21
1.3596
0
LINE
8
BLACK
6
CONTINUOUS
10
0.0890127
20
1.3596
11
0.0850734
21
1.37276
0
LINE
8
BLACK
6
CONTINUOUS
10
0.0850734
20
1.37276
11
0.0826884
21
1.38629
0
LINE
8
BLACK
6
CONTINUOUS
10
0.0826884
20
1.38629
11
0.0818898
21
1.4
0
LINE
8
BLACK
6
CONTINUOUS
10
0.0818898
20
1.4
11
0.0826884
21
1.41371
0
LINE
8
BLACK
6
CONTINUOUS
10
0.0826884
20
1.41371
11
0.0850734
21
1.42724
0
LINE
8
BLACK
6
CONTINUOUS
10
0.0850734
20
1.42724
11
0.0890127
21
1.4404
0
LINE
8
BLACK
6
CONTINUOUS
10
0.0890127
20
1.4404
11
0.0944528
21
1.45301
0
LINE
8
BLACK
6
CONTINUOUS
10
0.0944528
20
1.45301
11
0.10132
21
1.4649
0
LINE
8
BLACK
6
CONTINUOUS
10
0.10132
20
1.4649
11
0.109522
21
1.47592
0
LINE
8
BLACK
6
CONTINUOUS
10
0.109522
20
1.47592
11
0.118948
21
1.48591
0
LINE
8
BLACK
6
CONTINUOUS
10
0.118948
20
1.48591
11
0.129469
21
1.49474
0
LINE
8
BLACK
6
CONTINUOUS
10
0.129469
20
1.49474
11
0.140945
21
1.50229
0
LINE
8
BLACK
6
CONTINUOUS
10
0.140945
20
1.50229
11
0.153219
21
1.50845
0
LINE
8
BLACK
6
CONTINUOUS
10
0.153219
20
1.50845
11
0.166126
21
1.51315
0
LINE
8
BLACK
6
CONTINUOUS
10
0.166126
20
1.51315
11
0.17949
21
1.51632
0
LINE
8
BLACK
6
CONTINUOUS
10
0.17949
20
1.51632
11
0.193133
21
1.51791
0
LINE
8
BLACK
6
CONTINUOUS
10
0.193133
20
1.51791
11
0.206867
21
1.51791
0
LINE
8
BLACK
6
CONTINUOUS
10
0.206867
20
1.51791
11
0.22051
21
1.51632
0
LINE
8
BLACK
6
CONTINUOUS
10
0.62051
20
1.51632
11
0.633874
21
1.51315
0
LINE
8
BLACK
6
CONTINUOUS
10
0.633874
20
1.51315
11
0.646781
21
1.50845
0
LINE
8
BLACK
6
CONTINUOUS
10
0.646781
20
1.50845
11
0.659055
21
1.50229
0
LINE
8
BLACK
6
CONTINUOUS
10
0.659055
20
1.50229
11
0.670531
21
1.49474
0
LINE
8
BLACK
6
CONTINUOUS
10
0.670531
20
1.49474
11
0.681052
21
1.48591
0
LINE
8
BLACK
6
CONTINUOUS
10
0.681052
20
1.48591
11
0.690478
21
1.47592
0
LINE
8
BLACK
6
CONTINUOUS
10
0.690478
20
1.47592
11
0.69868
21
1.4649
0
LINE
8
BLACK
6
CONTINUOUS
10
0.69868
20
1.4649
11
0.705547
21
1.45301
0
LINE
8
BLACK
6
CONTINUOUS
10
0.705547
20
1.45301
11
0.710987
21
1.4404
0
LINE
8
BLACK
6
CONTINUOUS
10
0.710987
20
1.4404
11
0.714927
21
1.42724
0
LINE
8
BLACK
6
CONTINUOUS
10
0.714927
20
1.42724
11
0.717312
21
1.41371
0
LINE
8
BLACK
6
CONTINUOUS
10
0.717312
20
1.41371
11
0.71811
21
1.4
0
LINE
8
BLACK
6
CONTINUOUS
10
0.71811
20
1.4
11
0.717312
21
1.38629
0
LINE
8
BLACK
6
CONTINUOUS
10
0.717312
20
1.38629
11
0.714927
21
1.37276
0
LINE
8
BLACK
6
CONTINUOUS
10
0.714927
20
1.37276
11
0.710987
21
1.3596
0
LINE
8
BLACK
6
CONTINUOUS
10
0.710987
20
1.3596
11
0.705547
21
1.34699
0
LINE
8
BLACK
6
CONTINUOUS
10
0.705547
20
1.34699
11
0.69868
21
1.3351
0
LINE
8
BLACK
6
CONTINUOUS
10
0.69868
20
1.3351
11
0.690478
21
1.32408
0
LINE
8
BLACK
6
CONTINUOUS
10
0.690478
20
1.32408
11
0.681052
21
1.31409
0
LINE
8
BLACK
6
CONTINUOUS
10
0.681052
20
1.31409
11
0.670531
21
1.30526
0
LINE
8
BLACK
6
CONTINUOUS
10
0.670531
20
1.30526
11
0.659055
21
1.29771
0
LINE
8
BLACK
6
CONTINUOUS
10
0.659055
20
1.29771
11
0.646781
21
1.29155
0
LINE
8
BLACK
6
CONTINUOUS
10
0.646781
20
1.29155
11
0.633874
21
1.28685
0
LINE
8
BLACK
6
CONTINUOUS
10
0.633874
20
1.28685
11
0.62051
21
1.28368
0
LINE
8
BLACK
6
CONTINUOUS
10
0.62051
20
1.28368
11
0.606867
21
1.28209
0
LINE
8
BLACK
6
CONTINUOUS
10
0.606867
20
1.28209
11
0.593133
21
1.28209
0
LINE
8
BLACK
6
CONTINUOUS
10
0.593133
20
1.28209
11
0.57949
21
1.28368
0
LINE
8
BLACK
6
CONTINUOUS
10
0.57949
20
1.28368
11
0.566126
21
1.28685
0
LINE
8
BLACK
6
CONTINUOUS
10
0.566126
20
1.28685
11
0.553219
21
1.29155
0
LINE
8
BLACK
6
CONTINUOUS
10
0.553219
20
1.29155
11
0.540945
21
1.29771
0
LINE
8
BLACK
6
CONTINUOUS
10
0.540945
20
1.29771
11
0.529469
21
1.30526
0
LINE
8
BLACK
6
CONTINUOUS
10
0.529469
20
1.30526
11
0.518948
21
1.31409
0
LINE
8
BLACK
6
CONTINUOUS
10
0.518948
20
1.31409
11
0.509522
21
1.32408
0
LINE
8
BLACK
6
CONTINUOUS
10
0.509522
20
1.32408
11
0.50132
21
1.3351
0
LINE
8
BLACK
6
CONTINUOUS
10
0.50132
20
1.3351
11
0.494453
21
1.34699
0
LINE
8
BLACK
6
CONTINUOUS
10
0.494453
20
1.34699
11
0.489013
21
1.3596
0
LINE
8
BLACK
6
CONTINUOUS
10
0.489013
20
1.3596
11
0.485073
21
1.37276
0
LINE
8
BLACK
6
CONTINUOUS
10
0.485073
20
1.37276
11
0.482688
21
1.38629
0
LINE
8
BLACK
6
CONTINUOUS
10
0.482688
20
1.38629
11
0.48189
21
1.4
0
LINE
8
BLACK
6
CONTINUOUS
10
0.48189
20
1.4
11
0.482688
21
1.41371
0
LINE
8
BLACK
6
CONTINUOUS
10
0.482688
20
1.41371
11
0.485073
21
1.42724
0
LINE
8
BLACK
6
CONTINUOUS
10
0.485073
20
1.42724
11
0.489013
21
1.4404
0
LINE
8
BLACK
6
CONTINUOUS
10
0.489013
20
1.4404
11
0.494453
21
1.45301
0
LINE
8
BLACK
6
CONTINUOUS
10
0.494453
20
1.45301
11
0.50132
21
1.4649
0
LINE
8
BLACK
6
CONTINUOUS
10
0.50132
20
1.4649
11
0.509522
21
1.47592
0
LINE
8
BLACK
6
CONTINUOUS
10
0.509522
20
1.47592
11
0.518948
21
1.48591
0
LINE
8
BLACK
6
CONTINUOUS
10
0.518948
20
1.48591
11
0.529469
21
1.49474
0
LINE
8
BLACK
6
CONTINUOUS
10
0.529469
20
1.49474
11
0.540945
21
1.50229
0
LINE
8
BLACK
6
CONTINUOUS
10
0.540945
20
1.50229
11
0.553219
21
1.50845
0
LINE
8
BLACK
6
CONTINUOUS
10
0.553219
20
1.50845
11
0.566126
21
1.51315
0
LINE
8
BLACK
6
CONTINUOUS
10
0.566126
20
1.51315
11
0.57949
21
1.51632
0
LINE
8
BLACK
6
CONTINUOUS
10
0.57949
20
1.51632
11
0.593133
21
1.51791
0
LINE
8
BLACK
6
CONTINUOUS
10
0.593133
20
1.51791
11
0.606867
21
1.51791
0
LINE
8
BLACK
6
CONTINUOUS
10
0.606867
20
1.51791
11
0.62051
21
1.51632
0
LINE
8
BLACK
6
CONTINUOUS
10
0.784749
20
1.58624
11
0.786579
21
1.58413
0
LINE
8
BLACK
6
CONTINUOUS
10
0.786579
20
1.58413
11
0.787028
21
1.58207
0
LINE
8
BLACK
6
CONTINUOUS
10
0.787028
20
1.58207
11
0.787028
21
0.0179331
0
LINE
8
BLACK
6
CONTINUOUS
10
0.787028
20
0.0179331
11
0.78624
21
0.0152511
0
LINE
8
BLACK
6
CONTINUOUS
10
0.78624
20
0.0152511
11
0.784128
21
0.0134207
0
LINE
8
BLACK
6
CONTINUOUS
10
0.784128
20
0.0134207
11
0.782067
21
0.0129724
0
LINE
8
BLACK
6
CONTINUOUS
10
0.782067
20
0.0129724
11
0.0179331
21
0.0129724
0
LINE
8
BLACK
6
CONTINUOUS
10
0.0179331
20
0.0129724
11
0.0152511
21
0.0137599
0
LINE
8
BLACK
6
CONTINUOUS
10
0.0152511
20
0.0137599
11
0.0134207
21
0.0158724
0
LINE
8
BLACK
6
CONTINUOUS
10
0.0134207
20
0.0158724
11
0.0129724
21
0.0179331
0
LINE
8
BLACK
6
CONTINUOUS
10
0.0129724
20
0.0179331
11
0.0129724
21
0.2
0
LINE
8
BLACK
6
CONTINUOUS
10
0.0129724
20
0.2
11
0.0129724
21
0.468234
0
LINE
8
BLACK
6
CONTINUOUS
10
0.0129724
20
0.468234
11
0.0129724
21
0.568234
0
LINE
8
BLACK
6
CONTINUOUS
10
0.0129724
20
0.568234
11
0.0129724
21
0.953234
0
LINE
8
BLACK
6
CONTINUOUS
10
0.0129724
20
0.953234
11
0.0129724
21
1.03323
0
LINE
8
BLACK
6
CONTINUOUS
10
0.0129724
20
1.03323
11
0.0129724
21
1.4
0
LINE
8
BLACK
6
CONTINUOUS
10
0.0129724
20
1.4
11
0.0129724
21
1.58207
0
LINE
8
BLACK
6
CONTINUOUS
10
0.0129724
20
1.58207
11
0.0137599
21
1.58475
0
LINE
8
BLACK
6
CONTINUOUS
10
0.0137599
20
1.58475
11
0.0158724
21
1.58658
0
LINE
8
BLACK
6
CONTINUOUS
10
0.0158724
20
1.58658
11
0.0179331
21
1.58703
0
LINE
8
BLACK
6
CONTINUOUS
10
0.0179331
20
1.58703
11
0.782067
21
1.58703
0
LINE
8
BLACK
6
CONTINUOUS
10
0.782067
20
1.58703
11
0.784749
21
1.58624
0
LINE
8
BLACK
6
CONTINUOUS
10
0.0430694
20
0.184544
11
0.0430694
21
0.184543
0
LINE
8
BLACK
6
CONTINUOUS
10
0.0430694
20
0.184543
11
0.04534
21
0.169236
0
LINE
8
BLACK
6
CONTINUOUS
10
0.04534
20
0.169236
11
0.04534
21
0.169236
0
LINE
8
BLACK
6
CONTINUOUS
10
0.04534
20
0.169236
11
0.04722
21
0.161731
0
LINE
8
BLACK
6
CONTINUOUS
10
0.04722
20
0.161731
11
0.0491002
21
0.154225
0
LINE
8
BLACK
6
CONTINUOUS
10
0.0491002
20
0.154225
11
0.0543134
21
0.139655
0
LINE
8
BLACK
6
CONTINUOUS
10
0.0543134
20
0.139655
11
0.06093
21
0.125665
0
LINE
8
BLACK
6
CONTINUOUS
10
0.06093
20
0.125665
11
0.0688857
21
0.112392
0
LINE
8
BLACK
6
CONTINUOUS
10
0.0688857
20
0.112392
11
0.0781037
21
0.0999629
0
LINE
8
BLACK
6
CONTINUOUS
10
0.0781037
20
0.0999629
11
0.0884964
21
0.0884964
0
LINE
8
BLACK
6
CONTINUOUS
10
0.0884964
20
0.0884964
11
0.0999629
21
0.0781037
0
LINE
8
BLACK
6
CONTINUOUS
10
0.0999629
20
0.0781037
11
0.112392
21
0.0688857
0
LINE
8
BLACK
6
CONTINUOUS
10
0.112392
20
0.0688857
11
0.125665
21
0.06093
0
LINE
8
BLACK
6
CONTINUOUS
10
0.125665
20
0.06093
11
0.139655
21
0.0543134
0
LINE
8
BLACK
6
CONTINUOUS
10
0.139655
20
0.0543134
11
0.154225
21
0.0491002
0
LINE
8
BLACK
6
CONTINUOUS
10
0.154225
20
0.0491002
11
0.161731
21
0.04722
0
LINE
8
BLACK
6
CONTINUOUS
10
0.161731
20
0.04722
11
0.169236
21
0.04534
0
LINE
8
BLACK
6
CONTINUOUS
10
0.169236
20
0.04534
11
0.169236
21
0.04534
0
LINE
8
BLACK
6
CONTINUOUS
10
0.169236
20
0.04534
11
0.169236
21
0.04534
0
LINE
8
BLACK
6
CONTINUOUS
10
0.169236
20
0.04534
11
0.184543
21
0.0430694
0
LINE
8
BLACK
6
CONTINUOUS
10
0.184543
20
0.0430694
11
0.184544
21
0.0430694
0
LINE
8
BLACK
6
CONTINUOUS
10
0.184544
20
0.0430694
11
0.184544
21
0.0430694
0
LINE
8
BLACK
6
CONTINUOUS
10
0.184544
20
0.0430694
11
0.191168
21
0.0427439
0
LINE
8
BLACK
6
CONTINUOUS
10
0.191168
20
0.0427439
11
0.2
21
0.04231
0
LINE
8
BLACK
6
CONTINUOUS
10
0.2
20
0.04231
11
0.2
21
0.04231
0
LINE
8
BLACK
6
CONTINUOUS
10
0.2
20
0.04231
11
0.2
21
0.04231
0
LINE
8
BLACK
6
CONTINUOUS
10
0.2
20
0.04231
11
0.207728
21
0.0426897
0
LINE
8
BLACK
6
CONTINUOUS
10
0.207728
20
0.0426897
11
0.215456
21
0.0430694
0
LINE
8
BLACK
6
CONTINUOUS
10
0.215456
20
0.0430694
11
0.215456
21
0.0430694
0
LINE
8
BLACK
6
CONTINUOUS
10
0.215456
20
0.0430694
11
0.215457
21
0.0430694
0
LINE
8
BLACK
6
CONTINUOUS
10
0.215457
20
0.0430694
11
0.230764
21
0.04534
0
LINE
8
BLACK
6
CONTINUOUS
10
0.230764
20
0.04534
11
0.230764
21
0.04534
0
LINE
8
BLACK
6
CONTINUOUS
10
0.230764
20
0.04534
11
0.242008
21
0.0481565
0
LINE
8
BLACK
6
CONTINUOUS
10
0.242008
20
0.0481565
11
0.245775
21
0.0491002
0
LINE
8
BLACK
6
CONTINUOUS
10
0.245775
20
0.0491002
11
0.260345
21
0.0543134
0
LINE
8
BLACK
6
CONTINUOUS
10
0.260345
20
0.0543134
11
0.260345
21
0.0543135
0
LINE
8
BLACK
6
CONTINUOUS
10
0.260345
20
0.0543135
11
0.274335
21
0.0609299
0
LINE
8
BLACK
6
CONTINUOUS
10
0.274335
20
0.0609299
11
0.278805
21
0.0636094
0
LINE
8
BLACK
6
CONTINUOUS
10
0.278805
20
0.0636094
11
0.287608
21
0.0688857
0
LINE
8
BLACK
6
CONTINUOUS
10
0.287608
20
0.0688857
11
0.300037
21
0.0781037
0
LINE
8
BLACK
6
CONTINUOUS
10
0.300037
20
0.0781037
11
0.300037
21
0.078104
0
LINE
8
BLACK
6
CONTINUOUS
10
0.300037
20
0.078104
11
0.311504
21
0.0884964
0
LINE
8
BLACK
6
CONTINUOUS
10
0.311504
20
0.0884964
11
0.321896
21
0.0999626
0
LINE
8
BLACK
6
CONTINUOUS
10
0.321896
20
0.0999626
11
0.321896
21
0.0999626
0
LINE
8
BLACK
6
CONTINUOUS
10
0.321896
20
0.0999626
11
0.321896
21
0.0999629
0
LINE
8
BLACK
6
CONTINUOUS
10
0.321896
20
0.0999629
11
0.331114
21
0.112392
0
LINE
8
BLACK
6
CONTINUOUS
10
0.331114
20
0.112392
11
0.331114
21
0.112392
0
LINE
8
BLACK
6
CONTINUOUS
10
0.331114
20
0.112392
11
0.33907
21
0.125665
0
LINE
8
BLACK
6
CONTINUOUS
10
0.33907
20
0.125665
11
0.345687
21
0.139655
0
LINE
8
BLACK
6
CONTINUOUS
10
0.345687
20
0.139655
11
0.3509
21
0.154225
0
LINE
8
BLACK
6
CONTINUOUS
10
0.3509
20
0.154225
11
0.35466
21
0.169236
0
LINE
8
BLACK
6
CONTINUOUS
10
0.35466
20
0.169236
11
0.356931
21
0.184544
0
LINE
8
BLACK
6
CONTINUOUS
10
0.356931
20
0.184544
11
0.35769
21
0.2
0
LINE
8
BLACK
6
CONTINUOUS
10
0.35769
20
0.2
11
0.35769
21
0.2
0
LINE
8
BLACK
6
CONTINUOUS
10
0.35769
20
0.2
11
0.356931
21
0.215456
0
LINE
8
BLACK
6
CONTINUOUS
10
0.356931
20
0.215456
11
0.35466
21
0.230764
0
LINE
8
BLACK
6
CONTINUOUS
10
0.35466
20
0.230764
11
0.3509
21
0.245775
0
LINE
8
BLACK
6
CONTINUOUS
10
0.3509
20
0.245775
11
0.345687
21
0.260345
0
LINE
8
BLACK
6
CONTINUOUS
10
0.345687
20
0.260345
11
0.33907
21
0.274335
0
LINE
8
BLACK
6
CONTINUOUS
10
0.33907
20
0.274335
11
0.331114
21
0.287608
0
LINE
8
BLACK
6
CONTINUOUS
10
0.331114
20
0.287608
11
0.321896
21
0.300037
0
LINE
8
BLACK
6
CONTINUOUS
10
0.321896
20
0.300037
11
0.311504
21
0.311504
0
LINE
8
BLACK
6
CONTINUOUS
10
0.311504
20
0.311504
11
0.300037
21
0.321896
0
LINE
8
BLACK
6
CONTINUOUS
10
0.300037
20
0.321896
11
0.287608
21
0.331114
0
LINE
8
BLACK
6
CONTINUOUS
10
0.287608
20
0.331114
11
0.274335
21
0.33907
0
LINE
8
BLACK
6
CONTINUOUS
10
0.274335
20
0.33907
11
0.260345
21
0.345687
0
LINE
8
BLACK
6
CONTINUOUS
10
0.260345
20
0.345687
11
0.245775
21
0.3509
0
LINE
8
BLACK
6
CONTINUOUS
10
0.245775
20
0.3509
11
0.230764
21
0.35466
0
LINE
8
BLACK
6
CONTINUOUS
10
0.230764
20
0.35466
11
0.215456
21
0.356931
0
LINE
8
BLACK
6
CONTINUOUS
10
0.215456
20
0.356931
11
0.20218
21
0.357583
0
LINE
8
BLACK
6
CONTINUOUS
10
0.20218
20
0.357583
11
0.2
21
0.35769
0
LINE
8
BLACK
6
CONTINUOUS
10
0.2
20
0.35769
11
0.2
21
0.35769
0
LINE
8
BLACK
6
CONTINUOUS
10
0.2
20
0.35769
11
0.19774
21
0.357579
0
LINE
8
BLACK
6
CONTINUOUS
10
0.19774
20
0.357579
11
0.184544
21
0.356931
0
LINE
8
BLACK
6
CONTINUOUS
10
0.184544
20
0.356931
11
0.169236
21
0.35466
0
LINE
8
BLACK
6
CONTINUOUS
10
0.169236
20
0.35466
11
0.154225
21
0.3509
0
LINE
8
BLACK
6
CONTINUOUS
10
0.154225
20
0.3509
11
0.139655
21
0.345687
0
LINE
8
BLACK
6
CONTINUOUS
10
0.139655
20
0.345687
11
0.125665
21
0.33907
0
LINE
8
BLACK
6
CONTINUOUS
10
0.125665
20
0.33907
11
0.112392
21
0.331114
0
LINE
8
BLACK
6
CONTINUOUS
10
0.112392
20
0.331114
11
0.112392
21
0.331114
0
LINE
8
BLACK
6
CONTINUOUS
10
0.112392
20
0.331114
11
0.0999629
21
0.321896
0
LINE
8
BLACK
6
CONTINUOUS
10
0.0999629
20
0.321896
11
0.0999626
21
0.321896
0
LINE
8
BLACK
6
CONTINUOUS
10
0.0999626
20
0.321896
11
0.0999626
21
0.321896
0
LINE
8
BLACK
6
CONTINUOUS
10
0.0999626
20
0.321896
11
0.0884964
21
0.311504
0
LINE
8
BLACK
6
CONTINUOUS
10
0.0884964
20
0.311504
11
0.078104
21
0.300037
0
LINE
8
BLACK
6
CONTINUOUS
10
0.078104
20
0.300037
11
0.0781037
21
0.300037
0
LINE
8
BLACK
6
CONTINUOUS
10
0.0781037
20
0.300037
11
0.0688857
21
0.287608
0
LINE
8
BLACK
6
CONTINUOUS
10
0.0688857
20
0.287608
11
0.0688856
21
0.287608
0
LINE
8
BLACK
6
CONTINUOUS
10
0.0688856
20
0.287608
11
0.0609299
21
0.274335
0
LINE
8
BLACK
6
CONTINUOUS
10
0.0609299
20
0.274335
11
0.0543135
21
0.260345
0
LINE
8
BLACK
6
CONTINUOUS
10
0.0543135
20
0.260345
11
0.0543134
21
0.260345
0
LINE
8
BLACK
6
CONTINUOUS
10
0.0543134
20
0.260345
11
0.0491002
21
0.245775
0
LINE
8
BLACK
6
CONTINUOUS
10
0.0491002
20
0.245775
11
0.0491001
21
0.245775
0
LINE
8
BLACK
6
CONTINUOUS
10
0.0491001
20
0.245775
11
0.04534
21
0.230764
0
LINE
8
BLACK
6
CONTINUOUS
10
0.04534
20
0.230764
11
0.04534
21
0.230764
0
LINE
8
BLACK
6
CONTINUOUS
10
0.04534
20
0.230764
11
0.0430694
21
0.215457
0
LINE
8
BLACK
6
CONTINUOUS
10
0.0430694
20
0.215457
11
0.0430694
21
0.215456
0
LINE
8
BLACK
6
CONTINUOUS
10
0.0430694
20
0.215456
11
0.04231
21
0.2
0
LINE
8
BLACK
6
CONTINUOUS
10
0.04231
20
0.2
11
0.04231
21
0.2
0
LINE
8
BLACK
6
CONTINUOUS
10
0.04231
20
0.2
11
0.0430694
21
0.184544
0
LINE
8
BLACK
6
CONTINUOUS
10
0.443069
20
0.184544
11
0.443069
21
0.184543
0
LINE
8
BLACK
6
CONTINUOUS
10
0.443069
20
0.184543
11
0.44534
21
0.169236
0
LINE
8
BLACK
6
CONTINUOUS
10
0.44534
20
0.169236
11
0.44534
21
0.169236
0
LINE
8
BLACK
6
CONTINUOUS
10
0.44534
20
0.169236
11
0.44722
21
0.161731
0
LINE
8
BLACK
6
CONTINUOUS
10
0.44722
20
0.161731
11
0.4491
21
0.154225
0
LINE
8
BLACK
6
CONTINUOUS
10
0.4491
20
0.154225
11
0.454313
21
0.139655
0
LINE
8
BLACK
6
CONTINUOUS
10
0.454313
20
0.139655
11
0.46093
21
0.125665
0
LINE
8
BLACK
6
CONTINUOUS
10
0.46093
20
0.125665
11
0.468886
21
0.112392
0
LINE
8
BLACK
6
CONTINUOUS
10
0.468886
20
0.112392
11
0.478104
21
0.0999629
0
LINE
8
BLACK
6
CONTINUOUS
10
0.478104
20
0.0999629
11
0.488496
21
0.0884964
0
LINE
8
BLACK
6
CONTINUOUS
10
0.488496
20
0.0884964
11
0.499963
21
0.0781037
0
LINE
8
BLACK
6
CONTINUOUS
10
0.499963
20
0.0781037
11
0.512392
21
0.0688857
0
LINE
8
BLACK
6
CONTINUOUS
10
0.512392
20
0.0688857
11
0.525665
21
0.06093
0
LINE
8
BLACK
6
CONTINUOUS
10
0.525665
20
0.06093
11
0.539655
21
0.0543134
0
LINE
8
BLACK
6
CONTINUOUS
10
0.539655
20
0.0543134
11
0.554225
21
0.0491002
0
LINE
8
BLACK
6
CONTINUOUS
10
0.554225
20
0.0491002
11
0.561731
21
0.04722
0
LINE
8
BLACK
6
CONTINUOUS
10
0.561731
20
0.04722
11
0.569236
21
0.04534
0
LINE
8
BLACK
6
CONTINUOUS
10
0.569236
20
0.04534
11
0.569236
21
0.04534
0
LINE
8
BLACK
6
CONTINUOUS
10
0.569236
20
0.04534
11
0.569236
21
0.04534
0
LINE
8
BLACK
6
CONTINUOUS
10
0.569236
20
0.04534
11
0.584543
21
0.0430694
0
LINE
8
BLACK
6
CONTINUOUS
10
0.584543
20
0.0430694
11
0.584544
21
0.0430694
0
LINE
8
BLACK
6
CONTINUOUS
10
0.584544
20
0.0430694
11
0.584544
21
0.0430694
0
LINE
8
BLACK
6
CONTINUOUS
10
0.584544
20
0.0430694
11
0.591168
21
0.0427439
0
LINE
8
BLACK
6
CONTINUOUS
10
0.591168
20
0.0427439
11
0.6
21
0.04231
0
LINE
8
BLACK
6
CONTINUOUS
10
0.6
20
0.04231
11
0.6
21
0.04231
0
LINE
8
BLACK
6
CONTINUOUS
10
0.6
20
0.04231
11
0.6
21
0.04231
0
LINE
8
BLACK
6
CONTINUOUS
10
0.6
20
0.04231
11
0.607728
21
0.0426897
0
LINE
8
BLACK
6
CONTINUOUS
10
0.607728
20
0.0426897
11
0.615456
21
0.0430694
0
LINE
8
BLACK
6
CONTINUOUS
10
0.615456
20
0.0430694
11
0.615456
21
0.0430694
0
LINE
8
BLACK
6
CONTINUOUS
10
0.615456
20
0.0430694
11
0.615457
21
0.0430694
0
LINE
8
BLACK
6
CONTINUOUS
10
0.615457
20
0.0430694
11
0.630764
21
0.04534
0
LINE
8
BLACK
6
CONTINUOUS
10
0.630764
20
0.04534
11
0.630764
21
0.04534
0
LINE
8
BLACK
6
CONTINUOUS
10
0.630764
20
0.04534
11
0.642008
21
0.0481565
0
LINE
8
BLACK
6
CONTINUOUS
10
0.642008
20
0.0481565
11
0.645775
21
0.0491002
0
LINE
8
BLACK
6
CONTINUOUS
10
0.645775
20
0.0491002
11
0.660345
21
0.0543134
0
LINE
8
BLACK
6
CONTINUOUS
10
0.660345
20
0.0543134
11
0.660345
21
0.0543135
0
LINE
8
BLACK
6
CONTINUOUS
10
0.660345
20
0.0543135
11
0.674335
21
0.0609299
0
LINE
8
BLACK
6
CONTINUOUS
10
0.674335
20
0.0609299
11
0.678805
21
0.0636094
0
LINE
8
BLACK
6
CONTINUOUS
10
0.678805
20
0.0636094
11
0.687608
21
0.0688857
0
LINE
8
BLACK
6
CONTINUOUS
10
0.687608
20
0.0688857
11
0.700037
21
0.0781037
0
LINE
8
BLACK
6
CONTINUOUS
10
0.700037
20
0.0781037
11
0.700037
21
0.078104
0
LINE
8
BLACK
6
CONTINUOUS
10
0.700037
20
0.078104
11
0.711504
21
0.0884964
0
LINE
8
BLACK
6
CONTINUOUS
10
0.711504
20
0.0884964
11
0.721896
21
0.0999626
0
LINE
8
BLACK
6
CONTINUOUS
10
0.721896
20
0.0999626
11
0.721896
21
0.0999626
0
LINE
8
BLACK
6
CONTINUOUS
10
0.721896
20
0.0999626
11
0.721896
21
0.0999629
0
LINE
8
BLACK
6
CONTINUOUS
10
0.721896
20
0.0999629
11
0.731114
21
0.112392
0
LINE
8
BLACK
6
CONTINUOUS
10
0.731114
20
0.112392
11
0.731114
21
0.112392
0
LINE
8
BLACK
6
CONTINUOUS
10
0.731114
20
0.112392
11
0.73907
21
0.125665
0
LINE
8
BLACK
6
CONTINUOUS
10
0.73907
20
0.125665
11
0.745687
21
0.139655
0
LINE
8
BLACK
6
CONTINUOUS
10
0.745687
20
0.139655
11
0.7509
21
0.154225
0
LINE
8
BLACK
6
CONTINUOUS
10
0.7509
20
0.154225
11
0.75466
21
0.169236
0
LINE
8
BLACK
6
CONTINUOUS
10
0.75466
20
0.169236
11
0.756931
21
0.184544
0
LINE
8
BLACK
6
CONTINUOUS
10
0.756931
20
0.184544
11
0.75769
21
0.2
0
LINE
8
BLACK
6
CONTINUOUS
10
0.75769
20
0.2
11
0.756931
21
0.215456
0
LINE
8
BLACK
6
CONTINUOUS
10
0.756931
20
0.215456
11
0.75466
21
0.230764
0
LINE
8
BLACK
6
CONTINUOUS
10
0.75466
20
0.230764
11
0.7509
21
0.245775
0
LINE
8
BLACK
6
CONTINUOUS
10
0.7509
20
0.245775
11
0.745687
21
0.260345
0
LINE
8
BLACK
6
CONTINUOUS
10
0.745687
20
0.260345
11
0.73907
21
0.274335
0
LINE
8
BLACK
6
CONTINUOUS
10
0.73907
20
0.274335
11
0.731114
21
0.287608
0
LINE
8
BLACK
6
CONTINUOUS
10
0.731114
20
0.287608
11
0.721896
21
0.300037
0
LINE
8
BLACK
6
CONTINUOUS
10
0.721896
20
0.300037
11
0.711504
21
0.311504
0
LINE
8
BLACK
6
CONTINUOUS
10
0.711504
20
0.311504
11
0.700037
21
0.321896
0
LINE
8
BLACK
6
CONTINUOUS
10
0.700037
20
0.321896
11
0.687608
21
0.331114
0
LINE
8
BLACK
6
CONTINUOUS
10
0.687608
20
0.331114
11
0.674335
21
0.33907
0
LINE
8
BLACK
6
CONTINUOUS
10
0.674335
20
0.33907
11
0.660345
21
0.345687
0
LINE
8
BLACK
6
CONTINUOUS
10
0.660345
20
0.345687
11
0.645775
21
0.3509
0
LINE
8
BLACK
6
CONTINUOUS
10
0.645775
20
0.3509
11
0.630764
21
0.35466
0
LINE
8
BLACK
6
CONTINUOUS
10
0.630764
20
0.35466
11
0.615456
21
0.356931
0
LINE
8
BLACK
6
CONTINUOUS
10
0.615456
20
0.356931
11
0.60218
21
0.357583
0
LINE
8
BLACK
6
CONTINUOUS
10
0.60218
20
0.357583
11
0.6
21
0.35769
0
LINE
8
BLACK
6
CONTINUOUS
10
0.6
20
0.35769
11
0.6
21
0.35769
0
LINE
8
BLACK
6
CONTINUOUS
10
0.6
20
0.35769
11
0.59774
21
0.357579
0
LINE
8
BLACK
6
CONTINUOUS
10
0.59774
20
0.357579
11
0.584544
21
0.356931
0
LINE
8
BLACK
6
CONTINUOUS
10
0.584544
20
0.356931
11
0.569236
21
0.35466
0
LINE
8
BLACK
6
CONTINUOUS
10
0.569236
20
0.35466
11
0.554225
21
0.3509
0
LINE
8
BLACK
6
CONTINUOUS
10
0.554225
20
0.3509
11
0.539655
21
0.345687
0
LINE
8
BLACK
6
CONTINUOUS
10
0.539655
20
0.345687
11
0.525665
21
0.33907
0
LINE
8
BLACK
6
CONTINUOUS
10
0.525665
20
0.33907
11
0.512392
21
0.331114
0
LINE
8
BLACK
6
CONTINUOUS
10
0.512392
20
0.331114
11
0.512392
21
0.331114
0
LINE
8
BLACK
6
CONTINUOUS
10
0.512392
20
0.331114
11
0.499963
21
0.321896
0
LINE
8
BLACK
6
CONTINUOUS
10
0.499963
20
0.321896
11
0.499963
21
0.321896
0
LINE
8
BLACK
6
CONTINUOUS
10
0.499963
20
0.321896
11
0.499963
21
0.321896
0
LINE
8
BLACK
6
CONTINUOUS
10
0.499963
20
0.321896
11
0.488496
21
0.311504
0
LINE
8
BLACK
6
CONTINUOUS
10
0.488496
20
0.311504
11
0.478104
21
0.300037
0
LINE
8
BLACK
6
CONTINUOUS
10
0.478104
20
0.300037
11
0.478104
21
0.300037
0
LINE
8
BLACK
6
CONTINUOUS
10
0.478104
20
0.300037
11
0.468886
21
0.287608
0
LINE
8
BLACK
6
CONTINUOUS
10
0.468886
20
0.287608
11
0.468886
21
0.287608
0
LINE
8
BLACK
6
CONTINUOUS
10
0.468886
20
0.287608
11
0.46093
21
0.274335
0
LINE
8
BLACK
6
CONTINUOUS
10
0.46093
20
0.274335
11
0.454313
21
0.260345
0
LINE
8
BLACK
6
CONTINUOUS
10
0.454313
20
0.260345
11
0.454313
21
0.260345
0
LINE
8
BLACK
6
CONTINUOUS
10
0.454313
20
0.260345
11
0.4491
21
0.245775
0
LINE
8
BLACK
6
CONTINUOUS
10
0.4491
20
0.245775
11
0.4491
21
0.245775
0
LINE
8
BLACK
6
CONTINUOUS
10
0.4491
20
0.245775
11
0.44534
21
0.230764
0
LINE
8
BLACK
6
CONTINUOUS
10
0.44534
20
0.230764
11
0.44534
21
0.230764
0
LINE
8
BLACK
6
CONTINUOUS
10
0.44534
20
0.230764
11
0.443069
21
0.215457
0
LINE
8
BLACK
6
CONTINUOUS
10
0.443069
20
0.215457
11
0.443069
21
0.215456
0
LINE
8
BLACK
6
CONTINUOUS
10
0.443069
20
0.215456
11
0.44231
21
0.2
0
LINE
8
BLACK
6
CONTINUOUS
10
0.44231
20
0.2
11
0.44231
21
0.2
0
LINE
8
BLACK
6
CONTINUOUS
10
0.44231
20
0.2
11
0.443069
21
0.184544
0
LINE
8
BLACK
6
CONTINUOUS
10
0.578169
20
0.468234
11
0.578284
21
0.467244
0
LINE
8
BLACK
6
CONTINUOUS
10
0.578284
20
0.467244
11
0.578284
21
0.467244
0
LINE
8
BLACK
6
CONTINUOUS
10
0.578284
20
0.467244
11
0.580071
21
0.463198
0
LINE
8
BLACK
6
CONTINUOUS
10
0.580071
20
0.463198
11
0.583198
21
0.460071
0
LINE
8
BLACK
6
CONTINUOUS
10
0.583198
20
0.460071
11
0.583198
21
0.460071
0
LINE
8
BLACK
6
CONTINUOUS
10
0.583198
20
0.460071
11
0.587244
21
0.458284
0
LINE
8
BLACK
6
CONTINUOUS
10
0.587244
20
0.458284
11
0.587244
21
0.458284
0
LINE
8
BLACK
6
CONTINUOUS
10
0.587244
20
0.458284
11
0.588234
21
0.458169
0
LINE
8
BLACK
6
CONTINUOUS
10
0.588234
20
0.458169
11
0.588234
21
0.458169
0
LINE
8
BLACK
6
CONTINUOUS
10
0.588234
20
0.458169
11
0.651766
21
0.458169
0
LINE
8
BLACK
6
CONTINUOUS
10
0.651766
20
0.458169
11
0.651766
21
0.458169
0
LINE
8
BLACK
6
CONTINUOUS
10
0.651766
20
0.458169
11
0.652756
21
0.458284
0
LINE
8
BLACK
6
CONTINUOUS
10
0.652756
20
0.458284
11
0.652756
21
0.458284
0
LINE
8
BLACK
6
CONTINUOUS
10
0.652756
20
0.458284
11
0.656802
21
0.460071
0
LINE
8
BLACK
6
CONTINUOUS
10
0.656802
20
0.460071
11
0.659929
21
0.463198
0
LINE
8
BLACK
6
CONTINUOUS
10
0.659929
20
0.463198
11
0.659929
21
0.463198
0
LINE
8
BLACK
6
CONTINUOUS
10
0.659929
20
0.463198
11
0.659929
21
0.463198
0
LINE
8
BLACK
6
CONTINUOUS
10
0.659929
20
0.463198
11
0.661716
21
0.467244
0
LINE
8
BLACK
6
CONTINUOUS
10
0.661716
20
0.467244
11
0.661831
21
0.468234
0
LINE
8
BLACK
6
CONTINUOUS
10
0.661831
20
0.468234
11
0.661831
21
0.468234
0
LINE
8
BLACK
6
CONTINUOUS
10
0.661831
20
0.468234
11
0.661831
21
0.531766
0
LINE
8
BLACK
6
CONTINUOUS
10
0.661831
20
0.531766
11
0.661716
21
0.532756
0
LINE
8
BLACK
6
CONTINUOUS
10
0.661716
20
0.532756
11
0.659929
21
0.536802
0
LINE
8
BLACK
6
CONTINUOUS
10
0.659929
20
0.536802
11
0.656802
21
0.539929
0
LINE
8
BLACK
6
CONTINUOUS
10
0.656802
20
0.539929
11
0.652756
21
0.541716
0
LINE
8
BLACK
6
CONTINUOUS
10
0.652756
20
0.541716
11
0.651766
21
0.541831
0
LINE
8
BLACK
6
CONTINUOUS
10
0.651766
20
0.541831
11
0.588234
21
0.541831
0
LINE
8
BLACK
6
CONTINUOUS
10
0.588234
20
0.541831
11
0.587244
21
0.541716
0
LINE
8
BLACK
6
CONTINUOUS
10
0.587244
20
0.541716
11
0.585843
21
0.541097
0
LINE
8
BLACK
6
CONTINUOUS
10
0.585843
20
0.541097
11
0.583198
21
0.539929
0
LINE
8
BLACK
6
CONTINUOUS
10
0.583198
20
0.539929
11
0.580071
21
0.536802
0
LINE
8
BLACK
6
CONTINUOUS
10
0.580071
20
0.536802
11
0.580071
21
0.536802
0
LINE
8
BLACK
6
CONTINUOUS
10
0.580071
20
0.536802
11
0.578284
21
0.532756
0
LINE
8
BLACK
6
CONTINUOUS
10
0.578284
20
0.532756
11
0.578169
21
0.531767
0
LINE
8
BLACK
6
CONTINUOUS
10
0.578169
20
0.531767
11
0.578169
21
0.468234
0
LINE
8
BLACK
6
CONTINUOUS
10
0.578169
20
0.468234
11
0.578169
21
0.468234
0
LINE
8
BLACK
6
CONTINUOUS
10
0.678169
20
0.468234
11
0.678284
21
0.467244
0
LINE
8
BLACK
6
CONTINUOUS
10
0.678284
20
0.467244
11
0.678284
21
0.467244
0
LINE
8
BLACK
6
CONTINUOUS
10
0.678284
20
0.467244
11
0.680071
21
0.463198
0
LINE
8
BLACK
6
CONTINUOUS
10
0.680071
20
0.463198
11
0.683198
21
0.460071
0
LINE
8
BLACK
6
CONTINUOUS
10
0.683198
20
0.460071
11
0.683198
21
0.460071
0
LINE
8
BLACK
6
CONTINUOUS
10
0.683198
20
0.460071
11
0.687244
21
0.458284
0
LINE
8
BLACK
6
CONTINUOUS
10
0.687244
20
0.458284
11
0.687244
21
0.458284
0
LINE
8
BLACK
6
CONTINUOUS
10
0.687244
20
0.458284
11
0.688234
21
0.458169
0
LINE
8
BLACK
6
CONTINUOUS
10
0.688234
20
0.458169
11
0.688234
21
0.458169
0
LINE
8
BLACK
6
CONTINUOUS
10
0.688234
20
0.458169
11
0.751766
21
0.458169
0
LINE
8
BLACK
6
CONTINUOUS
10
0.751766
20
0.458169
11
0.751766
21
0.458169
0
LINE
8
BLACK
6
CONTINUOUS
10
0.751766
20
0.458169
11
0.752756
21
0.458284
0
LINE
8
BLACK
6
CONTINUOUS
10
0.752756
20
0.458284
11
0.752756
21
0.458284
0
LINE
8
BLACK
6
CONTINUOUS
10
0.752756
20
0.458284
11
0.756802
21
0.460071
0
LINE
8
BLACK
6
CONTINUOUS
10
0.756802
20
0.460071
11
0.759929
21
0.463198
0
LINE
8
BLACK
6
CONTINUOUS
10
0.759929
20
0.463198
11
0.759929
21
0.463198
0
LINE
8
BLACK
6
CONTINUOUS
10
0.759929
20
0.463198
11
0.759929
21
0.463198
0
LINE
8
BLACK
6
CONTINUOUS
10
0.759929
20
0.463198
11
0.761716
21
0.467244
0
LINE
8
BLACK
6
CONTINUOUS
10
0.761716
20
0.467244
11
0.761831
21
0.468234
0
LINE
8
BLACK
6
CONTINUOUS
10
0.761831
20
0.468234
11
0.761831
21
0.531766
0
LINE
8
BLACK
6
CONTINUOUS
10
0.761831
20
0.531766
11
0.761716
21
0.532756
0
LINE
8
BLACK
6
CONTINUOUS
10
0.761716
20
0.532756
11
0.759929
21
0.536802
0
LINE
8
BLACK
6
CONTINUOUS
10
0.759929
20
0.536802
11
0.756802
21
0.539929
0
LINE
8
BLACK
6
CONTINUOUS
10
0.756802
20
0.539929
11
0.752756
21
0.541716
0
LINE
8
BLACK
6
CONTINUOUS
10
0.752756
20
0.541716
11
0.751766
21
0.541831
0
LINE
8
BLACK
6
CONTINUOUS
10
0.751766
20
0.541831
11
0.688234
21
0.541831
0
LINE
8
BLACK
6
CONTINUOUS
10
0.688234
20
0.541831
11
0.687244
21
0.541716
0
LINE
8
BLACK
6
CONTINUOUS
10
0.687244
20
0.541716
11
0.685843
21
0.541097
0
LINE
8
BLACK
6
CONTINUOUS
10
0.685843
20
0.541097
11
0.683198
21
0.539929
0
LINE
8
BLACK
6
CONTINUOUS
10
0.683198
20
0.539929
11
0.680071
21
0.536802
0
LINE
8
BLACK
6
CONTINUOUS
10
0.680071
20
0.536802
11
0.680071
21
0.536802
0
LINE
8
BLACK
6
CONTINUOUS
10
0.680071
20
0.536802
11
0.678284
21
0.532756
0
LINE
8
BLACK
6
CONTINUOUS
10
0.678284
20
0.532756
11
0.678169
21
0.531767
0
LINE
8
BLACK
6
CONTINUOUS
10
0.678169
20
0.531767
11
0.678169
21
0.468234
0
LINE
8
BLACK
6
CONTINUOUS
10
0.678169
20
0.468234
11
0.678169
21
0.468234
0
LINE
8
BLACK
6
CONTINUOUS
10
0.578169
20
0.568234
11
0.578284
21
0.567244
0
LINE
8
BLACK
6
CONTINUOUS
10
0.578284
20
0.567244
11
0.578284
21
0.567244
0
LINE
8
BLACK
6
CONTINUOUS
10
0.578284
20
0.567244
11
0.580071
21
0.563198
0
LINE
8
BLACK
6
CONTINUOUS
10
0.580071
20
0.563198
11
0.583198
21
0.560071
0
LINE
8
BLACK
6
CONTINUOUS
10
0.583198
20
0.560071
11
0.583198
21
0.560071
0
LINE
8
BLACK
6
CONTINUOUS
10
0.583198
20
0.560071
11
0.587244
21
0.558284
0
LINE
8
BLACK
6
CONTINUOUS
10
0.587244
20
0.558284
11
0.587244
21
0.558284
0
LINE
8
BLACK
6
CONTINUOUS
10
0.587244
20
0.558284
11
0.588234
21
0.558169
0
LINE
8
BLACK
6
CONTINUOUS
10
0.588234
20
0.558169
11
0.588234
21
0.558169
0
LINE
8
BLACK
6
CONTINUOUS
10
0.588234
20
0.558169
11
0.651766
21
0.558169
0
LINE
8
BLACK
6
CONTINUOUS
10
0.651766
20
0.558169
11
0.651766
21
0.558169
0
LINE
8
BLACK
6
CONTINUOUS
10
0.651766
20
0.558169
11
0.652756
21
0.558284
0
LINE
8
BLACK
6
CONTINUOUS
10
0.652756
20
0.558284
11
0.652756
21
0.558284
0
LINE
8
BLACK
6
CONTINUOUS
10
0.652756
20
0.558284
11
0.656802
21
0.560071
0
LINE
8
BLACK
6
CONTINUOUS
10
0.656802
20
0.560071
11
0.659929
21
0.563198
0
LINE
8
BLACK
6
CONTINUOUS
10
0.659929
20
0.563198
11
0.659929
21
0.563198
0
LINE
8
BLACK
6
CONTINUOUS
10
0.659929
20
0.563198
11
0.659929
21
0.563198
0
LINE
8
BLACK
6
CONTINUOUS
10
0.659929
20
0.563198
11
0.661716
21
0.567244
0
LINE
8
BLACK
6
CONTINUOUS
10
0.661716
20
0.567244
11
0.661831
21
0.568234
0
LINE
8
BLACK
6
CONTINUOUS
10
0.661831
20
0.568234
11
0.661831
21
0.568234
0
LINE
8
BLACK
6
CONTINUOUS
10
0.661831
20
0.568234
11
0.661831
21
0.631766
0
LINE
8
BLACK
6
CONTINUOUS
10
0.661831
20
0.631766
11
0.661716
21
0.632756
0
LINE
8
BLACK
6
CONTINUOUS
10
0.661716
20
0.632756
11
0.659929
21
0.636802
0
LINE
8
BLACK
6
CONTINUOUS
10
0.659929
20
0.636802
11
0.656802
21
0.639929
0
LINE
8
BLACK
6
CONTINUOUS
10
0.656802
20
0.639929
11
0.652756
21
0.641716
0
LINE
8
BLACK
6
CONTINUOUS
10
0.652756
20
0.641716
11
0.651766
21
0.641831
0
LINE
8
BLACK
6
CONTINUOUS
10
0.651766
20
0.641831
11
0.588234
21
0.641831
0
LINE
8
BLACK
6
CONTINUOUS
10
0.588234
20
0.641831
11
0.587244
21
0.641716
0
LINE
8
BLACK
6
CONTINUOUS
10
0.587244
20
0.641716
11
0.585843
21
0.641097
0
LINE
8
BLACK
6
CONTINUOUS
10
0.585843
20
0.641097
11
0.583198
21
0.639929
0
LINE
8
BLACK
6
CONTINUOUS
10
0.583198
20
0.639929
11
0.580071
21
0.636802
0
LINE
8
BLACK
6
CONTINUOUS
10
0.580071
20
0.636802
11
0.580071
21
0.636802
0
LINE
8
BLACK
6
CONTINUOUS
10
0.580071
20
0.636802
11
0.578284
21
0.632756
0
LINE
8
BLACK
6
CONTINUOUS
10
0.578284
20
0.632756
11
0.578169
21
0.631767
0
LINE
8
BLACK
6
CONTINUOUS
10
0.578169
20
0.631767
11
0.578169
21
0.568234
0
LINE
8
BLACK
6
CONTINUOUS
10
0.578169
20
0.568234
11
0.578169
21
0.568234
0
LINE
8
BLACK
6
CONTINUOUS
10
0.678169
20
0.568234
11
0.678284
21
0.567244
0
LINE
8
BLACK
6
CONTINUOUS
10
0.678284
20
0.567244
11
0.678284
21
0.567244
0
LINE
8
BLACK
6
CONTINUOUS
10
0.678284
20
0.567244
11
0.680071
21
0.563198
0
LINE
8
BLACK
6
CONTINUOUS
10
0.680071
20
0.563198
11
0.683198
21
0.560071
0
LINE
8
BLACK
6
CONTINUOUS
10
0.683198
20
0.560071
11
0.683198
21
0.560071
0
LINE
8
BLACK
6
CONTINUOUS
10
0.683198
20
0.560071
11
0.687244
21
0.558284
0
LINE
8
BLACK
6
CONTINUOUS
10
0.687244
20
0.558284
11
0.687244
21
0.558284
0
LINE
8
BLACK
6
CONTINUOUS
10
0.687244
20
0.558284
11
0.688234
21
0.558169
0
LINE
8
BLACK
6
CONTINUOUS
10
0.688234
20
0.558169
11
0.688234
21
0.558169
0
LINE
8
BLACK
6
CONTINUOUS
10
0.688234
20
0.558169
11
0.751766
21
0.558169
0
LINE
8
BLACK
6
CONTINUOUS
10
0.751766
20
0.558169
11
0.751766
21
0.558169
0
LINE
8
BLACK
6
CONTINUOUS
10
0.751766
20
0.558169
11
0.752756
21
0.558284
0
LINE
8
BLACK
6
CONTINUOUS
10
0.752756
20
0.558284
11
0.752756
21
0.558284
0
LINE
8
BLACK
6
CONTINUOUS
10
0.752756
20
0.558284
11
0.756802
21
0.560071
0
LINE
8
BLACK
6
CONTINUOUS
10
0.756802
20
0.560071
11
0.759929
21
0.563198
0
LINE
8
BLACK
6
CONTINUOUS
10
0.759929
20
0.563198
11
0.759929
21
0.563198
0
LINE
8
BLACK
6
CONTINUOUS
10
0.759929
20
0.563198
11
0.759929
21
0.563198
0
LINE
8
BLACK
6
CONTINUOUS
10
0.759929
20
0.563198
11
0.761716
21
0.567244
0
LINE
8
BLACK
6
CONTINUOUS
10
0.761716
20
0.567244
11
0.761831
21
0.568234
0
LINE
8
BLACK
6
CONTINUOUS
10
0.761831
20
0.568234
11
0.761831
21
0.631766
0
LINE
8
BLACK
6
CONTINUOUS
10
0.761831
20
0.631766
11
0.761716
21
0.632756
0
LINE
8
BLACK
6
CONTINUOUS
10
0.761716
20
0.632756
11
0.759929
21
0.636802
0
LINE
8
BLACK
6
CONTINUOUS
10
0.759929
20
0.636802
11
0.756802
21
0.639929
0
LINE
8
BLACK
6
CONTINUOUS
10
0.756802
20
0.639929
11
0.752756
21
0.641716
0
LINE
8
BLACK
6
CONTINUOUS
10
0.752756
20
0.641716
11
0.751766
21
0.641831
0
LINE
8
BLACK
6
CONTINUOUS
10
0.751766
20
0.641831
11
0.688234
21
0.641831
0
LINE
8
BLACK
6
CONTINUOUS
10
0.688234
20
0.641831
11
0.687244
21
0.641716
0
LINE
8
BLACK
6
CONTINUOUS
10
0.687244
20
0.641716
11
0.685843
21
0.641097
0
LINE
8
BLACK
6
CONTINUOUS
10
0.685843
20
0.641097
11
0.683198
21
0.639929
0
LINE
8
BLACK
6
CONTINUOUS
10
0.683198
20
0.639929
11
0.680071
21
0.636802
0
LINE
8
BLACK
6
CONTINUOUS
10
0.680071
20
0.636802
11
0.680071
21
0.636802
0
LINE
8
BLACK
6
CONTINUOUS
10
0.680071
20
0.636802
11
0.678284
21
0.632756
0
LINE
8
BLACK
6
CONTINUOUS
10
0.678284
20
0.632756
11
0.678169
21
0.631767
0
LINE
8
BLACK
6
CONTINUOUS
10
0.678169
20
0.631767
11
0.678169
21
0.568234
0
LINE
8
BLACK
6
CONTINUOUS
10
0.678169
20
0.568234
11
0.678169
21
0.568234
0
LINE
8
BLACK
6
CONTINUOUS
10
0.0581693
20
0.953234
11
0.058284
21
0.952244
0
LINE
8
BLACK
6
CONTINUOUS
10
0.058284
20
0.952244
11
0.0582841
21
0.952244
0
LINE
8
BLACK
6
CONTINUOUS
10
0.0582841
20
0.952244
11
0.0600706
21
0.948198
0
LINE
8
BLACK
6
CONTINUOUS
10
0.0600706
20
0.948198
11
0.0631981
21
0.945071
0
LINE
8
BLACK
6
CONTINUOUS
10
0.0631981
20
0.945071
11
0.0631982
21
0.945071
0
LINE
8
BLACK
6
CONTINUOUS
10
0.0631982
20
0.945071
11
0.0672445
21
0.943284
0
LINE
8
BLACK
6
CONTINUOUS
10
0.0672445
20
0.943284
11
0.0672444
21
0.943284
0
LINE
8
BLACK
6
CONTINUOUS
10
0.0672444
20
0.943284
11
0.0682335
21
0.943169
0
LINE
8
BLACK
6
CONTINUOUS
10
0.0682335
20
0.943169
11
0.0682337
21
0.943169
0
LINE
8
BLACK
6
CONTINUOUS
10
0.0682337
20
0.943169
11
0.131766
21
0.943169
0
LINE
8
BLACK
6
CONTINUOUS
10
0.131766
20
0.943169
11
0.131766
21
0.943169
0
LINE
8
BLACK
6
CONTINUOUS
10
0.131766
20
0.943169
11
0.132756
21
0.943284
0
LINE
8
BLACK
6
CONTINUOUS
10
0.132756
20
0.943284
11
0.132756
21
0.943284
0
LINE
8
BLACK
6
CONTINUOUS
10
0.132756
20
0.943284
11
0.136802
21
0.945071
0
LINE
8
BLACK
6
CONTINUOUS
10
0.136802
20
0.945071
11
0.139929
21
0.948198
0
LINE
8
BLACK
6
CONTINUOUS
10
0.139929
20
0.948198
11
0.139929
21
0.948198
0
LINE
8
BLACK
6
CONTINUOUS
10
0.139929
20
0.948198
11
0.139929
21
0.948198
0
LINE
8
BLACK
6
CONTINUOUS
10
0.139929
20
0.948198
11
0.139929
21
0.948198
0
LINE
8
BLACK
6
CONTINUOUS
10
0.139929
20
0.948198
11
0.141716
21
0.952244
0
LINE
8
BLACK
6
CONTINUOUS
10
0.141716
20
0.952244
11
0.141831
21
0.953234
0
LINE
8
BLACK
6
CONTINUOUS
10
0.141831
20
0.953234
11
0.141831
21
1.01677
0
LINE
8
BLACK
6
CONTINUOUS
10
0.141831
20
1.01677
11
0.141716
21
1.01776
0
LINE
8
BLACK
6
CONTINUOUS
10
0.141716
20
1.01776
11
0.139929
21
1.0218
0
LINE
8
BLACK
6
CONTINUOUS
10
0.139929
20
1.0218
11
0.136802
21
1.02493
0
LINE
8
BLACK
6
CONTINUOUS
10
0.136802
20
1.02493
11
0.132756
21
1.02672
0
LINE
8
BLACK
6
CONTINUOUS
10
0.132756
20
1.02672
11
0.131766
21
1.02683
0
LINE
8
BLACK
6
CONTINUOUS
10
0.131766
20
1.02683
11
0.0682337
21
1.02683
0
LINE
8
BLACK
6
CONTINUOUS
10
0.0682337
20
1.02683
11
0.0672444
21
1.02672
0
LINE
8
BLACK
6
CONTINUOUS
10
0.0672444
20
1.02672
11
0.0658434
21
1.0261
0
LINE
8
BLACK
6
CONTINUOUS
10
0.0658434
20
1.0261
11
0.0631982
21
1.02493
0
LINE
8
BLACK
6
CONTINUOUS
10
0.0631982
20
1.02493
11
0.0600707
21
1.0218
0
LINE
8
BLACK
6
CONTINUOUS
10
0.0600707
20
1.0218
11
0.0600706
21
1.0218
0
LINE
8
BLACK
6
CONTINUOUS
10
0.0600706
20
1.0218
11
0.058284
21
1.01776
0
LINE
8
BLACK
6
CONTINUOUS
10
0.058284
20
1.01776
11
0.0581693
21
1.01677
0
LINE
8
BLACK
6
CONTINUOUS
10
0.0581693
20
1.01677
11
0.0581693
21
0.953234
0
LINE
8
BLACK
6
CONTINUOUS
10
0.0581693
20
0.953234
11
0.0581693
21
0.953234
0
LINE
8
BLACK
6
CONTINUOUS
10
0.578169
20
1.03323
11
0.578284
21
1.03224
0
LINE
8
BLACK
6
CONTINUOUS
10
0.578284
20
1.03224
11
0.578284
21
1.03224
0
LINE
8
BLACK
6
CONTINUOUS
10
0.578284
20
1.03224
11
0.580071
21
1.0282
0
LINE
8
BLACK
6
CONTINUOUS
10
0.580071
20
1.0282
11
0.583198
21
1.02507
0
LINE
8
BLACK
6
CONTINUOUS
10
0.583198
20
1.02507
11
0.583198
21
1.02507
0
LINE
8
BLACK
6
CONTINUOUS
10
0.583198
20
1.02507
11
0.587244
21
1.02328
0
LINE
8
BLACK
6
CONTINUOUS
10
0.587244
20
1.02328
11
0.587244
21
1.02328
0
LINE
8
BLACK
6
CONTINUOUS
10
0.587244
20
1.02328
11
0.588234
21
1.02317
0
LINE
8
BLACK
6
CONTINUOUS
10
0.588234
20
1.02317
11
0.588234
21
1.02317
0
LINE
8
BLACK
6
CONTINUOUS
10
0.588234
20
1.02317
11
0.651766
21
1.02317
0
LINE
8
BLACK
6
CONTINUOUS
10
0.651766
20
1.02317
11
0.651766
21
1.02317
0
LINE
8
BLACK
6
CONTINUOUS
10
0.651766
20
1.02317
11
0.652756
21
1.02328
0
LINE
8
BLACK
6
CONTINUOUS
10
0.652756
20
1.02328
11
0.652756
21
1.02328
0
LINE
8
BLACK
6
CONTINUOUS
10
0.652756
20
1.02328
11
0.656802
21
1.02507
0
LINE
8
BLACK
6
CONTINUOUS
10
0.656802
20
1.02507
11
0.659929
21
1.0282
0
LINE
8
BLACK
6
CONTINUOUS
10
0.659929
20
1.0282
11
0.659929
21
1.0282
0
LINE
8
BLACK
6
CONTINUOUS
10
0.659929
20
1.0282
11
0.659929
21
1.0282
0
LINE
8
BLACK
6
CONTINUOUS
10
0.659929
20
1.0282
11
0.659929
21
1.0282
0
LINE
8
BLACK
6
CONTINUOUS
10
0.659929
20
1.0282
11
0.661716
21
1.03224
0
LINE
8
BLACK
6
CONTINUOUS
10
0.661716
20
1.03224
11
0.661831
21
1.03323
0
LINE
8
BLACK
6
CONTINUOUS
10
0.661831
20
1.03323
11
0.661831
21
1.03323
0
LINE
8
BLACK
6
CONTINUOUS
10
0.661831
20
1.03323
11
0.661831
21
1.09677
0
LINE
8
BLACK
6
CONTINUOUS
10
0.661831
20
1.09677
11
0.661716
21
1.09776
0
LINE
8
BLACK
6
CONTINUOUS
10
0.661716
20
1.09776
11
0.659929
21
1.1018
0
LINE
8
BLACK
6
CONTINUOUS
10
0.659929
20
1.1018
11
0.656802
21
1.10493
0
LINE
8
BLACK
6
CONTINUOUS
10
0.656802
20
1.10493
11
0.652756
21
1.10672
0
LINE
8
BLACK
6
CONTINUOUS
10
0.652756
20
1.10672
11
0.651766
21
1.10683
0
LINE
8
BLACK
6
CONTINUOUS
10
0.651766
20
1.10683
11
0.588234
21
1.10683
0
LINE
8
BLACK
6
CONTINUOUS
10
0.588234
20
1.10683
11
0.587244
21
1.10672
0
LINE
8
BLACK
6
CONTINUOUS
10
0.587244
20
1.10672
11
0.585843
21
1.1061
0
LINE
8
BLACK
6
CONTINUOUS
10
0.585843
20
1.1061
11
0.583198
21
1.10493
0
LINE
8
BLACK
6
CONTINUOUS
10
0.583198
20
1.10493
11
0.580071
21
1.1018
0
LINE
8
BLACK
6
CONTINUOUS
10
0.580071
20
1.1018
11
0.580071
21
1.1018
0
LINE
8
BLACK
6
CONTINUOUS
10
0.580071
20
1.1018
11
0.578284
21
1.09776
0
LINE
8
BLACK
6
CONTINUOUS
10
0.578284
20
1.09776
11
0.578169
21
1.09677
0
LINE
8
BLACK
6
CONTINUOUS
10
0.578169
20
1.09677
11
0.578169
21
1.03323
0
LINE
8
BLACK
6
CONTINUOUS
10
0.578169
20
1.03323
11
0.578169
21
1.03323
0
LINE
8
BLACK
6
CONTINUOUS
10
0.678169
20
1.03323
11
0.678284
21
1.03224
0
LINE
8
BLACK
6
CONTINUOUS
10
0.678284
20
1.03224
11
0.678284
21
1.03224
0
LINE
8
BLACK
6
CONTINUOUS
10
0.678284
20
1.03224
11
0.680071
21
1.0282
0
LINE
8
BLACK
6
CONTINUOUS
10
0.680071
20
1.0282
11
0.683198
21
1.02507
0
LINE
8
BLACK
6
CONTINUOUS
10
0.683198
20
1.02507
11
0.683198
21
1.02507
0
LINE
8
BLACK
6
CONTINUOUS
10
0.683198
20
1.02507
11
0.687244
21
1.02328
0
LINE
8
BLACK
6
CONTINUOUS
10
0.687244
20
1.02328
11
0.687244
21
1.02328
0
LINE
8
BLACK
6
CONTINUOUS
10
0.687244
20
1.02328
11
0.688234
21
1.02317
0
LINE
8
BLACK
6
CONTINUOUS
10
0.688234
20
1.02317
11
0.688234
21
1.02317
0
LINE
8
BLACK
6
CONTINUOUS
10
0.688234
20
1.02317
11
0.751766
21
1.02317
0
LINE
8
BLACK
6
CONTINUOUS
10
0.751766
20
1.02317
11
0.751766
21
1.02317
0
LINE
8
BLACK
6
CONTINUOUS
10
0.751766
20
1.02317
11
0.752756
21
1.02328
0
LINE
8
BLACK
6
CONTINUOUS
10
0.752756
20
1.02328
11
0.752756
21
1.02328
0
LINE
8
BLACK
6
CONTINUOUS
10
0.752756
20
1.02328
11
0.756802
21
1.02507
0
LINE
8
BLACK
6
CONTINUOUS
10
0.756802
20
1.02507
11
0.759929
21
1.0282
0
LINE
8
BLACK
6
CONTINUOUS
10
0.759929
20
1.0282
11
0.759929
21
1.0282
0
LINE
8
BLACK
6
CONTINUOUS
10
0.759929
20
1.0282
11
0.759929
21
1.0282
0
LINE
8
BLACK
6
CONTINUOUS
10
0.759929
20
1.0282
11
0.761716
21
1.03224
0
LINE
8
BLACK
6
CONTINUOUS
10
0.761716
20
1.03224
11
0.761831
21
1.03323
0
LINE
8
BLACK
6
CONTINUOUS
10
0.761831
20
1.03323
11
0.761831
21
1.09677
0
LINE
8
BLACK
6
CONTINUOUS
10
0.761831
20
1.09677
11
0.761716
21
1.09776
0
LINE
8
BLACK
6
CONTINUOUS
10
0.761716
20
1.09776
11
0.759929
21
1.1018
0
LINE
8
BLACK
6
CONTINUOUS
10
0.759929
20
1.1018
11
0.756802
21
1.10493
0
LINE
8
BLACK
6
CONTINUOUS
10
0.756802
20
1.10493
11
0.752756
21
1.10672
0
LINE
8
BLACK
6
CONTINUOUS
10
0.752756
20
1.10672
11
0.751766
21
1.10683
0
LINE
8
BLACK
6
CONTINUOUS
10
0.751766
20
1.10683
11
0.688234
21
1.10683
0
LINE
8
BLACK
6
CONTINUOUS
10
0.688234
20
1.10683
11
0.687244
21
1.10672
0
LINE
8
BLACK
6
CONTINUOUS
10
0.687244
20
1.10672
11
0.685843
21
1.1061
0
LINE
8
BLACK
6
CONTINUOUS
10
0.685843
20
1.1061
11
0.683198
21
1.10493
0
LINE
8
BLACK
6
CONTINUOUS
10
0.683198
20
1.10493
11
0.680071
21
1.1018
0
LINE
8
BLACK
6
CONTINUOUS
10
0.680071
20
1.1018
11
0.680071
21
1.1018
0
LINE
8
BLACK
6
CONTINUOUS
10
0.680071
20
1.1018
11
0.678284
21
1.09776
0
LINE
8
BLACK
6
CONTINUOUS
10
0.678284
20
1.09776
11
0.678169
21
1.09677
0
LINE
8
BLACK
6
CONTINUOUS
10
0.678169
20
1.09677
11
0.678169
21
1.03323
0
LINE
8
BLACK
6
CONTINUOUS
10
0.678169
20
1.03323
11
0.678169
21
1.03323
0
LINE
8
BLACK
6
CONTINUOUS
10
0.0430694
20
1.38454
11
0.0430694
21
1.38454
0
LINE
8
BLACK
6
CONTINUOUS
10
0.0430694
20
1.38454
11
0.04534
21
1.36924
0
LINE
8
BLACK
6
CONTINUOUS
10
0.04534
20
1.36924
11
0.04534
21
1.36924
0
LINE
8
BLACK
6
CONTINUOUS
10
0.04534
20
1.36924
11
0.04722
21
1.36173
0
LINE
8
BLACK
6
CONTINUOUS
10
0.04722
20
1.36173
11
0.0491002
21
1.35422
0
LINE
8
BLACK
6
CONTINUOUS
10
0.0491002
20
1.35422
11
0.0543134
21
1.33965
0
LINE
8
BLACK
6
CONTINUOUS
10
0.0543134
20
1.33965
11
0.06093
21
1.32567
0
LINE
8
BLACK
6
CONTINUOUS
10
0.06093
20
1.32567
11
0.0688857
21
1.31239
0
LINE
8
BLACK
6
CONTINUOUS
10
0.0688857
20
1.31239
11
0.0781037
21
1.29996
0
LINE
8
BLACK
6
CONTINUOUS
10
0.0781037
20
1.29996
11
0.0884964
21
1.2885
0
LINE
8
BLACK
6
CONTINUOUS
10
0.0884964
20
1.2885
11
0.0999629
21
1.2781
0
LINE
8
BLACK
6
CONTINUOUS
10
0.0999629
20
1.2781
11
0.112392
21
1.26889
0
LINE
8
BLACK
6
CONTINUOUS
10
0.112392
20
1.26889
11
0.125665
21
1.26093
0
LINE
8
BLACK
6
CONTINUOUS
10
0.125665
20
1.26093
11
0.139655
21
1.25431
0
LINE
8
BLACK
6
CONTINUOUS
10
0.139655
20
1.25431
11
0.154225
21
1.2491
0
LINE
8
BLACK
6
CONTINUOUS
10
0.154225
20
1.2491
11
0.161731
21
1.24722
0
LINE
8
BLACK
6
CONTINUOUS
10
0.161731
20
1.24722
11
0.169236
21
1.24534
0
LINE
8
BLACK
6
CONTINUOUS
10
0.169236
20
1.24534
11
0.169236
21
1.24534
0
LINE
8
BLACK
6
CONTINUOUS
10
0.169236
20
1.24534
11
0.169236
21
1.24534
0
LINE
8
BLACK
6
CONTINUOUS
10
0.169236
20
1.24534
11
0.184543
21
1.24307
0
LINE
8
BLACK
6
CONTINUOUS
10
0.184543
20
1.24307
11
0.184544
21
1.24307
0
LINE
8
BLACK
6
CONTINUOUS
10
0.184544
20
1.24307
11
0.184544
21
1.24307
0
LINE
8
BLACK
6
CONTINUOUS
10
0.184544
20
1.24307
11
0.191168
21
1.24274
0
LINE
8
BLACK
6
CONTINUOUS
10
0.191168
20
1.24274
11
0.2
21
1.24231
0
LINE
8
BLACK
6
CONTINUOUS
10
0.2
20
1.24231
11
0.2
21
1.24231
0
LINE
8
BLACK
6
CONTINUOUS
10
0.2
20
1.24231
11
0.2
21
1.24231
0
LINE
8
BLACK
6
CONTINUOUS
10
0.2
20
1.24231
11
0.207728
21
1.24269
0
LINE
8
BLACK
6
CONTINUOUS
10
0.207728
20
1.24269
11
0.215456
21
1.24307
0
LINE
8
BLACK
6
CONTINUOUS
10
0.215456
20
1.24307
11
0.215456
21
1.24307
0
LINE
8
BLACK
6
CONTINUOUS
10
0.215456
20
1.24307
11
0.215457
21
1.24307
0
LINE
8
BLACK
6
CONTINUOUS
10
0.215457
20
1.24307
11
0.230764
21
1.24534
0
LINE
8
BLACK
6
CONTINUOUS
10
0.230764
20
1.24534
11
0.230764
21
1.24534
0
LINE
8
BLACK
6
CONTINUOUS
10
0.230764
20
1.24534
11
0.242008
21
1.24816
0
LINE
8
BLACK
6
CONTINUOUS
10
0.242008
20
1.24816
11
0.245775
21
1.2491
0
LINE
8
BLACK
6
CONTINUOUS
10
0.245775
20
1.2491
11
0.260345
21
1.25431
0
LINE
8
BLACK
6
CONTINUOUS
10
0.260345
20
1.25431
11
0.260345
21
1.25431
0
LINE
8
BLACK
6
CONTINUOUS
10
0.260345
20
1.25431
11
0.274335
21
1.26093
0
LINE
8
BLACK
6
CONTINUOUS
10
0.274335
20
1.26093
11
0.278805
21
1.26361
0
LINE
8
BLACK
6
CONTINUOUS
10
0.278805
20
1.26361
11
0.287608
21
1.26889
0
LINE
8
BLACK
6
CONTINUOUS
10
0.287608
20
1.26889
11
0.300037
21
1.2781
0
LINE
8
BLACK
6
CONTINUOUS
10
0.300037
20
1.2781
11
0.300037
21
1.2781
0
LINE
8
BLACK
6
CONTINUOUS
10
0.300037
20
1.2781
11
0.311504
21
1.2885
0
LINE
8
BLACK
6
CONTINUOUS
10
0.311504
20
1.2885
11
0.321896
21
1.29996
0
LINE
8
BLACK
6
CONTINUOUS
10
0.321896
20
1.29996
11
0.321896
21
1.29996
0
LINE
8
BLACK
6
CONTINUOUS
10
0.321896
20
1.29996
11
0.321896
21
1.29996
0
LINE
8
BLACK
6
CONTINUOUS
10
0.321896
20
1.29996
11
0.331114
21
1.31239
0
LINE
8
BLACK
6
CONTINUOUS
10
0.331114
20
1.31239
11
0.331114
21
1.31239
0
LINE
8
BLACK
6
CONTINUOUS
10
0.331114
20
1.31239
11
0.33907
21
1.32567
0
LINE
8
BLACK
6
CONTINUOUS
10
0.33907
20
1.32567
11
0.345687
21
1.33965
0
LINE
8
BLACK
6
CONTINUOUS
10
0.345687
20
1.33965
11
0.3509
21
1.35423
0
LINE
8
BLACK
6
CONTINUOUS
10
0.3509
20
1.35423
11
0.35466
21
1.36924
0
LINE
8
BLACK
6
CONTINUOUS
10
0.35466
20
1.36924
11
0.356931
21
1.38454
0
LINE
8
BLACK
6
CONTINUOUS
10
0.356931
20
1.38454
11
0.35769
21
1.4
0
LINE
8
BLACK
6
CONTINUOUS
10
0.35769
20
1.4
11
0.35769
21
1.4
0
LINE
8
BLACK
6
CONTINUOUS
10
0.35769
20
1.4
11
0.356931
21
1.41546
0
LINE
8
BLACK
6
CONTINUOUS
10
0.356931
20
1.41546
11
0.35466
21
1.43076
0
LINE
8
BLACK
6
CONTINUOUS
10
0.35466
20
1.43076
11
0.3509
21
1.44577
0
LINE
8
BLACK
6
CONTINUOUS
10
0.3509
20
1.44577
11
0.345687
21
1.46035
0
LINE
8
BLACK
6
CONTINUOUS
10
0.345687
20
1.46035
11
0.33907
21
1.47433
0
LINE
8
BLACK
6
CONTINUOUS
10
0.33907
20
1.47433
11
0.331114
21
1.48761
0
LINE
8
BLACK
6
CONTINUOUS
10
0.331114
20
1.48761
11
0.321896
21
1.50004
0
LINE
8
BLACK
6
CONTINUOUS
10
0.321896
20
1.50004
11
0.311504
21
1.5115
0
LINE
8
BLACK
6
CONTINUOUS
10
0.311504
20
1.5115
11
0.300037
21
1.5219
0
LINE
8
BLACK
6
CONTINUOUS
10
0.300037
20
1.5219
11
0.287608
21
1.53111
0
LINE
8
BLACK
6
CONTINUOUS
10
0.287608
20
1.53111
11
0.274335
21
1.53907
0
LINE
8
BLACK
6
CONTINUOUS
10
0.274335
20
1.53907
11
0.260345
21
1.54569
0
LINE
8
BLACK
6
CONTINUOUS
10
0.260345
20
1.54569
11
0.245775
21
1.5509
0
LINE
8
BLACK
6
CONTINUOUS
10
0.245775
20
1.5509
11
0.230764
21
1.55466
0
LINE
8
BLACK
6
CONTINUOUS
10
0.230764
20
1.55466
11
0.215456
21
1.55693
0
LINE
8
BLACK
6
CONTINUOUS
10
0.215456
20
1.55693
11
0.20218
21
1.55758
0
LINE
8
BLACK
6
CONTINUOUS
10
0.20218
20
1.55758
11
0.2
21
1.55769
0
LINE
8
BLACK
6
CONTINUOUS
10
0.2
20
1.55769
11
0.2
21
1.55769
0
LINE
8
BLACK
6
CONTINUOUS
10
0.2
20
1.55769
11
0.19774
21
1.55758
0
LINE
8
BLACK
6
CONTINUOUS
10
0.19774
20
1.55758
11
0.184544
21
1.55693
0
LINE
8
BLACK
6
CONTINUOUS
10
0.184544
20
1.55693
11
0.169236
21
1.55466
0
LINE
8
BLACK
6
CONTINUOUS
10
0.169236
20
1.55466
11
0.154225
21
1.5509
0
LINE
8
BLACK
6
CONTINUOUS
10
0.154225
20
1.5509
11
0.139655
21
1.54569
0
LINE
8
BLACK
6
CONTINUOUS
10
0.139655
20
1.54569
11
0.125665
21
1.53907
0
LINE
8
BLACK
6
CONTINUOUS
10
0.125665
20
1.53907
11
0.112392
21
1.53111
0
LINE
8
BLACK
6
CONTINUOUS
10
0.112392
20
1.53111
11
0.112392
21
1.53111
0
LINE
8
BLACK
6
CONTINUOUS
10
0.112392
20
1.53111
11
0.0999629
21
1.5219
0
LINE
8
BLACK
6
CONTINUOUS
10
0.0999629
20
1.5219
11
0.0999626
21
1.5219
0
LINE
8
BLACK
6
CONTINUOUS
10
0.0999626
20
1.5219
11
0.0999626
21
1.5219
0
LINE
8
BLACK
6
CONTINUOUS
10
0.0999626
20
1.5219
11
0.0884964
21
1.5115
0
LINE
8
BLACK
6
CONTINUOUS
10
0.0884964
20
1.5115
11
0.078104
21
1.50004
0
LINE
8
BLACK
6
CONTINUOUS
10
0.078104
20
1.50004
11
0.0781037
21
1.50004
0
LINE
8
BLACK
6
CONTINUOUS
10
0.0781037
20
1.50004
11
0.0688857
21
1.48761
0
LINE
8
BLACK
6
CONTINUOUS
10
0.0688857
20
1.48761
11
0.0688856
21
1.48761
0
LINE
8
BLACK
6
CONTINUOUS
10
0.0688856
20
1.48761
11
0.0609299
21
1.47433
0
LINE
8
BLACK
6
CONTINUOUS
10
0.0609299
20
1.47433
11
0.0543135
21
1.46035
0
LINE
8
BLACK
6
CONTINUOUS
10
0.0543135
20
1.46035
11
0.0543134
21
1.46035
0
LINE
8
BLACK
6
CONTINUOUS
10
0.0543134
20
1.46035
11
0.0491002
21
1.44578
0
LINE
8
BLACK
6
CONTINUOUS
10
0.0491002
20
1.44578
11
0.0491001
21
1.44577
0
LINE
8
BLACK
6
CONTINUOUS
10
0.0491001
20
1.44577
11
0.04534
21
1.43076
0
LINE
8
BLACK
6
CONTINUOUS
10
0.04534
20
1.43076
11
0.04534
21
1.43076
0
LINE
8
BLACK
6
CONTINUOUS
10
0.04534
20
1.43076
11
0.0430694
21
1.41546
0
LINE
8
BLACK
6
CONTINUOUS
10
0.0430694
20
1.41546
11
0.0430694
21
1.41546
0
LINE
8
BLACK
6
CONTINUOUS
10
0.0430694
20
1.41546
11
0.04231
21
1.4
0
LINE
8
BLACK
6
CONTINUOUS
10
0.04231
20
1.4
11
0.04231
21
1.4
0
LINE
8
BLACK
6
CONTINUOUS
10
0.04231
20
1.4
11
0.0430694
21
1.38454
0
LINE
8
BLACK
6
CONTINUOUS
10
0.443069
20
1.38454
11
0.443069
21
1.38454
0
LINE
8
BLACK
6
CONTINUOUS
10
0.443069
20
1.38454
11
0.44534
21
1.36924
0
LINE
8
BLACK
6
CONTINUOUS
10
0.44534
20
1.36924
11
0.44534
21
1.36924
0
LINE
8
BLACK
6
CONTINUOUS
10
0.44534
20
1.36924
11
0.44722
21
1.36173
0
LINE
8
BLACK
6
CONTINUOUS
10
0.44722
20
1.36173
11
0.4491
21
1.35422
0
LINE
8
BLACK
6
CONTINUOUS
10
0.4491
20
1.35422
11
0.454313
21
1.33965
0
LINE
8
BLACK
6
CONTINUOUS
10
0.454313
20
1.33965
11
0.46093
21
1.32567
0
LINE
8
BLACK
6
CONTINUOUS
10
0.46093
20
1.32567
11
0.468886
21
1.31239
0
LINE
8
BLACK
6
CONTINUOUS
10
0.468886
20
1.31239
11
0.478104
21
1.29996
0
LINE
8
BLACK
6
CONTINUOUS
10
0.478104
20
1.29996
11
0.488496
21
1.2885
0
LINE
8
BLACK
6
CONTINUOUS
10
0.488496
20
1.2885
11
0.499963
21
1.2781
0
LINE
8
BLACK
6
CONTINUOUS
10
0.499963
20
1.2781
11
0.512392
21
1.26889
0
LINE
8
BLACK
6
CONTINUOUS
10
0.512392
20
1.26889
11
0.525665
21
1.26093
0
LINE
8
BLACK
6
CONTINUOUS
10
0.525665
20
1.26093
11
0.539655
21
1.25431
0
LINE
8
BLACK
6
CONTINUOUS
10
0.539655
20
1.25431
11
0.554225
21
1.2491
0
LINE
8
BLACK
6
CONTINUOUS
10
0.554225
20
1.2491
11
0.561731
21
1.24722
0
LINE
8
BLACK
6
CONTINUOUS
10
0.561731
20
1.24722
11
0.569236
21
1.24534
0
LINE
8
BLACK
6
CONTINUOUS
10
0.569236
20
1.24534
11
0.569236
21
1.24534
0
LINE
8
BLACK
6
CONTINUOUS
10
0.569236
20
1.24534
11
0.569236
21
1.24534
0
LINE
8
BLACK
6
CONTINUOUS
10
0.569236
20
1.24534
11
0.584543
21
1.24307
0
LINE
8
BLACK
6
CONTINUOUS
10
0.584543
20
1.24307
11
0.584544
21
1.24307
0
LINE
8
BLACK
6
CONTINUOUS
10
0.584544
20
1.24307
11
0.584544
21
1.24307
0
LINE
8
BLACK
6
CONTINUOUS
10
0.584544
20
1.24307
11
0.591168
21
1.24274
0
LINE
8
BLACK
6
CONTINUOUS
10
0.591168
20
1.24274
11
0.6
21
1.24231
0
LINE
8
BLACK
6
CONTINUOUS
10
0.6
20
1.24231
11
0.6
21
1.24231
0
LINE
8
BLACK
6
CONTINUOUS
10
0.6
20
1.24231
11
0.6
21
1.24231
0
LINE
8
BLACK
6
CONTINUOUS
10
0.6
20
1.24231
11
0.607728
21
1.24269
0
LINE
8
BLACK
6
CONTINUOUS
10
0.607728
20
1.24269
11
0.615456
21
1.24307
0
LINE
8
BLACK
6
CONTINUOUS
10
0.615456
20
1.24307
11
0.615456
21
1.24307
0
LINE
8
BLACK
6
CONTINUOUS
10
0.615456
20
1.24307
11
0.615457
21
1.24307
0
LINE
8
BLACK
6
CONTINUOUS
10
0.615457
20
1.24307
11
0.630764
21
1.24534
0
LINE
8
BLACK
6
CONTINUOUS
10
0.630764
20
1.24534
11
0.630764
21
1.24534
0
LINE
8
BLACK
6
CONTINUOUS
10
0.630764
20
1.24534
11
0.642008
21
1.24816
0
LINE
8
BLACK
6
CONTINUOUS
10
0.642008
20
1.24816
11
0.645775
21
1.2491
0
LINE
8
BLACK
6
CONTINUOUS
10
0.645775
20
1.2491
11
0.660345
21
1.25431
0
LINE
8
BLACK
6
CONTINUOUS
10
0.660345
20
1.25431
11
0.660345
21
1.25431
0
LINE
8
BLACK
6
CONTINUOUS
10
0.660345
20
1.25431
11
0.674335
21
1.26093
0
LINE
8
BLACK
6
CONTINUOUS
10
0.674335
20
1.26093
11
0.678805
21
1.26361
0
LINE
8
BLACK
6
CONTINUOUS
10
0.678805
20
1.26361
11
0.687608
21
1.26889
0
LINE
8
BLACK
6
CONTINUOUS
10
0.687608
20
1.26889
11
0.700037
21
1.2781
0
LINE
8
BLACK
6
CONTINUOUS
10
0.700037
20
1.2781
11
0.700037
21
1.2781
0
LINE
8
BLACK
6
CONTINUOUS
10
0.700037
20
1.2781
11
0.711504
21
1.2885
0
LINE
8
BLACK
6
CONTINUOUS
10
0.711504
20
1.2885
11
0.721896
21
1.29996
0
LINE
8
BLACK
6
CONTINUOUS
10
0.721896
20
1.29996
11
0.721896
21
1.29996
0
LINE
8
BLACK
6
CONTINUOUS
10
0.721896
20
1.29996
11
0.721896
21
1.29996
0
LINE
8
BLACK
6
CONTINUOUS
10
0.721896
20
1.29996
11
0.731114
21
1.31239
0
LINE
8
BLACK
6
CONTINUOUS
10
0.731114
20
1.31239
11
0.731114
21
1.31239
0
LINE
8
BLACK
6
CONTINUOUS
10
0.731114
20
1.31239
11
0.73907
21
1.32567
0
LINE
8
BLACK
6
CONTINUOUS
10
0.73907
20
1.32567
11
0.745687
21
1.33965
0
LINE
8
BLACK
6
CONTINUOUS
10
0.745687
20
1.33965
11
0.7509
21
1.35423
0
LINE
8
BLACK
6
CONTINUOUS
10
0.7509
20
1.35423
11
0.75466
21
1.36924
0
LINE
8
BLACK
6
CONTINUOUS
10
0.75466
20
1.36924
11
0.756931
21
1.38454
0
LINE
8
BLACK
6
CONTINUOUS
10
0.756931
20
1.38454
11
0.75769
21
1.4
0
LINE
8
BLACK
6
CONTINUOUS
10
0.75769
20
1.4
11
0.756931
21
1.41546
0
LINE
8
BLACK
6
CONTINUOUS
10
0.756931
20
1.41546
11
0.75466
21
1.43076
0
LINE
8
BLACK
6
CONTINUOUS
10
0.75466
20
1.43076
11
0.7509
21
1.44577
0
LINE
8
BLACK
6
CONTINUOUS
10
0.7509
20
1.44577
11
0.745687
21
1.46035
0
LINE
8
BLACK
6
CONTINUOUS
10
0.745687
20
1.46035
11
0.73907
21
1.47433
0
LINE
8
BLACK
6
CONTINUOUS
10
0.73907
20
1.47433
11
0.731114
21
1.48761
0
LINE
8
BLACK
6
CONTINUOUS
10
0.731114
20
1.48761
11
0.721896
21
1.50004
0
LINE
8
BLACK
6
CONTINUOUS
10
0.721896
20
1.50004
11
0.711504
21
1.5115
0
LINE
8
BLACK
6
CONTINUOUS
10
0.711504
20
1.5115
11
0.700037
21
1.5219
0
LINE
8
BLACK
6
CONTINUOUS
10
0.700037
20
1.5219
11
0.687608
21
1.53111
0
LINE
8
BLACK
6
CONTINUOUS
10
0.687608
20
1.53111
11
0.674335
21
1.53907
0
LINE
8
BLACK
6
CONTINUOUS
10
0.674335
20
1.53907
11
0.660345
21
1.54569
0
LINE
8
BLACK
6
CONTINUOUS
10
0.660345
20
1.54569
11
0.645775
21
1.5509
0
LINE
8
BLACK
6
CONTINUOUS
10
0.645775
20
1.5509
11
0.630764
21
1.55466
0
LINE
8
BLACK
6
CONTINUOUS
10
0.630764
20
1.55466
11
0.615456
21
1.55693
0
LINE
8
BLACK
6
CONTINUOUS
10
0.615456
20
1.55693
11
0.60218
21
1.55758
0
LINE
8
BLACK
6
CONTINUOUS
10
0.60218
20
1.55758
11
0.6
21
1.55769
0
LINE
8
BLACK
6
CONTINUOUS
10
0.6
20
1.55769
11
0.6
21
1.55769
0
LINE
8
BLACK
6
CONTINUOUS
10
0.6
20
1.55769
11
0.59774
21
1.55758
0
LINE
8
BLACK
6
CONTINUOUS
10
0.59774
20
1.55758
11
0.584544
21
1.55693
0
LINE
8
BLACK
6
CONTINUOUS
10
0.584544
20
1.55693
11
0.569236
21
1.55466
0
LINE
8
BLACK
6
CONTINUOUS
10
0.569236
20
1.55466
11
0.554225
21
1.5509
0
LINE
8
BLACK
6
CONTINUOUS
10
0.554225
20
1.5509
11
0.539655
21
1.54569
0
LINE
8
BLACK
6
CONTINUOUS
10
0.539655
20
1.54569
11
0.525665
21
1.53907
0
LINE
8
BLACK
6
CONTINUOUS
10
0.525665
20
1.53907
11
0.512392
21
1.53111
0
LINE
8
BLACK
6
CONTINUOUS
10
0.512392
20
1.53111
11
0.512392
21
1.53111
0
LINE
8
BLACK
6
CONTINUOUS
10
0.512392
20
1.53111
11
0.499963
21
1.5219
0
LINE
8
BLACK
6
CONTINUOUS
10
0.499963
20
1.5219
11
0.499963
21
1.5219
0
LINE
8
BLACK
6
CONTINUOUS
10
0.499963
20
1.5219
11
0.499963
21
1.5219
0
LINE
8
BLACK
6
CONTINUOUS
10
0.499963
20
1.5219
11
0.488496
21
1.5115
0
LINE
8
BLACK
6
CONTINUOUS
10
0.488496
20
1.5115
11
0.478104
21
1.50004
0
LINE
8
BLACK
6
CONTINUOUS
10
0.478104
20
1.50004
11
0.478104
21
1.50004
0
LINE
8
BLACK
6
CONTINUOUS
10
0.478104
20
1.50004
11
0.468886
21
1.48761
0
LINE
8
BLACK
6
CONTINUOUS
10
0.468886
20
1.48761
11
0.468886
21
1.48761
0
LINE
8
BLACK
6
CONTINUOUS
10
0.468886
20
1.48761
11
0.46093
21
1.47433
0
LINE
8
BLACK
6
CONTINUOUS
10
0.46093
20
1.47433
11
0.454313
21
1.46035
0
LINE
8
BLACK
6
CONTINUOUS
10
0.454313
20
1.46035
11
0.454313
21
1.46035
0
LINE
8
BLACK
6
CONTINUOUS
10
0.454313
20
1.46035
11
0.4491
21
1.44578
0
LINE
8
BLACK
6
CONTINUOUS
10
0.4491
20
1.44578
11
0.4491
21
1.44577
0
LINE
8
BLACK
6
CONTINUOUS
10
0.4491
20
1.44577
11
0.44534
21
1.43076
0
LINE
8
BLACK
6
CONTINUOUS
10
0.44534
20
1.43076
11
0.44534
21
1.43076
0
LINE
8
BLACK
6
CONTINUOUS
10
0.44534
20
1.43076
11
0.443069
21
1.41546
0
LINE
8
BLACK
6
CONTINUOUS
10
0.443069
20
1.41546
11
0.443069
21
1.41546
0
LINE
8
BLACK
6
CONTINUOUS
10
0.443069
20
1.41546
11
0.44231
21
1.4
0
LINE
8
BLACK
6
CONTINUOUS
10
0.44231
20
1.4
11
0.44231
21
1.4
0
LINE
8
BLACK
6
CONTINUOUS
10
0.44231
20
1.4
11
0.443069
21
1.38454
0
CIRCLE
8
BLACK
10
0.6
20
1.4
40
0.00688976
0
CIRCLE
8
BLACK
10
0.6
20
0.2
40
0.00688976
0
CIRCLE
8
BLACK
10
0.2
20
0.2
40
0.00688976
0
CIRCLE
8
BLACK
10
0.2
20
1.4
40
0.00688976
0
CIRCLE
8
BLACK
10
0.62
20
1.165
40
0.00688976
0
CIRCLE
8
BLACK
10
0.72
20
1.165
40
0.00688976
0
CIRCLE
8
BLACK
10
0.62
20
1.065
40
0.00688976
0
CIRCLE
8
BLACK
10
0.72
20
1.065
40
0.00688976
0
CIRCLE
8
BLACK
10
0.62
20
0.965
40
0.00688976
0
CIRCLE
8
BLACK
10
0.72
20
0.965
40
0.00688976
0
CIRCLE
8
BLACK
10
0.1
20
0.885
40
0.00688976
0
CIRCLE
8
BLACK
10
0.1
20
0.985
40
0.00688976
0
CIRCLE
8
BLACK
10
0.62
20
0.7
40
0.00688976
0
CIRCLE
8
BLACK
10
0.72
20
0.7
40
0.00688976
0
CIRCLE
8
BLACK
10
0.62
20
0.6
40
0.00688976
0
CIRCLE
8
BLACK
10
0.72
20
0.6
40
0.00688976
0
CIRCLE
8
BLACK
10
0.62
20
0.5
40
0.00688976
0
CIRCLE
8
BLACK
10
0.72
20
0.5
40
0.00688976
0
CIRCLE
8
BLACK
10
0.62
20
0.4
40
0.00688976
0
CIRCLE
8
BLACK
10
0.72
20
0.4
40
0.00688976
0
CIRCLE
8
BLACK
10
0.055
20
0.53
40
0.00787402
0
CIRCLE
8
BLACK
10
0.11
20
0.53
40
0.00787402
0
CIRCLE
8
BLACK
10
0.465
20
0.71
40
0.00787402
0
CIRCLE
8
BLACK
10
0.195
20
1.05
40
0.00787402
0
CIRCLE
8
BLACK
10
0.665
20
0.77
40
0.00787402
0
CIRCLE
8
BLACK
10
0.19
20
0.495
40
0.00787402
0
CIRCLE
8
BLACK
10
0.355
20
0.775
40
0.00787402
0
CIRCLE
8
BLACK
10
0.315
20
0.81
40
0.00787402
0
CIRCLE
8
BLACK
10
0.19
20
0.445
40
0.00787402
0
CIRCLE
8
BLACK
10
0.725
20
0.77
40
0.00787402
0
CIRCLE
8
BLACK
10
0.365
20
0.67
40
0.00787402
0
CIRCLE
8
BLACK
10
0.5
20
1.165
40
0.00787402
0
CIRCLE
8
BLACK
10
0.165
20
0.885
40
0.00787402
0
CIRCLE
8
BLACK
10
0.19
20
0.4
40
0.00787402
0
CIRCLE
8
BLACK
10
0.355
20
0.72
40
0.00787402
0
CIRCLE
8
BLACK
10
0.55
20
1.165
40
0.00787402
0
CIRCLE
8
BLACK
10
0.725
20
0.895
40
0.00787402
0
CIRCLE
8
BLACK
10
0.25
20
1.05
40
0.00787402
0
CIRCLE
8
BLACK
10
0.395
20
0.71
40
0.00787402
0
CIRCLE
8
BLACK
10
0.265
20
0.81
40
0.00787402
0
CIRCLE
8
BLACK
10
0.055
20
0.585
40
0.00787402
0
CIRCLE
8
BLACK
10
0.62
20
0.895
40
0.00787402
0
CIRCLE
8
BLACK
10
0.615
20
0.77
40
0.00787402
0
CIRCLE
8
BLACK
10
0.19
20
1.13
40
0.00787402
0
CIRCLE
8
BLACK
10
0.67
20
0.895
40
0.00787402
0
CIRCLE
8
BLACK
10
0.155
20
0.53
40
0.00787402
  0
ENDSEC
  0
EOF
