  0
SECTION
  2
HEADER
  9
$ANGBASE
  50
0.0
  9
$ANGDIR
  70
1
  9
$MEASUREMENT
  70
0
  0
ENDSEC
  0
SECTION
  2
TABLES
  0
TABLE
  2
LTYPE
  70
4
  0
LTYPE
  5
40F
  2
CONTINUOUS
  70
0
  3
Solid line
  72
65
  73
0
  40
0.0
  0
LTYPE
  5
410
  2
DASHDOT
 70
0
  3
Dash Dot ____ _ ____ _
 72
65
 73
4
 40
2.0
 49
1.25
 49
-0.25
 49
0.25
 49
-0.25
  0
LTYPE
  5
411
  2
DASHED
 70
0
  3
Dashed __ __ __ __ __
 72
65
 73
2
 40
0.75
 49
0.5
 49
-0.25
  0
LTYPE
  5
43B
  2
DOTTED
 70
0
  3
Dotted .  .  .  .
 72
65
 73
2
 40
0.2
 49
0.0
 49
-0.2
  0
ENDTAB
  0
TABLE
  2
STYLE
  70
4
  0
STYLE
  2
KICAD
  70
0
  40
0
  41
1
  42
1
  50
0
  71
0
  3
isocp.shx
  0
STYLE
  2
KICADB
  70
0
  40
0
  41
1
  42
1
  50
0
  71
0
  3
isocp.shx
  0
STYLE
  2
KICADI
  70
0
  40
0
  41
1
  42
1
  50
15
  71
0
  3
isocp.shx
  0
STYLE
  2
KICADBI
  70
0
  40
0
  41
1
  42
1
  50
15
  71
0
  3
isocp.shx
  0
ENDTAB
  0
TABLE
  2
LAYER
  70
1
  0
LAYER
  2
BLACK
  70
0
  62
7
  6
CONTINUOUS
  0
ENDTAB
  0
ENDSEC
  0
SECTION
  2
ENTITIES
0
LINE
8
BLACK
6
CONTINUOUS
10
0.370506
20
0.38353
11
0.371754
21
0.383326
0
LINE
8
BLACK
6
CONTINUOUS
10
0.371754
20
0.383326
11
0.37199
21
0.383132
0
LINE
8
BLACK
6
CONTINUOUS
10
0.37199
20
0.383132
11
0.372286
21
0.383053
0
LINE
8
BLACK
6
CONTINUOUS
10
0.372286
20
0.383053
11
0.373179
21
0.38216
0
LINE
8
BLACK
6
CONTINUOUS
10
0.373179
20
0.38216
11
0.374158
21
0.381359
0
LINE
8
BLACK
6
CONTINUOUS
10
0.374158
20
0.381359
11
0.374266
21
0.381073
0
LINE
8
BLACK
6
CONTINUOUS
10
0.374266
20
0.381073
11
0.374482
21
0.380857
0
LINE
8
BLACK
6
CONTINUOUS
10
0.374482
20
0.380857
11
0.374809
21
0.379636
0
LINE
8
BLACK
6
CONTINUOUS
10
0.374809
20
0.379636
11
0.375256
21
0.378454
0
LINE
8
BLACK
6
CONTINUOUS
10
0.375256
20
0.378454
11
0.378113
21
0.349883
0
LINE
8
BLACK
6
CONTINUOUS
10
0.378113
20
0.349883
11
0.377938
21
0.348815
0
LINE
8
BLACK
6
CONTINUOUS
10
0.377938
20
0.348815
11
0.377938
21
0.347733
0
LINE
8
BLACK
6
CONTINUOUS
10
0.377938
20
0.347733
11
0.377691
21
0.347305
0
LINE
8
BLACK
6
CONTINUOUS
10
0.377691
20
0.347305
11
0.377612
21
0.346818
0
LINE
8
BLACK
6
CONTINUOUS
10
0.377612
20
0.346818
11
0.376926
21
0.34598
0
LINE
8
BLACK
6
CONTINUOUS
10
0.376926
20
0.34598
11
0.376385
21
0.345043
0
LINE
8
BLACK
6
CONTINUOUS
10
0.376385
20
0.345043
11
0.375958
21
0.344796
0
LINE
8
BLACK
6
CONTINUOUS
10
0.375958
20
0.344796
11
0.375645
21
0.344414
0
LINE
8
BLACK
6
CONTINUOUS
10
0.375645
20
0.344414
11
0.374633
21
0.344031
0
LINE
8
BLACK
6
CONTINUOUS
10
0.374633
20
0.344031
11
0.373696
21
0.34349
0
LINE
8
BLACK
6
CONTINUOUS
10
0.373696
20
0.34349
11
0.373202
21
0.34349
0
LINE
8
BLACK
6
CONTINUOUS
10
0.373202
20
0.34349
11
0.37274
21
0.343315
0
LINE
8
BLACK
6
CONTINUOUS
10
0.37274
20
0.343315
11
0.371672
21
0.34349
0
LINE
8
BLACK
6
CONTINUOUS
10
0.371672
20
0.34349
11
0.37059
21
0.34349
0
LINE
8
BLACK
6
CONTINUOUS
10
0.37059
20
0.34349
11
0.370162
21
0.343737
0
LINE
8
BLACK
6
CONTINUOUS
10
0.370162
20
0.343737
11
0.369675
21
0.343817
0
LINE
8
BLACK
6
CONTINUOUS
10
0.369675
20
0.343817
11
0.368837
21
0.344502
0
LINE
8
BLACK
6
CONTINUOUS
10
0.368837
20
0.344502
11
0.3679
21
0.345043
0
LINE
8
BLACK
6
CONTINUOUS
10
0.3679
20
0.345043
11
0.365732
21
0.347212
0
LINE
8
BLACK
6
CONTINUOUS
10
0.365732
20
0.347212
11
0.362155
21
0.349
0
LINE
8
BLACK
6
CONTINUOUS
10
0.362155
20
0.349
11
0.350702
21
0.349
0
LINE
8
BLACK
6
CONTINUOUS
10
0.350702
20
0.349
11
0.347126
21
0.347212
0
LINE
8
BLACK
6
CONTINUOUS
10
0.347126
20
0.347212
11
0.345645
21
0.345732
0
LINE
8
BLACK
6
CONTINUOUS
10
0.345645
20
0.345732
11
0.343857
21
0.342155
0
LINE
8
BLACK
6
CONTINUOUS
10
0.343857
20
0.342155
11
0.343857
21
0.330702
0
LINE
8
BLACK
6
CONTINUOUS
10
0.343857
20
0.330702
11
0.345645
21
0.327126
0
LINE
8
BLACK
6
CONTINUOUS
10
0.345645
20
0.327126
11
0.347126
21
0.325645
0
LINE
8
BLACK
6
CONTINUOUS
10
0.347126
20
0.325645
11
0.350702
21
0.323857
0
LINE
8
BLACK
6
CONTINUOUS
10
0.350702
20
0.323857
11
0.362155
21
0.323857
0
LINE
8
BLACK
6
CONTINUOUS
10
0.362155
20
0.323857
11
0.365732
21
0.325645
0
LINE
8
BLACK
6
CONTINUOUS
10
0.365732
20
0.325645
11
0.3679
21
0.327814
0
LINE
8
BLACK
6
CONTINUOUS
10
0.3679
20
0.327814
11
0.37059
21
0.329367
0
LINE
8
BLACK
6
CONTINUOUS
10
0.37059
20
0.329367
11
0.373696
21
0.329367
0
LINE
8
BLACK
6
CONTINUOUS
10
0.373696
20
0.329367
11
0.376385
21
0.327814
0
LINE
8
BLACK
6
CONTINUOUS
10
0.376385
20
0.327814
11
0.377938
21
0.325124
0
LINE
8
BLACK
6
CONTINUOUS
10
0.377938
20
0.325124
11
0.377938
21
0.322019
0
LINE
8
BLACK
6
CONTINUOUS
10
0.377938
20
0.322019
11
0.376386
21
0.319329
0
LINE
8
BLACK
6
CONTINUOUS
10
0.376386
20
0.319329
11
0.373528
21
0.316472
0
LINE
8
BLACK
6
CONTINUOUS
10
0.373528
20
0.316472
11
0.372692
21
0.315989
0
LINE
8
BLACK
6
CONTINUOUS
10
0.372692
20
0.315989
11
0.371969
21
0.315348
0
LINE
8
BLACK
6
CONTINUOUS
10
0.371969
20
0.315348
11
0.366255
21
0.312491
0
LINE
8
BLACK
6
CONTINUOUS
10
0.366255
20
0.312491
11
0.364904
21
0.312214
0
LINE
8
BLACK
6
CONTINUOUS
10
0.364904
20
0.312214
11
0.363571
21
0.311857
0
LINE
8
BLACK
6
CONTINUOUS
10
0.363571
20
0.311857
11
0.349286
21
0.311857
0
LINE
8
BLACK
6
CONTINUOUS
10
0.349286
20
0.311857
11
0.347954
21
0.312214
0
LINE
8
BLACK
6
CONTINUOUS
10
0.347954
20
0.312214
11
0.346602
21
0.312491
0
LINE
8
BLACK
6
CONTINUOUS
10
0.346602
20
0.312491
11
0.340888
21
0.315348
0
LINE
8
BLACK
6
CONTINUOUS
10
0.340888
20
0.315348
11
0.340165
21
0.315989
0
LINE
8
BLACK
6
CONTINUOUS
10
0.340165
20
0.315989
11
0.339329
21
0.316472
0
LINE
8
BLACK
6
CONTINUOUS
10
0.339329
20
0.316472
11
0.336472
21
0.319329
0
LINE
8
BLACK
6
CONTINUOUS
10
0.336472
20
0.319329
11
0.335989
21
0.320165
0
LINE
8
BLACK
6
CONTINUOUS
10
0.335989
20
0.320165
11
0.335348
21
0.320888
0
LINE
8
BLACK
6
CONTINUOUS
10
0.335348
20
0.320888
11
0.332491
21
0.326602
0
LINE
8
BLACK
6
CONTINUOUS
10
0.332491
20
0.326602
11
0.332214
21
0.327954
0
LINE
8
BLACK
6
CONTINUOUS
10
0.332214
20
0.327954
11
0.331857
21
0.329286
0
LINE
8
BLACK
6
CONTINUOUS
10
0.331857
20
0.329286
11
0.331857
21
0.343571
0
LINE
8
BLACK
6
CONTINUOUS
10
0.331857
20
0.343571
11
0.332214
21
0.344904
0
LINE
8
BLACK
6
CONTINUOUS
10
0.332214
20
0.344904
11
0.332491
21
0.346255
0
LINE
8
BLACK
6
CONTINUOUS
10
0.332491
20
0.346255
11
0.335348
21
0.351969
0
LINE
8
BLACK
6
CONTINUOUS
10
0.335348
20
0.351969
11
0.335989
21
0.352692
0
LINE
8
BLACK
6
CONTINUOUS
10
0.335989
20
0.352692
11
0.336472
21
0.353528
0
LINE
8
BLACK
6
CONTINUOUS
10
0.336472
20
0.353528
11
0.339329
21
0.356386
0
LINE
8
BLACK
6
CONTINUOUS
10
0.339329
20
0.356386
11
0.340165
21
0.356868
0
LINE
8
BLACK
6
CONTINUOUS
10
0.340165
20
0.356868
11
0.340888
21
0.357509
0
LINE
8
BLACK
6
CONTINUOUS
10
0.340888
20
0.357509
11
0.346602
21
0.360367
0
LINE
8
BLACK
6
CONTINUOUS
10
0.346602
20
0.360367
11
0.347954
21
0.360643
0
LINE
8
BLACK
6
CONTINUOUS
10
0.347954
20
0.360643
11
0.349286
21
0.361
0
LINE
8
BLACK
6
CONTINUOUS
10
0.349286
20
0.361
11
0.363571
21
0.361
0
LINE
8
BLACK
6
CONTINUOUS
10
0.363571
20
0.361
11
0.364903
21
0.360643
0
LINE
8
BLACK
6
CONTINUOUS
10
0.364903
20
0.360643
11
0.364979
21
0.360628
0
LINE
8
BLACK
6
CONTINUOUS
10
0.364979
20
0.360628
11
0.363856
21
0.371857
0
LINE
8
BLACK
6
CONTINUOUS
10
0.363856
20
0.371857
11
0.340714
21
0.371857
0
LINE
8
BLACK
6
CONTINUOUS
10
0.340714
20
0.371857
11
0.337714
21
0.372661
0
LINE
8
BLACK
6
CONTINUOUS
10
0.337714
20
0.372661
11
0.335518
21
0.374857
0
LINE
8
BLACK
6
CONTINUOUS
10
0.335518
20
0.374857
11
0.334714
21
0.377857
0
LINE
8
BLACK
6
CONTINUOUS
10
0.334714
20
0.377857
11
0.335518
21
0.380857
0
LINE
8
BLACK
6
CONTINUOUS
10
0.335518
20
0.380857
11
0.337714
21
0.383053
0
LINE
8
BLACK
6
CONTINUOUS
10
0.337714
20
0.383053
11
0.340714
21
0.383857
0
LINE
8
BLACK
6
CONTINUOUS
10
0.340714
20
0.383857
11
0.369286
21
0.383857
0
LINE
8
BLACK
6
CONTINUOUS
10
0.369286
20
0.383857
11
0.370506
21
0.38353
0
LINE
8
BLACK
6
CONTINUOUS
10
0.413076
20
0.383607
11
0.41404
21
0.383549
0
LINE
8
BLACK
6
CONTINUOUS
10
0.41404
20
0.383549
11
0.422612
21
0.380692
0
LINE
8
BLACK
6
CONTINUOUS
10
0.422612
20
0.380692
11
0.423762
21
0.379932
0
LINE
8
BLACK
6
CONTINUOUS
10
0.423762
20
0.379932
11
0.424957
21
0.379243
0
LINE
8
BLACK
6
CONTINUOUS
10
0.424957
20
0.379243
11
0.430671
21
0.373528
0
LINE
8
BLACK
6
CONTINUOUS
10
0.430671
20
0.373528
11
0.431154
21
0.372692
0
LINE
8
BLACK
6
CONTINUOUS
10
0.431154
20
0.372692
11
0.431795
21
0.371969
0
LINE
8
BLACK
6
CONTINUOUS
10
0.431795
20
0.371969
11
0.434652
21
0.366255
0
LINE
8
BLACK
6
CONTINUOUS
10
0.434652
20
0.366255
11
0.434785
21
0.365606
0
LINE
8
BLACK
6
CONTINUOUS
10
0.434785
20
0.365606
11
0.435107
21
0.365027
0
LINE
8
BLACK
6
CONTINUOUS
10
0.435107
20
0.365027
11
0.437964
21
0.353598
0
LINE
8
BLACK
6
CONTINUOUS
10
0.437964
20
0.353598
11
0.437951
21
0.352858
0
LINE
8
BLACK
6
CONTINUOUS
10
0.437951
20
0.352858
11
0.438143
21
0.352143
0
LINE
8
BLACK
6
CONTINUOUS
10
0.438143
20
0.352143
11
0.438143
21
0.343571
0
LINE
8
BLACK
6
CONTINUOUS
10
0.438143
20
0.343571
11
0.437951
21
0.342856
0
LINE
8
BLACK
6
CONTINUOUS
10
0.437951
20
0.342856
11
0.437964
21
0.342116
0
LINE
8
BLACK
6
CONTINUOUS
10
0.437964
20
0.342116
11
0.435107
21
0.330688
0
LINE
8
BLACK
6
CONTINUOUS
10
0.435107
20
0.330688
11
0.434785
21
0.330109
0
LINE
8
BLACK
6
CONTINUOUS
10
0.434785
20
0.330109
11
0.434652
21
0.32946
0
LINE
8
BLACK
6
CONTINUOUS
10
0.434652
20
0.32946
11
0.431795
21
0.323745
0
LINE
8
BLACK
6
CONTINUOUS
10
0.431795
20
0.323745
11
0.431154
21
0.323022
0
LINE
8
BLACK
6
CONTINUOUS
10
0.431154
20
0.323022
11
0.430671
21
0.322186
0
LINE
8
BLACK
6
CONTINUOUS
10
0.430671
20
0.322186
11
0.424957
21
0.316472
0
LINE
8
BLACK
6
CONTINUOUS
10
0.424957
20
0.316472
11
0.423762
21
0.315782
0
LINE
8
BLACK
6
CONTINUOUS
10
0.423762
20
0.315782
11
0.422612
21
0.315022
0
LINE
8
BLACK
6
CONTINUOUS
10
0.422612
20
0.315022
11
0.41404
21
0.312165
0
LINE
8
BLACK
6
CONTINUOUS
10
0.41404
20
0.312165
11
0.413076
21
0.312107
0
LINE
8
BLACK
6
CONTINUOUS
10
0.413076
20
0.312107
11
0.412143
21
0.311857
0
LINE
8
BLACK
6
CONTINUOUS
10
0.412143
20
0.311857
11
0.406429
21
0.311857
0
LINE
8
BLACK
6
CONTINUOUS
10
0.406429
20
0.311857
11
0.405496
21
0.312107
0
LINE
8
BLACK
6
CONTINUOUS
10
0.405496
20
0.312107
11
0.404531
21
0.312165
0
LINE
8
BLACK
6
CONTINUOUS
10
0.404531
20
0.312165
11
0.39596
21
0.315022
0
LINE
8
BLACK
6
CONTINUOUS
10
0.39596
20
0.315022
11
0.394809
21
0.315782
0
LINE
8
BLACK
6
CONTINUOUS
10
0.394809
20
0.315782
11
0.393614
21
0.316472
0
LINE
8
BLACK
6
CONTINUOUS
10
0.393614
20
0.316472
11
0.390757
21
0.319329
0
LINE
8
BLACK
6
CONTINUOUS
10
0.390757
20
0.319329
11
0.389204
21
0.322019
0
LINE
8
BLACK
6
CONTINUOUS
10
0.389204
20
0.322019
11
0.389204
21
0.325124
0
LINE
8
BLACK
6
CONTINUOUS
10
0.389204
20
0.325124
11
0.390757
21
0.327814
0
LINE
8
BLACK
6
CONTINUOUS
10
0.390757
20
0.327814
11
0.393447
21
0.329367
0
LINE
8
BLACK
6
CONTINUOUS
10
0.393447
20
0.329367
11
0.396553
21
0.329367
0
LINE
8
BLACK
6
CONTINUOUS
10
0.396553
20
0.329367
11
0.399243
21
0.327814
0
LINE
8
BLACK
6
CONTINUOUS
10
0.399243
20
0.327814
11
0.401098
21
0.325958
0
LINE
8
BLACK
6
CONTINUOUS
10
0.401098
20
0.325958
11
0.407402
21
0.323857
0
LINE
8
BLACK
6
CONTINUOUS
10
0.407402
20
0.323857
11
0.411169
21
0.323857
0
LINE
8
BLACK
6
CONTINUOUS
10
0.411169
20
0.323857
11
0.417473
21
0.325958
0
LINE
8
BLACK
6
CONTINUOUS
10
0.417473
20
0.325958
11
0.421497
21
0.329983
0
LINE
8
BLACK
6
CONTINUOUS
10
0.421497
20
0.329983
11
0.423625
21
0.334237
0
LINE
8
BLACK
6
CONTINUOUS
10
0.423625
20
0.334237
11
0.426143
21
0.34431
0
LINE
8
BLACK
6
CONTINUOUS
10
0.426143
20
0.34431
11
0.426143
21
0.351404
0
LINE
8
BLACK
6
CONTINUOUS
10
0.426143
20
0.351404
11
0.423625
21
0.361477
0
LINE
8
BLACK
6
CONTINUOUS
10
0.423625
20
0.361477
11
0.421497
21
0.365732
0
LINE
8
BLACK
6
CONTINUOUS
10
0.421497
20
0.365732
11
0.417473
21
0.369756
0
LINE
8
BLACK
6
CONTINUOUS
10
0.417473
20
0.369756
11
0.411169
21
0.371857
0
LINE
8
BLACK
6
CONTINUOUS
10
0.411169
20
0.371857
11
0.407402
21
0.371857
0
LINE
8
BLACK
6
CONTINUOUS
10
0.407402
20
0.371857
11
0.401098
21
0.369756
0
LINE
8
BLACK
6
CONTINUOUS
10
0.401098
20
0.369756
11
0.399243
21
0.3679
0
LINE
8
BLACK
6
CONTINUOUS
10
0.399243
20
0.3679
11
0.396553
21
0.366347
0
LINE
8
BLACK
6
CONTINUOUS
10
0.396553
20
0.366347
11
0.393447
21
0.366347
0
LINE
8
BLACK
6
CONTINUOUS
10
0.393447
20
0.366347
11
0.390757
21
0.3679
0
LINE
8
BLACK
6
CONTINUOUS
10
0.390757
20
0.3679
11
0.389204
21
0.37059
0
LINE
8
BLACK
6
CONTINUOUS
10
0.389204
20
0.37059
11
0.389204
21
0.373696
0
LINE
8
BLACK
6
CONTINUOUS
10
0.389204
20
0.373696
11
0.390757
21
0.376385
0
LINE
8
BLACK
6
CONTINUOUS
10
0.390757
20
0.376385
11
0.393614
21
0.379243
0
LINE
8
BLACK
6
CONTINUOUS
10
0.393614
20
0.379243
11
0.394809
21
0.379932
0
LINE
8
BLACK
6
CONTINUOUS
10
0.394809
20
0.379932
11
0.39596
21
0.380692
0
LINE
8
BLACK
6
CONTINUOUS
10
0.39596
20
0.380692
11
0.404531
21
0.383549
0
LINE
8
BLACK
6
CONTINUOUS
10
0.404531
20
0.383549
11
0.405496
21
0.383607
0
LINE
8
BLACK
6
CONTINUOUS
10
0.405496
20
0.383607
11
0.406429
21
0.383857
0
LINE
8
BLACK
6
CONTINUOUS
10
0.406429
20
0.383857
11
0.412143
21
0.383857
0
LINE
8
BLACK
6
CONTINUOUS
10
0.412143
20
0.383857
11
0.413076
21
0.383607
0
LINE
8
BLACK
6
CONTINUOUS
10
0.48351
20
0.395875
11
0.485057
21
0.394576
0
LINE
8
BLACK
6
CONTINUOUS
10
0.485057
20
0.394576
11
0.485408
21
0.392587
0
LINE
8
BLACK
6
CONTINUOUS
10
0.485408
20
0.392587
11
0.484398
21
0.390838
0
LINE
8
BLACK
6
CONTINUOUS
10
0.484398
20
0.390838
11
0.4825
21
0.390147
0
LINE
8
BLACK
6
CONTINUOUS
10
0.4825
20
0.390147
11
0.2463
21
0.390147
0
LINE
8
BLACK
6
CONTINUOUS
10
0.2463
20
0.390147
11
0.24529
21
0.390325
0
LINE
8
BLACK
6
CONTINUOUS
10
0.24529
20
0.390325
11
0.243743
21
0.391624
0
LINE
8
BLACK
6
CONTINUOUS
10
0.243743
20
0.391624
11
0.243392
21
0.393613
0
LINE
8
BLACK
6
CONTINUOUS
10
0.243392
20
0.393613
11
0.244402
21
0.395362
0
LINE
8
BLACK
6
CONTINUOUS
10
0.244402
20
0.395362
11
0.2463
21
0.396053
0
LINE
8
BLACK
6
CONTINUOUS
10
0.2463
20
0.396053
11
0.4825
21
0.396053
0
LINE
8
BLACK
6
CONTINUOUS
10
0.4825
20
0.396053
11
0.48351
21
0.395875
0
LINE
8
BLACK
6
CONTINUOUS
10
0.536662
20
0.528898
11
0.537353
21
0.527
0
LINE
8
BLACK
6
CONTINUOUS
10
0.537353
20
0.527
11
0.537353
21
0.3932
0
LINE
8
BLACK
6
CONTINUOUS
10
0.537353
20
0.3932
11
0.537175
21
0.39219
0
LINE
8
BLACK
6
CONTINUOUS
10
0.537175
20
0.39219
11
0.535876
21
0.390643
0
LINE
8
BLACK
6
CONTINUOUS
10
0.535876
20
0.390643
11
0.533887
21
0.390292
0
LINE
8
BLACK
6
CONTINUOUS
10
0.533887
20
0.390292
11
0.533856
21
0.39031
0
LINE
8
BLACK
6
CONTINUOUS
10
0.533856
20
0.39031
11
0.533187
21
0.390192
0
LINE
8
BLACK
6
CONTINUOUS
10
0.533187
20
0.390192
11
0.531438
21
0.391202
0
LINE
8
BLACK
6
CONTINUOUS
10
0.531438
20
0.391202
11
0.530747
21
0.3931
0
LINE
8
BLACK
6
CONTINUOUS
10
0.530747
20
0.3931
11
0.530747
21
0.5269
0
LINE
8
BLACK
6
CONTINUOUS
10
0.530747
20
0.5269
11
0.530925
21
0.52791
0
LINE
8
BLACK
6
CONTINUOUS
10
0.530925
20
0.52791
11
0.532224
21
0.529457
0
LINE
8
BLACK
6
CONTINUOUS
10
0.532224
20
0.529457
11
0.534213
21
0.529808
0
LINE
8
BLACK
6
CONTINUOUS
10
0.534213
20
0.529808
11
0.534244
21
0.52979
0
LINE
8
BLACK
6
CONTINUOUS
10
0.534244
20
0.52979
11
0.534913
21
0.529908
0
LINE
8
BLACK
6
CONTINUOUS
10
0.534913
20
0.529908
11
0.536662
21
0.528898
0
LINE
8
BLACK
6
CONTINUOUS
10
0.48441
20
0.529775
11
0.485957
21
0.528476
0
LINE
8
BLACK
6
CONTINUOUS
10
0.485957
20
0.528476
11
0.486308
21
0.526487
0
LINE
8
BLACK
6
CONTINUOUS
10
0.486308
20
0.526487
11
0.485298
21
0.524738
0
LINE
8
BLACK
6
CONTINUOUS
10
0.485298
20
0.524738
11
0.4834
21
0.524047
0
LINE
8
BLACK
6
CONTINUOUS
10
0.4834
20
0.524047
11
0.2472
21
0.524047
0
LINE
8
BLACK
6
CONTINUOUS
10
0.2472
20
0.524047
11
0.24619
21
0.524225
0
LINE
8
BLACK
6
CONTINUOUS
10
0.24619
20
0.524225
11
0.244643
21
0.525524
0
LINE
8
BLACK
6
CONTINUOUS
10
0.244643
20
0.525524
11
0.244292
21
0.527513
0
LINE
8
BLACK
6
CONTINUOUS
10
0.244292
20
0.527513
11
0.245302
21
0.529262
0
LINE
8
BLACK
6
CONTINUOUS
10
0.245302
20
0.529262
11
0.2472
21
0.529953
0
LINE
8
BLACK
6
CONTINUOUS
10
0.2472
20
0.529953
11
0.4834
21
0.529953
0
LINE
8
BLACK
6
CONTINUOUS
10
0.4834
20
0.529953
11
0.48441
21
0.529775
0
LINE
8
BLACK
6
CONTINUOUS
10
0.5642
20
0.584168
11
0.566396
21
0.581971
0
LINE
8
BLACK
6
CONTINUOUS
10
0.566396
20
0.581971
11
0.5672
21
0.578971
0
LINE
8
BLACK
6
CONTINUOUS
10
0.5672
20
0.578971
11
0.5672
21
0.563453
0
LINE
8
BLACK
6
CONTINUOUS
10
0.5672
20
0.563453
11
0.5849
21
0.563453
0
LINE
8
BLACK
6
CONTINUOUS
10
0.5849
20
0.563453
11
0.58591
21
0.563275
0
LINE
8
BLACK
6
CONTINUOUS
10
0.58591
20
0.563275
11
0.587457
21
0.561976
0
LINE
8
BLACK
6
CONTINUOUS
10
0.587457
20
0.561976
11
0.587685
21
0.560682
0
LINE
8
BLACK
6
CONTINUOUS
10
0.587685
20
0.560682
11
0.589253
21
0.559114
0
LINE
8
BLACK
6
CONTINUOUS
10
0.589253
20
0.559114
11
0.590057
21
0.556114
0
LINE
8
BLACK
6
CONTINUOUS
10
0.590057
20
0.556114
11
0.589253
21
0.553114
0
LINE
8
BLACK
6
CONTINUOUS
10
0.589253
20
0.553114
11
0.587057
21
0.550918
0
LINE
8
BLACK
6
CONTINUOUS
10
0.587057
20
0.550918
11
0.584057
21
0.550114
0
LINE
8
BLACK
6
CONTINUOUS
10
0.584057
20
0.550114
11
0.5672
21
0.550114
0
LINE
8
BLACK
6
CONTINUOUS
10
0.5672
20
0.550114
11
0.5672
21
0.533257
0
LINE
8
BLACK
6
CONTINUOUS
10
0.5672
20
0.533257
11
0.566396
21
0.530257
0
LINE
8
BLACK
6
CONTINUOUS
10
0.566396
20
0.530257
11
0.5642
21
0.528061
0
LINE
8
BLACK
6
CONTINUOUS
10
0.5642
20
0.528061
11
0.5612
21
0.527257
0
LINE
8
BLACK
6
CONTINUOUS
10
0.5612
20
0.527257
11
0.5582
21
0.528061
0
LINE
8
BLACK
6
CONTINUOUS
10
0.5582
20
0.528061
11
0.556004
21
0.530257
0
LINE
8
BLACK
6
CONTINUOUS
10
0.556004
20
0.530257
11
0.5552
21
0.533257
0
LINE
8
BLACK
6
CONTINUOUS
10
0.5552
20
0.533257
11
0.5552
21
0.550114
0
LINE
8
BLACK
6
CONTINUOUS
10
0.5552
20
0.550114
11
0.538343
21
0.550114
0
LINE
8
BLACK
6
CONTINUOUS
10
0.538343
20
0.550114
11
0.535343
21
0.550918
0
LINE
8
BLACK
6
CONTINUOUS
10
0.535343
20
0.550918
11
0.533147
21
0.553114
0
LINE
8
BLACK
6
CONTINUOUS
10
0.533147
20
0.553114
11
0.532343
21
0.556114
0
LINE
8
BLACK
6
CONTINUOUS
10
0.532343
20
0.556114
11
0.533147
21
0.559114
0
LINE
8
BLACK
6
CONTINUOUS
10
0.533147
20
0.559114
11
0.53483
21
0.560798
0
LINE
8
BLACK
6
CONTINUOUS
10
0.53483
20
0.560798
11
0.534792
21
0.561013
0
LINE
8
BLACK
6
CONTINUOUS
10
0.534792
20
0.561013
11
0.535802
21
0.562762
0
LINE
8
BLACK
6
CONTINUOUS
10
0.535802
20
0.562762
11
0.5377
21
0.563453
0
LINE
8
BLACK
6
CONTINUOUS
10
0.5377
20
0.563453
11
0.5552
21
0.563453
0
LINE
8
BLACK
6
CONTINUOUS
10
0.5552
20
0.563453
11
0.5552
21
0.578971
0
LINE
8
BLACK
6
CONTINUOUS
10
0.5552
20
0.578971
11
0.556004
21
0.581971
0
LINE
8
BLACK
6
CONTINUOUS
10
0.556004
20
0.581971
11
0.5582
21
0.584168
0
LINE
8
BLACK
6
CONTINUOUS
10
0.5582
20
0.584168
11
0.5612
21
0.584971
0
LINE
8
BLACK
6
CONTINUOUS
10
0.5612
20
0.584971
11
0.5642
21
0.584168
0
LINE
8
BLACK
6
CONTINUOUS
10
0.363684
20
0.568566
11
0.362992
21
0.570236
0
LINE
8
BLACK
6
CONTINUOUS
10
0.362992
20
0.570236
11
0.362992
21
0.794646
0
LINE
8
BLACK
6
CONTINUOUS
10
0.362992
20
0.794646
11
0.363684
21
0.796316
0
LINE
8
BLACK
6
CONTINUOUS
10
0.363684
20
0.796316
11
0.365354
21
0.797008
0
LINE
8
BLACK
6
CONTINUOUS
10
0.365354
20
0.797008
11
0.367025
21
0.796316
0
LINE
8
BLACK
6
CONTINUOUS
10
0.367025
20
0.796316
11
0.367717
21
0.794646
0
LINE
8
BLACK
6
CONTINUOUS
10
0.367717
20
0.794646
11
0.367717
21
0.572598
0
LINE
8
BLACK
6
CONTINUOUS
10
0.367717
20
0.572598
11
0.532283
21
0.572598
0
LINE
8
BLACK
6
CONTINUOUS
10
0.532283
20
0.572598
11
0.532283
21
0.794646
0
LINE
8
BLACK
6
CONTINUOUS
10
0.532283
20
0.794646
11
0.532975
21
0.796316
0
LINE
8
BLACK
6
CONTINUOUS
10
0.532975
20
0.796316
11
0.534646
21
0.797008
0
LINE
8
BLACK
6
CONTINUOUS
10
0.534646
20
0.797008
11
0.536316
21
0.796316
0
LINE
8
BLACK
6
CONTINUOUS
10
0.536316
20
0.796316
11
0.537008
21
0.794646
0
LINE
8
BLACK
6
CONTINUOUS
10
0.537008
20
0.794646
11
0.537008
21
0.570236
0
LINE
8
BLACK
6
CONTINUOUS
10
0.537008
20
0.570236
11
0.536316
21
0.568566
0
LINE
8
BLACK
6
CONTINUOUS
10
0.536316
20
0.568566
11
0.534646
21
0.567874
0
LINE
8
BLACK
6
CONTINUOUS
10
0.534646
20
0.567874
11
0.365354
21
0.567874
0
LINE
8
BLACK
6
CONTINUOUS
10
0.365354
20
0.567874
11
0.363684
21
0.568566
0
LINE
8
BLACK
6
CONTINUOUS
10
0.335384
20
0.690385
11
0.335513
21
0.690408
0
LINE
8
BLACK
6
CONTINUOUS
10
0.335513
20
0.690408
11
0.335626
21
0.690342
0
LINE
8
BLACK
6
CONTINUOUS
10
0.335626
20
0.690342
11
0.33601
21
0.690275
0
LINE
8
BLACK
6
CONTINUOUS
10
0.33601
20
0.690275
11
0.336598
21
0.689782
0
LINE
8
BLACK
6
CONTINUOUS
10
0.336598
20
0.689782
11
0.337262
21
0.689398
0
LINE
8
BLACK
6
CONTINUOUS
10
0.337262
20
0.689398
11
0.337353
21
0.689148
0
LINE
8
BLACK
6
CONTINUOUS
10
0.337353
20
0.689148
11
0.337557
21
0.688976
0
LINE
8
BLACK
6
CONTINUOUS
10
0.337557
20
0.688976
11
0.33769
21
0.688221
0
LINE
8
BLACK
6
CONTINUOUS
10
0.33769
20
0.688221
11
0.337953
21
0.6875
0
LINE
8
BLACK
6
CONTINUOUS
10
0.337953
20
0.6875
11
0.337953
21
0.6475
0
LINE
8
BLACK
6
CONTINUOUS
10
0.337953
20
0.6475
11
0.337775
21
0.64649
0
LINE
8
BLACK
6
CONTINUOUS
10
0.337775
20
0.64649
11
0.336476
21
0.644943
0
LINE
8
BLACK
6
CONTINUOUS
10
0.336476
20
0.644943
11
0.334487
21
0.644592
0
LINE
8
BLACK
6
CONTINUOUS
10
0.334487
20
0.644592
11
0.332738
21
0.645602
0
LINE
8
BLACK
6
CONTINUOUS
10
0.332738
20
0.645602
11
0.332047
21
0.6475
0
LINE
8
BLACK
6
CONTINUOUS
10
0.332047
20
0.6475
11
0.332047
21
0.684547
0
LINE
8
BLACK
6
CONTINUOUS
10
0.332047
20
0.684547
11
0.277953
21
0.684547
0
LINE
8
BLACK
6
CONTINUOUS
10
0.277953
20
0.684547
11
0.277953
21
0.6475
0
LINE
8
BLACK
6
CONTINUOUS
10
0.277953
20
0.6475
11
0.277775
21
0.64649
0
LINE
8
BLACK
6
CONTINUOUS
10
0.277775
20
0.64649
11
0.276476
21
0.644943
0
LINE
8
BLACK
6
CONTINUOUS
10
0.276476
20
0.644943
11
0.274487
21
0.644592
0
LINE
8
BLACK
6
CONTINUOUS
10
0.274487
20
0.644592
11
0.272738
21
0.645602
0
LINE
8
BLACK
6
CONTINUOUS
10
0.272738
20
0.645602
11
0.272047
21
0.6475
0
LINE
8
BLACK
6
CONTINUOUS
10
0.272047
20
0.6475
11
0.272047
21
0.6875
0
LINE
8
BLACK
6
CONTINUOUS
10
0.272047
20
0.6875
11
0.272115
21
0.687884
0
LINE
8
BLACK
6
CONTINUOUS
10
0.272115
20
0.687884
11
0.272092
21
0.688013
0
LINE
8
BLACK
6
CONTINUOUS
10
0.272092
20
0.688013
11
0.272158
21
0.688126
0
LINE
8
BLACK
6
CONTINUOUS
10
0.272158
20
0.688126
11
0.272225
21
0.68851
0
LINE
8
BLACK
6
CONTINUOUS
10
0.272225
20
0.68851
11
0.272718
21
0.689098
0
LINE
8
BLACK
6
CONTINUOUS
10
0.272718
20
0.689098
11
0.273102
21
0.689762
0
LINE
8
BLACK
6
CONTINUOUS
10
0.273102
20
0.689762
11
0.273352
21
0.689853
0
LINE
8
BLACK
6
CONTINUOUS
10
0.273352
20
0.689853
11
0.273524
21
0.690057
0
LINE
8
BLACK
6
CONTINUOUS
10
0.273524
20
0.690057
11
0.274279
21
0.69019
0
LINE
8
BLACK
6
CONTINUOUS
10
0.274279
20
0.69019
11
0.275
21
0.690453
0
LINE
8
BLACK
6
CONTINUOUS
10
0.275
20
0.690453
11
0.335
21
0.690453
0
LINE
8
BLACK
6
CONTINUOUS
10
0.335
20
0.690453
11
0.335384
21
0.690385
0
LINE
8
BLACK
6
CONTINUOUS
10
0.240384
20
0.690385
11
0.240513
21
0.690408
0
LINE
8
BLACK
6
CONTINUOUS
10
0.240513
20
0.690408
11
0.240626
21
0.690342
0
LINE
8
BLACK
6
CONTINUOUS
10
0.240626
20
0.690342
11
0.24101
21
0.690275
0
LINE
8
BLACK
6
CONTINUOUS
10
0.24101
20
0.690275
11
0.241598
21
0.689782
0
LINE
8
BLACK
6
CONTINUOUS
10
0.241598
20
0.689782
11
0.242262
21
0.689398
0
LINE
8
BLACK
6
CONTINUOUS
10
0.242262
20
0.689398
11
0.242353
21
0.689148
0
LINE
8
BLACK
6
CONTINUOUS
10
0.242353
20
0.689148
11
0.242557
21
0.688976
0
LINE
8
BLACK
6
CONTINUOUS
10
0.242557
20
0.688976
11
0.24269
21
0.688221
0
LINE
8
BLACK
6
CONTINUOUS
10
0.24269
20
0.688221
11
0.242953
21
0.6875
0
LINE
8
BLACK
6
CONTINUOUS
10
0.242953
20
0.6875
11
0.242953
21
0.6475
0
LINE
8
BLACK
6
CONTINUOUS
10
0.242953
20
0.6475
11
0.242775
21
0.64649
0
LINE
8
BLACK
6
CONTINUOUS
10
0.242775
20
0.64649
11
0.241476
21
0.644943
0
LINE
8
BLACK
6
CONTINUOUS
10
0.241476
20
0.644943
11
0.239487
21
0.644592
0
LINE
8
BLACK
6
CONTINUOUS
10
0.239487
20
0.644592
11
0.237738
21
0.645602
0
LINE
8
BLACK
6
CONTINUOUS
10
0.237738
20
0.645602
11
0.237047
21
0.6475
0
LINE
8
BLACK
6
CONTINUOUS
10
0.237047
20
0.6475
11
0.237047
21
0.684547
0
LINE
8
BLACK
6
CONTINUOUS
10
0.237047
20
0.684547
11
0.182953
21
0.684547
0
LINE
8
BLACK
6
CONTINUOUS
10
0.182953
20
0.684547
11
0.182953
21
0.6475
0
LINE
8
BLACK
6
CONTINUOUS
10
0.182953
20
0.6475
11
0.182775
21
0.64649
0
LINE
8
BLACK
6
CONTINUOUS
10
0.182775
20
0.64649
11
0.181476
21
0.644943
0
LINE
8
BLACK
6
CONTINUOUS
10
0.181476
20
0.644943
11
0.179487
21
0.644592
0
LINE
8
BLACK
6
CONTINUOUS
10
0.179487
20
0.644592
11
0.177738
21
0.645602
0
LINE
8
BLACK
6
CONTINUOUS
10
0.177738
20
0.645602
11
0.177047
21
0.6475
0
LINE
8
BLACK
6
CONTINUOUS
10
0.177047
20
0.6475
11
0.177047
21
0.6875
0
LINE
8
BLACK
6
CONTINUOUS
10
0.177047
20
0.6875
11
0.177115
21
0.687884
0
LINE
8
BLACK
6
CONTINUOUS
10
0.177115
20
0.687884
11
0.177092
21
0.688013
0
LINE
8
BLACK
6
CONTINUOUS
10
0.177092
20
0.688013
11
0.177158
21
0.688126
0
LINE
8
BLACK
6
CONTINUOUS
10
0.177158
20
0.688126
11
0.177225
21
0.68851
0
LINE
8
BLACK
6
CONTINUOUS
10
0.177225
20
0.68851
11
0.177718
21
0.689098
0
LINE
8
BLACK
6
CONTINUOUS
10
0.177718
20
0.689098
11
0.178102
21
0.689762
0
LINE
8
BLACK
6
CONTINUOUS
10
0.178102
20
0.689762
11
0.178352
21
0.689853
0
LINE
8
BLACK
6
CONTINUOUS
10
0.178352
20
0.689853
11
0.178524
21
0.690057
0
LINE
8
BLACK
6
CONTINUOUS
10
0.178524
20
0.690057
11
0.179279
21
0.69019
0
LINE
8
BLACK
6
CONTINUOUS
10
0.179279
20
0.69019
11
0.18
21
0.690453
0
LINE
8
BLACK
6
CONTINUOUS
10
0.18
20
0.690453
11
0.24
21
0.690453
0
LINE
8
BLACK
6
CONTINUOUS
10
0.24
20
0.690453
11
0.240384
21
0.690385
0
LINE
8
BLACK
6
CONTINUOUS
10
0.150384
20
0.690385
11
0.150513
21
0.690408
0
LINE
8
BLACK
6
CONTINUOUS
10
0.150513
20
0.690408
11
0.150626
21
0.690342
0
LINE
8
BLACK
6
CONTINUOUS
10
0.150626
20
0.690342
11
0.15101
21
0.690275
0
LINE
8
BLACK
6
CONTINUOUS
10
0.15101
20
0.690275
11
0.151598
21
0.689782
0
LINE
8
BLACK
6
CONTINUOUS
10
0.151598
20
0.689782
11
0.152262
21
0.689398
0
LINE
8
BLACK
6
CONTINUOUS
10
0.152262
20
0.689398
11
0.152353
21
0.689148
0
LINE
8
BLACK
6
CONTINUOUS
10
0.152353
20
0.689148
11
0.152557
21
0.688976
0
LINE
8
BLACK
6
CONTINUOUS
10
0.152557
20
0.688976
11
0.15269
21
0.688221
0
LINE
8
BLACK
6
CONTINUOUS
10
0.15269
20
0.688221
11
0.152953
21
0.6875
0
LINE
8
BLACK
6
CONTINUOUS
10
0.152953
20
0.6875
11
0.152953
21
0.6475
0
LINE
8
BLACK
6
CONTINUOUS
10
0.152953
20
0.6475
11
0.152775
21
0.64649
0
LINE
8
BLACK
6
CONTINUOUS
10
0.152775
20
0.64649
11
0.151476
21
0.644943
0
LINE
8
BLACK
6
CONTINUOUS
10
0.151476
20
0.644943
11
0.149487
21
0.644592
0
LINE
8
BLACK
6
CONTINUOUS
10
0.149487
20
0.644592
11
0.147738
21
0.645602
0
LINE
8
BLACK
6
CONTINUOUS
10
0.147738
20
0.645602
11
0.147047
21
0.6475
0
LINE
8
BLACK
6
CONTINUOUS
10
0.147047
20
0.6475
11
0.147047
21
0.684547
0
LINE
8
BLACK
6
CONTINUOUS
10
0.147047
20
0.684547
11
0.0929528
21
0.684547
0
LINE
8
BLACK
6
CONTINUOUS
10
0.0929528
20
0.684547
11
0.0929528
21
0.6475
0
LINE
8
BLACK
6
CONTINUOUS
10
0.0929528
20
0.6475
11
0.0927747
21
0.64649
0
LINE
8
BLACK
6
CONTINUOUS
10
0.0927747
20
0.64649
11
0.0914764
21
0.644943
0
LINE
8
BLACK
6
CONTINUOUS
10
0.0914764
20
0.644943
11
0.0894872
21
0.644592
0
LINE
8
BLACK
6
CONTINUOUS
10
0.0894872
20
0.644592
11
0.0877381
21
0.645602
0
LINE
8
BLACK
6
CONTINUOUS
10
0.0877381
20
0.645602
11
0.0870472
21
0.6475
0
LINE
8
BLACK
6
CONTINUOUS
10
0.0870472
20
0.6475
11
0.0870472
21
0.6875
0
LINE
8
BLACK
6
CONTINUOUS
10
0.0870472
20
0.6875
11
0.0871149
21
0.687884
0
LINE
8
BLACK
6
CONTINUOUS
10
0.0871149
20
0.687884
11
0.0870921
21
0.688013
0
LINE
8
BLACK
6
CONTINUOUS
10
0.0870921
20
0.688013
11
0.0871577
21
0.688126
0
LINE
8
BLACK
6
CONTINUOUS
10
0.0871577
20
0.688126
11
0.0872253
21
0.68851
0
LINE
8
BLACK
6
CONTINUOUS
10
0.0872253
20
0.68851
11
0.0877185
21
0.689098
0
LINE
8
BLACK
6
CONTINUOUS
10
0.0877185
20
0.689098
11
0.088102
21
0.689762
0
LINE
8
BLACK
6
CONTINUOUS
10
0.088102
20
0.689762
11
0.0883524
21
0.689853
0
LINE
8
BLACK
6
CONTINUOUS
10
0.0883524
20
0.689853
11
0.0885236
21
0.690057
0
LINE
8
BLACK
6
CONTINUOUS
10
0.0885236
20
0.690057
11
0.0892792
21
0.69019
0
LINE
8
BLACK
6
CONTINUOUS
10
0.0892792
20
0.69019
11
0.09
21
0.690453
0
LINE
8
BLACK
6
CONTINUOUS
10
0.09
20
0.690453
11
0.15
21
0.690453
0
LINE
8
BLACK
6
CONTINUOUS
10
0.15
20
0.690453
11
0.150384
21
0.690385
0
LINE
8
BLACK
6
CONTINUOUS
10
0.559558
20
0.703935
11
0.560671
21
0.70225
0
LINE
8
BLACK
6
CONTINUOUS
10
0.560671
20
0.70225
11
0.56044
21
0.700243
0
LINE
8
BLACK
6
CONTINUOUS
10
0.56044
20
0.700243
11
0.558565
21
0.696494
0
LINE
8
BLACK
6
CONTINUOUS
10
0.558565
20
0.696494
11
0.558039
21
0.695784
0
LINE
8
BLACK
6
CONTINUOUS
10
0.558039
20
0.695784
11
0.558012
21
0.695726
0
LINE
8
BLACK
6
CONTINUOUS
10
0.558012
20
0.695726
11
0.555554
21
0.693268
0
LINE
8
BLACK
6
CONTINUOUS
10
0.555554
20
0.693268
11
0.582968
21
0.693268
0
LINE
8
BLACK
6
CONTINUOUS
10
0.582968
20
0.693268
11
0.582968
21
0.701564
0
LINE
8
BLACK
6
CONTINUOUS
10
0.582968
20
0.701564
11
0.583146
21
0.702573
0
LINE
8
BLACK
6
CONTINUOUS
10
0.583146
20
0.702573
11
0.584444
21
0.704121
0
LINE
8
BLACK
6
CONTINUOUS
10
0.584444
20
0.704121
11
0.586433
21
0.704471
0
LINE
8
BLACK
6
CONTINUOUS
10
0.586433
20
0.704471
11
0.588182
21
0.703462
0
LINE
8
BLACK
6
CONTINUOUS
10
0.588182
20
0.703462
11
0.588873
21
0.701564
0
LINE
8
BLACK
6
CONTINUOUS
10
0.588873
20
0.701564
11
0.588873
21
0.679066
0
LINE
8
BLACK
6
CONTINUOUS
10
0.588873
20
0.679066
11
0.588695
21
0.678056
0
LINE
8
BLACK
6
CONTINUOUS
10
0.588695
20
0.678056
11
0.587397
21
0.676509
0
LINE
8
BLACK
6
CONTINUOUS
10
0.587397
20
0.676509
11
0.585408
21
0.676158
0
LINE
8
BLACK
6
CONTINUOUS
10
0.585408
20
0.676158
11
0.583659
21
0.677168
0
LINE
8
BLACK
6
CONTINUOUS
10
0.583659
20
0.677168
11
0.582968
21
0.679066
0
LINE
8
BLACK
6
CONTINUOUS
10
0.582968
20
0.679066
11
0.582968
21
0.687362
0
LINE
8
BLACK
6
CONTINUOUS
10
0.582968
20
0.687362
11
0.54655
21
0.687362
0
LINE
8
BLACK
6
CONTINUOUS
10
0.54655
20
0.687362
11
0.54554
21
0.68754
0
LINE
8
BLACK
6
CONTINUOUS
10
0.54554
20
0.68754
11
0.54541
21
0.687649
0
LINE
8
BLACK
6
CONTINUOUS
10
0.54541
20
0.687649
11
0.545242
21
0.687668
0
LINE
8
BLACK
6
CONTINUOUS
10
0.545242
20
0.687668
11
0.54465
21
0.688288
0
LINE
8
BLACK
6
CONTINUOUS
10
0.54465
20
0.688288
11
0.543993
21
0.688839
0
LINE
8
BLACK
6
CONTINUOUS
10
0.543993
20
0.688839
11
0.543964
21
0.689006
0
LINE
8
BLACK
6
CONTINUOUS
10
0.543964
20
0.689006
11
0.543846
21
0.689129
0
LINE
8
BLACK
6
CONTINUOUS
10
0.543846
20
0.689129
11
0.543791
21
0.689984
0
LINE
8
BLACK
6
CONTINUOUS
10
0.543791
20
0.689984
11
0.543642
21
0.690828
0
LINE
8
BLACK
6
CONTINUOUS
10
0.543642
20
0.690828
11
0.543727
21
0.690975
0
LINE
8
BLACK
6
CONTINUOUS
10
0.543727
20
0.690975
11
0.543716
21
0.691144
0
LINE
8
BLACK
6
CONTINUOUS
10
0.543716
20
0.691144
11
0.544224
21
0.691835
0
LINE
8
BLACK
6
CONTINUOUS
10
0.544224
20
0.691835
11
0.544652
21
0.692577
0
LINE
8
BLACK
6
CONTINUOUS
10
0.544652
20
0.692577
11
0.544812
21
0.692635
0
LINE
8
BLACK
6
CONTINUOUS
10
0.544812
20
0.692635
11
0.544913
21
0.692772
0
LINE
8
BLACK
6
CONTINUOUS
10
0.544913
20
0.692772
11
0.550294
21
0.696359
0
LINE
8
BLACK
6
CONTINUOUS
10
0.550294
20
0.696359
11
0.553498
21
0.699563
0
LINE
8
BLACK
6
CONTINUOUS
10
0.553498
20
0.699563
11
0.555158
21
0.702884
0
LINE
8
BLACK
6
CONTINUOUS
10
0.555158
20
0.702884
11
0.555769
21
0.703708
0
LINE
8
BLACK
6
CONTINUOUS
10
0.555769
20
0.703708
11
0.557622
21
0.704511
0
LINE
8
BLACK
6
CONTINUOUS
10
0.557622
20
0.704511
11
0.559558
21
0.703935
0
LINE
8
BLACK
6
CONTINUOUS
10
0.322884
20
0.777885
11
0.323013
21
0.777908
0
LINE
8
BLACK
6
CONTINUOUS
10
0.323013
20
0.777908
11
0.323126
21
0.777842
0
LINE
8
BLACK
6
CONTINUOUS
10
0.323126
20
0.777842
11
0.32351
21
0.777775
0
LINE
8
BLACK
6
CONTINUOUS
10
0.32351
20
0.777775
11
0.324098
21
0.777282
0
LINE
8
BLACK
6
CONTINUOUS
10
0.324098
20
0.777282
11
0.324762
21
0.776898
0
LINE
8
BLACK
6
CONTINUOUS
10
0.324762
20
0.776898
11
0.324853
21
0.776648
0
LINE
8
BLACK
6
CONTINUOUS
10
0.324853
20
0.776648
11
0.325057
21
0.776476
0
LINE
8
BLACK
6
CONTINUOUS
10
0.325057
20
0.776476
11
0.32519
21
0.775721
0
LINE
8
BLACK
6
CONTINUOUS
10
0.32519
20
0.775721
11
0.325453
21
0.775
0
LINE
8
BLACK
6
CONTINUOUS
10
0.325453
20
0.775
11
0.325453
21
0.715
0
LINE
8
BLACK
6
CONTINUOUS
10
0.325453
20
0.715
11
0.325385
21
0.714616
0
LINE
8
BLACK
6
CONTINUOUS
10
0.325385
20
0.714616
11
0.325408
21
0.714487
0
LINE
8
BLACK
6
CONTINUOUS
10
0.325408
20
0.714487
11
0.325342
21
0.714374
0
LINE
8
BLACK
6
CONTINUOUS
10
0.325342
20
0.714374
11
0.325275
21
0.71399
0
LINE
8
BLACK
6
CONTINUOUS
10
0.325275
20
0.71399
11
0.324782
21
0.713402
0
LINE
8
BLACK
6
CONTINUOUS
10
0.324782
20
0.713402
11
0.324398
21
0.712738
0
LINE
8
BLACK
6
CONTINUOUS
10
0.324398
20
0.712738
11
0.324148
21
0.712647
0
LINE
8
BLACK
6
CONTINUOUS
10
0.324148
20
0.712647
11
0.323976
21
0.712443
0
LINE
8
BLACK
6
CONTINUOUS
10
0.323976
20
0.712443
11
0.323221
21
0.71231
0
LINE
8
BLACK
6
CONTINUOUS
10
0.323221
20
0.71231
11
0.3225
21
0.712047
0
LINE
8
BLACK
6
CONTINUOUS
10
0.3225
20
0.712047
11
0.2825
21
0.712047
0
LINE
8
BLACK
6
CONTINUOUS
10
0.2825
20
0.712047
11
0.28149
21
0.712225
0
LINE
8
BLACK
6
CONTINUOUS
10
0.28149
20
0.712225
11
0.279943
21
0.713524
0
LINE
8
BLACK
6
CONTINUOUS
10
0.279943
20
0.713524
11
0.279592
21
0.715513
0
LINE
8
BLACK
6
CONTINUOUS
10
0.279592
20
0.715513
11
0.280602
21
0.717262
0
LINE
8
BLACK
6
CONTINUOUS
10
0.280602
20
0.717262
11
0.2825
21
0.717953
0
LINE
8
BLACK
6
CONTINUOUS
10
0.2825
20
0.717953
11
0.319547
21
0.717953
0
LINE
8
BLACK
6
CONTINUOUS
10
0.319547
20
0.717953
11
0.319547
21
0.772047
0
LINE
8
BLACK
6
CONTINUOUS
10
0.319547
20
0.772047
11
0.2825
21
0.772047
0
LINE
8
BLACK
6
CONTINUOUS
10
0.2825
20
0.772047
11
0.28149
21
0.772225
0
LINE
8
BLACK
6
CONTINUOUS
10
0.28149
20
0.772225
11
0.279943
21
0.773524
0
LINE
8
BLACK
6
CONTINUOUS
10
0.279943
20
0.773524
11
0.279592
21
0.775513
0
LINE
8
BLACK
6
CONTINUOUS
10
0.279592
20
0.775513
11
0.280602
21
0.777262
0
LINE
8
BLACK
6
CONTINUOUS
10
0.280602
20
0.777262
11
0.2825
21
0.777953
0
LINE
8
BLACK
6
CONTINUOUS
10
0.2825
20
0.777953
11
0.3225
21
0.777953
0
LINE
8
BLACK
6
CONTINUOUS
10
0.3225
20
0.777953
11
0.322884
21
0.777885
0
LINE
8
BLACK
6
CONTINUOUS
10
0.586304
20
0.741944
11
0.586433
21
0.741967
0
LINE
8
BLACK
6
CONTINUOUS
10
0.586433
20
0.741967
11
0.586547
21
0.741901
0
LINE
8
BLACK
6
CONTINUOUS
10
0.586547
20
0.741901
11
0.58693
21
0.741834
0
LINE
8
BLACK
6
CONTINUOUS
10
0.58693
20
0.741834
11
0.587518
21
0.74134
0
LINE
8
BLACK
6
CONTINUOUS
10
0.587518
20
0.74134
11
0.588182
21
0.740957
0
LINE
8
BLACK
6
CONTINUOUS
10
0.588182
20
0.740957
11
0.588274
21
0.740706
0
LINE
8
BLACK
6
CONTINUOUS
10
0.588274
20
0.740706
11
0.588478
21
0.740535
0
LINE
8
BLACK
6
CONTINUOUS
10
0.588478
20
0.740535
11
0.588611
21
0.73978
0
LINE
8
BLACK
6
CONTINUOUS
10
0.588611
20
0.73978
11
0.588873
21
0.739059
0
LINE
8
BLACK
6
CONTINUOUS
10
0.588873
20
0.739059
11
0.588873
21
0.729685
0
LINE
8
BLACK
6
CONTINUOUS
10
0.588873
20
0.729685
11
0.58872
21
0.728816
0
LINE
8
BLACK
6
CONTINUOUS
10
0.58872
20
0.728816
11
0.588722
21
0.728751
0
LINE
8
BLACK
6
CONTINUOUS
10
0.588722
20
0.728751
11
0.586847
21
0.723127
0
LINE
8
BLACK
6
CONTINUOUS
10
0.586847
20
0.723127
11
0.586359
21
0.722225
0
LINE
8
BLACK
6
CONTINUOUS
10
0.586359
20
0.722225
11
0.586208
21
0.722133
0
LINE
8
BLACK
6
CONTINUOUS
10
0.586208
20
0.722133
11
0.586134
21
0.721973
0
LINE
8
BLACK
6
CONTINUOUS
10
0.586134
20
0.721973
11
0.582384
21
0.718223
0
LINE
8
BLACK
6
CONTINUOUS
10
0.582384
20
0.718223
11
0.581661
21
0.717717
0
LINE
8
BLACK
6
CONTINUOUS
10
0.581661
20
0.717717
11
0.581617
21
0.71767
0
LINE
8
BLACK
6
CONTINUOUS
10
0.581617
20
0.71767
11
0.577867
21
0.715795
0
LINE
8
BLACK
6
CONTINUOUS
10
0.577867
20
0.715795
11
0.577379
21
0.71565
0
LINE
8
BLACK
6
CONTINUOUS
10
0.577379
20
0.71565
11
0.577263
21
0.715572
0
LINE
8
BLACK
6
CONTINUOUS
10
0.577263
20
0.715572
11
0.569764
21
0.713697
0
LINE
8
BLACK
6
CONTINUOUS
10
0.569764
20
0.713697
11
0.569176
21
0.713656
0
LINE
8
BLACK
6
CONTINUOUS
10
0.569176
20
0.713656
11
0.569048
21
0.713609
0
LINE
8
BLACK
6
CONTINUOUS
10
0.569048
20
0.713609
11
0.563423
21
0.713609
0
LINE
8
BLACK
6
CONTINUOUS
10
0.563423
20
0.713609
11
0.562843
21
0.713711
0
LINE
8
BLACK
6
CONTINUOUS
10
0.562843
20
0.713711
11
0.562707
21
0.713697
0
LINE
8
BLACK
6
CONTINUOUS
10
0.562707
20
0.713697
11
0.555208
21
0.715572
0
LINE
8
BLACK
6
CONTINUOUS
10
0.555208
20
0.715572
11
0.554743
21
0.715779
0
LINE
8
BLACK
6
CONTINUOUS
10
0.554743
20
0.715779
11
0.554604
21
0.715795
0
LINE
8
BLACK
6
CONTINUOUS
10
0.554604
20
0.715795
11
0.550854
21
0.71767
0
LINE
8
BLACK
6
CONTINUOUS
10
0.550854
20
0.71767
11
0.550145
21
0.718196
0
LINE
8
BLACK
6
CONTINUOUS
10
0.550145
20
0.718196
11
0.550087
21
0.718223
0
LINE
8
BLACK
6
CONTINUOUS
10
0.550087
20
0.718223
11
0.546337
21
0.721973
0
LINE
8
BLACK
6
CONTINUOUS
10
0.546337
20
0.721973
11
0.545749
21
0.722813
0
LINE
8
BLACK
6
CONTINUOUS
10
0.545749
20
0.722813
11
0.545734
21
0.722989
0
LINE
8
BLACK
6
CONTINUOUS
10
0.545734
20
0.722989
11
0.545624
21
0.723127
0
LINE
8
BLACK
6
CONTINUOUS
10
0.545624
20
0.723127
11
0.543749
21
0.728751
0
LINE
8
BLACK
6
CONTINUOUS
10
0.543749
20
0.728751
11
0.54362
21
0.729624
0
LINE
8
BLACK
6
CONTINUOUS
10
0.54362
20
0.729624
11
0.543598
21
0.729685
0
LINE
8
BLACK
6
CONTINUOUS
10
0.543598
20
0.729685
11
0.543598
21
0.739059
0
LINE
8
BLACK
6
CONTINUOUS
10
0.543598
20
0.739059
11
0.543665
21
0.739442
0
LINE
8
BLACK
6
CONTINUOUS
10
0.543665
20
0.739442
11
0.543642
21
0.739572
0
LINE
8
BLACK
6
CONTINUOUS
10
0.543642
20
0.739572
11
0.543708
21
0.739685
0
LINE
8
BLACK
6
CONTINUOUS
10
0.543708
20
0.739685
11
0.543776
21
0.740069
0
LINE
8
BLACK
6
CONTINUOUS
10
0.543776
20
0.740069
11
0.544269
21
0.740656
0
LINE
8
BLACK
6
CONTINUOUS
10
0.544269
20
0.740656
11
0.544652
21
0.741321
0
LINE
8
BLACK
6
CONTINUOUS
10
0.544652
20
0.741321
11
0.544903
21
0.741412
0
LINE
8
BLACK
6
CONTINUOUS
10
0.544903
20
0.741412
11
0.545074
21
0.741616
0
LINE
8
BLACK
6
CONTINUOUS
10
0.545074
20
0.741616
11
0.54583
21
0.741749
0
LINE
8
BLACK
6
CONTINUOUS
10
0.54583
20
0.741749
11
0.54655
21
0.742012
0
LINE
8
BLACK
6
CONTINUOUS
10
0.54655
20
0.742012
11
0.58592
21
0.742012
0
LINE
8
BLACK
6
CONTINUOUS
10
0.58592
20
0.742012
11
0.586304
21
0.741944
0
LINE
8
BLACK
6
CONTINUOUS
10
0.549503
20
0.736106
11
0.549503
21
0.730164
0
LINE
8
BLACK
6
CONTINUOUS
10
0.549503
20
0.730164
11
0.551006
21
0.725656
0
LINE
8
BLACK
6
CONTINUOUS
10
0.551006
20
0.725656
11
0.553924
21
0.722738
0
LINE
8
BLACK
6
CONTINUOUS
10
0.553924
20
0.722738
11
0.556955
21
0.721222
0
LINE
8
BLACK
6
CONTINUOUS
10
0.556955
20
0.721222
11
0.563787
21
0.719514
0
LINE
8
BLACK
6
CONTINUOUS
10
0.563787
20
0.719514
11
0.568684
21
0.719514
0
LINE
8
BLACK
6
CONTINUOUS
10
0.568684
20
0.719514
11
0.575516
21
0.721222
0
LINE
8
BLACK
6
CONTINUOUS
10
0.575516
20
0.721222
11
0.578547
21
0.722738
0
LINE
8
BLACK
6
CONTINUOUS
10
0.578547
20
0.722738
11
0.581465
21
0.725656
0
LINE
8
BLACK
6
CONTINUOUS
10
0.581465
20
0.725656
11
0.582968
21
0.730164
0
LINE
8
BLACK
6
CONTINUOUS
10
0.582968
20
0.730164
11
0.582968
21
0.736106
0
LINE
8
BLACK
6
CONTINUOUS
10
0.582968
20
0.736106
11
0.549503
21
0.736106
0
LINE
8
BLACK
6
CONTINUOUS
10
0.317655
20
0.970253
11
0.318346
21
0.968583
0
LINE
8
BLACK
6
CONTINUOUS
10
0.318346
20
0.968583
11
0.318346
21
0.872126
0
LINE
8
BLACK
6
CONTINUOUS
10
0.318346
20
0.872126
11
0.317655
21
0.870456
0
LINE
8
BLACK
6
CONTINUOUS
10
0.317655
20
0.870456
11
0.315984
21
0.869764
0
LINE
8
BLACK
6
CONTINUOUS
10
0.315984
20
0.869764
11
0.314314
21
0.870456
0
LINE
8
BLACK
6
CONTINUOUS
10
0.314314
20
0.870456
11
0.313622
21
0.872126
0
LINE
8
BLACK
6
CONTINUOUS
10
0.313622
20
0.872126
11
0.313622
21
0.968583
0
LINE
8
BLACK
6
CONTINUOUS
10
0.313622
20
0.968583
11
0.314314
21
0.970253
0
LINE
8
BLACK
6
CONTINUOUS
10
0.314314
20
0.970253
11
0.315984
21
0.970945
0
LINE
8
BLACK
6
CONTINUOUS
10
0.315984
20
0.970945
11
0.317655
21
0.970253
0
LINE
8
BLACK
6
CONTINUOUS
10
0.548809
20
1.08631
11
0.548938
21
1.08633
0
LINE
8
BLACK
6
CONTINUOUS
10
0.548938
20
1.08633
11
0.549052
21
1.08627
0
LINE
8
BLACK
6
CONTINUOUS
10
0.549052
20
1.08627
11
0.549435
21
1.0862
0
LINE
8
BLACK
6
CONTINUOUS
10
0.549435
20
1.0862
11
0.550023
21
1.08571
0
LINE
8
BLACK
6
CONTINUOUS
10
0.550023
20
1.08571
11
0.550687
21
1.08532
0
LINE
8
BLACK
6
CONTINUOUS
10
0.550687
20
1.08532
11
0.550778
21
1.08507
0
LINE
8
BLACK
6
CONTINUOUS
10
0.550778
20
1.08507
11
0.550982
21
1.0849
0
LINE
8
BLACK
6
CONTINUOUS
10
0.550982
20
1.0849
11
0.551116
21
1.08415
0
LINE
8
BLACK
6
CONTINUOUS
10
0.551116
20
1.08415
11
0.551378
21
1.08343
0
LINE
8
BLACK
6
CONTINUOUS
10
0.551378
20
1.08343
11
0.551378
21
0.886575
0
LINE
8
BLACK
6
CONTINUOUS
10
0.551378
20
0.886575
11
0.55131
21
0.886191
0
LINE
8
BLACK
6
CONTINUOUS
10
0.55131
20
0.886191
11
0.551333
21
0.886062
0
LINE
8
BLACK
6
CONTINUOUS
10
0.551333
20
0.886062
11
0.551268
21
0.885948
0
LINE
8
BLACK
6
CONTINUOUS
10
0.551268
20
0.885948
11
0.5512
21
0.885565
0
LINE
8
BLACK
6
CONTINUOUS
10
0.5512
20
0.885565
11
0.550707
21
0.884977
0
LINE
8
BLACK
6
CONTINUOUS
10
0.550707
20
0.884977
11
0.550323
21
0.884313
0
LINE
8
BLACK
6
CONTINUOUS
10
0.550323
20
0.884313
11
0.550073
21
0.884222
0
LINE
8
BLACK
6
CONTINUOUS
10
0.550073
20
0.884222
11
0.549902
21
0.884018
0
LINE
8
BLACK
6
CONTINUOUS
10
0.549902
20
0.884018
11
0.549146
21
0.883884
0
LINE
8
BLACK
6
CONTINUOUS
10
0.549146
20
0.883884
11
0.548425
21
0.883622
0
LINE
8
BLACK
6
CONTINUOUS
10
0.548425
20
0.883622
11
0.351575
21
0.883622
0
LINE
8
BLACK
6
CONTINUOUS
10
0.351575
20
0.883622
11
0.351191
21
0.88369
0
LINE
8
BLACK
6
CONTINUOUS
10
0.351191
20
0.88369
11
0.351062
21
0.883667
0
LINE
8
BLACK
6
CONTINUOUS
10
0.351062
20
0.883667
11
0.350948
21
0.883732
0
LINE
8
BLACK
6
CONTINUOUS
10
0.350948
20
0.883732
11
0.350565
21
0.8838
0
LINE
8
BLACK
6
CONTINUOUS
10
0.350565
20
0.8838
11
0.349977
21
0.884293
0
LINE
8
BLACK
6
CONTINUOUS
10
0.349977
20
0.884293
11
0.349313
21
0.884677
0
LINE
8
BLACK
6
CONTINUOUS
10
0.349313
20
0.884677
11
0.349222
21
0.884927
0
LINE
8
BLACK
6
CONTINUOUS
10
0.349222
20
0.884927
11
0.349018
21
0.885098
0
LINE
8
BLACK
6
CONTINUOUS
10
0.349018
20
0.885098
11
0.348884
21
0.885854
0
LINE
8
BLACK
6
CONTINUOUS
10
0.348884
20
0.885854
11
0.348622
21
0.886575
0
LINE
8
BLACK
6
CONTINUOUS
10
0.348622
20
0.886575
11
0.348622
21
1.08343
0
LINE
8
BLACK
6
CONTINUOUS
10
0.348622
20
1.08343
11
0.34869
21
1.08381
0
LINE
8
BLACK
6
CONTINUOUS
10
0.34869
20
1.08381
11
0.348667
21
1.08394
0
LINE
8
BLACK
6
CONTINUOUS
10
0.348667
20
1.08394
11
0.348732
21
1.08405
0
LINE
8
BLACK
6
CONTINUOUS
10
0.348732
20
1.08405
11
0.3488
21
1.08444
0
LINE
8
BLACK
6
CONTINUOUS
10
0.3488
20
1.08444
11
0.349293
21
1.08502
0
LINE
8
BLACK
6
CONTINUOUS
10
0.349293
20
1.08502
11
0.349677
21
1.08569
0
LINE
8
BLACK
6
CONTINUOUS
10
0.349677
20
1.08569
11
0.349927
21
1.08578
0
LINE
8
BLACK
6
CONTINUOUS
10
0.349927
20
1.08578
11
0.350098
21
1.08598
0
LINE
8
BLACK
6
CONTINUOUS
10
0.350098
20
1.08598
11
0.350854
21
1.08612
0
LINE
8
BLACK
6
CONTINUOUS
10
0.350854
20
1.08612
11
0.351575
21
1.08638
0
LINE
8
BLACK
6
CONTINUOUS
10
0.351575
20
1.08638
11
0.548425
21
1.08638
0
LINE
8
BLACK
6
CONTINUOUS
10
0.548425
20
1.08638
11
0.548809
21
1.08631
0
LINE
8
BLACK
6
CONTINUOUS
10
0.354528
20
1.08047
11
0.354528
21
0.889528
0
LINE
8
BLACK
6
CONTINUOUS
10
0.354528
20
0.889528
11
0.545472
21
0.889528
0
LINE
8
BLACK
6
CONTINUOUS
10
0.545472
20
0.889528
11
0.545472
21
1.08047
0
LINE
8
BLACK
6
CONTINUOUS
10
0.545472
20
1.08047
11
0.354528
21
1.08047
0
LINE
8
BLACK
6
CONTINUOUS
10
0.477571
20
1.00846
11
0.478262
21
1.00656
0
LINE
8
BLACK
6
CONTINUOUS
10
0.478262
20
1.00656
11
0.478262
21
0.96719
0
LINE
8
BLACK
6
CONTINUOUS
10
0.478262
20
0.96719
11
0.478194
21
0.966806
0
LINE
8
BLACK
6
CONTINUOUS
10
0.478194
20
0.966806
11
0.478217
21
0.966677
0
LINE
8
BLACK
6
CONTINUOUS
10
0.478217
20
0.966677
11
0.478152
21
0.966563
0
LINE
8
BLACK
6
CONTINUOUS
10
0.478152
20
0.966563
11
0.478084
21
0.96618
0
LINE
8
BLACK
6
CONTINUOUS
10
0.478084
20
0.96618
11
0.477591
21
0.965592
0
LINE
8
BLACK
6
CONTINUOUS
10
0.477591
20
0.965592
11
0.477207
21
0.964928
0
LINE
8
BLACK
6
CONTINUOUS
10
0.477207
20
0.964928
11
0.476957
21
0.964837
0
LINE
8
BLACK
6
CONTINUOUS
10
0.476957
20
0.964837
11
0.476786
21
0.964633
0
LINE
8
BLACK
6
CONTINUOUS
10
0.476786
20
0.964633
11
0.47603
21
0.964499
0
LINE
8
BLACK
6
CONTINUOUS
10
0.47603
20
0.964499
11
0.475309
21
0.964237
0
LINE
8
BLACK
6
CONTINUOUS
10
0.475309
20
0.964237
11
0.456562
21
0.964237
0
LINE
8
BLACK
6
CONTINUOUS
10
0.456562
20
0.964237
11
0.455552
21
0.964415
0
LINE
8
BLACK
6
CONTINUOUS
10
0.455552
20
0.964415
11
0.454004
21
0.965713
0
LINE
8
BLACK
6
CONTINUOUS
10
0.454004
20
0.965713
11
0.453654
21
0.967702
0
LINE
8
BLACK
6
CONTINUOUS
10
0.453654
20
0.967702
11
0.454664
21
0.969452
0
LINE
8
BLACK
6
CONTINUOUS
10
0.454664
20
0.969452
11
0.456562
21
0.970142
0
LINE
8
BLACK
6
CONTINUOUS
10
0.456562
20
0.970142
11
0.472357
21
0.970142
0
LINE
8
BLACK
6
CONTINUOUS
10
0.472357
20
0.970142
11
0.472357
21
1.00656
0
LINE
8
BLACK
6
CONTINUOUS
10
0.472357
20
1.00656
11
0.472535
21
1.00757
0
LINE
8
BLACK
6
CONTINUOUS
10
0.472535
20
1.00757
11
0.473833
21
1.00912
0
LINE
8
BLACK
6
CONTINUOUS
10
0.473833
20
1.00912
11
0.475822
21
1.00947
0
LINE
8
BLACK
6
CONTINUOUS
10
0.475822
20
1.00947
11
0.477571
21
1.00846
0
LINE
8
BLACK
6
CONTINUOUS
10
0.434724
20
1.00938
11
0.434894
21
1.00939
0
LINE
8
BLACK
6
CONTINUOUS
10
0.434894
20
1.00939
11
0.435584
21
1.00889
0
LINE
8
BLACK
6
CONTINUOUS
10
0.435584
20
1.00889
11
0.436326
21
1.00846
0
LINE
8
BLACK
6
CONTINUOUS
10
0.436326
20
1.00846
11
0.436384
21
1.0083
0
LINE
8
BLACK
6
CONTINUOUS
10
0.436384
20
1.0083
11
0.436521
21
1.0082
0
LINE
8
BLACK
6
CONTINUOUS
10
0.436521
20
1.0082
11
0.440109
21
1.00282
0
LINE
8
BLACK
6
CONTINUOUS
10
0.440109
20
1.00282
11
0.443313
21
0.999613
0
LINE
8
BLACK
6
CONTINUOUS
10
0.443313
20
0.999613
11
0.446634
21
0.997952
0
LINE
8
BLACK
6
CONTINUOUS
10
0.446634
20
0.997952
11
0.447457
21
0.997341
0
LINE
8
BLACK
6
CONTINUOUS
10
0.447457
20
0.997341
11
0.448261
21
0.995488
0
LINE
8
BLACK
6
CONTINUOUS
10
0.448261
20
0.995488
11
0.447685
21
0.993552
0
LINE
8
BLACK
6
CONTINUOUS
10
0.447685
20
0.993552
11
0.445999
21
0.992439
0
LINE
8
BLACK
6
CONTINUOUS
10
0.445999
20
0.992439
11
0.443993
21
0.99267
0
LINE
8
BLACK
6
CONTINUOUS
10
0.443993
20
0.99267
11
0.440243
21
0.994545
0
LINE
8
BLACK
6
CONTINUOUS
10
0.440243
20
0.994545
11
0.439534
21
0.995071
0
LINE
8
BLACK
6
CONTINUOUS
10
0.439534
20
0.995071
11
0.439476
21
0.995098
0
LINE
8
BLACK
6
CONTINUOUS
10
0.439476
20
0.995098
11
0.437017
21
0.997556
0
LINE
8
BLACK
6
CONTINUOUS
10
0.437017
20
0.997556
11
0.437017
21
0.970142
0
LINE
8
BLACK
6
CONTINUOUS
10
0.437017
20
0.970142
11
0.445313
21
0.970142
0
LINE
8
BLACK
6
CONTINUOUS
10
0.445313
20
0.970142
11
0.446323
21
0.969964
0
LINE
8
BLACK
6
CONTINUOUS
10
0.446323
20
0.969964
11
0.44787
21
0.968666
0
LINE
8
BLACK
6
CONTINUOUS
10
0.44787
20
0.968666
11
0.448221
21
0.966677
0
LINE
8
BLACK
6
CONTINUOUS
10
0.448221
20
0.966677
11
0.447211
21
0.964928
0
LINE
8
BLACK
6
CONTINUOUS
10
0.447211
20
0.964928
11
0.445313
21
0.964237
0
LINE
8
BLACK
6
CONTINUOUS
10
0.445313
20
0.964237
11
0.422816
21
0.964237
0
LINE
8
BLACK
6
CONTINUOUS
10
0.422816
20
0.964237
11
0.421806
21
0.964415
0
LINE
8
BLACK
6
CONTINUOUS
10
0.421806
20
0.964415
11
0.420259
21
0.965713
0
LINE
8
BLACK
6
CONTINUOUS
10
0.420259
20
0.965713
11
0.419908
21
0.967702
0
LINE
8
BLACK
6
CONTINUOUS
10
0.419908
20
0.967702
11
0.420918
21
0.969452
0
LINE
8
BLACK
6
CONTINUOUS
10
0.420918
20
0.969452
11
0.422816
21
0.970142
0
LINE
8
BLACK
6
CONTINUOUS
10
0.422816
20
0.970142
11
0.431112
21
0.970142
0
LINE
8
BLACK
6
CONTINUOUS
10
0.431112
20
0.970142
11
0.431112
21
1.00656
0
LINE
8
BLACK
6
CONTINUOUS
10
0.431112
20
1.00656
11
0.43129
21
1.00757
0
LINE
8
BLACK
6
CONTINUOUS
10
0.43129
20
1.00757
11
0.431399
21
1.0077
0
LINE
8
BLACK
6
CONTINUOUS
10
0.431399
20
1.0077
11
0.431418
21
1.00787
0
LINE
8
BLACK
6
CONTINUOUS
10
0.431418
20
1.00787
11
0.432037
21
1.00846
0
LINE
8
BLACK
6
CONTINUOUS
10
0.432037
20
1.00846
11
0.432588
21
1.00912
0
LINE
8
BLACK
6
CONTINUOUS
10
0.432588
20
1.00912
11
0.432755
21
1.00915
0
LINE
8
BLACK
6
CONTINUOUS
10
0.432755
20
1.00915
11
0.432878
21
1.00926
0
LINE
8
BLACK
6
CONTINUOUS
10
0.432878
20
1.00926
11
0.433733
21
1.00932
0
LINE
8
BLACK
6
CONTINUOUS
10
0.433733
20
1.00932
11
0.434577
21
1.00947
0
LINE
8
BLACK
6
CONTINUOUS
10
0.434577
20
1.00947
11
0.434724
21
1.00938
0
LINE
8
BLACK
6
CONTINUOUS
10
0.241448
20
0.922998
11
0.242561
21
0.921312
0
LINE
8
BLACK
6
CONTINUOUS
10
0.242561
20
0.921312
11
0.24233
21
0.919306
0
LINE
8
BLACK
6
CONTINUOUS
10
0.24233
20
0.919306
11
0.240455
21
0.915556
0
LINE
8
BLACK
6
CONTINUOUS
10
0.240455
20
0.915556
11
0.239929
21
0.914847
0
LINE
8
BLACK
6
CONTINUOUS
10
0.239929
20
0.914847
11
0.239902
21
0.914789
0
LINE
8
BLACK
6
CONTINUOUS
10
0.239902
20
0.914789
11
0.237444
21
0.91233
0
LINE
8
BLACK
6
CONTINUOUS
10
0.237444
20
0.91233
11
0.264857
21
0.91233
0
LINE
8
BLACK
6
CONTINUOUS
10
0.264857
20
0.91233
11
0.264857
21
0.920626
0
LINE
8
BLACK
6
CONTINUOUS
10
0.264857
20
0.920626
11
0.265036
21
0.921636
0
LINE
8
BLACK
6
CONTINUOUS
10
0.265036
20
0.921636
11
0.266334
21
0.923183
0
LINE
8
BLACK
6
CONTINUOUS
10
0.266334
20
0.923183
11
0.268323
21
0.923534
0
LINE
8
BLACK
6
CONTINUOUS
10
0.268323
20
0.923534
11
0.270072
21
0.922524
0
LINE
8
BLACK
6
CONTINUOUS
10
0.270072
20
0.922524
11
0.270763
21
0.920626
0
LINE
8
BLACK
6
CONTINUOUS
10
0.270763
20
0.920626
11
0.270763
21
0.898129
0
LINE
8
BLACK
6
CONTINUOUS
10
0.270763
20
0.898129
11
0.270585
21
0.897119
0
LINE
8
BLACK
6
CONTINUOUS
10
0.270585
20
0.897119
11
0.269287
21
0.895572
0
LINE
8
BLACK
6
CONTINUOUS
10
0.269287
20
0.895572
11
0.267297
21
0.895221
0
LINE
8
BLACK
6
CONTINUOUS
10
0.267297
20
0.895221
11
0.265548
21
0.896231
0
LINE
8
BLACK
6
CONTINUOUS
10
0.265548
20
0.896231
11
0.264857
21
0.898129
0
LINE
8
BLACK
6
CONTINUOUS
10
0.264857
20
0.898129
11
0.264857
21
0.906425
0
LINE
8
BLACK
6
CONTINUOUS
10
0.264857
20
0.906425
11
0.22844
21
0.906425
0
LINE
8
BLACK
6
CONTINUOUS
10
0.22844
20
0.906425
11
0.22743
21
0.906603
0
LINE
8
BLACK
6
CONTINUOUS
10
0.22743
20
0.906603
11
0.2273
21
0.906712
0
LINE
8
BLACK
6
CONTINUOUS
10
0.2273
20
0.906712
11
0.227131
21
0.906731
0
LINE
8
BLACK
6
CONTINUOUS
10
0.227131
20
0.906731
11
0.226539
21
0.90735
0
LINE
8
BLACK
6
CONTINUOUS
10
0.226539
20
0.90735
11
0.225883
21
0.907901
0
LINE
8
BLACK
6
CONTINUOUS
10
0.225883
20
0.907901
11
0.225854
21
0.908068
0
LINE
8
BLACK
6
CONTINUOUS
10
0.225854
20
0.908068
11
0.225736
21
0.908191
0
LINE
8
BLACK
6
CONTINUOUS
10
0.225736
20
0.908191
11
0.225681
21
0.909046
0
LINE
8
BLACK
6
CONTINUOUS
10
0.225681
20
0.909046
11
0.225532
21
0.90989
0
LINE
8
BLACK
6
CONTINUOUS
10
0.225532
20
0.90989
11
0.225617
21
0.910037
0
LINE
8
BLACK
6
CONTINUOUS
10
0.225617
20
0.910037
11
0.225606
21
0.910207
0
LINE
8
BLACK
6
CONTINUOUS
10
0.225606
20
0.910207
11
0.226114
21
0.910897
0
LINE
8
BLACK
6
CONTINUOUS
10
0.226114
20
0.910897
11
0.226542
21
0.911639
0
LINE
8
BLACK
6
CONTINUOUS
10
0.226542
20
0.911639
11
0.226702
21
0.911698
0
LINE
8
BLACK
6
CONTINUOUS
10
0.226702
20
0.911698
11
0.226802
21
0.911834
0
LINE
8
BLACK
6
CONTINUOUS
10
0.226802
20
0.911834
11
0.232183
21
0.915422
0
LINE
8
BLACK
6
CONTINUOUS
10
0.232183
20
0.915422
11
0.235387
21
0.918626
0
LINE
8
BLACK
6
CONTINUOUS
10
0.235387
20
0.918626
11
0.237048
21
0.921947
0
LINE
8
BLACK
6
CONTINUOUS
10
0.237048
20
0.921947
11
0.237659
21
0.92277
0
LINE
8
BLACK
6
CONTINUOUS
10
0.237659
20
0.92277
11
0.239512
21
0.923574
0
LINE
8
BLACK
6
CONTINUOUS
10
0.239512
20
0.923574
11
0.241448
21
0.922998
0
LINE
8
BLACK
6
CONTINUOUS
10
0.190883
20
0.970253
11
0.191575
21
0.968583
0
LINE
8
BLACK
6
CONTINUOUS
10
0.191575
20
0.968583
11
0.191575
21
0.897717
0
LINE
8
BLACK
6
CONTINUOUS
10
0.191575
20
0.897717
11
0.190883
21
0.896046
0
LINE
8
BLACK
6
CONTINUOUS
10
0.190883
20
0.896046
11
0.189213
21
0.895354
0
LINE
8
BLACK
6
CONTINUOUS
10
0.189213
20
0.895354
11
0.187542
21
0.896046
0
LINE
8
BLACK
6
CONTINUOUS
10
0.187542
20
0.896046
11
0.18685
21
0.897717
0
LINE
8
BLACK
6
CONTINUOUS
10
0.18685
20
0.897717
11
0.18685
21
0.968583
0
LINE
8
BLACK
6
CONTINUOUS
10
0.18685
20
0.968583
11
0.187542
21
0.970253
0
LINE
8
BLACK
6
CONTINUOUS
10
0.187542
20
0.970253
11
0.189213
21
0.970945
0
LINE
8
BLACK
6
CONTINUOUS
10
0.189213
20
0.970945
11
0.190883
21
0.970253
0
LINE
8
BLACK
6
CONTINUOUS
10
0.261321
20
0.962771
11
0.261456
21
0.962657
0
LINE
8
BLACK
6
CONTINUOUS
10
0.261456
20
0.962657
11
0.261632
21
0.962637
0
LINE
8
BLACK
6
CONTINUOUS
10
0.261632
20
0.962637
11
0.265381
21
0.960762
0
LINE
8
BLACK
6
CONTINUOUS
10
0.265381
20
0.960762
11
0.26609
21
0.960237
0
LINE
8
BLACK
6
CONTINUOUS
10
0.26609
20
0.960237
11
0.266149
21
0.960209
0
LINE
8
BLACK
6
CONTINUOUS
10
0.266149
20
0.960209
11
0.268023
21
0.958335
0
LINE
8
BLACK
6
CONTINUOUS
10
0.268023
20
0.958335
11
0.26853
21
0.957612
0
LINE
8
BLACK
6
CONTINUOUS
10
0.26853
20
0.957612
11
0.268576
21
0.957567
0
LINE
8
BLACK
6
CONTINUOUS
10
0.268576
20
0.957567
11
0.270451
21
0.953818
0
LINE
8
BLACK
6
CONTINUOUS
10
0.270451
20
0.953818
11
0.270744
21
0.952835
0
LINE
8
BLACK
6
CONTINUOUS
10
0.270744
20
0.952835
11
0.270703
21
0.952663
0
LINE
8
BLACK
6
CONTINUOUS
10
0.270703
20
0.952663
11
0.270763
21
0.952497
0
LINE
8
BLACK
6
CONTINUOUS
10
0.270763
20
0.952497
11
0.270763
21
0.944998
0
LINE
8
BLACK
6
CONTINUOUS
10
0.270763
20
0.944998
11
0.270585
21
0.943988
0
LINE
8
BLACK
6
CONTINUOUS
10
0.270585
20
0.943988
11
0.270471
21
0.943853
0
LINE
8
BLACK
6
CONTINUOUS
10
0.270471
20
0.943853
11
0.270451
21
0.943678
0
LINE
8
BLACK
6
CONTINUOUS
10
0.270451
20
0.943678
11
0.268576
21
0.939928
0
LINE
8
BLACK
6
CONTINUOUS
10
0.268576
20
0.939928
11
0.268051
21
0.939219
0
LINE
8
BLACK
6
CONTINUOUS
10
0.268051
20
0.939219
11
0.268023
21
0.939161
0
LINE
8
BLACK
6
CONTINUOUS
10
0.268023
20
0.939161
11
0.266149
21
0.937286
0
LINE
8
BLACK
6
CONTINUOUS
10
0.266149
20
0.937286
11
0.265426
21
0.93678
0
LINE
8
BLACK
6
CONTINUOUS
10
0.265426
20
0.93678
11
0.265381
21
0.936733
0
LINE
8
BLACK
6
CONTINUOUS
10
0.265381
20
0.936733
11
0.261632
21
0.934858
0
LINE
8
BLACK
6
CONTINUOUS
10
0.261632
20
0.934858
11
0.260649
21
0.934566
0
LINE
8
BLACK
6
CONTINUOUS
10
0.260649
20
0.934566
11
0.260477
21
0.934607
0
LINE
8
BLACK
6
CONTINUOUS
10
0.260477
20
0.934607
11
0.260311
21
0.934546
0
LINE
8
BLACK
6
CONTINUOUS
10
0.260311
20
0.934546
11
0.22844
21
0.934546
0
LINE
8
BLACK
6
CONTINUOUS
10
0.22844
20
0.934546
11
0.22743
21
0.934724
0
LINE
8
BLACK
6
CONTINUOUS
10
0.22743
20
0.934724
11
0.225883
21
0.936023
0
LINE
8
BLACK
6
CONTINUOUS
10
0.225883
20
0.936023
11
0.225532
21
0.938012
0
LINE
8
BLACK
6
CONTINUOUS
10
0.225532
20
0.938012
11
0.226542
21
0.939761
0
LINE
8
BLACK
6
CONTINUOUS
10
0.226542
20
0.939761
11
0.22844
21
0.940452
0
LINE
8
BLACK
6
CONTINUOUS
10
0.22844
20
0.940452
11
0.259614
21
0.940452
0
LINE
8
BLACK
6
CONTINUOUS
10
0.259614
20
0.940452
11
0.262312
21
0.941801
0
LINE
8
BLACK
6
CONTINUOUS
10
0.262312
20
0.941801
11
0.263509
21
0.942998
0
LINE
8
BLACK
6
CONTINUOUS
10
0.263509
20
0.942998
11
0.264857
21
0.945695
0
LINE
8
BLACK
6
CONTINUOUS
10
0.264857
20
0.945695
11
0.264857
21
0.9518
0
LINE
8
BLACK
6
CONTINUOUS
10
0.264857
20
0.9518
11
0.263509
21
0.954498
0
LINE
8
BLACK
6
CONTINUOUS
10
0.263509
20
0.954498
11
0.262312
21
0.955695
0
LINE
8
BLACK
6
CONTINUOUS
10
0.262312
20
0.955695
11
0.259614
21
0.957043
0
LINE
8
BLACK
6
CONTINUOUS
10
0.259614
20
0.957043
11
0.22844
21
0.957043
0
LINE
8
BLACK
6
CONTINUOUS
10
0.22844
20
0.957043
11
0.22743
21
0.957222
0
LINE
8
BLACK
6
CONTINUOUS
10
0.22743
20
0.957222
11
0.225883
21
0.95852
0
LINE
8
BLACK
6
CONTINUOUS
10
0.225883
20
0.95852
11
0.225532
21
0.960509
0
LINE
8
BLACK
6
CONTINUOUS
10
0.225532
20
0.960509
11
0.226542
21
0.962258
0
LINE
8
BLACK
6
CONTINUOUS
10
0.226542
20
0.962258
11
0.22844
21
0.962949
0
LINE
8
BLACK
6
CONTINUOUS
10
0.22844
20
0.962949
11
0.260311
21
0.962949
0
LINE
8
BLACK
6
CONTINUOUS
10
0.260311
20
0.962949
11
0.261321
21
0.962771
0
LINE
8
BLACK
6
CONTINUOUS
10
0.167262
20
1.1119
11
0.167953
21
1.11
0
LINE
8
BLACK
6
CONTINUOUS
10
0.167953
20
1.11
11
0.167953
21
1.07
0
LINE
8
BLACK
6
CONTINUOUS
10
0.167953
20
1.07
11
0.167885
21
1.06962
0
LINE
8
BLACK
6
CONTINUOUS
10
0.167885
20
1.06962
11
0.167908
21
1.06949
0
LINE
8
BLACK
6
CONTINUOUS
10
0.167908
20
1.06949
11
0.167842
21
1.06937
0
LINE
8
BLACK
6
CONTINUOUS
10
0.167842
20
1.06937
11
0.167775
21
1.06899
0
LINE
8
BLACK
6
CONTINUOUS
10
0.167775
20
1.06899
11
0.167282
21
1.0684
0
LINE
8
BLACK
6
CONTINUOUS
10
0.167282
20
1.0684
11
0.166898
21
1.06774
0
LINE
8
BLACK
6
CONTINUOUS
10
0.166898
20
1.06774
11
0.166648
21
1.06765
0
LINE
8
BLACK
6
CONTINUOUS
10
0.166648
20
1.06765
11
0.166476
21
1.06744
0
LINE
8
BLACK
6
CONTINUOUS
10
0.166476
20
1.06744
11
0.165721
21
1.06731
0
LINE
8
BLACK
6
CONTINUOUS
10
0.165721
20
1.06731
11
0.165
21
1.06705
0
LINE
8
BLACK
6
CONTINUOUS
10
0.165
20
1.06705
11
0.105
21
1.06705
0
LINE
8
BLACK
6
CONTINUOUS
10
0.105
20
1.06705
11
0.104616
21
1.06711
0
LINE
8
BLACK
6
CONTINUOUS
10
0.104616
20
1.06711
11
0.104487
21
1.06709
0
LINE
8
BLACK
6
CONTINUOUS
10
0.104487
20
1.06709
11
0.104374
21
1.06716
0
LINE
8
BLACK
6
CONTINUOUS
10
0.104374
20
1.06716
11
0.10399
21
1.06723
0
LINE
8
BLACK
6
CONTINUOUS
10
0.10399
20
1.06723
11
0.103402
21
1.06772
0
LINE
8
BLACK
6
CONTINUOUS
10
0.103402
20
1.06772
11
0.102738
21
1.0681
0
LINE
8
BLACK
6
CONTINUOUS
10
0.102738
20
1.0681
11
0.102647
21
1.06835
0
LINE
8
BLACK
6
CONTINUOUS
10
0.102647
20
1.06835
11
0.102443
21
1.06852
0
LINE
8
BLACK
6
CONTINUOUS
10
0.102443
20
1.06852
11
0.10231
21
1.06928
0
LINE
8
BLACK
6
CONTINUOUS
10
0.10231
20
1.06928
11
0.102047
21
1.07
0
LINE
8
BLACK
6
CONTINUOUS
10
0.102047
20
1.07
11
0.102047
21
1.11
0
LINE
8
BLACK
6
CONTINUOUS
10
0.102047
20
1.11
11
0.102225
21
1.11101
0
LINE
8
BLACK
6
CONTINUOUS
10
0.102225
20
1.11101
11
0.103524
21
1.11256
0
LINE
8
BLACK
6
CONTINUOUS
10
0.103524
20
1.11256
11
0.105513
21
1.11291
0
LINE
8
BLACK
6
CONTINUOUS
10
0.105513
20
1.11291
11
0.107262
21
1.1119
0
LINE
8
BLACK
6
CONTINUOUS
10
0.107262
20
1.1119
11
0.107953
21
1.11
0
LINE
8
BLACK
6
CONTINUOUS
10
0.107953
20
1.11
11
0.107953
21
1.07295
0
LINE
8
BLACK
6
CONTINUOUS
10
0.107953
20
1.07295
11
0.162047
21
1.07295
0
LINE
8
BLACK
6
CONTINUOUS
10
0.162047
20
1.07295
11
0.162047
21
1.11
0
LINE
8
BLACK
6
CONTINUOUS
10
0.162047
20
1.11
11
0.162225
21
1.11101
0
LINE
8
BLACK
6
CONTINUOUS
10
0.162225
20
1.11101
11
0.163524
21
1.11256
0
LINE
8
BLACK
6
CONTINUOUS
10
0.163524
20
1.11256
11
0.165513
21
1.11291
0
LINE
8
BLACK
6
CONTINUOUS
10
0.165513
20
1.11291
11
0.167262
21
1.1119
0
LINE
8
BLACK
6
CONTINUOUS
10
0.332884
20
1.13789
11
0.333013
21
1.13791
0
LINE
8
BLACK
6
CONTINUOUS
10
0.333013
20
1.13791
11
0.333126
21
1.13784
0
LINE
8
BLACK
6
CONTINUOUS
10
0.333126
20
1.13784
11
0.33351
21
1.13777
0
LINE
8
BLACK
6
CONTINUOUS
10
0.33351
20
1.13777
11
0.334098
21
1.13728
0
LINE
8
BLACK
6
CONTINUOUS
10
0.334098
20
1.13728
11
0.334762
21
1.1369
0
LINE
8
BLACK
6
CONTINUOUS
10
0.334762
20
1.1369
11
0.334853
21
1.13665
0
LINE
8
BLACK
6
CONTINUOUS
10
0.334853
20
1.13665
11
0.335057
21
1.13648
0
LINE
8
BLACK
6
CONTINUOUS
10
0.335057
20
1.13648
11
0.33519
21
1.13572
0
LINE
8
BLACK
6
CONTINUOUS
10
0.33519
20
1.13572
11
0.335453
21
1.135
0
LINE
8
BLACK
6
CONTINUOUS
10
0.335453
20
1.135
11
0.335453
21
1.08262
0
LINE
8
BLACK
6
CONTINUOUS
10
0.335453
20
1.08262
11
0.335738
21
1.08276
0
LINE
8
BLACK
6
CONTINUOUS
10
0.335738
20
1.08276
11
0.339275
21
1.08275
0
LINE
8
BLACK
6
CONTINUOUS
10
0.339275
20
1.08275
11
0.342462
21
1.08122
0
LINE
8
BLACK
6
CONTINUOUS
10
0.342462
20
1.08122
11
0.344666
21
1.07845
0
LINE
8
BLACK
6
CONTINUOUS
10
0.344666
20
1.07845
11
0.345453
21
1.075
0
LINE
8
BLACK
6
CONTINUOUS
10
0.345453
20
1.075
11
0.345453
21
1.07497
0
LINE
8
BLACK
6
CONTINUOUS
10
0.345453
20
1.07497
11
0.344654
21
1.07153
0
LINE
8
BLACK
6
CONTINUOUS
10
0.344654
20
1.07153
11
0.34244
21
1.06877
0
LINE
8
BLACK
6
CONTINUOUS
10
0.34244
20
1.06877
11
0.339248
21
1.06724
0
LINE
8
BLACK
6
CONTINUOUS
10
0.339248
20
1.06724
11
0.335711
21
1.06725
0
LINE
8
BLACK
6
CONTINUOUS
10
0.335711
20
1.06725
11
0.332528
21
1.06879
0
LINE
8
BLACK
6
CONTINUOUS
10
0.332528
20
1.06879
11
0.330328
21
1.07156
0
LINE
8
BLACK
6
CONTINUOUS
10
0.330328
20
1.07156
11
0.330219
21
1.07205
0
LINE
8
BLACK
6
CONTINUOUS
10
0.330219
20
1.07205
11
0.2925
21
1.07205
0
LINE
8
BLACK
6
CONTINUOUS
10
0.2925
20
1.07205
11
0.29149
21
1.07223
0
LINE
8
BLACK
6
CONTINUOUS
10
0.29149
20
1.07223
11
0.289943
21
1.07352
0
LINE
8
BLACK
6
CONTINUOUS
10
0.289943
20
1.07352
11
0.289592
21
1.07551
0
LINE
8
BLACK
6
CONTINUOUS
10
0.289592
20
1.07551
11
0.290602
21
1.07726
0
LINE
8
BLACK
6
CONTINUOUS
10
0.290602
20
1.07726
11
0.2925
21
1.07795
0
LINE
8
BLACK
6
CONTINUOUS
10
0.2925
20
1.07795
11
0.329547
21
1.07795
0
LINE
8
BLACK
6
CONTINUOUS
10
0.329547
20
1.07795
11
0.329547
21
1.13205
0
LINE
8
BLACK
6
CONTINUOUS
10
0.329547
20
1.13205
11
0.2925
21
1.13205
0
LINE
8
BLACK
6
CONTINUOUS
10
0.2925
20
1.13205
11
0.29149
21
1.13223
0
LINE
8
BLACK
6
CONTINUOUS
10
0.29149
20
1.13223
11
0.289943
21
1.13352
0
LINE
8
BLACK
6
CONTINUOUS
10
0.289943
20
1.13352
11
0.289592
21
1.13551
0
LINE
8
BLACK
6
CONTINUOUS
10
0.289592
20
1.13551
11
0.290602
21
1.13726
0
LINE
8
BLACK
6
CONTINUOUS
10
0.290602
20
1.13726
11
0.2925
21
1.13795
0
LINE
8
BLACK
6
CONTINUOUS
10
0.2925
20
1.13795
11
0.3325
21
1.13795
0
LINE
8
BLACK
6
CONTINUOUS
10
0.3325
20
1.13795
11
0.332884
21
1.13789
0
LINE
8
BLACK
6
CONTINUOUS
10
0.335933
20
1.07657
11
0.335453
21
1.07541
0
LINE
8
BLACK
6
CONTINUOUS
10
0.335453
20
1.07541
11
0.335453
21
1.075
0
LINE
8
BLACK
6
CONTINUOUS
10
0.335453
20
1.075
11
0.335402
21
1.07471
0
LINE
8
BLACK
6
CONTINUOUS
10
0.335402
20
1.07471
11
0.335933
21
1.07343
0
LINE
8
BLACK
6
CONTINUOUS
10
0.335933
20
1.07343
11
0.3375
21
1.07278
0
LINE
8
BLACK
6
CONTINUOUS
10
0.3375
20
1.07278
11
0.339067
21
1.07343
0
LINE
8
BLACK
6
CONTINUOUS
10
0.339067
20
1.07343
11
0.339716
21
1.075
0
LINE
8
BLACK
6
CONTINUOUS
10
0.339716
20
1.075
11
0.339067
21
1.07657
0
LINE
8
BLACK
6
CONTINUOUS
10
0.339067
20
1.07657
11
0.3375
21
1.07722
0
LINE
8
BLACK
6
CONTINUOUS
10
0.3375
20
1.07722
11
0.335933
21
1.07657
0
LINE
8
BLACK
6
CONTINUOUS
10
0.25351
20
1.13777
11
0.255057
21
1.13648
0
LINE
8
BLACK
6
CONTINUOUS
10
0.255057
20
1.13648
11
0.255408
21
1.13449
0
LINE
8
BLACK
6
CONTINUOUS
10
0.255408
20
1.13449
11
0.254398
21
1.13274
0
LINE
8
BLACK
6
CONTINUOUS
10
0.254398
20
1.13274
11
0.2525
21
1.13205
0
LINE
8
BLACK
6
CONTINUOUS
10
0.2525
20
1.13205
11
0.215453
21
1.13205
0
LINE
8
BLACK
6
CONTINUOUS
10
0.215453
20
1.13205
11
0.215453
21
1.07795
0
LINE
8
BLACK
6
CONTINUOUS
10
0.215453
20
1.07795
11
0.2525
21
1.07795
0
LINE
8
BLACK
6
CONTINUOUS
10
0.2525
20
1.07795
11
0.25351
21
1.07777
0
LINE
8
BLACK
6
CONTINUOUS
10
0.25351
20
1.07777
11
0.255057
21
1.07648
0
LINE
8
BLACK
6
CONTINUOUS
10
0.255057
20
1.07648
11
0.255408
21
1.07449
0
LINE
8
BLACK
6
CONTINUOUS
10
0.255408
20
1.07449
11
0.254398
21
1.07274
0
LINE
8
BLACK
6
CONTINUOUS
10
0.254398
20
1.07274
11
0.2525
21
1.07205
0
LINE
8
BLACK
6
CONTINUOUS
10
0.2525
20
1.07205
11
0.2125
21
1.07205
0
LINE
8
BLACK
6
CONTINUOUS
10
0.2125
20
1.07205
11
0.212116
21
1.07211
0
LINE
8
BLACK
6
CONTINUOUS
10
0.212116
20
1.07211
11
0.211987
21
1.07209
0
LINE
8
BLACK
6
CONTINUOUS
10
0.211987
20
1.07209
11
0.211874
21
1.07216
0
LINE
8
BLACK
6
CONTINUOUS
10
0.211874
20
1.07216
11
0.21149
21
1.07223
0
LINE
8
BLACK
6
CONTINUOUS
10
0.21149
20
1.07223
11
0.210902
21
1.07272
0
LINE
8
BLACK
6
CONTINUOUS
10
0.210902
20
1.07272
11
0.210238
21
1.0731
0
LINE
8
BLACK
6
CONTINUOUS
10
0.210238
20
1.0731
11
0.210147
21
1.07335
0
LINE
8
BLACK
6
CONTINUOUS
10
0.210147
20
1.07335
11
0.209943
21
1.07352
0
LINE
8
BLACK
6
CONTINUOUS
10
0.209943
20
1.07352
11
0.20981
21
1.07428
0
LINE
8
BLACK
6
CONTINUOUS
10
0.20981
20
1.07428
11
0.209547
21
1.075
0
LINE
8
BLACK
6
CONTINUOUS
10
0.209547
20
1.075
11
0.209547
21
1.135
0
LINE
8
BLACK
6
CONTINUOUS
10
0.209547
20
1.135
11
0.209615
21
1.13538
0
LINE
8
BLACK
6
CONTINUOUS
10
0.209615
20
1.13538
11
0.209592
21
1.13551
0
LINE
8
BLACK
6
CONTINUOUS
10
0.209592
20
1.13551
11
0.209658
21
1.13563
0
LINE
8
BLACK
6
CONTINUOUS
10
0.209658
20
1.13563
11
0.209725
21
1.13601
0
LINE
8
BLACK
6
CONTINUOUS
10
0.209725
20
1.13601
11
0.210218
21
1.1366
0
LINE
8
BLACK
6
CONTINUOUS
10
0.210218
20
1.1366
11
0.210602
21
1.13726
0
LINE
8
BLACK
6
CONTINUOUS
10
0.210602
20
1.13726
11
0.210852
21
1.13735
0
LINE
8
BLACK
6
CONTINUOUS
10
0.210852
20
1.13735
11
0.211024
21
1.13756
0
LINE
8
BLACK
6
CONTINUOUS
10
0.211024
20
1.13756
11
0.211779
21
1.13769
0
LINE
8
BLACK
6
CONTINUOUS
10
0.211779
20
1.13769
11
0.2125
21
1.13795
0
LINE
8
BLACK
6
CONTINUOUS
10
0.2125
20
1.13795
11
0.2525
21
1.13795
0
LINE
8
BLACK
6
CONTINUOUS
10
0.2525
20
1.13795
11
0.25351
21
1.13777
0
LINE
8
BLACK
6
CONTINUOUS
10
0.35896
20
1.11794
11
0.358268
21
1.11961
0
LINE
8
BLACK
6
CONTINUOUS
10
0.358268
20
1.11961
11
0.358268
21
1.2889
0
LINE
8
BLACK
6
CONTINUOUS
10
0.358268
20
1.2889
11
0.35896
21
1.29057
0
LINE
8
BLACK
6
CONTINUOUS
10
0.35896
20
1.29057
11
0.36063
21
1.29126
0
LINE
8
BLACK
6
CONTINUOUS
10
0.36063
20
1.29126
11
0.3623
21
1.29057
0
LINE
8
BLACK
6
CONTINUOUS
10
0.3623
20
1.29057
11
0.362992
21
1.2889
0
LINE
8
BLACK
6
CONTINUOUS
10
0.362992
20
1.2889
11
0.362992
21
1.12197
0
LINE
8
BLACK
6
CONTINUOUS
10
0.362992
20
1.12197
11
0.437008
21
1.12197
0
LINE
8
BLACK
6
CONTINUOUS
10
0.437008
20
1.12197
11
0.437008
21
1.2889
0
LINE
8
BLACK
6
CONTINUOUS
10
0.437008
20
1.2889
11
0.4377
21
1.29057
0
LINE
8
BLACK
6
CONTINUOUS
10
0.4377
20
1.29057
11
0.43937
21
1.29126
0
LINE
8
BLACK
6
CONTINUOUS
10
0.43937
20
1.29126
11
0.44104
21
1.29057
0
LINE
8
BLACK
6
CONTINUOUS
10
0.44104
20
1.29057
11
0.441732
21
1.2889
0
LINE
8
BLACK
6
CONTINUOUS
10
0.441732
20
1.2889
11
0.441732
21
1.11961
0
LINE
8
BLACK
6
CONTINUOUS
10
0.441732
20
1.11961
11
0.44104
21
1.11794
0
LINE
8
BLACK
6
CONTINUOUS
10
0.44104
20
1.11794
11
0.43937
21
1.11724
0
LINE
8
BLACK
6
CONTINUOUS
10
0.43937
20
1.11724
11
0.36063
21
1.11724
0
LINE
8
BLACK
6
CONTINUOUS
10
0.36063
20
1.11724
11
0.35896
21
1.11794
0
LINE
8
BLACK
6
CONTINUOUS
10
0.49718
20
1.21628
11
0.497315
21
1.21629
0
LINE
8
BLACK
6
CONTINUOUS
10
0.497315
20
1.21629
11
0.498043
21
1.21578
0
LINE
8
BLACK
6
CONTINUOUS
10
0.498043
20
1.21578
11
0.498812
21
1.21534
0
LINE
8
BLACK
6
CONTINUOUS
10
0.498812
20
1.21534
11
0.498859
21
1.21521
0
LINE
8
BLACK
6
CONTINUOUS
10
0.498859
20
1.21521
11
0.498969
21
1.21513
0
LINE
8
BLACK
6
CONTINUOUS
10
0.498969
20
1.21513
11
0.499199
21
1.21427
0
LINE
8
BLACK
6
CONTINUOUS
10
0.499199
20
1.21427
11
0.499503
21
1.21344
0
LINE
8
BLACK
6
CONTINUOUS
10
0.499503
20
1.21344
11
0.499503
21
1.18907
0
LINE
8
BLACK
6
CONTINUOUS
10
0.499503
20
1.18907
11
0.499325
21
1.18806
0
LINE
8
BLACK
6
CONTINUOUS
10
0.499325
20
1.18806
11
0.498027
21
1.18651
0
LINE
8
BLACK
6
CONTINUOUS
10
0.498027
20
1.18651
11
0.496038
21
1.18616
0
LINE
8
BLACK
6
CONTINUOUS
10
0.496038
20
1.18616
11
0.494288
21
1.18717
0
LINE
8
BLACK
6
CONTINUOUS
10
0.494288
20
1.18717
11
0.493598
21
1.18907
0
LINE
8
BLACK
6
CONTINUOUS
10
0.493598
20
1.18907
11
0.493598
21
1.20631
0
LINE
8
BLACK
6
CONTINUOUS
10
0.493598
20
1.20631
11
0.476141
21
1.18885
0
LINE
8
BLACK
6
CONTINUOUS
10
0.476141
20
1.18885
11
0.475301
21
1.18826
0
LINE
8
BLACK
6
CONTINUOUS
10
0.475301
20
1.18826
11
0.475125
21
1.18825
0
LINE
8
BLACK
6
CONTINUOUS
10
0.475125
20
1.18825
11
0.474987
21
1.18814
0
LINE
8
BLACK
6
CONTINUOUS
10
0.474987
20
1.18814
11
0.469363
21
1.18627
0
LINE
8
BLACK
6
CONTINUOUS
10
0.469363
20
1.18627
11
0.46849
21
1.18614
0
LINE
8
BLACK
6
CONTINUOUS
10
0.46849
20
1.18614
11
0.468429
21
1.18611
0
LINE
8
BLACK
6
CONTINUOUS
10
0.468429
20
1.18611
11
0.464679
21
1.18611
0
LINE
8
BLACK
6
CONTINUOUS
10
0.464679
20
1.18611
11
0.463669
21
1.18629
0
LINE
8
BLACK
6
CONTINUOUS
10
0.463669
20
1.18629
11
0.463534
21
1.18641
0
LINE
8
BLACK
6
CONTINUOUS
10
0.463534
20
1.18641
11
0.463359
21
1.18643
0
LINE
8
BLACK
6
CONTINUOUS
10
0.463359
20
1.18643
11
0.459609
21
1.1883
0
LINE
8
BLACK
6
CONTINUOUS
10
0.459609
20
1.1883
11
0.4589
21
1.18883
0
LINE
8
BLACK
6
CONTINUOUS
10
0.4589
20
1.18883
11
0.458842
21
1.18885
0
LINE
8
BLACK
6
CONTINUOUS
10
0.458842
20
1.18885
11
0.456967
21
1.19073
0
LINE
8
BLACK
6
CONTINUOUS
10
0.456967
20
1.19073
11
0.456461
21
1.19145
0
LINE
8
BLACK
6
CONTINUOUS
10
0.456461
20
1.19145
11
0.456414
21
1.1915
0
LINE
8
BLACK
6
CONTINUOUS
10
0.456414
20
1.1915
11
0.454539
21
1.19524
0
LINE
8
BLACK
6
CONTINUOUS
10
0.454539
20
1.19524
11
0.454247
21
1.19623
0
LINE
8
BLACK
6
CONTINUOUS
10
0.454247
20
1.19623
11
0.454288
21
1.1964
0
LINE
8
BLACK
6
CONTINUOUS
10
0.454288
20
1.1964
11
0.454228
21
1.19657
0
LINE
8
BLACK
6
CONTINUOUS
10
0.454228
20
1.19657
11
0.454228
21
1.20594
0
LINE
8
BLACK
6
CONTINUOUS
10
0.454228
20
1.20594
11
0.454406
21
1.20695
0
LINE
8
BLACK
6
CONTINUOUS
10
0.454406
20
1.20695
11
0.454519
21
1.20708
0
LINE
8
BLACK
6
CONTINUOUS
10
0.454519
20
1.20708
11
0.454539
21
1.20726
0
LINE
8
BLACK
6
CONTINUOUS
10
0.454539
20
1.20726
11
0.456414
21
1.21101
0
LINE
8
BLACK
6
CONTINUOUS
10
0.456414
20
1.21101
11
0.45694
21
1.21172
0
LINE
8
BLACK
6
CONTINUOUS
10
0.45694
20
1.21172
11
0.456967
21
1.21178
0
LINE
8
BLACK
6
CONTINUOUS
10
0.456967
20
1.21178
11
0.458842
21
1.21365
0
LINE
8
BLACK
6
CONTINUOUS
10
0.458842
20
1.21365
11
0.459682
21
1.21424
0
LINE
8
BLACK
6
CONTINUOUS
10
0.459682
20
1.21424
11
0.461694
21
1.21442
0
LINE
8
BLACK
6
CONTINUOUS
10
0.461694
20
1.21442
11
0.463349
21
1.21326
0
LINE
8
BLACK
6
CONTINUOUS
10
0.463349
20
1.21326
11
0.463871
21
1.21131
0
LINE
8
BLACK
6
CONTINUOUS
10
0.463871
20
1.21131
11
0.463018
21
1.20948
0
LINE
8
BLACK
6
CONTINUOUS
10
0.463018
20
1.20948
11
0.461482
21
1.20794
0
LINE
8
BLACK
6
CONTINUOUS
10
0.461482
20
1.20794
11
0.460133
21
1.20524
0
LINE
8
BLACK
6
CONTINUOUS
10
0.460133
20
1.20524
11
0.460133
21
1.19726
0
LINE
8
BLACK
6
CONTINUOUS
10
0.460133
20
1.19726
11
0.461482
21
1.19456
0
LINE
8
BLACK
6
CONTINUOUS
10
0.461482
20
1.19456
11
0.462679
21
1.19337
0
LINE
8
BLACK
6
CONTINUOUS
10
0.462679
20
1.19337
11
0.465376
21
1.19202
0
LINE
8
BLACK
6
CONTINUOUS
10
0.465376
20
1.19202
11
0.46795
21
1.19202
0
LINE
8
BLACK
6
CONTINUOUS
10
0.46795
20
1.19202
11
0.472458
21
1.19352
0
LINE
8
BLACK
6
CONTINUOUS
10
0.472458
20
1.19352
11
0.494462
21
1.21553
0
LINE
8
BLACK
6
CONTINUOUS
10
0.494462
20
1.21553
11
0.49499
21
1.2159
0
LINE
8
BLACK
6
CONTINUOUS
10
0.49499
20
1.2159
11
0.495074
21
1.216
0
LINE
8
BLACK
6
CONTINUOUS
10
0.495074
20
1.216
11
0.495152
21
1.21601
0
LINE
8
BLACK
6
CONTINUOUS
10
0.495152
20
1.21601
11
0.495303
21
1.21611
0
LINE
8
BLACK
6
CONTINUOUS
10
0.495303
20
1.21611
11
0.496188
21
1.21619
0
LINE
8
BLACK
6
CONTINUOUS
10
0.496188
20
1.21619
11
0.497063
21
1.21635
0
LINE
8
BLACK
6
CONTINUOUS
10
0.497063
20
1.21635
11
0.49718
21
1.21628
0
LINE
8
BLACK
6
CONTINUOUS
10
0.496934
20
1.25194
11
0.497063
21
1.25197
0
LINE
8
BLACK
6
CONTINUOUS
10
0.497063
20
1.25197
11
0.497177
21
1.2519
0
LINE
8
BLACK
6
CONTINUOUS
10
0.497177
20
1.2519
11
0.49756
21
1.25183
0
LINE
8
BLACK
6
CONTINUOUS
10
0.49756
20
1.25183
11
0.498148
21
1.25134
0
LINE
8
BLACK
6
CONTINUOUS
10
0.498148
20
1.25134
11
0.498812
21
1.25096
0
LINE
8
BLACK
6
CONTINUOUS
10
0.498812
20
1.25096
11
0.498903
21
1.25071
0
LINE
8
BLACK
6
CONTINUOUS
10
0.498903
20
1.25071
11
0.499108
21
1.25054
0
LINE
8
BLACK
6
CONTINUOUS
10
0.499108
20
1.25054
11
0.499241
21
1.24978
0
LINE
8
BLACK
6
CONTINUOUS
10
0.499241
20
1.24978
11
0.499503
21
1.24906
0
LINE
8
BLACK
6
CONTINUOUS
10
0.499503
20
1.24906
11
0.499503
21
1.23969
0
LINE
8
BLACK
6
CONTINUOUS
10
0.499503
20
1.23969
11
0.49935
21
1.23882
0
LINE
8
BLACK
6
CONTINUOUS
10
0.49935
20
1.23882
11
0.499352
21
1.23875
0
LINE
8
BLACK
6
CONTINUOUS
10
0.499352
20
1.23875
11
0.497477
21
1.23313
0
LINE
8
BLACK
6
CONTINUOUS
10
0.497477
20
1.23313
11
0.496989
21
1.23223
0
LINE
8
BLACK
6
CONTINUOUS
10
0.496989
20
1.23223
11
0.496838
21
1.23213
0
LINE
8
BLACK
6
CONTINUOUS
10
0.496838
20
1.23213
11
0.496764
21
1.23197
0
LINE
8
BLACK
6
CONTINUOUS
10
0.496764
20
1.23197
11
0.493014
21
1.22822
0
LINE
8
BLACK
6
CONTINUOUS
10
0.493014
20
1.22822
11
0.492291
21
1.22772
0
LINE
8
BLACK
6
CONTINUOUS
10
0.492291
20
1.22772
11
0.492247
21
1.22767
0
LINE
8
BLACK
6
CONTINUOUS
10
0.492247
20
1.22767
11
0.488497
21
1.2258
0
LINE
8
BLACK
6
CONTINUOUS
10
0.488497
20
1.2258
11
0.488009
21
1.22565
0
LINE
8
BLACK
6
CONTINUOUS
10
0.488009
20
1.22565
11
0.487893
21
1.22557
0
LINE
8
BLACK
6
CONTINUOUS
10
0.487893
20
1.22557
11
0.480394
21
1.2237
0
LINE
8
BLACK
6
CONTINUOUS
10
0.480394
20
1.2237
11
0.479806
21
1.22366
0
LINE
8
BLACK
6
CONTINUOUS
10
0.479806
20
1.22366
11
0.479678
21
1.22361
0
LINE
8
BLACK
6
CONTINUOUS
10
0.479678
20
1.22361
11
0.474053
21
1.22361
0
LINE
8
BLACK
6
CONTINUOUS
10
0.474053
20
1.22361
11
0.473473
21
1.22371
0
LINE
8
BLACK
6
CONTINUOUS
10
0.473473
20
1.22371
11
0.473337
21
1.2237
0
LINE
8
BLACK
6
CONTINUOUS
10
0.473337
20
1.2237
11
0.465838
21
1.22557
0
LINE
8
BLACK
6
CONTINUOUS
10
0.465838
20
1.22557
11
0.465373
21
1.22578
0
LINE
8
BLACK
6
CONTINUOUS
10
0.465373
20
1.22578
11
0.465234
21
1.2258
0
LINE
8
BLACK
6
CONTINUOUS
10
0.465234
20
1.2258
11
0.461484
21
1.22767
0
LINE
8
BLACK
6
CONTINUOUS
10
0.461484
20
1.22767
11
0.460775
21
1.2282
0
LINE
8
BLACK
6
CONTINUOUS
10
0.460775
20
1.2282
11
0.460717
21
1.22822
0
LINE
8
BLACK
6
CONTINUOUS
10
0.460717
20
1.22822
11
0.456967
21
1.23197
0
LINE
8
BLACK
6
CONTINUOUS
10
0.456967
20
1.23197
11
0.456379
21
1.23281
0
LINE
8
BLACK
6
CONTINUOUS
10
0.456379
20
1.23281
11
0.456364
21
1.23299
0
LINE
8
BLACK
6
CONTINUOUS
10
0.456364
20
1.23299
11
0.456254
21
1.23313
0
LINE
8
BLACK
6
CONTINUOUS
10
0.456254
20
1.23313
11
0.454379
21
1.23875
0
LINE
8
BLACK
6
CONTINUOUS
10
0.454379
20
1.23875
11
0.45425
21
1.23962
0
LINE
8
BLACK
6
CONTINUOUS
10
0.45425
20
1.23962
11
0.454228
21
1.23969
0
LINE
8
BLACK
6
CONTINUOUS
10
0.454228
20
1.23969
11
0.454228
21
1.24906
0
LINE
8
BLACK
6
CONTINUOUS
10
0.454228
20
1.24906
11
0.454295
21
1.24944
0
LINE
8
BLACK
6
CONTINUOUS
10
0.454295
20
1.24944
11
0.454272
21
1.24957
0
LINE
8
BLACK
6
CONTINUOUS
10
0.454272
20
1.24957
11
0.454338
21
1.24969
0
LINE
8
BLACK
6
CONTINUOUS
10
0.454338
20
1.24969
11
0.454406
21
1.25007
0
LINE
8
BLACK
6
CONTINUOUS
10
0.454406
20
1.25007
11
0.454899
21
1.25066
0
LINE
8
BLACK
6
CONTINUOUS
10
0.454899
20
1.25066
11
0.455282
21
1.25132
0
LINE
8
BLACK
6
CONTINUOUS
10
0.455282
20
1.25132
11
0.455533
21
1.25141
0
LINE
8
BLACK
6
CONTINUOUS
10
0.455533
20
1.25141
11
0.455704
21
1.25162
0
LINE
8
BLACK
6
CONTINUOUS
10
0.455704
20
1.25162
11
0.456459
21
1.25175
0
LINE
8
BLACK
6
CONTINUOUS
10
0.456459
20
1.25175
11
0.45718
21
1.25201
0
LINE
8
BLACK
6
CONTINUOUS
10
0.45718
20
1.25201
11
0.49655
21
1.25201
0
LINE
8
BLACK
6
CONTINUOUS
10
0.49655
20
1.25201
11
0.496934
21
1.25194
0
LINE
8
BLACK
6
CONTINUOUS
10
0.460133
20
1.24611
11
0.460133
21
1.24016
0
LINE
8
BLACK
6
CONTINUOUS
10
0.460133
20
1.24016
11
0.461636
21
1.23566
0
LINE
8
BLACK
6
CONTINUOUS
10
0.461636
20
1.23566
11
0.464554
21
1.23274
0
LINE
8
BLACK
6
CONTINUOUS
10
0.464554
20
1.23274
11
0.467585
21
1.23122
0
LINE
8
BLACK
6
CONTINUOUS
10
0.467585
20
1.23122
11
0.474417
21
1.22951
0
LINE
8
BLACK
6
CONTINUOUS
10
0.474417
20
1.22951
11
0.479314
21
1.22951
0
LINE
8
BLACK
6
CONTINUOUS
10
0.479314
20
1.22951
11
0.486146
21
1.23122
0
LINE
8
BLACK
6
CONTINUOUS
10
0.486146
20
1.23122
11
0.489177
21
1.23274
0
LINE
8
BLACK
6
CONTINUOUS
10
0.489177
20
1.23274
11
0.492095
21
1.23566
0
LINE
8
BLACK
6
CONTINUOUS
10
0.492095
20
1.23566
11
0.493598
21
1.24016
0
LINE
8
BLACK
6
CONTINUOUS
10
0.493598
20
1.24016
11
0.493598
21
1.24611
0
LINE
8
BLACK
6
CONTINUOUS
10
0.493598
20
1.24611
11
0.460133
21
1.24611
0
LINE
8
BLACK
6
CONTINUOUS
10
0.08284
20
0.565961
11
0.0850493
21
0.568724
0
LINE
8
BLACK
6
CONTINUOUS
10
0.0850493
20
0.568724
11
0.0870472
21
0.569683
0
LINE
8
BLACK
6
CONTINUOUS
10
0.0870472
20
0.569683
11
0.0870472
21
0.6075
0
LINE
8
BLACK
6
CONTINUOUS
10
0.0870472
20
0.6075
11
0.0872253
21
0.60851
0
LINE
8
BLACK
6
CONTINUOUS
10
0.0872253
20
0.60851
11
0.0885236
21
0.610057
0
LINE
8
BLACK
6
CONTINUOUS
10
0.0885236
20
0.610057
11
0.0905128
21
0.610408
0
LINE
8
BLACK
6
CONTINUOUS
10
0.0905128
20
0.610408
11
0.0922619
21
0.609398
0
LINE
8
BLACK
6
CONTINUOUS
10
0.0922619
20
0.609398
11
0.0929528
21
0.6075
0
LINE
8
BLACK
6
CONTINUOUS
10
0.0929528
20
0.6075
11
0.0929528
21
0.570453
0
LINE
8
BLACK
6
CONTINUOUS
10
0.0929528
20
0.570453
11
0.147047
21
0.570453
0
LINE
8
BLACK
6
CONTINUOUS
10
0.147047
20
0.570453
11
0.147047
21
0.6075
0
LINE
8
BLACK
6
CONTINUOUS
10
0.147047
20
0.6075
11
0.147225
21
0.60851
0
LINE
8
BLACK
6
CONTINUOUS
10
0.147225
20
0.60851
11
0.148524
21
0.610057
0
LINE
8
BLACK
6
CONTINUOUS
10
0.148524
20
0.610057
11
0.150513
21
0.610408
0
LINE
8
BLACK
6
CONTINUOUS
10
0.150513
20
0.610408
11
0.152262
21
0.609398
0
LINE
8
BLACK
6
CONTINUOUS
10
0.152262
20
0.609398
11
0.152953
21
0.6075
0
LINE
8
BLACK
6
CONTINUOUS
10
0.152953
20
0.6075
11
0.152953
21
0.5675
0
LINE
8
BLACK
6
CONTINUOUS
10
0.152953
20
0.5675
11
0.152885
21
0.567116
0
LINE
8
BLACK
6
CONTINUOUS
10
0.152885
20
0.567116
11
0.152908
21
0.566987
0
LINE
8
BLACK
6
CONTINUOUS
10
0.152908
20
0.566987
11
0.152842
21
0.566874
0
LINE
8
BLACK
6
CONTINUOUS
10
0.152842
20
0.566874
11
0.152775
21
0.56649
0
LINE
8
BLACK
6
CONTINUOUS
10
0.152775
20
0.56649
11
0.152282
21
0.565902
0
LINE
8
BLACK
6
CONTINUOUS
10
0.152282
20
0.565902
11
0.151898
21
0.565238
0
LINE
8
BLACK
6
CONTINUOUS
10
0.151898
20
0.565238
11
0.151648
21
0.565147
0
LINE
8
BLACK
6
CONTINUOUS
10
0.151648
20
0.565147
11
0.151476
21
0.564943
0
LINE
8
BLACK
6
CONTINUOUS
10
0.151476
20
0.564943
11
0.150721
21
0.56481
0
LINE
8
BLACK
6
CONTINUOUS
10
0.150721
20
0.56481
11
0.15
21
0.564547
0
LINE
8
BLACK
6
CONTINUOUS
10
0.15
20
0.564547
11
0.0974857
21
0.564547
0
LINE
8
BLACK
6
CONTINUOUS
10
0.0974857
20
0.564547
11
0.0979528
21
0.5625
0
LINE
8
BLACK
6
CONTINUOUS
10
0.0979528
20
0.5625
11
0.0979527
21
0.562472
0
LINE
8
BLACK
6
CONTINUOUS
10
0.0979527
20
0.562472
11
0.097154
21
0.559026
0
LINE
8
BLACK
6
CONTINUOUS
10
0.097154
20
0.559026
11
0.0949398
21
0.556267
0
LINE
8
BLACK
6
CONTINUOUS
10
0.0949398
20
0.556267
11
0.0917484
21
0.554742
0
LINE
8
BLACK
6
CONTINUOUS
10
0.0917484
20
0.554742
11
0.088211
21
0.554751
0
LINE
8
BLACK
6
CONTINUOUS
10
0.088211
20
0.554751
11
0.0850276
21
0.556293
0
LINE
8
BLACK
6
CONTINUOUS
10
0.0850276
20
0.556293
11
0.082828
21
0.559064
0
LINE
8
BLACK
6
CONTINUOUS
10
0.082828
20
0.559064
11
0.0820504
21
0.5625
0
LINE
8
BLACK
6
CONTINUOUS
10
0.0820504
20
0.5625
11
0.0820472
21
0.562514
0
LINE
8
BLACK
6
CONTINUOUS
10
0.0820472
20
0.562514
11
0.08284
21
0.565961
0
LINE
8
BLACK
6
CONTINUOUS
10
0.09
20
0.560284
11
0.0915669
21
0.560933
0
LINE
8
BLACK
6
CONTINUOUS
10
0.0915669
20
0.560933
11
0.0922159
21
0.5625
0
LINE
8
BLACK
6
CONTINUOUS
10
0.0922159
20
0.5625
11
0.0915669
21
0.564067
0
LINE
8
BLACK
6
CONTINUOUS
10
0.0915669
20
0.564067
11
0.0904072
21
0.564547
0
LINE
8
BLACK
6
CONTINUOUS
10
0.0904072
20
0.564547
11
0.09
21
0.564547
0
LINE
8
BLACK
6
CONTINUOUS
10
0.09
20
0.564547
11
0.0897144
21
0.564598
0
LINE
8
BLACK
6
CONTINUOUS
10
0.0897144
20
0.564598
11
0.0884331
21
0.564067
0
LINE
8
BLACK
6
CONTINUOUS
10
0.0884331
20
0.564067
11
0.0877841
21
0.5625
0
LINE
8
BLACK
6
CONTINUOUS
10
0.0877841
20
0.5625
11
0.0884331
21
0.560933
0
LINE
8
BLACK
6
CONTINUOUS
10
0.0884331
20
0.560933
11
0.09
21
0.560284
0
LINE
8
BLACK
6
CONTINUOUS
10
0.17284
20
0.565961
11
0.175049
21
0.568724
0
LINE
8
BLACK
6
CONTINUOUS
10
0.175049
20
0.568724
11
0.177047
21
0.569683
0
LINE
8
BLACK
6
CONTINUOUS
10
0.177047
20
0.569683
11
0.177047
21
0.6075
0
LINE
8
BLACK
6
CONTINUOUS
10
0.177047
20
0.6075
11
0.177225
21
0.60851
0
LINE
8
BLACK
6
CONTINUOUS
10
0.177225
20
0.60851
11
0.178524
21
0.610057
0
LINE
8
BLACK
6
CONTINUOUS
10
0.178524
20
0.610057
11
0.180513
21
0.610408
0
LINE
8
BLACK
6
CONTINUOUS
10
0.180513
20
0.610408
11
0.182262
21
0.609398
0
LINE
8
BLACK
6
CONTINUOUS
10
0.182262
20
0.609398
11
0.182953
21
0.6075
0
LINE
8
BLACK
6
CONTINUOUS
10
0.182953
20
0.6075
11
0.182953
21
0.570453
0
LINE
8
BLACK
6
CONTINUOUS
10
0.182953
20
0.570453
11
0.237047
21
0.570453
0
LINE
8
BLACK
6
CONTINUOUS
10
0.237047
20
0.570453
11
0.237047
21
0.6075
0
LINE
8
BLACK
6
CONTINUOUS
10
0.237047
20
0.6075
11
0.237225
21
0.60851
0
LINE
8
BLACK
6
CONTINUOUS
10
0.237225
20
0.60851
11
0.238524
21
0.610057
0
LINE
8
BLACK
6
CONTINUOUS
10
0.238524
20
0.610057
11
0.240513
21
0.610408
0
LINE
8
BLACK
6
CONTINUOUS
10
0.240513
20
0.610408
11
0.242262
21
0.609398
0
LINE
8
BLACK
6
CONTINUOUS
10
0.242262
20
0.609398
11
0.242953
21
0.6075
0
LINE
8
BLACK
6
CONTINUOUS
10
0.242953
20
0.6075
11
0.242953
21
0.5675
0
LINE
8
BLACK
6
CONTINUOUS
10
0.242953
20
0.5675
11
0.242885
21
0.567116
0
LINE
8
BLACK
6
CONTINUOUS
10
0.242885
20
0.567116
11
0.242908
21
0.566987
0
LINE
8
BLACK
6
CONTINUOUS
10
0.242908
20
0.566987
11
0.242842
21
0.566874
0
LINE
8
BLACK
6
CONTINUOUS
10
0.242842
20
0.566874
11
0.242775
21
0.56649
0
LINE
8
BLACK
6
CONTINUOUS
10
0.242775
20
0.56649
11
0.242282
21
0.565902
0
LINE
8
BLACK
6
CONTINUOUS
10
0.242282
20
0.565902
11
0.241898
21
0.565238
0
LINE
8
BLACK
6
CONTINUOUS
10
0.241898
20
0.565238
11
0.241648
21
0.565147
0
LINE
8
BLACK
6
CONTINUOUS
10
0.241648
20
0.565147
11
0.241476
21
0.564943
0
LINE
8
BLACK
6
CONTINUOUS
10
0.241476
20
0.564943
11
0.240721
21
0.56481
0
LINE
8
BLACK
6
CONTINUOUS
10
0.240721
20
0.56481
11
0.24
21
0.564547
0
LINE
8
BLACK
6
CONTINUOUS
10
0.24
20
0.564547
11
0.187486
21
0.564547
0
LINE
8
BLACK
6
CONTINUOUS
10
0.187486
20
0.564547
11
0.187953
21
0.5625
0
LINE
8
BLACK
6
CONTINUOUS
10
0.187953
20
0.5625
11
0.187953
21
0.562472
0
LINE
8
BLACK
6
CONTINUOUS
10
0.187953
20
0.562472
11
0.187154
21
0.559026
0
LINE
8
BLACK
6
CONTINUOUS
10
0.187154
20
0.559026
11
0.18494
21
0.556267
0
LINE
8
BLACK
6
CONTINUOUS
10
0.18494
20
0.556267
11
0.181748
21
0.554742
0
LINE
8
BLACK
6
CONTINUOUS
10
0.181748
20
0.554742
11
0.178211
21
0.554751
0
LINE
8
BLACK
6
CONTINUOUS
10
0.178211
20
0.554751
11
0.175028
21
0.556293
0
LINE
8
BLACK
6
CONTINUOUS
10
0.175028
20
0.556293
11
0.172828
21
0.559064
0
LINE
8
BLACK
6
CONTINUOUS
10
0.172828
20
0.559064
11
0.17205
21
0.5625
0
LINE
8
BLACK
6
CONTINUOUS
10
0.17205
20
0.5625
11
0.172047
21
0.562514
0
LINE
8
BLACK
6
CONTINUOUS
10
0.172047
20
0.562514
11
0.17284
21
0.565961
0
LINE
8
BLACK
6
CONTINUOUS
10
0.18
20
0.560284
11
0.181567
21
0.560933
0
LINE
8
BLACK
6
CONTINUOUS
10
0.181567
20
0.560933
11
0.182216
21
0.5625
0
LINE
8
BLACK
6
CONTINUOUS
10
0.182216
20
0.5625
11
0.181567
21
0.564067
0
LINE
8
BLACK
6
CONTINUOUS
10
0.181567
20
0.564067
11
0.180407
21
0.564547
0
LINE
8
BLACK
6
CONTINUOUS
10
0.180407
20
0.564547
11
0.18
21
0.564547
0
LINE
8
BLACK
6
CONTINUOUS
10
0.18
20
0.564547
11
0.179714
21
0.564598
0
LINE
8
BLACK
6
CONTINUOUS
10
0.179714
20
0.564598
11
0.178433
21
0.564067
0
LINE
8
BLACK
6
CONTINUOUS
10
0.178433
20
0.564067
11
0.177784
21
0.5625
0
LINE
8
BLACK
6
CONTINUOUS
10
0.177784
20
0.5625
11
0.178433
21
0.560933
0
LINE
8
BLACK
6
CONTINUOUS
10
0.178433
20
0.560933
11
0.18
21
0.560284
0
LINE
8
BLACK
6
CONTINUOUS
10
0.26784
20
0.565961
11
0.270049
21
0.568724
0
LINE
8
BLACK
6
CONTINUOUS
10
0.270049
20
0.568724
11
0.272047
21
0.569683
0
LINE
8
BLACK
6
CONTINUOUS
10
0.272047
20
0.569683
11
0.272047
21
0.6075
0
LINE
8
BLACK
6
CONTINUOUS
10
0.272047
20
0.6075
11
0.272225
21
0.60851
0
LINE
8
BLACK
6
CONTINUOUS
10
0.272225
20
0.60851
11
0.273524
21
0.610057
0
LINE
8
BLACK
6
CONTINUOUS
10
0.273524
20
0.610057
11
0.275513
21
0.610408
0
LINE
8
BLACK
6
CONTINUOUS
10
0.275513
20
0.610408
11
0.277262
21
0.609398
0
LINE
8
BLACK
6
CONTINUOUS
10
0.277262
20
0.609398
11
0.277953
21
0.6075
0
LINE
8
BLACK
6
CONTINUOUS
10
0.277953
20
0.6075
11
0.277953
21
0.570453
0
LINE
8
BLACK
6
CONTINUOUS
10
0.277953
20
0.570453
11
0.332047
21
0.570453
0
LINE
8
BLACK
6
CONTINUOUS
10
0.332047
20
0.570453
11
0.332047
21
0.6075
0
LINE
8
BLACK
6
CONTINUOUS
10
0.332047
20
0.6075
11
0.332225
21
0.60851
0
LINE
8
BLACK
6
CONTINUOUS
10
0.332225
20
0.60851
11
0.333524
21
0.610057
0
LINE
8
BLACK
6
CONTINUOUS
10
0.333524
20
0.610057
11
0.335513
21
0.610408
0
LINE
8
BLACK
6
CONTINUOUS
10
0.335513
20
0.610408
11
0.337262
21
0.609398
0
LINE
8
BLACK
6
CONTINUOUS
10
0.337262
20
0.609398
11
0.337953
21
0.6075
0
LINE
8
BLACK
6
CONTINUOUS
10
0.337953
20
0.6075
11
0.337953
21
0.5675
0
LINE
8
BLACK
6
CONTINUOUS
10
0.337953
20
0.5675
11
0.337885
21
0.567116
0
LINE
8
BLACK
6
CONTINUOUS
10
0.337885
20
0.567116
11
0.337908
21
0.566987
0
LINE
8
BLACK
6
CONTINUOUS
10
0.337908
20
0.566987
11
0.337842
21
0.566874
0
LINE
8
BLACK
6
CONTINUOUS
10
0.337842
20
0.566874
11
0.337775
21
0.56649
0
LINE
8
BLACK
6
CONTINUOUS
10
0.337775
20
0.56649
11
0.337282
21
0.565902
0
LINE
8
BLACK
6
CONTINUOUS
10
0.337282
20
0.565902
11
0.336898
21
0.565238
0
LINE
8
BLACK
6
CONTINUOUS
10
0.336898
20
0.565238
11
0.336648
21
0.565147
0
LINE
8
BLACK
6
CONTINUOUS
10
0.336648
20
0.565147
11
0.336476
21
0.564943
0
LINE
8
BLACK
6
CONTINUOUS
10
0.336476
20
0.564943
11
0.335721
21
0.56481
0
LINE
8
BLACK
6
CONTINUOUS
10
0.335721
20
0.56481
11
0.335
21
0.564547
0
LINE
8
BLACK
6
CONTINUOUS
10
0.335
20
0.564547
11
0.282486
21
0.564547
0
LINE
8
BLACK
6
CONTINUOUS
10
0.282486
20
0.564547
11
0.282953
21
0.5625
0
LINE
8
BLACK
6
CONTINUOUS
10
0.282953
20
0.5625
11
0.282953
21
0.562472
0
LINE
8
BLACK
6
CONTINUOUS
10
0.282953
20
0.562472
11
0.282154
21
0.559026
0
LINE
8
BLACK
6
CONTINUOUS
10
0.282154
20
0.559026
11
0.27994
21
0.556267
0
LINE
8
BLACK
6
CONTINUOUS
10
0.27994
20
0.556267
11
0.276748
21
0.554742
0
LINE
8
BLACK
6
CONTINUOUS
10
0.276748
20
0.554742
11
0.273211
21
0.554751
0
LINE
8
BLACK
6
CONTINUOUS
10
0.273211
20
0.554751
11
0.270028
21
0.556293
0
LINE
8
BLACK
6
CONTINUOUS
10
0.270028
20
0.556293
11
0.267828
21
0.559064
0
LINE
8
BLACK
6
CONTINUOUS
10
0.267828
20
0.559064
11
0.26705
21
0.5625
0
LINE
8
BLACK
6
CONTINUOUS
10
0.26705
20
0.5625
11
0.267047
21
0.562514
0
LINE
8
BLACK
6
CONTINUOUS
10
0.267047
20
0.562514
11
0.26784
21
0.565961
0
LINE
8
BLACK
6
CONTINUOUS
10
0.275
20
0.560284
11
0.276567
21
0.560933
0
LINE
8
BLACK
6
CONTINUOUS
10
0.276567
20
0.560933
11
0.277216
21
0.5625
0
LINE
8
BLACK
6
CONTINUOUS
10
0.277216
20
0.5625
11
0.276567
21
0.564067
0
LINE
8
BLACK
6
CONTINUOUS
10
0.276567
20
0.564067
11
0.275407
21
0.564547
0
LINE
8
BLACK
6
CONTINUOUS
10
0.275407
20
0.564547
11
0.275
21
0.564547
0
LINE
8
BLACK
6
CONTINUOUS
10
0.275
20
0.564547
11
0.274714
21
0.564598
0
LINE
8
BLACK
6
CONTINUOUS
10
0.274714
20
0.564598
11
0.273433
21
0.564067
0
LINE
8
BLACK
6
CONTINUOUS
10
0.273433
20
0.564067
11
0.272784
21
0.5625
0
LINE
8
BLACK
6
CONTINUOUS
10
0.272784
20
0.5625
11
0.273433
21
0.560933
0
LINE
8
BLACK
6
CONTINUOUS
10
0.273433
20
0.560933
11
0.275
21
0.560284
0
LINE
8
BLACK
6
CONTINUOUS
10
0.19034
20
0.778461
11
0.192549
21
0.781224
0
LINE
8
BLACK
6
CONTINUOUS
10
0.192549
20
0.781224
11
0.195738
21
0.782755
0
LINE
8
BLACK
6
CONTINUOUS
10
0.195738
20
0.782755
11
0.199275
21
0.782752
0
LINE
8
BLACK
6
CONTINUOUS
10
0.199275
20
0.782752
11
0.202462
21
0.781215
0
LINE
8
BLACK
6
CONTINUOUS
10
0.202462
20
0.781215
11
0.204666
21
0.778449
0
LINE
8
BLACK
6
CONTINUOUS
10
0.204666
20
0.778449
11
0.204779
21
0.777953
0
LINE
8
BLACK
6
CONTINUOUS
10
0.204779
20
0.777953
11
0.2425
21
0.777953
0
LINE
8
BLACK
6
CONTINUOUS
10
0.2425
20
0.777953
11
0.24351
21
0.777775
0
LINE
8
BLACK
6
CONTINUOUS
10
0.24351
20
0.777775
11
0.245057
21
0.776476
0
LINE
8
BLACK
6
CONTINUOUS
10
0.245057
20
0.776476
11
0.245408
21
0.774487
0
LINE
8
BLACK
6
CONTINUOUS
10
0.245408
20
0.774487
11
0.244398
21
0.772738
0
LINE
8
BLACK
6
CONTINUOUS
10
0.244398
20
0.772738
11
0.2425
21
0.772047
0
LINE
8
BLACK
6
CONTINUOUS
10
0.2425
20
0.772047
11
0.205453
21
0.772047
0
LINE
8
BLACK
6
CONTINUOUS
10
0.205453
20
0.772047
11
0.205453
21
0.717953
0
LINE
8
BLACK
6
CONTINUOUS
10
0.205453
20
0.717953
11
0.2425
21
0.717953
0
LINE
8
BLACK
6
CONTINUOUS
10
0.2425
20
0.717953
11
0.24351
21
0.717775
0
LINE
8
BLACK
6
CONTINUOUS
10
0.24351
20
0.717775
11
0.245057
21
0.716476
0
LINE
8
BLACK
6
CONTINUOUS
10
0.245057
20
0.716476
11
0.245408
21
0.714487
0
LINE
8
BLACK
6
CONTINUOUS
10
0.245408
20
0.714487
11
0.244398
21
0.712738
0
LINE
8
BLACK
6
CONTINUOUS
10
0.244398
20
0.712738
11
0.2425
21
0.712047
0
LINE
8
BLACK
6
CONTINUOUS
10
0.2425
20
0.712047
11
0.2025
21
0.712047
0
LINE
8
BLACK
6
CONTINUOUS
10
0.2025
20
0.712047
11
0.202116
21
0.712115
0
LINE
8
BLACK
6
CONTINUOUS
10
0.202116
20
0.712115
11
0.201987
21
0.712092
0
LINE
8
BLACK
6
CONTINUOUS
10
0.201987
20
0.712092
11
0.201874
21
0.712158
0
LINE
8
BLACK
6
CONTINUOUS
10
0.201874
20
0.712158
11
0.20149
21
0.712225
0
LINE
8
BLACK
6
CONTINUOUS
10
0.20149
20
0.712225
11
0.200902
21
0.712718
0
LINE
8
BLACK
6
CONTINUOUS
10
0.200902
20
0.712718
11
0.200238
21
0.713102
0
LINE
8
BLACK
6
CONTINUOUS
10
0.200238
20
0.713102
11
0.200147
21
0.713352
0
LINE
8
BLACK
6
CONTINUOUS
10
0.200147
20
0.713352
11
0.199943
21
0.713524
0
LINE
8
BLACK
6
CONTINUOUS
10
0.199943
20
0.713524
11
0.19981
21
0.714279
0
LINE
8
BLACK
6
CONTINUOUS
10
0.19981
20
0.714279
11
0.199547
21
0.715
0
LINE
8
BLACK
6
CONTINUOUS
10
0.199547
20
0.715
11
0.199547
21
0.767385
0
LINE
8
BLACK
6
CONTINUOUS
10
0.199547
20
0.767385
11
0.199248
21
0.767242
0
LINE
8
BLACK
6
CONTINUOUS
10
0.199248
20
0.767242
11
0.195711
21
0.767251
0
LINE
8
BLACK
6
CONTINUOUS
10
0.195711
20
0.767251
11
0.192528
21
0.768793
0
LINE
8
BLACK
6
CONTINUOUS
10
0.192528
20
0.768793
11
0.190328
21
0.771564
0
LINE
8
BLACK
6
CONTINUOUS
10
0.190328
20
0.771564
11
0.18955
21
0.775
0
LINE
8
BLACK
6
CONTINUOUS
10
0.18955
20
0.775
11
0.189547
21
0.775014
0
LINE
8
BLACK
6
CONTINUOUS
10
0.189547
20
0.775014
11
0.19034
21
0.778461
0
LINE
8
BLACK
6
CONTINUOUS
10
0.1975
20
0.772784
11
0.199067
21
0.773433
0
LINE
8
BLACK
6
CONTINUOUS
10
0.199067
20
0.773433
11
0.199547
21
0.774593
0
LINE
8
BLACK
6
CONTINUOUS
10
0.199547
20
0.774593
11
0.199547
21
0.775
0
LINE
8
BLACK
6
CONTINUOUS
10
0.199547
20
0.775
11
0.199598
21
0.775286
0
LINE
8
BLACK
6
CONTINUOUS
10
0.199598
20
0.775286
11
0.199067
21
0.776567
0
LINE
8
BLACK
6
CONTINUOUS
10
0.199067
20
0.776567
11
0.1975
21
0.777216
0
LINE
8
BLACK
6
CONTINUOUS
10
0.1975
20
0.777216
11
0.195933
21
0.776567
0
LINE
8
BLACK
6
CONTINUOUS
10
0.195933
20
0.776567
11
0.195284
21
0.775
0
LINE
8
BLACK
6
CONTINUOUS
10
0.195284
20
0.775
11
0.195933
21
0.773433
0
LINE
8
BLACK
6
CONTINUOUS
10
0.195933
20
0.773433
11
0.1975
21
0.772784
0
LINE
8
BLACK
6
CONTINUOUS
10
0.15784
20
1.19846
11
0.160049
21
1.20122
0
LINE
8
BLACK
6
CONTINUOUS
10
0.160049
20
1.20122
11
0.163238
21
1.20276
0
LINE
8
BLACK
6
CONTINUOUS
10
0.163238
20
1.20276
11
0.166775
21
1.20275
0
LINE
8
BLACK
6
CONTINUOUS
10
0.166775
20
1.20275
11
0.169962
21
1.20122
0
LINE
8
BLACK
6
CONTINUOUS
10
0.169962
20
1.20122
11
0.172166
21
1.19845
0
LINE
8
BLACK
6
CONTINUOUS
10
0.172166
20
1.19845
11
0.172953
21
1.195
0
LINE
8
BLACK
6
CONTINUOUS
10
0.172953
20
1.195
11
0.172953
21
1.19497
0
LINE
8
BLACK
6
CONTINUOUS
10
0.172953
20
1.19497
11
0.172154
21
1.19153
0
LINE
8
BLACK
6
CONTINUOUS
10
0.172154
20
1.19153
11
0.16994
21
1.18877
0
LINE
8
BLACK
6
CONTINUOUS
10
0.16994
20
1.18877
11
0.167953
21
1.18782
0
LINE
8
BLACK
6
CONTINUOUS
10
0.167953
20
1.18782
11
0.167953
21
1.15
0
LINE
8
BLACK
6
CONTINUOUS
10
0.167953
20
1.15
11
0.167775
21
1.14899
0
LINE
8
BLACK
6
CONTINUOUS
10
0.167775
20
1.14899
11
0.166476
21
1.14744
0
LINE
8
BLACK
6
CONTINUOUS
10
0.166476
20
1.14744
11
0.164487
21
1.14709
0
LINE
8
BLACK
6
CONTINUOUS
10
0.164487
20
1.14709
11
0.162738
21
1.1481
0
LINE
8
BLACK
6
CONTINUOUS
10
0.162738
20
1.1481
11
0.162047
21
1.15
0
LINE
8
BLACK
6
CONTINUOUS
10
0.162047
20
1.15
11
0.162047
21
1.18705
0
LINE
8
BLACK
6
CONTINUOUS
10
0.162047
20
1.18705
11
0.107953
21
1.18705
0
LINE
8
BLACK
6
CONTINUOUS
10
0.107953
20
1.18705
11
0.107953
21
1.15
0
LINE
8
BLACK
6
CONTINUOUS
10
0.107953
20
1.15
11
0.107775
21
1.14899
0
LINE
8
BLACK
6
CONTINUOUS
10
0.107775
20
1.14899
11
0.106476
21
1.14744
0
LINE
8
BLACK
6
CONTINUOUS
10
0.106476
20
1.14744
11
0.104487
21
1.14709
0
LINE
8
BLACK
6
CONTINUOUS
10
0.104487
20
1.14709
11
0.102738
21
1.1481
0
LINE
8
BLACK
6
CONTINUOUS
10
0.102738
20
1.1481
11
0.102047
21
1.15
0
LINE
8
BLACK
6
CONTINUOUS
10
0.102047
20
1.15
11
0.102047
21
1.19
0
LINE
8
BLACK
6
CONTINUOUS
10
0.102047
20
1.19
11
0.102115
21
1.19038
0
LINE
8
BLACK
6
CONTINUOUS
10
0.102115
20
1.19038
11
0.102092
21
1.19051
0
LINE
8
BLACK
6
CONTINUOUS
10
0.102092
20
1.19051
11
0.102158
21
1.19063
0
LINE
8
BLACK
6
CONTINUOUS
10
0.102158
20
1.19063
11
0.102225
21
1.19101
0
LINE
8
BLACK
6
CONTINUOUS
10
0.102225
20
1.19101
11
0.102718
21
1.1916
0
LINE
8
BLACK
6
CONTINUOUS
10
0.102718
20
1.1916
11
0.103102
21
1.19226
0
LINE
8
BLACK
6
CONTINUOUS
10
0.103102
20
1.19226
11
0.103352
21
1.19235
0
LINE
8
BLACK
6
CONTINUOUS
10
0.103352
20
1.19235
11
0.103524
21
1.19256
0
LINE
8
BLACK
6
CONTINUOUS
10
0.103524
20
1.19256
11
0.104279
21
1.19269
0
LINE
8
BLACK
6
CONTINUOUS
10
0.104279
20
1.19269
11
0.105
21
1.19295
0
LINE
8
BLACK
6
CONTINUOUS
10
0.105
20
1.19295
11
0.157514
21
1.19295
0
LINE
8
BLACK
6
CONTINUOUS
10
0.157514
20
1.19295
11
0.15705
21
1.195
0
LINE
8
BLACK
6
CONTINUOUS
10
0.15705
20
1.195
11
0.157047
21
1.19501
0
LINE
8
BLACK
6
CONTINUOUS
10
0.157047
20
1.19501
11
0.15784
21
1.19846
0
LINE
8
BLACK
6
CONTINUOUS
10
0.164593
20
1.19295
11
0.165
21
1.19295
0
LINE
8
BLACK
6
CONTINUOUS
10
0.165
20
1.19295
11
0.165286
21
1.1929
0
LINE
8
BLACK
6
CONTINUOUS
10
0.165286
20
1.1929
11
0.166567
21
1.19343
0
LINE
8
BLACK
6
CONTINUOUS
10
0.166567
20
1.19343
11
0.167216
21
1.195
0
LINE
8
BLACK
6
CONTINUOUS
10
0.167216
20
1.195
11
0.166567
21
1.19657
0
LINE
8
BLACK
6
CONTINUOUS
10
0.166567
20
1.19657
11
0.165
21
1.19722
0
LINE
8
BLACK
6
CONTINUOUS
10
0.165
20
1.19722
11
0.163433
21
1.19657
0
LINE
8
BLACK
6
CONTINUOUS
10
0.163433
20
1.19657
11
0.162784
21
1.195
0
LINE
8
BLACK
6
CONTINUOUS
10
0.162784
20
1.195
11
0.163433
21
1.19343
0
LINE
8
BLACK
6
CONTINUOUS
10
0.163433
20
1.19343
11
0.164593
21
1.19295
  0
ENDSEC
  0
EOF
