  0
SECTION
  2
HEADER
  9
$ANGBASE
  50
0.0
  9
$ANGDIR
  70
1
  9
$MEASUREMENT
  70
0
  0
ENDSEC
  0
SECTION
  2
TABLES
  0
TABLE
  2
LTYPE
  70
4
  0
LTYPE
  5
40F
  2
CONTINUOUS
  70
0
  3
Solid line
  72
65
  73
0
  40
0.0
  0
LTYPE
  5
410
  2
DASHDOT
 70
0
  3
Dash Dot ____ _ ____ _
 72
65
 73
4
 40
2.0
 49
1.25
 49
-0.25
 49
0.25
 49
-0.25
  0
LTYPE
  5
411
  2
DASHED
 70
0
  3
Dashed __ __ __ __ __
 72
65
 73
2
 40
0.75
 49
0.5
 49
-0.25
  0
LTYPE
  5
43B
  2
DOTTED
 70
0
  3
Dotted .  .  .  .
 72
65
 73
2
 40
0.2
 49
0.0
 49
-0.2
  0
ENDTAB
  0
TABLE
  2
STYLE
  70
4
  0
STYLE
  2
KICAD
  70
0
  40
0
  41
1
  42
1
  50
0
  71
0
  3
isocp.shx
  0
STYLE
  2
KICADB
  70
0
  40
0
  41
1
  42
1
  50
0
  71
0
  3
isocp.shx
  0
STYLE
  2
KICADI
  70
0
  40
0
  41
1
  42
1
  50
15
  71
0
  3
isocp.shx
  0
STYLE
  2
KICADBI
  70
0
  40
0
  41
1
  42
1
  50
15
  71
0
  3
isocp.shx
  0
ENDTAB
  0
TABLE
  2
LAYER
  70
1
  0
LAYER
  2
BLACK
  70
0
  62
7
  6
CONTINUOUS
  0
ENDTAB
  0
ENDSEC
  0
SECTION
  2
ENTITIES
0
LINE
8
BLACK
6
CONTINUOUS
10
0.214106
20
0.325192
11
0.228034
21
0.322826
0
LINE
8
BLACK
6
CONTINUOUS
10
0.228034
20
0.322826
11
0.24161
21
0.318914
0
LINE
8
BLACK
6
CONTINUOUS
10
0.24161
20
0.318914
11
0.254663
21
0.313508
0
LINE
8
BLACK
6
CONTINUOUS
10
0.254663
20
0.313508
11
0.267028
21
0.306674
0
LINE
8
BLACK
6
CONTINUOUS
10
0.267028
20
0.306674
11
0.27855
21
0.298498
0
LINE
8
BLACK
6
CONTINUOUS
10
0.27855
20
0.298498
11
0.289084
21
0.289084
0
LINE
8
BLACK
6
CONTINUOUS
10
0.289084
20
0.289084
11
0.298498
21
0.27855
0
LINE
8
BLACK
6
CONTINUOUS
10
0.298498
20
0.27855
11
0.306674
21
0.267028
0
LINE
8
BLACK
6
CONTINUOUS
10
0.306674
20
0.267028
11
0.313508
21
0.254663
0
LINE
8
BLACK
6
CONTINUOUS
10
0.313508
20
0.254663
11
0.318914
21
0.24161
0
LINE
8
BLACK
6
CONTINUOUS
10
0.318914
20
0.24161
11
0.322826
21
0.228034
0
LINE
8
BLACK
6
CONTINUOUS
10
0.322826
20
0.228034
11
0.325192
21
0.214106
0
LINE
8
BLACK
6
CONTINUOUS
10
0.325192
20
0.214106
11
0.325984
21
0.2
0
LINE
8
BLACK
6
CONTINUOUS
10
0.325984
20
0.2
11
0.325192
21
0.185894
0
LINE
8
BLACK
6
CONTINUOUS
10
0.325192
20
0.185894
11
0.322826
21
0.171966
0
LINE
8
BLACK
6
CONTINUOUS
10
0.322826
20
0.171966
11
0.318914
21
0.15839
0
LINE
8
BLACK
6
CONTINUOUS
10
0.318914
20
0.15839
11
0.313508
21
0.145337
0
LINE
8
BLACK
6
CONTINUOUS
10
0.313508
20
0.145337
11
0.306674
21
0.132972
0
LINE
8
BLACK
6
CONTINUOUS
10
0.306674
20
0.132972
11
0.298498
21
0.12145
0
LINE
8
BLACK
6
CONTINUOUS
10
0.298498
20
0.12145
11
0.289084
21
0.110916
0
LINE
8
BLACK
6
CONTINUOUS
10
0.289084
20
0.110916
11
0.27855
21
0.101502
0
LINE
8
BLACK
6
CONTINUOUS
10
0.27855
20
0.101502
11
0.267028
21
0.0933261
0
LINE
8
BLACK
6
CONTINUOUS
10
0.267028
20
0.0933261
11
0.254663
21
0.0864921
0
LINE
8
BLACK
6
CONTINUOUS
10
0.254663
20
0.0864921
11
0.24161
21
0.0810856
0
LINE
8
BLACK
6
CONTINUOUS
10
0.24161
20
0.0810856
11
0.228034
21
0.0771744
0
LINE
8
BLACK
6
CONTINUOUS
10
0.228034
20
0.0771744
11
0.214106
21
0.0748079
0
LINE
8
BLACK
6
CONTINUOUS
10
0.214106
20
0.0748079
11
0.2
21
0.0740157
0
LINE
8
BLACK
6
CONTINUOUS
10
0.2
20
0.0740157
11
0.185894
21
0.0748079
0
LINE
8
BLACK
6
CONTINUOUS
10
0.185894
20
0.0748079
11
0.171966
21
0.0771744
0
LINE
8
BLACK
6
CONTINUOUS
10
0.171966
20
0.0771744
11
0.15839
21
0.0810856
0
LINE
8
BLACK
6
CONTINUOUS
10
0.15839
20
0.0810856
11
0.145337
21
0.0864921
0
LINE
8
BLACK
6
CONTINUOUS
10
0.145337
20
0.0864921
11
0.132972
21
0.0933261
0
LINE
8
BLACK
6
CONTINUOUS
10
0.132972
20
0.0933261
11
0.12145
21
0.101502
0
LINE
8
BLACK
6
CONTINUOUS
10
0.12145
20
0.101502
11
0.110916
21
0.110916
0
LINE
8
BLACK
6
CONTINUOUS
10
0.110916
20
0.110916
11
0.101502
21
0.12145
0
LINE
8
BLACK
6
CONTINUOUS
10
0.101502
20
0.12145
11
0.0933261
21
0.132972
0
LINE
8
BLACK
6
CONTINUOUS
10
0.0933261
20
0.132972
11
0.0864921
21
0.145337
0
LINE
8
BLACK
6
CONTINUOUS
10
0.0864921
20
0.145337
11
0.0810856
21
0.15839
0
LINE
8
BLACK
6
CONTINUOUS
10
0.0810856
20
0.15839
11
0.0771744
21
0.171966
0
LINE
8
BLACK
6
CONTINUOUS
10
0.0771744
20
0.171966
11
0.0748079
21
0.185894
0
LINE
8
BLACK
6
CONTINUOUS
10
0.0748079
20
0.185894
11
0.0740157
21
0.2
0
LINE
8
BLACK
6
CONTINUOUS
10
0.0740157
20
0.2
11
0.0748079
21
0.214106
0
LINE
8
BLACK
6
CONTINUOUS
10
0.0748079
20
0.214106
11
0.0771744
21
0.228034
0
LINE
8
BLACK
6
CONTINUOUS
10
0.0771744
20
0.228034
11
0.0810856
21
0.24161
0
LINE
8
BLACK
6
CONTINUOUS
10
0.0810856
20
0.24161
11
0.0864921
21
0.254663
0
LINE
8
BLACK
6
CONTINUOUS
10
0.0864921
20
0.254663
11
0.0933261
21
0.267028
0
LINE
8
BLACK
6
CONTINUOUS
10
0.0933261
20
0.267028
11
0.101502
21
0.27855
0
LINE
8
BLACK
6
CONTINUOUS
10
0.101502
20
0.27855
11
0.110916
21
0.289084
0
LINE
8
BLACK
6
CONTINUOUS
10
0.110916
20
0.289084
11
0.12145
21
0.298498
0
LINE
8
BLACK
6
CONTINUOUS
10
0.12145
20
0.298498
11
0.132972
21
0.306674
0
LINE
8
BLACK
6
CONTINUOUS
10
0.132972
20
0.306674
11
0.145337
21
0.313508
0
LINE
8
BLACK
6
CONTINUOUS
10
0.145337
20
0.313508
11
0.15839
21
0.318914
0
LINE
8
BLACK
6
CONTINUOUS
10
0.15839
20
0.318914
11
0.171966
21
0.322826
0
LINE
8
BLACK
6
CONTINUOUS
10
0.171966
20
0.322826
11
0.185894
21
0.325192
0
LINE
8
BLACK
6
CONTINUOUS
10
0.185894
20
0.325192
11
0.2
21
0.325984
0
LINE
8
BLACK
6
CONTINUOUS
10
0.2
20
0.325984
11
0.214106
21
0.325192
0
LINE
8
BLACK
6
CONTINUOUS
10
0.614106
20
0.325192
11
0.628034
21
0.322826
0
LINE
8
BLACK
6
CONTINUOUS
10
0.628034
20
0.322826
11
0.64161
21
0.318914
0
LINE
8
BLACK
6
CONTINUOUS
10
0.64161
20
0.318914
11
0.654663
21
0.313508
0
LINE
8
BLACK
6
CONTINUOUS
10
0.654663
20
0.313508
11
0.667028
21
0.306674
0
LINE
8
BLACK
6
CONTINUOUS
10
0.667028
20
0.306674
11
0.67855
21
0.298498
0
LINE
8
BLACK
6
CONTINUOUS
10
0.67855
20
0.298498
11
0.689084
21
0.289084
0
LINE
8
BLACK
6
CONTINUOUS
10
0.689084
20
0.289084
11
0.698498
21
0.27855
0
LINE
8
BLACK
6
CONTINUOUS
10
0.698498
20
0.27855
11
0.706674
21
0.267028
0
LINE
8
BLACK
6
CONTINUOUS
10
0.706674
20
0.267028
11
0.713508
21
0.254663
0
LINE
8
BLACK
6
CONTINUOUS
10
0.713508
20
0.254663
11
0.718914
21
0.24161
0
LINE
8
BLACK
6
CONTINUOUS
10
0.718914
20
0.24161
11
0.722826
21
0.228034
0
LINE
8
BLACK
6
CONTINUOUS
10
0.722826
20
0.228034
11
0.725192
21
0.214106
0
LINE
8
BLACK
6
CONTINUOUS
10
0.725192
20
0.214106
11
0.725984
21
0.2
0
LINE
8
BLACK
6
CONTINUOUS
10
0.725984
20
0.2
11
0.725192
21
0.185894
0
LINE
8
BLACK
6
CONTINUOUS
10
0.725192
20
0.185894
11
0.722826
21
0.171966
0
LINE
8
BLACK
6
CONTINUOUS
10
0.722826
20
0.171966
11
0.718914
21
0.15839
0
LINE
8
BLACK
6
CONTINUOUS
10
0.718914
20
0.15839
11
0.713508
21
0.145337
0
LINE
8
BLACK
6
CONTINUOUS
10
0.713508
20
0.145337
11
0.706674
21
0.132972
0
LINE
8
BLACK
6
CONTINUOUS
10
0.706674
20
0.132972
11
0.698498
21
0.12145
0
LINE
8
BLACK
6
CONTINUOUS
10
0.698498
20
0.12145
11
0.689084
21
0.110916
0
LINE
8
BLACK
6
CONTINUOUS
10
0.689084
20
0.110916
11
0.67855
21
0.101502
0
LINE
8
BLACK
6
CONTINUOUS
10
0.67855
20
0.101502
11
0.667028
21
0.0933261
0
LINE
8
BLACK
6
CONTINUOUS
10
0.667028
20
0.0933261
11
0.654663
21
0.0864921
0
LINE
8
BLACK
6
CONTINUOUS
10
0.654663
20
0.0864921
11
0.64161
21
0.0810856
0
LINE
8
BLACK
6
CONTINUOUS
10
0.64161
20
0.0810856
11
0.628034
21
0.0771744
0
LINE
8
BLACK
6
CONTINUOUS
10
0.628034
20
0.0771744
11
0.614106
21
0.0748079
0
LINE
8
BLACK
6
CONTINUOUS
10
0.614106
20
0.0748079
11
0.6
21
0.0740157
0
LINE
8
BLACK
6
CONTINUOUS
10
0.6
20
0.0740157
11
0.585894
21
0.0748079
0
LINE
8
BLACK
6
CONTINUOUS
10
0.585894
20
0.0748079
11
0.571966
21
0.0771744
0
LINE
8
BLACK
6
CONTINUOUS
10
0.571966
20
0.0771744
11
0.55839
21
0.0810856
0
LINE
8
BLACK
6
CONTINUOUS
10
0.55839
20
0.0810856
11
0.545337
21
0.0864921
0
LINE
8
BLACK
6
CONTINUOUS
10
0.545337
20
0.0864921
11
0.532972
21
0.0933261
0
LINE
8
BLACK
6
CONTINUOUS
10
0.532972
20
0.0933261
11
0.52145
21
0.101502
0
LINE
8
BLACK
6
CONTINUOUS
10
0.52145
20
0.101502
11
0.510916
21
0.110916
0
LINE
8
BLACK
6
CONTINUOUS
10
0.510916
20
0.110916
11
0.501502
21
0.12145
0
LINE
8
BLACK
6
CONTINUOUS
10
0.501502
20
0.12145
11
0.493326
21
0.132972
0
LINE
8
BLACK
6
CONTINUOUS
10
0.493326
20
0.132972
11
0.486492
21
0.145337
0
LINE
8
BLACK
6
CONTINUOUS
10
0.486492
20
0.145337
11
0.481086
21
0.15839
0
LINE
8
BLACK
6
CONTINUOUS
10
0.481086
20
0.15839
11
0.477174
21
0.171966
0
LINE
8
BLACK
6
CONTINUOUS
10
0.477174
20
0.171966
11
0.474808
21
0.185894
0
LINE
8
BLACK
6
CONTINUOUS
10
0.474808
20
0.185894
11
0.474016
21
0.2
0
LINE
8
BLACK
6
CONTINUOUS
10
0.474016
20
0.2
11
0.474808
21
0.214106
0
LINE
8
BLACK
6
CONTINUOUS
10
0.474808
20
0.214106
11
0.477174
21
0.228034
0
LINE
8
BLACK
6
CONTINUOUS
10
0.477174
20
0.228034
11
0.481086
21
0.24161
0
LINE
8
BLACK
6
CONTINUOUS
10
0.481086
20
0.24161
11
0.486492
21
0.254663
0
LINE
8
BLACK
6
CONTINUOUS
10
0.486492
20
0.254663
11
0.493326
21
0.267028
0
LINE
8
BLACK
6
CONTINUOUS
10
0.493326
20
0.267028
11
0.501502
21
0.27855
0
LINE
8
BLACK
6
CONTINUOUS
10
0.501502
20
0.27855
11
0.510916
21
0.289084
0
LINE
8
BLACK
6
CONTINUOUS
10
0.510916
20
0.289084
11
0.52145
21
0.298498
0
LINE
8
BLACK
6
CONTINUOUS
10
0.52145
20
0.298498
11
0.532972
21
0.306674
0
LINE
8
BLACK
6
CONTINUOUS
10
0.532972
20
0.306674
11
0.545337
21
0.313508
0
LINE
8
BLACK
6
CONTINUOUS
10
0.545337
20
0.313508
11
0.55839
21
0.318914
0
LINE
8
BLACK
6
CONTINUOUS
10
0.55839
20
0.318914
11
0.571966
21
0.322826
0
LINE
8
BLACK
6
CONTINUOUS
10
0.571966
20
0.322826
11
0.585894
21
0.325192
0
LINE
8
BLACK
6
CONTINUOUS
10
0.585894
20
0.325192
11
0.6
21
0.325984
0
LINE
8
BLACK
6
CONTINUOUS
10
0.6
20
0.325984
11
0.614106
21
0.325192
0
LINE
8
BLACK
6
CONTINUOUS
10
0.653013
20
0.437275
11
0.655568
21
0.435568
0
LINE
8
BLACK
6
CONTINUOUS
10
0.655568
20
0.435568
11
0.657275
21
0.433013
0
LINE
8
BLACK
6
CONTINUOUS
10
0.657275
20
0.433013
11
0.657874
21
0.43
0
LINE
8
BLACK
6
CONTINUOUS
10
0.657874
20
0.43
11
0.657874
21
0.37
0
LINE
8
BLACK
6
CONTINUOUS
10
0.657874
20
0.37
11
0.657275
21
0.366987
0
LINE
8
BLACK
6
CONTINUOUS
10
0.657275
20
0.366987
11
0.655568
21
0.364432
0
LINE
8
BLACK
6
CONTINUOUS
10
0.655568
20
0.364432
11
0.653013
21
0.362725
0
LINE
8
BLACK
6
CONTINUOUS
10
0.653013
20
0.362725
11
0.65
21
0.362126
0
LINE
8
BLACK
6
CONTINUOUS
10
0.65
20
0.362126
11
0.59
21
0.362126
0
LINE
8
BLACK
6
CONTINUOUS
10
0.59
20
0.362126
11
0.586987
21
0.362725
0
LINE
8
BLACK
6
CONTINUOUS
10
0.586987
20
0.362725
11
0.584432
21
0.364432
0
LINE
8
BLACK
6
CONTINUOUS
10
0.584432
20
0.364432
11
0.582725
21
0.366987
0
LINE
8
BLACK
6
CONTINUOUS
10
0.582725
20
0.366987
11
0.582126
21
0.37
0
LINE
8
BLACK
6
CONTINUOUS
10
0.582126
20
0.37
11
0.582126
21
0.43
0
LINE
8
BLACK
6
CONTINUOUS
10
0.582126
20
0.43
11
0.582725
21
0.433013
0
LINE
8
BLACK
6
CONTINUOUS
10
0.582725
20
0.433013
11
0.584432
21
0.435568
0
LINE
8
BLACK
6
CONTINUOUS
10
0.584432
20
0.435568
11
0.586987
21
0.437275
0
LINE
8
BLACK
6
CONTINUOUS
10
0.586987
20
0.437275
11
0.59
21
0.437874
0
LINE
8
BLACK
6
CONTINUOUS
10
0.59
20
0.437874
11
0.65
21
0.437874
0
LINE
8
BLACK
6
CONTINUOUS
10
0.65
20
0.437874
11
0.653013
21
0.437275
0
LINE
8
BLACK
6
CONTINUOUS
10
0.753013
20
0.437275
11
0.755568
21
0.435568
0
LINE
8
BLACK
6
CONTINUOUS
10
0.755568
20
0.435568
11
0.757275
21
0.433013
0
LINE
8
BLACK
6
CONTINUOUS
10
0.757275
20
0.433013
11
0.757874
21
0.43
0
LINE
8
BLACK
6
CONTINUOUS
10
0.757874
20
0.43
11
0.757874
21
0.37
0
LINE
8
BLACK
6
CONTINUOUS
10
0.757874
20
0.37
11
0.757275
21
0.366987
0
LINE
8
BLACK
6
CONTINUOUS
10
0.757275
20
0.366987
11
0.755568
21
0.364432
0
LINE
8
BLACK
6
CONTINUOUS
10
0.755568
20
0.364432
11
0.753013
21
0.362725
0
LINE
8
BLACK
6
CONTINUOUS
10
0.753013
20
0.362725
11
0.75
21
0.362126
0
LINE
8
BLACK
6
CONTINUOUS
10
0.75
20
0.362126
11
0.69
21
0.362126
0
LINE
8
BLACK
6
CONTINUOUS
10
0.69
20
0.362126
11
0.686987
21
0.362725
0
LINE
8
BLACK
6
CONTINUOUS
10
0.686987
20
0.362725
11
0.684432
21
0.364432
0
LINE
8
BLACK
6
CONTINUOUS
10
0.684432
20
0.364432
11
0.682725
21
0.366987
0
LINE
8
BLACK
6
CONTINUOUS
10
0.682725
20
0.366987
11
0.682126
21
0.37
0
LINE
8
BLACK
6
CONTINUOUS
10
0.682126
20
0.37
11
0.682126
21
0.43
0
LINE
8
BLACK
6
CONTINUOUS
10
0.682126
20
0.43
11
0.682725
21
0.433013
0
LINE
8
BLACK
6
CONTINUOUS
10
0.682725
20
0.433013
11
0.684432
21
0.435568
0
LINE
8
BLACK
6
CONTINUOUS
10
0.684432
20
0.435568
11
0.686987
21
0.437275
0
LINE
8
BLACK
6
CONTINUOUS
10
0.686987
20
0.437275
11
0.69
21
0.437874
0
LINE
8
BLACK
6
CONTINUOUS
10
0.69
20
0.437874
11
0.75
21
0.437874
0
LINE
8
BLACK
6
CONTINUOUS
10
0.75
20
0.437874
11
0.753013
21
0.437275
0
LINE
8
BLACK
6
CONTINUOUS
10
0.653013
20
0.537275
11
0.655568
21
0.535568
0
LINE
8
BLACK
6
CONTINUOUS
10
0.655568
20
0.535568
11
0.657275
21
0.533013
0
LINE
8
BLACK
6
CONTINUOUS
10
0.657275
20
0.533013
11
0.657874
21
0.53
0
LINE
8
BLACK
6
CONTINUOUS
10
0.657874
20
0.53
11
0.657874
21
0.47
0
LINE
8
BLACK
6
CONTINUOUS
10
0.657874
20
0.47
11
0.657275
21
0.466987
0
LINE
8
BLACK
6
CONTINUOUS
10
0.657275
20
0.466987
11
0.655568
21
0.464432
0
LINE
8
BLACK
6
CONTINUOUS
10
0.655568
20
0.464432
11
0.653013
21
0.462725
0
LINE
8
BLACK
6
CONTINUOUS
10
0.653013
20
0.462725
11
0.65
21
0.462126
0
LINE
8
BLACK
6
CONTINUOUS
10
0.65
20
0.462126
11
0.59
21
0.462126
0
LINE
8
BLACK
6
CONTINUOUS
10
0.59
20
0.462126
11
0.586987
21
0.462725
0
LINE
8
BLACK
6
CONTINUOUS
10
0.586987
20
0.462725
11
0.584432
21
0.464432
0
LINE
8
BLACK
6
CONTINUOUS
10
0.584432
20
0.464432
11
0.582725
21
0.466987
0
LINE
8
BLACK
6
CONTINUOUS
10
0.582725
20
0.466987
11
0.582126
21
0.47
0
LINE
8
BLACK
6
CONTINUOUS
10
0.582126
20
0.47
11
0.582126
21
0.53
0
LINE
8
BLACK
6
CONTINUOUS
10
0.582126
20
0.53
11
0.582725
21
0.533013
0
LINE
8
BLACK
6
CONTINUOUS
10
0.582725
20
0.533013
11
0.584432
21
0.535568
0
LINE
8
BLACK
6
CONTINUOUS
10
0.584432
20
0.535568
11
0.586987
21
0.537275
0
LINE
8
BLACK
6
CONTINUOUS
10
0.586987
20
0.537275
11
0.59
21
0.537874
0
LINE
8
BLACK
6
CONTINUOUS
10
0.59
20
0.537874
11
0.65
21
0.537874
0
LINE
8
BLACK
6
CONTINUOUS
10
0.65
20
0.537874
11
0.653013
21
0.537275
0
LINE
8
BLACK
6
CONTINUOUS
10
0.753013
20
0.537275
11
0.755568
21
0.535568
0
LINE
8
BLACK
6
CONTINUOUS
10
0.755568
20
0.535568
11
0.757275
21
0.533013
0
LINE
8
BLACK
6
CONTINUOUS
10
0.757275
20
0.533013
11
0.757874
21
0.53
0
LINE
8
BLACK
6
CONTINUOUS
10
0.757874
20
0.53
11
0.757874
21
0.47
0
LINE
8
BLACK
6
CONTINUOUS
10
0.757874
20
0.47
11
0.757275
21
0.466987
0
LINE
8
BLACK
6
CONTINUOUS
10
0.757275
20
0.466987
11
0.755568
21
0.464432
0
LINE
8
BLACK
6
CONTINUOUS
10
0.755568
20
0.464432
11
0.753013
21
0.462725
0
LINE
8
BLACK
6
CONTINUOUS
10
0.753013
20
0.462725
11
0.75
21
0.462126
0
LINE
8
BLACK
6
CONTINUOUS
10
0.75
20
0.462126
11
0.69
21
0.462126
0
LINE
8
BLACK
6
CONTINUOUS
10
0.69
20
0.462126
11
0.686987
21
0.462725
0
LINE
8
BLACK
6
CONTINUOUS
10
0.686987
20
0.462725
11
0.684432
21
0.464432
0
LINE
8
BLACK
6
CONTINUOUS
10
0.684432
20
0.464432
11
0.682725
21
0.466987
0
LINE
8
BLACK
6
CONTINUOUS
10
0.682725
20
0.466987
11
0.682126
21
0.47
0
LINE
8
BLACK
6
CONTINUOUS
10
0.682126
20
0.47
11
0.682126
21
0.53
0
LINE
8
BLACK
6
CONTINUOUS
10
0.682126
20
0.53
11
0.682725
21
0.533013
0
LINE
8
BLACK
6
CONTINUOUS
10
0.682725
20
0.533013
11
0.684432
21
0.535568
0
LINE
8
BLACK
6
CONTINUOUS
10
0.684432
20
0.535568
11
0.686987
21
0.537275
0
LINE
8
BLACK
6
CONTINUOUS
10
0.686987
20
0.537275
11
0.69
21
0.537874
0
LINE
8
BLACK
6
CONTINUOUS
10
0.69
20
0.537874
11
0.75
21
0.537874
0
LINE
8
BLACK
6
CONTINUOUS
10
0.75
20
0.537874
11
0.753013
21
0.537275
0
LINE
8
BLACK
6
CONTINUOUS
10
0.653013
20
0.637275
11
0.655568
21
0.635568
0
LINE
8
BLACK
6
CONTINUOUS
10
0.655568
20
0.635568
11
0.657275
21
0.633013
0
LINE
8
BLACK
6
CONTINUOUS
10
0.657275
20
0.633013
11
0.657874
21
0.63
0
LINE
8
BLACK
6
CONTINUOUS
10
0.657874
20
0.63
11
0.657874
21
0.57
0
LINE
8
BLACK
6
CONTINUOUS
10
0.657874
20
0.57
11
0.657275
21
0.566987
0
LINE
8
BLACK
6
CONTINUOUS
10
0.657275
20
0.566987
11
0.655568
21
0.564432
0
LINE
8
BLACK
6
CONTINUOUS
10
0.655568
20
0.564432
11
0.653013
21
0.562725
0
LINE
8
BLACK
6
CONTINUOUS
10
0.653013
20
0.562725
11
0.65
21
0.562126
0
LINE
8
BLACK
6
CONTINUOUS
10
0.65
20
0.562126
11
0.59
21
0.562126
0
LINE
8
BLACK
6
CONTINUOUS
10
0.59
20
0.562126
11
0.586987
21
0.562725
0
LINE
8
BLACK
6
CONTINUOUS
10
0.586987
20
0.562725
11
0.584432
21
0.564432
0
LINE
8
BLACK
6
CONTINUOUS
10
0.584432
20
0.564432
11
0.582725
21
0.566987
0
LINE
8
BLACK
6
CONTINUOUS
10
0.582725
20
0.566987
11
0.582126
21
0.57
0
LINE
8
BLACK
6
CONTINUOUS
10
0.582126
20
0.57
11
0.582126
21
0.63
0
LINE
8
BLACK
6
CONTINUOUS
10
0.582126
20
0.63
11
0.582725
21
0.633013
0
LINE
8
BLACK
6
CONTINUOUS
10
0.582725
20
0.633013
11
0.584432
21
0.635568
0
LINE
8
BLACK
6
CONTINUOUS
10
0.584432
20
0.635568
11
0.586987
21
0.637275
0
LINE
8
BLACK
6
CONTINUOUS
10
0.586987
20
0.637275
11
0.59
21
0.637874
0
LINE
8
BLACK
6
CONTINUOUS
10
0.59
20
0.637874
11
0.65
21
0.637874
0
LINE
8
BLACK
6
CONTINUOUS
10
0.65
20
0.637874
11
0.653013
21
0.637275
0
LINE
8
BLACK
6
CONTINUOUS
10
0.753013
20
0.637275
11
0.755568
21
0.635568
0
LINE
8
BLACK
6
CONTINUOUS
10
0.755568
20
0.635568
11
0.757275
21
0.633013
0
LINE
8
BLACK
6
CONTINUOUS
10
0.757275
20
0.633013
11
0.757874
21
0.63
0
LINE
8
BLACK
6
CONTINUOUS
10
0.757874
20
0.63
11
0.757874
21
0.57
0
LINE
8
BLACK
6
CONTINUOUS
10
0.757874
20
0.57
11
0.757275
21
0.566987
0
LINE
8
BLACK
6
CONTINUOUS
10
0.757275
20
0.566987
11
0.755568
21
0.564432
0
LINE
8
BLACK
6
CONTINUOUS
10
0.755568
20
0.564432
11
0.753013
21
0.562725
0
LINE
8
BLACK
6
CONTINUOUS
10
0.753013
20
0.562725
11
0.75
21
0.562126
0
LINE
8
BLACK
6
CONTINUOUS
10
0.75
20
0.562126
11
0.69
21
0.562126
0
LINE
8
BLACK
6
CONTINUOUS
10
0.69
20
0.562126
11
0.686987
21
0.562725
0
LINE
8
BLACK
6
CONTINUOUS
10
0.686987
20
0.562725
11
0.684432
21
0.564432
0
LINE
8
BLACK
6
CONTINUOUS
10
0.684432
20
0.564432
11
0.682725
21
0.566987
0
LINE
8
BLACK
6
CONTINUOUS
10
0.682725
20
0.566987
11
0.682126
21
0.57
0
LINE
8
BLACK
6
CONTINUOUS
10
0.682126
20
0.57
11
0.682126
21
0.63
0
LINE
8
BLACK
6
CONTINUOUS
10
0.682126
20
0.63
11
0.682725
21
0.633013
0
LINE
8
BLACK
6
CONTINUOUS
10
0.682725
20
0.633013
11
0.684432
21
0.635568
0
LINE
8
BLACK
6
CONTINUOUS
10
0.684432
20
0.635568
11
0.686987
21
0.637275
0
LINE
8
BLACK
6
CONTINUOUS
10
0.686987
20
0.637275
11
0.69
21
0.637874
0
LINE
8
BLACK
6
CONTINUOUS
10
0.69
20
0.637874
11
0.75
21
0.637874
0
LINE
8
BLACK
6
CONTINUOUS
10
0.75
20
0.637874
11
0.753013
21
0.637275
0
LINE
8
BLACK
6
CONTINUOUS
10
0.653013
20
0.737275
11
0.655568
21
0.735568
0
LINE
8
BLACK
6
CONTINUOUS
10
0.655568
20
0.735568
11
0.657275
21
0.733013
0
LINE
8
BLACK
6
CONTINUOUS
10
0.657275
20
0.733013
11
0.657874
21
0.73
0
LINE
8
BLACK
6
CONTINUOUS
10
0.657874
20
0.73
11
0.657874
21
0.67
0
LINE
8
BLACK
6
CONTINUOUS
10
0.657874
20
0.67
11
0.657275
21
0.666987
0
LINE
8
BLACK
6
CONTINUOUS
10
0.657275
20
0.666987
11
0.655568
21
0.664432
0
LINE
8
BLACK
6
CONTINUOUS
10
0.655568
20
0.664432
11
0.653013
21
0.662725
0
LINE
8
BLACK
6
CONTINUOUS
10
0.653013
20
0.662725
11
0.65
21
0.662126
0
LINE
8
BLACK
6
CONTINUOUS
10
0.65
20
0.662126
11
0.59
21
0.662126
0
LINE
8
BLACK
6
CONTINUOUS
10
0.59
20
0.662126
11
0.586987
21
0.662725
0
LINE
8
BLACK
6
CONTINUOUS
10
0.586987
20
0.662725
11
0.584432
21
0.664432
0
LINE
8
BLACK
6
CONTINUOUS
10
0.584432
20
0.664432
11
0.582725
21
0.666987
0
LINE
8
BLACK
6
CONTINUOUS
10
0.582725
20
0.666987
11
0.582126
21
0.67
0
LINE
8
BLACK
6
CONTINUOUS
10
0.582126
20
0.67
11
0.582126
21
0.73
0
LINE
8
BLACK
6
CONTINUOUS
10
0.582126
20
0.73
11
0.582725
21
0.733013
0
LINE
8
BLACK
6
CONTINUOUS
10
0.582725
20
0.733013
11
0.584432
21
0.735568
0
LINE
8
BLACK
6
CONTINUOUS
10
0.584432
20
0.735568
11
0.586987
21
0.737275
0
LINE
8
BLACK
6
CONTINUOUS
10
0.586987
20
0.737275
11
0.59
21
0.737874
0
LINE
8
BLACK
6
CONTINUOUS
10
0.59
20
0.737874
11
0.65
21
0.737874
0
LINE
8
BLACK
6
CONTINUOUS
10
0.65
20
0.737874
11
0.653013
21
0.737275
0
LINE
8
BLACK
6
CONTINUOUS
10
0.753013
20
0.737275
11
0.755568
21
0.735568
0
LINE
8
BLACK
6
CONTINUOUS
10
0.755568
20
0.735568
11
0.757275
21
0.733013
0
LINE
8
BLACK
6
CONTINUOUS
10
0.757275
20
0.733013
11
0.757874
21
0.73
0
LINE
8
BLACK
6
CONTINUOUS
10
0.757874
20
0.73
11
0.757874
21
0.67
0
LINE
8
BLACK
6
CONTINUOUS
10
0.757874
20
0.67
11
0.757275
21
0.666987
0
LINE
8
BLACK
6
CONTINUOUS
10
0.757275
20
0.666987
11
0.755568
21
0.664432
0
LINE
8
BLACK
6
CONTINUOUS
10
0.755568
20
0.664432
11
0.753013
21
0.662725
0
LINE
8
BLACK
6
CONTINUOUS
10
0.753013
20
0.662725
11
0.75
21
0.662126
0
LINE
8
BLACK
6
CONTINUOUS
10
0.75
20
0.662126
11
0.69
21
0.662126
0
LINE
8
BLACK
6
CONTINUOUS
10
0.69
20
0.662126
11
0.686987
21
0.662725
0
LINE
8
BLACK
6
CONTINUOUS
10
0.686987
20
0.662725
11
0.684432
21
0.664432
0
LINE
8
BLACK
6
CONTINUOUS
10
0.684432
20
0.664432
11
0.682725
21
0.666987
0
LINE
8
BLACK
6
CONTINUOUS
10
0.682725
20
0.666987
11
0.682126
21
0.67
0
LINE
8
BLACK
6
CONTINUOUS
10
0.682126
20
0.67
11
0.682126
21
0.73
0
LINE
8
BLACK
6
CONTINUOUS
10
0.682126
20
0.73
11
0.682725
21
0.733013
0
LINE
8
BLACK
6
CONTINUOUS
10
0.682725
20
0.733013
11
0.684432
21
0.735568
0
LINE
8
BLACK
6
CONTINUOUS
10
0.684432
20
0.735568
11
0.686987
21
0.737275
0
LINE
8
BLACK
6
CONTINUOUS
10
0.686987
20
0.737275
11
0.69
21
0.737874
0
LINE
8
BLACK
6
CONTINUOUS
10
0.69
20
0.737874
11
0.75
21
0.737874
0
LINE
8
BLACK
6
CONTINUOUS
10
0.75
20
0.737874
11
0.753013
21
0.737275
0
LINE
8
BLACK
6
CONTINUOUS
10
0.133013
20
0.922275
11
0.135568
21
0.920568
0
LINE
8
BLACK
6
CONTINUOUS
10
0.135568
20
0.920568
11
0.137275
21
0.918013
0
LINE
8
BLACK
6
CONTINUOUS
10
0.137275
20
0.918013
11
0.137874
21
0.915
0
LINE
8
BLACK
6
CONTINUOUS
10
0.137874
20
0.915
11
0.137874
21
0.855
0
LINE
8
BLACK
6
CONTINUOUS
10
0.137874
20
0.855
11
0.137275
21
0.851987
0
LINE
8
BLACK
6
CONTINUOUS
10
0.137275
20
0.851987
11
0.135568
21
0.849432
0
LINE
8
BLACK
6
CONTINUOUS
10
0.135568
20
0.849432
11
0.133013
21
0.847725
0
LINE
8
BLACK
6
CONTINUOUS
10
0.133013
20
0.847725
11
0.13
21
0.847126
0
LINE
8
BLACK
6
CONTINUOUS
10
0.13
20
0.847126
11
0.07
21
0.847126
0
LINE
8
BLACK
6
CONTINUOUS
10
0.07
20
0.847126
11
0.0669867
21
0.847725
0
LINE
8
BLACK
6
CONTINUOUS
10
0.0669867
20
0.847725
11
0.0644322
21
0.849432
0
LINE
8
BLACK
6
CONTINUOUS
10
0.0644322
20
0.849432
11
0.0627254
21
0.851987
0
LINE
8
BLACK
6
CONTINUOUS
10
0.0627254
20
0.851987
11
0.062126
21
0.855
0
LINE
8
BLACK
6
CONTINUOUS
10
0.062126
20
0.855
11
0.062126
21
0.915
0
LINE
8
BLACK
6
CONTINUOUS
10
0.062126
20
0.915
11
0.0627254
21
0.918013
0
LINE
8
BLACK
6
CONTINUOUS
10
0.0627254
20
0.918013
11
0.0644322
21
0.920568
0
LINE
8
BLACK
6
CONTINUOUS
10
0.0644322
20
0.920568
11
0.0669867
21
0.922275
0
LINE
8
BLACK
6
CONTINUOUS
10
0.0669867
20
0.922275
11
0.07
21
0.922874
0
LINE
8
BLACK
6
CONTINUOUS
10
0.07
20
0.922874
11
0.13
21
0.922874
0
LINE
8
BLACK
6
CONTINUOUS
10
0.13
20
0.922874
11
0.133013
21
0.922275
0
LINE
8
BLACK
6
CONTINUOUS
10
0.653013
20
1.00227
11
0.655568
21
1.00057
0
LINE
8
BLACK
6
CONTINUOUS
10
0.655568
20
1.00057
11
0.657275
21
0.998013
0
LINE
8
BLACK
6
CONTINUOUS
10
0.657275
20
0.998013
11
0.657874
21
0.995
0
LINE
8
BLACK
6
CONTINUOUS
10
0.657874
20
0.995
11
0.657874
21
0.935
0
LINE
8
BLACK
6
CONTINUOUS
10
0.657874
20
0.935
11
0.657275
21
0.931987
0
LINE
8
BLACK
6
CONTINUOUS
10
0.657275
20
0.931987
11
0.655568
21
0.929432
0
LINE
8
BLACK
6
CONTINUOUS
10
0.655568
20
0.929432
11
0.653013
21
0.927725
0
LINE
8
BLACK
6
CONTINUOUS
10
0.653013
20
0.927725
11
0.65
21
0.927126
0
LINE
8
BLACK
6
CONTINUOUS
10
0.65
20
0.927126
11
0.59
21
0.927126
0
LINE
8
BLACK
6
CONTINUOUS
10
0.59
20
0.927126
11
0.586987
21
0.927725
0
LINE
8
BLACK
6
CONTINUOUS
10
0.586987
20
0.927725
11
0.584432
21
0.929432
0
LINE
8
BLACK
6
CONTINUOUS
10
0.584432
20
0.929432
11
0.582725
21
0.931987
0
LINE
8
BLACK
6
CONTINUOUS
10
0.582725
20
0.931987
11
0.582126
21
0.935
0
LINE
8
BLACK
6
CONTINUOUS
10
0.582126
20
0.935
11
0.582126
21
0.995
0
LINE
8
BLACK
6
CONTINUOUS
10
0.582126
20
0.995
11
0.582725
21
0.998013
0
LINE
8
BLACK
6
CONTINUOUS
10
0.582725
20
0.998013
11
0.584432
21
1.00057
0
LINE
8
BLACK
6
CONTINUOUS
10
0.584432
20
1.00057
11
0.586987
21
1.00227
0
LINE
8
BLACK
6
CONTINUOUS
10
0.586987
20
1.00227
11
0.59
21
1.00287
0
LINE
8
BLACK
6
CONTINUOUS
10
0.59
20
1.00287
11
0.65
21
1.00287
0
LINE
8
BLACK
6
CONTINUOUS
10
0.65
20
1.00287
11
0.653013
21
1.00227
0
LINE
8
BLACK
6
CONTINUOUS
10
0.753013
20
1.00227
11
0.755568
21
1.00057
0
LINE
8
BLACK
6
CONTINUOUS
10
0.755568
20
1.00057
11
0.757275
21
0.998013
0
LINE
8
BLACK
6
CONTINUOUS
10
0.757275
20
0.998013
11
0.757874
21
0.995
0
LINE
8
BLACK
6
CONTINUOUS
10
0.757874
20
0.995
11
0.757874
21
0.935
0
LINE
8
BLACK
6
CONTINUOUS
10
0.757874
20
0.935
11
0.757275
21
0.931987
0
LINE
8
BLACK
6
CONTINUOUS
10
0.757275
20
0.931987
11
0.755568
21
0.929432
0
LINE
8
BLACK
6
CONTINUOUS
10
0.755568
20
0.929432
11
0.753013
21
0.927725
0
LINE
8
BLACK
6
CONTINUOUS
10
0.753013
20
0.927725
11
0.75
21
0.927126
0
LINE
8
BLACK
6
CONTINUOUS
10
0.75
20
0.927126
11
0.69
21
0.927126
0
LINE
8
BLACK
6
CONTINUOUS
10
0.69
20
0.927126
11
0.686987
21
0.927725
0
LINE
8
BLACK
6
CONTINUOUS
10
0.686987
20
0.927725
11
0.684432
21
0.929432
0
LINE
8
BLACK
6
CONTINUOUS
10
0.684432
20
0.929432
11
0.682725
21
0.931987
0
LINE
8
BLACK
6
CONTINUOUS
10
0.682725
20
0.931987
11
0.682126
21
0.935
0
LINE
8
BLACK
6
CONTINUOUS
10
0.682126
20
0.935
11
0.682126
21
0.995
0
LINE
8
BLACK
6
CONTINUOUS
10
0.682126
20
0.995
11
0.682725
21
0.998013
0
LINE
8
BLACK
6
CONTINUOUS
10
0.682725
20
0.998013
11
0.684432
21
1.00057
0
LINE
8
BLACK
6
CONTINUOUS
10
0.684432
20
1.00057
11
0.686987
21
1.00227
0
LINE
8
BLACK
6
CONTINUOUS
10
0.686987
20
1.00227
11
0.69
21
1.00287
0
LINE
8
BLACK
6
CONTINUOUS
10
0.69
20
1.00287
11
0.75
21
1.00287
0
LINE
8
BLACK
6
CONTINUOUS
10
0.75
20
1.00287
11
0.753013
21
1.00227
0
LINE
8
BLACK
6
CONTINUOUS
10
0.133013
20
1.02227
11
0.135568
21
1.02057
0
LINE
8
BLACK
6
CONTINUOUS
10
0.135568
20
1.02057
11
0.137275
21
1.01801
0
LINE
8
BLACK
6
CONTINUOUS
10
0.137275
20
1.01801
11
0.137874
21
1.015
0
LINE
8
BLACK
6
CONTINUOUS
10
0.137874
20
1.015
11
0.137874
21
0.955
0
LINE
8
BLACK
6
CONTINUOUS
10
0.137874
20
0.955
11
0.137275
21
0.951987
0
LINE
8
BLACK
6
CONTINUOUS
10
0.137275
20
0.951987
11
0.135568
21
0.949432
0
LINE
8
BLACK
6
CONTINUOUS
10
0.135568
20
0.949432
11
0.133013
21
0.947725
0
LINE
8
BLACK
6
CONTINUOUS
10
0.133013
20
0.947725
11
0.13
21
0.947126
0
LINE
8
BLACK
6
CONTINUOUS
10
0.13
20
0.947126
11
0.07
21
0.947126
0
LINE
8
BLACK
6
CONTINUOUS
10
0.07
20
0.947126
11
0.0669867
21
0.947725
0
LINE
8
BLACK
6
CONTINUOUS
10
0.0669867
20
0.947725
11
0.0644322
21
0.949432
0
LINE
8
BLACK
6
CONTINUOUS
10
0.0644322
20
0.949432
11
0.0627254
21
0.951987
0
LINE
8
BLACK
6
CONTINUOUS
10
0.0627254
20
0.951987
11
0.062126
21
0.955
0
LINE
8
BLACK
6
CONTINUOUS
10
0.062126
20
0.955
11
0.062126
21
1.015
0
LINE
8
BLACK
6
CONTINUOUS
10
0.062126
20
1.015
11
0.0627254
21
1.01801
0
LINE
8
BLACK
6
CONTINUOUS
10
0.0627254
20
1.01801
11
0.0644322
21
1.02057
0
LINE
8
BLACK
6
CONTINUOUS
10
0.0644322
20
1.02057
11
0.0669867
21
1.02227
0
LINE
8
BLACK
6
CONTINUOUS
10
0.0669867
20
1.02227
11
0.07
21
1.02287
0
LINE
8
BLACK
6
CONTINUOUS
10
0.07
20
1.02287
11
0.13
21
1.02287
0
LINE
8
BLACK
6
CONTINUOUS
10
0.13
20
1.02287
11
0.133013
21
1.02227
0
LINE
8
BLACK
6
CONTINUOUS
10
0.653013
20
1.10227
11
0.655568
21
1.10057
0
LINE
8
BLACK
6
CONTINUOUS
10
0.655568
20
1.10057
11
0.657275
21
1.09801
0
LINE
8
BLACK
6
CONTINUOUS
10
0.657275
20
1.09801
11
0.657874
21
1.095
0
LINE
8
BLACK
6
CONTINUOUS
10
0.657874
20
1.095
11
0.657874
21
1.035
0
LINE
8
BLACK
6
CONTINUOUS
10
0.657874
20
1.035
11
0.657275
21
1.03199
0
LINE
8
BLACK
6
CONTINUOUS
10
0.657275
20
1.03199
11
0.655568
21
1.02943
0
LINE
8
BLACK
6
CONTINUOUS
10
0.655568
20
1.02943
11
0.653013
21
1.02773
0
LINE
8
BLACK
6
CONTINUOUS
10
0.653013
20
1.02773
11
0.65
21
1.02713
0
LINE
8
BLACK
6
CONTINUOUS
10
0.65
20
1.02713
11
0.59
21
1.02713
0
LINE
8
BLACK
6
CONTINUOUS
10
0.59
20
1.02713
11
0.586987
21
1.02773
0
LINE
8
BLACK
6
CONTINUOUS
10
0.586987
20
1.02773
11
0.584432
21
1.02943
0
LINE
8
BLACK
6
CONTINUOUS
10
0.584432
20
1.02943
11
0.582725
21
1.03199
0
LINE
8
BLACK
6
CONTINUOUS
10
0.582725
20
1.03199
11
0.582126
21
1.035
0
LINE
8
BLACK
6
CONTINUOUS
10
0.582126
20
1.035
11
0.582126
21
1.095
0
LINE
8
BLACK
6
CONTINUOUS
10
0.582126
20
1.095
11
0.582725
21
1.09801
0
LINE
8
BLACK
6
CONTINUOUS
10
0.582725
20
1.09801
11
0.584432
21
1.10057
0
LINE
8
BLACK
6
CONTINUOUS
10
0.584432
20
1.10057
11
0.586987
21
1.10227
0
LINE
8
BLACK
6
CONTINUOUS
10
0.586987
20
1.10227
11
0.59
21
1.10287
0
LINE
8
BLACK
6
CONTINUOUS
10
0.59
20
1.10287
11
0.65
21
1.10287
0
LINE
8
BLACK
6
CONTINUOUS
10
0.65
20
1.10287
11
0.653013
21
1.10227
0
LINE
8
BLACK
6
CONTINUOUS
10
0.753013
20
1.10227
11
0.755568
21
1.10057
0
LINE
8
BLACK
6
CONTINUOUS
10
0.755568
20
1.10057
11
0.757275
21
1.09801
0
LINE
8
BLACK
6
CONTINUOUS
10
0.757275
20
1.09801
11
0.757874
21
1.095
0
LINE
8
BLACK
6
CONTINUOUS
10
0.757874
20
1.095
11
0.757874
21
1.035
0
LINE
8
BLACK
6
CONTINUOUS
10
0.757874
20
1.035
11
0.757275
21
1.03199
0
LINE
8
BLACK
6
CONTINUOUS
10
0.757275
20
1.03199
11
0.755568
21
1.02943
0
LINE
8
BLACK
6
CONTINUOUS
10
0.755568
20
1.02943
11
0.753013
21
1.02773
0
LINE
8
BLACK
6
CONTINUOUS
10
0.753013
20
1.02773
11
0.75
21
1.02713
0
LINE
8
BLACK
6
CONTINUOUS
10
0.75
20
1.02713
11
0.69
21
1.02713
0
LINE
8
BLACK
6
CONTINUOUS
10
0.69
20
1.02713
11
0.686987
21
1.02773
0
LINE
8
BLACK
6
CONTINUOUS
10
0.686987
20
1.02773
11
0.684432
21
1.02943
0
LINE
8
BLACK
6
CONTINUOUS
10
0.684432
20
1.02943
11
0.682725
21
1.03199
0
LINE
8
BLACK
6
CONTINUOUS
10
0.682725
20
1.03199
11
0.682126
21
1.035
0
LINE
8
BLACK
6
CONTINUOUS
10
0.682126
20
1.035
11
0.682126
21
1.095
0
LINE
8
BLACK
6
CONTINUOUS
10
0.682126
20
1.095
11
0.682725
21
1.09801
0
LINE
8
BLACK
6
CONTINUOUS
10
0.682725
20
1.09801
11
0.684432
21
1.10057
0
LINE
8
BLACK
6
CONTINUOUS
10
0.684432
20
1.10057
11
0.686987
21
1.10227
0
LINE
8
BLACK
6
CONTINUOUS
10
0.686987
20
1.10227
11
0.69
21
1.10287
0
LINE
8
BLACK
6
CONTINUOUS
10
0.69
20
1.10287
11
0.75
21
1.10287
0
LINE
8
BLACK
6
CONTINUOUS
10
0.75
20
1.10287
11
0.753013
21
1.10227
0
LINE
8
BLACK
6
CONTINUOUS
10
0.653013
20
1.20227
11
0.655568
21
1.20057
0
LINE
8
BLACK
6
CONTINUOUS
10
0.655568
20
1.20057
11
0.657275
21
1.19801
0
LINE
8
BLACK
6
CONTINUOUS
10
0.657275
20
1.19801
11
0.657874
21
1.195
0
LINE
8
BLACK
6
CONTINUOUS
10
0.657874
20
1.195
11
0.657874
21
1.135
0
LINE
8
BLACK
6
CONTINUOUS
10
0.657874
20
1.135
11
0.657275
21
1.13199
0
LINE
8
BLACK
6
CONTINUOUS
10
0.657275
20
1.13199
11
0.655568
21
1.12943
0
LINE
8
BLACK
6
CONTINUOUS
10
0.655568
20
1.12943
11
0.653013
21
1.12773
0
LINE
8
BLACK
6
CONTINUOUS
10
0.653013
20
1.12773
11
0.65
21
1.12713
0
LINE
8
BLACK
6
CONTINUOUS
10
0.65
20
1.12713
11
0.59
21
1.12713
0
LINE
8
BLACK
6
CONTINUOUS
10
0.59
20
1.12713
11
0.586987
21
1.12773
0
LINE
8
BLACK
6
CONTINUOUS
10
0.586987
20
1.12773
11
0.584432
21
1.12943
0
LINE
8
BLACK
6
CONTINUOUS
10
0.584432
20
1.12943
11
0.582725
21
1.13199
0
LINE
8
BLACK
6
CONTINUOUS
10
0.582725
20
1.13199
11
0.582126
21
1.135
0
LINE
8
BLACK
6
CONTINUOUS
10
0.582126
20
1.135
11
0.582126
21
1.195
0
LINE
8
BLACK
6
CONTINUOUS
10
0.582126
20
1.195
11
0.582725
21
1.19801
0
LINE
8
BLACK
6
CONTINUOUS
10
0.582725
20
1.19801
11
0.584432
21
1.20057
0
LINE
8
BLACK
6
CONTINUOUS
10
0.584432
20
1.20057
11
0.586987
21
1.20227
0
LINE
8
BLACK
6
CONTINUOUS
10
0.586987
20
1.20227
11
0.59
21
1.20287
0
LINE
8
BLACK
6
CONTINUOUS
10
0.59
20
1.20287
11
0.65
21
1.20287
0
LINE
8
BLACK
6
CONTINUOUS
10
0.65
20
1.20287
11
0.653013
21
1.20227
0
LINE
8
BLACK
6
CONTINUOUS
10
0.753013
20
1.20227
11
0.755568
21
1.20057
0
LINE
8
BLACK
6
CONTINUOUS
10
0.755568
20
1.20057
11
0.757275
21
1.19801
0
LINE
8
BLACK
6
CONTINUOUS
10
0.757275
20
1.19801
11
0.757874
21
1.195
0
LINE
8
BLACK
6
CONTINUOUS
10
0.757874
20
1.195
11
0.757874
21
1.135
0
LINE
8
BLACK
6
CONTINUOUS
10
0.757874
20
1.135
11
0.757275
21
1.13199
0
LINE
8
BLACK
6
CONTINUOUS
10
0.757275
20
1.13199
11
0.755568
21
1.12943
0
LINE
8
BLACK
6
CONTINUOUS
10
0.755568
20
1.12943
11
0.753013
21
1.12773
0
LINE
8
BLACK
6
CONTINUOUS
10
0.753013
20
1.12773
11
0.75
21
1.12713
0
LINE
8
BLACK
6
CONTINUOUS
10
0.75
20
1.12713
11
0.69
21
1.12713
0
LINE
8
BLACK
6
CONTINUOUS
10
0.69
20
1.12713
11
0.686987
21
1.12773
0
LINE
8
BLACK
6
CONTINUOUS
10
0.686987
20
1.12773
11
0.684432
21
1.12943
0
LINE
8
BLACK
6
CONTINUOUS
10
0.684432
20
1.12943
11
0.682725
21
1.13199
0
LINE
8
BLACK
6
CONTINUOUS
10
0.682725
20
1.13199
11
0.682126
21
1.135
0
LINE
8
BLACK
6
CONTINUOUS
10
0.682126
20
1.135
11
0.682126
21
1.195
0
LINE
8
BLACK
6
CONTINUOUS
10
0.682126
20
1.195
11
0.682725
21
1.19801
0
LINE
8
BLACK
6
CONTINUOUS
10
0.682725
20
1.19801
11
0.684432
21
1.20057
0
LINE
8
BLACK
6
CONTINUOUS
10
0.684432
20
1.20057
11
0.686987
21
1.20227
0
LINE
8
BLACK
6
CONTINUOUS
10
0.686987
20
1.20227
11
0.69
21
1.20287
0
LINE
8
BLACK
6
CONTINUOUS
10
0.69
20
1.20287
11
0.75
21
1.20287
0
LINE
8
BLACK
6
CONTINUOUS
10
0.75
20
1.20287
11
0.753013
21
1.20227
0
LINE
8
BLACK
6
CONTINUOUS
10
0.214106
20
1.52519
11
0.228034
21
1.52283
0
LINE
8
BLACK
6
CONTINUOUS
10
0.228034
20
1.52283
11
0.24161
21
1.51891
0
LINE
8
BLACK
6
CONTINUOUS
10
0.24161
20
1.51891
11
0.254663
21
1.51351
0
LINE
8
BLACK
6
CONTINUOUS
10
0.254663
20
1.51351
11
0.267028
21
1.50667
0
LINE
8
BLACK
6
CONTINUOUS
10
0.267028
20
1.50667
11
0.27855
21
1.4985
0
LINE
8
BLACK
6
CONTINUOUS
10
0.27855
20
1.4985
11
0.289084
21
1.48908
0
LINE
8
BLACK
6
CONTINUOUS
10
0.289084
20
1.48908
11
0.298498
21
1.47855
0
LINE
8
BLACK
6
CONTINUOUS
10
0.298498
20
1.47855
11
0.306674
21
1.46703
0
LINE
8
BLACK
6
CONTINUOUS
10
0.306674
20
1.46703
11
0.313508
21
1.45466
0
LINE
8
BLACK
6
CONTINUOUS
10
0.313508
20
1.45466
11
0.318914
21
1.44161
0
LINE
8
BLACK
6
CONTINUOUS
10
0.318914
20
1.44161
11
0.322826
21
1.42803
0
LINE
8
BLACK
6
CONTINUOUS
10
0.322826
20
1.42803
11
0.325192
21
1.41411
0
LINE
8
BLACK
6
CONTINUOUS
10
0.325192
20
1.41411
11
0.325984
21
1.4
0
LINE
8
BLACK
6
CONTINUOUS
10
0.325984
20
1.4
11
0.325192
21
1.38589
0
LINE
8
BLACK
6
CONTINUOUS
10
0.325192
20
1.38589
11
0.322826
21
1.37197
0
LINE
8
BLACK
6
CONTINUOUS
10
0.322826
20
1.37197
11
0.318914
21
1.35839
0
LINE
8
BLACK
6
CONTINUOUS
10
0.318914
20
1.35839
11
0.313508
21
1.34534
0
LINE
8
BLACK
6
CONTINUOUS
10
0.313508
20
1.34534
11
0.306674
21
1.33297
0
LINE
8
BLACK
6
CONTINUOUS
10
0.306674
20
1.33297
11
0.298498
21
1.32145
0
LINE
8
BLACK
6
CONTINUOUS
10
0.298498
20
1.32145
11
0.289084
21
1.31092
0
LINE
8
BLACK
6
CONTINUOUS
10
0.289084
20
1.31092
11
0.27855
21
1.3015
0
LINE
8
BLACK
6
CONTINUOUS
10
0.27855
20
1.3015
11
0.267028
21
1.29333
0
LINE
8
BLACK
6
CONTINUOUS
10
0.267028
20
1.29333
11
0.254663
21
1.28649
0
LINE
8
BLACK
6
CONTINUOUS
10
0.254663
20
1.28649
11
0.24161
21
1.28109
0
LINE
8
BLACK
6
CONTINUOUS
10
0.24161
20
1.28109
11
0.228034
21
1.27717
0
LINE
8
BLACK
6
CONTINUOUS
10
0.228034
20
1.27717
11
0.214106
21
1.27481
0
LINE
8
BLACK
6
CONTINUOUS
10
0.214106
20
1.27481
11
0.2
21
1.27402
0
LINE
8
BLACK
6
CONTINUOUS
10
0.2
20
1.27402
11
0.185894
21
1.27481
0
LINE
8
BLACK
6
CONTINUOUS
10
0.185894
20
1.27481
11
0.171966
21
1.27717
0
LINE
8
BLACK
6
CONTINUOUS
10
0.171966
20
1.27717
11
0.15839
21
1.28109
0
LINE
8
BLACK
6
CONTINUOUS
10
0.15839
20
1.28109
11
0.145337
21
1.28649
0
LINE
8
BLACK
6
CONTINUOUS
10
0.145337
20
1.28649
11
0.132972
21
1.29333
0
LINE
8
BLACK
6
CONTINUOUS
10
0.132972
20
1.29333
11
0.12145
21
1.3015
0
LINE
8
BLACK
6
CONTINUOUS
10
0.12145
20
1.3015
11
0.110916
21
1.31092
0
LINE
8
BLACK
6
CONTINUOUS
10
0.110916
20
1.31092
11
0.101502
21
1.32145
0
LINE
8
BLACK
6
CONTINUOUS
10
0.101502
20
1.32145
11
0.0933261
21
1.33297
0
LINE
8
BLACK
6
CONTINUOUS
10
0.0933261
20
1.33297
11
0.0864921
21
1.34534
0
LINE
8
BLACK
6
CONTINUOUS
10
0.0864921
20
1.34534
11
0.0810856
21
1.35839
0
LINE
8
BLACK
6
CONTINUOUS
10
0.0810856
20
1.35839
11
0.0771744
21
1.37197
0
LINE
8
BLACK
6
CONTINUOUS
10
0.0771744
20
1.37197
11
0.0748079
21
1.38589
0
LINE
8
BLACK
6
CONTINUOUS
10
0.0748079
20
1.38589
11
0.0740157
21
1.4
0
LINE
8
BLACK
6
CONTINUOUS
10
0.0740157
20
1.4
11
0.0748079
21
1.41411
0
LINE
8
BLACK
6
CONTINUOUS
10
0.0748079
20
1.41411
11
0.0771744
21
1.42803
0
LINE
8
BLACK
6
CONTINUOUS
10
0.0771744
20
1.42803
11
0.0810856
21
1.44161
0
LINE
8
BLACK
6
CONTINUOUS
10
0.0810856
20
1.44161
11
0.0864921
21
1.45466
0
LINE
8
BLACK
6
CONTINUOUS
10
0.0864921
20
1.45466
11
0.0933261
21
1.46703
0
LINE
8
BLACK
6
CONTINUOUS
10
0.0933261
20
1.46703
11
0.101502
21
1.47855
0
LINE
8
BLACK
6
CONTINUOUS
10
0.101502
20
1.47855
11
0.110916
21
1.48908
0
LINE
8
BLACK
6
CONTINUOUS
10
0.110916
20
1.48908
11
0.12145
21
1.4985
0
LINE
8
BLACK
6
CONTINUOUS
10
0.12145
20
1.4985
11
0.132972
21
1.50667
0
LINE
8
BLACK
6
CONTINUOUS
10
0.132972
20
1.50667
11
0.145337
21
1.51351
0
LINE
8
BLACK
6
CONTINUOUS
10
0.145337
20
1.51351
11
0.15839
21
1.51891
0
LINE
8
BLACK
6
CONTINUOUS
10
0.15839
20
1.51891
11
0.171966
21
1.52283
0
LINE
8
BLACK
6
CONTINUOUS
10
0.171966
20
1.52283
11
0.185894
21
1.52519
0
LINE
8
BLACK
6
CONTINUOUS
10
0.185894
20
1.52519
11
0.2
21
1.52598
0
LINE
8
BLACK
6
CONTINUOUS
10
0.2
20
1.52598
11
0.214106
21
1.52519
0
LINE
8
BLACK
6
CONTINUOUS
10
0.614106
20
1.52519
11
0.628034
21
1.52283
0
LINE
8
BLACK
6
CONTINUOUS
10
0.628034
20
1.52283
11
0.64161
21
1.51891
0
LINE
8
BLACK
6
CONTINUOUS
10
0.64161
20
1.51891
11
0.654663
21
1.51351
0
LINE
8
BLACK
6
CONTINUOUS
10
0.654663
20
1.51351
11
0.667028
21
1.50667
0
LINE
8
BLACK
6
CONTINUOUS
10
0.667028
20
1.50667
11
0.67855
21
1.4985
0
LINE
8
BLACK
6
CONTINUOUS
10
0.67855
20
1.4985
11
0.689084
21
1.48908
0
LINE
8
BLACK
6
CONTINUOUS
10
0.689084
20
1.48908
11
0.698498
21
1.47855
0
LINE
8
BLACK
6
CONTINUOUS
10
0.698498
20
1.47855
11
0.706674
21
1.46703
0
LINE
8
BLACK
6
CONTINUOUS
10
0.706674
20
1.46703
11
0.713508
21
1.45466
0
LINE
8
BLACK
6
CONTINUOUS
10
0.713508
20
1.45466
11
0.718914
21
1.44161
0
LINE
8
BLACK
6
CONTINUOUS
10
0.718914
20
1.44161
11
0.722826
21
1.42803
0
LINE
8
BLACK
6
CONTINUOUS
10
0.722826
20
1.42803
11
0.725192
21
1.41411
0
LINE
8
BLACK
6
CONTINUOUS
10
0.725192
20
1.41411
11
0.725984
21
1.4
0
LINE
8
BLACK
6
CONTINUOUS
10
0.725984
20
1.4
11
0.725192
21
1.38589
0
LINE
8
BLACK
6
CONTINUOUS
10
0.725192
20
1.38589
11
0.722826
21
1.37197
0
LINE
8
BLACK
6
CONTINUOUS
10
0.722826
20
1.37197
11
0.718914
21
1.35839
0
LINE
8
BLACK
6
CONTINUOUS
10
0.718914
20
1.35839
11
0.713508
21
1.34534
0
LINE
8
BLACK
6
CONTINUOUS
10
0.713508
20
1.34534
11
0.706674
21
1.33297
0
LINE
8
BLACK
6
CONTINUOUS
10
0.706674
20
1.33297
11
0.698498
21
1.32145
0
LINE
8
BLACK
6
CONTINUOUS
10
0.698498
20
1.32145
11
0.689084
21
1.31092
0
LINE
8
BLACK
6
CONTINUOUS
10
0.689084
20
1.31092
11
0.67855
21
1.3015
0
LINE
8
BLACK
6
CONTINUOUS
10
0.67855
20
1.3015
11
0.667028
21
1.29333
0
LINE
8
BLACK
6
CONTINUOUS
10
0.667028
20
1.29333
11
0.654663
21
1.28649
0
LINE
8
BLACK
6
CONTINUOUS
10
0.654663
20
1.28649
11
0.64161
21
1.28109
0
LINE
8
BLACK
6
CONTINUOUS
10
0.64161
20
1.28109
11
0.628034
21
1.27717
0
LINE
8
BLACK
6
CONTINUOUS
10
0.628034
20
1.27717
11
0.614106
21
1.27481
0
LINE
8
BLACK
6
CONTINUOUS
10
0.614106
20
1.27481
11
0.6
21
1.27402
0
LINE
8
BLACK
6
CONTINUOUS
10
0.6
20
1.27402
11
0.585894
21
1.27481
0
LINE
8
BLACK
6
CONTINUOUS
10
0.585894
20
1.27481
11
0.571966
21
1.27717
0
LINE
8
BLACK
6
CONTINUOUS
10
0.571966
20
1.27717
11
0.55839
21
1.28109
0
LINE
8
BLACK
6
CONTINUOUS
10
0.55839
20
1.28109
11
0.545337
21
1.28649
0
LINE
8
BLACK
6
CONTINUOUS
10
0.545337
20
1.28649
11
0.532972
21
1.29333
0
LINE
8
BLACK
6
CONTINUOUS
10
0.532972
20
1.29333
11
0.52145
21
1.3015
0
LINE
8
BLACK
6
CONTINUOUS
10
0.52145
20
1.3015
11
0.510916
21
1.31092
0
LINE
8
BLACK
6
CONTINUOUS
10
0.510916
20
1.31092
11
0.501502
21
1.32145
0
LINE
8
BLACK
6
CONTINUOUS
10
0.501502
20
1.32145
11
0.493326
21
1.33297
0
LINE
8
BLACK
6
CONTINUOUS
10
0.493326
20
1.33297
11
0.486492
21
1.34534
0
LINE
8
BLACK
6
CONTINUOUS
10
0.486492
20
1.34534
11
0.481086
21
1.35839
0
LINE
8
BLACK
6
CONTINUOUS
10
0.481086
20
1.35839
11
0.477174
21
1.37197
0
LINE
8
BLACK
6
CONTINUOUS
10
0.477174
20
1.37197
11
0.474808
21
1.38589
0
LINE
8
BLACK
6
CONTINUOUS
10
0.474808
20
1.38589
11
0.474016
21
1.4
0
LINE
8
BLACK
6
CONTINUOUS
10
0.474016
20
1.4
11
0.474808
21
1.41411
0
LINE
8
BLACK
6
CONTINUOUS
10
0.474808
20
1.41411
11
0.477174
21
1.42803
0
LINE
8
BLACK
6
CONTINUOUS
10
0.477174
20
1.42803
11
0.481086
21
1.44161
0
LINE
8
BLACK
6
CONTINUOUS
10
0.481086
20
1.44161
11
0.486492
21
1.45466
0
LINE
8
BLACK
6
CONTINUOUS
10
0.486492
20
1.45466
11
0.493326
21
1.46703
0
LINE
8
BLACK
6
CONTINUOUS
10
0.493326
20
1.46703
11
0.501502
21
1.47855
0
LINE
8
BLACK
6
CONTINUOUS
10
0.501502
20
1.47855
11
0.510916
21
1.48908
0
LINE
8
BLACK
6
CONTINUOUS
10
0.510916
20
1.48908
11
0.52145
21
1.4985
0
LINE
8
BLACK
6
CONTINUOUS
10
0.52145
20
1.4985
11
0.532972
21
1.50667
0
LINE
8
BLACK
6
CONTINUOUS
10
0.532972
20
1.50667
11
0.545337
21
1.51351
0
LINE
8
BLACK
6
CONTINUOUS
10
0.545337
20
1.51351
11
0.55839
21
1.51891
0
LINE
8
BLACK
6
CONTINUOUS
10
0.55839
20
1.51891
11
0.571966
21
1.52283
0
LINE
8
BLACK
6
CONTINUOUS
10
0.571966
20
1.52283
11
0.585894
21
1.52519
0
LINE
8
BLACK
6
CONTINUOUS
10
0.585894
20
1.52519
11
0.6
21
1.52598
0
LINE
8
BLACK
6
CONTINUOUS
10
0.6
20
1.52598
11
0.614106
21
1.52519
  0
ENDSEC
  0
EOF
