  0
SECTION
  2
HEADER
  9
$ANGBASE
  50
0.0
  9
$ANGDIR
  70
1
  9
$MEASUREMENT
  70
0
  0
ENDSEC
  0
SECTION
  2
TABLES
  0
TABLE
  2
LTYPE
  70
4
  0
LTYPE
  5
40F
  2
CONTINUOUS
  70
0
  3
Solid line
  72
65
  73
0
  40
0.0
  0
LTYPE
  5
410
  2
DASHDOT
 70
0
  3
Dash Dot ____ _ ____ _
 72
65
 73
4
 40
2.0
 49
1.25
 49
-0.25
 49
0.25
 49
-0.25
  0
LTYPE
  5
411
  2
DASHED
 70
0
  3
Dashed __ __ __ __ __
 72
65
 73
2
 40
0.75
 49
0.5
 49
-0.25
  0
LTYPE
  5
43B
  2
DOTTED
 70
0
  3
Dotted .  .  .  .
 72
65
 73
2
 40
0.2
 49
0.0
 49
-0.2
  0
ENDTAB
  0
TABLE
  2
STYLE
  70
4
  0
STYLE
  2
KICAD
  70
0
  40
0
  41
1
  42
1
  50
0
  71
0
  3
isocp.shx
  0
STYLE
  2
KICADB
  70
0
  40
0
  41
1
  42
1
  50
0
  71
0
  3
isocp.shx
  0
STYLE
  2
KICADI
  70
0
  40
0
  41
1
  42
1
  50
15
  71
0
  3
isocp.shx
  0
STYLE
  2
KICADBI
  70
0
  40
0
  41
1
  42
1
  50
15
  71
0
  3
isocp.shx
  0
ENDTAB
  0
TABLE
  2
LAYER
  70
1
  0
LAYER
  2
BLACK
  70
0
  62
7
  6
CONTINUOUS
  0
ENDTAB
  0
ENDSEC
  0
SECTION
  2
ENTITIES
0
LINE
8
BLACK
6
CONTINUOUS
10
0.0226182
20
1.57589
11
0.0247306
21
1.57772
0
LINE
8
BLACK
6
CONTINUOUS
10
0.0247306
20
1.57772
11
0.0267913
21
1.57817
0
LINE
8
BLACK
6
CONTINUOUS
10
0.0267913
20
1.57817
11
0.773209
21
1.57817
0
LINE
8
BLACK
6
CONTINUOUS
10
0.773209
20
1.57817
11
0.775891
21
1.57738
0
LINE
8
BLACK
6
CONTINUOUS
10
0.775891
20
1.57738
11
0.777721
21
1.57527
0
LINE
8
BLACK
6
CONTINUOUS
10
0.777721
20
1.57527
11
0.778169
21
1.57321
0
LINE
8
BLACK
6
CONTINUOUS
10
0.778169
20
1.57321
11
0.778169
21
0.0267913
0
LINE
8
BLACK
6
CONTINUOUS
10
0.778169
20
0.0267913
11
0.777382
21
0.0241094
0
LINE
8
BLACK
6
CONTINUOUS
10
0.777382
20
0.0241094
11
0.775269
21
0.022279
0
LINE
8
BLACK
6
CONTINUOUS
10
0.775269
20
0.022279
11
0.773209
21
0.0218307
0
LINE
8
BLACK
6
CONTINUOUS
10
0.773209
20
0.0218307
11
0.0267913
21
0.0218307
0
LINE
8
BLACK
6
CONTINUOUS
10
0.0267913
20
0.0218307
11
0.0241094
21
0.0226182
0
LINE
8
BLACK
6
CONTINUOUS
10
0.0241094
20
0.0226182
11
0.022279
21
0.0247306
0
LINE
8
BLACK
6
CONTINUOUS
10
0.022279
20
0.0247306
11
0.0218307
21
0.0267913
0
LINE
8
BLACK
6
CONTINUOUS
10
0.0218307
20
0.0267913
11
0.0218307
21
1.57321
0
LINE
8
BLACK
6
CONTINUOUS
10
0.0218307
20
1.57321
11
0.0226182
21
1.57589
0
LINE
8
BLACK
6
CONTINUOUS
10
0.444901
20
0.171534
11
0.448419
21
0.156535
0
LINE
8
BLACK
6
CONTINUOUS
10
0.448419
20
0.156535
11
0.448458
21
0.15642
0
LINE
8
BLACK
6
CONTINUOUS
10
0.448458
20
0.15642
11
0.448458
21
0.15642
0
LINE
8
BLACK
6
CONTINUOUS
10
0.448458
20
0.15642
11
0.453344
21
0.142065
0
LINE
8
BLACK
6
CONTINUOUS
10
0.453344
20
0.142065
11
0.453345
21
0.142065
0
LINE
8
BLACK
6
CONTINUOUS
10
0.453345
20
0.142065
11
0.453384
21
0.14195
0
LINE
8
BLACK
6
CONTINUOUS
10
0.453384
20
0.14195
11
0.459748
21
0.12792
0
LINE
8
BLACK
6
CONTINUOUS
10
0.459748
20
0.12792
11
0.467451
21
0.114578
0
LINE
8
BLACK
6
CONTINUOUS
10
0.467451
20
0.114578
11
0.467522
21
0.11448
0
LINE
8
BLACK
6
CONTINUOUS
10
0.467522
20
0.11448
11
0.467522
21
0.11448
0
LINE
8
BLACK
6
CONTINUOUS
10
0.467522
20
0.11448
11
0.471371
21
0.109102
0
LINE
8
BLACK
6
CONTINUOUS
10
0.471371
20
0.109102
11
0.476419
21
0.102051
0
LINE
8
BLACK
6
CONTINUOUS
10
0.476419
20
0.102051
11
0.486567
21
0.0904593
0
LINE
8
BLACK
6
CONTINUOUS
10
0.486567
20
0.0904593
11
0.497798
21
0.0799131
0
LINE
8
BLACK
6
CONTINUOUS
10
0.497798
20
0.0799131
11
0.510004
21
0.070513
0
LINE
8
BLACK
6
CONTINUOUS
10
0.510004
20
0.070513
11
0.510107
21
0.070449
0
LINE
8
BLACK
6
CONTINUOUS
10
0.510107
20
0.070449
11
0.510107
21
0.0704489
0
LINE
8
BLACK
6
CONTINUOUS
10
0.510107
20
0.0704489
11
0.514791
21
0.067522
0
LINE
8
BLACK
6
CONTINUOUS
10
0.514791
20
0.067522
11
0.523069
21
0.0623489
0
LINE
8
BLACK
6
CONTINUOUS
10
0.523069
20
0.0623489
11
0.536869
21
0.0554988
0
LINE
8
BLACK
6
CONTINUOUS
10
0.536869
20
0.0554988
11
0.551271
21
0.050028
0
LINE
8
BLACK
6
CONTINUOUS
10
0.551271
20
0.050028
11
0.566138
21
0.0459886
0
LINE
8
BLACK
6
CONTINUOUS
10
0.566138
20
0.0459886
11
0.566258
21
0.0459683
0
LINE
8
BLACK
6
CONTINUOUS
10
0.566258
20
0.0459683
11
0.566258
21
0.0459683
0
LINE
8
BLACK
6
CONTINUOUS
10
0.566258
20
0.0459683
11
0.581209
21
0.0434395
0
LINE
8
BLACK
6
CONTINUOUS
10
0.581209
20
0.0434395
11
0.581209
21
0.0434395
0
LINE
8
BLACK
6
CONTINUOUS
10
0.581209
20
0.0434395
11
0.581329
21
0.0434193
0
LINE
8
BLACK
6
CONTINUOUS
10
0.581329
20
0.0434193
11
0.58145
21
0.0434108
0
LINE
8
BLACK
6
CONTINUOUS
10
0.58145
20
0.0434108
11
0.58145
21
0.0434108
0
LINE
8
BLACK
6
CONTINUOUS
10
0.58145
20
0.0434108
11
0.596577
21
0.042353
0
LINE
8
BLACK
6
CONTINUOUS
10
0.596577
20
0.042353
11
0.596577
21
0.042353
0
LINE
8
BLACK
6
CONTINUOUS
10
0.596577
20
0.042353
11
0.596698
21
0.0423446
0
LINE
8
BLACK
6
CONTINUOUS
10
0.596698
20
0.0423446
11
0.606681
21
0.0426235
0
LINE
8
BLACK
6
CONTINUOUS
10
0.606681
20
0.0426235
11
0.611977
21
0.0427714
0
LINE
8
BLACK
6
CONTINUOUS
10
0.611977
20
0.0427714
11
0.611977
21
0.0427714
0
LINE
8
BLACK
6
CONTINUOUS
10
0.611977
20
0.0427714
11
0.612098
21
0.0427748
0
LINE
8
BLACK
6
CONTINUOUS
10
0.612098
20
0.0427748
11
0.612218
21
0.04279
0
LINE
8
BLACK
6
CONTINUOUS
10
0.612218
20
0.04279
11
0.612218
21
0.04279
0
LINE
8
BLACK
6
CONTINUOUS
10
0.612218
20
0.04279
11
0.619533
21
0.0437141
0
LINE
8
BLACK
6
CONTINUOUS
10
0.619533
20
0.0437141
11
0.627383
21
0.0447057
0
LINE
8
BLACK
6
CONTINUOUS
10
0.627383
20
0.0447057
11
0.627501
21
0.0447326
0
LINE
8
BLACK
6
CONTINUOUS
10
0.627501
20
0.0447326
11
0.627501
21
0.0447326
0
LINE
8
BLACK
6
CONTINUOUS
10
0.627501
20
0.0447326
11
0.642288
21
0.0480921
0
LINE
8
BLACK
6
CONTINUOUS
10
0.642288
20
0.0480921
11
0.642288
21
0.0480922
0
LINE
8
BLACK
6
CONTINUOUS
10
0.642288
20
0.0480922
11
0.642406
21
0.0481189
0
LINE
8
BLACK
6
CONTINUOUS
10
0.642406
20
0.0481189
11
0.648145
21
0.050028
0
LINE
8
BLACK
6
CONTINUOUS
10
0.648145
20
0.050028
11
0.656909
21
0.0529436
0
LINE
8
BLACK
6
CONTINUOUS
10
0.656909
20
0.0529436
11
0.65691
21
0.0529437
0
LINE
8
BLACK
6
CONTINUOUS
10
0.65691
20
0.0529437
11
0.657025
21
0.0529819
0
LINE
8
BLACK
6
CONTINUOUS
10
0.657025
20
0.0529819
11
0.662581
21
0.0554557
0
LINE
8
BLACK
6
CONTINUOUS
10
0.662581
20
0.0554557
11
0.670989
21
0.0591991
0
LINE
8
BLACK
6
CONTINUOUS
10
0.670989
20
0.0591991
11
0.670989
21
0.0591992
0
LINE
8
BLACK
6
CONTINUOUS
10
0.670989
20
0.0591992
11
0.671099
21
0.0592482
0
LINE
8
BLACK
6
CONTINUOUS
10
0.671099
20
0.0592482
11
0.671204
21
0.0593079
0
LINE
8
BLACK
6
CONTINUOUS
10
0.671204
20
0.0593079
11
0.684389
21
0.0667983
0
LINE
8
BLACK
6
CONTINUOUS
10
0.684389
20
0.0667983
11
0.68439
21
0.0667984
0
LINE
8
BLACK
6
CONTINUOUS
10
0.68439
20
0.0667984
11
0.684494
21
0.066858
0
LINE
8
BLACK
6
CONTINUOUS
10
0.684494
20
0.066858
11
0.697084
21
0.0757386
0
LINE
8
BLACK
6
CONTINUOUS
10
0.697084
20
0.0757386
11
0.708746
21
0.0858054
0
LINE
8
BLACK
6
CONTINUOUS
10
0.708746
20
0.0858054
11
0.70883
21
0.085893
0
LINE
8
BLACK
6
CONTINUOUS
10
0.70883
20
0.085893
11
0.70883
21
0.0858933
0
LINE
8
BLACK
6
CONTINUOUS
10
0.70883
20
0.0858933
11
0.719287
21
0.0968746
0
LINE
8
BLACK
6
CONTINUOUS
10
0.719287
20
0.0968746
11
0.719371
21
0.0969621
0
LINE
8
BLACK
6
CONTINUOUS
10
0.719371
20
0.0969621
11
0.723275
21
0.10196
0
LINE
8
BLACK
6
CONTINUOUS
10
0.723275
20
0.10196
11
0.72878
21
0.109006
0
LINE
8
BLACK
6
CONTINUOUS
10
0.72878
20
0.109006
11
0.72878
21
0.109006
0
LINE
8
BLACK
6
CONTINUOUS
10
0.72878
20
0.109006
11
0.728856
21
0.109102
0
LINE
8
BLACK
6
CONTINUOUS
10
0.728856
20
0.109102
11
0.728921
21
0.109205
0
LINE
8
BLACK
6
CONTINUOUS
10
0.728921
20
0.109205
11
0.728921
21
0.109205
0
LINE
8
BLACK
6
CONTINUOUS
10
0.728921
20
0.109205
11
0.737046
21
0.122008
0
LINE
8
BLACK
6
CONTINUOUS
10
0.737046
20
0.122008
11
0.737046
21
0.122008
0
LINE
8
BLACK
6
CONTINUOUS
10
0.737046
20
0.122008
11
0.737111
21
0.12211
0
LINE
8
BLACK
6
CONTINUOUS
10
0.737111
20
0.12211
11
0.744057
21
0.135862
0
LINE
8
BLACK
6
CONTINUOUS
10
0.744057
20
0.135862
11
0.749628
21
0.150225
0
LINE
8
BLACK
6
CONTINUOUS
10
0.749628
20
0.150225
11
0.753771
21
0.165064
0
LINE
8
BLACK
6
CONTINUOUS
10
0.753771
20
0.165064
11
0.756447
21
0.180236
0
LINE
8
BLACK
6
CONTINUOUS
10
0.756447
20
0.180236
11
0.756952
21
0.186805
0
LINE
8
BLACK
6
CONTINUOUS
10
0.756952
20
0.186805
11
0.757623
21
0.19552
0
LINE
8
BLACK
6
CONTINUOUS
10
0.757623
20
0.19552
11
0.757623
21
0.195521
0
LINE
8
BLACK
6
CONTINUOUS
10
0.757623
20
0.195521
11
0.757628
21
0.195597
0
LINE
8
BLACK
6
CONTINUOUS
10
0.757628
20
0.195597
11
0.75769
21
0.2
0
LINE
8
BLACK
6
CONTINUOUS
10
0.75769
20
0.2
11
0.756937
21
0.215388
0
LINE
8
BLACK
6
CONTINUOUS
10
0.756937
20
0.215388
11
0.754687
21
0.230629
0
LINE
8
BLACK
6
CONTINUOUS
10
0.754687
20
0.230629
11
0.75096
21
0.245577
0
LINE
8
BLACK
6
CONTINUOUS
10
0.75096
20
0.245577
11
0.745792
21
0.260091
0
LINE
8
BLACK
6
CONTINUOUS
10
0.745792
20
0.260091
11
0.739232
21
0.274031
0
LINE
8
BLACK
6
CONTINUOUS
10
0.739232
20
0.274031
11
0.738077
21
0.275968
0
LINE
8
BLACK
6
CONTINUOUS
10
0.738077
20
0.275968
11
0.731406
21
0.28716
0
LINE
8
BLACK
6
CONTINUOUS
10
0.731406
20
0.28716
11
0.731343
21
0.287264
0
LINE
8
BLACK
6
CONTINUOUS
10
0.731343
20
0.287264
11
0.722201
21
0.299665
0
LINE
8
BLACK
6
CONTINUOUS
10
0.722201
20
0.299665
11
0.711892
21
0.311114
0
LINE
8
BLACK
6
CONTINUOUS
10
0.711892
20
0.311114
11
0.700515
21
0.321502
0
LINE
8
BLACK
6
CONTINUOUS
10
0.700515
20
0.321502
11
0.688179
21
0.330731
0
LINE
8
BLACK
6
CONTINUOUS
10
0.688179
20
0.330731
11
0.686066
21
0.332011
0
LINE
8
BLACK
6
CONTINUOUS
10
0.686066
20
0.332011
11
0.675105
21
0.338649
0
LINE
8
BLACK
6
CONTINUOUS
10
0.675105
20
0.338649
11
0.675104
21
0.338649
0
LINE
8
BLACK
6
CONTINUOUS
10
0.675104
20
0.338649
11
0.675001
21
0.338712
0
LINE
8
BLACK
6
CONTINUOUS
10
0.675001
20
0.338712
11
0.661107
21
0.345369
0
LINE
8
BLACK
6
CONTINUOUS
10
0.661107
20
0.345369
11
0.660994
21
0.34541
0
LINE
8
BLACK
6
CONTINUOUS
10
0.660994
20
0.34541
11
0.660993
21
0.34541
0
LINE
8
BLACK
6
CONTINUOUS
10
0.660993
20
0.34541
11
0.646744
21
0.350596
0
LINE
8
BLACK
6
CONTINUOUS
10
0.646744
20
0.350596
11
0.646744
21
0.350596
0
LINE
8
BLACK
6
CONTINUOUS
10
0.646744
20
0.350596
11
0.64663
21
0.350638
0
LINE
8
BLACK
6
CONTINUOUS
10
0.64663
20
0.350638
11
0.635721
21
0.353439
0
LINE
8
BLACK
6
CONTINUOUS
10
0.635721
20
0.353439
11
0.631825
21
0.354439
0
LINE
8
BLACK
6
CONTINUOUS
10
0.631825
20
0.354439
11
0.631825
21
0.354439
0
LINE
8
BLACK
6
CONTINUOUS
10
0.631825
20
0.354439
11
0.631708
21
0.354469
0
LINE
8
BLACK
6
CONTINUOUS
10
0.631708
20
0.354469
11
0.616483
21
0.356826
0
LINE
8
BLACK
6
CONTINUOUS
10
0.616483
20
0.356826
11
0.616363
21
0.356833
0
LINE
8
BLACK
6
CONTINUOUS
10
0.616363
20
0.356833
11
0.616363
21
0.356833
0
LINE
8
BLACK
6
CONTINUOUS
10
0.616363
20
0.356833
11
0.615162
21
0.3569
0
LINE
8
BLACK
6
CONTINUOUS
10
0.615162
20
0.3569
11
0.601101
21
0.357686
0
LINE
8
BLACK
6
CONTINUOUS
10
0.601101
20
0.357686
11
0.60098
21
0.357681
0
LINE
8
BLACK
6
CONTINUOUS
10
0.60098
20
0.357681
11
0.60098
21
0.357681
0
LINE
8
BLACK
6
CONTINUOUS
10
0.60098
20
0.357681
11
0.590896
21
0.357258
0
LINE
8
BLACK
6
CONTINUOUS
10
0.590896
20
0.357258
11
0.585708
21
0.357041
0
LINE
8
BLACK
6
CONTINUOUS
10
0.585708
20
0.357041
11
0.585588
21
0.357024
0
LINE
8
BLACK
6
CONTINUOUS
10
0.585588
20
0.357024
11
0.585588
21
0.357024
0
LINE
8
BLACK
6
CONTINUOUS
10
0.585588
20
0.357024
11
0.584227
21
0.356833
0
LINE
8
BLACK
6
CONTINUOUS
10
0.584227
20
0.356833
11
0.570452
21
0.354897
0
LINE
8
BLACK
6
CONTINUOUS
10
0.570452
20
0.354897
11
0.555478
21
0.351274
0
LINE
8
BLACK
6
CONTINUOUS
10
0.555478
20
0.351274
11
0.540928
21
0.346208
0
LINE
8
BLACK
6
CONTINUOUS
10
0.540928
20
0.346208
11
0.540818
21
0.346157
0
LINE
8
BLACK
6
CONTINUOUS
10
0.540818
20
0.346157
11
0.527053
21
0.339796
0
LINE
8
BLACK
6
CONTINUOUS
10
0.527053
20
0.339796
11
0.527053
21
0.339796
0
LINE
8
BLACK
6
CONTINUOUS
10
0.527053
20
0.339796
11
0.526943
21
0.339745
0
LINE
8
BLACK
6
CONTINUOUS
10
0.526943
20
0.339745
11
0.52267
21
0.337239
0
LINE
8
BLACK
6
CONTINUOUS
10
0.52267
20
0.337239
11
0.513759
21
0.332011
0
LINE
8
BLACK
6
CONTINUOUS
10
0.513759
20
0.332011
11
0.513759
21
0.332011
0
LINE
8
BLACK
6
CONTINUOUS
10
0.513759
20
0.332011
11
0.513655
21
0.331949
0
LINE
8
BLACK
6
CONTINUOUS
10
0.513655
20
0.331949
11
0.512064
21
0.330794
0
LINE
8
BLACK
6
CONTINUOUS
10
0.512064
20
0.330794
11
0.501289
21
0.322965
0
LINE
8
BLACK
6
CONTINUOUS
10
0.501289
20
0.322965
11
0.501288
21
0.322965
0
LINE
8
BLACK
6
CONTINUOUS
10
0.501288
20
0.322965
11
0.501191
21
0.322894
0
LINE
8
BLACK
6
CONTINUOUS
10
0.501191
20
0.322894
11
0.501101
21
0.322814
0
LINE
8
BLACK
6
CONTINUOUS
10
0.501101
20
0.322814
11
0.5011
21
0.322814
0
LINE
8
BLACK
6
CONTINUOUS
10
0.5011
20
0.322814
11
0.489761
21
0.312746
0
LINE
8
BLACK
6
CONTINUOUS
10
0.489761
20
0.312746
11
0.48967
21
0.312665
0
LINE
8
BLACK
6
CONTINUOUS
10
0.48967
20
0.312665
11
0.479202
21
0.301361
0
LINE
8
BLACK
6
CONTINUOUS
10
0.479202
20
0.301361
11
0.469888
21
0.28909
0
LINE
8
BLACK
6
CONTINUOUS
10
0.469888
20
0.28909
11
0.461815
21
0.275968
0
LINE
8
BLACK
6
CONTINUOUS
10
0.461815
20
0.275968
11
0.455062
21
0.262121
0
LINE
8
BLACK
6
CONTINUOUS
10
0.455062
20
0.262121
11
0.449691
21
0.247681
0
LINE
8
BLACK
6
CONTINUOUS
10
0.449691
20
0.247681
11
0.445756
21
0.232786
0
LINE
8
BLACK
6
CONTINUOUS
10
0.445756
20
0.232786
11
0.443293
21
0.217578
0
LINE
8
BLACK
6
CONTINUOUS
10
0.443293
20
0.217578
11
0.442325
21
0.202202
0
LINE
8
BLACK
6
CONTINUOUS
10
0.442325
20
0.202202
11
0.442863
21
0.186805
0
LINE
8
BLACK
6
CONTINUOUS
10
0.442863
20
0.186805
11
0.444901
21
0.171534
0
LINE
8
BLACK
6
CONTINUOUS
10
0.0825811
20
0.565683
11
0.0857003
21
0.562569
0
LINE
8
BLACK
6
CONTINUOUS
10
0.0857003
20
0.562569
11
0.0861191
21
0.562384
0
LINE
8
BLACK
6
CONTINUOUS
10
0.0861191
20
0.562384
11
0.0861191
21
0.562384
0
LINE
8
BLACK
6
CONTINUOUS
10
0.0861191
20
0.562384
11
0.0884631
21
0.561348
0
LINE
8
BLACK
6
CONTINUOUS
10
0.0884631
20
0.561348
11
0.0897312
21
0.560787
0
LINE
8
BLACK
6
CONTINUOUS
10
0.0897312
20
0.560787
11
0.0907423
21
0.560669
0
LINE
8
BLACK
6
CONTINUOUS
10
0.0907423
20
0.560669
11
0.149258
21
0.560669
0
LINE
8
BLACK
6
CONTINUOUS
10
0.149258
20
0.560669
11
0.149404
21
0.560687
0
LINE
8
BLACK
6
CONTINUOUS
10
0.149404
20
0.560687
11
0.149404
21
0.560687
0
LINE
8
BLACK
6
CONTINUOUS
10
0.149404
20
0.560687
11
0.149695
21
0.560721
0
LINE
8
BLACK
6
CONTINUOUS
10
0.149695
20
0.560721
11
0.150289
21
0.560792
0
LINE
8
BLACK
6
CONTINUOUS
10
0.150289
20
0.560792
11
0.154317
21
0.562581
0
LINE
8
BLACK
6
CONTINUOUS
10
0.154317
20
0.562581
11
0.154641
21
0.562905
0
LINE
8
BLACK
6
CONTINUOUS
10
0.154641
20
0.562905
11
0.157107
21
0.565376
0
LINE
8
BLACK
6
CONTINUOUS
10
0.157107
20
0.565376
11
0.157107
21
0.565376
0
LINE
8
BLACK
6
CONTINUOUS
10
0.157107
20
0.565376
11
0.157431
21
0.5657
0
LINE
8
BLACK
6
CONTINUOUS
10
0.157431
20
0.5657
11
0.157616
21
0.566119
0
LINE
8
BLACK
6
CONTINUOUS
10
0.157616
20
0.566119
11
0.15765
21
0.566169
0
LINE
8
BLACK
6
CONTINUOUS
10
0.15765
20
0.566169
11
0.159815
21
0.567937
0
LINE
8
BLACK
6
CONTINUOUS
10
0.159815
20
0.567937
11
0.161743
21
0.568327
0
LINE
8
BLACK
6
CONTINUOUS
10
0.161743
20
0.568327
11
0.168256
21
0.568327
0
LINE
8
BLACK
6
CONTINUOUS
10
0.168256
20
0.568327
11
0.170938
21
0.567539
0
LINE
8
BLACK
6
CONTINUOUS
10
0.170938
20
0.567539
11
0.172344
21
0.566176
0
LINE
8
BLACK
6
CONTINUOUS
10
0.172344
20
0.566176
11
0.172395
21
0.566101
0
LINE
8
BLACK
6
CONTINUOUS
10
0.172395
20
0.566101
11
0.172581
21
0.565683
0
LINE
8
BLACK
6
CONTINUOUS
10
0.172581
20
0.565683
11
0.1757
21
0.562569
0
LINE
8
BLACK
6
CONTINUOUS
10
0.1757
20
0.562569
11
0.176119
21
0.562384
0
LINE
8
BLACK
6
CONTINUOUS
10
0.176119
20
0.562384
11
0.176119
21
0.562384
0
LINE
8
BLACK
6
CONTINUOUS
10
0.176119
20
0.562384
11
0.178463
21
0.561348
0
LINE
8
BLACK
6
CONTINUOUS
10
0.178463
20
0.561348
11
0.179731
21
0.560787
0
LINE
8
BLACK
6
CONTINUOUS
10
0.179731
20
0.560787
11
0.180742
21
0.560669
0
LINE
8
BLACK
6
CONTINUOUS
10
0.180742
20
0.560669
11
0.239258
21
0.560669
0
LINE
8
BLACK
6
CONTINUOUS
10
0.239258
20
0.560669
11
0.239404
21
0.560687
0
LINE
8
BLACK
6
CONTINUOUS
10
0.239404
20
0.560687
11
0.239404
21
0.560687
0
LINE
8
BLACK
6
CONTINUOUS
10
0.239404
20
0.560687
11
0.239695
21
0.560721
0
LINE
8
BLACK
6
CONTINUOUS
10
0.239695
20
0.560721
11
0.240289
21
0.560792
0
LINE
8
BLACK
6
CONTINUOUS
10
0.240289
20
0.560792
11
0.244317
21
0.562581
0
LINE
8
BLACK
6
CONTINUOUS
10
0.244317
20
0.562581
11
0.244641
21
0.562905
0
LINE
8
BLACK
6
CONTINUOUS
10
0.244641
20
0.562905
11
0.247107
21
0.565376
0
LINE
8
BLACK
6
CONTINUOUS
10
0.247107
20
0.565376
11
0.247107
21
0.565376
0
LINE
8
BLACK
6
CONTINUOUS
10
0.247107
20
0.565376
11
0.247431
21
0.5657
0
LINE
8
BLACK
6
CONTINUOUS
10
0.247431
20
0.5657
11
0.247616
21
0.566119
0
LINE
8
BLACK
6
CONTINUOUS
10
0.247616
20
0.566119
11
0.24765
21
0.566169
0
LINE
8
BLACK
6
CONTINUOUS
10
0.24765
20
0.566169
11
0.249815
21
0.567937
0
LINE
8
BLACK
6
CONTINUOUS
10
0.249815
20
0.567937
11
0.251743
21
0.568327
0
LINE
8
BLACK
6
CONTINUOUS
10
0.251743
20
0.568327
11
0.263256
21
0.568327
0
LINE
8
BLACK
6
CONTINUOUS
10
0.263256
20
0.568327
11
0.265938
21
0.567539
0
LINE
8
BLACK
6
CONTINUOUS
10
0.265938
20
0.567539
11
0.267344
21
0.566176
0
LINE
8
BLACK
6
CONTINUOUS
10
0.267344
20
0.566176
11
0.267395
21
0.566101
0
LINE
8
BLACK
6
CONTINUOUS
10
0.267395
20
0.566101
11
0.267581
21
0.565683
0
LINE
8
BLACK
6
CONTINUOUS
10
0.267581
20
0.565683
11
0.2707
21
0.562569
0
LINE
8
BLACK
6
CONTINUOUS
10
0.2707
20
0.562569
11
0.271119
21
0.562384
0
LINE
8
BLACK
6
CONTINUOUS
10
0.271119
20
0.562384
11
0.271119
21
0.562384
0
LINE
8
BLACK
6
CONTINUOUS
10
0.271119
20
0.562384
11
0.273463
21
0.561348
0
LINE
8
BLACK
6
CONTINUOUS
10
0.273463
20
0.561348
11
0.274731
21
0.560787
0
LINE
8
BLACK
6
CONTINUOUS
10
0.274731
20
0.560787
11
0.275742
21
0.560669
0
LINE
8
BLACK
6
CONTINUOUS
10
0.275742
20
0.560669
11
0.334258
21
0.560669
0
LINE
8
BLACK
6
CONTINUOUS
10
0.334258
20
0.560669
11
0.334404
21
0.560687
0
LINE
8
BLACK
6
CONTINUOUS
10
0.334404
20
0.560687
11
0.334404
21
0.560687
0
LINE
8
BLACK
6
CONTINUOUS
10
0.334404
20
0.560687
11
0.334695
21
0.560721
0
LINE
8
BLACK
6
CONTINUOUS
10
0.334695
20
0.560721
11
0.335289
21
0.560792
0
LINE
8
BLACK
6
CONTINUOUS
10
0.335289
20
0.560792
11
0.339317
21
0.562581
0
LINE
8
BLACK
6
CONTINUOUS
10
0.339317
20
0.562581
11
0.339641
21
0.562905
0
LINE
8
BLACK
6
CONTINUOUS
10
0.339641
20
0.562905
11
0.342107
21
0.565376
0
LINE
8
BLACK
6
CONTINUOUS
10
0.342107
20
0.565376
11
0.342107
21
0.565376
0
LINE
8
BLACK
6
CONTINUOUS
10
0.342107
20
0.565376
11
0.342431
21
0.5657
0
LINE
8
BLACK
6
CONTINUOUS
10
0.342431
20
0.5657
11
0.342616
21
0.566119
0
LINE
8
BLACK
6
CONTINUOUS
10
0.342616
20
0.566119
11
0.34265
21
0.566169
0
LINE
8
BLACK
6
CONTINUOUS
10
0.34265
20
0.566169
11
0.344815
21
0.567937
0
LINE
8
BLACK
6
CONTINUOUS
10
0.344815
20
0.567937
11
0.346743
21
0.568327
0
LINE
8
BLACK
6
CONTINUOUS
10
0.346743
20
0.568327
11
0.388012
21
0.568327
0
LINE
8
BLACK
6
CONTINUOUS
10
0.388012
20
0.568327
11
0.390694
21
0.567539
0
LINE
8
BLACK
6
CONTINUOUS
10
0.390694
20
0.567539
11
0.392524
21
0.565427
0
LINE
8
BLACK
6
CONTINUOUS
10
0.392524
20
0.565427
11
0.392972
21
0.563366
0
LINE
8
BLACK
6
CONTINUOUS
10
0.392972
20
0.563366
11
0.392972
21
0.409961
0
LINE
8
BLACK
6
CONTINUOUS
10
0.392972
20
0.409961
11
0.393247
21
0.407404
0
LINE
8
BLACK
6
CONTINUOUS
10
0.393247
20
0.407404
11
0.393276
21
0.407274
0
LINE
8
BLACK
6
CONTINUOUS
10
0.393276
20
0.407274
11
0.393276
21
0.407274
0
LINE
8
BLACK
6
CONTINUOUS
10
0.393276
20
0.407274
11
0.393678
21
0.405422
0
LINE
8
BLACK
6
CONTINUOUS
10
0.393678
20
0.405422
11
0.393679
21
0.405422
0
LINE
8
BLACK
6
CONTINUOUS
10
0.393679
20
0.405422
11
0.393696
21
0.405343
0
LINE
8
BLACK
6
CONTINUOUS
10
0.393696
20
0.405343
11
0.394127
21
0.403839
0
LINE
8
BLACK
6
CONTINUOUS
10
0.394127
20
0.403839
11
0.396358
21
0.400024
0
LINE
8
BLACK
6
CONTINUOUS
10
0.396358
20
0.400024
11
0.398189
21
0.397911
0
LINE
8
BLACK
6
CONTINUOUS
10
0.398189
20
0.397911
11
0.39995
21
0.39625
0
LINE
8
BLACK
6
CONTINUOUS
10
0.39995
20
0.39625
11
0.400266
21
0.39609
0
LINE
8
BLACK
6
CONTINUOUS
10
0.400266
20
0.39609
11
0.400266
21
0.39609
0
LINE
8
BLACK
6
CONTINUOUS
10
0.400266
20
0.39609
11
0.403686
21
0.394351
0
LINE
8
BLACK
6
CONTINUOUS
10
0.403686
20
0.394351
11
0.403686
21
0.394351
0
LINE
8
BLACK
6
CONTINUOUS
10
0.403686
20
0.394351
11
0.40389
21
0.394247
0
LINE
8
BLACK
6
CONTINUOUS
10
0.40389
20
0.394247
11
0.40411
21
0.394183
0
LINE
8
BLACK
6
CONTINUOUS
10
0.40411
20
0.394183
11
0.40411
21
0.394183
0
LINE
8
BLACK
6
CONTINUOUS
10
0.40411
20
0.394183
11
0.404983
21
0.393926
0
LINE
8
BLACK
6
CONTINUOUS
10
0.404983
20
0.393926
11
0.406572
21
0.39346
0
LINE
8
BLACK
6
CONTINUOUS
10
0.406572
20
0.39346
11
0.406748
21
0.393434
0
LINE
8
BLACK
6
CONTINUOUS
10
0.406748
20
0.393434
11
0.406748
21
0.393434
0
LINE
8
BLACK
6
CONTINUOUS
10
0.406748
20
0.393434
11
0.408186
21
0.393228
0
LINE
8
BLACK
6
CONTINUOUS
10
0.408186
20
0.393228
11
0.409961
21
0.392972
0
LINE
8
BLACK
6
CONTINUOUS
10
0.409961
20
0.392972
11
0.522945
21
0.392972
0
LINE
8
BLACK
6
CONTINUOUS
10
0.522945
20
0.392972
11
0.524231
21
0.393041
0
LINE
8
BLACK
6
CONTINUOUS
10
0.524231
20
0.393041
11
0.524297
21
0.393048
0
LINE
8
BLACK
6
CONTINUOUS
10
0.524297
20
0.393048
11
0.524297
21
0.393048
0
LINE
8
BLACK
6
CONTINUOUS
10
0.524297
20
0.393048
11
0.524847
21
0.393108
0
LINE
8
BLACK
6
CONTINUOUS
10
0.524847
20
0.393108
11
0.525285
21
0.393155
0
LINE
8
BLACK
6
CONTINUOUS
10
0.525285
20
0.393155
11
0.529764
21
0.394557
0
LINE
8
BLACK
6
CONTINUOUS
10
0.529764
20
0.394557
11
0.529978
21
0.394674
0
LINE
8
BLACK
6
CONTINUOUS
10
0.529978
20
0.394674
11
0.529978
21
0.394674
0
LINE
8
BLACK
6
CONTINUOUS
10
0.529978
20
0.394674
11
0.532062
21
0.395812
0
LINE
8
BLACK
6
CONTINUOUS
10
0.532062
20
0.395812
11
0.532062
21
0.395812
0
LINE
8
BLACK
6
CONTINUOUS
10
0.532062
20
0.395812
11
0.532217
21
0.395897
0
LINE
8
BLACK
6
CONTINUOUS
10
0.532217
20
0.395897
11
0.53269
21
0.39625
0
LINE
8
BLACK
6
CONTINUOUS
10
0.53269
20
0.39625
11
0.534816
21
0.397842
0
LINE
8
BLACK
6
CONTINUOUS
10
0.534816
20
0.397842
11
0.534816
21
0.397842
0
LINE
8
BLACK
6
CONTINUOUS
10
0.534816
20
0.397842
11
0.534958
21
0.397948
0
LINE
8
BLACK
6
CONTINUOUS
10
0.534958
20
0.397948
11
0.593529
21
0.456519
0
LINE
8
BLACK
6
CONTINUOUS
10
0.593529
20
0.456519
11
0.595982
21
0.457859
0
LINE
8
BLACK
6
CONTINUOUS
10
0.595982
20
0.457859
11
0.597037
21
0.457972
0
LINE
8
BLACK
6
CONTINUOUS
10
0.597037
20
0.457972
11
0.745039
21
0.457972
0
LINE
8
BLACK
6
CONTINUOUS
10
0.745039
20
0.457972
11
0.745171
21
0.457987
0
LINE
8
BLACK
6
CONTINUOUS
10
0.745171
20
0.457987
11
0.745171
21
0.457987
0
LINE
8
BLACK
6
CONTINUOUS
10
0.745171
20
0.457987
11
0.746606
21
0.458141
0
LINE
8
BLACK
6
CONTINUOUS
10
0.746606
20
0.458141
11
0.747136
21
0.458169
0
LINE
8
BLACK
6
CONTINUOUS
10
0.747136
20
0.458169
11
0.751758
21
0.458169
0
LINE
8
BLACK
6
CONTINUOUS
10
0.751758
20
0.458169
11
0.751904
21
0.458187
0
LINE
8
BLACK
6
CONTINUOUS
10
0.751904
20
0.458187
11
0.751904
21
0.458187
0
LINE
8
BLACK
6
CONTINUOUS
10
0.751904
20
0.458187
11
0.752195
21
0.458221
0
LINE
8
BLACK
6
CONTINUOUS
10
0.752195
20
0.458221
11
0.752789
21
0.458292
0
LINE
8
BLACK
6
CONTINUOUS
10
0.752789
20
0.458292
11
0.756817
21
0.460081
0
LINE
8
BLACK
6
CONTINUOUS
10
0.756817
20
0.460081
11
0.759931
21
0.4632
0
LINE
8
BLACK
6
CONTINUOUS
10
0.759931
20
0.4632
11
0.761713
21
0.467231
0
LINE
8
BLACK
6
CONTINUOUS
10
0.761713
20
0.467231
11
0.761831
21
0.468242
0
LINE
8
BLACK
6
CONTINUOUS
10
0.761831
20
0.468242
11
0.761831
21
0.473237
0
LINE
8
BLACK
6
CONTINUOUS
10
0.761831
20
0.473237
11
0.761881
21
0.473943
0
LINE
8
BLACK
6
CONTINUOUS
10
0.761881
20
0.473943
11
0.762002
21
0.474785
0
LINE
8
BLACK
6
CONTINUOUS
10
0.762002
20
0.474785
11
0.762028
21
0.474961
0
LINE
8
BLACK
6
CONTINUOUS
10
0.762028
20
0.474961
11
0.762028
21
0.625039
0
LINE
8
BLACK
6
CONTINUOUS
10
0.762028
20
0.625039
11
0.761859
21
0.626606
0
LINE
8
BLACK
6
CONTINUOUS
10
0.761859
20
0.626606
11
0.761831
21
0.627136
0
LINE
8
BLACK
6
CONTINUOUS
10
0.761831
20
0.627136
11
0.761831
21
0.631758
0
LINE
8
BLACK
6
CONTINUOUS
10
0.761831
20
0.631758
11
0.761708
21
0.632789
0
LINE
8
BLACK
6
CONTINUOUS
10
0.761708
20
0.632789
11
0.760421
21
0.635686
0
LINE
8
BLACK
6
CONTINUOUS
10
0.760421
20
0.635686
11
0.760105
21
0.636398
0
LINE
8
BLACK
6
CONTINUOUS
10
0.760105
20
0.636398
11
0.759919
21
0.636817
0
LINE
8
BLACK
6
CONTINUOUS
10
0.759919
20
0.636817
11
0.75934
21
0.637395
0
LINE
8
BLACK
6
CONTINUOUS
10
0.75934
20
0.637395
11
0.757124
21
0.639607
0
LINE
8
BLACK
6
CONTINUOUS
10
0.757124
20
0.639607
11
0.7568
21
0.639931
0
LINE
8
BLACK
6
CONTINUOUS
10
0.7568
20
0.639931
11
0.756381
21
0.640116
0
LINE
8
BLACK
6
CONTINUOUS
10
0.756381
20
0.640116
11
0.756381
21
0.640116
0
LINE
8
BLACK
6
CONTINUOUS
10
0.756381
20
0.640116
11
0.75311
21
0.641562
0
LINE
8
BLACK
6
CONTINUOUS
10
0.75311
20
0.641562
11
0.75311
21
0.641562
0
LINE
8
BLACK
6
CONTINUOUS
10
0.75311
20
0.641562
11
0.752769
21
0.641713
0
LINE
8
BLACK
6
CONTINUOUS
10
0.752769
20
0.641713
11
0.751758
21
0.641831
0
LINE
8
BLACK
6
CONTINUOUS
10
0.751758
20
0.641831
11
0.746763
21
0.641831
0
LINE
8
BLACK
6
CONTINUOUS
10
0.746763
20
0.641831
11
0.746057
21
0.641881
0
LINE
8
BLACK
6
CONTINUOUS
10
0.746057
20
0.641881
11
0.745963
21
0.641895
0
LINE
8
BLACK
6
CONTINUOUS
10
0.745963
20
0.641895
11
0.745039
21
0.642028
0
LINE
8
BLACK
6
CONTINUOUS
10
0.745039
20
0.642028
11
0.547037
21
0.642028
0
LINE
8
BLACK
6
CONTINUOUS
10
0.547037
20
0.642028
11
0.544355
21
0.642815
0
LINE
8
BLACK
6
CONTINUOUS
10
0.544355
20
0.642815
11
0.543529
21
0.643481
0
LINE
8
BLACK
6
CONTINUOUS
10
0.543529
20
0.643481
11
0.504958
21
0.682052
0
LINE
8
BLACK
6
CONTINUOUS
10
0.504958
20
0.682052
11
0.504908
21
0.682096
0
LINE
8
BLACK
6
CONTINUOUS
10
0.504908
20
0.682096
11
0.504049
21
0.682868
0
LINE
8
BLACK
6
CONTINUOUS
10
0.504049
20
0.682868
11
0.504049
21
0.682868
0
LINE
8
BLACK
6
CONTINUOUS
10
0.504049
20
0.682868
11
0.504
21
0.682912
0
LINE
8
BLACK
6
CONTINUOUS
10
0.504
20
0.682912
11
0.503949
21
0.682954
0
LINE
8
BLACK
6
CONTINUOUS
10
0.503949
20
0.682954
11
0.503364
21
0.683425
0
LINE
8
BLACK
6
CONTINUOUS
10
0.503364
20
0.683425
11
0.503364
21
0.683425
0
LINE
8
BLACK
6
CONTINUOUS
10
0.503364
20
0.683425
11
0.503174
21
0.683577
0
LINE
8
BLACK
6
CONTINUOUS
10
0.503174
20
0.683577
11
0.503072
21
0.683631
0
LINE
8
BLACK
6
CONTINUOUS
10
0.503072
20
0.683631
11
0.502425
21
0.684157
0
LINE
8
BLACK
6
CONTINUOUS
10
0.502425
20
0.684157
11
0.502399
21
0.684174
0
LINE
8
BLACK
6
CONTINUOUS
10
0.502399
20
0.684174
11
0.502075
21
0.684498
0
LINE
8
BLACK
6
CONTINUOUS
10
0.502075
20
0.684498
11
0.501657
21
0.684683
0
LINE
8
BLACK
6
CONTINUOUS
10
0.501657
20
0.684683
11
0.501656
21
0.684683
0
LINE
8
BLACK
6
CONTINUOUS
10
0.501656
20
0.684683
11
0.499313
21
0.685719
0
LINE
8
BLACK
6
CONTINUOUS
10
0.499313
20
0.685719
11
0.498044
21
0.68628
0
LINE
8
BLACK
6
CONTINUOUS
10
0.498044
20
0.68628
11
0.497054
21
0.686395
0
LINE
8
BLACK
6
CONTINUOUS
10
0.497054
20
0.686395
11
0.496574
21
0.686475
0
LINE
8
BLACK
6
CONTINUOUS
10
0.496574
20
0.686475
11
0.496504
21
0.68649
0
LINE
8
BLACK
6
CONTINUOUS
10
0.496504
20
0.68649
11
0.496334
21
0.68654
0
LINE
8
BLACK
6
CONTINUOUS
10
0.496334
20
0.68654
11
0.492945
21
0.687028
0
LINE
8
BLACK
6
CONTINUOUS
10
0.492945
20
0.687028
11
0.409961
21
0.687028
0
LINE
8
BLACK
6
CONTINUOUS
10
0.409961
20
0.687028
11
0.409829
21
0.687013
0
LINE
8
BLACK
6
CONTINUOUS
10
0.409829
20
0.687013
11
0.409829
21
0.687013
0
LINE
8
BLACK
6
CONTINUOUS
10
0.409829
20
0.687013
11
0.408888
21
0.686912
0
LINE
8
BLACK
6
CONTINUOUS
10
0.408888
20
0.686912
11
0.407404
21
0.686753
0
LINE
8
BLACK
6
CONTINUOUS
10
0.407404
20
0.686753
11
0.407039
21
0.686673
0
LINE
8
BLACK
6
CONTINUOUS
10
0.407039
20
0.686673
11
0.406293
21
0.686511
0
LINE
8
BLACK
6
CONTINUOUS
10
0.406293
20
0.686511
11
0.405238
21
0.686398
0
LINE
8
BLACK
6
CONTINUOUS
10
0.405238
20
0.686398
11
0.402967
21
0.686398
0
LINE
8
BLACK
6
CONTINUOUS
10
0.402967
20
0.686398
11
0.402821
21
0.68638
0
LINE
8
BLACK
6
CONTINUOUS
10
0.402821
20
0.68638
11
0.402821
21
0.68638
0
LINE
8
BLACK
6
CONTINUOUS
10
0.402821
20
0.68638
11
0.40253
21
0.686346
0
LINE
8
BLACK
6
CONTINUOUS
10
0.40253
20
0.686346
11
0.401935
21
0.686275
0
LINE
8
BLACK
6
CONTINUOUS
10
0.401935
20
0.686275
11
0.401595
21
0.686124
0
LINE
8
BLACK
6
CONTINUOUS
10
0.401595
20
0.686124
11
0.401595
21
0.686124
0
LINE
8
BLACK
6
CONTINUOUS
10
0.401595
20
0.686124
11
0.398836
21
0.684898
0
LINE
8
BLACK
6
CONTINUOUS
10
0.398836
20
0.684898
11
0.397907
21
0.684486
0
LINE
8
BLACK
6
CONTINUOUS
10
0.397907
20
0.684486
11
0.397584
21
0.684162
0
LINE
8
BLACK
6
CONTINUOUS
10
0.397584
20
0.684162
11
0.397584
21
0.684162
0
LINE
8
BLACK
6
CONTINUOUS
10
0.397584
20
0.684162
11
0.397001
21
0.683577
0
LINE
8
BLACK
6
CONTINUOUS
10
0.397001
20
0.683577
11
0.394794
21
0.681367
0
LINE
8
BLACK
6
CONTINUOUS
10
0.394794
20
0.681367
11
0.393012
21
0.677336
0
LINE
8
BLACK
6
CONTINUOUS
10
0.393012
20
0.677336
11
0.392894
21
0.676325
0
LINE
8
BLACK
6
CONTINUOUS
10
0.392894
20
0.676325
11
0.392894
21
0.616634
0
LINE
8
BLACK
6
CONTINUOUS
10
0.392894
20
0.616634
11
0.392106
21
0.613952
0
LINE
8
BLACK
6
CONTINUOUS
10
0.392106
20
0.613952
11
0.389994
21
0.612121
0
LINE
8
BLACK
6
CONTINUOUS
10
0.389994
20
0.612121
11
0.387933
21
0.611673
0
LINE
8
BLACK
6
CONTINUOUS
10
0.387933
20
0.611673
11
0.346744
21
0.611673
0
LINE
8
BLACK
6
CONTINUOUS
10
0.346744
20
0.611673
11
0.344062
21
0.612461
0
LINE
8
BLACK
6
CONTINUOUS
10
0.344062
20
0.612461
11
0.342656
21
0.613824
0
LINE
8
BLACK
6
CONTINUOUS
10
0.342656
20
0.613824
11
0.342605
21
0.613899
0
LINE
8
BLACK
6
CONTINUOUS
10
0.342605
20
0.613899
11
0.342419
21
0.614317
0
LINE
8
BLACK
6
CONTINUOUS
10
0.342419
20
0.614317
11
0.3393
21
0.617431
0
LINE
8
BLACK
6
CONTINUOUS
10
0.3393
20
0.617431
11
0.338881
21
0.617616
0
LINE
8
BLACK
6
CONTINUOUS
10
0.338881
20
0.617616
11
0.338881
21
0.617616
0
LINE
8
BLACK
6
CONTINUOUS
10
0.338881
20
0.617616
11
0.336537
21
0.618652
0
LINE
8
BLACK
6
CONTINUOUS
10
0.336537
20
0.618652
11
0.335269
21
0.619213
0
LINE
8
BLACK
6
CONTINUOUS
10
0.335269
20
0.619213
11
0.334258
21
0.619331
0
LINE
8
BLACK
6
CONTINUOUS
10
0.334258
20
0.619331
11
0.275742
21
0.619331
0
LINE
8
BLACK
6
CONTINUOUS
10
0.275742
20
0.619331
11
0.275596
21
0.619313
0
LINE
8
BLACK
6
CONTINUOUS
10
0.275596
20
0.619313
11
0.275596
21
0.619313
0
LINE
8
BLACK
6
CONTINUOUS
10
0.275596
20
0.619313
11
0.275305
21
0.619279
0
LINE
8
BLACK
6
CONTINUOUS
10
0.275305
20
0.619279
11
0.274711
21
0.619208
0
LINE
8
BLACK
6
CONTINUOUS
10
0.274711
20
0.619208
11
0.270683
21
0.617419
0
LINE
8
BLACK
6
CONTINUOUS
10
0.270683
20
0.617419
11
0.270359
21
0.617095
0
LINE
8
BLACK
6
CONTINUOUS
10
0.270359
20
0.617095
11
0.270359
21
0.617095
0
LINE
8
BLACK
6
CONTINUOUS
10
0.270359
20
0.617095
11
0.267893
21
0.614624
0
LINE
8
BLACK
6
CONTINUOUS
10
0.267893
20
0.614624
11
0.267893
21
0.614624
0
LINE
8
BLACK
6
CONTINUOUS
10
0.267893
20
0.614624
11
0.267569
21
0.6143
0
LINE
8
BLACK
6
CONTINUOUS
10
0.267569
20
0.6143
11
0.267384
21
0.613881
0
LINE
8
BLACK
6
CONTINUOUS
10
0.267384
20
0.613881
11
0.26735
21
0.613831
0
LINE
8
BLACK
6
CONTINUOUS
10
0.26735
20
0.613831
11
0.265185
21
0.612063
0
LINE
8
BLACK
6
CONTINUOUS
10
0.265185
20
0.612063
11
0.263257
21
0.611673
0
LINE
8
BLACK
6
CONTINUOUS
10
0.263257
20
0.611673
11
0.251744
21
0.611673
0
LINE
8
BLACK
6
CONTINUOUS
10
0.251744
20
0.611673
11
0.249062
21
0.612461
0
LINE
8
BLACK
6
CONTINUOUS
10
0.249062
20
0.612461
11
0.247656
21
0.613824
0
LINE
8
BLACK
6
CONTINUOUS
10
0.247656
20
0.613824
11
0.247605
21
0.613899
0
LINE
8
BLACK
6
CONTINUOUS
10
0.247605
20
0.613899
11
0.247419
21
0.614317
0
LINE
8
BLACK
6
CONTINUOUS
10
0.247419
20
0.614317
11
0.2443
21
0.617431
0
LINE
8
BLACK
6
CONTINUOUS
10
0.2443
20
0.617431
11
0.243881
21
0.617616
0
LINE
8
BLACK
6
CONTINUOUS
10
0.243881
20
0.617616
11
0.243881
21
0.617616
0
LINE
8
BLACK
6
CONTINUOUS
10
0.243881
20
0.617616
11
0.241537
21
0.618652
0
LINE
8
BLACK
6
CONTINUOUS
10
0.241537
20
0.618652
11
0.240269
21
0.619213
0
LINE
8
BLACK
6
CONTINUOUS
10
0.240269
20
0.619213
11
0.239258
21
0.619331
0
LINE
8
BLACK
6
CONTINUOUS
10
0.239258
20
0.619331
11
0.180742
21
0.619331
0
LINE
8
BLACK
6
CONTINUOUS
10
0.180742
20
0.619331
11
0.180596
21
0.619313
0
LINE
8
BLACK
6
CONTINUOUS
10
0.180596
20
0.619313
11
0.180596
21
0.619313
0
LINE
8
BLACK
6
CONTINUOUS
10
0.180596
20
0.619313
11
0.180305
21
0.619279
0
LINE
8
BLACK
6
CONTINUOUS
10
0.180305
20
0.619279
11
0.179711
21
0.619208
0
LINE
8
BLACK
6
CONTINUOUS
10
0.179711
20
0.619208
11
0.175683
21
0.617419
0
LINE
8
BLACK
6
CONTINUOUS
10
0.175683
20
0.617419
11
0.175359
21
0.617095
0
LINE
8
BLACK
6
CONTINUOUS
10
0.175359
20
0.617095
11
0.175359
21
0.617095
0
LINE
8
BLACK
6
CONTINUOUS
10
0.175359
20
0.617095
11
0.172893
21
0.614624
0
LINE
8
BLACK
6
CONTINUOUS
10
0.172893
20
0.614624
11
0.172893
21
0.614624
0
LINE
8
BLACK
6
CONTINUOUS
10
0.172893
20
0.614624
11
0.172569
21
0.6143
0
LINE
8
BLACK
6
CONTINUOUS
10
0.172569
20
0.6143
11
0.172384
21
0.613881
0
LINE
8
BLACK
6
CONTINUOUS
10
0.172384
20
0.613881
11
0.17235
21
0.613831
0
LINE
8
BLACK
6
CONTINUOUS
10
0.17235
20
0.613831
11
0.170185
21
0.612063
0
LINE
8
BLACK
6
CONTINUOUS
10
0.170185
20
0.612063
11
0.168257
21
0.611673
0
LINE
8
BLACK
6
CONTINUOUS
10
0.168257
20
0.611673
11
0.161744
21
0.611673
0
LINE
8
BLACK
6
CONTINUOUS
10
0.161744
20
0.611673
11
0.159062
21
0.612461
0
LINE
8
BLACK
6
CONTINUOUS
10
0.159062
20
0.612461
11
0.157656
21
0.613824
0
LINE
8
BLACK
6
CONTINUOUS
10
0.157656
20
0.613824
11
0.157605
21
0.613899
0
LINE
8
BLACK
6
CONTINUOUS
10
0.157605
20
0.613899
11
0.157419
21
0.614317
0
LINE
8
BLACK
6
CONTINUOUS
10
0.157419
20
0.614317
11
0.1543
21
0.617431
0
LINE
8
BLACK
6
CONTINUOUS
10
0.1543
20
0.617431
11
0.153881
21
0.617616
0
LINE
8
BLACK
6
CONTINUOUS
10
0.153881
20
0.617616
11
0.153881
21
0.617616
0
LINE
8
BLACK
6
CONTINUOUS
10
0.153881
20
0.617616
11
0.151537
21
0.618652
0
LINE
8
BLACK
6
CONTINUOUS
10
0.151537
20
0.618652
11
0.150269
21
0.619213
0
LINE
8
BLACK
6
CONTINUOUS
10
0.150269
20
0.619213
11
0.149258
21
0.619331
0
LINE
8
BLACK
6
CONTINUOUS
10
0.149258
20
0.619331
11
0.0907423
21
0.619331
0
LINE
8
BLACK
6
CONTINUOUS
10
0.0907423
20
0.619331
11
0.0905965
21
0.619313
0
LINE
8
BLACK
6
CONTINUOUS
10
0.0905965
20
0.619313
11
0.0905963
21
0.619313
0
LINE
8
BLACK
6
CONTINUOUS
10
0.0905963
20
0.619313
11
0.0903053
21
0.619279
0
LINE
8
BLACK
6
CONTINUOUS
10
0.0903053
20
0.619279
11
0.0897108
21
0.619208
0
LINE
8
BLACK
6
CONTINUOUS
10
0.0897108
20
0.619208
11
0.085683
21
0.617419
0
LINE
8
BLACK
6
CONTINUOUS
10
0.085683
20
0.617419
11
0.0825693
21
0.6143
0
LINE
8
BLACK
6
CONTINUOUS
10
0.0825693
20
0.6143
11
0.0823841
21
0.613881
0
LINE
8
BLACK
6
CONTINUOUS
10
0.0823841
20
0.613881
11
0.0823841
21
0.613881
0
LINE
8
BLACK
6
CONTINUOUS
10
0.0823841
20
0.613881
11
0.082359
21
0.613824
0
LINE
8
BLACK
6
CONTINUOUS
10
0.082359
20
0.613824
11
0.0807872
21
0.610269
0
LINE
8
BLACK
6
CONTINUOUS
10
0.0807872
20
0.610269
11
0.0806693
21
0.609258
0
LINE
8
BLACK
6
CONTINUOUS
10
0.0806693
20
0.609258
11
0.0806693
21
0.570742
0
LINE
8
BLACK
6
CONTINUOUS
10
0.0806693
20
0.570742
11
0.080792
21
0.569711
0
LINE
8
BLACK
6
CONTINUOUS
10
0.080792
20
0.569711
11
0.0825811
21
0.565683
0
LINE
8
BLACK
6
CONTINUOUS
10
0.267286
20
0.842474
11
0.270405
21
0.839361
0
LINE
8
BLACK
6
CONTINUOUS
10
0.270405
20
0.839361
11
0.270824
21
0.839175
0
LINE
8
BLACK
6
CONTINUOUS
10
0.270824
20
0.839175
11
0.270824
21
0.839175
0
LINE
8
BLACK
6
CONTINUOUS
10
0.270824
20
0.839175
11
0.273168
21
0.838139
0
LINE
8
BLACK
6
CONTINUOUS
10
0.273168
20
0.838139
11
0.274436
21
0.837579
0
LINE
8
BLACK
6
CONTINUOUS
10
0.274436
20
0.837579
11
0.275447
21
0.837461
0
LINE
8
BLACK
6
CONTINUOUS
10
0.275447
20
0.837461
11
0.304553
21
0.837461
0
LINE
8
BLACK
6
CONTINUOUS
10
0.304553
20
0.837461
11
0.304699
21
0.837478
0
LINE
8
BLACK
6
CONTINUOUS
10
0.304699
20
0.837478
11
0.304699
21
0.837478
0
LINE
8
BLACK
6
CONTINUOUS
10
0.304699
20
0.837478
11
0.30499
21
0.837513
0
LINE
8
BLACK
6
CONTINUOUS
10
0.30499
20
0.837513
11
0.305584
21
0.837583
0
LINE
8
BLACK
6
CONTINUOUS
10
0.305584
20
0.837583
11
0.305925
21
0.837734
0
LINE
8
BLACK
6
CONTINUOUS
10
0.305925
20
0.837734
11
0.306145
21
0.837795
0
LINE
8
BLACK
6
CONTINUOUS
10
0.306145
20
0.837795
11
0.30746
21
0.837972
0
LINE
8
BLACK
6
CONTINUOUS
10
0.30746
20
0.837972
11
0.342963
21
0.837972
0
LINE
8
BLACK
6
CONTINUOUS
10
0.342963
20
0.837972
11
0.345645
21
0.837185
0
LINE
8
BLACK
6
CONTINUOUS
10
0.345645
20
0.837185
11
0.346471
21
0.836519
0
LINE
8
BLACK
6
CONTINUOUS
10
0.346471
20
0.836519
11
0.381519
21
0.801471
0
LINE
8
BLACK
6
CONTINUOUS
10
0.381519
20
0.801471
11
0.382859
21
0.799018
0
LINE
8
BLACK
6
CONTINUOUS
10
0.382859
20
0.799018
11
0.382972
21
0.797963
0
LINE
8
BLACK
6
CONTINUOUS
10
0.382972
20
0.797963
11
0.382972
21
0.742305
0
LINE
8
BLACK
6
CONTINUOUS
10
0.382972
20
0.742305
11
0.383022
21
0.741211
0
LINE
8
BLACK
6
CONTINUOUS
10
0.383022
20
0.741211
11
0.383105
21
0.740311
0
LINE
8
BLACK
6
CONTINUOUS
10
0.383105
20
0.740311
11
0.384347
21
0.735981
0
LINE
8
BLACK
6
CONTINUOUS
10
0.384347
20
0.735981
11
0.385608
21
0.733487
0
LINE
8
BLACK
6
CONTINUOUS
10
0.385608
20
0.733487
11
0.385676
21
0.733381
0
LINE
8
BLACK
6
CONTINUOUS
10
0.385676
20
0.733381
11
0.385676
21
0.733381
0
LINE
8
BLACK
6
CONTINUOUS
10
0.385676
20
0.733381
11
0.386278
21
0.732439
0
LINE
8
BLACK
6
CONTINUOUS
10
0.386278
20
0.732439
11
0.386912
21
0.731447
0
LINE
8
BLACK
6
CONTINUOUS
10
0.386912
20
0.731447
11
0.387179
21
0.731214
0
LINE
8
BLACK
6
CONTINUOUS
10
0.387179
20
0.731214
11
0.387179
21
0.731214
0
LINE
8
BLACK
6
CONTINUOUS
10
0.387179
20
0.731214
11
0.388631
21
0.72995
0
LINE
8
BLACK
6
CONTINUOUS
10
0.388631
20
0.72995
11
0.390245
21
0.728544
0
LINE
8
BLACK
6
CONTINUOUS
10
0.390245
20
0.728544
11
0.390443
21
0.728428
0
LINE
8
BLACK
6
CONTINUOUS
10
0.390443
20
0.728428
11
0.390443
21
0.728428
0
LINE
8
BLACK
6
CONTINUOUS
10
0.390443
20
0.728428
11
0.390694
21
0.72828
0
LINE
8
BLACK
6
CONTINUOUS
10
0.390694
20
0.72828
11
0.392654
21
0.727127
0
LINE
8
BLACK
6
CONTINUOUS
10
0.392654
20
0.727127
11
0.395822
21
0.725829
0
LINE
8
BLACK
6
CONTINUOUS
10
0.395822
20
0.725829
11
0.395993
21
0.725786
0
LINE
8
BLACK
6
CONTINUOUS
10
0.395993
20
0.725786
11
0.395994
21
0.725786
0
LINE
8
BLACK
6
CONTINUOUS
10
0.395994
20
0.725786
11
0.398099
21
0.725257
0
LINE
8
BLACK
6
CONTINUOUS
10
0.398099
20
0.725257
11
0.399866
21
0.724977
0
LINE
8
BLACK
6
CONTINUOUS
10
0.399866
20
0.724977
11
0.400501
21
0.724654
0
LINE
8
BLACK
6
CONTINUOUS
10
0.400501
20
0.724654
11
0.401009
21
0.724526
0
LINE
8
BLACK
6
CONTINUOUS
10
0.401009
20
0.724526
11
0.401572
21
0.724349
0
LINE
8
BLACK
6
CONTINUOUS
10
0.401572
20
0.724349
11
0.402735
21
0.723904
0
LINE
8
BLACK
6
CONTINUOUS
10
0.402735
20
0.723904
11
0.405056
21
0.723327
0
LINE
8
BLACK
6
CONTINUOUS
10
0.405056
20
0.723327
11
0.405987
21
0.723213
0
LINE
8
BLACK
6
CONTINUOUS
10
0.405987
20
0.723213
11
0.407806
21
0.722991
0
LINE
8
BLACK
6
CONTINUOUS
10
0.407806
20
0.722991
11
0.407806
21
0.722991
0
LINE
8
BLACK
6
CONTINUOUS
10
0.407806
20
0.722991
11
0.407956
21
0.722972
0
LINE
8
BLACK
6
CONTINUOUS
10
0.407956
20
0.722972
11
0.452099
21
0.722972
0
LINE
8
BLACK
6
CONTINUOUS
10
0.452099
20
0.722972
11
0.452246
21
0.72299
0
LINE
8
BLACK
6
CONTINUOUS
10
0.452246
20
0.72299
11
0.452246
21
0.72299
0
LINE
8
BLACK
6
CONTINUOUS
10
0.452246
20
0.72299
11
0.45479
21
0.723295
0
LINE
8
BLACK
6
CONTINUOUS
10
0.45479
20
0.723295
11
0.45479
21
0.723295
0
LINE
8
BLACK
6
CONTINUOUS
10
0.45479
20
0.723295
11
0.454937
21
0.723312
0
LINE
8
BLACK
6
CONTINUOUS
10
0.454937
20
0.723312
11
0.457212
21
0.723865
0
LINE
8
BLACK
6
CONTINUOUS
10
0.457212
20
0.723865
11
0.45735
21
0.723916
0
LINE
8
BLACK
6
CONTINUOUS
10
0.45735
20
0.723916
11
0.457351
21
0.723916
0
LINE
8
BLACK
6
CONTINUOUS
10
0.457351
20
0.723916
11
0.45888
21
0.724487
0
LINE
8
BLACK
6
CONTINUOUS
10
0.45888
20
0.724487
11
0.459457
21
0.724664
0
LINE
8
BLACK
6
CONTINUOUS
10
0.459457
20
0.724664
11
0.459572
21
0.724691
0
LINE
8
BLACK
6
CONTINUOUS
10
0.459572
20
0.724691
11
0.460134
21
0.724977
0
LINE
8
BLACK
6
CONTINUOUS
10
0.460134
20
0.724977
11
0.461984
21
0.72527
0
LINE
8
BLACK
6
CONTINUOUS
10
0.461984
20
0.72527
11
0.462616
21
0.725422
0
LINE
8
BLACK
6
CONTINUOUS
10
0.462616
20
0.725422
11
0.4638
21
0.725559
0
LINE
8
BLACK
6
CONTINUOUS
10
0.4638
20
0.725559
11
0.463806
21
0.725559
0
LINE
8
BLACK
6
CONTINUOUS
10
0.463806
20
0.725559
11
0.465
21
0.725748
0
LINE
8
BLACK
6
CONTINUOUS
10
0.465
20
0.725748
11
0.466275
21
0.725546
0
LINE
8
BLACK
6
CONTINUOUS
10
0.466275
20
0.725546
11
0.466363
21
0.725546
0
LINE
8
BLACK
6
CONTINUOUS
10
0.466363
20
0.725546
11
0.467545
21
0.725396
0
LINE
8
BLACK
6
CONTINUOUS
10
0.467545
20
0.725396
11
0.468099
21
0.725257
0
LINE
8
BLACK
6
CONTINUOUS
10
0.468099
20
0.725257
11
0.469866
21
0.724977
0
LINE
8
BLACK
6
CONTINUOUS
10
0.469866
20
0.724977
11
0.470501
21
0.724654
0
LINE
8
BLACK
6
CONTINUOUS
10
0.470501
20
0.724654
11
0.471009
21
0.724526
0
LINE
8
BLACK
6
CONTINUOUS
10
0.471009
20
0.724526
11
0.471572
21
0.724349
0
LINE
8
BLACK
6
CONTINUOUS
10
0.471572
20
0.724349
11
0.472735
21
0.723904
0
LINE
8
BLACK
6
CONTINUOUS
10
0.472735
20
0.723904
11
0.475057
21
0.723327
0
LINE
8
BLACK
6
CONTINUOUS
10
0.475057
20
0.723327
11
0.475206
21
0.723309
0
LINE
8
BLACK
6
CONTINUOUS
10
0.475206
20
0.723309
11
0.477806
21
0.722991
0
LINE
8
BLACK
6
CONTINUOUS
10
0.477806
20
0.722991
11
0.477806
21
0.722991
0
LINE
8
BLACK
6
CONTINUOUS
10
0.477806
20
0.722991
11
0.477956
21
0.722972
0
LINE
8
BLACK
6
CONTINUOUS
10
0.477956
20
0.722972
11
0.490039
21
0.722972
0
LINE
8
BLACK
6
CONTINUOUS
10
0.490039
20
0.722972
11
0.490171
21
0.722987
0
LINE
8
BLACK
6
CONTINUOUS
10
0.490171
20
0.722987
11
0.490171
21
0.722987
0
LINE
8
BLACK
6
CONTINUOUS
10
0.490171
20
0.722987
11
0.492464
21
0.723233
0
LINE
8
BLACK
6
CONTINUOUS
10
0.492464
20
0.723233
11
0.492464
21
0.723233
0
LINE
8
BLACK
6
CONTINUOUS
10
0.492464
20
0.723233
11
0.492596
21
0.723247
0
LINE
8
BLACK
6
CONTINUOUS
10
0.492596
20
0.723247
11
0.492879
21
0.723309
0
LINE
8
BLACK
6
CONTINUOUS
10
0.492879
20
0.723309
11
0.494578
21
0.723678
0
LINE
8
BLACK
6
CONTINUOUS
10
0.494578
20
0.723678
11
0.494578
21
0.723679
0
LINE
8
BLACK
6
CONTINUOUS
10
0.494578
20
0.723679
11
0.494657
21
0.723696
0
LINE
8
BLACK
6
CONTINUOUS
10
0.494657
20
0.723696
11
0.494734
21
0.723718
0
LINE
8
BLACK
6
CONTINUOUS
10
0.494734
20
0.723718
11
0.494734
21
0.723718
0
LINE
8
BLACK
6
CONTINUOUS
10
0.494734
20
0.723718
11
0.495863
21
0.724041
0
LINE
8
BLACK
6
CONTINUOUS
10
0.495863
20
0.724041
11
0.495863
21
0.724041
0
LINE
8
BLACK
6
CONTINUOUS
10
0.495863
20
0.724041
11
0.496161
21
0.724127
0
LINE
8
BLACK
6
CONTINUOUS
10
0.496161
20
0.724127
11
0.496958
21
0.724593
0
LINE
8
BLACK
6
CONTINUOUS
10
0.496958
20
0.724593
11
0.499779
21
0.726243
0
LINE
8
BLACK
6
CONTINUOUS
10
0.499779
20
0.726243
11
0.499779
21
0.726243
0
LINE
8
BLACK
6
CONTINUOUS
10
0.499779
20
0.726243
11
0.499976
21
0.726358
0
LINE
8
BLACK
6
CONTINUOUS
10
0.499976
20
0.726358
11
0.502089
21
0.728189
0
LINE
8
BLACK
6
CONTINUOUS
10
0.502089
20
0.728189
11
0.50375
21
0.72995
0
LINE
8
BLACK
6
CONTINUOUS
10
0.50375
20
0.72995
11
0.50391
21
0.730266
0
LINE
8
BLACK
6
CONTINUOUS
10
0.50391
20
0.730266
11
0.50391
21
0.730266
0
LINE
8
BLACK
6
CONTINUOUS
10
0.50391
20
0.730266
11
0.505649
21
0.733686
0
LINE
8
BLACK
6
CONTINUOUS
10
0.505649
20
0.733686
11
0.505649
21
0.733686
0
LINE
8
BLACK
6
CONTINUOUS
10
0.505649
20
0.733686
11
0.505753
21
0.73389
0
LINE
8
BLACK
6
CONTINUOUS
10
0.505753
20
0.73389
11
0.50654
21
0.736572
0
LINE
8
BLACK
6
CONTINUOUS
10
0.50654
20
0.736572
11
0.507028
21
0.739961
0
LINE
8
BLACK
6
CONTINUOUS
10
0.507028
20
0.739961
11
0.507028
21
0.742712
0
LINE
8
BLACK
6
CONTINUOUS
10
0.507028
20
0.742712
11
0.507061
21
0.743286
0
LINE
8
BLACK
6
CONTINUOUS
10
0.507061
20
0.743286
11
0.507106
21
0.743675
0
LINE
8
BLACK
6
CONTINUOUS
10
0.507106
20
0.743675
11
0.507106
21
0.838042
0
LINE
8
BLACK
6
CONTINUOUS
10
0.507106
20
0.838042
11
0.507894
21
0.840724
0
LINE
8
BLACK
6
CONTINUOUS
10
0.507894
20
0.840724
11
0.508559
21
0.84155
0
LINE
8
BLACK
6
CONTINUOUS
10
0.508559
20
0.84155
11
0.537052
21
0.870042
0
LINE
8
BLACK
6
CONTINUOUS
10
0.537052
20
0.870042
11
0.537912
21
0.871
0
LINE
8
BLACK
6
CONTINUOUS
10
0.537912
20
0.871
11
0.538577
21
0.871826
0
LINE
8
BLACK
6
CONTINUOUS
10
0.538577
20
0.871826
11
0.540753
21
0.875984
0
LINE
8
BLACK
6
CONTINUOUS
10
0.540753
20
0.875984
11
0.54154
21
0.878666
0
LINE
8
BLACK
6
CONTINUOUS
10
0.54154
20
0.878666
11
0.542028
21
0.882055
0
LINE
8
BLACK
6
CONTINUOUS
10
0.542028
20
0.882055
11
0.542028
21
0.940039
0
LINE
8
BLACK
6
CONTINUOUS
10
0.542028
20
0.940039
11
0.541753
21
0.942596
0
LINE
8
BLACK
6
CONTINUOUS
10
0.541753
20
0.942596
11
0.541615
21
0.943228
0
LINE
8
BLACK
6
CONTINUOUS
10
0.541615
20
0.943228
11
0.541322
21
0.944578
0
LINE
8
BLACK
6
CONTINUOUS
10
0.541322
20
0.944578
11
0.541321
21
0.944578
0
LINE
8
BLACK
6
CONTINUOUS
10
0.541321
20
0.944578
11
0.541304
21
0.944657
0
LINE
8
BLACK
6
CONTINUOUS
10
0.541304
20
0.944657
11
0.541282
21
0.944734
0
LINE
8
BLACK
6
CONTINUOUS
10
0.541282
20
0.944734
11
0.540959
21
0.945863
0
LINE
8
BLACK
6
CONTINUOUS
10
0.540959
20
0.945863
11
0.540959
21
0.945863
0
LINE
8
BLACK
6
CONTINUOUS
10
0.540959
20
0.945863
11
0.540873
21
0.946161
0
LINE
8
BLACK
6
CONTINUOUS
10
0.540873
20
0.946161
11
0.540881
21
0.946163
0
LINE
8
BLACK
6
CONTINUOUS
10
0.540881
20
0.946163
11
0.540591
21
0.94739
0
LINE
8
BLACK
6
CONTINUOUS
10
0.540591
20
0.94739
11
0.540571
21
0.947388
0
LINE
8
BLACK
6
CONTINUOUS
10
0.540571
20
0.947388
11
0.540571
21
0.94739
0
LINE
8
BLACK
6
CONTINUOUS
10
0.540571
20
0.94739
11
0.540448
21
0.948419
0
LINE
8
BLACK
6
CONTINUOUS
10
0.540448
20
0.948419
11
0.540283
21
0.948791
0
LINE
8
BLACK
6
CONTINUOUS
10
0.540283
20
0.948791
11
0.538845
21
0.952028
0
LINE
8
BLACK
6
CONTINUOUS
10
0.538845
20
0.952028
11
0.538659
21
0.952447
0
LINE
8
BLACK
6
CONTINUOUS
10
0.538659
20
0.952447
11
0.538304
21
0.952801
0
LINE
8
BLACK
6
CONTINUOUS
10
0.538304
20
0.952801
11
0.535864
21
0.955237
0
LINE
8
BLACK
6
CONTINUOUS
10
0.535864
20
0.955237
11
0.53554
21
0.955561
0
LINE
8
BLACK
6
CONTINUOUS
10
0.53554
20
0.955561
11
0.535121
21
0.955746
0
LINE
8
BLACK
6
CONTINUOUS
10
0.535121
20
0.955746
11
0.535121
21
0.955746
0
LINE
8
BLACK
6
CONTINUOUS
10
0.535121
20
0.955746
11
0.532777
21
0.956782
0
LINE
8
BLACK
6
CONTINUOUS
10
0.532777
20
0.956782
11
0.531509
21
0.957343
0
LINE
8
BLACK
6
CONTINUOUS
10
0.531509
20
0.957343
11
0.530498
21
0.957461
0
LINE
8
BLACK
6
CONTINUOUS
10
0.530498
20
0.957461
11
0.369502
21
0.957461
0
LINE
8
BLACK
6
CONTINUOUS
10
0.369502
20
0.957461
11
0.369356
21
0.957443
0
LINE
8
BLACK
6
CONTINUOUS
10
0.369356
20
0.957443
11
0.369356
21
0.957443
0
LINE
8
BLACK
6
CONTINUOUS
10
0.369356
20
0.957443
11
0.369065
21
0.957409
0
LINE
8
BLACK
6
CONTINUOUS
10
0.369065
20
0.957409
11
0.368471
21
0.957338
0
LINE
8
BLACK
6
CONTINUOUS
10
0.368471
20
0.957338
11
0.364443
21
0.955549
0
LINE
8
BLACK
6
CONTINUOUS
10
0.364443
20
0.955549
11
0.364119
21
0.955225
0
LINE
8
BLACK
6
CONTINUOUS
10
0.364119
20
0.955225
11
0.363725
21
0.95483
0
LINE
8
BLACK
6
CONTINUOUS
10
0.363725
20
0.95483
11
0.362912
21
0.954174
0
LINE
8
BLACK
6
CONTINUOUS
10
0.362912
20
0.954174
11
0.362783
21
0.954103
0
LINE
8
BLACK
6
CONTINUOUS
10
0.362783
20
0.954103
11
0.362641
21
0.953997
0
LINE
8
BLACK
6
CONTINUOUS
10
0.362641
20
0.953997
11
0.360184
21
0.952158
0
LINE
8
BLACK
6
CONTINUOUS
10
0.360184
20
0.952158
11
0.360184
21
0.952158
0
LINE
8
BLACK
6
CONTINUOUS
10
0.360184
20
0.952158
11
0.360042
21
0.952052
0
LINE
8
BLACK
6
CONTINUOUS
10
0.360042
20
0.952052
11
0.331471
21
0.923481
0
LINE
8
BLACK
6
CONTINUOUS
10
0.331471
20
0.923481
11
0.329018
21
0.922141
0
LINE
8
BLACK
6
CONTINUOUS
10
0.329018
20
0.922141
11
0.327963
21
0.922028
0
LINE
8
BLACK
6
CONTINUOUS
10
0.327963
20
0.922028
11
0.307461
21
0.922028
0
LINE
8
BLACK
6
CONTINUOUS
10
0.307461
20
0.922028
11
0.306156
21
0.922202
0
LINE
8
BLACK
6
CONTINUOUS
10
0.306156
20
0.922202
11
0.305905
21
0.922271
0
LINE
8
BLACK
6
CONTINUOUS
10
0.305905
20
0.922271
11
0.305564
21
0.922421
0
LINE
8
BLACK
6
CONTINUOUS
10
0.305564
20
0.922421
11
0.304553
21
0.922539
0
LINE
8
BLACK
6
CONTINUOUS
10
0.304553
20
0.922539
11
0.275447
21
0.922539
0
LINE
8
BLACK
6
CONTINUOUS
10
0.275447
20
0.922539
11
0.275301
21
0.922522
0
LINE
8
BLACK
6
CONTINUOUS
10
0.275301
20
0.922522
11
0.275301
21
0.922522
0
LINE
8
BLACK
6
CONTINUOUS
10
0.275301
20
0.922522
11
0.27501
21
0.922487
0
LINE
8
BLACK
6
CONTINUOUS
10
0.27501
20
0.922487
11
0.274416
21
0.922417
0
LINE
8
BLACK
6
CONTINUOUS
10
0.274416
20
0.922417
11
0.274075
21
0.922266
0
LINE
8
BLACK
6
CONTINUOUS
10
0.274075
20
0.922266
11
0.274075
21
0.922266
0
LINE
8
BLACK
6
CONTINUOUS
10
0.274075
20
0.922266
11
0.273795
21
0.922141
0
LINE
8
BLACK
6
CONTINUOUS
10
0.273795
20
0.922141
11
0.270388
21
0.920628
0
LINE
8
BLACK
6
CONTINUOUS
10
0.270388
20
0.920628
11
0.267274
21
0.917508
0
LINE
8
BLACK
6
CONTINUOUS
10
0.267274
20
0.917508
11
0.265492
21
0.913477
0
LINE
8
BLACK
6
CONTINUOUS
10
0.265492
20
0.913477
11
0.265374
21
0.912466
0
LINE
8
BLACK
6
CONTINUOUS
10
0.265374
20
0.912466
11
0.265374
21
0.910709
0
LINE
8
BLACK
6
CONTINUOUS
10
0.265374
20
0.910709
11
0.265394
21
0.910709
0
LINE
8
BLACK
6
CONTINUOUS
10
0.265394
20
0.910709
11
0.265394
21
0.849291
0
LINE
8
BLACK
6
CONTINUOUS
10
0.265394
20
0.849291
11
0.265374
21
0.849291
0
LINE
8
BLACK
6
CONTINUOUS
10
0.265374
20
0.849291
11
0.265374
21
0.847534
0
LINE
8
BLACK
6
CONTINUOUS
10
0.265374
20
0.847534
11
0.265497
21
0.846502
0
LINE
8
BLACK
6
CONTINUOUS
10
0.265497
20
0.846502
11
0.267286
21
0.842474
0
LINE
8
BLACK
6
CONTINUOUS
10
0.0449007
20
0.171534
11
0.0484187
21
0.156535
0
LINE
8
BLACK
6
CONTINUOUS
10
0.0484187
20
0.156535
11
0.0484576
21
0.15642
0
LINE
8
BLACK
6
CONTINUOUS
10
0.0484576
20
0.15642
11
0.0484577
21
0.15642
0
LINE
8
BLACK
6
CONTINUOUS
10
0.0484577
20
0.15642
11
0.0533445
21
0.142065
0
LINE
8
BLACK
6
CONTINUOUS
10
0.0533445
20
0.142065
11
0.0533447
21
0.142065
0
LINE
8
BLACK
6
CONTINUOUS
10
0.0533447
20
0.142065
11
0.0533836
21
0.14195
0
LINE
8
BLACK
6
CONTINUOUS
10
0.0533836
20
0.14195
11
0.059748
21
0.12792
0
LINE
8
BLACK
6
CONTINUOUS
10
0.059748
20
0.12792
11
0.0674511
21
0.114578
0
LINE
8
BLACK
6
CONTINUOUS
10
0.0674511
20
0.114578
11
0.0675215
21
0.11448
0
LINE
8
BLACK
6
CONTINUOUS
10
0.0675215
20
0.11448
11
0.0675216
21
0.11448
0
LINE
8
BLACK
6
CONTINUOUS
10
0.0675216
20
0.11448
11
0.0713713
21
0.109102
0
LINE
8
BLACK
6
CONTINUOUS
10
0.0713713
20
0.109102
11
0.0764194
21
0.102051
0
LINE
8
BLACK
6
CONTINUOUS
10
0.0764194
20
0.102051
11
0.0865673
21
0.0904593
0
LINE
8
BLACK
6
CONTINUOUS
10
0.0865673
20
0.0904593
11
0.097798
21
0.0799131
0
LINE
8
BLACK
6
CONTINUOUS
10
0.097798
20
0.0799131
11
0.110004
21
0.070513
0
LINE
8
BLACK
6
CONTINUOUS
10
0.110004
20
0.070513
11
0.110107
21
0.070449
0
LINE
8
BLACK
6
CONTINUOUS
10
0.110107
20
0.070449
11
0.110107
21
0.0704489
0
LINE
8
BLACK
6
CONTINUOUS
10
0.110107
20
0.0704489
11
0.114791
21
0.067522
0
LINE
8
BLACK
6
CONTINUOUS
10
0.114791
20
0.067522
11
0.123069
21
0.0623489
0
LINE
8
BLACK
6
CONTINUOUS
10
0.123069
20
0.0623489
11
0.136869
21
0.0554988
0
LINE
8
BLACK
6
CONTINUOUS
10
0.136869
20
0.0554988
11
0.151271
21
0.050028
0
LINE
8
BLACK
6
CONTINUOUS
10
0.151271
20
0.050028
11
0.166138
21
0.0459886
0
LINE
8
BLACK
6
CONTINUOUS
10
0.166138
20
0.0459886
11
0.166258
21
0.0459683
0
LINE
8
BLACK
6
CONTINUOUS
10
0.166258
20
0.0459683
11
0.166258
21
0.0459683
0
LINE
8
BLACK
6
CONTINUOUS
10
0.166258
20
0.0459683
11
0.181209
21
0.0434395
0
LINE
8
BLACK
6
CONTINUOUS
10
0.181209
20
0.0434395
11
0.181209
21
0.0434395
0
LINE
8
BLACK
6
CONTINUOUS
10
0.181209
20
0.0434395
11
0.181329
21
0.0434193
0
LINE
8
BLACK
6
CONTINUOUS
10
0.181329
20
0.0434193
11
0.18145
21
0.0434108
0
LINE
8
BLACK
6
CONTINUOUS
10
0.18145
20
0.0434108
11
0.18145
21
0.0434108
0
LINE
8
BLACK
6
CONTINUOUS
10
0.18145
20
0.0434108
11
0.196577
21
0.042353
0
LINE
8
BLACK
6
CONTINUOUS
10
0.196577
20
0.042353
11
0.196577
21
0.042353
0
LINE
8
BLACK
6
CONTINUOUS
10
0.196577
20
0.042353
11
0.196698
21
0.0423446
0
LINE
8
BLACK
6
CONTINUOUS
10
0.196698
20
0.0423446
11
0.206681
21
0.0426235
0
LINE
8
BLACK
6
CONTINUOUS
10
0.206681
20
0.0426235
11
0.211977
21
0.0427714
0
LINE
8
BLACK
6
CONTINUOUS
10
0.211977
20
0.0427714
11
0.211977
21
0.0427714
0
LINE
8
BLACK
6
CONTINUOUS
10
0.211977
20
0.0427714
11
0.212098
21
0.0427748
0
LINE
8
BLACK
6
CONTINUOUS
10
0.212098
20
0.0427748
11
0.212218
21
0.04279
0
LINE
8
BLACK
6
CONTINUOUS
10
0.212218
20
0.04279
11
0.212218
21
0.04279
0
LINE
8
BLACK
6
CONTINUOUS
10
0.212218
20
0.04279
11
0.219533
21
0.0437141
0
LINE
8
BLACK
6
CONTINUOUS
10
0.219533
20
0.0437141
11
0.227383
21
0.0447057
0
LINE
8
BLACK
6
CONTINUOUS
10
0.227383
20
0.0447057
11
0.227501
21
0.0447326
0
LINE
8
BLACK
6
CONTINUOUS
10
0.227501
20
0.0447326
11
0.227501
21
0.0447326
0
LINE
8
BLACK
6
CONTINUOUS
10
0.227501
20
0.0447326
11
0.242288
21
0.0480921
0
LINE
8
BLACK
6
CONTINUOUS
10
0.242288
20
0.0480921
11
0.242288
21
0.0480922
0
LINE
8
BLACK
6
CONTINUOUS
10
0.242288
20
0.0480922
11
0.242406
21
0.0481189
0
LINE
8
BLACK
6
CONTINUOUS
10
0.242406
20
0.0481189
11
0.248145
21
0.050028
0
LINE
8
BLACK
6
CONTINUOUS
10
0.248145
20
0.050028
11
0.256909
21
0.0529436
0
LINE
8
BLACK
6
CONTINUOUS
10
0.256909
20
0.0529436
11
0.25691
21
0.0529437
0
LINE
8
BLACK
6
CONTINUOUS
10
0.25691
20
0.0529437
11
0.257025
21
0.0529819
0
LINE
8
BLACK
6
CONTINUOUS
10
0.257025
20
0.0529819
11
0.262581
21
0.0554557
0
LINE
8
BLACK
6
CONTINUOUS
10
0.262581
20
0.0554557
11
0.270989
21
0.0591991
0
LINE
8
BLACK
6
CONTINUOUS
10
0.270989
20
0.0591991
11
0.270989
21
0.0591992
0
LINE
8
BLACK
6
CONTINUOUS
10
0.270989
20
0.0591992
11
0.271099
21
0.0592482
0
LINE
8
BLACK
6
CONTINUOUS
10
0.271099
20
0.0592482
11
0.271204
21
0.0593079
0
LINE
8
BLACK
6
CONTINUOUS
10
0.271204
20
0.0593079
11
0.284389
21
0.0667983
0
LINE
8
BLACK
6
CONTINUOUS
10
0.284389
20
0.0667983
11
0.28439
21
0.0667984
0
LINE
8
BLACK
6
CONTINUOUS
10
0.28439
20
0.0667984
11
0.284494
21
0.066858
0
LINE
8
BLACK
6
CONTINUOUS
10
0.284494
20
0.066858
11
0.297084
21
0.0757386
0
LINE
8
BLACK
6
CONTINUOUS
10
0.297084
20
0.0757386
11
0.308746
21
0.0858054
0
LINE
8
BLACK
6
CONTINUOUS
10
0.308746
20
0.0858054
11
0.30883
21
0.085893
0
LINE
8
BLACK
6
CONTINUOUS
10
0.30883
20
0.085893
11
0.30883
21
0.0858933
0
LINE
8
BLACK
6
CONTINUOUS
10
0.30883
20
0.0858933
11
0.319287
21
0.0968746
0
LINE
8
BLACK
6
CONTINUOUS
10
0.319287
20
0.0968746
11
0.319371
21
0.0969621
0
LINE
8
BLACK
6
CONTINUOUS
10
0.319371
20
0.0969621
11
0.323275
21
0.10196
0
LINE
8
BLACK
6
CONTINUOUS
10
0.323275
20
0.10196
11
0.32878
21
0.109006
0
LINE
8
BLACK
6
CONTINUOUS
10
0.32878
20
0.109006
11
0.32878
21
0.109006
0
LINE
8
BLACK
6
CONTINUOUS
10
0.32878
20
0.109006
11
0.328856
21
0.109102
0
LINE
8
BLACK
6
CONTINUOUS
10
0.328856
20
0.109102
11
0.328921
21
0.109205
0
LINE
8
BLACK
6
CONTINUOUS
10
0.328921
20
0.109205
11
0.328921
21
0.109205
0
LINE
8
BLACK
6
CONTINUOUS
10
0.328921
20
0.109205
11
0.337046
21
0.122008
0
LINE
8
BLACK
6
CONTINUOUS
10
0.337046
20
0.122008
11
0.337046
21
0.122008
0
LINE
8
BLACK
6
CONTINUOUS
10
0.337046
20
0.122008
11
0.337111
21
0.12211
0
LINE
8
BLACK
6
CONTINUOUS
10
0.337111
20
0.12211
11
0.344057
21
0.135862
0
LINE
8
BLACK
6
CONTINUOUS
10
0.344057
20
0.135862
11
0.349628
21
0.150225
0
LINE
8
BLACK
6
CONTINUOUS
10
0.349628
20
0.150225
11
0.353771
21
0.165064
0
LINE
8
BLACK
6
CONTINUOUS
10
0.353771
20
0.165064
11
0.356447
21
0.180236
0
LINE
8
BLACK
6
CONTINUOUS
10
0.356447
20
0.180236
11
0.356952
21
0.186805
0
LINE
8
BLACK
6
CONTINUOUS
10
0.356952
20
0.186805
11
0.357623
21
0.19552
0
LINE
8
BLACK
6
CONTINUOUS
10
0.357623
20
0.19552
11
0.357623
21
0.195521
0
LINE
8
BLACK
6
CONTINUOUS
10
0.357623
20
0.195521
11
0.357628
21
0.195597
0
LINE
8
BLACK
6
CONTINUOUS
10
0.357628
20
0.195597
11
0.35769
21
0.2
0
LINE
8
BLACK
6
CONTINUOUS
10
0.35769
20
0.2
11
0.357582
21
0.202202
0
LINE
8
BLACK
6
CONTINUOUS
10
0.357582
20
0.202202
11
0.356937
21
0.215388
0
LINE
8
BLACK
6
CONTINUOUS
10
0.356937
20
0.215388
11
0.354687
21
0.230629
0
LINE
8
BLACK
6
CONTINUOUS
10
0.354687
20
0.230629
11
0.35096
21
0.245577
0
LINE
8
BLACK
6
CONTINUOUS
10
0.35096
20
0.245577
11
0.345792
21
0.260091
0
LINE
8
BLACK
6
CONTINUOUS
10
0.345792
20
0.260091
11
0.339232
21
0.274031
0
LINE
8
BLACK
6
CONTINUOUS
10
0.339232
20
0.274031
11
0.338077
21
0.275968
0
LINE
8
BLACK
6
CONTINUOUS
10
0.338077
20
0.275968
11
0.331406
21
0.28716
0
LINE
8
BLACK
6
CONTINUOUS
10
0.331406
20
0.28716
11
0.331343
21
0.287264
0
LINE
8
BLACK
6
CONTINUOUS
10
0.331343
20
0.287264
11
0.322201
21
0.299665
0
LINE
8
BLACK
6
CONTINUOUS
10
0.322201
20
0.299665
11
0.311892
21
0.311114
0
LINE
8
BLACK
6
CONTINUOUS
10
0.311892
20
0.311114
11
0.300515
21
0.321502
0
LINE
8
BLACK
6
CONTINUOUS
10
0.300515
20
0.321502
11
0.288179
21
0.330731
0
LINE
8
BLACK
6
CONTINUOUS
10
0.288179
20
0.330731
11
0.286066
21
0.332011
0
LINE
8
BLACK
6
CONTINUOUS
10
0.286066
20
0.332011
11
0.275105
21
0.338649
0
LINE
8
BLACK
6
CONTINUOUS
10
0.275105
20
0.338649
11
0.275104
21
0.338649
0
LINE
8
BLACK
6
CONTINUOUS
10
0.275104
20
0.338649
11
0.275001
21
0.338712
0
LINE
8
BLACK
6
CONTINUOUS
10
0.275001
20
0.338712
11
0.261107
21
0.345369
0
LINE
8
BLACK
6
CONTINUOUS
10
0.261107
20
0.345369
11
0.260994
21
0.34541
0
LINE
8
BLACK
6
CONTINUOUS
10
0.260994
20
0.34541
11
0.260993
21
0.34541
0
LINE
8
BLACK
6
CONTINUOUS
10
0.260993
20
0.34541
11
0.246744
21
0.350596
0
LINE
8
BLACK
6
CONTINUOUS
10
0.246744
20
0.350596
11
0.246744
21
0.350596
0
LINE
8
BLACK
6
CONTINUOUS
10
0.246744
20
0.350596
11
0.24663
21
0.350638
0
LINE
8
BLACK
6
CONTINUOUS
10
0.24663
20
0.350638
11
0.235721
21
0.353439
0
LINE
8
BLACK
6
CONTINUOUS
10
0.235721
20
0.353439
11
0.231825
21
0.354439
0
LINE
8
BLACK
6
CONTINUOUS
10
0.231825
20
0.354439
11
0.231825
21
0.354439
0
LINE
8
BLACK
6
CONTINUOUS
10
0.231825
20
0.354439
11
0.231708
21
0.354469
0
LINE
8
BLACK
6
CONTINUOUS
10
0.231708
20
0.354469
11
0.216483
21
0.356826
0
LINE
8
BLACK
6
CONTINUOUS
10
0.216483
20
0.356826
11
0.216363
21
0.356833
0
LINE
8
BLACK
6
CONTINUOUS
10
0.216363
20
0.356833
11
0.216363
21
0.356833
0
LINE
8
BLACK
6
CONTINUOUS
10
0.216363
20
0.356833
11
0.215162
21
0.3569
0
LINE
8
BLACK
6
CONTINUOUS
10
0.215162
20
0.3569
11
0.201101
21
0.357686
0
LINE
8
BLACK
6
CONTINUOUS
10
0.201101
20
0.357686
11
0.20098
21
0.357681
0
LINE
8
BLACK
6
CONTINUOUS
10
0.20098
20
0.357681
11
0.20098
21
0.357681
0
LINE
8
BLACK
6
CONTINUOUS
10
0.20098
20
0.357681
11
0.190896
21
0.357258
0
LINE
8
BLACK
6
CONTINUOUS
10
0.190896
20
0.357258
11
0.185708
21
0.357041
0
LINE
8
BLACK
6
CONTINUOUS
10
0.185708
20
0.357041
11
0.185588
21
0.357024
0
LINE
8
BLACK
6
CONTINUOUS
10
0.185588
20
0.357024
11
0.185588
21
0.357024
0
LINE
8
BLACK
6
CONTINUOUS
10
0.185588
20
0.357024
11
0.184227
21
0.356833
0
LINE
8
BLACK
6
CONTINUOUS
10
0.184227
20
0.356833
11
0.170452
21
0.354897
0
LINE
8
BLACK
6
CONTINUOUS
10
0.170452
20
0.354897
11
0.155478
21
0.351274
0
LINE
8
BLACK
6
CONTINUOUS
10
0.155478
20
0.351274
11
0.140928
21
0.346208
0
LINE
8
BLACK
6
CONTINUOUS
10
0.140928
20
0.346208
11
0.140818
21
0.346157
0
LINE
8
BLACK
6
CONTINUOUS
10
0.140818
20
0.346157
11
0.127053
21
0.339796
0
LINE
8
BLACK
6
CONTINUOUS
10
0.127053
20
0.339796
11
0.127053
21
0.339796
0
LINE
8
BLACK
6
CONTINUOUS
10
0.127053
20
0.339796
11
0.126943
21
0.339745
0
LINE
8
BLACK
6
CONTINUOUS
10
0.126943
20
0.339745
11
0.12267
21
0.337239
0
LINE
8
BLACK
6
CONTINUOUS
10
0.12267
20
0.337239
11
0.113759
21
0.332011
0
LINE
8
BLACK
6
CONTINUOUS
10
0.113759
20
0.332011
11
0.113759
21
0.332011
0
LINE
8
BLACK
6
CONTINUOUS
10
0.113759
20
0.332011
11
0.113655
21
0.331949
0
LINE
8
BLACK
6
CONTINUOUS
10
0.113655
20
0.331949
11
0.112064
21
0.330794
0
LINE
8
BLACK
6
CONTINUOUS
10
0.112064
20
0.330794
11
0.101289
21
0.322965
0
LINE
8
BLACK
6
CONTINUOUS
10
0.101289
20
0.322965
11
0.101288
21
0.322965
0
LINE
8
BLACK
6
CONTINUOUS
10
0.101288
20
0.322965
11
0.101191
21
0.322894
0
LINE
8
BLACK
6
CONTINUOUS
10
0.101191
20
0.322894
11
0.101101
21
0.322814
0
LINE
8
BLACK
6
CONTINUOUS
10
0.101101
20
0.322814
11
0.1011
21
0.322814
0
LINE
8
BLACK
6
CONTINUOUS
10
0.1011
20
0.322814
11
0.0897608
21
0.312746
0
LINE
8
BLACK
6
CONTINUOUS
10
0.0897608
20
0.312746
11
0.0896701
21
0.312665
0
LINE
8
BLACK
6
CONTINUOUS
10
0.0896701
20
0.312665
11
0.0792025
21
0.301361
0
LINE
8
BLACK
6
CONTINUOUS
10
0.0792025
20
0.301361
11
0.0698879
21
0.28909
0
LINE
8
BLACK
6
CONTINUOUS
10
0.0698879
20
0.28909
11
0.0618152
21
0.275968
0
LINE
8
BLACK
6
CONTINUOUS
10
0.0618152
20
0.275968
11
0.0550616
21
0.262121
0
LINE
8
BLACK
6
CONTINUOUS
10
0.0550616
20
0.262121
11
0.0496914
21
0.247681
0
LINE
8
BLACK
6
CONTINUOUS
10
0.0496914
20
0.247681
11
0.0457559
21
0.232786
0
LINE
8
BLACK
6
CONTINUOUS
10
0.0457559
20
0.232786
11
0.0432928
21
0.217578
0
LINE
8
BLACK
6
CONTINUOUS
10
0.0432928
20
0.217578
11
0.0423254
21
0.202202
0
LINE
8
BLACK
6
CONTINUOUS
10
0.0423254
20
0.202202
11
0.0428631
21
0.186805
0
LINE
8
BLACK
6
CONTINUOUS
10
0.0428631
20
0.186805
11
0.0449007
21
0.171534
0
LINE
8
BLACK
6
CONTINUOUS
10
0.0584431
20
0.951871
11
0.0584431
21
0.951871
0
LINE
8
BLACK
6
CONTINUOUS
10
0.0584431
20
0.951871
11
0.0593406
21
0.94985
0
LINE
8
BLACK
6
CONTINUOUS
10
0.0593406
20
0.94985
11
0.0600811
21
0.948183
0
LINE
8
BLACK
6
CONTINUOUS
10
0.0600811
20
0.948183
11
0.0632003
21
0.945069
0
LINE
8
BLACK
6
CONTINUOUS
10
0.0632003
20
0.945069
11
0.0636191
21
0.944884
0
LINE
8
BLACK
6
CONTINUOUS
10
0.0636191
20
0.944884
11
0.0636191
21
0.944884
0
LINE
8
BLACK
6
CONTINUOUS
10
0.0636191
20
0.944884
11
0.0643118
21
0.944578
0
LINE
8
BLACK
6
CONTINUOUS
10
0.0643118
20
0.944578
11
0.0672312
21
0.943287
0
LINE
8
BLACK
6
CONTINUOUS
10
0.0672312
20
0.943287
11
0.0682423
21
0.943169
0
LINE
8
BLACK
6
CONTINUOUS
10
0.0682423
20
0.943169
11
0.131758
21
0.943169
0
LINE
8
BLACK
6
CONTINUOUS
10
0.131758
20
0.943169
11
0.131904
21
0.943187
0
LINE
8
BLACK
6
CONTINUOUS
10
0.131904
20
0.943187
11
0.131904
21
0.943187
0
LINE
8
BLACK
6
CONTINUOUS
10
0.131904
20
0.943187
11
0.132195
21
0.943221
0
LINE
8
BLACK
6
CONTINUOUS
10
0.132195
20
0.943221
11
0.132789
21
0.943292
0
LINE
8
BLACK
6
CONTINUOUS
10
0.132789
20
0.943292
11
0.13353
21
0.943621
0
LINE
8
BLACK
6
CONTINUOUS
10
0.13353
20
0.943621
11
0.136398
21
0.944895
0
LINE
8
BLACK
6
CONTINUOUS
10
0.136398
20
0.944895
11
0.136817
21
0.945081
0
LINE
8
BLACK
6
CONTINUOUS
10
0.136817
20
0.945081
11
0.137395
21
0.94566
0
LINE
8
BLACK
6
CONTINUOUS
10
0.137395
20
0.94566
11
0.139607
21
0.947876
0
LINE
8
BLACK
6
CONTINUOUS
10
0.139607
20
0.947876
11
0.139931
21
0.9482
0
LINE
8
BLACK
6
CONTINUOUS
10
0.139931
20
0.9482
11
0.14066
21
0.94985
0
LINE
8
BLACK
6
CONTINUOUS
10
0.14066
20
0.94985
11
0.141562
21
0.95189
0
LINE
8
BLACK
6
CONTINUOUS
10
0.141562
20
0.95189
11
0.141713
21
0.952231
0
LINE
8
BLACK
6
CONTINUOUS
10
0.141713
20
0.952231
11
0.141831
21
0.953242
0
LINE
8
BLACK
6
CONTINUOUS
10
0.141831
20
0.953242
11
0.141831
21
0.959665
0
LINE
8
BLACK
6
CONTINUOUS
10
0.141831
20
0.959665
11
0.142618
21
0.962347
0
LINE
8
BLACK
6
CONTINUOUS
10
0.142618
20
0.962347
11
0.144731
21
0.964178
0
LINE
8
BLACK
6
CONTINUOUS
10
0.144731
20
0.964178
11
0.146791
21
0.964626
0
LINE
8
BLACK
6
CONTINUOUS
10
0.146791
20
0.964626
11
0.18561
21
0.964626
0
LINE
8
BLACK
6
CONTINUOUS
10
0.18561
20
0.964626
11
0.188292
21
0.963839
0
LINE
8
BLACK
6
CONTINUOUS
10
0.188292
20
0.963839
11
0.190123
21
0.961726
0
LINE
8
BLACK
6
CONTINUOUS
10
0.190123
20
0.961726
11
0.190571
21
0.959665
0
LINE
8
BLACK
6
CONTINUOUS
10
0.190571
20
0.959665
11
0.190571
21
0.953833
0
LINE
8
BLACK
6
CONTINUOUS
10
0.190571
20
0.953833
11
0.190694
21
0.952801
0
LINE
8
BLACK
6
CONTINUOUS
10
0.190694
20
0.952801
11
0.190845
21
0.952461
0
LINE
8
BLACK
6
CONTINUOUS
10
0.190845
20
0.952461
11
0.190845
21
0.952461
0
LINE
8
BLACK
6
CONTINUOUS
10
0.190845
20
0.952461
11
0.192256
21
0.949285
0
LINE
8
BLACK
6
CONTINUOUS
10
0.192256
20
0.949285
11
0.192483
21
0.948774
0
LINE
8
BLACK
6
CONTINUOUS
10
0.192483
20
0.948774
11
0.192807
21
0.94845
0
LINE
8
BLACK
6
CONTINUOUS
10
0.192807
20
0.94845
11
0.192807
21
0.94845
0
LINE
8
BLACK
6
CONTINUOUS
10
0.192807
20
0.94845
11
0.193416
21
0.947842
0
LINE
8
BLACK
6
CONTINUOUS
10
0.193416
20
0.947842
11
0.195602
21
0.94566
0
LINE
8
BLACK
6
CONTINUOUS
10
0.195602
20
0.94566
11
0.196021
21
0.945475
0
LINE
8
BLACK
6
CONTINUOUS
10
0.196021
20
0.945475
11
0.196021
21
0.945475
0
LINE
8
BLACK
6
CONTINUOUS
10
0.196021
20
0.945475
11
0.197832
21
0.944674
0
LINE
8
BLACK
6
CONTINUOUS
10
0.197832
20
0.944674
11
0.199633
21
0.943878
0
LINE
8
BLACK
6
CONTINUOUS
10
0.199633
20
0.943878
11
0.200644
21
0.94376
0
LINE
8
BLACK
6
CONTINUOUS
10
0.200644
20
0.94376
11
0.22975
21
0.94376
0
LINE
8
BLACK
6
CONTINUOUS
10
0.22975
20
0.94376
11
0.229896
21
0.943777
0
LINE
8
BLACK
6
CONTINUOUS
10
0.229896
20
0.943777
11
0.229896
21
0.943777
0
LINE
8
BLACK
6
CONTINUOUS
10
0.229896
20
0.943777
11
0.230187
21
0.943812
0
LINE
8
BLACK
6
CONTINUOUS
10
0.230187
20
0.943812
11
0.230781
21
0.943883
0
LINE
8
BLACK
6
CONTINUOUS
10
0.230781
20
0.943883
11
0.232347
21
0.944578
0
LINE
8
BLACK
6
CONTINUOUS
10
0.232347
20
0.944578
11
0.23439
21
0.945486
0
LINE
8
BLACK
6
CONTINUOUS
10
0.23439
20
0.945486
11
0.234809
21
0.945672
0
LINE
8
BLACK
6
CONTINUOUS
10
0.234809
20
0.945672
11
0.23514
21
0.946003
0
LINE
8
BLACK
6
CONTINUOUS
10
0.23514
20
0.946003
11
0.237183
21
0.94805
0
LINE
8
BLACK
6
CONTINUOUS
10
0.237183
20
0.94805
11
0.237923
21
0.948791
0
LINE
8
BLACK
6
CONTINUOUS
10
0.237923
20
0.948791
11
0.239705
21
0.952822
0
LINE
8
BLACK
6
CONTINUOUS
10
0.239705
20
0.952822
11
0.239823
21
0.953833
0
LINE
8
BLACK
6
CONTINUOUS
10
0.239823
20
0.953833
11
0.239823
21
1.01877
0
LINE
8
BLACK
6
CONTINUOUS
10
0.239823
20
1.01877
11
0.2397
21
1.0198
0
LINE
8
BLACK
6
CONTINUOUS
10
0.2397
20
1.0198
11
0.238997
21
1.02138
0
LINE
8
BLACK
6
CONTINUOUS
10
0.238997
20
1.02138
11
0.238097
21
1.02341
0
LINE
8
BLACK
6
CONTINUOUS
10
0.238097
20
1.02341
11
0.237911
21
1.02382
0
LINE
8
BLACK
6
CONTINUOUS
10
0.237911
20
1.02382
11
0.234792
21
1.02694
0
LINE
8
BLACK
6
CONTINUOUS
10
0.234792
20
1.02694
11
0.234373
21
1.02712
0
LINE
8
BLACK
6
CONTINUOUS
10
0.234373
20
1.02712
11
0.234373
21
1.02712
0
LINE
8
BLACK
6
CONTINUOUS
10
0.234373
20
1.02712
11
0.231938
21
1.0282
0
LINE
8
BLACK
6
CONTINUOUS
10
0.231938
20
1.0282
11
0.230761
21
1.02872
0
LINE
8
BLACK
6
CONTINUOUS
10
0.230761
20
1.02872
11
0.22975
21
1.02884
0
LINE
8
BLACK
6
CONTINUOUS
10
0.22975
20
1.02884
11
0.200644
21
1.02884
0
LINE
8
BLACK
6
CONTINUOUS
10
0.200644
20
1.02884
11
0.200498
21
1.02882
0
LINE
8
BLACK
6
CONTINUOUS
10
0.200498
20
1.02882
11
0.200498
21
1.02882
0
LINE
8
BLACK
6
CONTINUOUS
10
0.200498
20
1.02882
11
0.200207
21
1.02879
0
LINE
8
BLACK
6
CONTINUOUS
10
0.200207
20
1.02879
11
0.199612
21
1.02872
0
LINE
8
BLACK
6
CONTINUOUS
10
0.199612
20
1.02872
11
0.199272
21
1.02856
0
LINE
8
BLACK
6
CONTINUOUS
10
0.199272
20
1.02856
11
0.199272
21
1.02856
0
LINE
8
BLACK
6
CONTINUOUS
10
0.199272
20
1.02856
11
0.196028
21
1.02712
0
LINE
8
BLACK
6
CONTINUOUS
10
0.196028
20
1.02712
11
0.195585
21
1.02693
0
LINE
8
BLACK
6
CONTINUOUS
10
0.195585
20
1.02693
11
0.192471
21
1.02381
0
LINE
8
BLACK
6
CONTINUOUS
10
0.192471
20
1.02381
11
0.192286
21
1.02339
0
LINE
8
BLACK
6
CONTINUOUS
10
0.192286
20
1.02339
11
0.192286
21
1.02339
0
LINE
8
BLACK
6
CONTINUOUS
10
0.192286
20
1.02339
11
0.192095
21
1.02296
0
LINE
8
BLACK
6
CONTINUOUS
10
0.192095
20
1.02296
11
0.190689
21
1.01978
0
LINE
8
BLACK
6
CONTINUOUS
10
0.190689
20
1.01978
11
0.190571
21
1.01877
0
LINE
8
BLACK
6
CONTINUOUS
10
0.190571
20
1.01877
11
0.190571
21
1.01293
0
LINE
8
BLACK
6
CONTINUOUS
10
0.190571
20
1.01293
11
0.189783
21
1.01025
0
LINE
8
BLACK
6
CONTINUOUS
10
0.189783
20
1.01025
11
0.187671
21
1.00842
0
LINE
8
BLACK
6
CONTINUOUS
10
0.187671
20
1.00842
11
0.18561
21
1.00797
0
LINE
8
BLACK
6
CONTINUOUS
10
0.18561
20
1.00797
11
0.161634
21
1.00797
0
LINE
8
BLACK
6
CONTINUOUS
10
0.161634
20
1.00797
11
0.158952
21
1.00876
0
LINE
8
BLACK
6
CONTINUOUS
10
0.158952
20
1.00876
11
0.157121
21
1.01087
0
LINE
8
BLACK
6
CONTINUOUS
10
0.157121
20
1.01087
11
0.156673
21
1.01293
0
LINE
8
BLACK
6
CONTINUOUS
10
0.156673
20
1.01293
11
0.156673
21
1.05821
0
LINE
8
BLACK
6
CONTINUOUS
10
0.156673
20
1.05821
11
0.157461
21
1.06089
0
LINE
8
BLACK
6
CONTINUOUS
10
0.157461
20
1.06089
11
0.159573
21
1.06272
0
LINE
8
BLACK
6
CONTINUOUS
10
0.159573
20
1.06272
11
0.161634
21
1.06317
0
LINE
8
BLACK
6
CONTINUOUS
10
0.161634
20
1.06317
11
0.164258
21
1.06317
0
LINE
8
BLACK
6
CONTINUOUS
10
0.164258
20
1.06317
11
0.164404
21
1.06319
0
LINE
8
BLACK
6
CONTINUOUS
10
0.164404
20
1.06319
11
0.164404
21
1.06319
0
LINE
8
BLACK
6
CONTINUOUS
10
0.164404
20
1.06319
11
0.164695
21
1.06322
0
LINE
8
BLACK
6
CONTINUOUS
10
0.164695
20
1.06322
11
0.165289
21
1.06329
0
LINE
8
BLACK
6
CONTINUOUS
10
0.165289
20
1.06329
11
0.169317
21
1.06508
0
LINE
8
BLACK
6
CONTINUOUS
10
0.169317
20
1.06508
11
0.172431
21
1.0682
0
LINE
8
BLACK
6
CONTINUOUS
10
0.172431
20
1.0682
11
0.174213
21
1.07223
0
LINE
8
BLACK
6
CONTINUOUS
10
0.174213
20
1.07223
11
0.174331
21
1.07324
0
LINE
8
BLACK
6
CONTINUOUS
10
0.174331
20
1.07324
11
0.174331
21
1.11176
0
LINE
8
BLACK
6
CONTINUOUS
10
0.174331
20
1.11176
11
0.174208
21
1.11279
0
LINE
8
BLACK
6
CONTINUOUS
10
0.174208
20
1.11279
11
0.173059
21
1.11538
0
LINE
8
BLACK
6
CONTINUOUS
10
0.173059
20
1.11538
11
0.172605
21
1.1164
0
LINE
8
BLACK
6
CONTINUOUS
10
0.172605
20
1.1164
11
0.172419
21
1.11682
0
LINE
8
BLACK
6
CONTINUOUS
10
0.172419
20
1.11682
11
0.1693
21
1.11993
0
LINE
8
BLACK
6
CONTINUOUS
10
0.1693
20
1.11993
11
0.168881
21
1.12012
0
LINE
8
BLACK
6
CONTINUOUS
10
0.168881
20
1.12012
11
0.168881
21
1.12012
0
LINE
8
BLACK
6
CONTINUOUS
10
0.168881
20
1.12012
11
0.166537
21
1.12115
0
LINE
8
BLACK
6
CONTINUOUS
10
0.166537
20
1.12115
11
0.165269
21
1.12171
0
LINE
8
BLACK
6
CONTINUOUS
10
0.165269
20
1.12171
11
0.164258
21
1.12183
0
LINE
8
BLACK
6
CONTINUOUS
10
0.164258
20
1.12183
11
0.105742
21
1.12183
0
LINE
8
BLACK
6
CONTINUOUS
10
0.105742
20
1.12183
11
0.105596
21
1.12181
0
LINE
8
BLACK
6
CONTINUOUS
10
0.105596
20
1.12181
11
0.105596
21
1.12181
0
LINE
8
BLACK
6
CONTINUOUS
10
0.105596
20
1.12181
11
0.105305
21
1.12178
0
LINE
8
BLACK
6
CONTINUOUS
10
0.105305
20
1.12178
11
0.104711
21
1.12171
0
LINE
8
BLACK
6
CONTINUOUS
10
0.104711
20
1.12171
11
0.100683
21
1.11992
0
LINE
8
BLACK
6
CONTINUOUS
10
0.100683
20
1.11992
11
0.0975693
21
1.1168
0
LINE
8
BLACK
6
CONTINUOUS
10
0.0975693
20
1.1168
11
0.0957872
21
1.11277
0
LINE
8
BLACK
6
CONTINUOUS
10
0.0957872
20
1.11277
11
0.0956693
21
1.11176
0
LINE
8
BLACK
6
CONTINUOUS
10
0.0956693
20
1.11176
11
0.0956693
21
1.07324
0
LINE
8
BLACK
6
CONTINUOUS
10
0.0956693
20
1.07324
11
0.095792
21
1.07221
0
LINE
8
BLACK
6
CONTINUOUS
10
0.095792
20
1.07221
11
0.0975811
21
1.06818
0
LINE
8
BLACK
6
CONTINUOUS
10
0.0975811
20
1.06818
11
0.1007
21
1.06507
0
LINE
8
BLACK
6
CONTINUOUS
10
0.1007
20
1.06507
11
0.101119
21
1.06488
0
LINE
8
BLACK
6
CONTINUOUS
10
0.101119
20
1.06488
11
0.101119
21
1.06488
0
LINE
8
BLACK
6
CONTINUOUS
10
0.101119
20
1.06488
11
0.103463
21
1.06385
0
LINE
8
BLACK
6
CONTINUOUS
10
0.103463
20
1.06385
11
0.104731
21
1.06329
0
LINE
8
BLACK
6
CONTINUOUS
10
0.104731
20
1.06329
11
0.105742
21
1.06317
0
LINE
8
BLACK
6
CONTINUOUS
10
0.105742
20
1.06317
11
0.108366
21
1.06317
0
LINE
8
BLACK
6
CONTINUOUS
10
0.108366
20
1.06317
11
0.111048
21
1.06238
0
LINE
8
BLACK
6
CONTINUOUS
10
0.111048
20
1.06238
11
0.112879
21
1.06027
0
LINE
8
BLACK
6
CONTINUOUS
10
0.112879
20
1.06027
11
0.113327
21
1.05821
0
LINE
8
BLACK
6
CONTINUOUS
10
0.113327
20
1.05821
11
0.113327
21
1.03179
0
LINE
8
BLACK
6
CONTINUOUS
10
0.113327
20
1.03179
11
0.112539
21
1.02911
0
LINE
8
BLACK
6
CONTINUOUS
10
0.112539
20
1.02911
11
0.110427
21
1.02728
0
LINE
8
BLACK
6
CONTINUOUS
10
0.110427
20
1.02728
11
0.108366
21
1.02683
0
LINE
8
BLACK
6
CONTINUOUS
10
0.108366
20
1.02683
11
0.0682423
21
1.02683
0
LINE
8
BLACK
6
CONTINUOUS
10
0.0682423
20
1.02683
11
0.0680965
21
1.02681
0
LINE
8
BLACK
6
CONTINUOUS
10
0.0680965
20
1.02681
11
0.0680963
21
1.02681
0
LINE
8
BLACK
6
CONTINUOUS
10
0.0680963
20
1.02681
11
0.0678053
21
1.02678
0
LINE
8
BLACK
6
CONTINUOUS
10
0.0678053
20
1.02678
11
0.0672108
21
1.02671
0
LINE
8
BLACK
6
CONTINUOUS
10
0.0672108
20
1.02671
11
0.063183
21
1.02492
0
LINE
8
BLACK
6
CONTINUOUS
10
0.063183
20
1.02492
11
0.0628594
21
1.02459
0
LINE
8
BLACK
6
CONTINUOUS
10
0.0628594
20
1.02459
11
0.0628593
21
1.02459
0
LINE
8
BLACK
6
CONTINUOUS
10
0.0628593
20
1.02459
11
0.0622144
21
1.02395
0
LINE
8
BLACK
6
CONTINUOUS
10
0.0622144
20
1.02395
11
0.0600693
21
1.0218
0
LINE
8
BLACK
6
CONTINUOUS
10
0.0600693
20
1.0218
11
0.0598841
21
1.02138
0
LINE
8
BLACK
6
CONTINUOUS
10
0.0598841
20
1.02138
11
0.0598841
21
1.02138
0
LINE
8
BLACK
6
CONTINUOUS
10
0.0598841
20
1.02138
11
0.0589339
21
1.01923
0
LINE
8
BLACK
6
CONTINUOUS
10
0.0589339
20
1.01923
11
0.0582872
21
1.01777
0
LINE
8
BLACK
6
CONTINUOUS
10
0.0582872
20
1.01777
11
0.0581693
21
1.01676
0
LINE
8
BLACK
6
CONTINUOUS
10
0.0581693
20
1.01676
11
0.0581693
21
0.953242
0
LINE
8
BLACK
6
CONTINUOUS
10
0.0581693
20
0.953242
11
0.058292
21
0.952211
0
LINE
8
BLACK
6
CONTINUOUS
10
0.058292
20
0.952211
11
0.0584431
21
0.951871
0
LINE
8
BLACK
6
CONTINUOUS
10
0.0809431
20
0.644371
11
0.0809431
21
0.644371
0
LINE
8
BLACK
6
CONTINUOUS
10
0.0809431
20
0.644371
11
0.0821907
21
0.641562
0
LINE
8
BLACK
6
CONTINUOUS
10
0.0821907
20
0.641562
11
0.0825811
21
0.640683
0
LINE
8
BLACK
6
CONTINUOUS
10
0.0825811
20
0.640683
11
0.0857003
21
0.637569
0
LINE
8
BLACK
6
CONTINUOUS
10
0.0857003
20
0.637569
11
0.0861191
21
0.637384
0
LINE
8
BLACK
6
CONTINUOUS
10
0.0861191
20
0.637384
11
0.0861191
21
0.637384
0
LINE
8
BLACK
6
CONTINUOUS
10
0.0861191
20
0.637384
11
0.0874017
21
0.636817
0
LINE
8
BLACK
6
CONTINUOUS
10
0.0874017
20
0.636817
11
0.0897312
21
0.635787
0
LINE
8
BLACK
6
CONTINUOUS
10
0.0897312
20
0.635787
11
0.0907423
21
0.635669
0
LINE
8
BLACK
6
CONTINUOUS
10
0.0907423
20
0.635669
11
0.149258
21
0.635669
0
LINE
8
BLACK
6
CONTINUOUS
10
0.149258
20
0.635669
11
0.149404
21
0.635687
0
LINE
8
BLACK
6
CONTINUOUS
10
0.149404
20
0.635687
11
0.149404
21
0.635687
0
LINE
8
BLACK
6
CONTINUOUS
10
0.149404
20
0.635687
11
0.149695
21
0.635721
0
LINE
8
BLACK
6
CONTINUOUS
10
0.149695
20
0.635721
11
0.150289
21
0.635792
0
LINE
8
BLACK
6
CONTINUOUS
10
0.150289
20
0.635792
11
0.151654
21
0.636398
0
LINE
8
BLACK
6
CONTINUOUS
10
0.151654
20
0.636398
11
0.153898
21
0.637395
0
LINE
8
BLACK
6
CONTINUOUS
10
0.153898
20
0.637395
11
0.154317
21
0.637581
0
LINE
8
BLACK
6
CONTINUOUS
10
0.154317
20
0.637581
11
0.154641
21
0.637905
0
LINE
8
BLACK
6
CONTINUOUS
10
0.154641
20
0.637905
11
0.157107
21
0.640376
0
LINE
8
BLACK
6
CONTINUOUS
10
0.157107
20
0.640376
11
0.157107
21
0.640376
0
LINE
8
BLACK
6
CONTINUOUS
10
0.157107
20
0.640376
11
0.157431
21
0.6407
0
LINE
8
BLACK
6
CONTINUOUS
10
0.157431
20
0.6407
11
0.157616
21
0.641119
0
LINE
8
BLACK
6
CONTINUOUS
10
0.157616
20
0.641119
11
0.15765
21
0.641169
0
LINE
8
BLACK
6
CONTINUOUS
10
0.15765
20
0.641169
11
0.159815
21
0.642937
0
LINE
8
BLACK
6
CONTINUOUS
10
0.159815
20
0.642937
11
0.161743
21
0.643327
0
LINE
8
BLACK
6
CONTINUOUS
10
0.161743
20
0.643327
11
0.168256
21
0.643327
0
LINE
8
BLACK
6
CONTINUOUS
10
0.168256
20
0.643327
11
0.170938
21
0.642539
0
LINE
8
BLACK
6
CONTINUOUS
10
0.170938
20
0.642539
11
0.172344
21
0.641176
0
LINE
8
BLACK
6
CONTINUOUS
10
0.172344
20
0.641176
11
0.172395
21
0.641101
0
LINE
8
BLACK
6
CONTINUOUS
10
0.172395
20
0.641101
11
0.172581
21
0.640683
0
LINE
8
BLACK
6
CONTINUOUS
10
0.172581
20
0.640683
11
0.1757
21
0.637569
0
LINE
8
BLACK
6
CONTINUOUS
10
0.1757
20
0.637569
11
0.176119
21
0.637384
0
LINE
8
BLACK
6
CONTINUOUS
10
0.176119
20
0.637384
11
0.176119
21
0.637384
0
LINE
8
BLACK
6
CONTINUOUS
10
0.176119
20
0.637384
11
0.177402
21
0.636817
0
LINE
8
BLACK
6
CONTINUOUS
10
0.177402
20
0.636817
11
0.179731
21
0.635787
0
LINE
8
BLACK
6
CONTINUOUS
10
0.179731
20
0.635787
11
0.180742
21
0.635669
0
LINE
8
BLACK
6
CONTINUOUS
10
0.180742
20
0.635669
11
0.239258
21
0.635669
0
LINE
8
BLACK
6
CONTINUOUS
10
0.239258
20
0.635669
11
0.239404
21
0.635687
0
LINE
8
BLACK
6
CONTINUOUS
10
0.239404
20
0.635687
11
0.239404
21
0.635687
0
LINE
8
BLACK
6
CONTINUOUS
10
0.239404
20
0.635687
11
0.239695
21
0.635721
0
LINE
8
BLACK
6
CONTINUOUS
10
0.239695
20
0.635721
11
0.240289
21
0.635792
0
LINE
8
BLACK
6
CONTINUOUS
10
0.240289
20
0.635792
11
0.241654
21
0.636398
0
LINE
8
BLACK
6
CONTINUOUS
10
0.241654
20
0.636398
11
0.243898
21
0.637395
0
LINE
8
BLACK
6
CONTINUOUS
10
0.243898
20
0.637395
11
0.244317
21
0.637581
0
LINE
8
BLACK
6
CONTINUOUS
10
0.244317
20
0.637581
11
0.247431
21
0.6407
0
LINE
8
BLACK
6
CONTINUOUS
10
0.247431
20
0.6407
11
0.247638
21
0.641169
0
LINE
8
BLACK
6
CONTINUOUS
10
0.247638
20
0.641169
11
0.249062
21
0.64439
0
LINE
8
BLACK
6
CONTINUOUS
10
0.249062
20
0.64439
11
0.249213
21
0.644731
0
LINE
8
BLACK
6
CONTINUOUS
10
0.249213
20
0.644731
11
0.249331
21
0.645742
0
LINE
8
BLACK
6
CONTINUOUS
10
0.249331
20
0.645742
11
0.249331
21
0.684258
0
LINE
8
BLACK
6
CONTINUOUS
10
0.249331
20
0.684258
11
0.249208
21
0.685289
0
LINE
8
BLACK
6
CONTINUOUS
10
0.249208
20
0.685289
11
0.248835
21
0.686129
0
LINE
8
BLACK
6
CONTINUOUS
10
0.248835
20
0.686129
11
0.247605
21
0.688898
0
LINE
8
BLACK
6
CONTINUOUS
10
0.247605
20
0.688898
11
0.247605
21
0.688898
0
LINE
8
BLACK
6
CONTINUOUS
10
0.247605
20
0.688898
11
0.247497
21
0.689141
0
LINE
8
BLACK
6
CONTINUOUS
10
0.247497
20
0.689141
11
0.247497
21
0.689141
0
LINE
8
BLACK
6
CONTINUOUS
10
0.247497
20
0.689141
11
0.247419
21
0.689317
0
LINE
8
BLACK
6
CONTINUOUS
10
0.247419
20
0.689317
11
0.24744
21
0.689326
0
LINE
8
BLACK
6
CONTINUOUS
10
0.24744
20
0.689326
11
0.246673
21
0.691794
0
LINE
8
BLACK
6
CONTINUOUS
10
0.246673
20
0.691794
11
0.246673
21
0.703256
0
LINE
8
BLACK
6
CONTINUOUS
10
0.246673
20
0.703256
11
0.247461
21
0.705938
0
LINE
8
BLACK
6
CONTINUOUS
10
0.247461
20
0.705938
11
0.248824
21
0.707344
0
LINE
8
BLACK
6
CONTINUOUS
10
0.248824
20
0.707344
11
0.248899
21
0.707395
0
LINE
8
BLACK
6
CONTINUOUS
10
0.248899
20
0.707395
11
0.249317
21
0.707581
0
LINE
8
BLACK
6
CONTINUOUS
10
0.249317
20
0.707581
11
0.252431
21
0.7107
0
LINE
8
BLACK
6
CONTINUOUS
10
0.252431
20
0.7107
11
0.254213
21
0.714731
0
LINE
8
BLACK
6
CONTINUOUS
10
0.254213
20
0.714731
11
0.254331
21
0.715742
0
LINE
8
BLACK
6
CONTINUOUS
10
0.254331
20
0.715742
11
0.254331
21
0.774258
0
LINE
8
BLACK
6
CONTINUOUS
10
0.254331
20
0.774258
11
0.254208
21
0.775289
0
LINE
8
BLACK
6
CONTINUOUS
10
0.254208
20
0.775289
11
0.252419
21
0.779317
0
LINE
8
BLACK
6
CONTINUOUS
10
0.252419
20
0.779317
11
0.2493
21
0.782431
0
LINE
8
BLACK
6
CONTINUOUS
10
0.2493
20
0.782431
11
0.248881
21
0.782616
0
LINE
8
BLACK
6
CONTINUOUS
10
0.248881
20
0.782616
11
0.248881
21
0.782616
0
LINE
8
BLACK
6
CONTINUOUS
10
0.248881
20
0.782616
11
0.24561
21
0.784062
0
LINE
8
BLACK
6
CONTINUOUS
10
0.24561
20
0.784062
11
0.24561
21
0.784062
0
LINE
8
BLACK
6
CONTINUOUS
10
0.24561
20
0.784062
11
0.245269
21
0.784213
0
LINE
8
BLACK
6
CONTINUOUS
10
0.245269
20
0.784213
11
0.244258
21
0.784331
0
LINE
8
BLACK
6
CONTINUOUS
10
0.244258
20
0.784331
11
0.241831
21
0.784331
0
LINE
8
BLACK
6
CONTINUOUS
10
0.241831
20
0.784331
11
0.239149
21
0.785118
0
LINE
8
BLACK
6
CONTINUOUS
10
0.239149
20
0.785118
11
0.237318
21
0.787231
0
LINE
8
BLACK
6
CONTINUOUS
10
0.237318
20
0.787231
11
0.23687
21
0.789291
0
LINE
8
BLACK
6
CONTINUOUS
10
0.23687
20
0.789291
11
0.23687
21
0.839567
0
LINE
8
BLACK
6
CONTINUOUS
10
0.23687
20
0.839567
11
0.237709
21
0.842278
0
LINE
8
BLACK
6
CONTINUOUS
10
0.237709
20
0.842278
11
0.237923
21
0.842492
0
LINE
8
BLACK
6
CONTINUOUS
10
0.237923
20
0.842492
11
0.239705
21
0.846523
0
LINE
8
BLACK
6
CONTINUOUS
10
0.239705
20
0.846523
11
0.239823
21
0.847534
0
LINE
8
BLACK
6
CONTINUOUS
10
0.239823
20
0.847534
11
0.239823
21
0.849291
0
LINE
8
BLACK
6
CONTINUOUS
10
0.239823
20
0.849291
11
0.239803
21
0.849291
0
LINE
8
BLACK
6
CONTINUOUS
10
0.239803
20
0.849291
11
0.239803
21
0.910709
0
LINE
8
BLACK
6
CONTINUOUS
10
0.239803
20
0.910709
11
0.239823
21
0.910709
0
LINE
8
BLACK
6
CONTINUOUS
10
0.239823
20
0.910709
11
0.239823
21
0.912466
0
LINE
8
BLACK
6
CONTINUOUS
10
0.239823
20
0.912466
11
0.2397
21
0.913498
0
LINE
8
BLACK
6
CONTINUOUS
10
0.2397
20
0.913498
11
0.237911
21
0.917526
0
LINE
8
BLACK
6
CONTINUOUS
10
0.237911
20
0.917526
11
0.234792
21
0.920639
0
LINE
8
BLACK
6
CONTINUOUS
10
0.234792
20
0.920639
11
0.234373
21
0.920825
0
LINE
8
BLACK
6
CONTINUOUS
10
0.234373
20
0.920825
11
0.234373
21
0.920825
0
LINE
8
BLACK
6
CONTINUOUS
10
0.234373
20
0.920825
11
0.231652
21
0.922028
0
LINE
8
BLACK
6
CONTINUOUS
10
0.231652
20
0.922028
11
0.230761
21
0.922421
0
LINE
8
BLACK
6
CONTINUOUS
10
0.230761
20
0.922421
11
0.22975
21
0.922539
0
LINE
8
BLACK
6
CONTINUOUS
10
0.22975
20
0.922539
11
0.200644
21
0.922539
0
LINE
8
BLACK
6
CONTINUOUS
10
0.200644
20
0.922539
11
0.200498
21
0.922522
0
LINE
8
BLACK
6
CONTINUOUS
10
0.200498
20
0.922522
11
0.200498
21
0.922522
0
LINE
8
BLACK
6
CONTINUOUS
10
0.200498
20
0.922522
11
0.200207
21
0.922487
0
LINE
8
BLACK
6
CONTINUOUS
10
0.200207
20
0.922487
11
0.199612
21
0.922417
0
LINE
8
BLACK
6
CONTINUOUS
10
0.199612
20
0.922417
11
0.199272
21
0.922266
0
LINE
8
BLACK
6
CONTINUOUS
10
0.199272
20
0.922266
11
0.199272
21
0.922266
0
LINE
8
BLACK
6
CONTINUOUS
10
0.199272
20
0.922266
11
0.198992
21
0.922141
0
LINE
8
BLACK
6
CONTINUOUS
10
0.198992
20
0.922141
11
0.195585
21
0.920628
0
LINE
8
BLACK
6
CONTINUOUS
10
0.195585
20
0.920628
11
0.192471
21
0.917508
0
LINE
8
BLACK
6
CONTINUOUS
10
0.192471
20
0.917508
11
0.190689
21
0.913477
0
LINE
8
BLACK
6
CONTINUOUS
10
0.190689
20
0.913477
11
0.190571
21
0.912466
0
LINE
8
BLACK
6
CONTINUOUS
10
0.190571
20
0.912466
11
0.190571
21
0.847534
0
LINE
8
BLACK
6
CONTINUOUS
10
0.190571
20
0.847534
11
0.190694
21
0.846502
0
LINE
8
BLACK
6
CONTINUOUS
10
0.190694
20
0.846502
11
0.192483
21
0.842474
0
LINE
8
BLACK
6
CONTINUOUS
10
0.192483
20
0.842474
11
0.192683
21
0.842274
0
LINE
8
BLACK
6
CONTINUOUS
10
0.192683
20
0.842274
11
0.193524
21
0.839568
0
LINE
8
BLACK
6
CONTINUOUS
10
0.193524
20
0.839568
11
0.193524
21
0.755393
0
LINE
8
BLACK
6
CONTINUOUS
10
0.193524
20
0.755393
11
0.193519
21
0.755186
0
LINE
8
BLACK
6
CONTINUOUS
10
0.193519
20
0.755186
11
0.193417
21
0.752744
0
LINE
8
BLACK
6
CONTINUOUS
10
0.193417
20
0.752744
11
0.193494
21
0.752415
0
LINE
8
BLACK
6
CONTINUOUS
10
0.193494
20
0.752415
11
0.193808
21
0.751076
0
LINE
8
BLACK
6
CONTINUOUS
10
0.193808
20
0.751076
11
0.193893
21
0.750617
0
LINE
8
BLACK
6
CONTINUOUS
10
0.193893
20
0.750617
11
0.194126
21
0.74892
0
LINE
8
BLACK
6
CONTINUOUS
10
0.194126
20
0.74892
11
0.19426
21
0.74861
0
LINE
8
BLACK
6
CONTINUOUS
10
0.19426
20
0.74861
11
0.19426
21
0.74861
0
LINE
8
BLACK
6
CONTINUOUS
10
0.19426
20
0.74861
11
0.194361
21
0.748377
0
LINE
8
BLACK
6
CONTINUOUS
10
0.194361
20
0.748377
11
0.194638
21
0.747539
0
LINE
8
BLACK
6
CONTINUOUS
10
0.194638
20
0.747539
11
0.194773
21
0.746963
0
LINE
8
BLACK
6
CONTINUOUS
10
0.194773
20
0.746963
11
0.194936
21
0.746667
0
LINE
8
BLACK
6
CONTINUOUS
10
0.194936
20
0.746667
11
0.194936
21
0.746667
0
LINE
8
BLACK
6
CONTINUOUS
10
0.194936
20
0.746667
11
0.195056
21
0.746449
0
LINE
8
BLACK
6
CONTINUOUS
10
0.195056
20
0.746449
11
0.195669
21
0.744059
0
LINE
8
BLACK
6
CONTINUOUS
10
0.195669
20
0.744059
11
0.195669
21
0.715742
0
LINE
8
BLACK
6
CONTINUOUS
10
0.195669
20
0.715742
11
0.195792
21
0.714711
0
LINE
8
BLACK
6
CONTINUOUS
10
0.195792
20
0.714711
11
0.197581
21
0.710683
0
LINE
8
BLACK
6
CONTINUOUS
10
0.197581
20
0.710683
11
0.197905
21
0.710359
0
LINE
8
BLACK
6
CONTINUOUS
10
0.197905
20
0.710359
11
0.197905
21
0.710359
0
LINE
8
BLACK
6
CONTINUOUS
10
0.197905
20
0.710359
11
0.200376
21
0.707893
0
LINE
8
BLACK
6
CONTINUOUS
10
0.200376
20
0.707893
11
0.200376
21
0.707893
0
LINE
8
BLACK
6
CONTINUOUS
10
0.200376
20
0.707893
11
0.2007
21
0.707569
0
LINE
8
BLACK
6
CONTINUOUS
10
0.2007
20
0.707569
11
0.201119
21
0.707384
0
LINE
8
BLACK
6
CONTINUOUS
10
0.201119
20
0.707384
11
0.201169
21
0.70735
0
LINE
8
BLACK
6
CONTINUOUS
10
0.201169
20
0.70735
11
0.202937
21
0.705185
0
LINE
8
BLACK
6
CONTINUOUS
10
0.202937
20
0.705185
11
0.203327
21
0.703257
0
LINE
8
BLACK
6
CONTINUOUS
10
0.203327
20
0.703257
11
0.203327
21
0.699291
0
LINE
8
BLACK
6
CONTINUOUS
10
0.203327
20
0.699291
11
0.202539
21
0.696609
0
LINE
8
BLACK
6
CONTINUOUS
10
0.202539
20
0.696609
11
0.200427
21
0.694779
0
LINE
8
BLACK
6
CONTINUOUS
10
0.200427
20
0.694779
11
0.198366
21
0.694331
0
LINE
8
BLACK
6
CONTINUOUS
10
0.198366
20
0.694331
11
0.180742
21
0.694331
0
LINE
8
BLACK
6
CONTINUOUS
10
0.180742
20
0.694331
11
0.180596
21
0.694313
0
LINE
8
BLACK
6
CONTINUOUS
10
0.180596
20
0.694313
11
0.180596
21
0.694313
0
LINE
8
BLACK
6
CONTINUOUS
10
0.180596
20
0.694313
11
0.180305
21
0.694279
0
LINE
8
BLACK
6
CONTINUOUS
10
0.180305
20
0.694279
11
0.179711
21
0.694208
0
LINE
8
BLACK
6
CONTINUOUS
10
0.179711
20
0.694208
11
0.175683
21
0.692419
0
LINE
8
BLACK
6
CONTINUOUS
10
0.175683
20
0.692419
11
0.175359
21
0.692095
0
LINE
8
BLACK
6
CONTINUOUS
10
0.175359
20
0.692095
11
0.175359
21
0.692095
0
LINE
8
BLACK
6
CONTINUOUS
10
0.175359
20
0.692095
11
0.172893
21
0.689624
0
LINE
8
BLACK
6
CONTINUOUS
10
0.172893
20
0.689624
11
0.172893
21
0.689624
0
LINE
8
BLACK
6
CONTINUOUS
10
0.172893
20
0.689624
11
0.172569
21
0.6893
0
LINE
8
BLACK
6
CONTINUOUS
10
0.172569
20
0.6893
11
0.172384
21
0.688881
0
LINE
8
BLACK
6
CONTINUOUS
10
0.172384
20
0.688881
11
0.17235
21
0.688831
0
LINE
8
BLACK
6
CONTINUOUS
10
0.17235
20
0.688831
11
0.170185
21
0.687063
0
LINE
8
BLACK
6
CONTINUOUS
10
0.170185
20
0.687063
11
0.168257
21
0.686673
0
LINE
8
BLACK
6
CONTINUOUS
10
0.168257
20
0.686673
11
0.161744
21
0.686673
0
LINE
8
BLACK
6
CONTINUOUS
10
0.161744
20
0.686673
11
0.159062
21
0.687461
0
LINE
8
BLACK
6
CONTINUOUS
10
0.159062
20
0.687461
11
0.157656
21
0.688824
0
LINE
8
BLACK
6
CONTINUOUS
10
0.157656
20
0.688824
11
0.157605
21
0.688899
0
LINE
8
BLACK
6
CONTINUOUS
10
0.157605
20
0.688899
11
0.157419
21
0.689317
0
LINE
8
BLACK
6
CONTINUOUS
10
0.157419
20
0.689317
11
0.1543
21
0.692431
0
LINE
8
BLACK
6
CONTINUOUS
10
0.1543
20
0.692431
11
0.153881
21
0.692616
0
LINE
8
BLACK
6
CONTINUOUS
10
0.153881
20
0.692616
11
0.153881
21
0.692616
0
LINE
8
BLACK
6
CONTINUOUS
10
0.153881
20
0.692616
11
0.151537
21
0.693652
0
LINE
8
BLACK
6
CONTINUOUS
10
0.151537
20
0.693652
11
0.150269
21
0.694213
0
LINE
8
BLACK
6
CONTINUOUS
10
0.150269
20
0.694213
11
0.149258
21
0.694331
0
LINE
8
BLACK
6
CONTINUOUS
10
0.149258
20
0.694331
11
0.0907423
21
0.694331
0
LINE
8
BLACK
6
CONTINUOUS
10
0.0907423
20
0.694331
11
0.0905965
21
0.694313
0
LINE
8
BLACK
6
CONTINUOUS
10
0.0905965
20
0.694313
11
0.0905963
21
0.694313
0
LINE
8
BLACK
6
CONTINUOUS
10
0.0905963
20
0.694313
11
0.0903053
21
0.694279
0
LINE
8
BLACK
6
CONTINUOUS
10
0.0903053
20
0.694279
11
0.0897108
21
0.694208
0
LINE
8
BLACK
6
CONTINUOUS
10
0.0897108
20
0.694208
11
0.085683
21
0.692419
0
LINE
8
BLACK
6
CONTINUOUS
10
0.085683
20
0.692419
11
0.0853594
21
0.692095
0
LINE
8
BLACK
6
CONTINUOUS
10
0.0853594
20
0.692095
11
0.0853593
21
0.692095
0
LINE
8
BLACK
6
CONTINUOUS
10
0.0853593
20
0.692095
11
0.0841198
21
0.690853
0
LINE
8
BLACK
6
CONTINUOUS
10
0.0841198
20
0.690853
11
0.0825693
21
0.6893
0
LINE
8
BLACK
6
CONTINUOUS
10
0.0825693
20
0.6893
11
0.0823841
21
0.688881
0
LINE
8
BLACK
6
CONTINUOUS
10
0.0823841
20
0.688881
11
0.0823841
21
0.688881
0
LINE
8
BLACK
6
CONTINUOUS
10
0.0823841
20
0.688881
11
0.082359
21
0.688824
0
LINE
8
BLACK
6
CONTINUOUS
10
0.082359
20
0.688824
11
0.0807872
21
0.685269
0
LINE
8
BLACK
6
CONTINUOUS
10
0.0807872
20
0.685269
11
0.0806693
21
0.684258
0
LINE
8
BLACK
6
CONTINUOUS
10
0.0806693
20
0.684258
11
0.0806693
21
0.645742
0
LINE
8
BLACK
6
CONTINUOUS
10
0.0806693
20
0.645742
11
0.080792
21
0.644711
0
LINE
8
BLACK
6
CONTINUOUS
10
0.080792
20
0.644711
11
0.0809431
21
0.644371
0
LINE
8
BLACK
6
CONTINUOUS
10
0.0959431
20
1.14687
11
0.0959431
21
1.14687
0
LINE
8
BLACK
6
CONTINUOUS
10
0.0959431
20
1.14687
11
0.0964898
21
1.14564
0
LINE
8
BLACK
6
CONTINUOUS
10
0.0964898
20
1.14564
11
0.0975811
21
1.14318
0
LINE
8
BLACK
6
CONTINUOUS
10
0.0975811
20
1.14318
11
0.1007
21
1.14007
0
LINE
8
BLACK
6
CONTINUOUS
10
0.1007
20
1.14007
11
0.101119
21
1.13988
0
LINE
8
BLACK
6
CONTINUOUS
10
0.101119
20
1.13988
11
0.101119
21
1.13988
0
LINE
8
BLACK
6
CONTINUOUS
10
0.101119
20
1.13988
11
0.103463
21
1.13885
0
LINE
8
BLACK
6
CONTINUOUS
10
0.103463
20
1.13885
11
0.104731
21
1.13829
0
LINE
8
BLACK
6
CONTINUOUS
10
0.104731
20
1.13829
11
0.105742
21
1.13817
0
LINE
8
BLACK
6
CONTINUOUS
10
0.105742
20
1.13817
11
0.164258
21
1.13817
0
LINE
8
BLACK
6
CONTINUOUS
10
0.164258
20
1.13817
11
0.164404
21
1.13819
0
LINE
8
BLACK
6
CONTINUOUS
10
0.164404
20
1.13819
11
0.164404
21
1.13819
0
LINE
8
BLACK
6
CONTINUOUS
10
0.164404
20
1.13819
11
0.164695
21
1.13822
0
LINE
8
BLACK
6
CONTINUOUS
10
0.164695
20
1.13822
11
0.165289
21
1.13829
0
LINE
8
BLACK
6
CONTINUOUS
10
0.165289
20
1.13829
11
0.169317
21
1.14008
0
LINE
8
BLACK
6
CONTINUOUS
10
0.169317
20
1.14008
11
0.171329
21
1.1421
0
LINE
8
BLACK
6
CONTINUOUS
10
0.171329
20
1.1421
11
0.172107
21
1.14288
0
LINE
8
BLACK
6
CONTINUOUS
10
0.172107
20
1.14288
11
0.172107
21
1.14288
0
LINE
8
BLACK
6
CONTINUOUS
10
0.172107
20
1.14288
11
0.172431
21
1.1432
0
LINE
8
BLACK
6
CONTINUOUS
10
0.172431
20
1.1432
11
0.172616
21
1.14362
0
LINE
8
BLACK
6
CONTINUOUS
10
0.172616
20
1.14362
11
0.17265
21
1.14367
0
LINE
8
BLACK
6
CONTINUOUS
10
0.17265
20
1.14367
11
0.174815
21
1.14544
0
LINE
8
BLACK
6
CONTINUOUS
10
0.174815
20
1.14544
11
0.176743
21
1.14583
0
LINE
8
BLACK
6
CONTINUOUS
10
0.176743
20
1.14583
11
0.246468
21
1.14583
0
LINE
8
BLACK
6
CONTINUOUS
10
0.246468
20
1.14583
11
0.24915
21
1.14504
0
LINE
8
BLACK
6
CONTINUOUS
10
0.24915
20
1.14504
11
0.249976
21
1.14437
0
LINE
8
BLACK
6
CONTINUOUS
10
0.249976
20
1.14437
11
0.276519
21
1.11783
0
LINE
8
BLACK
6
CONTINUOUS
10
0.276519
20
1.11783
11
0.277859
21
1.11538
0
LINE
8
BLACK
6
CONTINUOUS
10
0.277859
20
1.11538
11
0.277972
21
1.11432
0
LINE
8
BLACK
6
CONTINUOUS
10
0.277972
20
1.11432
11
0.277972
21
1.03704
0
LINE
8
BLACK
6
CONTINUOUS
10
0.277972
20
1.03704
11
0.277185
21
1.03435
0
LINE
8
BLACK
6
CONTINUOUS
10
0.277185
20
1.03435
11
0.276519
21
1.03353
0
LINE
8
BLACK
6
CONTINUOUS
10
0.276519
20
1.03353
11
0.267948
21
1.02496
0
LINE
8
BLACK
6
CONTINUOUS
10
0.267948
20
1.02496
11
0.267904
21
1.02491
0
LINE
8
BLACK
6
CONTINUOUS
10
0.267904
20
1.02491
11
0.267904
21
1.02491
0
LINE
8
BLACK
6
CONTINUOUS
10
0.267904
20
1.02491
11
0.267221
21
1.02415
0
LINE
8
BLACK
6
CONTINUOUS
10
0.267221
20
1.02415
11
0.267088
21
1.024
0
LINE
8
BLACK
6
CONTINUOUS
10
0.267088
20
1.024
11
0.266423
21
1.02317
0
LINE
8
BLACK
6
CONTINUOUS
10
0.266423
20
1.02317
11
0.265873
21
1.02212
0
LINE
8
BLACK
6
CONTINUOUS
10
0.265873
20
1.02212
11
0.264656
21
1.0198
0
LINE
8
BLACK
6
CONTINUOUS
10
0.264656
20
1.0198
11
0.264247
21
1.01902
0
LINE
8
BLACK
6
CONTINUOUS
10
0.264247
20
1.01902
11
0.264179
21
1.01878
0
LINE
8
BLACK
6
CONTINUOUS
10
0.264179
20
1.01878
11
0.264178
21
1.01878
0
LINE
8
BLACK
6
CONTINUOUS
10
0.264178
20
1.01878
11
0.263981
21
1.01811
0
LINE
8
BLACK
6
CONTINUOUS
10
0.263981
20
1.01811
11
0.26346
21
1.01633
0
LINE
8
BLACK
6
CONTINUOUS
10
0.26346
20
1.01633
11
0.262972
21
1.01295
0
LINE
8
BLACK
6
CONTINUOUS
10
0.262972
20
1.01295
11
0.262972
21
0.959961
0
LINE
8
BLACK
6
CONTINUOUS
10
0.262972
20
0.959961
11
0.263247
21
0.957404
0
LINE
8
BLACK
6
CONTINUOUS
10
0.263247
20
0.957404
11
0.263276
21
0.957274
0
LINE
8
BLACK
6
CONTINUOUS
10
0.263276
20
0.957274
11
0.263276
21
0.957274
0
LINE
8
BLACK
6
CONTINUOUS
10
0.263276
20
0.957274
11
0.263678
21
0.955422
0
LINE
8
BLACK
6
CONTINUOUS
10
0.263678
20
0.955422
11
0.263679
21
0.955422
0
LINE
8
BLACK
6
CONTINUOUS
10
0.263679
20
0.955422
11
0.263696
21
0.955343
0
LINE
8
BLACK
6
CONTINUOUS
10
0.263696
20
0.955343
11
0.263718
21
0.955266
0
LINE
8
BLACK
6
CONTINUOUS
10
0.263718
20
0.955266
11
0.263718
21
0.955266
0
LINE
8
BLACK
6
CONTINUOUS
10
0.263718
20
0.955266
11
0.263976
21
0.954364
0
LINE
8
BLACK
6
CONTINUOUS
10
0.263976
20
0.954364
11
0.264127
21
0.953839
0
LINE
8
BLACK
6
CONTINUOUS
10
0.264127
20
0.953839
11
0.266358
21
0.950024
0
LINE
8
BLACK
6
CONTINUOUS
10
0.266358
20
0.950024
11
0.266509
21
0.94985
0
LINE
8
BLACK
6
CONTINUOUS
10
0.266509
20
0.94985
11
0.266509
21
0.94985
0
LINE
8
BLACK
6
CONTINUOUS
10
0.266509
20
0.94985
11
0.266999
21
0.949285
0
LINE
8
BLACK
6
CONTINUOUS
10
0.266999
20
0.949285
11
0.26714
21
0.949102
0
LINE
8
BLACK
6
CONTINUOUS
10
0.26714
20
0.949102
11
0.267286
21
0.948774
0
LINE
8
BLACK
6
CONTINUOUS
10
0.267286
20
0.948774
11
0.26761
21
0.94845
0
LINE
8
BLACK
6
CONTINUOUS
10
0.26761
20
0.94845
11
0.26761
21
0.94845
0
LINE
8
BLACK
6
CONTINUOUS
10
0.26761
20
0.94845
11
0.268219
21
0.947842
0
LINE
8
BLACK
6
CONTINUOUS
10
0.268219
20
0.947842
11
0.270405
21
0.94566
0
LINE
8
BLACK
6
CONTINUOUS
10
0.270405
20
0.94566
11
0.270824
21
0.945475
0
LINE
8
BLACK
6
CONTINUOUS
10
0.270824
20
0.945475
11
0.270824
21
0.945475
0
LINE
8
BLACK
6
CONTINUOUS
10
0.270824
20
0.945475
11
0.272635
21
0.944674
0
LINE
8
BLACK
6
CONTINUOUS
10
0.272635
20
0.944674
11
0.274436
21
0.943878
0
LINE
8
BLACK
6
CONTINUOUS
10
0.274436
20
0.943878
11
0.275199
21
0.943789
0
LINE
8
BLACK
6
CONTINUOUS
10
0.275199
20
0.943789
11
0.276022
21
0.943621
0
LINE
8
BLACK
6
CONTINUOUS
10
0.276022
20
0.943621
11
0.276572
21
0.94346
0
LINE
8
BLACK
6
CONTINUOUS
10
0.276572
20
0.94346
11
0.276748
21
0.943434
0
LINE
8
BLACK
6
CONTINUOUS
10
0.276748
20
0.943434
11
0.276748
21
0.943434
0
LINE
8
BLACK
6
CONTINUOUS
10
0.276748
20
0.943434
11
0.278186
21
0.943228
0
LINE
8
BLACK
6
CONTINUOUS
10
0.278186
20
0.943228
11
0.279961
21
0.942972
0
LINE
8
BLACK
6
CONTINUOUS
10
0.279961
20
0.942972
11
0.302945
21
0.942972
0
LINE
8
BLACK
6
CONTINUOUS
10
0.302945
20
0.942972
11
0.304231
21
0.943041
0
LINE
8
BLACK
6
CONTINUOUS
10
0.304231
20
0.943041
11
0.304297
21
0.943048
0
LINE
8
BLACK
6
CONTINUOUS
10
0.304297
20
0.943048
11
0.304297
21
0.943048
0
LINE
8
BLACK
6
CONTINUOUS
10
0.304297
20
0.943048
11
0.304847
21
0.943108
0
LINE
8
BLACK
6
CONTINUOUS
10
0.304847
20
0.943108
11
0.305285
21
0.943155
0
LINE
8
BLACK
6
CONTINUOUS
10
0.305285
20
0.943155
11
0.309764
21
0.944557
0
LINE
8
BLACK
6
CONTINUOUS
10
0.309764
20
0.944557
11
0.309978
21
0.944674
0
LINE
8
BLACK
6
CONTINUOUS
10
0.309978
20
0.944674
11
0.309978
21
0.944674
0
LINE
8
BLACK
6
CONTINUOUS
10
0.309978
20
0.944674
11
0.312062
21
0.945812
0
LINE
8
BLACK
6
CONTINUOUS
10
0.312062
20
0.945812
11
0.312062
21
0.945812
0
LINE
8
BLACK
6
CONTINUOUS
10
0.312062
20
0.945812
11
0.312217
21
0.945897
0
LINE
8
BLACK
6
CONTINUOUS
10
0.312217
20
0.945897
11
0.314209
21
0.947388
0
LINE
8
BLACK
6
CONTINUOUS
10
0.314209
20
0.947388
11
0.314816
21
0.947842
0
LINE
8
BLACK
6
CONTINUOUS
10
0.314816
20
0.947842
11
0.314816
21
0.947842
0
LINE
8
BLACK
6
CONTINUOUS
10
0.314816
20
0.947842
11
0.314958
21
0.947948
0
LINE
8
BLACK
6
CONTINUOUS
10
0.314958
20
0.947948
11
0.373529
21
1.00652
0
LINE
8
BLACK
6
CONTINUOUS
10
0.373529
20
1.00652
11
0.375982
21
1.00786
0
LINE
8
BLACK
6
CONTINUOUS
10
0.375982
20
1.00786
11
0.377037
21
1.00797
0
LINE
8
BLACK
6
CONTINUOUS
10
0.377037
20
1.00797
11
0.547945
21
1.00797
0
LINE
8
BLACK
6
CONTINUOUS
10
0.547945
20
1.00797
11
0.549231
21
1.00804
0
LINE
8
BLACK
6
CONTINUOUS
10
0.549231
20
1.00804
11
0.549297
21
1.00805
0
LINE
8
BLACK
6
CONTINUOUS
10
0.549297
20
1.00805
11
0.549297
21
1.00805
0
LINE
8
BLACK
6
CONTINUOUS
10
0.549297
20
1.00805
11
0.549847
21
1.00811
0
LINE
8
BLACK
6
CONTINUOUS
10
0.549847
20
1.00811
11
0.550285
21
1.00815
0
LINE
8
BLACK
6
CONTINUOUS
10
0.550285
20
1.00815
11
0.554764
21
1.00956
0
LINE
8
BLACK
6
CONTINUOUS
10
0.554764
20
1.00956
11
0.554978
21
1.00967
0
LINE
8
BLACK
6
CONTINUOUS
10
0.554978
20
1.00967
11
0.554978
21
1.00967
0
LINE
8
BLACK
6
CONTINUOUS
10
0.554978
20
1.00967
11
0.557062
21
1.01081
0
LINE
8
BLACK
6
CONTINUOUS
10
0.557062
20
1.01081
11
0.557062
21
1.01081
0
LINE
8
BLACK
6
CONTINUOUS
10
0.557062
20
1.01081
11
0.557217
21
1.0109
0
LINE
8
BLACK
6
CONTINUOUS
10
0.557217
20
1.0109
11
0.557489
21
1.0111
0
LINE
8
BLACK
6
CONTINUOUS
10
0.557489
20
1.0111
11
0.559816
21
1.01284
0
LINE
8
BLACK
6
CONTINUOUS
10
0.559816
20
1.01284
11
0.559816
21
1.01284
0
LINE
8
BLACK
6
CONTINUOUS
10
0.559816
20
1.01284
11
0.559958
21
1.01295
0
LINE
8
BLACK
6
CONTINUOUS
10
0.559958
20
1.01295
11
0.568529
21
1.02152
0
LINE
8
BLACK
6
CONTINUOUS
10
0.568529
20
1.02152
11
0.570982
21
1.02286
0
LINE
8
BLACK
6
CONTINUOUS
10
0.570982
20
1.02286
11
0.572037
21
1.02297
0
LINE
8
BLACK
6
CONTINUOUS
10
0.572037
20
1.02297
11
0.745039
21
1.02297
0
LINE
8
BLACK
6
CONTINUOUS
10
0.745039
20
1.02297
11
0.745171
21
1.02299
0
LINE
8
BLACK
6
CONTINUOUS
10
0.745171
20
1.02299
11
0.745171
21
1.02299
0
LINE
8
BLACK
6
CONTINUOUS
10
0.745171
20
1.02299
11
0.746606
21
1.02314
0
LINE
8
BLACK
6
CONTINUOUS
10
0.746606
20
1.02314
11
0.747136
21
1.02317
0
LINE
8
BLACK
6
CONTINUOUS
10
0.747136
20
1.02317
11
0.751758
21
1.02317
0
LINE
8
BLACK
6
CONTINUOUS
10
0.751758
20
1.02317
11
0.751904
21
1.02319
0
LINE
8
BLACK
6
CONTINUOUS
10
0.751904
20
1.02319
11
0.751904
21
1.02319
0
LINE
8
BLACK
6
CONTINUOUS
10
0.751904
20
1.02319
11
0.752195
21
1.02322
0
LINE
8
BLACK
6
CONTINUOUS
10
0.752195
20
1.02322
11
0.752789
21
1.02329
0
LINE
8
BLACK
6
CONTINUOUS
10
0.752789
20
1.02329
11
0.754383
21
1.024
0
LINE
8
BLACK
6
CONTINUOUS
10
0.754383
20
1.024
11
0.756398
21
1.0249
0
LINE
8
BLACK
6
CONTINUOUS
10
0.756398
20
1.0249
11
0.756817
21
1.02508
0
LINE
8
BLACK
6
CONTINUOUS
10
0.756817
20
1.02508
11
0.759931
21
1.0282
0
LINE
8
BLACK
6
CONTINUOUS
10
0.759931
20
1.0282
11
0.760159
21
1.02872
0
LINE
8
BLACK
6
CONTINUOUS
10
0.760159
20
1.02872
11
0.761562
21
1.03189
0
LINE
8
BLACK
6
CONTINUOUS
10
0.761562
20
1.03189
11
0.761713
21
1.03223
0
LINE
8
BLACK
6
CONTINUOUS
10
0.761713
20
1.03223
11
0.761831
21
1.03324
0
LINE
8
BLACK
6
CONTINUOUS
10
0.761831
20
1.03324
11
0.761831
21
1.03824
0
LINE
8
BLACK
6
CONTINUOUS
10
0.761831
20
1.03824
11
0.761881
21
1.03894
0
LINE
8
BLACK
6
CONTINUOUS
10
0.761881
20
1.03894
11
0.762002
21
1.03978
0
LINE
8
BLACK
6
CONTINUOUS
10
0.762002
20
1.03978
11
0.762028
21
1.03996
0
LINE
8
BLACK
6
CONTINUOUS
10
0.762028
20
1.03996
11
0.762028
21
1.08514
0
LINE
8
BLACK
6
CONTINUOUS
10
0.762028
20
1.08514
11
0.761857
21
1.0868
0
LINE
8
BLACK
6
CONTINUOUS
10
0.761857
20
1.0868
11
0.761831
21
1.08731
0
LINE
8
BLACK
6
CONTINUOUS
10
0.761831
20
1.08731
11
0.761831
21
1.09676
0
LINE
8
BLACK
6
CONTINUOUS
10
0.761831
20
1.09676
11
0.761708
21
1.09779
0
LINE
8
BLACK
6
CONTINUOUS
10
0.761708
20
1.09779
11
0.759919
21
1.10182
0
LINE
8
BLACK
6
CONTINUOUS
10
0.759919
20
1.10182
11
0.7568
21
1.10493
0
LINE
8
BLACK
6
CONTINUOUS
10
0.7568
20
1.10493
11
0.756381
21
1.10512
0
LINE
8
BLACK
6
CONTINUOUS
10
0.756381
20
1.10512
11
0.756381
21
1.10512
0
LINE
8
BLACK
6
CONTINUOUS
10
0.756381
20
1.10512
11
0.754037
21
1.10615
0
LINE
8
BLACK
6
CONTINUOUS
10
0.754037
20
1.10615
11
0.752769
21
1.10671
0
LINE
8
BLACK
6
CONTINUOUS
10
0.752769
20
1.10671
11
0.751758
21
1.10683
0
LINE
8
BLACK
6
CONTINUOUS
10
0.751758
20
1.10683
11
0.688242
21
1.10683
0
LINE
8
BLACK
6
CONTINUOUS
10
0.688242
20
1.10683
11
0.688096
21
1.10681
0
LINE
8
BLACK
6
CONTINUOUS
10
0.688096
20
1.10681
11
0.688096
21
1.10681
0
LINE
8
BLACK
6
CONTINUOUS
10
0.688096
20
1.10681
11
0.687805
21
1.10678
0
LINE
8
BLACK
6
CONTINUOUS
10
0.687805
20
1.10678
11
0.687211
21
1.10671
0
LINE
8
BLACK
6
CONTINUOUS
10
0.687211
20
1.10671
11
0.686871
21
1.10656
0
LINE
8
BLACK
6
CONTINUOUS
10
0.686871
20
1.10656
11
0.686871
21
1.10656
0
LINE
8
BLACK
6
CONTINUOUS
10
0.686871
20
1.10656
11
0.684055
21
1.10531
0
LINE
8
BLACK
6
CONTINUOUS
10
0.684055
20
1.10531
11
0.683183
21
1.10492
0
LINE
8
BLACK
6
CONTINUOUS
10
0.683183
20
1.10492
11
0.682859
21
1.10459
0
LINE
8
BLACK
6
CONTINUOUS
10
0.682859
20
1.10459
11
0.682482
21
1.10434
0
LINE
8
BLACK
6
CONTINUOUS
10
0.682482
20
1.10434
11
0.682394
21
1.10446
0
LINE
8
BLACK
6
CONTINUOUS
10
0.682394
20
1.10446
11
0.680678
21
1.10352
0
LINE
8
BLACK
6
CONTINUOUS
10
0.680678
20
1.10352
11
0.679523
21
1.10341
0
LINE
8
BLACK
6
CONTINUOUS
10
0.679523
20
1.10341
11
0.676438
21
1.10347
0
LINE
8
BLACK
6
CONTINUOUS
10
0.676438
20
1.10347
11
0.659743
21
1.1038
0
LINE
8
BLACK
6
CONTINUOUS
10
0.659743
20
1.1038
11
0.657078
21
1.10465
0
LINE
8
BLACK
6
CONTINUOUS
10
0.657078
20
1.10465
11
0.6568
21
1.10493
0
LINE
8
BLACK
6
CONTINUOUS
10
0.6568
20
1.10493
11
0.656381
21
1.10512
0
LINE
8
BLACK
6
CONTINUOUS
10
0.656381
20
1.10512
11
0.656381
21
1.10512
0
LINE
8
BLACK
6
CONTINUOUS
10
0.656381
20
1.10512
11
0.654037
21
1.10615
0
LINE
8
BLACK
6
CONTINUOUS
10
0.654037
20
1.10615
11
0.652769
21
1.10671
0
LINE
8
BLACK
6
CONTINUOUS
10
0.652769
20
1.10671
11
0.651758
21
1.10683
0
LINE
8
BLACK
6
CONTINUOUS
10
0.651758
20
1.10683
11
0.588242
21
1.10683
0
LINE
8
BLACK
6
CONTINUOUS
10
0.588242
20
1.10683
11
0.588096
21
1.10681
0
LINE
8
BLACK
6
CONTINUOUS
10
0.588096
20
1.10681
11
0.588096
21
1.10681
0
LINE
8
BLACK
6
CONTINUOUS
10
0.588096
20
1.10681
11
0.587805
21
1.10678
0
LINE
8
BLACK
6
CONTINUOUS
10
0.587805
20
1.10678
11
0.587211
21
1.10671
0
LINE
8
BLACK
6
CONTINUOUS
10
0.587211
20
1.10671
11
0.585015
21
1.10573
0
LINE
8
BLACK
6
CONTINUOUS
10
0.585015
20
1.10573
11
0.582904
21
1.10531
0
LINE
8
BLACK
6
CONTINUOUS
10
0.582904
20
1.10531
11
0.502077
21
1.10689
0
LINE
8
BLACK
6
CONTINUOUS
10
0.502077
20
1.10689
11
0.499411
21
1.10773
0
LINE
8
BLACK
6
CONTINUOUS
10
0.499411
20
1.10773
11
0.498666
21
1.10834
0
LINE
8
BLACK
6
CONTINUOUS
10
0.498666
20
1.10834
11
0.464958
21
1.14205
0
LINE
8
BLACK
6
CONTINUOUS
10
0.464958
20
1.14205
11
0.464908
21
1.1421
0
LINE
8
BLACK
6
CONTINUOUS
10
0.464908
20
1.1421
11
0.464049
21
1.14287
0
LINE
8
BLACK
6
CONTINUOUS
10
0.464049
20
1.14287
11
0.464049
21
1.14287
0
LINE
8
BLACK
6
CONTINUOUS
10
0.464049
20
1.14287
11
0.464
21
1.14291
0
LINE
8
BLACK
6
CONTINUOUS
10
0.464
20
1.14291
11
0.463174
21
1.14358
0
LINE
8
BLACK
6
CONTINUOUS
10
0.463174
20
1.14358
11
0.46038
21
1.14504
0
LINE
8
BLACK
6
CONTINUOUS
10
0.46038
20
1.14504
11
0.459232
21
1.14564
0
LINE
8
BLACK
6
CONTINUOUS
10
0.459232
20
1.14564
11
0.459232
21
1.14564
0
LINE
8
BLACK
6
CONTINUOUS
10
0.459232
20
1.14564
11
0.459016
21
1.14575
0
LINE
8
BLACK
6
CONTINUOUS
10
0.459016
20
1.14575
11
0.458782
21
1.14582
0
LINE
8
BLACK
6
CONTINUOUS
10
0.458782
20
1.14582
11
0.458782
21
1.14582
0
LINE
8
BLACK
6
CONTINUOUS
10
0.458782
20
1.14582
11
0.45808
21
1.14603
0
LINE
8
BLACK
6
CONTINUOUS
10
0.45808
20
1.14603
11
0.456334
21
1.14654
0
LINE
8
BLACK
6
CONTINUOUS
10
0.456334
20
1.14654
11
0.456158
21
1.14657
0
LINE
8
BLACK
6
CONTINUOUS
10
0.456158
20
1.14657
11
0.456158
21
1.14657
0
LINE
8
BLACK
6
CONTINUOUS
10
0.456158
20
1.14657
11
0.454354
21
1.14683
0
LINE
8
BLACK
6
CONTINUOUS
10
0.454354
20
1.14683
11
0.452945
21
1.14703
0
LINE
8
BLACK
6
CONTINUOUS
10
0.452945
20
1.14703
11
0.450256
21
1.14703
0
LINE
8
BLACK
6
CONTINUOUS
10
0.450256
20
1.14703
11
0.447574
21
1.14782
0
LINE
8
BLACK
6
CONTINUOUS
10
0.447574
20
1.14782
11
0.445744
21
1.14993
0
LINE
8
BLACK
6
CONTINUOUS
10
0.445744
20
1.14993
11
0.445295
21
1.15199
0
LINE
8
BLACK
6
CONTINUOUS
10
0.445295
20
1.15199
11
0.445295
21
1.17845
0
LINE
8
BLACK
6
CONTINUOUS
10
0.445295
20
1.17845
11
0.445173
21
1.17948
0
LINE
8
BLACK
6
CONTINUOUS
10
0.445173
20
1.17948
11
0.443841
21
1.18248
0
LINE
8
BLACK
6
CONTINUOUS
10
0.443841
20
1.18248
11
0.443569
21
1.18309
0
LINE
8
BLACK
6
CONTINUOUS
10
0.443569
20
1.18309
11
0.443383
21
1.18351
0
LINE
8
BLACK
6
CONTINUOUS
10
0.443383
20
1.18351
11
0.442535
21
1.18436
0
LINE
8
BLACK
6
CONTINUOUS
10
0.442535
20
1.18436
11
0.440588
21
1.1863
0
LINE
8
BLACK
6
CONTINUOUS
10
0.440588
20
1.1863
11
0.440264
21
1.18662
0
LINE
8
BLACK
6
CONTINUOUS
10
0.440264
20
1.18662
11
0.439846
21
1.18681
0
LINE
8
BLACK
6
CONTINUOUS
10
0.439846
20
1.18681
11
0.439845
21
1.18681
0
LINE
8
BLACK
6
CONTINUOUS
10
0.439845
20
1.18681
11
0.437234
21
1.18796
0
LINE
8
BLACK
6
CONTINUOUS
10
0.437234
20
1.18796
11
0.436233
21
1.18841
0
LINE
8
BLACK
6
CONTINUOUS
10
0.436233
20
1.18841
11
0.435222
21
1.18852
0
LINE
8
BLACK
6
CONTINUOUS
10
0.435222
20
1.18852
11
0.364778
21
1.18852
0
LINE
8
BLACK
6
CONTINUOUS
10
0.364778
20
1.18852
11
0.364632
21
1.18851
0
LINE
8
BLACK
6
CONTINUOUS
10
0.364632
20
1.18851
11
0.364632
21
1.18851
0
LINE
8
BLACK
6
CONTINUOUS
10
0.364632
20
1.18851
11
0.364341
21
1.18847
0
LINE
8
BLACK
6
CONTINUOUS
10
0.364341
20
1.18847
11
0.363746
21
1.1884
0
LINE
8
BLACK
6
CONTINUOUS
10
0.363746
20
1.1884
11
0.363406
21
1.18825
0
LINE
8
BLACK
6
CONTINUOUS
10
0.363406
20
1.18825
11
0.363406
21
1.18825
0
LINE
8
BLACK
6
CONTINUOUS
10
0.363406
20
1.18825
11
0.360162
21
1.18681
0
LINE
8
BLACK
6
CONTINUOUS
10
0.360162
20
1.18681
11
0.359718
21
1.18661
0
LINE
8
BLACK
6
CONTINUOUS
10
0.359718
20
1.18661
11
0.356605
21
1.18349
0
LINE
8
BLACK
6
CONTINUOUS
10
0.356605
20
1.18349
11
0.35642
21
1.18307
0
LINE
8
BLACK
6
CONTINUOUS
10
0.35642
20
1.18307
11
0.356419
21
1.18307
0
LINE
8
BLACK
6
CONTINUOUS
10
0.356419
20
1.18307
11
0.356125
21
1.18241
0
LINE
8
BLACK
6
CONTINUOUS
10
0.356125
20
1.18241
11
0.354823
21
1.17946
0
LINE
8
BLACK
6
CONTINUOUS
10
0.354823
20
1.17946
11
0.354705
21
1.17845
0
LINE
8
BLACK
6
CONTINUOUS
10
0.354705
20
1.17845
11
0.354705
21
1.15199
0
LINE
8
BLACK
6
CONTINUOUS
10
0.354705
20
1.15199
11
0.353917
21
1.14931
0
LINE
8
BLACK
6
CONTINUOUS
10
0.353917
20
1.14931
11
0.351805
21
1.14748
0
LINE
8
BLACK
6
CONTINUOUS
10
0.351805
20
1.14748
11
0.349744
21
1.14703
0
LINE
8
BLACK
6
CONTINUOUS
10
0.349744
20
1.14703
11
0.310678
21
1.14703
0
LINE
8
BLACK
6
CONTINUOUS
10
0.310678
20
1.14703
11
0.307996
21
1.14782
0
LINE
8
BLACK
6
CONTINUOUS
10
0.307996
20
1.14782
11
0.30717
21
1.14848
0
LINE
8
BLACK
6
CONTINUOUS
10
0.30717
20
1.14848
11
0.273243
21
1.18241
0
LINE
8
BLACK
6
CONTINUOUS
10
0.273243
20
1.18241
11
0.273099
21
1.18256
0
LINE
8
BLACK
6
CONTINUOUS
10
0.273099
20
1.18256
11
0.272608
21
1.18309
0
LINE
8
BLACK
6
CONTINUOUS
10
0.272608
20
1.18309
11
0.271445
21
1.18436
0
LINE
8
BLACK
6
CONTINUOUS
10
0.271445
20
1.18436
11
0.269988
21
1.18526
0
LINE
8
BLACK
6
CONTINUOUS
10
0.269988
20
1.18526
11
0.269604
21
1.18552
0
LINE
8
BLACK
6
CONTINUOUS
10
0.269604
20
1.18552
11
0.268239
21
1.18656
0
LINE
8
BLACK
6
CONTINUOUS
10
0.268239
20
1.18656
11
0.267689
21
1.18678
0
LINE
8
BLACK
6
CONTINUOUS
10
0.267689
20
1.18678
11
0.266902
21
1.18717
0
LINE
8
BLACK
6
CONTINUOUS
10
0.266902
20
1.18717
11
0.266398
21
1.18749
0
LINE
8
BLACK
6
CONTINUOUS
10
0.266398
20
1.18749
11
0.266073
21
1.18758
0
LINE
8
BLACK
6
CONTINUOUS
10
0.266073
20
1.18758
11
0.266073
21
1.18758
0
LINE
8
BLACK
6
CONTINUOUS
10
0.266073
20
1.18758
11
0.264753
21
1.18796
0
LINE
8
BLACK
6
CONTINUOUS
10
0.264753
20
1.18796
11
0.264311
21
1.18812
0
LINE
8
BLACK
6
CONTINUOUS
10
0.264311
20
1.18812
11
0.263957
21
1.18825
0
LINE
8
BLACK
6
CONTINUOUS
10
0.263957
20
1.18825
11
0.262718
21
1.18875
0
LINE
8
BLACK
6
CONTINUOUS
10
0.262718
20
1.18875
11
0.262382
21
1.18878
0
LINE
8
BLACK
6
CONTINUOUS
10
0.262382
20
1.18878
11
0.262382
21
1.18878
0
LINE
8
BLACK
6
CONTINUOUS
10
0.262382
20
1.18878
11
0.26213
21
1.18881
0
LINE
8
BLACK
6
CONTINUOUS
10
0.26213
20
1.18881
11
0.261264
21
1.18898
0
LINE
8
BLACK
6
CONTINUOUS
10
0.261264
20
1.18898
11
0.260696
21
1.18914
0
LINE
8
BLACK
6
CONTINUOUS
10
0.260696
20
1.18914
11
0.260401
21
1.18916
0
LINE
8
BLACK
6
CONTINUOUS
10
0.260401
20
1.18916
11
0.260366
21
1.18917
0
LINE
8
BLACK
6
CONTINUOUS
10
0.260366
20
1.18917
11
0.260365
21
1.18917
0
LINE
8
BLACK
6
CONTINUOUS
10
0.260365
20
1.18917
11
0.260275
21
1.18917
0
LINE
8
BLACK
6
CONTINUOUS
10
0.260275
20
1.18917
11
0.258909
21
1.18917
0
LINE
8
BLACK
6
CONTINUOUS
10
0.258909
20
1.18917
11
0.25839
21
1.1892
0
LINE
8
BLACK
6
CONTINUOUS
10
0.25839
20
1.1892
11
0.257988
21
1.18924
0
LINE
8
BLACK
6
CONTINUOUS
10
0.257988
20
1.18924
11
0.256813
21
1.18937
0
LINE
8
BLACK
6
CONTINUOUS
10
0.256813
20
1.18937
11
0.25648
21
1.18931
0
LINE
8
BLACK
6
CONTINUOUS
10
0.25648
20
1.18931
11
0.256479
21
1.18931
0
LINE
8
BLACK
6
CONTINUOUS
10
0.256479
20
1.18931
11
0.256083
21
1.18924
0
LINE
8
BLACK
6
CONTINUOUS
10
0.256083
20
1.18924
11
0.255255
21
1.18917
0
LINE
8
BLACK
6
CONTINUOUS
10
0.255255
20
1.18917
11
0.176744
21
1.18917
0
LINE
8
BLACK
6
CONTINUOUS
10
0.176744
20
1.18917
11
0.174062
21
1.18996
0
LINE
8
BLACK
6
CONTINUOUS
10
0.174062
20
1.18996
11
0.172656
21
1.19132
0
LINE
8
BLACK
6
CONTINUOUS
10
0.172656
20
1.19132
11
0.172605
21
1.1914
0
LINE
8
BLACK
6
CONTINUOUS
10
0.172605
20
1.1914
11
0.172419
21
1.19182
0
LINE
8
BLACK
6
CONTINUOUS
10
0.172419
20
1.19182
11
0.1693
21
1.19493
0
LINE
8
BLACK
6
CONTINUOUS
10
0.1693
20
1.19493
11
0.168881
21
1.19512
0
LINE
8
BLACK
6
CONTINUOUS
10
0.168881
20
1.19512
11
0.168881
21
1.19512
0
LINE
8
BLACK
6
CONTINUOUS
10
0.168881
20
1.19512
11
0.166537
21
1.19615
0
LINE
8
BLACK
6
CONTINUOUS
10
0.166537
20
1.19615
11
0.165269
21
1.19671
0
LINE
8
BLACK
6
CONTINUOUS
10
0.165269
20
1.19671
11
0.164258
21
1.19683
0
LINE
8
BLACK
6
CONTINUOUS
10
0.164258
20
1.19683
11
0.105742
21
1.19683
0
LINE
8
BLACK
6
CONTINUOUS
10
0.105742
20
1.19683
11
0.105596
21
1.19681
0
LINE
8
BLACK
6
CONTINUOUS
10
0.105596
20
1.19681
11
0.105596
21
1.19681
0
LINE
8
BLACK
6
CONTINUOUS
10
0.105596
20
1.19681
11
0.105305
21
1.19678
0
LINE
8
BLACK
6
CONTINUOUS
10
0.105305
20
1.19678
11
0.104711
21
1.19671
0
LINE
8
BLACK
6
CONTINUOUS
10
0.104711
20
1.19671
11
0.100683
21
1.19492
0
LINE
8
BLACK
6
CONTINUOUS
10
0.100683
20
1.19492
11
0.0975693
21
1.1918
0
LINE
8
BLACK
6
CONTINUOUS
10
0.0975693
20
1.1918
11
0.0957872
21
1.18777
0
LINE
8
BLACK
6
CONTINUOUS
10
0.0957872
20
1.18777
11
0.0956693
21
1.18676
0
LINE
8
BLACK
6
CONTINUOUS
10
0.0956693
20
1.18676
11
0.0956693
21
1.14824
0
LINE
8
BLACK
6
CONTINUOUS
10
0.0956693
20
1.14824
11
0.095792
21
1.14721
0
LINE
8
BLACK
6
CONTINUOUS
10
0.095792
20
1.14721
11
0.0959431
21
1.14687
0
LINE
8
BLACK
6
CONTINUOUS
10
0.444901
20
1.37153
11
0.448419
21
1.35653
0
LINE
8
BLACK
6
CONTINUOUS
10
0.448419
20
1.35653
11
0.448458
21
1.35642
0
LINE
8
BLACK
6
CONTINUOUS
10
0.448458
20
1.35642
11
0.448458
21
1.35642
0
LINE
8
BLACK
6
CONTINUOUS
10
0.448458
20
1.35642
11
0.453344
21
1.34207
0
LINE
8
BLACK
6
CONTINUOUS
10
0.453344
20
1.34207
11
0.453345
21
1.34206
0
LINE
8
BLACK
6
CONTINUOUS
10
0.453345
20
1.34206
11
0.453384
21
1.34195
0
LINE
8
BLACK
6
CONTINUOUS
10
0.453384
20
1.34195
11
0.459748
21
1.32792
0
LINE
8
BLACK
6
CONTINUOUS
10
0.459748
20
1.32792
11
0.467451
21
1.31458
0
LINE
8
BLACK
6
CONTINUOUS
10
0.467451
20
1.31458
11
0.467522
21
1.31448
0
LINE
8
BLACK
6
CONTINUOUS
10
0.467522
20
1.31448
11
0.467522
21
1.31448
0
LINE
8
BLACK
6
CONTINUOUS
10
0.467522
20
1.31448
11
0.471371
21
1.3091
0
LINE
8
BLACK
6
CONTINUOUS
10
0.471371
20
1.3091
11
0.476419
21
1.30205
0
LINE
8
BLACK
6
CONTINUOUS
10
0.476419
20
1.30205
11
0.486567
21
1.29046
0
LINE
8
BLACK
6
CONTINUOUS
10
0.486567
20
1.29046
11
0.497798
21
1.27991
0
LINE
8
BLACK
6
CONTINUOUS
10
0.497798
20
1.27991
11
0.510004
21
1.27051
0
LINE
8
BLACK
6
CONTINUOUS
10
0.510004
20
1.27051
11
0.510107
21
1.27045
0
LINE
8
BLACK
6
CONTINUOUS
10
0.510107
20
1.27045
11
0.510107
21
1.27045
0
LINE
8
BLACK
6
CONTINUOUS
10
0.510107
20
1.27045
11
0.514791
21
1.26752
0
LINE
8
BLACK
6
CONTINUOUS
10
0.514791
20
1.26752
11
0.523069
21
1.26235
0
LINE
8
BLACK
6
CONTINUOUS
10
0.523069
20
1.26235
11
0.536869
21
1.2555
0
LINE
8
BLACK
6
CONTINUOUS
10
0.536869
20
1.2555
11
0.551271
21
1.25003
0
LINE
8
BLACK
6
CONTINUOUS
10
0.551271
20
1.25003
11
0.566138
21
1.24599
0
LINE
8
BLACK
6
CONTINUOUS
10
0.566138
20
1.24599
11
0.566258
21
1.24597
0
LINE
8
BLACK
6
CONTINUOUS
10
0.566258
20
1.24597
11
0.566258
21
1.24597
0
LINE
8
BLACK
6
CONTINUOUS
10
0.566258
20
1.24597
11
0.581209
21
1.24344
0
LINE
8
BLACK
6
CONTINUOUS
10
0.581209
20
1.24344
11
0.581209
21
1.24344
0
LINE
8
BLACK
6
CONTINUOUS
10
0.581209
20
1.24344
11
0.581329
21
1.24342
0
LINE
8
BLACK
6
CONTINUOUS
10
0.581329
20
1.24342
11
0.58145
21
1.24341
0
LINE
8
BLACK
6
CONTINUOUS
10
0.58145
20
1.24341
11
0.58145
21
1.24341
0
LINE
8
BLACK
6
CONTINUOUS
10
0.58145
20
1.24341
11
0.596577
21
1.24235
0
LINE
8
BLACK
6
CONTINUOUS
10
0.596577
20
1.24235
11
0.596577
21
1.24235
0
LINE
8
BLACK
6
CONTINUOUS
10
0.596577
20
1.24235
11
0.596698
21
1.24234
0
LINE
8
BLACK
6
CONTINUOUS
10
0.596698
20
1.24234
11
0.606681
21
1.24262
0
LINE
8
BLACK
6
CONTINUOUS
10
0.606681
20
1.24262
11
0.611977
21
1.24277
0
LINE
8
BLACK
6
CONTINUOUS
10
0.611977
20
1.24277
11
0.611977
21
1.24277
0
LINE
8
BLACK
6
CONTINUOUS
10
0.611977
20
1.24277
11
0.612098
21
1.24277
0
LINE
8
BLACK
6
CONTINUOUS
10
0.612098
20
1.24277
11
0.612218
21
1.24279
0
LINE
8
BLACK
6
CONTINUOUS
10
0.612218
20
1.24279
11
0.612218
21
1.24279
0
LINE
8
BLACK
6
CONTINUOUS
10
0.612218
20
1.24279
11
0.619533
21
1.24371
0
LINE
8
BLACK
6
CONTINUOUS
10
0.619533
20
1.24371
11
0.627383
21
1.24471
0
LINE
8
BLACK
6
CONTINUOUS
10
0.627383
20
1.24471
11
0.627501
21
1.24473
0
LINE
8
BLACK
6
CONTINUOUS
10
0.627501
20
1.24473
11
0.627501
21
1.24473
0
LINE
8
BLACK
6
CONTINUOUS
10
0.627501
20
1.24473
11
0.642288
21
1.24809
0
LINE
8
BLACK
6
CONTINUOUS
10
0.642288
20
1.24809
11
0.642288
21
1.24809
0
LINE
8
BLACK
6
CONTINUOUS
10
0.642288
20
1.24809
11
0.642406
21
1.24812
0
LINE
8
BLACK
6
CONTINUOUS
10
0.642406
20
1.24812
11
0.648145
21
1.25003
0
LINE
8
BLACK
6
CONTINUOUS
10
0.648145
20
1.25003
11
0.656909
21
1.25294
0
LINE
8
BLACK
6
CONTINUOUS
10
0.656909
20
1.25294
11
0.65691
21
1.25294
0
LINE
8
BLACK
6
CONTINUOUS
10
0.65691
20
1.25294
11
0.657025
21
1.25298
0
LINE
8
BLACK
6
CONTINUOUS
10
0.657025
20
1.25298
11
0.662581
21
1.25546
0
LINE
8
BLACK
6
CONTINUOUS
10
0.662581
20
1.25546
11
0.670989
21
1.2592
0
LINE
8
BLACK
6
CONTINUOUS
10
0.670989
20
1.2592
11
0.670989
21
1.2592
0
LINE
8
BLACK
6
CONTINUOUS
10
0.670989
20
1.2592
11
0.671099
21
1.25925
0
LINE
8
BLACK
6
CONTINUOUS
10
0.671099
20
1.25925
11
0.671204
21
1.25931
0
LINE
8
BLACK
6
CONTINUOUS
10
0.671204
20
1.25931
11
0.684389
21
1.2668
0
LINE
8
BLACK
6
CONTINUOUS
10
0.684389
20
1.2668
11
0.68439
21
1.2668
0
LINE
8
BLACK
6
CONTINUOUS
10
0.68439
20
1.2668
11
0.684494
21
1.26686
0
LINE
8
BLACK
6
CONTINUOUS
10
0.684494
20
1.26686
11
0.697084
21
1.27574
0
LINE
8
BLACK
6
CONTINUOUS
10
0.697084
20
1.27574
11
0.708746
21
1.28581
0
LINE
8
BLACK
6
CONTINUOUS
10
0.708746
20
1.28581
11
0.70883
21
1.28589
0
LINE
8
BLACK
6
CONTINUOUS
10
0.70883
20
1.28589
11
0.70883
21
1.28589
0
LINE
8
BLACK
6
CONTINUOUS
10
0.70883
20
1.28589
11
0.719287
21
1.29687
0
LINE
8
BLACK
6
CONTINUOUS
10
0.719287
20
1.29687
11
0.719371
21
1.29696
0
LINE
8
BLACK
6
CONTINUOUS
10
0.719371
20
1.29696
11
0.723275
21
1.30196
0
LINE
8
BLACK
6
CONTINUOUS
10
0.723275
20
1.30196
11
0.72878
21
1.30901
0
LINE
8
BLACK
6
CONTINUOUS
10
0.72878
20
1.30901
11
0.72878
21
1.30901
0
LINE
8
BLACK
6
CONTINUOUS
10
0.72878
20
1.30901
11
0.728856
21
1.3091
0
LINE
8
BLACK
6
CONTINUOUS
10
0.728856
20
1.3091
11
0.728921
21
1.30921
0
LINE
8
BLACK
6
CONTINUOUS
10
0.728921
20
1.30921
11
0.728921
21
1.30921
0
LINE
8
BLACK
6
CONTINUOUS
10
0.728921
20
1.30921
11
0.737046
21
1.32201
0
LINE
8
BLACK
6
CONTINUOUS
10
0.737046
20
1.32201
11
0.737046
21
1.32201
0
LINE
8
BLACK
6
CONTINUOUS
10
0.737046
20
1.32201
11
0.737111
21
1.32211
0
LINE
8
BLACK
6
CONTINUOUS
10
0.737111
20
1.32211
11
0.744057
21
1.33586
0
LINE
8
BLACK
6
CONTINUOUS
10
0.744057
20
1.33586
11
0.749628
21
1.35023
0
LINE
8
BLACK
6
CONTINUOUS
10
0.749628
20
1.35023
11
0.753771
21
1.36506
0
LINE
8
BLACK
6
CONTINUOUS
10
0.753771
20
1.36506
11
0.756447
21
1.38024
0
LINE
8
BLACK
6
CONTINUOUS
10
0.756447
20
1.38024
11
0.756952
21
1.3868
0
LINE
8
BLACK
6
CONTINUOUS
10
0.756952
20
1.3868
11
0.757623
21
1.39552
0
LINE
8
BLACK
6
CONTINUOUS
10
0.757623
20
1.39552
11
0.757623
21
1.39552
0
LINE
8
BLACK
6
CONTINUOUS
10
0.757623
20
1.39552
11
0.757628
21
1.3956
0
LINE
8
BLACK
6
CONTINUOUS
10
0.757628
20
1.3956
11
0.75769
21
1.4
0
LINE
8
BLACK
6
CONTINUOUS
10
0.75769
20
1.4
11
0.756937
21
1.41539
0
LINE
8
BLACK
6
CONTINUOUS
10
0.756937
20
1.41539
11
0.754687
21
1.43063
0
LINE
8
BLACK
6
CONTINUOUS
10
0.754687
20
1.43063
11
0.75096
21
1.44558
0
LINE
8
BLACK
6
CONTINUOUS
10
0.75096
20
1.44558
11
0.745792
21
1.46009
0
LINE
8
BLACK
6
CONTINUOUS
10
0.745792
20
1.46009
11
0.739232
21
1.47403
0
LINE
8
BLACK
6
CONTINUOUS
10
0.739232
20
1.47403
11
0.738077
21
1.47597
0
LINE
8
BLACK
6
CONTINUOUS
10
0.738077
20
1.47597
11
0.731406
21
1.48716
0
LINE
8
BLACK
6
CONTINUOUS
10
0.731406
20
1.48716
11
0.731343
21
1.48726
0
LINE
8
BLACK
6
CONTINUOUS
10
0.731343
20
1.48726
11
0.722201
21
1.49966
0
LINE
8
BLACK
6
CONTINUOUS
10
0.722201
20
1.49966
11
0.711892
21
1.51111
0
LINE
8
BLACK
6
CONTINUOUS
10
0.711892
20
1.51111
11
0.700515
21
1.5215
0
LINE
8
BLACK
6
CONTINUOUS
10
0.700515
20
1.5215
11
0.688179
21
1.53073
0
LINE
8
BLACK
6
CONTINUOUS
10
0.688179
20
1.53073
11
0.686066
21
1.53201
0
LINE
8
BLACK
6
CONTINUOUS
10
0.686066
20
1.53201
11
0.675105
21
1.53865
0
LINE
8
BLACK
6
CONTINUOUS
10
0.675105
20
1.53865
11
0.675104
21
1.53865
0
LINE
8
BLACK
6
CONTINUOUS
10
0.675104
20
1.53865
11
0.675001
21
1.53871
0
LINE
8
BLACK
6
CONTINUOUS
10
0.675001
20
1.53871
11
0.661107
21
1.54537
0
LINE
8
BLACK
6
CONTINUOUS
10
0.661107
20
1.54537
11
0.660994
21
1.54541
0
LINE
8
BLACK
6
CONTINUOUS
10
0.660994
20
1.54541
11
0.660993
21
1.54541
0
LINE
8
BLACK
6
CONTINUOUS
10
0.660993
20
1.54541
11
0.646744
21
1.5506
0
LINE
8
BLACK
6
CONTINUOUS
10
0.646744
20
1.5506
11
0.646744
21
1.5506
0
LINE
8
BLACK
6
CONTINUOUS
10
0.646744
20
1.5506
11
0.64663
21
1.55064
0
LINE
8
BLACK
6
CONTINUOUS
10
0.64663
20
1.55064
11
0.635721
21
1.55344
0
LINE
8
BLACK
6
CONTINUOUS
10
0.635721
20
1.55344
11
0.631825
21
1.55444
0
LINE
8
BLACK
6
CONTINUOUS
10
0.631825
20
1.55444
11
0.631825
21
1.55444
0
LINE
8
BLACK
6
CONTINUOUS
10
0.631825
20
1.55444
11
0.631708
21
1.55447
0
LINE
8
BLACK
6
CONTINUOUS
10
0.631708
20
1.55447
11
0.616483
21
1.55683
0
LINE
8
BLACK
6
CONTINUOUS
10
0.616483
20
1.55683
11
0.616363
21
1.55683
0
LINE
8
BLACK
6
CONTINUOUS
10
0.616363
20
1.55683
11
0.616363
21
1.55683
0
LINE
8
BLACK
6
CONTINUOUS
10
0.616363
20
1.55683
11
0.615162
21
1.5569
0
LINE
8
BLACK
6
CONTINUOUS
10
0.615162
20
1.5569
11
0.601101
21
1.55769
0
LINE
8
BLACK
6
CONTINUOUS
10
0.601101
20
1.55769
11
0.60098
21
1.55768
0
LINE
8
BLACK
6
CONTINUOUS
10
0.60098
20
1.55768
11
0.60098
21
1.55768
0
LINE
8
BLACK
6
CONTINUOUS
10
0.60098
20
1.55768
11
0.590896
21
1.55726
0
LINE
8
BLACK
6
CONTINUOUS
10
0.590896
20
1.55726
11
0.585708
21
1.55704
0
LINE
8
BLACK
6
CONTINUOUS
10
0.585708
20
1.55704
11
0.585588
21
1.55702
0
LINE
8
BLACK
6
CONTINUOUS
10
0.585588
20
1.55702
11
0.585588
21
1.55702
0
LINE
8
BLACK
6
CONTINUOUS
10
0.585588
20
1.55702
11
0.584227
21
1.55683
0
LINE
8
BLACK
6
CONTINUOUS
10
0.584227
20
1.55683
11
0.570452
21
1.5549
0
LINE
8
BLACK
6
CONTINUOUS
10
0.570452
20
1.5549
11
0.555478
21
1.55127
0
LINE
8
BLACK
6
CONTINUOUS
10
0.555478
20
1.55127
11
0.540928
21
1.54621
0
LINE
8
BLACK
6
CONTINUOUS
10
0.540928
20
1.54621
11
0.540818
21
1.54616
0
LINE
8
BLACK
6
CONTINUOUS
10
0.540818
20
1.54616
11
0.527053
21
1.5398
0
LINE
8
BLACK
6
CONTINUOUS
10
0.527053
20
1.5398
11
0.527053
21
1.5398
0
LINE
8
BLACK
6
CONTINUOUS
10
0.527053
20
1.5398
11
0.526943
21
1.53975
0
LINE
8
BLACK
6
CONTINUOUS
10
0.526943
20
1.53975
11
0.52267
21
1.53724
0
LINE
8
BLACK
6
CONTINUOUS
10
0.52267
20
1.53724
11
0.513759
21
1.53201
0
LINE
8
BLACK
6
CONTINUOUS
10
0.513759
20
1.53201
11
0.513759
21
1.53201
0
LINE
8
BLACK
6
CONTINUOUS
10
0.513759
20
1.53201
11
0.513655
21
1.53195
0
LINE
8
BLACK
6
CONTINUOUS
10
0.513655
20
1.53195
11
0.512064
21
1.53079
0
LINE
8
BLACK
6
CONTINUOUS
10
0.512064
20
1.53079
11
0.501289
21
1.52296
0
LINE
8
BLACK
6
CONTINUOUS
10
0.501289
20
1.52296
11
0.501288
21
1.52296
0
LINE
8
BLACK
6
CONTINUOUS
10
0.501288
20
1.52296
11
0.501191
21
1.52289
0
LINE
8
BLACK
6
CONTINUOUS
10
0.501191
20
1.52289
11
0.501101
21
1.52281
0
LINE
8
BLACK
6
CONTINUOUS
10
0.501101
20
1.52281
11
0.5011
21
1.52281
0
LINE
8
BLACK
6
CONTINUOUS
10
0.5011
20
1.52281
11
0.489761
21
1.51275
0
LINE
8
BLACK
6
CONTINUOUS
10
0.489761
20
1.51275
11
0.48967
21
1.51267
0
LINE
8
BLACK
6
CONTINUOUS
10
0.48967
20
1.51267
11
0.479202
21
1.50136
0
LINE
8
BLACK
6
CONTINUOUS
10
0.479202
20
1.50136
11
0.469888
21
1.48909
0
LINE
8
BLACK
6
CONTINUOUS
10
0.469888
20
1.48909
11
0.461815
21
1.47597
0
LINE
8
BLACK
6
CONTINUOUS
10
0.461815
20
1.47597
11
0.455062
21
1.46212
0
LINE
8
BLACK
6
CONTINUOUS
10
0.455062
20
1.46212
11
0.449691
21
1.44768
0
LINE
8
BLACK
6
CONTINUOUS
10
0.449691
20
1.44768
11
0.445756
21
1.43279
0
LINE
8
BLACK
6
CONTINUOUS
10
0.445756
20
1.43279
11
0.443293
21
1.41758
0
LINE
8
BLACK
6
CONTINUOUS
10
0.443293
20
1.41758
11
0.442325
21
1.4022
0
LINE
8
BLACK
6
CONTINUOUS
10
0.442325
20
1.4022
11
0.442863
21
1.3868
0
LINE
8
BLACK
6
CONTINUOUS
10
0.442863
20
1.3868
11
0.444901
21
1.37153
0
LINE
8
BLACK
6
CONTINUOUS
10
0.354687
20
1.43063
11
0.35096
21
1.44558
0
LINE
8
BLACK
6
CONTINUOUS
10
0.35096
20
1.44558
11
0.345792
21
1.46009
0
LINE
8
BLACK
6
CONTINUOUS
10
0.345792
20
1.46009
11
0.339232
21
1.47403
0
LINE
8
BLACK
6
CONTINUOUS
10
0.339232
20
1.47403
11
0.338077
21
1.47597
0
LINE
8
BLACK
6
CONTINUOUS
10
0.338077
20
1.47597
11
0.331406
21
1.48716
0
LINE
8
BLACK
6
CONTINUOUS
10
0.331406
20
1.48716
11
0.331343
21
1.48726
0
LINE
8
BLACK
6
CONTINUOUS
10
0.331343
20
1.48726
11
0.322201
21
1.49966
0
LINE
8
BLACK
6
CONTINUOUS
10
0.322201
20
1.49966
11
0.311892
21
1.51111
0
LINE
8
BLACK
6
CONTINUOUS
10
0.311892
20
1.51111
11
0.300515
21
1.5215
0
LINE
8
BLACK
6
CONTINUOUS
10
0.300515
20
1.5215
11
0.288179
21
1.53073
0
LINE
8
BLACK
6
CONTINUOUS
10
0.288179
20
1.53073
11
0.286066
21
1.53201
0
LINE
8
BLACK
6
CONTINUOUS
10
0.286066
20
1.53201
11
0.275105
21
1.53865
0
LINE
8
BLACK
6
CONTINUOUS
10
0.275105
20
1.53865
11
0.275104
21
1.53865
0
LINE
8
BLACK
6
CONTINUOUS
10
0.275104
20
1.53865
11
0.275001
21
1.53871
0
LINE
8
BLACK
6
CONTINUOUS
10
0.275001
20
1.53871
11
0.261107
21
1.54537
0
LINE
8
BLACK
6
CONTINUOUS
10
0.261107
20
1.54537
11
0.260994
21
1.54541
0
LINE
8
BLACK
6
CONTINUOUS
10
0.260994
20
1.54541
11
0.260993
21
1.54541
0
LINE
8
BLACK
6
CONTINUOUS
10
0.260993
20
1.54541
11
0.246744
21
1.5506
0
LINE
8
BLACK
6
CONTINUOUS
10
0.246744
20
1.5506
11
0.246744
21
1.5506
0
LINE
8
BLACK
6
CONTINUOUS
10
0.246744
20
1.5506
11
0.24663
21
1.55064
0
LINE
8
BLACK
6
CONTINUOUS
10
0.24663
20
1.55064
11
0.235721
21
1.55344
0
LINE
8
BLACK
6
CONTINUOUS
10
0.235721
20
1.55344
11
0.231825
21
1.55444
0
LINE
8
BLACK
6
CONTINUOUS
10
0.231825
20
1.55444
11
0.231825
21
1.55444
0
LINE
8
BLACK
6
CONTINUOUS
10
0.231825
20
1.55444
11
0.231708
21
1.55447
0
LINE
8
BLACK
6
CONTINUOUS
10
0.231708
20
1.55447
11
0.216483
21
1.55683
0
LINE
8
BLACK
6
CONTINUOUS
10
0.216483
20
1.55683
11
0.216363
21
1.55683
0
LINE
8
BLACK
6
CONTINUOUS
10
0.216363
20
1.55683
11
0.216363
21
1.55683
0
LINE
8
BLACK
6
CONTINUOUS
10
0.216363
20
1.55683
11
0.215162
21
1.5569
0
LINE
8
BLACK
6
CONTINUOUS
10
0.215162
20
1.5569
11
0.201101
21
1.55769
0
LINE
8
BLACK
6
CONTINUOUS
10
0.201101
20
1.55769
11
0.20098
21
1.55768
0
LINE
8
BLACK
6
CONTINUOUS
10
0.20098
20
1.55768
11
0.20098
21
1.55768
0
LINE
8
BLACK
6
CONTINUOUS
10
0.20098
20
1.55768
11
0.190896
21
1.55726
0
LINE
8
BLACK
6
CONTINUOUS
10
0.190896
20
1.55726
11
0.185708
21
1.55704
0
LINE
8
BLACK
6
CONTINUOUS
10
0.185708
20
1.55704
11
0.185588
21
1.55702
0
LINE
8
BLACK
6
CONTINUOUS
10
0.185588
20
1.55702
11
0.185588
21
1.55702
0
LINE
8
BLACK
6
CONTINUOUS
10
0.185588
20
1.55702
11
0.184227
21
1.55683
0
LINE
8
BLACK
6
CONTINUOUS
10
0.184227
20
1.55683
11
0.170452
21
1.5549
0
LINE
8
BLACK
6
CONTINUOUS
10
0.170452
20
1.5549
11
0.155478
21
1.55127
0
LINE
8
BLACK
6
CONTINUOUS
10
0.155478
20
1.55127
11
0.140928
21
1.54621
0
LINE
8
BLACK
6
CONTINUOUS
10
0.140928
20
1.54621
11
0.140818
21
1.54616
0
LINE
8
BLACK
6
CONTINUOUS
10
0.140818
20
1.54616
11
0.127053
21
1.5398
0
LINE
8
BLACK
6
CONTINUOUS
10
0.127053
20
1.5398
11
0.127053
21
1.5398
0
LINE
8
BLACK
6
CONTINUOUS
10
0.127053
20
1.5398
11
0.126943
21
1.53975
0
LINE
8
BLACK
6
CONTINUOUS
10
0.126943
20
1.53975
11
0.12267
21
1.53724
0
LINE
8
BLACK
6
CONTINUOUS
10
0.12267
20
1.53724
11
0.113759
21
1.53201
0
LINE
8
BLACK
6
CONTINUOUS
10
0.113759
20
1.53201
11
0.113759
21
1.53201
0
LINE
8
BLACK
6
CONTINUOUS
10
0.113759
20
1.53201
11
0.113655
21
1.53195
0
LINE
8
BLACK
6
CONTINUOUS
10
0.113655
20
1.53195
11
0.112064
21
1.53079
0
LINE
8
BLACK
6
CONTINUOUS
10
0.112064
20
1.53079
11
0.101289
21
1.52296
0
LINE
8
BLACK
6
CONTINUOUS
10
0.101289
20
1.52296
11
0.101288
21
1.52296
0
LINE
8
BLACK
6
CONTINUOUS
10
0.101288
20
1.52296
11
0.101191
21
1.52289
0
LINE
8
BLACK
6
CONTINUOUS
10
0.101191
20
1.52289
11
0.101101
21
1.52281
0
LINE
8
BLACK
6
CONTINUOUS
10
0.101101
20
1.52281
11
0.1011
21
1.52281
0
LINE
8
BLACK
6
CONTINUOUS
10
0.1011
20
1.52281
11
0.0897608
21
1.51275
0
LINE
8
BLACK
6
CONTINUOUS
10
0.0897608
20
1.51275
11
0.0896701
21
1.51267
0
LINE
8
BLACK
6
CONTINUOUS
10
0.0896701
20
1.51267
11
0.0792025
21
1.50136
0
LINE
8
BLACK
6
CONTINUOUS
10
0.0792025
20
1.50136
11
0.0698879
21
1.48909
0
LINE
8
BLACK
6
CONTINUOUS
10
0.0698879
20
1.48909
11
0.0618152
21
1.47597
0
LINE
8
BLACK
6
CONTINUOUS
10
0.0618152
20
1.47597
11
0.0550616
21
1.46212
0
LINE
8
BLACK
6
CONTINUOUS
10
0.0550616
20
1.46212
11
0.0496914
21
1.44768
0
LINE
8
BLACK
6
CONTINUOUS
10
0.0496914
20
1.44768
11
0.0457559
21
1.43279
0
LINE
8
BLACK
6
CONTINUOUS
10
0.0457559
20
1.43279
11
0.0432928
21
1.41758
0
LINE
8
BLACK
6
CONTINUOUS
10
0.0432928
20
1.41758
11
0.0423254
21
1.4022
0
LINE
8
BLACK
6
CONTINUOUS
10
0.0423254
20
1.4022
11
0.0428631
21
1.3868
0
LINE
8
BLACK
6
CONTINUOUS
10
0.0428631
20
1.3868
11
0.0449007
21
1.37153
0
LINE
8
BLACK
6
CONTINUOUS
10
0.0449007
20
1.37153
11
0.0484187
21
1.35653
0
LINE
8
BLACK
6
CONTINUOUS
10
0.0484187
20
1.35653
11
0.0484576
21
1.35642
0
LINE
8
BLACK
6
CONTINUOUS
10
0.0484576
20
1.35642
11
0.0484577
21
1.35642
0
LINE
8
BLACK
6
CONTINUOUS
10
0.0484577
20
1.35642
11
0.0533445
21
1.34207
0
LINE
8
BLACK
6
CONTINUOUS
10
0.0533445
20
1.34207
11
0.0533447
21
1.34206
0
LINE
8
BLACK
6
CONTINUOUS
10
0.0533447
20
1.34206
11
0.0533836
21
1.34195
0
LINE
8
BLACK
6
CONTINUOUS
10
0.0533836
20
1.34195
11
0.059748
21
1.32792
0
LINE
8
BLACK
6
CONTINUOUS
10
0.059748
20
1.32792
11
0.0674511
21
1.31458
0
LINE
8
BLACK
6
CONTINUOUS
10
0.0674511
20
1.31458
11
0.0675215
21
1.31448
0
LINE
8
BLACK
6
CONTINUOUS
10
0.0675215
20
1.31448
11
0.0675216
21
1.31448
0
LINE
8
BLACK
6
CONTINUOUS
10
0.0675216
20
1.31448
11
0.0713713
21
1.3091
0
LINE
8
BLACK
6
CONTINUOUS
10
0.0713713
20
1.3091
11
0.0764194
21
1.30205
0
LINE
8
BLACK
6
CONTINUOUS
10
0.0764194
20
1.30205
11
0.0865673
21
1.29046
0
LINE
8
BLACK
6
CONTINUOUS
10
0.0865673
20
1.29046
11
0.097798
21
1.27991
0
LINE
8
BLACK
6
CONTINUOUS
10
0.097798
20
1.27991
11
0.110004
21
1.27051
0
LINE
8
BLACK
6
CONTINUOUS
10
0.110004
20
1.27051
11
0.110107
21
1.27045
0
LINE
8
BLACK
6
CONTINUOUS
10
0.110107
20
1.27045
11
0.110107
21
1.27045
0
LINE
8
BLACK
6
CONTINUOUS
10
0.110107
20
1.27045
11
0.114791
21
1.26752
0
LINE
8
BLACK
6
CONTINUOUS
10
0.114791
20
1.26752
11
0.123069
21
1.26235
0
LINE
8
BLACK
6
CONTINUOUS
10
0.123069
20
1.26235
11
0.136869
21
1.2555
0
LINE
8
BLACK
6
CONTINUOUS
10
0.136869
20
1.2555
11
0.151271
21
1.25003
0
LINE
8
BLACK
6
CONTINUOUS
10
0.151271
20
1.25003
11
0.166138
21
1.24599
0
LINE
8
BLACK
6
CONTINUOUS
10
0.166138
20
1.24599
11
0.166258
21
1.24597
0
LINE
8
BLACK
6
CONTINUOUS
10
0.166258
20
1.24597
11
0.166258
21
1.24597
0
LINE
8
BLACK
6
CONTINUOUS
10
0.166258
20
1.24597
11
0.181209
21
1.24344
0
LINE
8
BLACK
6
CONTINUOUS
10
0.181209
20
1.24344
11
0.181209
21
1.24344
0
LINE
8
BLACK
6
CONTINUOUS
10
0.181209
20
1.24344
11
0.181329
21
1.24342
0
LINE
8
BLACK
6
CONTINUOUS
10
0.181329
20
1.24342
11
0.18145
21
1.24341
0
LINE
8
BLACK
6
CONTINUOUS
10
0.18145
20
1.24341
11
0.18145
21
1.24341
0
LINE
8
BLACK
6
CONTINUOUS
10
0.18145
20
1.24341
11
0.196577
21
1.24235
0
LINE
8
BLACK
6
CONTINUOUS
10
0.196577
20
1.24235
11
0.196577
21
1.24235
0
LINE
8
BLACK
6
CONTINUOUS
10
0.196577
20
1.24235
11
0.196698
21
1.24234
0
LINE
8
BLACK
6
CONTINUOUS
10
0.196698
20
1.24234
11
0.206681
21
1.24262
0
LINE
8
BLACK
6
CONTINUOUS
10
0.206681
20
1.24262
11
0.211977
21
1.24277
0
LINE
8
BLACK
6
CONTINUOUS
10
0.211977
20
1.24277
11
0.211977
21
1.24277
0
LINE
8
BLACK
6
CONTINUOUS
10
0.211977
20
1.24277
11
0.212098
21
1.24277
0
LINE
8
BLACK
6
CONTINUOUS
10
0.212098
20
1.24277
11
0.212218
21
1.24279
0
LINE
8
BLACK
6
CONTINUOUS
10
0.212218
20
1.24279
11
0.212218
21
1.24279
0
LINE
8
BLACK
6
CONTINUOUS
10
0.212218
20
1.24279
11
0.219533
21
1.24371
0
LINE
8
BLACK
6
CONTINUOUS
10
0.219533
20
1.24371
11
0.227383
21
1.24471
0
LINE
8
BLACK
6
CONTINUOUS
10
0.227383
20
1.24471
11
0.227501
21
1.24473
0
LINE
8
BLACK
6
CONTINUOUS
10
0.227501
20
1.24473
11
0.227501
21
1.24473
0
LINE
8
BLACK
6
CONTINUOUS
10
0.227501
20
1.24473
11
0.242288
21
1.24809
0
LINE
8
BLACK
6
CONTINUOUS
10
0.242288
20
1.24809
11
0.242288
21
1.24809
0
LINE
8
BLACK
6
CONTINUOUS
10
0.242288
20
1.24809
11
0.242406
21
1.24812
0
LINE
8
BLACK
6
CONTINUOUS
10
0.242406
20
1.24812
11
0.248145
21
1.25003
0
LINE
8
BLACK
6
CONTINUOUS
10
0.248145
20
1.25003
11
0.256909
21
1.25294
0
LINE
8
BLACK
6
CONTINUOUS
10
0.256909
20
1.25294
11
0.25691
21
1.25294
0
LINE
8
BLACK
6
CONTINUOUS
10
0.25691
20
1.25294
11
0.257025
21
1.25298
0
LINE
8
BLACK
6
CONTINUOUS
10
0.257025
20
1.25298
11
0.262581
21
1.25546
0
LINE
8
BLACK
6
CONTINUOUS
10
0.262581
20
1.25546
11
0.270989
21
1.2592
0
LINE
8
BLACK
6
CONTINUOUS
10
0.270989
20
1.2592
11
0.270989
21
1.2592
0
LINE
8
BLACK
6
CONTINUOUS
10
0.270989
20
1.2592
11
0.271099
21
1.25925
0
LINE
8
BLACK
6
CONTINUOUS
10
0.271099
20
1.25925
11
0.271204
21
1.25931
0
LINE
8
BLACK
6
CONTINUOUS
10
0.271204
20
1.25931
11
0.284389
21
1.2668
0
LINE
8
BLACK
6
CONTINUOUS
10
0.284389
20
1.2668
11
0.28439
21
1.2668
0
LINE
8
BLACK
6
CONTINUOUS
10
0.28439
20
1.2668
11
0.284494
21
1.26686
0
LINE
8
BLACK
6
CONTINUOUS
10
0.284494
20
1.26686
11
0.297084
21
1.27574
0
LINE
8
BLACK
6
CONTINUOUS
10
0.297084
20
1.27574
11
0.308746
21
1.28581
0
LINE
8
BLACK
6
CONTINUOUS
10
0.308746
20
1.28581
11
0.30883
21
1.28589
0
LINE
8
BLACK
6
CONTINUOUS
10
0.30883
20
1.28589
11
0.30883
21
1.28589
0
LINE
8
BLACK
6
CONTINUOUS
10
0.30883
20
1.28589
11
0.319287
21
1.29687
0
LINE
8
BLACK
6
CONTINUOUS
10
0.319287
20
1.29687
11
0.319371
21
1.29696
0
LINE
8
BLACK
6
CONTINUOUS
10
0.319371
20
1.29696
11
0.323275
21
1.30196
0
LINE
8
BLACK
6
CONTINUOUS
10
0.323275
20
1.30196
11
0.32878
21
1.30901
0
LINE
8
BLACK
6
CONTINUOUS
10
0.32878
20
1.30901
11
0.32878
21
1.30901
0
LINE
8
BLACK
6
CONTINUOUS
10
0.32878
20
1.30901
11
0.328856
21
1.3091
0
LINE
8
BLACK
6
CONTINUOUS
10
0.328856
20
1.3091
11
0.328921
21
1.30921
0
LINE
8
BLACK
6
CONTINUOUS
10
0.328921
20
1.30921
11
0.328921
21
1.30921
0
LINE
8
BLACK
6
CONTINUOUS
10
0.328921
20
1.30921
11
0.337046
21
1.32201
0
LINE
8
BLACK
6
CONTINUOUS
10
0.337046
20
1.32201
11
0.337046
21
1.32201
0
LINE
8
BLACK
6
CONTINUOUS
10
0.337046
20
1.32201
11
0.337111
21
1.32211
0
LINE
8
BLACK
6
CONTINUOUS
10
0.337111
20
1.32211
11
0.344057
21
1.33586
0
LINE
8
BLACK
6
CONTINUOUS
10
0.344057
20
1.33586
11
0.349628
21
1.35023
0
LINE
8
BLACK
6
CONTINUOUS
10
0.349628
20
1.35023
11
0.353771
21
1.36506
0
LINE
8
BLACK
6
CONTINUOUS
10
0.353771
20
1.36506
11
0.356447
21
1.38024
0
LINE
8
BLACK
6
CONTINUOUS
10
0.356447
20
1.38024
11
0.356952
21
1.3868
0
LINE
8
BLACK
6
CONTINUOUS
10
0.356952
20
1.3868
11
0.357623
21
1.39552
0
LINE
8
BLACK
6
CONTINUOUS
10
0.357623
20
1.39552
11
0.357623
21
1.39552
0
LINE
8
BLACK
6
CONTINUOUS
10
0.357623
20
1.39552
11
0.357628
21
1.3956
0
LINE
8
BLACK
6
CONTINUOUS
10
0.357628
20
1.3956
11
0.35769
21
1.4
0
LINE
8
BLACK
6
CONTINUOUS
10
0.35769
20
1.4
11
0.357582
21
1.4022
0
LINE
8
BLACK
6
CONTINUOUS
10
0.357582
20
1.4022
11
0.356937
21
1.41539
0
LINE
8
BLACK
6
CONTINUOUS
10
0.356937
20
1.41539
11
0.354687
21
1.43063
0
LINE
8
BLACK
6
CONTINUOUS
10
0.60865
20
0.317793
11
0.622132
21
0.316018
0
LINE
8
BLACK
6
CONTINUOUS
10
0.622132
20
0.316018
11
0.63532
21
0.312706
0
LINE
8
BLACK
6
CONTINUOUS
10
0.63532
20
0.312706
11
0.64804
21
0.307899
0
LINE
8
BLACK
6
CONTINUOUS
10
0.64804
20
0.307899
11
0.660123
21
0.301662
0
LINE
8
BLACK
6
CONTINUOUS
10
0.660123
20
0.301662
11
0.671409
21
0.294078
0
LINE
8
BLACK
6
CONTINUOUS
10
0.671409
20
0.294078
11
0.681749
21
0.285247
0
LINE
8
BLACK
6
CONTINUOUS
10
0.681749
20
0.285247
11
0.691006
21
0.275286
0
LINE
8
BLACK
6
CONTINUOUS
10
0.691006
20
0.275286
11
0.699056
21
0.264327
0
LINE
8
BLACK
6
CONTINUOUS
10
0.699056
20
0.264327
11
0.705793
21
0.252516
0
LINE
8
BLACK
6
CONTINUOUS
10
0.705793
20
0.252516
11
0.711128
21
0.240008
0
LINE
8
BLACK
6
CONTINUOUS
10
0.711128
20
0.240008
11
0.71499
21
0.226971
0
LINE
8
BLACK
6
CONTINUOUS
10
0.71499
20
0.226971
11
0.717327
21
0.213575
0
LINE
8
BLACK
6
CONTINUOUS
10
0.717327
20
0.213575
11
0.71811
21
0.2
0
LINE
8
BLACK
6
CONTINUOUS
10
0.71811
20
0.2
11
0.717877
21
0.192584
0
LINE
8
BLACK
6
CONTINUOUS
10
0.717877
20
0.192584
11
0.716244
21
0.179084
0
LINE
8
BLACK
6
CONTINUOUS
10
0.716244
20
0.179084
11
0.713069
21
0.165862
0
LINE
8
BLACK
6
CONTINUOUS
10
0.713069
20
0.165862
11
0.708396
21
0.153093
0
LINE
8
BLACK
6
CONTINUOUS
10
0.708396
20
0.153093
11
0.702286
21
0.140945
0
LINE
8
BLACK
6
CONTINUOUS
10
0.702286
20
0.140945
11
0.694821
21
0.12958
0
LINE
8
BLACK
6
CONTINUOUS
10
0.694821
20
0.12958
11
0.686099
21
0.119148
0
LINE
8
BLACK
6
CONTINUOUS
10
0.686099
20
0.119148
11
0.676235
21
0.109788
0
LINE
8
BLACK
6
CONTINUOUS
10
0.676235
20
0.109788
11
0.665361
21
0.101623
0
LINE
8
BLACK
6
CONTINUOUS
10
0.665361
20
0.101623
11
0.653621
21
0.094763
0
LINE
8
BLACK
6
CONTINUOUS
10
0.653621
20
0.094763
11
0.64117
21
0.0892974
0
LINE
8
BLACK
6
CONTINUOUS
10
0.64117
20
0.0892974
11
0.628173
21
0.0852991
0
LINE
8
BLACK
6
CONTINUOUS
10
0.628173
20
0.0852991
11
0.614803
21
0.0828211
0
LINE
8
BLACK
6
CONTINUOUS
10
0.614803
20
0.0828211
11
0.601237
21
0.0818962
0
LINE
8
BLACK
6
CONTINUOUS
10
0.601237
20
0.0818962
11
0.587654
21
0.0825368
0
LINE
8
BLACK
6
CONTINUOUS
10
0.587654
20
0.0825368
11
0.574235
21
0.0847343
0
LINE
8
BLACK
6
CONTINUOUS
10
0.574235
20
0.0847343
11
0.561157
21
0.0884595
0
LINE
8
BLACK
6
CONTINUOUS
10
0.561157
20
0.0884595
11
0.548595
21
0.0936631
0
LINE
8
BLACK
6
CONTINUOUS
10
0.548595
20
0.0936631
11
0.536713
21
0.100276
0
LINE
8
BLACK
6
CONTINUOUS
10
0.536713
20
0.100276
11
0.525671
21
0.108211
0
LINE
8
BLACK
6
CONTINUOUS
10
0.525671
20
0.108211
11
0.515613
21
0.117363
0
LINE
8
BLACK
6
CONTINUOUS
10
0.515613
20
0.117363
11
0.506675
21
0.127609
0
LINE
8
BLACK
6
CONTINUOUS
10
0.506675
20
0.127609
11
0.498973
21
0.138816
0
LINE
8
BLACK
6
CONTINUOUS
10
0.498973
20
0.138816
11
0.49261
21
0.150833
0
LINE
8
BLACK
6
CONTINUOUS
10
0.49261
20
0.150833
11
0.48767
21
0.163502
0
LINE
8
BLACK
6
CONTINUOUS
10
0.48767
20
0.163502
11
0.48422
21
0.176655
0
LINE
8
BLACK
6
CONTINUOUS
10
0.48422
20
0.176655
11
0.482304
21
0.190117
0
LINE
8
BLACK
6
CONTINUOUS
10
0.482304
20
0.190117
11
0.481948
21
0.20371
0
LINE
8
BLACK
6
CONTINUOUS
10
0.481948
20
0.20371
11
0.483157
21
0.217254
0
LINE
8
BLACK
6
CONTINUOUS
10
0.483157
20
0.217254
11
0.485914
21
0.230569
0
LINE
8
BLACK
6
CONTINUOUS
10
0.485914
20
0.230569
11
0.490184
21
0.243479
0
LINE
8
BLACK
6
CONTINUOUS
10
0.490184
20
0.243479
11
0.495909
21
0.255813
0
LINE
8
BLACK
6
CONTINUOUS
10
0.495909
20
0.255813
11
0.503014
21
0.267407
0
LINE
8
BLACK
6
CONTINUOUS
10
0.503014
20
0.267407
11
0.511404
21
0.278108
0
LINE
8
BLACK
6
CONTINUOUS
10
0.511404
20
0.278108
11
0.520969
21
0.287773
0
LINE
8
BLACK
6
CONTINUOUS
10
0.520969
20
0.287773
11
0.531581
21
0.296275
0
LINE
8
BLACK
6
CONTINUOUS
10
0.531581
20
0.296275
11
0.5431
21
0.303501
0
LINE
8
BLACK
6
CONTINUOUS
10
0.5431
20
0.303501
11
0.555373
21
0.309355
0
LINE
8
BLACK
6
CONTINUOUS
10
0.555373
20
0.309355
11
0.568238
21
0.313759
0
LINE
8
BLACK
6
CONTINUOUS
10
0.568238
20
0.313759
11
0.581524
21
0.316656
0
LINE
8
BLACK
6
CONTINUOUS
10
0.581524
20
0.316656
11
0.595054
21
0.318007
0
LINE
8
BLACK
6
CONTINUOUS
10
0.595054
20
0.318007
11
0.60865
21
0.317793
0
LINE
8
BLACK
6
CONTINUOUS
10
0.277205
20
0.849291
11
0.277205
21
0.910709
0
LINE
8
BLACK
6
CONTINUOUS
10
0.277205
20
0.910709
11
0.302795
21
0.910709
0
LINE
8
BLACK
6
CONTINUOUS
10
0.302795
20
0.910709
11
0.302795
21
0.91
0
LINE
8
BLACK
6
CONTINUOUS
10
0.302795
20
0.91
11
0.335
21
0.91
0
LINE
8
BLACK
6
CONTINUOUS
10
0.335
20
0.91
11
0.368547
21
0.943547
0
LINE
8
BLACK
6
CONTINUOUS
10
0.368547
20
0.943547
11
0.371
21
0.944887
0
LINE
8
BLACK
6
CONTINUOUS
10
0.371
20
0.944887
11
0.37126
21
0.944915
0
LINE
8
BLACK
6
CONTINUOUS
10
0.37126
20
0.944915
11
0.37126
21
0.94563
0
LINE
8
BLACK
6
CONTINUOUS
10
0.37126
20
0.94563
11
0.52874
21
0.94563
0
LINE
8
BLACK
6
CONTINUOUS
10
0.52874
20
0.94563
11
0.52874
21
0.943037
0
LINE
8
BLACK
6
CONTINUOUS
10
0.52874
20
0.943037
11
0.529552
21
0.9421
0
LINE
8
BLACK
6
CONTINUOUS
10
0.529552
20
0.9421
11
0.53
21
0.940039
0
LINE
8
BLACK
6
CONTINUOUS
10
0.53
20
0.940039
11
0.53
21
0.882055
0
LINE
8
BLACK
6
CONTINUOUS
10
0.53
20
0.882055
11
0.529213
21
0.879373
0
LINE
8
BLACK
6
CONTINUOUS
10
0.529213
20
0.879373
11
0.528547
21
0.878547
0
LINE
8
BLACK
6
CONTINUOUS
10
0.528547
20
0.878547
11
0.495
21
0.845
0
LINE
8
BLACK
6
CONTINUOUS
10
0.495
20
0.845
11
0.495
21
0.843858
0
LINE
8
BLACK
6
CONTINUOUS
10
0.495
20
0.843858
11
0.495276
21
0.843858
0
LINE
8
BLACK
6
CONTINUOUS
10
0.495276
20
0.843858
11
0.495276
21
0.745433
0
LINE
8
BLACK
6
CONTINUOUS
10
0.495276
20
0.745433
11
0.495
21
0.745433
0
LINE
8
BLACK
6
CONTINUOUS
10
0.495
20
0.745433
11
0.495
21
0.739961
0
LINE
8
BLACK
6
CONTINUOUS
10
0.495
20
0.739961
11
0.494213
21
0.737279
0
LINE
8
BLACK
6
CONTINUOUS
10
0.494213
20
0.737279
11
0.4921
21
0.735448
0
LINE
8
BLACK
6
CONTINUOUS
10
0.4921
20
0.735448
11
0.490039
21
0.735
0
LINE
8
BLACK
6
CONTINUOUS
10
0.490039
20
0.735
11
0.477956
21
0.735
0
LINE
8
BLACK
6
CONTINUOUS
10
0.477956
20
0.735
11
0.475635
21
0.735577
0
LINE
8
BLACK
6
CONTINUOUS
10
0.475635
20
0.735577
11
0.474956
21
0.735936
0
LINE
8
BLACK
6
CONTINUOUS
10
0.474956
20
0.735936
11
0.468482
21
0.737562
0
LINE
8
BLACK
6
CONTINUOUS
10
0.468482
20
0.737562
11
0.468183
21
0.737564
0
LINE
8
BLACK
6
CONTINUOUS
10
0.468183
20
0.737564
11
0.468183
21
0.737564
0
LINE
8
BLACK
6
CONTINUOUS
10
0.468183
20
0.737564
11
0.465144
21
0.73758
0
LINE
8
BLACK
6
CONTINUOUS
10
0.465144
20
0.73758
11
0.461807
21
0.737597
0
LINE
8
BLACK
6
CONTINUOUS
10
0.461807
20
0.737597
11
0.461516
21
0.737527
0
LINE
8
BLACK
6
CONTINUOUS
10
0.461516
20
0.737527
11
0.461516
21
0.737527
0
LINE
8
BLACK
6
CONTINUOUS
10
0.461516
20
0.737527
11
0.455873
21
0.736172
0
LINE
8
BLACK
6
CONTINUOUS
10
0.455873
20
0.736172
11
0.455316
21
0.736039
0
LINE
8
BLACK
6
CONTINUOUS
10
0.455316
20
0.736039
11
0.455051
21
0.735902
0
LINE
8
BLACK
6
CONTINUOUS
10
0.455051
20
0.735902
11
0.45505
21
0.735902
0
LINE
8
BLACK
6
CONTINUOUS
10
0.45505
20
0.735902
11
0.454374
21
0.735553
0
LINE
8
BLACK
6
CONTINUOUS
10
0.454374
20
0.735553
11
0.452099
21
0.735
0
LINE
8
BLACK
6
CONTINUOUS
10
0.452099
20
0.735
11
0.407956
21
0.735
0
LINE
8
BLACK
6
CONTINUOUS
10
0.407956
20
0.735
11
0.405635
21
0.735577
0
LINE
8
BLACK
6
CONTINUOUS
10
0.405635
20
0.735577
11
0.404956
21
0.735936
0
LINE
8
BLACK
6
CONTINUOUS
10
0.404956
20
0.735936
11
0.398752
21
0.737494
0
LINE
8
BLACK
6
CONTINUOUS
10
0.398752
20
0.737494
11
0.396343
21
0.738911
0
LINE
8
BLACK
6
CONTINUOUS
10
0.396343
20
0.738911
11
0.395082
21
0.741406
0
LINE
8
BLACK
6
CONTINUOUS
10
0.395082
20
0.741406
11
0.395
21
0.742305
0
LINE
8
BLACK
6
CONTINUOUS
10
0.395
20
0.742305
11
0.395
21
0.805
0
LINE
8
BLACK
6
CONTINUOUS
10
0.395
20
0.805
11
0.35
21
0.85
0
LINE
8
BLACK
6
CONTINUOUS
10
0.35
20
0.85
11
0.302795
21
0.85
0
LINE
8
BLACK
6
CONTINUOUS
10
0.302795
20
0.85
11
0.302795
21
0.849291
0
LINE
8
BLACK
6
CONTINUOUS
10
0.302795
20
0.849291
11
0.277205
21
0.849291
0
LINE
8
BLACK
6
CONTINUOUS
10
0.26446
20
1.17446
11
0.303919
21
1.135
0
LINE
8
BLACK
6
CONTINUOUS
10
0.303919
20
1.135
11
0.366535
21
1.135
0
LINE
8
BLACK
6
CONTINUOUS
10
0.366535
20
1.135
11
0.366535
21
1.17669
0
LINE
8
BLACK
6
CONTINUOUS
10
0.366535
20
1.17669
11
0.433465
21
1.17669
0
LINE
8
BLACK
6
CONTINUOUS
10
0.433465
20
1.17669
11
0.433465
21
1.135
0
LINE
8
BLACK
6
CONTINUOUS
10
0.433465
20
1.135
11
0.452945
21
1.135
0
LINE
8
BLACK
6
CONTINUOUS
10
0.452945
20
1.135
11
0.455627
21
1.13421
0
LINE
8
BLACK
6
CONTINUOUS
10
0.455627
20
1.13421
11
0.456453
21
1.13355
0
LINE
8
BLACK
6
CONTINUOUS
10
0.456453
20
1.13355
11
0.495
21
1.095
0
LINE
8
BLACK
6
CONTINUOUS
10
0.495
20
1.095
11
0.495435
21
1.09499
0
LINE
8
BLACK
6
CONTINUOUS
10
0.495435
20
1.09499
11
0.495435
21
1.09499
0
LINE
8
BLACK
6
CONTINUOUS
10
0.495435
20
1.09499
11
0.59
21
1.09314
0
LINE
8
BLACK
6
CONTINUOUS
10
0.59
20
1.09314
11
0.59
21
1.095
0
LINE
8
BLACK
6
CONTINUOUS
10
0.59
20
1.095
11
0.65
21
1.095
0
LINE
8
BLACK
6
CONTINUOUS
10
0.65
20
1.095
11
0.65
21
1.09196
0
LINE
8
BLACK
6
CONTINUOUS
10
0.65
20
1.09196
11
0.69
21
1.09118
0
LINE
8
BLACK
6
CONTINUOUS
10
0.69
20
1.09118
11
0.69
21
1.095
0
LINE
8
BLACK
6
CONTINUOUS
10
0.69
20
1.095
11
0.75
21
1.095
0
LINE
8
BLACK
6
CONTINUOUS
10
0.75
20
1.095
11
0.75
21
1.035
0
LINE
8
BLACK
6
CONTINUOUS
10
0.75
20
1.035
11
0.565
21
1.035
0
LINE
8
BLACK
6
CONTINUOUS
10
0.565
20
1.035
11
0.551453
21
1.02145
0
LINE
8
BLACK
6
CONTINUOUS
10
0.551453
20
1.02145
11
0.549
21
1.02011
0
LINE
8
BLACK
6
CONTINUOUS
10
0.549
20
1.02011
11
0.547945
21
1.02
0
LINE
8
BLACK
6
CONTINUOUS
10
0.547945
20
1.02
11
0.37
21
1.02
0
LINE
8
BLACK
6
CONTINUOUS
10
0.37
20
1.02
11
0.306453
21
0.956453
0
LINE
8
BLACK
6
CONTINUOUS
10
0.306453
20
0.956453
11
0.304
21
0.955113
0
LINE
8
BLACK
6
CONTINUOUS
10
0.304
20
0.955113
11
0.302945
21
0.955
0
LINE
8
BLACK
6
CONTINUOUS
10
0.302945
20
0.955
11
0.279961
21
0.955
0
LINE
8
BLACK
6
CONTINUOUS
10
0.279961
20
0.955
11
0.277949
21
0.955591
0
LINE
8
BLACK
6
CONTINUOUS
10
0.277949
20
0.955591
11
0.277205
21
0.955591
0
LINE
8
BLACK
6
CONTINUOUS
10
0.277205
20
0.955591
11
0.277205
21
0.955873
0
LINE
8
BLACK
6
CONTINUOUS
10
0.277205
20
0.955873
11
0.275448
21
0.9579
0
LINE
8
BLACK
6
CONTINUOUS
10
0.275448
20
0.9579
11
0.275
21
0.959961
0
LINE
8
BLACK
6
CONTINUOUS
10
0.275
20
0.959961
11
0.275
21
1.01295
0
LINE
8
BLACK
6
CONTINUOUS
10
0.275
20
1.01295
11
0.275787
21
1.01563
0
LINE
8
BLACK
6
CONTINUOUS
10
0.275787
20
1.01563
11
0.276453
21
1.01645
0
LINE
8
BLACK
6
CONTINUOUS
10
0.276453
20
1.01645
11
0.29
21
1.03
0
LINE
8
BLACK
6
CONTINUOUS
10
0.29
20
1.03
11
0.29
21
1.12108
0
LINE
8
BLACK
6
CONTINUOUS
10
0.29
20
1.12108
11
0.253423
21
1.15766
0
LINE
8
BLACK
6
CONTINUOUS
10
0.253423
20
1.15766
11
0.1625
21
1.15766
0
LINE
8
BLACK
6
CONTINUOUS
10
0.1625
20
1.15766
11
0.1625
21
1.15
0
LINE
8
BLACK
6
CONTINUOUS
10
0.1625
20
1.15
11
0.1075
21
1.15
0
LINE
8
BLACK
6
CONTINUOUS
10
0.1075
20
1.15
11
0.1075
21
1.185
0
LINE
8
BLACK
6
CONTINUOUS
10
0.1075
20
1.185
11
0.1625
21
1.185
0
LINE
8
BLACK
6
CONTINUOUS
10
0.1625
20
1.185
11
0.1625
21
1.17734
0
LINE
8
BLACK
6
CONTINUOUS
10
0.1625
20
1.17734
11
0.2575
21
1.17734
0
LINE
8
BLACK
6
CONTINUOUS
10
0.2575
20
1.17734
11
0.261267
21
1.17659
0
LINE
8
BLACK
6
CONTINUOUS
10
0.261267
20
1.17659
11
0.26446
21
1.17446
0
LINE
8
BLACK
6
CONTINUOUS
10
0.20865
20
1.51779
11
0.222132
21
1.51602
0
LINE
8
BLACK
6
CONTINUOUS
10
0.222132
20
1.51602
11
0.23532
21
1.51271
0
LINE
8
BLACK
6
CONTINUOUS
10
0.23532
20
1.51271
11
0.24804
21
1.5079
0
LINE
8
BLACK
6
CONTINUOUS
10
0.24804
20
1.5079
11
0.260123
21
1.50166
0
LINE
8
BLACK
6
CONTINUOUS
10
0.260123
20
1.50166
11
0.271409
21
1.49408
0
LINE
8
BLACK
6
CONTINUOUS
10
0.271409
20
1.49408
11
0.281749
21
1.48525
0
LINE
8
BLACK
6
CONTINUOUS
10
0.281749
20
1.48525
11
0.291006
21
1.47529
0
LINE
8
BLACK
6
CONTINUOUS
10
0.291006
20
1.47529
11
0.299056
21
1.46433
0
LINE
8
BLACK
6
CONTINUOUS
10
0.299056
20
1.46433
11
0.305793
21
1.45252
0
LINE
8
BLACK
6
CONTINUOUS
10
0.305793
20
1.45252
11
0.311128
21
1.44001
0
LINE
8
BLACK
6
CONTINUOUS
10
0.311128
20
1.44001
11
0.31499
21
1.42697
0
LINE
8
BLACK
6
CONTINUOUS
10
0.31499
20
1.42697
11
0.317327
21
1.41358
0
LINE
8
BLACK
6
CONTINUOUS
10
0.317327
20
1.41358
11
0.31811
21
1.4
0
LINE
8
BLACK
6
CONTINUOUS
10
0.31811
20
1.4
11
0.317877
21
1.39258
0
LINE
8
BLACK
6
CONTINUOUS
10
0.317877
20
1.39258
11
0.316244
21
1.37908
0
LINE
8
BLACK
6
CONTINUOUS
10
0.316244
20
1.37908
11
0.313069
21
1.36586
0
LINE
8
BLACK
6
CONTINUOUS
10
0.313069
20
1.36586
11
0.308396
21
1.35309
0
LINE
8
BLACK
6
CONTINUOUS
10
0.308396
20
1.35309
11
0.302286
21
1.34094
0
LINE
8
BLACK
6
CONTINUOUS
10
0.302286
20
1.34094
11
0.294821
21
1.32958
0
LINE
8
BLACK
6
CONTINUOUS
10
0.294821
20
1.32958
11
0.286099
21
1.31915
0
LINE
8
BLACK
6
CONTINUOUS
10
0.286099
20
1.31915
11
0.276235
21
1.30979
0
LINE
8
BLACK
6
CONTINUOUS
10
0.276235
20
1.30979
11
0.265361
21
1.30162
0
LINE
8
BLACK
6
CONTINUOUS
10
0.265361
20
1.30162
11
0.253621
21
1.29476
0
LINE
8
BLACK
6
CONTINUOUS
10
0.253621
20
1.29476
11
0.24117
21
1.2893
0
LINE
8
BLACK
6
CONTINUOUS
10
0.24117
20
1.2893
11
0.228173
21
1.2853
0
LINE
8
BLACK
6
CONTINUOUS
10
0.228173
20
1.2853
11
0.214803
21
1.28282
0
LINE
8
BLACK
6
CONTINUOUS
10
0.214803
20
1.28282
11
0.201237
21
1.2819
0
LINE
8
BLACK
6
CONTINUOUS
10
0.201237
20
1.2819
11
0.187654
21
1.28254
0
LINE
8
BLACK
6
CONTINUOUS
10
0.187654
20
1.28254
11
0.174235
21
1.28473
0
LINE
8
BLACK
6
CONTINUOUS
10
0.174235
20
1.28473
11
0.161157
21
1.28846
0
LINE
8
BLACK
6
CONTINUOUS
10
0.161157
20
1.28846
11
0.148595
21
1.29366
0
LINE
8
BLACK
6
CONTINUOUS
10
0.148595
20
1.29366
11
0.136713
21
1.30028
0
LINE
8
BLACK
6
CONTINUOUS
10
0.136713
20
1.30028
11
0.125671
21
1.30821
0
LINE
8
BLACK
6
CONTINUOUS
10
0.125671
20
1.30821
11
0.115613
21
1.31736
0
LINE
8
BLACK
6
CONTINUOUS
10
0.115613
20
1.31736
11
0.106675
21
1.32761
0
LINE
8
BLACK
6
CONTINUOUS
10
0.106675
20
1.32761
11
0.0989727
21
1.33882
0
LINE
8
BLACK
6
CONTINUOUS
10
0.0989727
20
1.33882
11
0.0926099
21
1.35083
0
LINE
8
BLACK
6
CONTINUOUS
10
0.0926099
20
1.35083
11
0.0876705
21
1.3635
0
LINE
8
BLACK
6
CONTINUOUS
10
0.0876705
20
1.3635
11
0.0842199
21
1.37665
0
LINE
8
BLACK
6
CONTINUOUS
10
0.0842199
20
1.37665
11
0.082304
21
1.39012
0
LINE
8
BLACK
6
CONTINUOUS
10
0.082304
20
1.39012
11
0.081948
21
1.40371
0
LINE
8
BLACK
6
CONTINUOUS
10
0.081948
20
1.40371
11
0.0831568
21
1.41725
0
LINE
8
BLACK
6
CONTINUOUS
10
0.0831568
20
1.41725
11
0.0859143
21
1.43057
0
LINE
8
BLACK
6
CONTINUOUS
10
0.0859143
20
1.43057
11
0.0901839
21
1.44348
0
LINE
8
BLACK
6
CONTINUOUS
10
0.0901839
20
1.44348
11
0.0959091
21
1.45581
0
LINE
8
BLACK
6
CONTINUOUS
10
0.0959091
20
1.45581
11
0.103014
21
1.46741
0
LINE
8
BLACK
6
CONTINUOUS
10
0.103014
20
1.46741
11
0.111404
21
1.47811
0
LINE
8
BLACK
6
CONTINUOUS
10
0.111404
20
1.47811
11
0.120969
21
1.48777
0
LINE
8
BLACK
6
CONTINUOUS
10
0.120969
20
1.48777
11
0.131581
21
1.49627
0
LINE
8
BLACK
6
CONTINUOUS
10
0.131581
20
1.49627
11
0.1431
21
1.5035
0
LINE
8
BLACK
6
CONTINUOUS
10
0.1431
20
1.5035
11
0.155373
21
1.50935
0
LINE
8
BLACK
6
CONTINUOUS
10
0.155373
20
1.50935
11
0.168238
21
1.51376
0
LINE
8
BLACK
6
CONTINUOUS
10
0.168238
20
1.51376
11
0.181524
21
1.51666
0
LINE
8
BLACK
6
CONTINUOUS
10
0.181524
20
1.51666
11
0.195054
21
1.51801
0
LINE
8
BLACK
6
CONTINUOUS
10
0.195054
20
1.51801
11
0.20865
21
1.51779
0
LINE
8
BLACK
6
CONTINUOUS
10
0.60865
20
1.51779
11
0.622132
21
1.51602
0
LINE
8
BLACK
6
CONTINUOUS
10
0.622132
20
1.51602
11
0.63532
21
1.51271
0
LINE
8
BLACK
6
CONTINUOUS
10
0.63532
20
1.51271
11
0.64804
21
1.5079
0
LINE
8
BLACK
6
CONTINUOUS
10
0.64804
20
1.5079
11
0.660123
21
1.50166
0
LINE
8
BLACK
6
CONTINUOUS
10
0.660123
20
1.50166
11
0.671409
21
1.49408
0
LINE
8
BLACK
6
CONTINUOUS
10
0.671409
20
1.49408
11
0.681749
21
1.48525
0
LINE
8
BLACK
6
CONTINUOUS
10
0.681749
20
1.48525
11
0.691006
21
1.47529
0
LINE
8
BLACK
6
CONTINUOUS
10
0.691006
20
1.47529
11
0.699056
21
1.46433
0
LINE
8
BLACK
6
CONTINUOUS
10
0.699056
20
1.46433
11
0.705793
21
1.45252
0
LINE
8
BLACK
6
CONTINUOUS
10
0.705793
20
1.45252
11
0.711128
21
1.44001
0
LINE
8
BLACK
6
CONTINUOUS
10
0.711128
20
1.44001
11
0.71499
21
1.42697
0
LINE
8
BLACK
6
CONTINUOUS
10
0.71499
20
1.42697
11
0.717327
21
1.41358
0
LINE
8
BLACK
6
CONTINUOUS
10
0.717327
20
1.41358
11
0.71811
21
1.4
0
LINE
8
BLACK
6
CONTINUOUS
10
0.71811
20
1.4
11
0.717877
21
1.39258
0
LINE
8
BLACK
6
CONTINUOUS
10
0.717877
20
1.39258
11
0.716244
21
1.37908
0
LINE
8
BLACK
6
CONTINUOUS
10
0.716244
20
1.37908
11
0.713069
21
1.36586
0
LINE
8
BLACK
6
CONTINUOUS
10
0.713069
20
1.36586
11
0.708396
21
1.35309
0
LINE
8
BLACK
6
CONTINUOUS
10
0.708396
20
1.35309
11
0.702286
21
1.34094
0
LINE
8
BLACK
6
CONTINUOUS
10
0.702286
20
1.34094
11
0.694821
21
1.32958
0
LINE
8
BLACK
6
CONTINUOUS
10
0.694821
20
1.32958
11
0.686099
21
1.31915
0
LINE
8
BLACK
6
CONTINUOUS
10
0.686099
20
1.31915
11
0.676235
21
1.30979
0
LINE
8
BLACK
6
CONTINUOUS
10
0.676235
20
1.30979
11
0.665361
21
1.30162
0
LINE
8
BLACK
6
CONTINUOUS
10
0.665361
20
1.30162
11
0.653621
21
1.29476
0
LINE
8
BLACK
6
CONTINUOUS
10
0.653621
20
1.29476
11
0.64117
21
1.2893
0
LINE
8
BLACK
6
CONTINUOUS
10
0.64117
20
1.2893
11
0.628173
21
1.2853
0
LINE
8
BLACK
6
CONTINUOUS
10
0.628173
20
1.2853
11
0.614803
21
1.28282
0
LINE
8
BLACK
6
CONTINUOUS
10
0.614803
20
1.28282
11
0.601237
21
1.2819
0
LINE
8
BLACK
6
CONTINUOUS
10
0.601237
20
1.2819
11
0.587654
21
1.28254
0
LINE
8
BLACK
6
CONTINUOUS
10
0.587654
20
1.28254
11
0.574235
21
1.28473
0
LINE
8
BLACK
6
CONTINUOUS
10
0.574235
20
1.28473
11
0.561157
21
1.28846
0
LINE
8
BLACK
6
CONTINUOUS
10
0.561157
20
1.28846
11
0.548595
21
1.29366
0
LINE
8
BLACK
6
CONTINUOUS
10
0.548595
20
1.29366
11
0.536713
21
1.30028
0
LINE
8
BLACK
6
CONTINUOUS
10
0.536713
20
1.30028
11
0.525671
21
1.30821
0
LINE
8
BLACK
6
CONTINUOUS
10
0.525671
20
1.30821
11
0.515613
21
1.31736
0
LINE
8
BLACK
6
CONTINUOUS
10
0.515613
20
1.31736
11
0.506675
21
1.32761
0
LINE
8
BLACK
6
CONTINUOUS
10
0.506675
20
1.32761
11
0.498973
21
1.33882
0
LINE
8
BLACK
6
CONTINUOUS
10
0.498973
20
1.33882
11
0.49261
21
1.35083
0
LINE
8
BLACK
6
CONTINUOUS
10
0.49261
20
1.35083
11
0.48767
21
1.3635
0
LINE
8
BLACK
6
CONTINUOUS
10
0.48767
20
1.3635
11
0.48422
21
1.37665
0
LINE
8
BLACK
6
CONTINUOUS
10
0.48422
20
1.37665
11
0.482304
21
1.39012
0
LINE
8
BLACK
6
CONTINUOUS
10
0.482304
20
1.39012
11
0.481948
21
1.40371
0
LINE
8
BLACK
6
CONTINUOUS
10
0.481948
20
1.40371
11
0.483157
21
1.41725
0
LINE
8
BLACK
6
CONTINUOUS
10
0.483157
20
1.41725
11
0.485914
21
1.43057
0
LINE
8
BLACK
6
CONTINUOUS
10
0.485914
20
1.43057
11
0.490184
21
1.44348
0
LINE
8
BLACK
6
CONTINUOUS
10
0.490184
20
1.44348
11
0.495909
21
1.45581
0
LINE
8
BLACK
6
CONTINUOUS
10
0.495909
20
1.45581
11
0.503014
21
1.46741
0
LINE
8
BLACK
6
CONTINUOUS
10
0.503014
20
1.46741
11
0.511404
21
1.47811
0
LINE
8
BLACK
6
CONTINUOUS
10
0.511404
20
1.47811
11
0.520969
21
1.48777
0
LINE
8
BLACK
6
CONTINUOUS
10
0.520969
20
1.48777
11
0.531581
21
1.49627
0
LINE
8
BLACK
6
CONTINUOUS
10
0.531581
20
1.49627
11
0.5431
21
1.5035
0
LINE
8
BLACK
6
CONTINUOUS
10
0.5431
20
1.5035
11
0.555373
21
1.50935
0
LINE
8
BLACK
6
CONTINUOUS
10
0.555373
20
1.50935
11
0.568238
21
1.51376
0
LINE
8
BLACK
6
CONTINUOUS
10
0.568238
20
1.51376
11
0.581524
21
1.51666
0
LINE
8
BLACK
6
CONTINUOUS
10
0.581524
20
1.51666
11
0.595054
21
1.51801
0
LINE
8
BLACK
6
CONTINUOUS
10
0.595054
20
1.51801
11
0.60865
21
1.51779
0
LINE
8
BLACK
6
CONTINUOUS
10
0.75
20
0.47
11
0.59
21
0.47
0
LINE
8
BLACK
6
CONTINUOUS
10
0.59
20
0.47
11
0.526453
21
0.406453
0
LINE
8
BLACK
6
CONTINUOUS
10
0.526453
20
0.406453
11
0.524
21
0.405113
0
LINE
8
BLACK
6
CONTINUOUS
10
0.524
20
0.405113
11
0.522945
21
0.405
0
LINE
8
BLACK
6
CONTINUOUS
10
0.522945
20
0.405
11
0.409961
21
0.405
0
LINE
8
BLACK
6
CONTINUOUS
10
0.409961
20
0.405
11
0.407279
21
0.405787
0
LINE
8
BLACK
6
CONTINUOUS
10
0.407279
20
0.405787
11
0.405448
21
0.4079
0
LINE
8
BLACK
6
CONTINUOUS
10
0.405448
20
0.4079
11
0.405
21
0.409961
0
LINE
8
BLACK
6
CONTINUOUS
10
0.405
20
0.409961
11
0.405
21
0.576142
0
LINE
8
BLACK
6
CONTINUOUS
10
0.405
20
0.576142
11
0.404724
21
0.576142
0
LINE
8
BLACK
6
CONTINUOUS
10
0.404724
20
0.576142
11
0.404724
21
0.580157
0
LINE
8
BLACK
6
CONTINUOUS
10
0.404724
20
0.580157
11
0.3325
21
0.580157
0
LINE
8
BLACK
6
CONTINUOUS
10
0.3325
20
0.580157
11
0.3325
21
0.5725
0
LINE
8
BLACK
6
CONTINUOUS
10
0.3325
20
0.5725
11
0.2775
21
0.5725
0
LINE
8
BLACK
6
CONTINUOUS
10
0.2775
20
0.5725
11
0.2775
21
0.580157
0
LINE
8
BLACK
6
CONTINUOUS
10
0.2775
20
0.580157
11
0.2375
21
0.580157
0
LINE
8
BLACK
6
CONTINUOUS
10
0.2375
20
0.580157
11
0.2375
21
0.5725
0
LINE
8
BLACK
6
CONTINUOUS
10
0.2375
20
0.5725
11
0.1825
21
0.5725
0
LINE
8
BLACK
6
CONTINUOUS
10
0.1825
20
0.5725
11
0.1825
21
0.580157
0
LINE
8
BLACK
6
CONTINUOUS
10
0.1825
20
0.580157
11
0.1475
21
0.580157
0
LINE
8
BLACK
6
CONTINUOUS
10
0.1475
20
0.580157
11
0.1475
21
0.5725
0
LINE
8
BLACK
6
CONTINUOUS
10
0.1475
20
0.5725
11
0.0925
21
0.5725
0
LINE
8
BLACK
6
CONTINUOUS
10
0.0925
20
0.5725
11
0.0925
21
0.6075
0
LINE
8
BLACK
6
CONTINUOUS
10
0.0925
20
0.6075
11
0.1475
21
0.6075
0
LINE
8
BLACK
6
CONTINUOUS
10
0.1475
20
0.6075
11
0.1475
21
0.599843
0
LINE
8
BLACK
6
CONTINUOUS
10
0.1475
20
0.599843
11
0.1825
21
0.599843
0
LINE
8
BLACK
6
CONTINUOUS
10
0.1825
20
0.599843
11
0.1825
21
0.6075
0
LINE
8
BLACK
6
CONTINUOUS
10
0.1825
20
0.6075
11
0.2375
21
0.6075
0
LINE
8
BLACK
6
CONTINUOUS
10
0.2375
20
0.6075
11
0.2375
21
0.599843
0
LINE
8
BLACK
6
CONTINUOUS
10
0.2375
20
0.599843
11
0.2775
21
0.599843
0
LINE
8
BLACK
6
CONTINUOUS
10
0.2775
20
0.599843
11
0.2775
21
0.6075
0
LINE
8
BLACK
6
CONTINUOUS
10
0.2775
20
0.6075
11
0.3325
21
0.6075
0
LINE
8
BLACK
6
CONTINUOUS
10
0.3325
20
0.6075
11
0.3325
21
0.599843
0
LINE
8
BLACK
6
CONTINUOUS
10
0.3325
20
0.599843
11
0.404724
21
0.599843
0
LINE
8
BLACK
6
CONTINUOUS
10
0.404724
20
0.599843
11
0.404724
21
0.674567
0
LINE
8
BLACK
6
CONTINUOUS
10
0.404724
20
0.674567
11
0.40797
21
0.674567
0
LINE
8
BLACK
6
CONTINUOUS
10
0.40797
20
0.674567
11
0.409961
21
0.675
0
LINE
8
BLACK
6
CONTINUOUS
10
0.409961
20
0.675
11
0.492945
21
0.675
0
LINE
8
BLACK
6
CONTINUOUS
10
0.492945
20
0.675
11
0.49442
21
0.674567
0
LINE
8
BLACK
6
CONTINUOUS
10
0.49442
20
0.674567
11
0.495276
21
0.674567
0
LINE
8
BLACK
6
CONTINUOUS
10
0.495276
20
0.674567
11
0.495276
21
0.674316
0
LINE
8
BLACK
6
CONTINUOUS
10
0.495276
20
0.674316
11
0.495627
21
0.674213
0
LINE
8
BLACK
6
CONTINUOUS
10
0.495627
20
0.674213
11
0.496453
21
0.673547
0
LINE
8
BLACK
6
CONTINUOUS
10
0.496453
20
0.673547
11
0.54
21
0.63
0
LINE
8
BLACK
6
CONTINUOUS
10
0.54
20
0.63
11
0.75
21
0.63
0
LINE
8
BLACK
6
CONTINUOUS
10
0.75
20
0.63
11
0.75
21
0.47
0
LINE
8
BLACK
6
CONTINUOUS
10
0.20865
20
0.317793
11
0.222132
21
0.316018
0
LINE
8
BLACK
6
CONTINUOUS
10
0.222132
20
0.316018
11
0.23532
21
0.312706
0
LINE
8
BLACK
6
CONTINUOUS
10
0.23532
20
0.312706
11
0.24804
21
0.307899
0
LINE
8
BLACK
6
CONTINUOUS
10
0.24804
20
0.307899
11
0.260123
21
0.301662
0
LINE
8
BLACK
6
CONTINUOUS
10
0.260123
20
0.301662
11
0.271409
21
0.294078
0
LINE
8
BLACK
6
CONTINUOUS
10
0.271409
20
0.294078
11
0.281749
21
0.285247
0
LINE
8
BLACK
6
CONTINUOUS
10
0.281749
20
0.285247
11
0.291006
21
0.275286
0
LINE
8
BLACK
6
CONTINUOUS
10
0.291006
20
0.275286
11
0.299056
21
0.264327
0
LINE
8
BLACK
6
CONTINUOUS
10
0.299056
20
0.264327
11
0.305793
21
0.252516
0
LINE
8
BLACK
6
CONTINUOUS
10
0.305793
20
0.252516
11
0.311128
21
0.240008
0
LINE
8
BLACK
6
CONTINUOUS
10
0.311128
20
0.240008
11
0.31499
21
0.226971
0
LINE
8
BLACK
6
CONTINUOUS
10
0.31499
20
0.226971
11
0.317327
21
0.213575
0
LINE
8
BLACK
6
CONTINUOUS
10
0.317327
20
0.213575
11
0.31811
21
0.2
0
LINE
8
BLACK
6
CONTINUOUS
10
0.31811
20
0.2
11
0.317877
21
0.192584
0
LINE
8
BLACK
6
CONTINUOUS
10
0.317877
20
0.192584
11
0.316244
21
0.179084
0
LINE
8
BLACK
6
CONTINUOUS
10
0.316244
20
0.179084
11
0.313069
21
0.165862
0
LINE
8
BLACK
6
CONTINUOUS
10
0.313069
20
0.165862
11
0.308396
21
0.153093
0
LINE
8
BLACK
6
CONTINUOUS
10
0.308396
20
0.153093
11
0.302286
21
0.140945
0
LINE
8
BLACK
6
CONTINUOUS
10
0.302286
20
0.140945
11
0.294821
21
0.12958
0
LINE
8
BLACK
6
CONTINUOUS
10
0.294821
20
0.12958
11
0.286099
21
0.119148
0
LINE
8
BLACK
6
CONTINUOUS
10
0.286099
20
0.119148
11
0.276235
21
0.109788
0
LINE
8
BLACK
6
CONTINUOUS
10
0.276235
20
0.109788
11
0.265361
21
0.101623
0
LINE
8
BLACK
6
CONTINUOUS
10
0.265361
20
0.101623
11
0.253621
21
0.094763
0
LINE
8
BLACK
6
CONTINUOUS
10
0.253621
20
0.094763
11
0.24117
21
0.0892974
0
LINE
8
BLACK
6
CONTINUOUS
10
0.24117
20
0.0892974
11
0.228173
21
0.0852991
0
LINE
8
BLACK
6
CONTINUOUS
10
0.228173
20
0.0852991
11
0.214803
21
0.0828211
0
LINE
8
BLACK
6
CONTINUOUS
10
0.214803
20
0.0828211
11
0.201237
21
0.0818962
0
LINE
8
BLACK
6
CONTINUOUS
10
0.201237
20
0.0818962
11
0.187654
21
0.0825368
0
LINE
8
BLACK
6
CONTINUOUS
10
0.187654
20
0.0825368
11
0.174235
21
0.0847343
0
LINE
8
BLACK
6
CONTINUOUS
10
0.174235
20
0.0847343
11
0.161157
21
0.0884595
0
LINE
8
BLACK
6
CONTINUOUS
10
0.161157
20
0.0884595
11
0.148595
21
0.0936631
0
LINE
8
BLACK
6
CONTINUOUS
10
0.148595
20
0.0936631
11
0.136713
21
0.100276
0
LINE
8
BLACK
6
CONTINUOUS
10
0.136713
20
0.100276
11
0.125671
21
0.108211
0
LINE
8
BLACK
6
CONTINUOUS
10
0.125671
20
0.108211
11
0.115613
21
0.117363
0
LINE
8
BLACK
6
CONTINUOUS
10
0.115613
20
0.117363
11
0.106675
21
0.127609
0
LINE
8
BLACK
6
CONTINUOUS
10
0.106675
20
0.127609
11
0.0989727
21
0.138816
0
LINE
8
BLACK
6
CONTINUOUS
10
0.0989727
20
0.138816
11
0.0926099
21
0.150833
0
LINE
8
BLACK
6
CONTINUOUS
10
0.0926099
20
0.150833
11
0.0876705
21
0.163502
0
LINE
8
BLACK
6
CONTINUOUS
10
0.0876705
20
0.163502
11
0.0842199
21
0.176655
0
LINE
8
BLACK
6
CONTINUOUS
10
0.0842199
20
0.176655
11
0.082304
21
0.190117
0
LINE
8
BLACK
6
CONTINUOUS
10
0.082304
20
0.190117
11
0.081948
21
0.20371
0
LINE
8
BLACK
6
CONTINUOUS
10
0.081948
20
0.20371
11
0.0831568
21
0.217254
0
LINE
8
BLACK
6
CONTINUOUS
10
0.0831568
20
0.217254
11
0.0859143
21
0.230569
0
LINE
8
BLACK
6
CONTINUOUS
10
0.0859143
20
0.230569
11
0.0901839
21
0.243479
0
LINE
8
BLACK
6
CONTINUOUS
10
0.0901839
20
0.243479
11
0.0959091
21
0.255813
0
LINE
8
BLACK
6
CONTINUOUS
10
0.0959091
20
0.255813
11
0.103014
21
0.267407
0
LINE
8
BLACK
6
CONTINUOUS
10
0.103014
20
0.267407
11
0.111404
21
0.278108
0
LINE
8
BLACK
6
CONTINUOUS
10
0.111404
20
0.278108
11
0.120969
21
0.287773
0
LINE
8
BLACK
6
CONTINUOUS
10
0.120969
20
0.287773
11
0.131581
21
0.296275
0
LINE
8
BLACK
6
CONTINUOUS
10
0.131581
20
0.296275
11
0.1431
21
0.303501
0
LINE
8
BLACK
6
CONTINUOUS
10
0.1431
20
0.303501
11
0.155373
21
0.309355
0
LINE
8
BLACK
6
CONTINUOUS
10
0.155373
20
0.309355
11
0.168238
21
0.313759
0
LINE
8
BLACK
6
CONTINUOUS
10
0.168238
20
0.313759
11
0.181524
21
0.316656
0
LINE
8
BLACK
6
CONTINUOUS
10
0.181524
20
0.316656
11
0.195054
21
0.318007
0
LINE
8
BLACK
6
CONTINUOUS
10
0.195054
20
0.318007
11
0.20865
21
0.317793
0
LINE
8
BLACK
6
CONTINUOUS
10
0.202402
20
0.996142
11
0.202402
21
1.01701
0
LINE
8
BLACK
6
CONTINUOUS
10
0.202402
20
1.01701
11
0.227992
21
1.01701
0
LINE
8
BLACK
6
CONTINUOUS
10
0.227992
20
1.01701
11
0.227992
21
0.955591
0
LINE
8
BLACK
6
CONTINUOUS
10
0.227992
20
0.955591
11
0.202402
21
0.955591
0
LINE
8
BLACK
6
CONTINUOUS
10
0.202402
20
0.955591
11
0.202402
21
0.976457
0
LINE
8
BLACK
6
CONTINUOUS
10
0.202402
20
0.976457
11
0.13
21
0.976457
0
LINE
8
BLACK
6
CONTINUOUS
10
0.13
20
0.976457
11
0.13
21
0.955
0
LINE
8
BLACK
6
CONTINUOUS
10
0.13
20
0.955
11
0.07
21
0.955
0
LINE
8
BLACK
6
CONTINUOUS
10
0.07
20
0.955
11
0.07
21
1.015
0
LINE
8
BLACK
6
CONTINUOUS
10
0.07
20
1.015
11
0.125157
21
1.015
0
LINE
8
BLACK
6
CONTINUOUS
10
0.125157
20
1.015
11
0.125157
21
1.075
0
LINE
8
BLACK
6
CONTINUOUS
10
0.125157
20
1.075
11
0.1075
21
1.075
0
LINE
8
BLACK
6
CONTINUOUS
10
0.1075
20
1.075
11
0.1075
21
1.11
0
LINE
8
BLACK
6
CONTINUOUS
10
0.1075
20
1.11
11
0.1625
21
1.11
0
LINE
8
BLACK
6
CONTINUOUS
10
0.1625
20
1.11
11
0.1625
21
1.075
0
LINE
8
BLACK
6
CONTINUOUS
10
0.1625
20
1.075
11
0.144843
21
1.075
0
LINE
8
BLACK
6
CONTINUOUS
10
0.144843
20
1.075
11
0.144843
21
0.996142
0
LINE
8
BLACK
6
CONTINUOUS
10
0.144843
20
0.996142
11
0.202402
21
0.996142
0
LINE
8
BLACK
6
CONTINUOUS
10
0.227992
20
0.849291
11
0.225039
21
0.849291
0
LINE
8
BLACK
6
CONTINUOUS
10
0.225039
20
0.849291
11
0.225039
21
0.7725
0
LINE
8
BLACK
6
CONTINUOUS
10
0.225039
20
0.7725
11
0.2425
21
0.7725
0
LINE
8
BLACK
6
CONTINUOUS
10
0.2425
20
0.7725
11
0.2425
21
0.7175
0
LINE
8
BLACK
6
CONTINUOUS
10
0.2425
20
0.7175
11
0.234843
21
0.7175
0
LINE
8
BLACK
6
CONTINUOUS
10
0.234843
20
0.7175
11
0.234843
21
0.6825
0
LINE
8
BLACK
6
CONTINUOUS
10
0.234843
20
0.6825
11
0.2375
21
0.6825
0
LINE
8
BLACK
6
CONTINUOUS
10
0.2375
20
0.6825
11
0.2375
21
0.6475
0
LINE
8
BLACK
6
CONTINUOUS
10
0.2375
20
0.6475
11
0.1825
21
0.6475
0
LINE
8
BLACK
6
CONTINUOUS
10
0.1825
20
0.6475
11
0.1825
21
0.655157
0
LINE
8
BLACK
6
CONTINUOUS
10
0.1825
20
0.655157
11
0.1475
21
0.655157
0
LINE
8
BLACK
6
CONTINUOUS
10
0.1475
20
0.655157
11
0.1475
21
0.6475
0
LINE
8
BLACK
6
CONTINUOUS
10
0.1475
20
0.6475
11
0.0925
21
0.6475
0
LINE
8
BLACK
6
CONTINUOUS
10
0.0925
20
0.6475
11
0.0925
21
0.6825
0
LINE
8
BLACK
6
CONTINUOUS
10
0.0925
20
0.6825
11
0.1475
21
0.6825
0
LINE
8
BLACK
6
CONTINUOUS
10
0.1475
20
0.6825
11
0.1475
21
0.674843
0
LINE
8
BLACK
6
CONTINUOUS
10
0.1475
20
0.674843
11
0.1825
21
0.674843
0
LINE
8
BLACK
6
CONTINUOUS
10
0.1825
20
0.674843
11
0.1825
21
0.6825
0
LINE
8
BLACK
6
CONTINUOUS
10
0.1825
20
0.6825
11
0.213581
21
0.6825
0
LINE
8
BLACK
6
CONTINUOUS
10
0.213581
20
0.6825
11
0.215157
21
0.684077
0
LINE
8
BLACK
6
CONTINUOUS
10
0.215157
20
0.684077
11
0.215157
21
0.7175
0
LINE
8
BLACK
6
CONTINUOUS
10
0.215157
20
0.7175
11
0.2075
21
0.7175
0
LINE
8
BLACK
6
CONTINUOUS
10
0.2075
20
0.7175
11
0.2075
21
0.748947
0
LINE
8
BLACK
6
CONTINUOUS
10
0.2075
20
0.748947
11
0.206104
21
0.751037
0
LINE
8
BLACK
6
CONTINUOUS
10
0.206104
20
0.751037
11
0.205354
21
0.754803
0
LINE
8
BLACK
6
CONTINUOUS
10
0.205354
20
0.754803
11
0.205354
21
0.849291
0
LINE
8
BLACK
6
CONTINUOUS
10
0.205354
20
0.849291
11
0.202402
21
0.849291
0
LINE
8
BLACK
6
CONTINUOUS
10
0.202402
20
0.849291
11
0.202402
21
0.910709
0
LINE
8
BLACK
6
CONTINUOUS
10
0.202402
20
0.910709
11
0.227992
21
0.910709
0
LINE
8
BLACK
6
CONTINUOUS
10
0.227992
20
0.910709
11
0.227992
21
0.849291
0
CIRCLE
8
BLACK
10
0.055
20
0.53
40
0.00787402
0
CIRCLE
8
BLACK
10
0.11
20
0.53
40
0.00787402
0
CIRCLE
8
BLACK
10
0.465
20
0.71
40
0.00787402
0
CIRCLE
8
BLACK
10
0.195
20
1.05
40
0.00787402
0
CIRCLE
8
BLACK
10
0.665
20
0.77
40
0.00787402
0
CIRCLE
8
BLACK
10
0.19
20
0.495
40
0.00787402
0
CIRCLE
8
BLACK
10
0.355
20
0.775
40
0.00787402
0
CIRCLE
8
BLACK
10
0.315
20
0.81
40
0.00787402
0
CIRCLE
8
BLACK
10
0.19
20
0.445
40
0.00787402
0
CIRCLE
8
BLACK
10
0.725
20
0.77
40
0.00787402
0
CIRCLE
8
BLACK
10
0.365
20
0.67
40
0.00787402
0
CIRCLE
8
BLACK
10
0.5
20
1.165
40
0.00787402
0
CIRCLE
8
BLACK
10
0.165
20
0.885
40
0.00787402
0
CIRCLE
8
BLACK
10
0.19
20
0.4
40
0.00787402
0
CIRCLE
8
BLACK
10
0.355
20
0.72
40
0.00787402
0
CIRCLE
8
BLACK
10
0.55
20
1.165
40
0.00787402
0
CIRCLE
8
BLACK
10
0.725
20
0.895
40
0.00787402
0
CIRCLE
8
BLACK
10
0.25
20
1.05
40
0.00787402
0
CIRCLE
8
BLACK
10
0.395
20
0.71
40
0.00787402
0
CIRCLE
8
BLACK
10
0.265
20
0.81
40
0.00787402
0
CIRCLE
8
BLACK
10
0.055
20
0.585
40
0.00787402
0
CIRCLE
8
BLACK
10
0.62
20
0.895
40
0.00787402
0
CIRCLE
8
BLACK
10
0.615
20
0.77
40
0.00787402
0
CIRCLE
8
BLACK
10
0.19
20
1.13
40
0.00787402
0
CIRCLE
8
BLACK
10
0.67
20
0.895
40
0.00787402
0
CIRCLE
8
BLACK
10
0.155
20
0.53
40
0.00787402
  0
ENDSEC
  0
EOF
