  0
SECTION
  2
HEADER
  9
$ANGBASE
  50
0.0
  9
$ANGDIR
  70
1
  9
$MEASUREMENT
  70
0
  0
ENDSEC
  0
SECTION
  2
TABLES
  0
TABLE
  2
LTYPE
  70
4
  0
LTYPE
  5
40F
  2
CONTINUOUS
  70
0
  3
Solid line
  72
65
  73
0
  40
0.0
  0
LTYPE
  5
410
  2
DASHDOT
 70
0
  3
Dash Dot ____ _ ____ _
 72
65
 73
4
 40
2.0
 49
1.25
 49
-0.25
 49
0.25
 49
-0.25
  0
LTYPE
  5
411
  2
DASHED
 70
0
  3
Dashed __ __ __ __ __
 72
65
 73
2
 40
0.75
 49
0.5
 49
-0.25
  0
LTYPE
  5
43B
  2
DOTTED
 70
0
  3
Dotted .  .  .  .
 72
65
 73
2
 40
0.2
 49
0.0
 49
-0.2
  0
ENDTAB
  0
TABLE
  2
STYLE
  70
4
  0
STYLE
  2
KICAD
  70
0
  40
0
  41
1
  42
1
  50
0
  71
0
  3
isocp.shx
  0
STYLE
  2
KICADB
  70
0
  40
0
  41
1
  42
1
  50
0
  71
0
  3
isocp.shx
  0
STYLE
  2
KICADI
  70
0
  40
0
  41
1
  42
1
  50
15
  71
0
  3
isocp.shx
  0
STYLE
  2
KICADBI
  70
0
  40
0
  41
1
  42
1
  50
15
  71
0
  3
isocp.shx
  0
ENDTAB
  0
TABLE
  2
LAYER
  70
1
  0
LAYER
  2
BLACK
  70
0
  62
7
  6
CONTINUOUS
  0
ENDTAB
  0
ENDSEC
  0
SECTION
  2
ENTITIES
0
LINE
8
BLACK
6
CONTINUOUS
10
0.49442
20
0.674567
11
0.495276
21
0.674567
0
LINE
8
BLACK
6
CONTINUOUS
10
0.495276
20
0.674567
11
0.495276
21
0.674316
0
LINE
8
BLACK
6
CONTINUOUS
10
0.495276
20
0.674316
11
0.495627
21
0.674213
0
LINE
8
BLACK
6
CONTINUOUS
10
0.495627
20
0.674213
11
0.496453
21
0.673547
0
LINE
8
BLACK
6
CONTINUOUS
10
0.496453
20
0.673547
11
0.54
21
0.63
0
LINE
8
BLACK
6
CONTINUOUS
10
0.54
20
0.63
11
0.54
21
0.63
0
LINE
8
BLACK
6
CONTINUOUS
10
0.54
20
0.63
11
0.59
21
0.63
0
LINE
8
BLACK
6
CONTINUOUS
10
0.59
20
0.63
11
0.65
21
0.63
0
LINE
8
BLACK
6
CONTINUOUS
10
0.65
20
0.63
11
0.69
21
0.63
0
LINE
8
BLACK
6
CONTINUOUS
10
0.69
20
0.63
11
0.75
21
0.63
0
LINE
8
BLACK
6
CONTINUOUS
10
0.75
20
0.63
11
0.75
21
0.625039
0
LINE
8
BLACK
6
CONTINUOUS
10
0.75
20
0.625039
11
0.75
21
0.53
0
LINE
8
BLACK
6
CONTINUOUS
10
0.75
20
0.53
11
0.75
21
0.47
0
LINE
8
BLACK
6
CONTINUOUS
10
0.75
20
0.47
11
0.745039
21
0.47
0
LINE
8
BLACK
6
CONTINUOUS
10
0.745039
20
0.47
11
0.59
21
0.47
0
LINE
8
BLACK
6
CONTINUOUS
10
0.59
20
0.47
11
0.59
21
0.47
0
LINE
8
BLACK
6
CONTINUOUS
10
0.59
20
0.47
11
0.526453
21
0.406453
0
LINE
8
BLACK
6
CONTINUOUS
10
0.526453
20
0.406453
11
0.524
21
0.405113
0
LINE
8
BLACK
6
CONTINUOUS
10
0.524
20
0.405113
11
0.522945
21
0.405
0
LINE
8
BLACK
6
CONTINUOUS
10
0.522945
20
0.405
11
0.409961
21
0.405
0
LINE
8
BLACK
6
CONTINUOUS
10
0.409961
20
0.405
11
0.407279
21
0.405787
0
LINE
8
BLACK
6
CONTINUOUS
10
0.407279
20
0.405787
11
0.405448
21
0.4079
0
LINE
8
BLACK
6
CONTINUOUS
10
0.405448
20
0.4079
11
0.405
21
0.409961
0
LINE
8
BLACK
6
CONTINUOUS
10
0.405
20
0.409961
11
0.405
21
0.576142
0
LINE
8
BLACK
6
CONTINUOUS
10
0.405
20
0.576142
11
0.404724
21
0.576142
0
LINE
8
BLACK
6
CONTINUOUS
10
0.404724
20
0.576142
11
0.404724
21
0.580157
0
LINE
8
BLACK
6
CONTINUOUS
10
0.404724
20
0.580157
11
0.3325
21
0.580157
0
LINE
8
BLACK
6
CONTINUOUS
10
0.3325
20
0.580157
11
0.3325
21
0.5725
0
LINE
8
BLACK
6
CONTINUOUS
10
0.3325
20
0.5725
11
0.2775
21
0.5725
0
LINE
8
BLACK
6
CONTINUOUS
10
0.2775
20
0.5725
11
0.2775
21
0.580157
0
LINE
8
BLACK
6
CONTINUOUS
10
0.2775
20
0.580157
11
0.2375
21
0.580157
0
LINE
8
BLACK
6
CONTINUOUS
10
0.2375
20
0.580157
11
0.2375
21
0.5725
0
LINE
8
BLACK
6
CONTINUOUS
10
0.2375
20
0.5725
11
0.1825
21
0.5725
0
LINE
8
BLACK
6
CONTINUOUS
10
0.1825
20
0.5725
11
0.1825
21
0.580157
0
LINE
8
BLACK
6
CONTINUOUS
10
0.1825
20
0.580157
11
0.1475
21
0.580157
0
LINE
8
BLACK
6
CONTINUOUS
10
0.1475
20
0.580157
11
0.1475
21
0.5725
0
LINE
8
BLACK
6
CONTINUOUS
10
0.1475
20
0.5725
11
0.0925
21
0.5725
0
LINE
8
BLACK
6
CONTINUOUS
10
0.0925
20
0.5725
11
0.0925
21
0.6075
0
LINE
8
BLACK
6
CONTINUOUS
10
0.0925
20
0.6075
11
0.1475
21
0.6075
0
LINE
8
BLACK
6
CONTINUOUS
10
0.1475
20
0.6075
11
0.1475
21
0.599843
0
LINE
8
BLACK
6
CONTINUOUS
10
0.1475
20
0.599843
11
0.1825
21
0.599843
0
LINE
8
BLACK
6
CONTINUOUS
10
0.1825
20
0.599843
11
0.1825
21
0.6075
0
LINE
8
BLACK
6
CONTINUOUS
10
0.1825
20
0.6075
11
0.2375
21
0.6075
0
LINE
8
BLACK
6
CONTINUOUS
10
0.2375
20
0.6075
11
0.2375
21
0.599843
0
LINE
8
BLACK
6
CONTINUOUS
10
0.2375
20
0.599843
11
0.2775
21
0.599843
0
LINE
8
BLACK
6
CONTINUOUS
10
0.2775
20
0.599843
11
0.2775
21
0.6075
0
LINE
8
BLACK
6
CONTINUOUS
10
0.2775
20
0.6075
11
0.3325
21
0.6075
0
LINE
8
BLACK
6
CONTINUOUS
10
0.3325
20
0.6075
11
0.3325
21
0.599843
0
LINE
8
BLACK
6
CONTINUOUS
10
0.3325
20
0.599843
11
0.404724
21
0.599843
0
LINE
8
BLACK
6
CONTINUOUS
10
0.404724
20
0.599843
11
0.404724
21
0.674567
0
LINE
8
BLACK
6
CONTINUOUS
10
0.404724
20
0.674567
11
0.40797
21
0.674567
0
LINE
8
BLACK
6
CONTINUOUS
10
0.40797
20
0.674567
11
0.409961
21
0.675
0
LINE
8
BLACK
6
CONTINUOUS
10
0.409961
20
0.675
11
0.492945
21
0.675
0
LINE
8
BLACK
6
CONTINUOUS
10
0.492945
20
0.675
11
0.49442
21
0.674567
0
LINE
8
BLACK
6
CONTINUOUS
10
0.784749
20
1.58624
11
0.786579
21
1.58413
0
LINE
8
BLACK
6
CONTINUOUS
10
0.786579
20
1.58413
11
0.787028
21
1.58207
0
LINE
8
BLACK
6
CONTINUOUS
10
0.787028
20
1.58207
11
0.787028
21
0.0179331
0
LINE
8
BLACK
6
CONTINUOUS
10
0.787028
20
0.0179331
11
0.78624
21
0.0152511
0
LINE
8
BLACK
6
CONTINUOUS
10
0.78624
20
0.0152511
11
0.784128
21
0.0134207
0
LINE
8
BLACK
6
CONTINUOUS
10
0.784128
20
0.0134207
11
0.782067
21
0.0129724
0
LINE
8
BLACK
6
CONTINUOUS
10
0.782067
20
0.0129724
11
0.0179331
21
0.0129724
0
LINE
8
BLACK
6
CONTINUOUS
10
0.0179331
20
0.0129724
11
0.0152511
21
0.0137599
0
LINE
8
BLACK
6
CONTINUOUS
10
0.0152511
20
0.0137599
11
0.0134207
21
0.0158724
0
LINE
8
BLACK
6
CONTINUOUS
10
0.0134207
20
0.0158724
11
0.0129724
21
0.0179331
0
LINE
8
BLACK
6
CONTINUOUS
10
0.0129724
20
0.0179331
11
0.0129724
21
0.2
0
LINE
8
BLACK
6
CONTINUOUS
10
0.0129724
20
0.2
11
0.0129724
21
0.570734
0
LINE
8
BLACK
6
CONTINUOUS
10
0.0129724
20
0.570734
11
0.0129724
21
0.645734
0
LINE
8
BLACK
6
CONTINUOUS
10
0.0129724
20
0.645734
11
0.0129724
21
0.953234
0
LINE
8
BLACK
6
CONTINUOUS
10
0.0129724
20
0.953234
11
0.0129724
21
1.14823
0
LINE
8
BLACK
6
CONTINUOUS
10
0.0129724
20
1.14823
11
0.0129724
21
1.4
0
LINE
8
BLACK
6
CONTINUOUS
10
0.0129724
20
1.4
11
0.0129724
21
1.58207
0
LINE
8
BLACK
6
CONTINUOUS
10
0.0129724
20
1.58207
11
0.0137599
21
1.58475
0
LINE
8
BLACK
6
CONTINUOUS
10
0.0137599
20
1.58475
11
0.0158724
21
1.58658
0
LINE
8
BLACK
6
CONTINUOUS
10
0.0158724
20
1.58658
11
0.0179331
21
1.58703
0
LINE
8
BLACK
6
CONTINUOUS
10
0.0179331
20
1.58703
11
0.782067
21
1.58703
0
LINE
8
BLACK
6
CONTINUOUS
10
0.782067
20
1.58703
11
0.784749
21
1.58624
0
LINE
8
BLACK
6
CONTINUOUS
10
0.22051
20
0.316316
11
0.233874
21
0.313148
0
LINE
8
BLACK
6
CONTINUOUS
10
0.233874
20
0.313148
11
0.246781
21
0.308451
0
LINE
8
BLACK
6
CONTINUOUS
10
0.246781
20
0.308451
11
0.259055
21
0.302286
0
LINE
8
BLACK
6
CONTINUOUS
10
0.259055
20
0.302286
11
0.270531
21
0.294739
0
LINE
8
BLACK
6
CONTINUOUS
10
0.270531
20
0.294739
11
0.281052
21
0.28591
0
LINE
8
BLACK
6
CONTINUOUS
10
0.281052
20
0.28591
11
0.290478
21
0.27592
0
LINE
8
BLACK
6
CONTINUOUS
10
0.290478
20
0.27592
11
0.29868
21
0.264903
0
LINE
8
BLACK
6
CONTINUOUS
10
0.29868
20
0.264903
11
0.305547
21
0.253008
0
LINE
8
BLACK
6
CONTINUOUS
10
0.305547
20
0.253008
11
0.310987
21
0.240396
0
LINE
8
BLACK
6
CONTINUOUS
10
0.310987
20
0.240396
11
0.314927
21
0.227238
0
LINE
8
BLACK
6
CONTINUOUS
10
0.314927
20
0.227238
11
0.317312
21
0.213712
0
LINE
8
BLACK
6
CONTINUOUS
10
0.317312
20
0.213712
11
0.31811
21
0.2
0
LINE
8
BLACK
6
CONTINUOUS
10
0.31811
20
0.2
11
0.317312
21
0.186288
0
LINE
8
BLACK
6
CONTINUOUS
10
0.317312
20
0.186288
11
0.314927
21
0.172762
0
LINE
8
BLACK
6
CONTINUOUS
10
0.314927
20
0.172762
11
0.310987
21
0.159604
0
LINE
8
BLACK
6
CONTINUOUS
10
0.310987
20
0.159604
11
0.305547
21
0.146992
0
LINE
8
BLACK
6
CONTINUOUS
10
0.305547
20
0.146992
11
0.29868
21
0.135097
0
LINE
8
BLACK
6
CONTINUOUS
10
0.29868
20
0.135097
11
0.290478
21
0.12408
0
LINE
8
BLACK
6
CONTINUOUS
10
0.290478
20
0.12408
11
0.281052
21
0.11409
0
LINE
8
BLACK
6
CONTINUOUS
10
0.281052
20
0.11409
11
0.270531
21
0.105261
0
LINE
8
BLACK
6
CONTINUOUS
10
0.270531
20
0.105261
11
0.259055
21
0.0977135
0
LINE
8
BLACK
6
CONTINUOUS
10
0.259055
20
0.0977135
11
0.246781
21
0.0915493
0
LINE
8
BLACK
6
CONTINUOUS
10
0.246781
20
0.0915493
11
0.233874
21
0.0868516
0
LINE
8
BLACK
6
CONTINUOUS
10
0.233874
20
0.0868516
11
0.22051
21
0.0836841
0
LINE
8
BLACK
6
CONTINUOUS
10
0.22051
20
0.0836841
11
0.206867
21
0.0820896
0
LINE
8
BLACK
6
CONTINUOUS
10
0.206867
20
0.0820896
11
0.193133
21
0.0820896
0
LINE
8
BLACK
6
CONTINUOUS
10
0.193133
20
0.0820896
11
0.17949
21
0.0836841
0
LINE
8
BLACK
6
CONTINUOUS
10
0.17949
20
0.0836841
11
0.166126
21
0.0868516
0
LINE
8
BLACK
6
CONTINUOUS
10
0.166126
20
0.0868516
11
0.153219
21
0.0915493
0
LINE
8
BLACK
6
CONTINUOUS
10
0.153219
20
0.0915493
11
0.140945
21
0.0977135
0
LINE
8
BLACK
6
CONTINUOUS
10
0.140945
20
0.0977135
11
0.129469
21
0.105261
0
LINE
8
BLACK
6
CONTINUOUS
10
0.129469
20
0.105261
11
0.118948
21
0.11409
0
LINE
8
BLACK
6
CONTINUOUS
10
0.118948
20
0.11409
11
0.109522
21
0.12408
0
LINE
8
BLACK
6
CONTINUOUS
10
0.109522
20
0.12408
11
0.10132
21
0.135097
0
LINE
8
BLACK
6
CONTINUOUS
10
0.10132
20
0.135097
11
0.0944528
21
0.146992
0
LINE
8
BLACK
6
CONTINUOUS
10
0.0944528
20
0.146992
11
0.0890127
21
0.159604
0
LINE
8
BLACK
6
CONTINUOUS
10
0.0890127
20
0.159604
11
0.0850734
21
0.172762
0
LINE
8
BLACK
6
CONTINUOUS
10
0.0850734
20
0.172762
11
0.0826884
21
0.186288
0
LINE
8
BLACK
6
CONTINUOUS
10
0.0826884
20
0.186288
11
0.0818898
21
0.2
0
LINE
8
BLACK
6
CONTINUOUS
10
0.0818898
20
0.2
11
0.0826884
21
0.213712
0
LINE
8
BLACK
6
CONTINUOUS
10
0.0826884
20
0.213712
11
0.0850734
21
0.227238
0
LINE
8
BLACK
6
CONTINUOUS
10
0.0850734
20
0.227238
11
0.0890127
21
0.240396
0
LINE
8
BLACK
6
CONTINUOUS
10
0.0890127
20
0.240396
11
0.0944528
21
0.253008
0
LINE
8
BLACK
6
CONTINUOUS
10
0.0944528
20
0.253008
11
0.10132
21
0.264903
0
LINE
8
BLACK
6
CONTINUOUS
10
0.10132
20
0.264903
11
0.109522
21
0.27592
0
LINE
8
BLACK
6
CONTINUOUS
10
0.109522
20
0.27592
11
0.118948
21
0.28591
0
LINE
8
BLACK
6
CONTINUOUS
10
0.118948
20
0.28591
11
0.129469
21
0.294739
0
LINE
8
BLACK
6
CONTINUOUS
10
0.129469
20
0.294739
11
0.140945
21
0.302286
0
LINE
8
BLACK
6
CONTINUOUS
10
0.140945
20
0.302286
11
0.153219
21
0.308451
0
LINE
8
BLACK
6
CONTINUOUS
10
0.153219
20
0.308451
11
0.166126
21
0.313148
0
LINE
8
BLACK
6
CONTINUOUS
10
0.166126
20
0.313148
11
0.17949
21
0.316316
0
LINE
8
BLACK
6
CONTINUOUS
10
0.17949
20
0.316316
11
0.193133
21
0.31791
0
LINE
8
BLACK
6
CONTINUOUS
10
0.193133
20
0.31791
11
0.206867
21
0.31791
0
LINE
8
BLACK
6
CONTINUOUS
10
0.206867
20
0.31791
11
0.22051
21
0.316316
0
LINE
8
BLACK
6
CONTINUOUS
10
0.62051
20
0.316316
11
0.633874
21
0.313148
0
LINE
8
BLACK
6
CONTINUOUS
10
0.633874
20
0.313148
11
0.646781
21
0.308451
0
LINE
8
BLACK
6
CONTINUOUS
10
0.646781
20
0.308451
11
0.659055
21
0.302286
0
LINE
8
BLACK
6
CONTINUOUS
10
0.659055
20
0.302286
11
0.670531
21
0.294739
0
LINE
8
BLACK
6
CONTINUOUS
10
0.670531
20
0.294739
11
0.681052
21
0.28591
0
LINE
8
BLACK
6
CONTINUOUS
10
0.681052
20
0.28591
11
0.690478
21
0.27592
0
LINE
8
BLACK
6
CONTINUOUS
10
0.690478
20
0.27592
11
0.69868
21
0.264903
0
LINE
8
BLACK
6
CONTINUOUS
10
0.69868
20
0.264903
11
0.705547
21
0.253008
0
LINE
8
BLACK
6
CONTINUOUS
10
0.705547
20
0.253008
11
0.710987
21
0.240396
0
LINE
8
BLACK
6
CONTINUOUS
10
0.710987
20
0.240396
11
0.714927
21
0.227238
0
LINE
8
BLACK
6
CONTINUOUS
10
0.714927
20
0.227238
11
0.717312
21
0.213712
0
LINE
8
BLACK
6
CONTINUOUS
10
0.717312
20
0.213712
11
0.71811
21
0.2
0
LINE
8
BLACK
6
CONTINUOUS
10
0.71811
20
0.2
11
0.717312
21
0.186288
0
LINE
8
BLACK
6
CONTINUOUS
10
0.717312
20
0.186288
11
0.714927
21
0.172762
0
LINE
8
BLACK
6
CONTINUOUS
10
0.714927
20
0.172762
11
0.710987
21
0.159604
0
LINE
8
BLACK
6
CONTINUOUS
10
0.710987
20
0.159604
11
0.705547
21
0.146992
0
LINE
8
BLACK
6
CONTINUOUS
10
0.705547
20
0.146992
11
0.69868
21
0.135097
0
LINE
8
BLACK
6
CONTINUOUS
10
0.69868
20
0.135097
11
0.690478
21
0.12408
0
LINE
8
BLACK
6
CONTINUOUS
10
0.690478
20
0.12408
11
0.681052
21
0.11409
0
LINE
8
BLACK
6
CONTINUOUS
10
0.681052
20
0.11409
11
0.670531
21
0.105261
0
LINE
8
BLACK
6
CONTINUOUS
10
0.670531
20
0.105261
11
0.659055
21
0.0977135
0
LINE
8
BLACK
6
CONTINUOUS
10
0.659055
20
0.0977135
11
0.646781
21
0.0915493
0
LINE
8
BLACK
6
CONTINUOUS
10
0.646781
20
0.0915493
11
0.633874
21
0.0868516
0
LINE
8
BLACK
6
CONTINUOUS
10
0.633874
20
0.0868516
11
0.62051
21
0.0836841
0
LINE
8
BLACK
6
CONTINUOUS
10
0.62051
20
0.0836841
11
0.606867
21
0.0820896
0
LINE
8
BLACK
6
CONTINUOUS
10
0.606867
20
0.0820896
11
0.593133
21
0.0820896
0
LINE
8
BLACK
6
CONTINUOUS
10
0.593133
20
0.0820896
11
0.57949
21
0.0836841
0
LINE
8
BLACK
6
CONTINUOUS
10
0.57949
20
0.0836841
11
0.566126
21
0.0868516
0
LINE
8
BLACK
6
CONTINUOUS
10
0.566126
20
0.0868516
11
0.553219
21
0.0915493
0
LINE
8
BLACK
6
CONTINUOUS
10
0.553219
20
0.0915493
11
0.540945
21
0.0977135
0
LINE
8
BLACK
6
CONTINUOUS
10
0.540945
20
0.0977135
11
0.529469
21
0.105261
0
LINE
8
BLACK
6
CONTINUOUS
10
0.529469
20
0.105261
11
0.518948
21
0.11409
0
LINE
8
BLACK
6
CONTINUOUS
10
0.518948
20
0.11409
11
0.509522
21
0.12408
0
LINE
8
BLACK
6
CONTINUOUS
10
0.509522
20
0.12408
11
0.50132
21
0.135097
0
LINE
8
BLACK
6
CONTINUOUS
10
0.50132
20
0.135097
11
0.494453
21
0.146992
0
LINE
8
BLACK
6
CONTINUOUS
10
0.494453
20
0.146992
11
0.489013
21
0.159604
0
LINE
8
BLACK
6
CONTINUOUS
10
0.489013
20
0.159604
11
0.485073
21
0.172762
0
LINE
8
BLACK
6
CONTINUOUS
10
0.485073
20
0.172762
11
0.482688
21
0.186288
0
LINE
8
BLACK
6
CONTINUOUS
10
0.482688
20
0.186288
11
0.48189
21
0.2
0
LINE
8
BLACK
6
CONTINUOUS
10
0.48189
20
0.2
11
0.482688
21
0.213712
0
LINE
8
BLACK
6
CONTINUOUS
10
0.482688
20
0.213712
11
0.485073
21
0.227238
0
LINE
8
BLACK
6
CONTINUOUS
10
0.485073
20
0.227238
11
0.489013
21
0.240396
0
LINE
8
BLACK
6
CONTINUOUS
10
0.489013
20
0.240396
11
0.494453
21
0.253008
0
LINE
8
BLACK
6
CONTINUOUS
10
0.494453
20
0.253008
11
0.50132
21
0.264903
0
LINE
8
BLACK
6
CONTINUOUS
10
0.50132
20
0.264903
11
0.509522
21
0.27592
0
LINE
8
BLACK
6
CONTINUOUS
10
0.509522
20
0.27592
11
0.518948
21
0.28591
0
LINE
8
BLACK
6
CONTINUOUS
10
0.518948
20
0.28591
11
0.529469
21
0.294739
0
LINE
8
BLACK
6
CONTINUOUS
10
0.529469
20
0.294739
11
0.540945
21
0.302286
0
LINE
8
BLACK
6
CONTINUOUS
10
0.540945
20
0.302286
11
0.553219
21
0.308451
0
LINE
8
BLACK
6
CONTINUOUS
10
0.553219
20
0.308451
11
0.566126
21
0.313148
0
LINE
8
BLACK
6
CONTINUOUS
10
0.566126
20
0.313148
11
0.57949
21
0.316316
0
LINE
8
BLACK
6
CONTINUOUS
10
0.57949
20
0.316316
11
0.593133
21
0.31791
0
LINE
8
BLACK
6
CONTINUOUS
10
0.593133
20
0.31791
11
0.606867
21
0.31791
0
LINE
8
BLACK
6
CONTINUOUS
10
0.606867
20
0.31791
11
0.62051
21
0.316316
0
LINE
8
BLACK
6
CONTINUOUS
10
0.40996
20
0.687028
11
0.40996
21
0.687028
0
LINE
8
BLACK
6
CONTINUOUS
10
0.40996
20
0.687028
11
0.409603
21
0.686989
0
LINE
8
BLACK
6
CONTINUOUS
10
0.409603
20
0.686989
11
0.407404
21
0.686753
0
LINE
8
BLACK
6
CONTINUOUS
10
0.407404
20
0.686753
11
0.407404
21
0.686753
0
LINE
8
BLACK
6
CONTINUOUS
10
0.407404
20
0.686753
11
0.406293
21
0.686511
0
LINE
8
BLACK
6
CONTINUOUS
10
0.406293
20
0.686511
11
0.405238
21
0.686398
0
LINE
8
BLACK
6
CONTINUOUS
10
0.405238
20
0.686398
11
0.402958
21
0.686398
0
LINE
8
BLACK
6
CONTINUOUS
10
0.402958
20
0.686398
11
0.401969
21
0.686283
0
LINE
8
BLACK
6
CONTINUOUS
10
0.401969
20
0.686283
11
0.400568
21
0.685664
0
LINE
8
BLACK
6
CONTINUOUS
10
0.400568
20
0.685664
11
0.397923
21
0.684496
0
LINE
8
BLACK
6
CONTINUOUS
10
0.397923
20
0.684496
11
0.394795
21
0.681369
0
LINE
8
BLACK
6
CONTINUOUS
10
0.394795
20
0.681369
11
0.394795
21
0.681369
0
LINE
8
BLACK
6
CONTINUOUS
10
0.394795
20
0.681369
11
0.393008
21
0.677322
0
LINE
8
BLACK
6
CONTINUOUS
10
0.393008
20
0.677322
11
0.392894
21
0.676333
0
LINE
8
BLACK
6
CONTINUOUS
10
0.392894
20
0.676333
11
0.392894
21
0.676333
0
LINE
8
BLACK
6
CONTINUOUS
10
0.392894
20
0.676333
11
0.392894
21
0.676333
0
LINE
8
BLACK
6
CONTINUOUS
10
0.392894
20
0.676333
11
0.392894
21
0.644744
0
LINE
8
BLACK
6
CONTINUOUS
10
0.392894
20
0.644744
11
0.392894
21
0.616634
0
LINE
8
BLACK
6
CONTINUOUS
10
0.392894
20
0.616634
11
0.392106
21
0.613952
0
LINE
8
BLACK
6
CONTINUOUS
10
0.392106
20
0.613952
11
0.389994
21
0.612121
0
LINE
8
BLACK
6
CONTINUOUS
10
0.389994
20
0.612121
11
0.387933
21
0.611673
0
LINE
8
BLACK
6
CONTINUOUS
10
0.387933
20
0.611673
11
0.346822
21
0.611673
0
LINE
8
BLACK
6
CONTINUOUS
10
0.346822
20
0.611673
11
0.34414
21
0.612461
0
LINE
8
BLACK
6
CONTINUOUS
10
0.34414
20
0.612461
11
0.342805
21
0.614002
0
LINE
8
BLACK
6
CONTINUOUS
10
0.342805
20
0.614002
11
0.342689
21
0.613923
0
LINE
8
BLACK
6
CONTINUOUS
10
0.342689
20
0.613923
11
0.342429
21
0.614302
0
LINE
8
BLACK
6
CONTINUOUS
10
0.342429
20
0.614302
11
0.342429
21
0.614302
0
LINE
8
BLACK
6
CONTINUOUS
10
0.342429
20
0.614302
11
0.339302
21
0.617429
0
LINE
8
BLACK
6
CONTINUOUS
10
0.339302
20
0.617429
11
0.335256
21
0.619216
0
LINE
8
BLACK
6
CONTINUOUS
10
0.335256
20
0.619216
11
0.334266
21
0.619331
0
LINE
8
BLACK
6
CONTINUOUS
10
0.334266
20
0.619331
11
0.275734
21
0.619331
0
LINE
8
BLACK
6
CONTINUOUS
10
0.275734
20
0.619331
11
0.274744
21
0.619216
0
LINE
8
BLACK
6
CONTINUOUS
10
0.274744
20
0.619216
11
0.273343
21
0.618597
0
LINE
8
BLACK
6
CONTINUOUS
10
0.273343
20
0.618597
11
0.270698
21
0.617429
0
LINE
8
BLACK
6
CONTINUOUS
10
0.270698
20
0.617429
11
0.267571
21
0.614302
0
LINE
8
BLACK
6
CONTINUOUS
10
0.267571
20
0.614302
11
0.267311
21
0.613923
0
LINE
8
BLACK
6
CONTINUOUS
10
0.267311
20
0.613923
11
0.267189
21
0.614006
0
LINE
8
BLACK
6
CONTINUOUS
10
0.267189
20
0.614006
11
0.265912
21
0.612495
0
LINE
8
BLACK
6
CONTINUOUS
10
0.265912
20
0.612495
11
0.263241
21
0.611674
0
LINE
8
BLACK
6
CONTINUOUS
10
0.263241
20
0.611674
11
0.263178
21
0.611673
0
LINE
8
BLACK
6
CONTINUOUS
10
0.263178
20
0.611673
11
0.251822
21
0.611673
0
LINE
8
BLACK
6
CONTINUOUS
10
0.251822
20
0.611673
11
0.24914
21
0.612461
0
LINE
8
BLACK
6
CONTINUOUS
10
0.24914
20
0.612461
11
0.247805
21
0.614002
0
LINE
8
BLACK
6
CONTINUOUS
10
0.247805
20
0.614002
11
0.247689
21
0.613923
0
LINE
8
BLACK
6
CONTINUOUS
10
0.247689
20
0.613923
11
0.247429
21
0.614302
0
LINE
8
BLACK
6
CONTINUOUS
10
0.247429
20
0.614302
11
0.247429
21
0.614302
0
LINE
8
BLACK
6
CONTINUOUS
10
0.247429
20
0.614302
11
0.244302
21
0.617429
0
LINE
8
BLACK
6
CONTINUOUS
10
0.244302
20
0.617429
11
0.240256
21
0.619216
0
LINE
8
BLACK
6
CONTINUOUS
10
0.240256
20
0.619216
11
0.239266
21
0.619331
0
LINE
8
BLACK
6
CONTINUOUS
10
0.239266
20
0.619331
11
0.180734
21
0.619331
0
LINE
8
BLACK
6
CONTINUOUS
10
0.180734
20
0.619331
11
0.179744
21
0.619216
0
LINE
8
BLACK
6
CONTINUOUS
10
0.179744
20
0.619216
11
0.178343
21
0.618597
0
LINE
8
BLACK
6
CONTINUOUS
10
0.178343
20
0.618597
11
0.175698
21
0.617429
0
LINE
8
BLACK
6
CONTINUOUS
10
0.175698
20
0.617429
11
0.172571
21
0.614302
0
LINE
8
BLACK
6
CONTINUOUS
10
0.172571
20
0.614302
11
0.172311
21
0.613923
0
LINE
8
BLACK
6
CONTINUOUS
10
0.172311
20
0.613923
11
0.172189
21
0.614006
0
LINE
8
BLACK
6
CONTINUOUS
10
0.172189
20
0.614006
11
0.170912
21
0.612495
0
LINE
8
BLACK
6
CONTINUOUS
10
0.170912
20
0.612495
11
0.168241
21
0.611674
0
LINE
8
BLACK
6
CONTINUOUS
10
0.168241
20
0.611674
11
0.168178
21
0.611673
0
LINE
8
BLACK
6
CONTINUOUS
10
0.168178
20
0.611673
11
0.161822
21
0.611673
0
LINE
8
BLACK
6
CONTINUOUS
10
0.161822
20
0.611673
11
0.15914
21
0.612461
0
LINE
8
BLACK
6
CONTINUOUS
10
0.15914
20
0.612461
11
0.157805
21
0.614002
0
LINE
8
BLACK
6
CONTINUOUS
10
0.157805
20
0.614002
11
0.157689
21
0.613923
0
LINE
8
BLACK
6
CONTINUOUS
10
0.157689
20
0.613923
11
0.157429
21
0.614302
0
LINE
8
BLACK
6
CONTINUOUS
10
0.157429
20
0.614302
11
0.157429
21
0.614302
0
LINE
8
BLACK
6
CONTINUOUS
10
0.157429
20
0.614302
11
0.154302
21
0.617429
0
LINE
8
BLACK
6
CONTINUOUS
10
0.154302
20
0.617429
11
0.150256
21
0.619216
0
LINE
8
BLACK
6
CONTINUOUS
10
0.150256
20
0.619216
11
0.149266
21
0.619331
0
LINE
8
BLACK
6
CONTINUOUS
10
0.149266
20
0.619331
11
0.0907337
21
0.619331
0
LINE
8
BLACK
6
CONTINUOUS
10
0.0907337
20
0.619331
11
0.0897444
21
0.619216
0
LINE
8
BLACK
6
CONTINUOUS
10
0.0897444
20
0.619216
11
0.0883434
21
0.618597
0
LINE
8
BLACK
6
CONTINUOUS
10
0.0883434
20
0.618597
11
0.0856982
21
0.617429
0
LINE
8
BLACK
6
CONTINUOUS
10
0.0856982
20
0.617429
11
0.0825707
21
0.614302
0
LINE
8
BLACK
6
CONTINUOUS
10
0.0825707
20
0.614302
11
0.0825706
21
0.614302
0
LINE
8
BLACK
6
CONTINUOUS
10
0.0825706
20
0.614302
11
0.080784
21
0.610256
0
LINE
8
BLACK
6
CONTINUOUS
10
0.080784
20
0.610256
11
0.0806693
21
0.609267
0
LINE
8
BLACK
6
CONTINUOUS
10
0.0806693
20
0.609267
11
0.0806693
21
0.570734
0
LINE
8
BLACK
6
CONTINUOUS
10
0.0806693
20
0.570734
11
0.0806693
21
0.570734
0
LINE
8
BLACK
6
CONTINUOUS
10
0.0806693
20
0.570734
11
0.080784
21
0.569744
0
LINE
8
BLACK
6
CONTINUOUS
10
0.080784
20
0.569744
11
0.0807841
21
0.569744
0
LINE
8
BLACK
6
CONTINUOUS
10
0.0807841
20
0.569744
11
0.0825706
21
0.565698
0
LINE
8
BLACK
6
CONTINUOUS
10
0.0825706
20
0.565698
11
0.0856981
21
0.562571
0
LINE
8
BLACK
6
CONTINUOUS
10
0.0856981
20
0.562571
11
0.0856982
21
0.562571
0
LINE
8
BLACK
6
CONTINUOUS
10
0.0856982
20
0.562571
11
0.0897445
21
0.560784
0
LINE
8
BLACK
6
CONTINUOUS
10
0.0897445
20
0.560784
11
0.0897444
21
0.560784
0
LINE
8
BLACK
6
CONTINUOUS
10
0.0897444
20
0.560784
11
0.0907335
21
0.560669
0
LINE
8
BLACK
6
CONTINUOUS
10
0.0907335
20
0.560669
11
0.0907337
21
0.560669
0
LINE
8
BLACK
6
CONTINUOUS
10
0.0907337
20
0.560669
11
0.149266
21
0.560669
0
LINE
8
BLACK
6
CONTINUOUS
10
0.149266
20
0.560669
11
0.149266
21
0.560669
0
LINE
8
BLACK
6
CONTINUOUS
10
0.149266
20
0.560669
11
0.150256
21
0.560784
0
LINE
8
BLACK
6
CONTINUOUS
10
0.150256
20
0.560784
11
0.150256
21
0.560784
0
LINE
8
BLACK
6
CONTINUOUS
10
0.150256
20
0.560784
11
0.154302
21
0.562571
0
LINE
8
BLACK
6
CONTINUOUS
10
0.154302
20
0.562571
11
0.157429
21
0.565698
0
LINE
8
BLACK
6
CONTINUOUS
10
0.157429
20
0.565698
11
0.157689
21
0.566077
0
LINE
8
BLACK
6
CONTINUOUS
10
0.157689
20
0.566077
11
0.157811
21
0.565994
0
LINE
8
BLACK
6
CONTINUOUS
10
0.157811
20
0.565994
11
0.159088
21
0.567505
0
LINE
8
BLACK
6
CONTINUOUS
10
0.159088
20
0.567505
11
0.161759
21
0.568326
0
LINE
8
BLACK
6
CONTINUOUS
10
0.161759
20
0.568326
11
0.161822
21
0.568327
0
LINE
8
BLACK
6
CONTINUOUS
10
0.161822
20
0.568327
11
0.168178
21
0.568327
0
LINE
8
BLACK
6
CONTINUOUS
10
0.168178
20
0.568327
11
0.17086
21
0.567539
0
LINE
8
BLACK
6
CONTINUOUS
10
0.17086
20
0.567539
11
0.172195
21
0.565998
0
LINE
8
BLACK
6
CONTINUOUS
10
0.172195
20
0.565998
11
0.172311
21
0.566077
0
LINE
8
BLACK
6
CONTINUOUS
10
0.172311
20
0.566077
11
0.172571
21
0.565698
0
LINE
8
BLACK
6
CONTINUOUS
10
0.172571
20
0.565698
11
0.175698
21
0.562571
0
LINE
8
BLACK
6
CONTINUOUS
10
0.175698
20
0.562571
11
0.175698
21
0.562571
0
LINE
8
BLACK
6
CONTINUOUS
10
0.175698
20
0.562571
11
0.179744
21
0.560784
0
LINE
8
BLACK
6
CONTINUOUS
10
0.179744
20
0.560784
11
0.179744
21
0.560784
0
LINE
8
BLACK
6
CONTINUOUS
10
0.179744
20
0.560784
11
0.180734
21
0.560669
0
LINE
8
BLACK
6
CONTINUOUS
10
0.180734
20
0.560669
11
0.180734
21
0.560669
0
LINE
8
BLACK
6
CONTINUOUS
10
0.180734
20
0.560669
11
0.239266
21
0.560669
0
LINE
8
BLACK
6
CONTINUOUS
10
0.239266
20
0.560669
11
0.239266
21
0.560669
0
LINE
8
BLACK
6
CONTINUOUS
10
0.239266
20
0.560669
11
0.240256
21
0.560784
0
LINE
8
BLACK
6
CONTINUOUS
10
0.240256
20
0.560784
11
0.240256
21
0.560784
0
LINE
8
BLACK
6
CONTINUOUS
10
0.240256
20
0.560784
11
0.244302
21
0.562571
0
LINE
8
BLACK
6
CONTINUOUS
10
0.244302
20
0.562571
11
0.247429
21
0.565698
0
LINE
8
BLACK
6
CONTINUOUS
10
0.247429
20
0.565698
11
0.247689
21
0.566077
0
LINE
8
BLACK
6
CONTINUOUS
10
0.247689
20
0.566077
11
0.247811
21
0.565994
0
LINE
8
BLACK
6
CONTINUOUS
10
0.247811
20
0.565994
11
0.249088
21
0.567505
0
LINE
8
BLACK
6
CONTINUOUS
10
0.249088
20
0.567505
11
0.251759
21
0.568326
0
LINE
8
BLACK
6
CONTINUOUS
10
0.251759
20
0.568326
11
0.251822
21
0.568327
0
LINE
8
BLACK
6
CONTINUOUS
10
0.251822
20
0.568327
11
0.263178
21
0.568327
0
LINE
8
BLACK
6
CONTINUOUS
10
0.263178
20
0.568327
11
0.26586
21
0.567539
0
LINE
8
BLACK
6
CONTINUOUS
10
0.26586
20
0.567539
11
0.267195
21
0.565998
0
LINE
8
BLACK
6
CONTINUOUS
10
0.267195
20
0.565998
11
0.267311
21
0.566077
0
LINE
8
BLACK
6
CONTINUOUS
10
0.267311
20
0.566077
11
0.267571
21
0.565698
0
LINE
8
BLACK
6
CONTINUOUS
10
0.267571
20
0.565698
11
0.270698
21
0.562571
0
LINE
8
BLACK
6
CONTINUOUS
10
0.270698
20
0.562571
11
0.270698
21
0.562571
0
LINE
8
BLACK
6
CONTINUOUS
10
0.270698
20
0.562571
11
0.274744
21
0.560784
0
LINE
8
BLACK
6
CONTINUOUS
10
0.274744
20
0.560784
11
0.274744
21
0.560784
0
LINE
8
BLACK
6
CONTINUOUS
10
0.274744
20
0.560784
11
0.275734
21
0.560669
0
LINE
8
BLACK
6
CONTINUOUS
10
0.275734
20
0.560669
11
0.275734
21
0.560669
0
LINE
8
BLACK
6
CONTINUOUS
10
0.275734
20
0.560669
11
0.334266
21
0.560669
0
LINE
8
BLACK
6
CONTINUOUS
10
0.334266
20
0.560669
11
0.334266
21
0.560669
0
LINE
8
BLACK
6
CONTINUOUS
10
0.334266
20
0.560669
11
0.335256
21
0.560784
0
LINE
8
BLACK
6
CONTINUOUS
10
0.335256
20
0.560784
11
0.335256
21
0.560784
0
LINE
8
BLACK
6
CONTINUOUS
10
0.335256
20
0.560784
11
0.339302
21
0.562571
0
LINE
8
BLACK
6
CONTINUOUS
10
0.339302
20
0.562571
11
0.342429
21
0.565698
0
LINE
8
BLACK
6
CONTINUOUS
10
0.342429
20
0.565698
11
0.342689
21
0.566077
0
LINE
8
BLACK
6
CONTINUOUS
10
0.342689
20
0.566077
11
0.342811
21
0.565994
0
LINE
8
BLACK
6
CONTINUOUS
10
0.342811
20
0.565994
11
0.344088
21
0.567505
0
LINE
8
BLACK
6
CONTINUOUS
10
0.344088
20
0.567505
11
0.346759
21
0.568326
0
LINE
8
BLACK
6
CONTINUOUS
10
0.346759
20
0.568326
11
0.346822
21
0.568327
0
LINE
8
BLACK
6
CONTINUOUS
10
0.346822
20
0.568327
11
0.388012
21
0.568327
0
LINE
8
BLACK
6
CONTINUOUS
10
0.388012
20
0.568327
11
0.390694
21
0.567539
0
LINE
8
BLACK
6
CONTINUOUS
10
0.390694
20
0.567539
11
0.392524
21
0.565427
0
LINE
8
BLACK
6
CONTINUOUS
10
0.392524
20
0.565427
11
0.392972
21
0.563366
0
LINE
8
BLACK
6
CONTINUOUS
10
0.392972
20
0.563366
11
0.392972
21
0.40996
0
LINE
8
BLACK
6
CONTINUOUS
10
0.392972
20
0.40996
11
0.393247
21
0.407404
0
LINE
8
BLACK
6
CONTINUOUS
10
0.393247
20
0.407404
11
0.393695
21
0.405344
0
LINE
8
BLACK
6
CONTINUOUS
10
0.393695
20
0.405344
11
0.393696
21
0.405343
0
LINE
8
BLACK
6
CONTINUOUS
10
0.393696
20
0.405343
11
0.394127
21
0.403839
0
LINE
8
BLACK
6
CONTINUOUS
10
0.394127
20
0.403839
11
0.396358
21
0.400024
0
LINE
8
BLACK
6
CONTINUOUS
10
0.396358
20
0.400024
11
0.398189
21
0.397911
0
LINE
8
BLACK
6
CONTINUOUS
10
0.398189
20
0.397911
11
0.398189
21
0.397911
0
LINE
8
BLACK
6
CONTINUOUS
10
0.398189
20
0.397911
11
0.39995
21
0.396251
0
LINE
8
BLACK
6
CONTINUOUS
10
0.39995
20
0.396251
11
0.39995
21
0.39625
0
LINE
8
BLACK
6
CONTINUOUS
10
0.39995
20
0.39625
11
0.40389
21
0.394247
0
LINE
8
BLACK
6
CONTINUOUS
10
0.40389
20
0.394247
11
0.406572
21
0.39346
0
LINE
8
BLACK
6
CONTINUOUS
10
0.406572
20
0.39346
11
0.406573
21
0.39346
0
LINE
8
BLACK
6
CONTINUOUS
10
0.406573
20
0.39346
11
0.40996
21
0.392972
0
LINE
8
BLACK
6
CONTINUOUS
10
0.40996
20
0.392972
11
0.409961
21
0.392972
0
LINE
8
BLACK
6
CONTINUOUS
10
0.409961
20
0.392972
11
0.523268
21
0.392972
0
LINE
8
BLACK
6
CONTINUOUS
10
0.523268
20
0.392972
11
0.52391
21
0.393007
0
LINE
8
BLACK
6
CONTINUOUS
10
0.52391
20
0.393007
11
0.523911
21
0.393007
0
LINE
8
BLACK
6
CONTINUOUS
10
0.523911
20
0.393007
11
0.523911
21
0.393007
0
LINE
8
BLACK
6
CONTINUOUS
10
0.523911
20
0.393007
11
0.524134
21
0.393031
0
LINE
8
BLACK
6
CONTINUOUS
10
0.524134
20
0.393031
11
0.525285
21
0.393155
0
LINE
8
BLACK
6
CONTINUOUS
10
0.525285
20
0.393155
11
0.525462
21
0.393176
0
LINE
8
BLACK
6
CONTINUOUS
10
0.525462
20
0.393176
11
0.525561
21
0.393188
0
LINE
8
BLACK
6
CONTINUOUS
10
0.525561
20
0.393188
11
0.526931
21
0.393634
0
LINE
8
BLACK
6
CONTINUOUS
10
0.526931
20
0.393634
11
0.529764
21
0.394557
0
LINE
8
BLACK
6
CONTINUOUS
10
0.529764
20
0.394557
11
0.532217
21
0.395897
0
LINE
8
BLACK
6
CONTINUOUS
10
0.532217
20
0.395897
11
0.534908
21
0.397911
0
LINE
8
BLACK
6
CONTINUOUS
10
0.534908
20
0.397911
11
0.534958
21
0.397948
0
LINE
8
BLACK
6
CONTINUOUS
10
0.534958
20
0.397948
11
0.593529
21
0.456519
0
LINE
8
BLACK
6
CONTINUOUS
10
0.593529
20
0.456519
11
0.595982
21
0.457859
0
LINE
8
BLACK
6
CONTINUOUS
10
0.595982
20
0.457859
11
0.597037
21
0.457972
0
LINE
8
BLACK
6
CONTINUOUS
10
0.597037
20
0.457972
11
0.745039
21
0.457972
0
LINE
8
BLACK
6
CONTINUOUS
10
0.745039
20
0.457972
11
0.746262
21
0.458104
0
LINE
8
BLACK
6
CONTINUOUS
10
0.746262
20
0.458104
11
0.746739
21
0.458155
0
LINE
8
BLACK
6
CONTINUOUS
10
0.746739
20
0.458155
11
0.747004
21
0.458169
0
LINE
8
BLACK
6
CONTINUOUS
10
0.747004
20
0.458169
11
0.751766
21
0.458169
0
LINE
8
BLACK
6
CONTINUOUS
10
0.751766
20
0.458169
11
0.751766
21
0.458169
0
LINE
8
BLACK
6
CONTINUOUS
10
0.751766
20
0.458169
11
0.752755
21
0.458284
0
LINE
8
BLACK
6
CONTINUOUS
10
0.752755
20
0.458284
11
0.752756
21
0.458284
0
LINE
8
BLACK
6
CONTINUOUS
10
0.752756
20
0.458284
11
0.756802
21
0.460071
0
LINE
8
BLACK
6
CONTINUOUS
10
0.756802
20
0.460071
11
0.759929
21
0.463198
0
LINE
8
BLACK
6
CONTINUOUS
10
0.759929
20
0.463198
11
0.759929
21
0.463198
0
LINE
8
BLACK
6
CONTINUOUS
10
0.759929
20
0.463198
11
0.759929
21
0.463198
0
LINE
8
BLACK
6
CONTINUOUS
10
0.759929
20
0.463198
11
0.761716
21
0.467244
0
LINE
8
BLACK
6
CONTINUOUS
10
0.761716
20
0.467244
11
0.761831
21
0.468234
0
LINE
8
BLACK
6
CONTINUOUS
10
0.761831
20
0.468234
11
0.761831
21
0.473237
0
LINE
8
BLACK
6
CONTINUOUS
10
0.761831
20
0.473237
11
0.761881
21
0.473943
0
LINE
8
BLACK
6
CONTINUOUS
10
0.761881
20
0.473943
11
0.762028
21
0.474961
0
LINE
8
BLACK
6
CONTINUOUS
10
0.762028
20
0.474961
11
0.762028
21
0.625039
0
LINE
8
BLACK
6
CONTINUOUS
10
0.762028
20
0.625039
11
0.762028
21
0.62504
0
LINE
8
BLACK
6
CONTINUOUS
10
0.762028
20
0.62504
11
0.761845
21
0.626738
0
LINE
8
BLACK
6
CONTINUOUS
10
0.761845
20
0.626738
11
0.761831
21
0.627004
0
LINE
8
BLACK
6
CONTINUOUS
10
0.761831
20
0.627004
11
0.761831
21
0.631766
0
LINE
8
BLACK
6
CONTINUOUS
10
0.761831
20
0.631766
11
0.761831
21
0.631766
0
LINE
8
BLACK
6
CONTINUOUS
10
0.761831
20
0.631766
11
0.761716
21
0.632756
0
LINE
8
BLACK
6
CONTINUOUS
10
0.761716
20
0.632756
11
0.759929
21
0.636802
0
LINE
8
BLACK
6
CONTINUOUS
10
0.759929
20
0.636802
11
0.756802
21
0.639929
0
LINE
8
BLACK
6
CONTINUOUS
10
0.756802
20
0.639929
11
0.752756
21
0.641716
0
LINE
8
BLACK
6
CONTINUOUS
10
0.752756
20
0.641716
11
0.751766
21
0.641831
0
LINE
8
BLACK
6
CONTINUOUS
10
0.751766
20
0.641831
11
0.746763
21
0.641831
0
LINE
8
BLACK
6
CONTINUOUS
10
0.746763
20
0.641831
11
0.746057
21
0.641881
0
LINE
8
BLACK
6
CONTINUOUS
10
0.746057
20
0.641881
11
0.745039
21
0.642028
0
LINE
8
BLACK
6
CONTINUOUS
10
0.745039
20
0.642028
11
0.547037
21
0.642028
0
LINE
8
BLACK
6
CONTINUOUS
10
0.547037
20
0.642028
11
0.544355
21
0.642815
0
LINE
8
BLACK
6
CONTINUOUS
10
0.544355
20
0.642815
11
0.543529
21
0.643481
0
LINE
8
BLACK
6
CONTINUOUS
10
0.543529
20
0.643481
11
0.504731
21
0.682279
0
LINE
8
BLACK
6
CONTINUOUS
10
0.504731
20
0.682279
11
0.50473
21
0.68228
0
LINE
8
BLACK
6
CONTINUOUS
10
0.50473
20
0.68228
11
0.504251
21
0.68271
0
LINE
8
BLACK
6
CONTINUOUS
10
0.504251
20
0.68271
11
0.503174
21
0.683577
0
LINE
8
BLACK
6
CONTINUOUS
10
0.503174
20
0.683577
11
0.502956
21
0.68375
0
LINE
8
BLACK
6
CONTINUOUS
10
0.502956
20
0.68375
11
0.502956
21
0.68375
0
LINE
8
BLACK
6
CONTINUOUS
10
0.502956
20
0.68375
11
0.502764
21
0.6839
0
LINE
8
BLACK
6
CONTINUOUS
10
0.502764
20
0.6839
11
0.502773
21
0.683911
0
LINE
8
BLACK
6
CONTINUOUS
10
0.502773
20
0.683911
11
0.502209
21
0.684364
0
LINE
8
BLACK
6
CONTINUOUS
10
0.502209
20
0.684364
11
0.502077
21
0.684496
0
LINE
8
BLACK
6
CONTINUOUS
10
0.502077
20
0.684496
11
0.498031
21
0.686283
0
LINE
8
BLACK
6
CONTINUOUS
10
0.498031
20
0.686283
11
0.497095
21
0.686391
0
LINE
8
BLACK
6
CONTINUOUS
10
0.497095
20
0.686391
11
0.496509
21
0.686511
0
LINE
8
BLACK
6
CONTINUOUS
10
0.496509
20
0.686511
11
0.496507
21
0.686503
0
LINE
8
BLACK
6
CONTINUOUS
10
0.496507
20
0.686503
11
0.496334
21
0.68654
0
LINE
8
BLACK
6
CONTINUOUS
10
0.496334
20
0.68654
11
0.496334
21
0.68654
0
LINE
8
BLACK
6
CONTINUOUS
10
0.496334
20
0.68654
11
0.492945
21
0.687028
0
LINE
8
BLACK
6
CONTINUOUS
10
0.492945
20
0.687028
11
0.409961
21
0.687028
0
LINE
8
BLACK
6
CONTINUOUS
10
0.409961
20
0.687028
11
0.40996
21
0.687028
0
LINE
8
BLACK
6
CONTINUOUS
10
0.227992
20
0.849291
11
0.225039
21
0.849291
0
LINE
8
BLACK
6
CONTINUOUS
10
0.225039
20
0.849291
11
0.225039
21
0.7725
0
LINE
8
BLACK
6
CONTINUOUS
10
0.225039
20
0.7725
11
0.2425
21
0.7725
0
LINE
8
BLACK
6
CONTINUOUS
10
0.2425
20
0.7725
11
0.2425
21
0.7175
0
LINE
8
BLACK
6
CONTINUOUS
10
0.2425
20
0.7175
11
0.234843
21
0.7175
0
LINE
8
BLACK
6
CONTINUOUS
10
0.234843
20
0.7175
11
0.234843
21
0.6825
0
LINE
8
BLACK
6
CONTINUOUS
10
0.234843
20
0.6825
11
0.2375
21
0.6825
0
LINE
8
BLACK
6
CONTINUOUS
10
0.2375
20
0.6825
11
0.2375
21
0.6475
0
LINE
8
BLACK
6
CONTINUOUS
10
0.2375
20
0.6475
11
0.1825
21
0.6475
0
LINE
8
BLACK
6
CONTINUOUS
10
0.1825
20
0.6475
11
0.1825
21
0.655157
0
LINE
8
BLACK
6
CONTINUOUS
10
0.1825
20
0.655157
11
0.1475
21
0.655157
0
LINE
8
BLACK
6
CONTINUOUS
10
0.1475
20
0.655157
11
0.1475
21
0.6475
0
LINE
8
BLACK
6
CONTINUOUS
10
0.1475
20
0.6475
11
0.0925
21
0.6475
0
LINE
8
BLACK
6
CONTINUOUS
10
0.0925
20
0.6475
11
0.0925
21
0.6825
0
LINE
8
BLACK
6
CONTINUOUS
10
0.0925
20
0.6825
11
0.1475
21
0.6825
0
LINE
8
BLACK
6
CONTINUOUS
10
0.1475
20
0.6825
11
0.1475
21
0.674843
0
LINE
8
BLACK
6
CONTINUOUS
10
0.1475
20
0.674843
11
0.1825
21
0.674843
0
LINE
8
BLACK
6
CONTINUOUS
10
0.1825
20
0.674843
11
0.1825
21
0.6825
0
LINE
8
BLACK
6
CONTINUOUS
10
0.1825
20
0.6825
11
0.213581
21
0.6825
0
LINE
8
BLACK
6
CONTINUOUS
10
0.213581
20
0.6825
11
0.215157
21
0.684077
0
LINE
8
BLACK
6
CONTINUOUS
10
0.215157
20
0.684077
11
0.215157
21
0.7175
0
LINE
8
BLACK
6
CONTINUOUS
10
0.215157
20
0.7175
11
0.2075
21
0.7175
0
LINE
8
BLACK
6
CONTINUOUS
10
0.2075
20
0.7175
11
0.2075
21
0.748947
0
LINE
8
BLACK
6
CONTINUOUS
10
0.2075
20
0.748947
11
0.206104
21
0.751037
0
LINE
8
BLACK
6
CONTINUOUS
10
0.206104
20
0.751037
11
0.205354
21
0.754803
0
LINE
8
BLACK
6
CONTINUOUS
10
0.205354
20
0.754803
11
0.205354
21
0.849291
0
LINE
8
BLACK
6
CONTINUOUS
10
0.205354
20
0.849291
11
0.202402
21
0.849291
0
LINE
8
BLACK
6
CONTINUOUS
10
0.202402
20
0.849291
11
0.202402
21
0.910709
0
LINE
8
BLACK
6
CONTINUOUS
10
0.202402
20
0.910709
11
0.227992
21
0.910709
0
LINE
8
BLACK
6
CONTINUOUS
10
0.227992
20
0.910709
11
0.227992
21
0.849291
0
LINE
8
BLACK
6
CONTINUOUS
10
0.52874
20
0.943037
11
0.529552
21
0.9421
0
LINE
8
BLACK
6
CONTINUOUS
10
0.529552
20
0.9421
11
0.53
21
0.940039
0
LINE
8
BLACK
6
CONTINUOUS
10
0.53
20
0.940039
11
0.53
21
0.882055
0
LINE
8
BLACK
6
CONTINUOUS
10
0.53
20
0.882055
11
0.529212
21
0.879373
0
LINE
8
BLACK
6
CONTINUOUS
10
0.529212
20
0.879373
11
0.528547
21
0.878547
0
LINE
8
BLACK
6
CONTINUOUS
10
0.528547
20
0.878547
11
0.495
21
0.845
0
LINE
8
BLACK
6
CONTINUOUS
10
0.495
20
0.845
11
0.495
21
0.843858
0
LINE
8
BLACK
6
CONTINUOUS
10
0.495
20
0.843858
11
0.495276
21
0.843858
0
LINE
8
BLACK
6
CONTINUOUS
10
0.495276
20
0.843858
11
0.495276
21
0.745433
0
LINE
8
BLACK
6
CONTINUOUS
10
0.495276
20
0.745433
11
0.495
21
0.745433
0
LINE
8
BLACK
6
CONTINUOUS
10
0.495
20
0.745433
11
0.495
21
0.739961
0
LINE
8
BLACK
6
CONTINUOUS
10
0.495
20
0.739961
11
0.494213
21
0.737279
0
LINE
8
BLACK
6
CONTINUOUS
10
0.494213
20
0.737279
11
0.4921
21
0.735448
0
LINE
8
BLACK
6
CONTINUOUS
10
0.4921
20
0.735448
11
0.490039
21
0.735
0
LINE
8
BLACK
6
CONTINUOUS
10
0.490039
20
0.735
11
0.477934
21
0.735
0
LINE
8
BLACK
6
CONTINUOUS
10
0.477934
20
0.735
11
0.475628
21
0.735568
0
LINE
8
BLACK
6
CONTINUOUS
10
0.475628
20
0.735568
11
0.474851
21
0.735976
0
LINE
8
BLACK
6
CONTINUOUS
10
0.474851
20
0.735976
11
0.468349
21
0.737579
0
LINE
8
BLACK
6
CONTINUOUS
10
0.468349
20
0.737579
11
0.461651
21
0.737579
0
LINE
8
BLACK
6
CONTINUOUS
10
0.461651
20
0.737579
11
0.461651
21
0.737579
0
LINE
8
BLACK
6
CONTINUOUS
10
0.461651
20
0.737579
11
0.455149
21
0.735976
0
LINE
8
BLACK
6
CONTINUOUS
10
0.455149
20
0.735976
11
0.455149
21
0.735976
0
LINE
8
BLACK
6
CONTINUOUS
10
0.455149
20
0.735976
11
0.455149
21
0.735976
0
LINE
8
BLACK
6
CONTINUOUS
10
0.455149
20
0.735976
11
0.454372
21
0.735568
0
LINE
8
BLACK
6
CONTINUOUS
10
0.454372
20
0.735568
11
0.452066
21
0.735
0
LINE
8
BLACK
6
CONTINUOUS
10
0.452066
20
0.735
11
0.407933
21
0.735
0
LINE
8
BLACK
6
CONTINUOUS
10
0.407933
20
0.735
11
0.405628
21
0.735568
0
LINE
8
BLACK
6
CONTINUOUS
10
0.405628
20
0.735568
11
0.404851
21
0.735976
0
LINE
8
BLACK
6
CONTINUOUS
10
0.404851
20
0.735976
11
0.398773
21
0.737474
0
LINE
8
BLACK
6
CONTINUOUS
10
0.398773
20
0.737474
11
0.396358
21
0.73888
0
LINE
8
BLACK
6
CONTINUOUS
10
0.396358
20
0.73888
11
0.395086
21
0.741369
0
LINE
8
BLACK
6
CONTINUOUS
10
0.395086
20
0.741369
11
0.395
21
0.74229
0
LINE
8
BLACK
6
CONTINUOUS
10
0.395
20
0.74229
11
0.395
21
0.805
0
LINE
8
BLACK
6
CONTINUOUS
10
0.395
20
0.805
11
0.35
21
0.85
0
LINE
8
BLACK
6
CONTINUOUS
10
0.35
20
0.85
11
0.302795
21
0.85
0
LINE
8
BLACK
6
CONTINUOUS
10
0.302795
20
0.85
11
0.302795
21
0.849291
0
LINE
8
BLACK
6
CONTINUOUS
10
0.302795
20
0.849291
11
0.277205
21
0.849291
0
LINE
8
BLACK
6
CONTINUOUS
10
0.277205
20
0.849291
11
0.277205
21
0.910709
0
LINE
8
BLACK
6
CONTINUOUS
10
0.277205
20
0.910709
11
0.302795
21
0.910709
0
LINE
8
BLACK
6
CONTINUOUS
10
0.302795
20
0.910709
11
0.302795
21
0.91
0
LINE
8
BLACK
6
CONTINUOUS
10
0.302795
20
0.91
11
0.335
21
0.91
0
LINE
8
BLACK
6
CONTINUOUS
10
0.335
20
0.91
11
0.368547
21
0.943547
0
LINE
8
BLACK
6
CONTINUOUS
10
0.368547
20
0.943547
11
0.371
21
0.944887
0
LINE
8
BLACK
6
CONTINUOUS
10
0.371
20
0.944887
11
0.37126
21
0.944914
0
LINE
8
BLACK
6
CONTINUOUS
10
0.37126
20
0.944914
11
0.37126
21
0.94563
0
LINE
8
BLACK
6
CONTINUOUS
10
0.37126
20
0.94563
11
0.52874
21
0.94563
0
LINE
8
BLACK
6
CONTINUOUS
10
0.52874
20
0.94563
11
0.52874
21
0.943037
0
LINE
8
BLACK
6
CONTINUOUS
10
0.1625
20
1.075
11
0.144843
21
1.075
0
LINE
8
BLACK
6
CONTINUOUS
10
0.144843
20
1.075
11
0.144843
21
1
0
LINE
8
BLACK
6
CONTINUOUS
10
0.144843
20
1
11
0.144843
21
0.996142
0
LINE
8
BLACK
6
CONTINUOUS
10
0.144843
20
0.996142
11
0.202402
21
0.996142
0
LINE
8
BLACK
6
CONTINUOUS
10
0.202402
20
0.996142
11
0.202402
21
1.01701
0
LINE
8
BLACK
6
CONTINUOUS
10
0.202402
20
1.01701
11
0.227992
21
1.01701
0
LINE
8
BLACK
6
CONTINUOUS
10
0.227992
20
1.01701
11
0.227992
21
0.955591
0
LINE
8
BLACK
6
CONTINUOUS
10
0.227992
20
0.955591
11
0.202402
21
0.955591
0
LINE
8
BLACK
6
CONTINUOUS
10
0.202402
20
0.955591
11
0.202402
21
0.976457
0
LINE
8
BLACK
6
CONTINUOUS
10
0.202402
20
0.976457
11
0.135
21
0.976457
0
LINE
8
BLACK
6
CONTINUOUS
10
0.135
20
0.976457
11
0.13
21
0.976457
0
LINE
8
BLACK
6
CONTINUOUS
10
0.13
20
0.976457
11
0.13
21
0.955
0
LINE
8
BLACK
6
CONTINUOUS
10
0.13
20
0.955
11
0.07
21
0.955
0
LINE
8
BLACK
6
CONTINUOUS
10
0.07
20
0.955
11
0.07
21
1.015
0
LINE
8
BLACK
6
CONTINUOUS
10
0.07
20
1.015
11
0.125157
21
1.015
0
LINE
8
BLACK
6
CONTINUOUS
10
0.125157
20
1.015
11
0.125157
21
1.075
0
LINE
8
BLACK
6
CONTINUOUS
10
0.125157
20
1.075
11
0.1075
21
1.075
0
LINE
8
BLACK
6
CONTINUOUS
10
0.1075
20
1.075
11
0.1075
21
1.11
0
LINE
8
BLACK
6
CONTINUOUS
10
0.1075
20
1.11
11
0.1625
21
1.11
0
LINE
8
BLACK
6
CONTINUOUS
10
0.1625
20
1.11
11
0.1625
21
1.075
0
LINE
8
BLACK
6
CONTINUOUS
10
0.1625
20
1.17734
11
0.2575
21
1.17734
0
LINE
8
BLACK
6
CONTINUOUS
10
0.2575
20
1.17734
11
0.261267
21
1.17659
0
LINE
8
BLACK
6
CONTINUOUS
10
0.261267
20
1.17659
11
0.26446
21
1.17446
0
LINE
8
BLACK
6
CONTINUOUS
10
0.26446
20
1.17446
11
0.303919
21
1.135
0
LINE
8
BLACK
6
CONTINUOUS
10
0.303919
20
1.135
11
0.366535
21
1.135
0
LINE
8
BLACK
6
CONTINUOUS
10
0.366535
20
1.135
11
0.366535
21
1.17669
0
LINE
8
BLACK
6
CONTINUOUS
10
0.366535
20
1.17669
11
0.433465
21
1.17669
0
LINE
8
BLACK
6
CONTINUOUS
10
0.433465
20
1.17669
11
0.433465
21
1.135
0
LINE
8
BLACK
6
CONTINUOUS
10
0.433465
20
1.135
11
0.452945
21
1.135
0
LINE
8
BLACK
6
CONTINUOUS
10
0.452945
20
1.135
11
0.455627
21
1.13421
0
LINE
8
BLACK
6
CONTINUOUS
10
0.455627
20
1.13421
11
0.456453
21
1.13355
0
LINE
8
BLACK
6
CONTINUOUS
10
0.456453
20
1.13355
11
0.495
21
1.095
0
LINE
8
BLACK
6
CONTINUOUS
10
0.495
20
1.095
11
0.495
21
1.095
0
LINE
8
BLACK
6
CONTINUOUS
10
0.495
20
1.095
11
0.59
21
1.09314
0
LINE
8
BLACK
6
CONTINUOUS
10
0.59
20
1.09314
11
0.59
21
1.095
0
LINE
8
BLACK
6
CONTINUOUS
10
0.59
20
1.095
11
0.65
21
1.095
0
LINE
8
BLACK
6
CONTINUOUS
10
0.65
20
1.095
11
0.65
21
1.09196
0
LINE
8
BLACK
6
CONTINUOUS
10
0.65
20
1.09196
11
0.69
21
1.09118
0
LINE
8
BLACK
6
CONTINUOUS
10
0.69
20
1.09118
11
0.69
21
1.095
0
LINE
8
BLACK
6
CONTINUOUS
10
0.69
20
1.095
11
0.75
21
1.095
0
LINE
8
BLACK
6
CONTINUOUS
10
0.75
20
1.095
11
0.75
21
1.035
0
LINE
8
BLACK
6
CONTINUOUS
10
0.75
20
1.035
11
0.745039
21
1.035
0
LINE
8
BLACK
6
CONTINUOUS
10
0.745039
20
1.035
11
0.565
21
1.035
0
LINE
8
BLACK
6
CONTINUOUS
10
0.565
20
1.035
11
0.551453
21
1.02145
0
LINE
8
BLACK
6
CONTINUOUS
10
0.551453
20
1.02145
11
0.549
21
1.02011
0
LINE
8
BLACK
6
CONTINUOUS
10
0.549
20
1.02011
11
0.547945
21
1.02
0
LINE
8
BLACK
6
CONTINUOUS
10
0.547945
20
1.02
11
0.37
21
1.02
0
LINE
8
BLACK
6
CONTINUOUS
10
0.37
20
1.02
11
0.37
21
1.02
0
LINE
8
BLACK
6
CONTINUOUS
10
0.37
20
1.02
11
0.306453
21
0.956453
0
LINE
8
BLACK
6
CONTINUOUS
10
0.306453
20
0.956453
11
0.304
21
0.955113
0
LINE
8
BLACK
6
CONTINUOUS
10
0.304
20
0.955113
11
0.302945
21
0.955
0
LINE
8
BLACK
6
CONTINUOUS
10
0.302945
20
0.955
11
0.279961
21
0.955
0
LINE
8
BLACK
6
CONTINUOUS
10
0.279961
20
0.955
11
0.277949
21
0.955591
0
LINE
8
BLACK
6
CONTINUOUS
10
0.277949
20
0.955591
11
0.277205
21
0.955591
0
LINE
8
BLACK
6
CONTINUOUS
10
0.277205
20
0.955591
11
0.277205
21
0.955873
0
LINE
8
BLACK
6
CONTINUOUS
10
0.277205
20
0.955873
11
0.275448
21
0.9579
0
LINE
8
BLACK
6
CONTINUOUS
10
0.275448
20
0.9579
11
0.275
21
0.959961
0
LINE
8
BLACK
6
CONTINUOUS
10
0.275
20
0.959961
11
0.275
21
1.01295
0
LINE
8
BLACK
6
CONTINUOUS
10
0.275
20
1.01295
11
0.275787
21
1.01563
0
LINE
8
BLACK
6
CONTINUOUS
10
0.275787
20
1.01563
11
0.276453
21
1.01645
0
LINE
8
BLACK
6
CONTINUOUS
10
0.276453
20
1.01645
11
0.29
21
1.03
0
LINE
8
BLACK
6
CONTINUOUS
10
0.29
20
1.03
11
0.29
21
1.03
0
LINE
8
BLACK
6
CONTINUOUS
10
0.29
20
1.03
11
0.29
21
1.12108
0
LINE
8
BLACK
6
CONTINUOUS
10
0.29
20
1.12108
11
0.253423
21
1.15766
0
LINE
8
BLACK
6
CONTINUOUS
10
0.253423
20
1.15766
11
0.1625
21
1.15766
0
LINE
8
BLACK
6
CONTINUOUS
10
0.1625
20
1.15766
11
0.1625
21
1.15
0
LINE
8
BLACK
6
CONTINUOUS
10
0.1625
20
1.15
11
0.1075
21
1.15
0
LINE
8
BLACK
6
CONTINUOUS
10
0.1075
20
1.15
11
0.1075
21
1.185
0
LINE
8
BLACK
6
CONTINUOUS
10
0.1075
20
1.185
11
0.1625
21
1.185
0
LINE
8
BLACK
6
CONTINUOUS
10
0.1625
20
1.185
11
0.1625
21
1.17734
0
LINE
8
BLACK
6
CONTINUOUS
10
0.22051
20
1.51632
11
0.233874
21
1.51315
0
LINE
8
BLACK
6
CONTINUOUS
10
0.233874
20
1.51315
11
0.246781
21
1.50845
0
LINE
8
BLACK
6
CONTINUOUS
10
0.246781
20
1.50845
11
0.259055
21
1.50229
0
LINE
8
BLACK
6
CONTINUOUS
10
0.259055
20
1.50229
11
0.270531
21
1.49474
0
LINE
8
BLACK
6
CONTINUOUS
10
0.270531
20
1.49474
11
0.281052
21
1.48591
0
LINE
8
BLACK
6
CONTINUOUS
10
0.281052
20
1.48591
11
0.290478
21
1.47592
0
LINE
8
BLACK
6
CONTINUOUS
10
0.290478
20
1.47592
11
0.29868
21
1.4649
0
LINE
8
BLACK
6
CONTINUOUS
10
0.29868
20
1.4649
11
0.305547
21
1.45301
0
LINE
8
BLACK
6
CONTINUOUS
10
0.305547
20
1.45301
11
0.310987
21
1.4404
0
LINE
8
BLACK
6
CONTINUOUS
10
0.310987
20
1.4404
11
0.314927
21
1.42724
0
LINE
8
BLACK
6
CONTINUOUS
10
0.314927
20
1.42724
11
0.317312
21
1.41371
0
LINE
8
BLACK
6
CONTINUOUS
10
0.317312
20
1.41371
11
0.31811
21
1.4
0
LINE
8
BLACK
6
CONTINUOUS
10
0.31811
20
1.4
11
0.317312
21
1.38629
0
LINE
8
BLACK
6
CONTINUOUS
10
0.317312
20
1.38629
11
0.314927
21
1.37276
0
LINE
8
BLACK
6
CONTINUOUS
10
0.314927
20
1.37276
11
0.310987
21
1.3596
0
LINE
8
BLACK
6
CONTINUOUS
10
0.310987
20
1.3596
11
0.305547
21
1.34699
0
LINE
8
BLACK
6
CONTINUOUS
10
0.305547
20
1.34699
11
0.29868
21
1.3351
0
LINE
8
BLACK
6
CONTINUOUS
10
0.29868
20
1.3351
11
0.290478
21
1.32408
0
LINE
8
BLACK
6
CONTINUOUS
10
0.290478
20
1.32408
11
0.281052
21
1.31409
0
LINE
8
BLACK
6
CONTINUOUS
10
0.281052
20
1.31409
11
0.270531
21
1.30526
0
LINE
8
BLACK
6
CONTINUOUS
10
0.270531
20
1.30526
11
0.259055
21
1.29771
0
LINE
8
BLACK
6
CONTINUOUS
10
0.259055
20
1.29771
11
0.246781
21
1.29155
0
LINE
8
BLACK
6
CONTINUOUS
10
0.246781
20
1.29155
11
0.233874
21
1.28685
0
LINE
8
BLACK
6
CONTINUOUS
10
0.233874
20
1.28685
11
0.22051
21
1.28368
0
LINE
8
BLACK
6
CONTINUOUS
10
0.22051
20
1.28368
11
0.206867
21
1.28209
0
LINE
8
BLACK
6
CONTINUOUS
10
0.206867
20
1.28209
11
0.193133
21
1.28209
0
LINE
8
BLACK
6
CONTINUOUS
10
0.193133
20
1.28209
11
0.17949
21
1.28368
0
LINE
8
BLACK
6
CONTINUOUS
10
0.17949
20
1.28368
11
0.166126
21
1.28685
0
LINE
8
BLACK
6
CONTINUOUS
10
0.166126
20
1.28685
11
0.153219
21
1.29155
0
LINE
8
BLACK
6
CONTINUOUS
10
0.153219
20
1.29155
11
0.140945
21
1.29771
0
LINE
8
BLACK
6
CONTINUOUS
10
0.140945
20
1.29771
11
0.129469
21
1.30526
0
LINE
8
BLACK
6
CONTINUOUS
10
0.129469
20
1.30526
11
0.118948
21
1.31409
0
LINE
8
BLACK
6
CONTINUOUS
10
0.118948
20
1.31409
11
0.109522
21
1.32408
0
LINE
8
BLACK
6
CONTINUOUS
10
0.109522
20
1.32408
11
0.10132
21
1.3351
0
LINE
8
BLACK
6
CONTINUOUS
10
0.10132
20
1.3351
11
0.0944528
21
1.34699
0
LINE
8
BLACK
6
CONTINUOUS
10
0.0944528
20
1.34699
11
0.0890127
21
1.3596
0
LINE
8
BLACK
6
CONTINUOUS
10
0.0890127
20
1.3596
11
0.0850734
21
1.37276
0
LINE
8
BLACK
6
CONTINUOUS
10
0.0850734
20
1.37276
11
0.0826884
21
1.38629
0
LINE
8
BLACK
6
CONTINUOUS
10
0.0826884
20
1.38629
11
0.0818898
21
1.4
0
LINE
8
BLACK
6
CONTINUOUS
10
0.0818898
20
1.4
11
0.0826884
21
1.41371
0
LINE
8
BLACK
6
CONTINUOUS
10
0.0826884
20
1.41371
11
0.0850734
21
1.42724
0
LINE
8
BLACK
6
CONTINUOUS
10
0.0850734
20
1.42724
11
0.0890127
21
1.4404
0
LINE
8
BLACK
6
CONTINUOUS
10
0.0890127
20
1.4404
11
0.0944528
21
1.45301
0
LINE
8
BLACK
6
CONTINUOUS
10
0.0944528
20
1.45301
11
0.10132
21
1.4649
0
LINE
8
BLACK
6
CONTINUOUS
10
0.10132
20
1.4649
11
0.109522
21
1.47592
0
LINE
8
BLACK
6
CONTINUOUS
10
0.109522
20
1.47592
11
0.118948
21
1.48591
0
LINE
8
BLACK
6
CONTINUOUS
10
0.118948
20
1.48591
11
0.129469
21
1.49474
0
LINE
8
BLACK
6
CONTINUOUS
10
0.129469
20
1.49474
11
0.140945
21
1.50229
0
LINE
8
BLACK
6
CONTINUOUS
10
0.140945
20
1.50229
11
0.153219
21
1.50845
0
LINE
8
BLACK
6
CONTINUOUS
10
0.153219
20
1.50845
11
0.166126
21
1.51315
0
LINE
8
BLACK
6
CONTINUOUS
10
0.166126
20
1.51315
11
0.17949
21
1.51632
0
LINE
8
BLACK
6
CONTINUOUS
10
0.17949
20
1.51632
11
0.193133
21
1.51791
0
LINE
8
BLACK
6
CONTINUOUS
10
0.193133
20
1.51791
11
0.206867
21
1.51791
0
LINE
8
BLACK
6
CONTINUOUS
10
0.206867
20
1.51791
11
0.22051
21
1.51632
0
LINE
8
BLACK
6
CONTINUOUS
10
0.62051
20
1.51632
11
0.633874
21
1.51315
0
LINE
8
BLACK
6
CONTINUOUS
10
0.633874
20
1.51315
11
0.646781
21
1.50845
0
LINE
8
BLACK
6
CONTINUOUS
10
0.646781
20
1.50845
11
0.659055
21
1.50229
0
LINE
8
BLACK
6
CONTINUOUS
10
0.659055
20
1.50229
11
0.670531
21
1.49474
0
LINE
8
BLACK
6
CONTINUOUS
10
0.670531
20
1.49474
11
0.681052
21
1.48591
0
LINE
8
BLACK
6
CONTINUOUS
10
0.681052
20
1.48591
11
0.690478
21
1.47592
0
LINE
8
BLACK
6
CONTINUOUS
10
0.690478
20
1.47592
11
0.69868
21
1.4649
0
LINE
8
BLACK
6
CONTINUOUS
10
0.69868
20
1.4649
11
0.705547
21
1.45301
0
LINE
8
BLACK
6
CONTINUOUS
10
0.705547
20
1.45301
11
0.710987
21
1.4404
0
LINE
8
BLACK
6
CONTINUOUS
10
0.710987
20
1.4404
11
0.714927
21
1.42724
0
LINE
8
BLACK
6
CONTINUOUS
10
0.714927
20
1.42724
11
0.717312
21
1.41371
0
LINE
8
BLACK
6
CONTINUOUS
10
0.717312
20
1.41371
11
0.71811
21
1.4
0
LINE
8
BLACK
6
CONTINUOUS
10
0.71811
20
1.4
11
0.717312
21
1.38629
0
LINE
8
BLACK
6
CONTINUOUS
10
0.717312
20
1.38629
11
0.714927
21
1.37276
0
LINE
8
BLACK
6
CONTINUOUS
10
0.714927
20
1.37276
11
0.710987
21
1.3596
0
LINE
8
BLACK
6
CONTINUOUS
10
0.710987
20
1.3596
11
0.705547
21
1.34699
0
LINE
8
BLACK
6
CONTINUOUS
10
0.705547
20
1.34699
11
0.69868
21
1.3351
0
LINE
8
BLACK
6
CONTINUOUS
10
0.69868
20
1.3351
11
0.690478
21
1.32408
0
LINE
8
BLACK
6
CONTINUOUS
10
0.690478
20
1.32408
11
0.681052
21
1.31409
0
LINE
8
BLACK
6
CONTINUOUS
10
0.681052
20
1.31409
11
0.670531
21
1.30526
0
LINE
8
BLACK
6
CONTINUOUS
10
0.670531
20
1.30526
11
0.659055
21
1.29771
0
LINE
8
BLACK
6
CONTINUOUS
10
0.659055
20
1.29771
11
0.646781
21
1.29155
0
LINE
8
BLACK
6
CONTINUOUS
10
0.646781
20
1.29155
11
0.633874
21
1.28685
0
LINE
8
BLACK
6
CONTINUOUS
10
0.633874
20
1.28685
11
0.62051
21
1.28368
0
LINE
8
BLACK
6
CONTINUOUS
10
0.62051
20
1.28368
11
0.606867
21
1.28209
0
LINE
8
BLACK
6
CONTINUOUS
10
0.606867
20
1.28209
11
0.593133
21
1.28209
0
LINE
8
BLACK
6
CONTINUOUS
10
0.593133
20
1.28209
11
0.57949
21
1.28368
0
LINE
8
BLACK
6
CONTINUOUS
10
0.57949
20
1.28368
11
0.566126
21
1.28685
0
LINE
8
BLACK
6
CONTINUOUS
10
0.566126
20
1.28685
11
0.553219
21
1.29155
0
LINE
8
BLACK
6
CONTINUOUS
10
0.553219
20
1.29155
11
0.540945
21
1.29771
0
LINE
8
BLACK
6
CONTINUOUS
10
0.540945
20
1.29771
11
0.529469
21
1.30526
0
LINE
8
BLACK
6
CONTINUOUS
10
0.529469
20
1.30526
11
0.518948
21
1.31409
0
LINE
8
BLACK
6
CONTINUOUS
10
0.518948
20
1.31409
11
0.509522
21
1.32408
0
LINE
8
BLACK
6
CONTINUOUS
10
0.509522
20
1.32408
11
0.50132
21
1.3351
0
LINE
8
BLACK
6
CONTINUOUS
10
0.50132
20
1.3351
11
0.494453
21
1.34699
0
LINE
8
BLACK
6
CONTINUOUS
10
0.494453
20
1.34699
11
0.489013
21
1.3596
0
LINE
8
BLACK
6
CONTINUOUS
10
0.489013
20
1.3596
11
0.485073
21
1.37276
0
LINE
8
BLACK
6
CONTINUOUS
10
0.485073
20
1.37276
11
0.482688
21
1.38629
0
LINE
8
BLACK
6
CONTINUOUS
10
0.482688
20
1.38629
11
0.48189
21
1.4
0
LINE
8
BLACK
6
CONTINUOUS
10
0.48189
20
1.4
11
0.482688
21
1.41371
0
LINE
8
BLACK
6
CONTINUOUS
10
0.482688
20
1.41371
11
0.485073
21
1.42724
0
LINE
8
BLACK
6
CONTINUOUS
10
0.485073
20
1.42724
11
0.489013
21
1.4404
0
LINE
8
BLACK
6
CONTINUOUS
10
0.489013
20
1.4404
11
0.494453
21
1.45301
0
LINE
8
BLACK
6
CONTINUOUS
10
0.494453
20
1.45301
11
0.50132
21
1.4649
0
LINE
8
BLACK
6
CONTINUOUS
10
0.50132
20
1.4649
11
0.509522
21
1.47592
0
LINE
8
BLACK
6
CONTINUOUS
10
0.509522
20
1.47592
11
0.518948
21
1.48591
0
LINE
8
BLACK
6
CONTINUOUS
10
0.518948
20
1.48591
11
0.529469
21
1.49474
0
LINE
8
BLACK
6
CONTINUOUS
10
0.529469
20
1.49474
11
0.540945
21
1.50229
0
LINE
8
BLACK
6
CONTINUOUS
10
0.540945
20
1.50229
11
0.553219
21
1.50845
0
LINE
8
BLACK
6
CONTINUOUS
10
0.553219
20
1.50845
11
0.566126
21
1.51315
0
LINE
8
BLACK
6
CONTINUOUS
10
0.566126
20
1.51315
11
0.57949
21
1.51632
0
LINE
8
BLACK
6
CONTINUOUS
10
0.57949
20
1.51632
11
0.593133
21
1.51791
0
LINE
8
BLACK
6
CONTINUOUS
10
0.593133
20
1.51791
11
0.606867
21
1.51791
0
LINE
8
BLACK
6
CONTINUOUS
10
0.606867
20
1.51791
11
0.62051
21
1.51632
0
LINE
8
BLACK
6
CONTINUOUS
10
0.0430694
20
0.184544
11
0.0430694
21
0.184543
0
LINE
8
BLACK
6
CONTINUOUS
10
0.0430694
20
0.184543
11
0.04534
21
0.169236
0
LINE
8
BLACK
6
CONTINUOUS
10
0.04534
20
0.169236
11
0.04534
21
0.169236
0
LINE
8
BLACK
6
CONTINUOUS
10
0.04534
20
0.169236
11
0.04722
21
0.161731
0
LINE
8
BLACK
6
CONTINUOUS
10
0.04722
20
0.161731
11
0.0491002
21
0.154225
0
LINE
8
BLACK
6
CONTINUOUS
10
0.0491002
20
0.154225
11
0.0543134
21
0.139655
0
LINE
8
BLACK
6
CONTINUOUS
10
0.0543134
20
0.139655
11
0.06093
21
0.125665
0
LINE
8
BLACK
6
CONTINUOUS
10
0.06093
20
0.125665
11
0.0688857
21
0.112392
0
LINE
8
BLACK
6
CONTINUOUS
10
0.0688857
20
0.112392
11
0.0781037
21
0.0999629
0
LINE
8
BLACK
6
CONTINUOUS
10
0.0781037
20
0.0999629
11
0.0884964
21
0.0884964
0
LINE
8
BLACK
6
CONTINUOUS
10
0.0884964
20
0.0884964
11
0.0999629
21
0.0781037
0
LINE
8
BLACK
6
CONTINUOUS
10
0.0999629
20
0.0781037
11
0.112392
21
0.0688857
0
LINE
8
BLACK
6
CONTINUOUS
10
0.112392
20
0.0688857
11
0.125665
21
0.06093
0
LINE
8
BLACK
6
CONTINUOUS
10
0.125665
20
0.06093
11
0.139655
21
0.0543134
0
LINE
8
BLACK
6
CONTINUOUS
10
0.139655
20
0.0543134
11
0.154225
21
0.0491002
0
LINE
8
BLACK
6
CONTINUOUS
10
0.154225
20
0.0491002
11
0.161731
21
0.04722
0
LINE
8
BLACK
6
CONTINUOUS
10
0.161731
20
0.04722
11
0.169236
21
0.04534
0
LINE
8
BLACK
6
CONTINUOUS
10
0.169236
20
0.04534
11
0.169236
21
0.04534
0
LINE
8
BLACK
6
CONTINUOUS
10
0.169236
20
0.04534
11
0.169236
21
0.04534
0
LINE
8
BLACK
6
CONTINUOUS
10
0.169236
20
0.04534
11
0.184543
21
0.0430694
0
LINE
8
BLACK
6
CONTINUOUS
10
0.184543
20
0.0430694
11
0.184544
21
0.0430694
0
LINE
8
BLACK
6
CONTINUOUS
10
0.184544
20
0.0430694
11
0.184544
21
0.0430694
0
LINE
8
BLACK
6
CONTINUOUS
10
0.184544
20
0.0430694
11
0.191168
21
0.0427439
0
LINE
8
BLACK
6
CONTINUOUS
10
0.191168
20
0.0427439
11
0.2
21
0.04231
0
LINE
8
BLACK
6
CONTINUOUS
10
0.2
20
0.04231
11
0.2
21
0.04231
0
LINE
8
BLACK
6
CONTINUOUS
10
0.2
20
0.04231
11
0.2
21
0.04231
0
LINE
8
BLACK
6
CONTINUOUS
10
0.2
20
0.04231
11
0.207728
21
0.0426897
0
LINE
8
BLACK
6
CONTINUOUS
10
0.207728
20
0.0426897
11
0.215456
21
0.0430694
0
LINE
8
BLACK
6
CONTINUOUS
10
0.215456
20
0.0430694
11
0.215456
21
0.0430694
0
LINE
8
BLACK
6
CONTINUOUS
10
0.215456
20
0.0430694
11
0.215457
21
0.0430694
0
LINE
8
BLACK
6
CONTINUOUS
10
0.215457
20
0.0430694
11
0.230764
21
0.04534
0
LINE
8
BLACK
6
CONTINUOUS
10
0.230764
20
0.04534
11
0.230764
21
0.04534
0
LINE
8
BLACK
6
CONTINUOUS
10
0.230764
20
0.04534
11
0.242008
21
0.0481565
0
LINE
8
BLACK
6
CONTINUOUS
10
0.242008
20
0.0481565
11
0.245775
21
0.0491002
0
LINE
8
BLACK
6
CONTINUOUS
10
0.245775
20
0.0491002
11
0.260345
21
0.0543134
0
LINE
8
BLACK
6
CONTINUOUS
10
0.260345
20
0.0543134
11
0.260345
21
0.0543135
0
LINE
8
BLACK
6
CONTINUOUS
10
0.260345
20
0.0543135
11
0.274335
21
0.0609299
0
LINE
8
BLACK
6
CONTINUOUS
10
0.274335
20
0.0609299
11
0.278805
21
0.0636094
0
LINE
8
BLACK
6
CONTINUOUS
10
0.278805
20
0.0636094
11
0.287608
21
0.0688857
0
LINE
8
BLACK
6
CONTINUOUS
10
0.287608
20
0.0688857
11
0.300037
21
0.0781037
0
LINE
8
BLACK
6
CONTINUOUS
10
0.300037
20
0.0781037
11
0.300037
21
0.078104
0
LINE
8
BLACK
6
CONTINUOUS
10
0.300037
20
0.078104
11
0.311504
21
0.0884964
0
LINE
8
BLACK
6
CONTINUOUS
10
0.311504
20
0.0884964
11
0.321896
21
0.0999626
0
LINE
8
BLACK
6
CONTINUOUS
10
0.321896
20
0.0999626
11
0.321896
21
0.0999626
0
LINE
8
BLACK
6
CONTINUOUS
10
0.321896
20
0.0999626
11
0.321896
21
0.0999629
0
LINE
8
BLACK
6
CONTINUOUS
10
0.321896
20
0.0999629
11
0.331114
21
0.112392
0
LINE
8
BLACK
6
CONTINUOUS
10
0.331114
20
0.112392
11
0.331114
21
0.112392
0
LINE
8
BLACK
6
CONTINUOUS
10
0.331114
20
0.112392
11
0.33907
21
0.125665
0
LINE
8
BLACK
6
CONTINUOUS
10
0.33907
20
0.125665
11
0.345687
21
0.139655
0
LINE
8
BLACK
6
CONTINUOUS
10
0.345687
20
0.139655
11
0.3509
21
0.154225
0
LINE
8
BLACK
6
CONTINUOUS
10
0.3509
20
0.154225
11
0.35466
21
0.169236
0
LINE
8
BLACK
6
CONTINUOUS
10
0.35466
20
0.169236
11
0.356931
21
0.184544
0
LINE
8
BLACK
6
CONTINUOUS
10
0.356931
20
0.184544
11
0.35769
21
0.2
0
LINE
8
BLACK
6
CONTINUOUS
10
0.35769
20
0.2
11
0.35769
21
0.2
0
LINE
8
BLACK
6
CONTINUOUS
10
0.35769
20
0.2
11
0.356931
21
0.215456
0
LINE
8
BLACK
6
CONTINUOUS
10
0.356931
20
0.215456
11
0.35466
21
0.230764
0
LINE
8
BLACK
6
CONTINUOUS
10
0.35466
20
0.230764
11
0.3509
21
0.245775
0
LINE
8
BLACK
6
CONTINUOUS
10
0.3509
20
0.245775
11
0.345687
21
0.260345
0
LINE
8
BLACK
6
CONTINUOUS
10
0.345687
20
0.260345
11
0.33907
21
0.274335
0
LINE
8
BLACK
6
CONTINUOUS
10
0.33907
20
0.274335
11
0.331114
21
0.287608
0
LINE
8
BLACK
6
CONTINUOUS
10
0.331114
20
0.287608
11
0.321896
21
0.300037
0
LINE
8
BLACK
6
CONTINUOUS
10
0.321896
20
0.300037
11
0.311504
21
0.311504
0
LINE
8
BLACK
6
CONTINUOUS
10
0.311504
20
0.311504
11
0.300037
21
0.321896
0
LINE
8
BLACK
6
CONTINUOUS
10
0.300037
20
0.321896
11
0.287608
21
0.331114
0
LINE
8
BLACK
6
CONTINUOUS
10
0.287608
20
0.331114
11
0.274335
21
0.33907
0
LINE
8
BLACK
6
CONTINUOUS
10
0.274335
20
0.33907
11
0.260345
21
0.345687
0
LINE
8
BLACK
6
CONTINUOUS
10
0.260345
20
0.345687
11
0.245775
21
0.3509
0
LINE
8
BLACK
6
CONTINUOUS
10
0.245775
20
0.3509
11
0.230764
21
0.35466
0
LINE
8
BLACK
6
CONTINUOUS
10
0.230764
20
0.35466
11
0.215456
21
0.356931
0
LINE
8
BLACK
6
CONTINUOUS
10
0.215456
20
0.356931
11
0.20218
21
0.357583
0
LINE
8
BLACK
6
CONTINUOUS
10
0.20218
20
0.357583
11
0.2
21
0.35769
0
LINE
8
BLACK
6
CONTINUOUS
10
0.2
20
0.35769
11
0.2
21
0.35769
0
LINE
8
BLACK
6
CONTINUOUS
10
0.2
20
0.35769
11
0.19774
21
0.357579
0
LINE
8
BLACK
6
CONTINUOUS
10
0.19774
20
0.357579
11
0.184544
21
0.356931
0
LINE
8
BLACK
6
CONTINUOUS
10
0.184544
20
0.356931
11
0.169236
21
0.35466
0
LINE
8
BLACK
6
CONTINUOUS
10
0.169236
20
0.35466
11
0.154225
21
0.3509
0
LINE
8
BLACK
6
CONTINUOUS
10
0.154225
20
0.3509
11
0.139655
21
0.345687
0
LINE
8
BLACK
6
CONTINUOUS
10
0.139655
20
0.345687
11
0.125665
21
0.33907
0
LINE
8
BLACK
6
CONTINUOUS
10
0.125665
20
0.33907
11
0.112392
21
0.331114
0
LINE
8
BLACK
6
CONTINUOUS
10
0.112392
20
0.331114
11
0.112392
21
0.331114
0
LINE
8
BLACK
6
CONTINUOUS
10
0.112392
20
0.331114
11
0.0999629
21
0.321896
0
LINE
8
BLACK
6
CONTINUOUS
10
0.0999629
20
0.321896
11
0.0999626
21
0.321896
0
LINE
8
BLACK
6
CONTINUOUS
10
0.0999626
20
0.321896
11
0.0999626
21
0.321896
0
LINE
8
BLACK
6
CONTINUOUS
10
0.0999626
20
0.321896
11
0.0884964
21
0.311504
0
LINE
8
BLACK
6
CONTINUOUS
10
0.0884964
20
0.311504
11
0.078104
21
0.300037
0
LINE
8
BLACK
6
CONTINUOUS
10
0.078104
20
0.300037
11
0.0781037
21
0.300037
0
LINE
8
BLACK
6
CONTINUOUS
10
0.0781037
20
0.300037
11
0.0688857
21
0.287608
0
LINE
8
BLACK
6
CONTINUOUS
10
0.0688857
20
0.287608
11
0.0688856
21
0.287608
0
LINE
8
BLACK
6
CONTINUOUS
10
0.0688856
20
0.287608
11
0.0609299
21
0.274335
0
LINE
8
BLACK
6
CONTINUOUS
10
0.0609299
20
0.274335
11
0.0543135
21
0.260345
0
LINE
8
BLACK
6
CONTINUOUS
10
0.0543135
20
0.260345
11
0.0543134
21
0.260345
0
LINE
8
BLACK
6
CONTINUOUS
10
0.0543134
20
0.260345
11
0.0491002
21
0.245775
0
LINE
8
BLACK
6
CONTINUOUS
10
0.0491002
20
0.245775
11
0.0491001
21
0.245775
0
LINE
8
BLACK
6
CONTINUOUS
10
0.0491001
20
0.245775
11
0.04534
21
0.230764
0
LINE
8
BLACK
6
CONTINUOUS
10
0.04534
20
0.230764
11
0.04534
21
0.230764
0
LINE
8
BLACK
6
CONTINUOUS
10
0.04534
20
0.230764
11
0.0430694
21
0.215457
0
LINE
8
BLACK
6
CONTINUOUS
10
0.0430694
20
0.215457
11
0.0430694
21
0.215456
0
LINE
8
BLACK
6
CONTINUOUS
10
0.0430694
20
0.215456
11
0.04231
21
0.2
0
LINE
8
BLACK
6
CONTINUOUS
10
0.04231
20
0.2
11
0.04231
21
0.2
0
LINE
8
BLACK
6
CONTINUOUS
10
0.04231
20
0.2
11
0.0430694
21
0.184544
0
LINE
8
BLACK
6
CONTINUOUS
10
0.443069
20
0.184544
11
0.443069
21
0.184543
0
LINE
8
BLACK
6
CONTINUOUS
10
0.443069
20
0.184543
11
0.44534
21
0.169236
0
LINE
8
BLACK
6
CONTINUOUS
10
0.44534
20
0.169236
11
0.44534
21
0.169236
0
LINE
8
BLACK
6
CONTINUOUS
10
0.44534
20
0.169236
11
0.44722
21
0.161731
0
LINE
8
BLACK
6
CONTINUOUS
10
0.44722
20
0.161731
11
0.4491
21
0.154225
0
LINE
8
BLACK
6
CONTINUOUS
10
0.4491
20
0.154225
11
0.454313
21
0.139655
0
LINE
8
BLACK
6
CONTINUOUS
10
0.454313
20
0.139655
11
0.46093
21
0.125665
0
LINE
8
BLACK
6
CONTINUOUS
10
0.46093
20
0.125665
11
0.468886
21
0.112392
0
LINE
8
BLACK
6
CONTINUOUS
10
0.468886
20
0.112392
11
0.478104
21
0.0999629
0
LINE
8
BLACK
6
CONTINUOUS
10
0.478104
20
0.0999629
11
0.488496
21
0.0884964
0
LINE
8
BLACK
6
CONTINUOUS
10
0.488496
20
0.0884964
11
0.499963
21
0.0781037
0
LINE
8
BLACK
6
CONTINUOUS
10
0.499963
20
0.0781037
11
0.512392
21
0.0688857
0
LINE
8
BLACK
6
CONTINUOUS
10
0.512392
20
0.0688857
11
0.525665
21
0.06093
0
LINE
8
BLACK
6
CONTINUOUS
10
0.525665
20
0.06093
11
0.539655
21
0.0543134
0
LINE
8
BLACK
6
CONTINUOUS
10
0.539655
20
0.0543134
11
0.554225
21
0.0491002
0
LINE
8
BLACK
6
CONTINUOUS
10
0.554225
20
0.0491002
11
0.561731
21
0.04722
0
LINE
8
BLACK
6
CONTINUOUS
10
0.561731
20
0.04722
11
0.569236
21
0.04534
0
LINE
8
BLACK
6
CONTINUOUS
10
0.569236
20
0.04534
11
0.569236
21
0.04534
0
LINE
8
BLACK
6
CONTINUOUS
10
0.569236
20
0.04534
11
0.569236
21
0.04534
0
LINE
8
BLACK
6
CONTINUOUS
10
0.569236
20
0.04534
11
0.584543
21
0.0430694
0
LINE
8
BLACK
6
CONTINUOUS
10
0.584543
20
0.0430694
11
0.584544
21
0.0430694
0
LINE
8
BLACK
6
CONTINUOUS
10
0.584544
20
0.0430694
11
0.584544
21
0.0430694
0
LINE
8
BLACK
6
CONTINUOUS
10
0.584544
20
0.0430694
11
0.591168
21
0.0427439
0
LINE
8
BLACK
6
CONTINUOUS
10
0.591168
20
0.0427439
11
0.6
21
0.04231
0
LINE
8
BLACK
6
CONTINUOUS
10
0.6
20
0.04231
11
0.6
21
0.04231
0
LINE
8
BLACK
6
CONTINUOUS
10
0.6
20
0.04231
11
0.6
21
0.04231
0
LINE
8
BLACK
6
CONTINUOUS
10
0.6
20
0.04231
11
0.607728
21
0.0426897
0
LINE
8
BLACK
6
CONTINUOUS
10
0.607728
20
0.0426897
11
0.615456
21
0.0430694
0
LINE
8
BLACK
6
CONTINUOUS
10
0.615456
20
0.0430694
11
0.615456
21
0.0430694
0
LINE
8
BLACK
6
CONTINUOUS
10
0.615456
20
0.0430694
11
0.615457
21
0.0430694
0
LINE
8
BLACK
6
CONTINUOUS
10
0.615457
20
0.0430694
11
0.630764
21
0.04534
0
LINE
8
BLACK
6
CONTINUOUS
10
0.630764
20
0.04534
11
0.630764
21
0.04534
0
LINE
8
BLACK
6
CONTINUOUS
10
0.630764
20
0.04534
11
0.642008
21
0.0481565
0
LINE
8
BLACK
6
CONTINUOUS
10
0.642008
20
0.0481565
11
0.645775
21
0.0491002
0
LINE
8
BLACK
6
CONTINUOUS
10
0.645775
20
0.0491002
11
0.660345
21
0.0543134
0
LINE
8
BLACK
6
CONTINUOUS
10
0.660345
20
0.0543134
11
0.660345
21
0.0543135
0
LINE
8
BLACK
6
CONTINUOUS
10
0.660345
20
0.0543135
11
0.674335
21
0.0609299
0
LINE
8
BLACK
6
CONTINUOUS
10
0.674335
20
0.0609299
11
0.678805
21
0.0636094
0
LINE
8
BLACK
6
CONTINUOUS
10
0.678805
20
0.0636094
11
0.687608
21
0.0688857
0
LINE
8
BLACK
6
CONTINUOUS
10
0.687608
20
0.0688857
11
0.700037
21
0.0781037
0
LINE
8
BLACK
6
CONTINUOUS
10
0.700037
20
0.0781037
11
0.700037
21
0.078104
0
LINE
8
BLACK
6
CONTINUOUS
10
0.700037
20
0.078104
11
0.711504
21
0.0884964
0
LINE
8
BLACK
6
CONTINUOUS
10
0.711504
20
0.0884964
11
0.721896
21
0.0999626
0
LINE
8
BLACK
6
CONTINUOUS
10
0.721896
20
0.0999626
11
0.721896
21
0.0999626
0
LINE
8
BLACK
6
CONTINUOUS
10
0.721896
20
0.0999626
11
0.721896
21
0.0999629
0
LINE
8
BLACK
6
CONTINUOUS
10
0.721896
20
0.0999629
11
0.731114
21
0.112392
0
LINE
8
BLACK
6
CONTINUOUS
10
0.731114
20
0.112392
11
0.731114
21
0.112392
0
LINE
8
BLACK
6
CONTINUOUS
10
0.731114
20
0.112392
11
0.73907
21
0.125665
0
LINE
8
BLACK
6
CONTINUOUS
10
0.73907
20
0.125665
11
0.745687
21
0.139655
0
LINE
8
BLACK
6
CONTINUOUS
10
0.745687
20
0.139655
11
0.7509
21
0.154225
0
LINE
8
BLACK
6
CONTINUOUS
10
0.7509
20
0.154225
11
0.75466
21
0.169236
0
LINE
8
BLACK
6
CONTINUOUS
10
0.75466
20
0.169236
11
0.756931
21
0.184544
0
LINE
8
BLACK
6
CONTINUOUS
10
0.756931
20
0.184544
11
0.75769
21
0.2
0
LINE
8
BLACK
6
CONTINUOUS
10
0.75769
20
0.2
11
0.756931
21
0.215456
0
LINE
8
BLACK
6
CONTINUOUS
10
0.756931
20
0.215456
11
0.75466
21
0.230764
0
LINE
8
BLACK
6
CONTINUOUS
10
0.75466
20
0.230764
11
0.7509
21
0.245775
0
LINE
8
BLACK
6
CONTINUOUS
10
0.7509
20
0.245775
11
0.745687
21
0.260345
0
LINE
8
BLACK
6
CONTINUOUS
10
0.745687
20
0.260345
11
0.73907
21
0.274335
0
LINE
8
BLACK
6
CONTINUOUS
10
0.73907
20
0.274335
11
0.731114
21
0.287608
0
LINE
8
BLACK
6
CONTINUOUS
10
0.731114
20
0.287608
11
0.721896
21
0.300037
0
LINE
8
BLACK
6
CONTINUOUS
10
0.721896
20
0.300037
11
0.711504
21
0.311504
0
LINE
8
BLACK
6
CONTINUOUS
10
0.711504
20
0.311504
11
0.700037
21
0.321896
0
LINE
8
BLACK
6
CONTINUOUS
10
0.700037
20
0.321896
11
0.687608
21
0.331114
0
LINE
8
BLACK
6
CONTINUOUS
10
0.687608
20
0.331114
11
0.674335
21
0.33907
0
LINE
8
BLACK
6
CONTINUOUS
10
0.674335
20
0.33907
11
0.660345
21
0.345687
0
LINE
8
BLACK
6
CONTINUOUS
10
0.660345
20
0.345687
11
0.645775
21
0.3509
0
LINE
8
BLACK
6
CONTINUOUS
10
0.645775
20
0.3509
11
0.630764
21
0.35466
0
LINE
8
BLACK
6
CONTINUOUS
10
0.630764
20
0.35466
11
0.615456
21
0.356931
0
LINE
8
BLACK
6
CONTINUOUS
10
0.615456
20
0.356931
11
0.60218
21
0.357583
0
LINE
8
BLACK
6
CONTINUOUS
10
0.60218
20
0.357583
11
0.6
21
0.35769
0
LINE
8
BLACK
6
CONTINUOUS
10
0.6
20
0.35769
11
0.6
21
0.35769
0
LINE
8
BLACK
6
CONTINUOUS
10
0.6
20
0.35769
11
0.59774
21
0.357579
0
LINE
8
BLACK
6
CONTINUOUS
10
0.59774
20
0.357579
11
0.584544
21
0.356931
0
LINE
8
BLACK
6
CONTINUOUS
10
0.584544
20
0.356931
11
0.569236
21
0.35466
0
LINE
8
BLACK
6
CONTINUOUS
10
0.569236
20
0.35466
11
0.554225
21
0.3509
0
LINE
8
BLACK
6
CONTINUOUS
10
0.554225
20
0.3509
11
0.539655
21
0.345687
0
LINE
8
BLACK
6
CONTINUOUS
10
0.539655
20
0.345687
11
0.525665
21
0.33907
0
LINE
8
BLACK
6
CONTINUOUS
10
0.525665
20
0.33907
11
0.512392
21
0.331114
0
LINE
8
BLACK
6
CONTINUOUS
10
0.512392
20
0.331114
11
0.512392
21
0.331114
0
LINE
8
BLACK
6
CONTINUOUS
10
0.512392
20
0.331114
11
0.499963
21
0.321896
0
LINE
8
BLACK
6
CONTINUOUS
10
0.499963
20
0.321896
11
0.499963
21
0.321896
0
LINE
8
BLACK
6
CONTINUOUS
10
0.499963
20
0.321896
11
0.499963
21
0.321896
0
LINE
8
BLACK
6
CONTINUOUS
10
0.499963
20
0.321896
11
0.488496
21
0.311504
0
LINE
8
BLACK
6
CONTINUOUS
10
0.488496
20
0.311504
11
0.478104
21
0.300037
0
LINE
8
BLACK
6
CONTINUOUS
10
0.478104
20
0.300037
11
0.478104
21
0.300037
0
LINE
8
BLACK
6
CONTINUOUS
10
0.478104
20
0.300037
11
0.468886
21
0.287608
0
LINE
8
BLACK
6
CONTINUOUS
10
0.468886
20
0.287608
11
0.468886
21
0.287608
0
LINE
8
BLACK
6
CONTINUOUS
10
0.468886
20
0.287608
11
0.46093
21
0.274335
0
LINE
8
BLACK
6
CONTINUOUS
10
0.46093
20
0.274335
11
0.454313
21
0.260345
0
LINE
8
BLACK
6
CONTINUOUS
10
0.454313
20
0.260345
11
0.454313
21
0.260345
0
LINE
8
BLACK
6
CONTINUOUS
10
0.454313
20
0.260345
11
0.4491
21
0.245775
0
LINE
8
BLACK
6
CONTINUOUS
10
0.4491
20
0.245775
11
0.4491
21
0.245775
0
LINE
8
BLACK
6
CONTINUOUS
10
0.4491
20
0.245775
11
0.44534
21
0.230764
0
LINE
8
BLACK
6
CONTINUOUS
10
0.44534
20
0.230764
11
0.44534
21
0.230764
0
LINE
8
BLACK
6
CONTINUOUS
10
0.44534
20
0.230764
11
0.443069
21
0.215457
0
LINE
8
BLACK
6
CONTINUOUS
10
0.443069
20
0.215457
11
0.443069
21
0.215456
0
LINE
8
BLACK
6
CONTINUOUS
10
0.443069
20
0.215456
11
0.44231
21
0.2
0
LINE
8
BLACK
6
CONTINUOUS
10
0.44231
20
0.2
11
0.44231
21
0.2
0
LINE
8
BLACK
6
CONTINUOUS
10
0.44231
20
0.2
11
0.443069
21
0.184544
0
LINE
8
BLACK
6
CONTINUOUS
10
0.0806693
20
0.645734
11
0.080784
21
0.644744
0
LINE
8
BLACK
6
CONTINUOUS
10
0.080784
20
0.644744
11
0.0807841
21
0.644744
0
LINE
8
BLACK
6
CONTINUOUS
10
0.0807841
20
0.644744
11
0.0825706
21
0.640698
0
LINE
8
BLACK
6
CONTINUOUS
10
0.0825706
20
0.640698
11
0.0856981
21
0.637571
0
LINE
8
BLACK
6
CONTINUOUS
10
0.0856981
20
0.637571
11
0.0856982
21
0.637571
0
LINE
8
BLACK
6
CONTINUOUS
10
0.0856982
20
0.637571
11
0.0897445
21
0.635784
0
LINE
8
BLACK
6
CONTINUOUS
10
0.0897445
20
0.635784
11
0.0897444
21
0.635784
0
LINE
8
BLACK
6
CONTINUOUS
10
0.0897444
20
0.635784
11
0.0907335
21
0.635669
0
LINE
8
BLACK
6
CONTINUOUS
10
0.0907335
20
0.635669
11
0.0907337
21
0.635669
0
LINE
8
BLACK
6
CONTINUOUS
10
0.0907337
20
0.635669
11
0.149266
21
0.635669
0
LINE
8
BLACK
6
CONTINUOUS
10
0.149266
20
0.635669
11
0.149266
21
0.635669
0
LINE
8
BLACK
6
CONTINUOUS
10
0.149266
20
0.635669
11
0.150256
21
0.635784
0
LINE
8
BLACK
6
CONTINUOUS
10
0.150256
20
0.635784
11
0.150256
21
0.635784
0
LINE
8
BLACK
6
CONTINUOUS
10
0.150256
20
0.635784
11
0.154302
21
0.637571
0
LINE
8
BLACK
6
CONTINUOUS
10
0.154302
20
0.637571
11
0.157429
21
0.640698
0
LINE
8
BLACK
6
CONTINUOUS
10
0.157429
20
0.640698
11
0.157689
21
0.641077
0
LINE
8
BLACK
6
CONTINUOUS
10
0.157689
20
0.641077
11
0.157811
21
0.640994
0
LINE
8
BLACK
6
CONTINUOUS
10
0.157811
20
0.640994
11
0.159088
21
0.642505
0
LINE
8
BLACK
6
CONTINUOUS
10
0.159088
20
0.642505
11
0.161759
21
0.643326
0
LINE
8
BLACK
6
CONTINUOUS
10
0.161759
20
0.643326
11
0.161822
21
0.643327
0
LINE
8
BLACK
6
CONTINUOUS
10
0.161822
20
0.643327
11
0.168178
21
0.643327
0
LINE
8
BLACK
6
CONTINUOUS
10
0.168178
20
0.643327
11
0.17086
21
0.642539
0
LINE
8
BLACK
6
CONTINUOUS
10
0.17086
20
0.642539
11
0.172195
21
0.640998
0
LINE
8
BLACK
6
CONTINUOUS
10
0.172195
20
0.640998
11
0.172311
21
0.641077
0
LINE
8
BLACK
6
CONTINUOUS
10
0.172311
20
0.641077
11
0.172571
21
0.640698
0
LINE
8
BLACK
6
CONTINUOUS
10
0.172571
20
0.640698
11
0.175698
21
0.637571
0
LINE
8
BLACK
6
CONTINUOUS
10
0.175698
20
0.637571
11
0.175698
21
0.637571
0
LINE
8
BLACK
6
CONTINUOUS
10
0.175698
20
0.637571
11
0.179744
21
0.635784
0
LINE
8
BLACK
6
CONTINUOUS
10
0.179744
20
0.635784
11
0.179744
21
0.635784
0
LINE
8
BLACK
6
CONTINUOUS
10
0.179744
20
0.635784
11
0.180734
21
0.635669
0
LINE
8
BLACK
6
CONTINUOUS
10
0.180734
20
0.635669
11
0.180734
21
0.635669
0
LINE
8
BLACK
6
CONTINUOUS
10
0.180734
20
0.635669
11
0.239266
21
0.635669
0
LINE
8
BLACK
6
CONTINUOUS
10
0.239266
20
0.635669
11
0.239266
21
0.635669
0
LINE
8
BLACK
6
CONTINUOUS
10
0.239266
20
0.635669
11
0.240256
21
0.635784
0
LINE
8
BLACK
6
CONTINUOUS
10
0.240256
20
0.635784
11
0.240256
21
0.635784
0
LINE
8
BLACK
6
CONTINUOUS
10
0.240256
20
0.635784
11
0.244302
21
0.637571
0
LINE
8
BLACK
6
CONTINUOUS
10
0.244302
20
0.637571
11
0.247429
21
0.640698
0
LINE
8
BLACK
6
CONTINUOUS
10
0.247429
20
0.640698
11
0.247429
21
0.640698
0
LINE
8
BLACK
6
CONTINUOUS
10
0.247429
20
0.640698
11
0.247429
21
0.640698
0
LINE
8
BLACK
6
CONTINUOUS
10
0.247429
20
0.640698
11
0.249216
21
0.644744
0
LINE
8
BLACK
6
CONTINUOUS
10
0.249216
20
0.644744
11
0.249331
21
0.645734
0
LINE
8
BLACK
6
CONTINUOUS
10
0.249331
20
0.645734
11
0.249331
21
0.684266
0
LINE
8
BLACK
6
CONTINUOUS
10
0.249331
20
0.684266
11
0.249216
21
0.685256
0
LINE
8
BLACK
6
CONTINUOUS
10
0.249216
20
0.685256
11
0.247429
21
0.689302
0
LINE
8
BLACK
6
CONTINUOUS
10
0.247429
20
0.689302
11
0.247244
21
0.689722
0
LINE
8
BLACK
6
CONTINUOUS
10
0.247244
20
0.689722
11
0.247338
21
0.689764
0
LINE
8
BLACK
6
CONTINUOUS
10
0.247338
20
0.689764
11
0.246675
21
0.691796
0
LINE
8
BLACK
6
CONTINUOUS
10
0.246675
20
0.691796
11
0.246673
21
0.691942
0
LINE
8
BLACK
6
CONTINUOUS
10
0.246673
20
0.691942
11
0.246673
21
0.703178
0
LINE
8
BLACK
6
CONTINUOUS
10
0.246673
20
0.703178
11
0.247461
21
0.70586
0
LINE
8
BLACK
6
CONTINUOUS
10
0.247461
20
0.70586
11
0.249002
21
0.707195
0
LINE
8
BLACK
6
CONTINUOUS
10
0.249002
20
0.707195
11
0.248923
21
0.707311
0
LINE
8
BLACK
6
CONTINUOUS
10
0.248923
20
0.707311
11
0.249302
21
0.707571
0
LINE
8
BLACK
6
CONTINUOUS
10
0.249302
20
0.707571
11
0.252429
21
0.710698
0
LINE
8
BLACK
6
CONTINUOUS
10
0.252429
20
0.710698
11
0.252429
21
0.710698
0
LINE
8
BLACK
6
CONTINUOUS
10
0.252429
20
0.710698
11
0.252429
21
0.710698
0
LINE
8
BLACK
6
CONTINUOUS
10
0.252429
20
0.710698
11
0.252429
21
0.710698
0
LINE
8
BLACK
6
CONTINUOUS
10
0.252429
20
0.710698
11
0.254216
21
0.714744
0
LINE
8
BLACK
6
CONTINUOUS
10
0.254216
20
0.714744
11
0.254331
21
0.715734
0
LINE
8
BLACK
6
CONTINUOUS
10
0.254331
20
0.715734
11
0.254331
21
0.774266
0
LINE
8
BLACK
6
CONTINUOUS
10
0.254331
20
0.774266
11
0.254216
21
0.775256
0
LINE
8
BLACK
6
CONTINUOUS
10
0.254216
20
0.775256
11
0.252429
21
0.779302
0
LINE
8
BLACK
6
CONTINUOUS
10
0.252429
20
0.779302
11
0.249302
21
0.782429
0
LINE
8
BLACK
6
CONTINUOUS
10
0.249302
20
0.782429
11
0.245256
21
0.784216
0
LINE
8
BLACK
6
CONTINUOUS
10
0.245256
20
0.784216
11
0.244266
21
0.784331
0
LINE
8
BLACK
6
CONTINUOUS
10
0.244266
20
0.784331
11
0.241831
21
0.784331
0
LINE
8
BLACK
6
CONTINUOUS
10
0.241831
20
0.784331
11
0.239149
21
0.785118
0
LINE
8
BLACK
6
CONTINUOUS
10
0.239149
20
0.785118
11
0.237318
21
0.787231
0
LINE
8
BLACK
6
CONTINUOUS
10
0.237318
20
0.787231
11
0.23687
21
0.789291
0
LINE
8
BLACK
6
CONTINUOUS
10
0.23687
20
0.789291
11
0.23687
21
0.839419
0
LINE
8
BLACK
6
CONTINUOUS
10
0.23687
20
0.839419
11
0.237658
21
0.8421
0
LINE
8
BLACK
6
CONTINUOUS
10
0.237658
20
0.8421
11
0.237738
21
0.842222
0
LINE
8
BLACK
6
CONTINUOUS
10
0.237738
20
0.842222
11
0.237921
21
0.84249
0
LINE
8
BLACK
6
CONTINUOUS
10
0.237921
20
0.84249
11
0.239708
21
0.846536
0
LINE
8
BLACK
6
CONTINUOUS
10
0.239708
20
0.846536
11
0.239823
21
0.847525
0
LINE
8
BLACK
6
CONTINUOUS
10
0.239823
20
0.847525
11
0.239823
21
0.847525
0
LINE
8
BLACK
6
CONTINUOUS
10
0.239823
20
0.847525
11
0.239823
21
0.847525
0
LINE
8
BLACK
6
CONTINUOUS
10
0.239823
20
0.847525
11
0.239823
21
0.849291
0
LINE
8
BLACK
6
CONTINUOUS
10
0.239823
20
0.849291
11
0.239803
21
0.849291
0
LINE
8
BLACK
6
CONTINUOUS
10
0.239803
20
0.849291
11
0.239803
21
0.910709
0
LINE
8
BLACK
6
CONTINUOUS
10
0.239803
20
0.910709
11
0.239823
21
0.910709
0
LINE
8
BLACK
6
CONTINUOUS
10
0.239823
20
0.910709
11
0.239823
21
0.912475
0
LINE
8
BLACK
6
CONTINUOUS
10
0.239823
20
0.912475
11
0.239708
21
0.913464
0
LINE
8
BLACK
6
CONTINUOUS
10
0.239708
20
0.913464
11
0.237921
21
0.91751
0
LINE
8
BLACK
6
CONTINUOUS
10
0.237921
20
0.91751
11
0.234794
21
0.920638
0
LINE
8
BLACK
6
CONTINUOUS
10
0.234794
20
0.920638
11
0.230748
21
0.922425
0
LINE
8
BLACK
6
CONTINUOUS
10
0.230748
20
0.922425
11
0.229758
21
0.922539
0
LINE
8
BLACK
6
CONTINUOUS
10
0.229758
20
0.922539
11
0.200635
21
0.922539
0
LINE
8
BLACK
6
CONTINUOUS
10
0.200635
20
0.922539
11
0.199646
21
0.922425
0
LINE
8
BLACK
6
CONTINUOUS
10
0.199646
20
0.922425
11
0.199424
21
0.922327
0
LINE
8
BLACK
6
CONTINUOUS
10
0.199424
20
0.922327
11
0.1956
21
0.920638
0
LINE
8
BLACK
6
CONTINUOUS
10
0.1956
20
0.920638
11
0.192472
21
0.917511
0
LINE
8
BLACK
6
CONTINUOUS
10
0.192472
20
0.917511
11
0.192472
21
0.91751
0
LINE
8
BLACK
6
CONTINUOUS
10
0.192472
20
0.91751
11
0.190686
21
0.913464
0
LINE
8
BLACK
6
CONTINUOUS
10
0.190686
20
0.913464
11
0.190571
21
0.912475
0
LINE
8
BLACK
6
CONTINUOUS
10
0.190571
20
0.912475
11
0.190571
21
0.847525
0
LINE
8
BLACK
6
CONTINUOUS
10
0.190571
20
0.847525
11
0.190571
21
0.847525
0
LINE
8
BLACK
6
CONTINUOUS
10
0.190571
20
0.847525
11
0.190686
21
0.846536
0
LINE
8
BLACK
6
CONTINUOUS
10
0.190686
20
0.846536
11
0.190686
21
0.846536
0
LINE
8
BLACK
6
CONTINUOUS
10
0.190686
20
0.846536
11
0.192472
21
0.84249
0
LINE
8
BLACK
6
CONTINUOUS
10
0.192472
20
0.84249
11
0.192656
21
0.842222
0
LINE
8
BLACK
6
CONTINUOUS
10
0.192656
20
0.842222
11
0.193521
21
0.839564
0
LINE
8
BLACK
6
CONTINUOUS
10
0.193521
20
0.839564
11
0.193524
21
0.839419
0
LINE
8
BLACK
6
CONTINUOUS
10
0.193524
20
0.839419
11
0.193524
21
0.755216
0
LINE
8
BLACK
6
CONTINUOUS
10
0.193524
20
0.755216
11
0.193522
21
0.755131
0
LINE
8
BLACK
6
CONTINUOUS
10
0.193522
20
0.755131
11
0.193435
21
0.752566
0
LINE
8
BLACK
6
CONTINUOUS
10
0.193435
20
0.752566
11
0.193847
21
0.750875
0
LINE
8
BLACK
6
CONTINUOUS
10
0.193847
20
0.750875
11
0.193894
21
0.750625
0
LINE
8
BLACK
6
CONTINUOUS
10
0.193894
20
0.750625
11
0.194131
21
0.748901
0
LINE
8
BLACK
6
CONTINUOUS
10
0.194131
20
0.748901
11
0.194131
21
0.748901
0
LINE
8
BLACK
6
CONTINUOUS
10
0.194131
20
0.748901
11
0.19441
21
0.748259
0
LINE
8
BLACK
6
CONTINUOUS
10
0.19441
20
0.748259
11
0.194679
21
0.747457
0
LINE
8
BLACK
6
CONTINUOUS
10
0.194679
20
0.747457
11
0.194845
21
0.746778
0
LINE
8
BLACK
6
CONTINUOUS
10
0.194845
20
0.746778
11
0.194845
21
0.746777
0
LINE
8
BLACK
6
CONTINUOUS
10
0.194845
20
0.746777
11
0.195033
21
0.746444
0
LINE
8
BLACK
6
CONTINUOUS
10
0.195033
20
0.746444
11
0.195669
21
0.744013
0
LINE
8
BLACK
6
CONTINUOUS
10
0.195669
20
0.744013
11
0.195669
21
0.715734
0
LINE
8
BLACK
6
CONTINUOUS
10
0.195669
20
0.715734
11
0.195669
21
0.715734
0
LINE
8
BLACK
6
CONTINUOUS
10
0.195669
20
0.715734
11
0.195784
21
0.714744
0
LINE
8
BLACK
6
CONTINUOUS
10
0.195784
20
0.714744
11
0.195784
21
0.714744
0
LINE
8
BLACK
6
CONTINUOUS
10
0.195784
20
0.714744
11
0.197571
21
0.710698
0
LINE
8
BLACK
6
CONTINUOUS
10
0.197571
20
0.710698
11
0.200698
21
0.707571
0
LINE
8
BLACK
6
CONTINUOUS
10
0.200698
20
0.707571
11
0.201077
21
0.707311
0
LINE
8
BLACK
6
CONTINUOUS
10
0.201077
20
0.707311
11
0.200994
21
0.707189
0
LINE
8
BLACK
6
CONTINUOUS
10
0.200994
20
0.707189
11
0.202506
21
0.705911
0
LINE
8
BLACK
6
CONTINUOUS
10
0.202506
20
0.705911
11
0.203326
21
0.703239
0
LINE
8
BLACK
6
CONTINUOUS
10
0.203326
20
0.703239
11
0.203327
21
0.703178
0
LINE
8
BLACK
6
CONTINUOUS
10
0.203327
20
0.703178
11
0.203327
21
0.699291
0
LINE
8
BLACK
6
CONTINUOUS
10
0.203327
20
0.699291
11
0.202539
21
0.696609
0
LINE
8
BLACK
6
CONTINUOUS
10
0.202539
20
0.696609
11
0.200427
21
0.694779
0
LINE
8
BLACK
6
CONTINUOUS
10
0.200427
20
0.694779
11
0.198366
21
0.694331
0
LINE
8
BLACK
6
CONTINUOUS
10
0.198366
20
0.694331
11
0.180734
21
0.694331
0
LINE
8
BLACK
6
CONTINUOUS
10
0.180734
20
0.694331
11
0.179744
21
0.694216
0
LINE
8
BLACK
6
CONTINUOUS
10
0.179744
20
0.694216
11
0.178343
21
0.693597
0
LINE
8
BLACK
6
CONTINUOUS
10
0.178343
20
0.693597
11
0.175698
21
0.692429
0
LINE
8
BLACK
6
CONTINUOUS
10
0.175698
20
0.692429
11
0.172571
21
0.689302
0
LINE
8
BLACK
6
CONTINUOUS
10
0.172571
20
0.689302
11
0.172311
21
0.688923
0
LINE
8
BLACK
6
CONTINUOUS
10
0.172311
20
0.688923
11
0.172189
21
0.689006
0
LINE
8
BLACK
6
CONTINUOUS
10
0.172189
20
0.689006
11
0.170912
21
0.687495
0
LINE
8
BLACK
6
CONTINUOUS
10
0.170912
20
0.687495
11
0.168241
21
0.686674
0
LINE
8
BLACK
6
CONTINUOUS
10
0.168241
20
0.686674
11
0.168178
21
0.686673
0
LINE
8
BLACK
6
CONTINUOUS
10
0.168178
20
0.686673
11
0.161822
21
0.686673
0
LINE
8
BLACK
6
CONTINUOUS
10
0.161822
20
0.686673
11
0.15914
21
0.687461
0
LINE
8
BLACK
6
CONTINUOUS
10
0.15914
20
0.687461
11
0.157805
21
0.689002
0
LINE
8
BLACK
6
CONTINUOUS
10
0.157805
20
0.689002
11
0.157689
21
0.688923
0
LINE
8
BLACK
6
CONTINUOUS
10
0.157689
20
0.688923
11
0.157429
21
0.689302
0
LINE
8
BLACK
6
CONTINUOUS
10
0.157429
20
0.689302
11
0.157429
21
0.689302
0
LINE
8
BLACK
6
CONTINUOUS
10
0.157429
20
0.689302
11
0.154302
21
0.692429
0
LINE
8
BLACK
6
CONTINUOUS
10
0.154302
20
0.692429
11
0.150256
21
0.694216
0
LINE
8
BLACK
6
CONTINUOUS
10
0.150256
20
0.694216
11
0.149266
21
0.694331
0
LINE
8
BLACK
6
CONTINUOUS
10
0.149266
20
0.694331
11
0.0907337
21
0.694331
0
LINE
8
BLACK
6
CONTINUOUS
10
0.0907337
20
0.694331
11
0.0897444
21
0.694216
0
LINE
8
BLACK
6
CONTINUOUS
10
0.0897444
20
0.694216
11
0.0883434
21
0.693597
0
LINE
8
BLACK
6
CONTINUOUS
10
0.0883434
20
0.693597
11
0.0856982
21
0.692429
0
LINE
8
BLACK
6
CONTINUOUS
10
0.0856982
20
0.692429
11
0.0825707
21
0.689302
0
LINE
8
BLACK
6
CONTINUOUS
10
0.0825707
20
0.689302
11
0.0825706
21
0.689302
0
LINE
8
BLACK
6
CONTINUOUS
10
0.0825706
20
0.689302
11
0.080784
21
0.685256
0
LINE
8
BLACK
6
CONTINUOUS
10
0.080784
20
0.685256
11
0.0806693
21
0.684267
0
LINE
8
BLACK
6
CONTINUOUS
10
0.0806693
20
0.684267
11
0.0806693
21
0.645734
0
LINE
8
BLACK
6
CONTINUOUS
10
0.0806693
20
0.645734
11
0.0806693
21
0.645734
0
LINE
8
BLACK
6
CONTINUOUS
10
0.265374
20
0.847525
11
0.265489
21
0.846536
0
LINE
8
BLACK
6
CONTINUOUS
10
0.265489
20
0.846536
11
0.265489
21
0.846536
0
LINE
8
BLACK
6
CONTINUOUS
10
0.265489
20
0.846536
11
0.267275
21
0.84249
0
LINE
8
BLACK
6
CONTINUOUS
10
0.267275
20
0.84249
11
0.270403
21
0.839362
0
LINE
8
BLACK
6
CONTINUOUS
10
0.270403
20
0.839362
11
0.270403
21
0.839362
0
LINE
8
BLACK
6
CONTINUOUS
10
0.270403
20
0.839362
11
0.274449
21
0.837575
0
LINE
8
BLACK
6
CONTINUOUS
10
0.274449
20
0.837575
11
0.274449
21
0.837575
0
LINE
8
BLACK
6
CONTINUOUS
10
0.274449
20
0.837575
11
0.275438
21
0.837461
0
LINE
8
BLACK
6
CONTINUOUS
10
0.275438
20
0.837461
11
0.275438
21
0.837461
0
LINE
8
BLACK
6
CONTINUOUS
10
0.275438
20
0.837461
11
0.304561
21
0.837461
0
LINE
8
BLACK
6
CONTINUOUS
10
0.304561
20
0.837461
11
0.304562
21
0.837461
0
LINE
8
BLACK
6
CONTINUOUS
10
0.304562
20
0.837461
11
0.305551
21
0.837575
0
LINE
8
BLACK
6
CONTINUOUS
10
0.305551
20
0.837575
11
0.305911
21
0.837673
0
LINE
8
BLACK
6
CONTINUOUS
10
0.305911
20
0.837673
11
0.30592
21
0.83764
0
LINE
8
BLACK
6
CONTINUOUS
10
0.30592
20
0.83764
11
0.307496
21
0.837972
0
LINE
8
BLACK
6
CONTINUOUS
10
0.307496
20
0.837972
11
0.342963
21
0.837972
0
LINE
8
BLACK
6
CONTINUOUS
10
0.342963
20
0.837972
11
0.345645
21
0.837185
0
LINE
8
BLACK
6
CONTINUOUS
10
0.345645
20
0.837185
11
0.346471
21
0.83652
0
LINE
8
BLACK
6
CONTINUOUS
10
0.346471
20
0.83652
11
0.38152
21
0.801471
0
LINE
8
BLACK
6
CONTINUOUS
10
0.38152
20
0.801471
11
0.382859
21
0.799018
0
LINE
8
BLACK
6
CONTINUOUS
10
0.382859
20
0.799018
11
0.382972
21
0.797963
0
LINE
8
BLACK
6
CONTINUOUS
10
0.382972
20
0.797963
11
0.382972
21
0.74201
0
LINE
8
BLACK
6
CONTINUOUS
10
0.382972
20
0.74201
11
0.382985
21
0.741734
0
LINE
8
BLACK
6
CONTINUOUS
10
0.382985
20
0.741734
11
0.382999
21
0.741449
0
LINE
8
BLACK
6
CONTINUOUS
10
0.382999
20
0.741449
11
0.382999
21
0.741447
0
LINE
8
BLACK
6
CONTINUOUS
10
0.382999
20
0.741447
11
0.38311
21
0.740254
0
LINE
8
BLACK
6
CONTINUOUS
10
0.38311
20
0.740254
11
0.383122
21
0.740136
0
LINE
8
BLACK
6
CONTINUOUS
10
0.383122
20
0.740136
11
0.383122
21
0.740136
0
LINE
8
BLACK
6
CONTINUOUS
10
0.383122
20
0.740136
11
0.384376
21
0.735897
0
LINE
8
BLACK
6
CONTINUOUS
10
0.384376
20
0.735897
11
0.384376
21
0.735897
0
LINE
8
BLACK
6
CONTINUOUS
10
0.384376
20
0.735897
11
0.385647
21
0.733408
0
LINE
8
BLACK
6
CONTINUOUS
10
0.385647
20
0.733408
11
0.38696
21
0.731374
0
LINE
8
BLACK
6
CONTINUOUS
10
0.38696
20
0.731374
11
0.390306
21
0.728486
0
LINE
8
BLACK
6
CONTINUOUS
10
0.390306
20
0.728486
11
0.390306
21
0.728486
0
LINE
8
BLACK
6
CONTINUOUS
10
0.390306
20
0.728486
11
0.392721
21
0.72708
0
LINE
8
BLACK
6
CONTINUOUS
10
0.392721
20
0.72708
11
0.392721
21
0.72708
0
LINE
8
BLACK
6
CONTINUOUS
10
0.392721
20
0.72708
11
0.395895
21
0.725796
0
LINE
8
BLACK
6
CONTINUOUS
10
0.395895
20
0.725796
11
0.398048
21
0.725265
0
LINE
8
BLACK
6
CONTINUOUS
10
0.398048
20
0.725265
11
0.399866
21
0.724977
0
LINE
8
BLACK
6
CONTINUOUS
10
0.399866
20
0.724977
11
0.400475
21
0.724667
0
LINE
8
BLACK
6
CONTINUOUS
10
0.400475
20
0.724667
11
0.400975
21
0.724544
0
LINE
8
BLACK
6
CONTINUOUS
10
0.400975
20
0.724544
11
0.401262
21
0.724454
0
LINE
8
BLACK
6
CONTINUOUS
10
0.401262
20
0.724454
11
0.402749
21
0.72389
0
LINE
8
BLACK
6
CONTINUOUS
10
0.402749
20
0.72389
11
0.40275
21
0.72389
0
LINE
8
BLACK
6
CONTINUOUS
10
0.40275
20
0.72389
11
0.405055
21
0.723322
0
LINE
8
BLACK
6
CONTINUOUS
10
0.405055
20
0.723322
11
0.407933
21
0.722972
0
LINE
8
BLACK
6
CONTINUOUS
10
0.407933
20
0.722972
11
0.407933
21
0.722972
0
LINE
8
BLACK
6
CONTINUOUS
10
0.407933
20
0.722972
11
0.452066
21
0.722972
0
LINE
8
BLACK
6
CONTINUOUS
10
0.452066
20
0.722972
11
0.454945
21
0.723322
0
LINE
8
BLACK
6
CONTINUOUS
10
0.454945
20
0.723322
11
0.454945
21
0.723322
0
LINE
8
BLACK
6
CONTINUOUS
10
0.454945
20
0.723322
11
0.45725
21
0.72389
0
LINE
8
BLACK
6
CONTINUOUS
10
0.45725
20
0.72389
11
0.45725
21
0.72389
0
LINE
8
BLACK
6
CONTINUOUS
10
0.45725
20
0.72389
11
0.458738
21
0.724454
0
LINE
8
BLACK
6
CONTINUOUS
10
0.458738
20
0.724454
11
0.459024
21
0.724544
0
LINE
8
BLACK
6
CONTINUOUS
10
0.459024
20
0.724544
11
0.459525
21
0.724667
0
LINE
8
BLACK
6
CONTINUOUS
10
0.459525
20
0.724667
11
0.460134
21
0.724977
0
LINE
8
BLACK
6
CONTINUOUS
10
0.460134
20
0.724977
11
0.461952
21
0.725265
0
LINE
8
BLACK
6
CONTINUOUS
10
0.461952
20
0.725265
11
0.462527
21
0.725407
0
LINE
8
BLACK
6
CONTINUOUS
10
0.462527
20
0.725407
11
0.463714
21
0.725551
0
LINE
8
BLACK
6
CONTINUOUS
10
0.463714
20
0.725551
11
0.463757
21
0.725551
0
LINE
8
BLACK
6
CONTINUOUS
10
0.463757
20
0.725551
11
0.465
21
0.725748
0
LINE
8
BLACK
6
CONTINUOUS
10
0.465
20
0.725748
11
0.466243
21
0.725551
0
LINE
8
BLACK
6
CONTINUOUS
10
0.466243
20
0.725551
11
0.466286
21
0.725551
0
LINE
8
BLACK
6
CONTINUOUS
10
0.466286
20
0.725551
11
0.467473
21
0.725407
0
LINE
8
BLACK
6
CONTINUOUS
10
0.467473
20
0.725407
11
0.468048
21
0.725265
0
LINE
8
BLACK
6
CONTINUOUS
10
0.468048
20
0.725265
11
0.469866
21
0.724977
0
LINE
8
BLACK
6
CONTINUOUS
10
0.469866
20
0.724977
11
0.470475
21
0.724667
0
LINE
8
BLACK
6
CONTINUOUS
10
0.470475
20
0.724667
11
0.470975
21
0.724544
0
LINE
8
BLACK
6
CONTINUOUS
10
0.470975
20
0.724544
11
0.471262
21
0.724455
0
LINE
8
BLACK
6
CONTINUOUS
10
0.471262
20
0.724455
11
0.47275
21
0.72389
0
LINE
8
BLACK
6
CONTINUOUS
10
0.47275
20
0.72389
11
0.475055
21
0.723322
0
LINE
8
BLACK
6
CONTINUOUS
10
0.475055
20
0.723322
11
0.475055
21
0.723322
0
LINE
8
BLACK
6
CONTINUOUS
10
0.475055
20
0.723322
11
0.477934
21
0.722972
0
LINE
8
BLACK
6
CONTINUOUS
10
0.477934
20
0.722972
11
0.477934
21
0.722972
0
LINE
8
BLACK
6
CONTINUOUS
10
0.477934
20
0.722972
11
0.49004
21
0.722972
0
LINE
8
BLACK
6
CONTINUOUS
10
0.49004
20
0.722972
11
0.492596
21
0.723247
0
LINE
8
BLACK
6
CONTINUOUS
10
0.492596
20
0.723247
11
0.494656
21
0.723695
0
LINE
8
BLACK
6
CONTINUOUS
10
0.494656
20
0.723695
11
0.494656
21
0.723696
0
LINE
8
BLACK
6
CONTINUOUS
10
0.494656
20
0.723696
11
0.494657
21
0.723696
0
LINE
8
BLACK
6
CONTINUOUS
10
0.494657
20
0.723696
11
0.494657
21
0.723696
0
LINE
8
BLACK
6
CONTINUOUS
10
0.494657
20
0.723696
11
0.494914
21
0.723769
0
LINE
8
BLACK
6
CONTINUOUS
10
0.494914
20
0.723769
11
0.496161
21
0.724127
0
LINE
8
BLACK
6
CONTINUOUS
10
0.496161
20
0.724127
11
0.499976
21
0.726358
0
LINE
8
BLACK
6
CONTINUOUS
10
0.499976
20
0.726358
11
0.500809
21
0.72708
0
LINE
8
BLACK
6
CONTINUOUS
10
0.500809
20
0.72708
11
0.502089
21
0.728189
0
LINE
8
BLACK
6
CONTINUOUS
10
0.502089
20
0.728189
11
0.50375
21
0.72995
0
LINE
8
BLACK
6
CONTINUOUS
10
0.50375
20
0.72995
11
0.505753
21
0.73389
0
LINE
8
BLACK
6
CONTINUOUS
10
0.505753
20
0.73389
11
0.50654
21
0.736572
0
LINE
8
BLACK
6
CONTINUOUS
10
0.50654
20
0.736572
11
0.507028
21
0.739961
0
LINE
8
BLACK
6
CONTINUOUS
10
0.507028
20
0.739961
11
0.507028
21
0.742844
0
LINE
8
BLACK
6
CONTINUOUS
10
0.507028
20
0.742844
11
0.507044
21
0.74313
0
LINE
8
BLACK
6
CONTINUOUS
10
0.507044
20
0.74313
11
0.507067
21
0.743327
0
LINE
8
BLACK
6
CONTINUOUS
10
0.507067
20
0.743327
11
0.507106
21
0.743667
0
LINE
8
BLACK
6
CONTINUOUS
10
0.507106
20
0.743667
11
0.507106
21
0.838042
0
LINE
8
BLACK
6
CONTINUOUS
10
0.507106
20
0.838042
11
0.507894
21
0.840724
0
LINE
8
BLACK
6
CONTINUOUS
10
0.507894
20
0.840724
11
0.508559
21
0.84155
0
LINE
8
BLACK
6
CONTINUOUS
10
0.508559
20
0.84155
11
0.537279
21
0.870269
0
LINE
8
BLACK
6
CONTINUOUS
10
0.537279
20
0.870269
11
0.53728
21
0.87027
0
LINE
8
BLACK
6
CONTINUOUS
10
0.53728
20
0.87027
11
0.53771
21
0.870749
0
LINE
8
BLACK
6
CONTINUOUS
10
0.53771
20
0.870749
11
0.53771
21
0.870749
0
LINE
8
BLACK
6
CONTINUOUS
10
0.53771
20
0.870749
11
0.538009
21
0.871121
0
LINE
8
BLACK
6
CONTINUOUS
10
0.538009
20
0.871121
11
0.538577
21
0.871825
0
LINE
8
BLACK
6
CONTINUOUS
10
0.538577
20
0.871825
11
0.538749
21
0.872044
0
LINE
8
BLACK
6
CONTINUOUS
10
0.538749
20
0.872044
11
0.538749
21
0.872044
0
LINE
8
BLACK
6
CONTINUOUS
10
0.538749
20
0.872044
11
0.540753
21
0.875984
0
LINE
8
BLACK
6
CONTINUOUS
10
0.540753
20
0.875984
11
0.54154
21
0.878666
0
LINE
8
BLACK
6
CONTINUOUS
10
0.54154
20
0.878666
11
0.542028
21
0.882055
0
LINE
8
BLACK
6
CONTINUOUS
10
0.542028
20
0.882055
11
0.542028
21
0.940039
0
LINE
8
BLACK
6
CONTINUOUS
10
0.542028
20
0.940039
11
0.541753
21
0.942596
0
LINE
8
BLACK
6
CONTINUOUS
10
0.541753
20
0.942596
11
0.541304
21
0.944657
0
LINE
8
BLACK
6
CONTINUOUS
10
0.541304
20
0.944657
11
0.540873
21
0.946161
0
LINE
8
BLACK
6
CONTINUOUS
10
0.540873
20
0.946161
11
0.540873
21
0.946161
0
LINE
8
BLACK
6
CONTINUOUS
10
0.540873
20
0.946161
11
0.540787
21
0.946459
0
LINE
8
BLACK
6
CONTINUOUS
10
0.540787
20
0.946459
11
0.540816
21
0.946468
0
LINE
8
BLACK
6
CONTINUOUS
10
0.540816
20
0.946468
11
0.540572
21
0.947387
0
LINE
8
BLACK
6
CONTINUOUS
10
0.540572
20
0.947387
11
0.540478
21
0.948198
0
LINE
8
BLACK
6
CONTINUOUS
10
0.540478
20
0.948198
11
0.540456
21
0.948385
0
LINE
8
BLACK
6
CONTINUOUS
10
0.540456
20
0.948385
11
0.53867
21
0.952432
0
LINE
8
BLACK
6
CONTINUOUS
10
0.53867
20
0.952432
11
0.535542
21
0.955559
0
LINE
8
BLACK
6
CONTINUOUS
10
0.535542
20
0.955559
11
0.531496
21
0.957346
0
LINE
8
BLACK
6
CONTINUOUS
10
0.531496
20
0.957346
11
0.530506
21
0.957461
0
LINE
8
BLACK
6
CONTINUOUS
10
0.530506
20
0.957461
11
0.369494
21
0.957461
0
LINE
8
BLACK
6
CONTINUOUS
10
0.369494
20
0.957461
11
0.368504
21
0.957346
0
LINE
8
BLACK
6
CONTINUOUS
10
0.368504
20
0.957346
11
0.367103
21
0.956727
0
LINE
8
BLACK
6
CONTINUOUS
10
0.367103
20
0.956727
11
0.364458
21
0.955559
0
LINE
8
BLACK
6
CONTINUOUS
10
0.364458
20
0.955559
11
0.36377
21
0.954872
0
LINE
8
BLACK
6
CONTINUOUS
10
0.36377
20
0.954872
11
0.362913
21
0.954229
0
LINE
8
BLACK
6
CONTINUOUS
10
0.362913
20
0.954229
11
0.362932
21
0.954199
0
LINE
8
BLACK
6
CONTINUOUS
10
0.362932
20
0.954199
11
0.362783
21
0.954103
0
LINE
8
BLACK
6
CONTINUOUS
10
0.362783
20
0.954103
11
0.360043
21
0.952052
0
LINE
8
BLACK
6
CONTINUOUS
10
0.360043
20
0.952052
11
0.360042
21
0.952052
0
LINE
8
BLACK
6
CONTINUOUS
10
0.360042
20
0.952052
11
0.331471
21
0.923481
0
LINE
8
BLACK
6
CONTINUOUS
10
0.331471
20
0.923481
11
0.329018
21
0.922141
0
LINE
8
BLACK
6
CONTINUOUS
10
0.329018
20
0.922141
11
0.327963
21
0.922028
0
LINE
8
BLACK
6
CONTINUOUS
10
0.327963
20
0.922028
11
0.307496
21
0.922028
0
LINE
8
BLACK
6
CONTINUOUS
10
0.307496
20
0.922028
11
0.30592
21
0.92236
0
LINE
8
BLACK
6
CONTINUOUS
10
0.30592
20
0.92236
11
0.305911
21
0.922327
0
LINE
8
BLACK
6
CONTINUOUS
10
0.305911
20
0.922327
11
0.305551
21
0.922424
0
LINE
8
BLACK
6
CONTINUOUS
10
0.305551
20
0.922424
11
0.305551
21
0.922425
0
LINE
8
BLACK
6
CONTINUOUS
10
0.305551
20
0.922425
11
0.304562
21
0.922539
0
LINE
8
BLACK
6
CONTINUOUS
10
0.304562
20
0.922539
11
0.275438
21
0.922539
0
LINE
8
BLACK
6
CONTINUOUS
10
0.275438
20
0.922539
11
0.274449
21
0.922425
0
LINE
8
BLACK
6
CONTINUOUS
10
0.274449
20
0.922425
11
0.274227
21
0.922327
0
LINE
8
BLACK
6
CONTINUOUS
10
0.274227
20
0.922327
11
0.270403
21
0.920638
0
LINE
8
BLACK
6
CONTINUOUS
10
0.270403
20
0.920638
11
0.267275
21
0.917511
0
LINE
8
BLACK
6
CONTINUOUS
10
0.267275
20
0.917511
11
0.267275
21
0.91751
0
LINE
8
BLACK
6
CONTINUOUS
10
0.267275
20
0.91751
11
0.265489
21
0.913464
0
LINE
8
BLACK
6
CONTINUOUS
10
0.265489
20
0.913464
11
0.265374
21
0.912475
0
LINE
8
BLACK
6
CONTINUOUS
10
0.265374
20
0.912475
11
0.265374
21
0.910709
0
LINE
8
BLACK
6
CONTINUOUS
10
0.265374
20
0.910709
11
0.265394
21
0.910709
0
LINE
8
BLACK
6
CONTINUOUS
10
0.265394
20
0.910709
11
0.265394
21
0.849291
0
LINE
8
BLACK
6
CONTINUOUS
10
0.265394
20
0.849291
11
0.265374
21
0.849291
0
LINE
8
BLACK
6
CONTINUOUS
10
0.265374
20
0.849291
11
0.265374
21
0.847525
0
LINE
8
BLACK
6
CONTINUOUS
10
0.265374
20
0.847525
11
0.265374
21
0.847525
0
LINE
8
BLACK
6
CONTINUOUS
10
0.0581693
20
0.953234
11
0.058284
21
0.952244
0
LINE
8
BLACK
6
CONTINUOUS
10
0.058284
20
0.952244
11
0.0582841
21
0.952244
0
LINE
8
BLACK
6
CONTINUOUS
10
0.0582841
20
0.952244
11
0.0600706
21
0.948198
0
LINE
8
BLACK
6
CONTINUOUS
10
0.0600706
20
0.948198
11
0.0631981
21
0.945071
0
LINE
8
BLACK
6
CONTINUOUS
10
0.0631981
20
0.945071
11
0.0631982
21
0.945071
0
LINE
8
BLACK
6
CONTINUOUS
10
0.0631982
20
0.945071
11
0.0672445
21
0.943284
0
LINE
8
BLACK
6
CONTINUOUS
10
0.0672445
20
0.943284
11
0.0672444
21
0.943284
0
LINE
8
BLACK
6
CONTINUOUS
10
0.0672444
20
0.943284
11
0.0682335
21
0.943169
0
LINE
8
BLACK
6
CONTINUOUS
10
0.0682335
20
0.943169
11
0.0682337
21
0.943169
0
LINE
8
BLACK
6
CONTINUOUS
10
0.0682337
20
0.943169
11
0.131766
21
0.943169
0
LINE
8
BLACK
6
CONTINUOUS
10
0.131766
20
0.943169
11
0.131766
21
0.943169
0
LINE
8
BLACK
6
CONTINUOUS
10
0.131766
20
0.943169
11
0.132756
21
0.943284
0
LINE
8
BLACK
6
CONTINUOUS
10
0.132756
20
0.943284
11
0.132756
21
0.943284
0
LINE
8
BLACK
6
CONTINUOUS
10
0.132756
20
0.943284
11
0.136802
21
0.945071
0
LINE
8
BLACK
6
CONTINUOUS
10
0.136802
20
0.945071
11
0.139929
21
0.948198
0
LINE
8
BLACK
6
CONTINUOUS
10
0.139929
20
0.948198
11
0.139929
21
0.948198
0
LINE
8
BLACK
6
CONTINUOUS
10
0.139929
20
0.948198
11
0.139929
21
0.948198
0
LINE
8
BLACK
6
CONTINUOUS
10
0.139929
20
0.948198
11
0.139929
21
0.948198
0
LINE
8
BLACK
6
CONTINUOUS
10
0.139929
20
0.948198
11
0.141716
21
0.952244
0
LINE
8
BLACK
6
CONTINUOUS
10
0.141716
20
0.952244
11
0.141831
21
0.953234
0
LINE
8
BLACK
6
CONTINUOUS
10
0.141831
20
0.953234
11
0.141831
21
0.959665
0
LINE
8
BLACK
6
CONTINUOUS
10
0.141831
20
0.959665
11
0.142618
21
0.962347
0
LINE
8
BLACK
6
CONTINUOUS
10
0.142618
20
0.962347
11
0.144731
21
0.964178
0
LINE
8
BLACK
6
CONTINUOUS
10
0.144731
20
0.964178
11
0.146791
21
0.964626
0
LINE
8
BLACK
6
CONTINUOUS
10
0.146791
20
0.964626
11
0.18561
21
0.964626
0
LINE
8
BLACK
6
CONTINUOUS
10
0.18561
20
0.964626
11
0.188292
21
0.963839
0
LINE
8
BLACK
6
CONTINUOUS
10
0.188292
20
0.963839
11
0.190123
21
0.961726
0
LINE
8
BLACK
6
CONTINUOUS
10
0.190123
20
0.961726
11
0.190571
21
0.959665
0
LINE
8
BLACK
6
CONTINUOUS
10
0.190571
20
0.959665
11
0.190571
21
0.953824
0
LINE
8
BLACK
6
CONTINUOUS
10
0.190571
20
0.953824
11
0.190686
21
0.952835
0
LINE
8
BLACK
6
CONTINUOUS
10
0.190686
20
0.952835
11
0.190686
21
0.952835
0
LINE
8
BLACK
6
CONTINUOUS
10
0.190686
20
0.952835
11
0.192472
21
0.948789
0
LINE
8
BLACK
6
CONTINUOUS
10
0.192472
20
0.948789
11
0.1956
21
0.945661
0
LINE
8
BLACK
6
CONTINUOUS
10
0.1956
20
0.945661
11
0.1956
21
0.945661
0
LINE
8
BLACK
6
CONTINUOUS
10
0.1956
20
0.945661
11
0.199646
21
0.943875
0
LINE
8
BLACK
6
CONTINUOUS
10
0.199646
20
0.943875
11
0.199646
21
0.943875
0
LINE
8
BLACK
6
CONTINUOUS
10
0.199646
20
0.943875
11
0.200635
21
0.94376
0
LINE
8
BLACK
6
CONTINUOUS
10
0.200635
20
0.94376
11
0.200635
21
0.94376
0
LINE
8
BLACK
6
CONTINUOUS
10
0.200635
20
0.94376
11
0.229758
21
0.94376
0
LINE
8
BLACK
6
CONTINUOUS
10
0.229758
20
0.94376
11
0.229759
21
0.94376
0
LINE
8
BLACK
6
CONTINUOUS
10
0.229759
20
0.94376
11
0.230748
21
0.943875
0
LINE
8
BLACK
6
CONTINUOUS
10
0.230748
20
0.943875
11
0.230748
21
0.943875
0
LINE
8
BLACK
6
CONTINUOUS
10
0.230748
20
0.943875
11
0.234794
21
0.945661
0
LINE
8
BLACK
6
CONTINUOUS
10
0.234794
20
0.945661
11
0.237921
21
0.948789
0
LINE
8
BLACK
6
CONTINUOUS
10
0.237921
20
0.948789
11
0.237921
21
0.948789
0
LINE
8
BLACK
6
CONTINUOUS
10
0.237921
20
0.948789
11
0.237921
21
0.948789
0
LINE
8
BLACK
6
CONTINUOUS
10
0.237921
20
0.948789
11
0.237921
21
0.948789
0
LINE
8
BLACK
6
CONTINUOUS
10
0.237921
20
0.948789
11
0.239708
21
0.952835
0
LINE
8
BLACK
6
CONTINUOUS
10
0.239708
20
0.952835
11
0.239823
21
0.953824
0
LINE
8
BLACK
6
CONTINUOUS
10
0.239823
20
0.953824
11
0.239823
21
1.01877
0
LINE
8
BLACK
6
CONTINUOUS
10
0.239823
20
1.01877
11
0.239708
21
1.01976
0
LINE
8
BLACK
6
CONTINUOUS
10
0.239708
20
1.01976
11
0.237921
21
1.02381
0
LINE
8
BLACK
6
CONTINUOUS
10
0.237921
20
1.02381
11
0.234794
21
1.02694
0
LINE
8
BLACK
6
CONTINUOUS
10
0.234794
20
1.02694
11
0.230748
21
1.02872
0
LINE
8
BLACK
6
CONTINUOUS
10
0.230748
20
1.02872
11
0.229758
21
1.02884
0
LINE
8
BLACK
6
CONTINUOUS
10
0.229758
20
1.02884
11
0.200635
21
1.02884
0
LINE
8
BLACK
6
CONTINUOUS
10
0.200635
20
1.02884
11
0.199646
21
1.02872
0
LINE
8
BLACK
6
CONTINUOUS
10
0.199646
20
1.02872
11
0.198456
21
1.0282
0
LINE
8
BLACK
6
CONTINUOUS
10
0.198456
20
1.0282
11
0.1956
21
1.02694
0
LINE
8
BLACK
6
CONTINUOUS
10
0.1956
20
1.02694
11
0.192472
21
1.02381
0
LINE
8
BLACK
6
CONTINUOUS
10
0.192472
20
1.02381
11
0.192472
21
1.02381
0
LINE
8
BLACK
6
CONTINUOUS
10
0.192472
20
1.02381
11
0.190686
21
1.01976
0
LINE
8
BLACK
6
CONTINUOUS
10
0.190686
20
1.01976
11
0.190571
21
1.01877
0
LINE
8
BLACK
6
CONTINUOUS
10
0.190571
20
1.01877
11
0.190571
21
1.01293
0
LINE
8
BLACK
6
CONTINUOUS
10
0.190571
20
1.01293
11
0.189783
21
1.01025
0
LINE
8
BLACK
6
CONTINUOUS
10
0.189783
20
1.01025
11
0.187671
21
1.00842
0
LINE
8
BLACK
6
CONTINUOUS
10
0.187671
20
1.00842
11
0.18561
21
1.00797
0
LINE
8
BLACK
6
CONTINUOUS
10
0.18561
20
1.00797
11
0.161634
21
1.00797
0
LINE
8
BLACK
6
CONTINUOUS
10
0.161634
20
1.00797
11
0.158952
21
1.00876
0
LINE
8
BLACK
6
CONTINUOUS
10
0.158952
20
1.00876
11
0.157121
21
1.01087
0
LINE
8
BLACK
6
CONTINUOUS
10
0.157121
20
1.01087
11
0.156673
21
1.01293
0
LINE
8
BLACK
6
CONTINUOUS
10
0.156673
20
1.01293
11
0.156673
21
1.05821
0
LINE
8
BLACK
6
CONTINUOUS
10
0.156673
20
1.05821
11
0.157461
21
1.06089
0
LINE
8
BLACK
6
CONTINUOUS
10
0.157461
20
1.06089
11
0.159573
21
1.06272
0
LINE
8
BLACK
6
CONTINUOUS
10
0.159573
20
1.06272
11
0.161634
21
1.06317
0
LINE
8
BLACK
6
CONTINUOUS
10
0.161634
20
1.06317
11
0.164266
21
1.06317
0
LINE
8
BLACK
6
CONTINUOUS
10
0.164266
20
1.06317
11
0.164266
21
1.06317
0
LINE
8
BLACK
6
CONTINUOUS
10
0.164266
20
1.06317
11
0.165255
21
1.06328
0
LINE
8
BLACK
6
CONTINUOUS
10
0.165255
20
1.06328
11
0.165256
21
1.06328
0
LINE
8
BLACK
6
CONTINUOUS
10
0.165256
20
1.06328
11
0.169302
21
1.06507
0
LINE
8
BLACK
6
CONTINUOUS
10
0.169302
20
1.06507
11
0.172429
21
1.0682
0
LINE
8
BLACK
6
CONTINUOUS
10
0.172429
20
1.0682
11
0.172429
21
1.0682
0
LINE
8
BLACK
6
CONTINUOUS
10
0.172429
20
1.0682
11
0.172429
21
1.0682
0
LINE
8
BLACK
6
CONTINUOUS
10
0.172429
20
1.0682
11
0.172429
21
1.0682
0
LINE
8
BLACK
6
CONTINUOUS
10
0.172429
20
1.0682
11
0.174216
21
1.07224
0
LINE
8
BLACK
6
CONTINUOUS
10
0.174216
20
1.07224
11
0.174331
21
1.07323
0
LINE
8
BLACK
6
CONTINUOUS
10
0.174331
20
1.07323
11
0.174331
21
1.11177
0
LINE
8
BLACK
6
CONTINUOUS
10
0.174331
20
1.11177
11
0.174216
21
1.11276
0
LINE
8
BLACK
6
CONTINUOUS
10
0.174216
20
1.11276
11
0.172429
21
1.1168
0
LINE
8
BLACK
6
CONTINUOUS
10
0.172429
20
1.1168
11
0.169302
21
1.11993
0
LINE
8
BLACK
6
CONTINUOUS
10
0.169302
20
1.11993
11
0.165256
21
1.12172
0
LINE
8
BLACK
6
CONTINUOUS
10
0.165256
20
1.12172
11
0.164266
21
1.12183
0
LINE
8
BLACK
6
CONTINUOUS
10
0.164266
20
1.12183
11
0.105734
21
1.12183
0
LINE
8
BLACK
6
CONTINUOUS
10
0.105734
20
1.12183
11
0.104744
21
1.12172
0
LINE
8
BLACK
6
CONTINUOUS
10
0.104744
20
1.12172
11
0.103343
21
1.1211
0
LINE
8
BLACK
6
CONTINUOUS
10
0.103343
20
1.1211
11
0.100698
21
1.11993
0
LINE
8
BLACK
6
CONTINUOUS
10
0.100698
20
1.11993
11
0.0975707
21
1.1168
0
LINE
8
BLACK
6
CONTINUOUS
10
0.0975707
20
1.1168
11
0.0975706
21
1.1168
0
LINE
8
BLACK
6
CONTINUOUS
10
0.0975706
20
1.1168
11
0.095784
21
1.11276
0
LINE
8
BLACK
6
CONTINUOUS
10
0.095784
20
1.11276
11
0.0956693
21
1.11177
0
LINE
8
BLACK
6
CONTINUOUS
10
0.0956693
20
1.11177
11
0.0956693
21
1.07323
0
LINE
8
BLACK
6
CONTINUOUS
10
0.0956693
20
1.07323
11
0.0956693
21
1.07323
0
LINE
8
BLACK
6
CONTINUOUS
10
0.0956693
20
1.07323
11
0.095784
21
1.07224
0
LINE
8
BLACK
6
CONTINUOUS
10
0.095784
20
1.07224
11
0.0957841
21
1.07224
0
LINE
8
BLACK
6
CONTINUOUS
10
0.0957841
20
1.07224
11
0.0975706
21
1.0682
0
LINE
8
BLACK
6
CONTINUOUS
10
0.0975706
20
1.0682
11
0.100698
21
1.06507
0
LINE
8
BLACK
6
CONTINUOUS
10
0.100698
20
1.06507
11
0.100698
21
1.06507
0
LINE
8
BLACK
6
CONTINUOUS
10
0.100698
20
1.06507
11
0.104744
21
1.06328
0
LINE
8
BLACK
6
CONTINUOUS
10
0.104744
20
1.06328
11
0.104744
21
1.06328
0
LINE
8
BLACK
6
CONTINUOUS
10
0.104744
20
1.06328
11
0.105733
21
1.06317
0
LINE
8
BLACK
6
CONTINUOUS
10
0.105733
20
1.06317
11
0.105734
21
1.06317
0
LINE
8
BLACK
6
CONTINUOUS
10
0.105734
20
1.06317
11
0.108366
21
1.06317
0
LINE
8
BLACK
6
CONTINUOUS
10
0.108366
20
1.06317
11
0.111048
21
1.06238
0
LINE
8
BLACK
6
CONTINUOUS
10
0.111048
20
1.06238
11
0.112879
21
1.06027
0
LINE
8
BLACK
6
CONTINUOUS
10
0.112879
20
1.06027
11
0.113327
21
1.05821
0
LINE
8
BLACK
6
CONTINUOUS
10
0.113327
20
1.05821
11
0.113327
21
1.03179
0
LINE
8
BLACK
6
CONTINUOUS
10
0.113327
20
1.03179
11
0.112539
21
1.02911
0
LINE
8
BLACK
6
CONTINUOUS
10
0.112539
20
1.02911
11
0.110427
21
1.02728
0
LINE
8
BLACK
6
CONTINUOUS
10
0.110427
20
1.02728
11
0.108366
21
1.02683
0
LINE
8
BLACK
6
CONTINUOUS
10
0.108366
20
1.02683
11
0.0682337
21
1.02683
0
LINE
8
BLACK
6
CONTINUOUS
10
0.0682337
20
1.02683
11
0.0672444
21
1.02672
0
LINE
8
BLACK
6
CONTINUOUS
10
0.0672444
20
1.02672
11
0.0658434
21
1.0261
0
LINE
8
BLACK
6
CONTINUOUS
10
0.0658434
20
1.0261
11
0.0631982
21
1.02493
0
LINE
8
BLACK
6
CONTINUOUS
10
0.0631982
20
1.02493
11
0.0600707
21
1.0218
0
LINE
8
BLACK
6
CONTINUOUS
10
0.0600707
20
1.0218
11
0.0600706
21
1.0218
0
LINE
8
BLACK
6
CONTINUOUS
10
0.0600706
20
1.0218
11
0.058284
21
1.01776
0
LINE
8
BLACK
6
CONTINUOUS
10
0.058284
20
1.01776
11
0.0581693
21
1.01677
0
LINE
8
BLACK
6
CONTINUOUS
10
0.0581693
20
1.01677
11
0.0581693
21
0.953234
0
LINE
8
BLACK
6
CONTINUOUS
10
0.0581693
20
0.953234
11
0.0581693
21
0.953234
0
LINE
8
BLACK
6
CONTINUOUS
10
0.0956693
20
1.14823
11
0.095784
21
1.14724
0
LINE
8
BLACK
6
CONTINUOUS
10
0.095784
20
1.14724
11
0.0957841
21
1.14724
0
LINE
8
BLACK
6
CONTINUOUS
10
0.0957841
20
1.14724
11
0.0975706
21
1.1432
0
LINE
8
BLACK
6
CONTINUOUS
10
0.0975706
20
1.1432
11
0.100698
21
1.14007
0
LINE
8
BLACK
6
CONTINUOUS
10
0.100698
20
1.14007
11
0.100698
21
1.14007
0
LINE
8
BLACK
6
CONTINUOUS
10
0.100698
20
1.14007
11
0.104744
21
1.13828
0
LINE
8
BLACK
6
CONTINUOUS
10
0.104744
20
1.13828
11
0.104744
21
1.13828
0
LINE
8
BLACK
6
CONTINUOUS
10
0.104744
20
1.13828
11
0.105734
21
1.13817
0
LINE
8
BLACK
6
CONTINUOUS
10
0.105734
20
1.13817
11
0.105734
21
1.13817
0
LINE
8
BLACK
6
CONTINUOUS
10
0.105734
20
1.13817
11
0.164266
21
1.13817
0
LINE
8
BLACK
6
CONTINUOUS
10
0.164266
20
1.13817
11
0.164266
21
1.13817
0
LINE
8
BLACK
6
CONTINUOUS
10
0.164266
20
1.13817
11
0.165256
21
1.13828
0
LINE
8
BLACK
6
CONTINUOUS
10
0.165256
20
1.13828
11
0.165256
21
1.13828
0
LINE
8
BLACK
6
CONTINUOUS
10
0.165256
20
1.13828
11
0.169302
21
1.14007
0
LINE
8
BLACK
6
CONTINUOUS
10
0.169302
20
1.14007
11
0.172429
21
1.1432
0
LINE
8
BLACK
6
CONTINUOUS
10
0.172429
20
1.1432
11
0.172689
21
1.14358
0
LINE
8
BLACK
6
CONTINUOUS
10
0.172689
20
1.14358
11
0.172811
21
1.14349
0
LINE
8
BLACK
6
CONTINUOUS
10
0.172811
20
1.14349
11
0.174088
21
1.145
0
LINE
8
BLACK
6
CONTINUOUS
10
0.174088
20
1.145
11
0.176759
21
1.14583
0
LINE
8
BLACK
6
CONTINUOUS
10
0.176759
20
1.14583
11
0.176822
21
1.14583
0
LINE
8
BLACK
6
CONTINUOUS
10
0.176822
20
1.14583
11
0.246468
21
1.14583
0
LINE
8
BLACK
6
CONTINUOUS
10
0.246468
20
1.14583
11
0.24915
21
1.14504
0
LINE
8
BLACK
6
CONTINUOUS
10
0.24915
20
1.14504
11
0.249975
21
1.14437
0
LINE
8
BLACK
6
CONTINUOUS
10
0.249975
20
1.14437
11
0.272519
21
1.12183
0
LINE
8
BLACK
6
CONTINUOUS
10
0.272519
20
1.12183
11
0.27652
21
1.11783
0
LINE
8
BLACK
6
CONTINUOUS
10
0.27652
20
1.11783
11
0.277859
21
1.11538
0
LINE
8
BLACK
6
CONTINUOUS
10
0.277859
20
1.11538
11
0.277972
21
1.11432
0
LINE
8
BLACK
6
CONTINUOUS
10
0.277972
20
1.11432
11
0.277972
21
1.03704
0
LINE
8
BLACK
6
CONTINUOUS
10
0.277972
20
1.03704
11
0.277185
21
1.03435
0
LINE
8
BLACK
6
CONTINUOUS
10
0.277185
20
1.03435
11
0.27652
21
1.03353
0
LINE
8
BLACK
6
CONTINUOUS
10
0.27652
20
1.03353
11
0.2721
21
1.02911
0
LINE
8
BLACK
6
CONTINUOUS
10
0.2721
20
1.02911
11
0.26772
21
1.02473
0
LINE
8
BLACK
6
CONTINUOUS
10
0.26772
20
1.02473
11
0.26772
21
1.02473
0
LINE
8
BLACK
6
CONTINUOUS
10
0.26772
20
1.02473
11
0.26729
21
1.02425
0
LINE
8
BLACK
6
CONTINUOUS
10
0.26729
20
1.02425
11
0.26729
21
1.02425
0
LINE
8
BLACK
6
CONTINUOUS
10
0.26729
20
1.02425
11
0.266423
21
1.02318
0
LINE
8
BLACK
6
CONTINUOUS
10
0.266423
20
1.02318
11
0.266423
21
1.02317
0
LINE
8
BLACK
6
CONTINUOUS
10
0.266423
20
1.02317
11
0.26625
21
1.02296
0
LINE
8
BLACK
6
CONTINUOUS
10
0.26625
20
1.02296
11
0.264247
21
1.01902
0
LINE
8
BLACK
6
CONTINUOUS
10
0.264247
20
1.01902
11
0.264247
21
1.01902
0
LINE
8
BLACK
6
CONTINUOUS
10
0.264247
20
1.01902
11
0.26346
21
1.01633
0
LINE
8
BLACK
6
CONTINUOUS
10
0.26346
20
1.01633
11
0.26346
21
1.01633
0
LINE
8
BLACK
6
CONTINUOUS
10
0.26346
20
1.01633
11
0.262972
21
1.01295
0
LINE
8
BLACK
6
CONTINUOUS
10
0.262972
20
1.01295
11
0.262972
21
0.95996
0
LINE
8
BLACK
6
CONTINUOUS
10
0.262972
20
0.95996
11
0.263247
21
0.957404
0
LINE
8
BLACK
6
CONTINUOUS
10
0.263247
20
0.957404
11
0.263695
21
0.955344
0
LINE
8
BLACK
6
CONTINUOUS
10
0.263695
20
0.955344
11
0.263696
21
0.955343
0
LINE
8
BLACK
6
CONTINUOUS
10
0.263696
20
0.955343
11
0.264127
21
0.953839
0
LINE
8
BLACK
6
CONTINUOUS
10
0.264127
20
0.953839
11
0.266358
21
0.950024
0
LINE
8
BLACK
6
CONTINUOUS
10
0.266358
20
0.950024
11
0.266359
21
0.950023
0
LINE
8
BLACK
6
CONTINUOUS
10
0.266359
20
0.950023
11
0.266629
21
0.949712
0
LINE
8
BLACK
6
CONTINUOUS
10
0.266629
20
0.949712
11
0.266986
21
0.949148
0
LINE
8
BLACK
6
CONTINUOUS
10
0.266986
20
0.949148
11
0.267016
21
0.949168
0
LINE
8
BLACK
6
CONTINUOUS
10
0.267016
20
0.949168
11
0.267275
21
0.948789
0
LINE
8
BLACK
6
CONTINUOUS
10
0.267275
20
0.948789
11
0.270403
21
0.945661
0
LINE
8
BLACK
6
CONTINUOUS
10
0.270403
20
0.945661
11
0.270403
21
0.945661
0
LINE
8
BLACK
6
CONTINUOUS
10
0.270403
20
0.945661
11
0.274449
21
0.943875
0
LINE
8
BLACK
6
CONTINUOUS
10
0.274449
20
0.943875
11
0.274449
21
0.943875
0
LINE
8
BLACK
6
CONTINUOUS
10
0.274449
20
0.943875
11
0.275202
21
0.943787
0
LINE
8
BLACK
6
CONTINUOUS
10
0.275202
20
0.943787
11
0.276028
21
0.943619
0
LINE
8
BLACK
6
CONTINUOUS
10
0.276028
20
0.943619
11
0.276572
21
0.94346
0
LINE
8
BLACK
6
CONTINUOUS
10
0.276572
20
0.94346
11
0.276573
21
0.94346
0
LINE
8
BLACK
6
CONTINUOUS
10
0.276573
20
0.94346
11
0.27996
21
0.942972
0
LINE
8
BLACK
6
CONTINUOUS
10
0.27996
20
0.942972
11
0.279961
21
0.942972
0
LINE
8
BLACK
6
CONTINUOUS
10
0.279961
20
0.942972
11
0.303268
21
0.942972
0
LINE
8
BLACK
6
CONTINUOUS
10
0.303268
20
0.942972
11
0.30391
21
0.943007
0
LINE
8
BLACK
6
CONTINUOUS
10
0.30391
20
0.943007
11
0.303911
21
0.943007
0
LINE
8
BLACK
6
CONTINUOUS
10
0.303911
20
0.943007
11
0.303911
21
0.943007
0
LINE
8
BLACK
6
CONTINUOUS
10
0.303911
20
0.943007
11
0.304134
21
0.943031
0
LINE
8
BLACK
6
CONTINUOUS
10
0.304134
20
0.943031
11
0.305285
21
0.943155
0
LINE
8
BLACK
6
CONTINUOUS
10
0.305285
20
0.943155
11
0.305462
21
0.943176
0
LINE
8
BLACK
6
CONTINUOUS
10
0.305462
20
0.943176
11
0.305561
21
0.943188
0
LINE
8
BLACK
6
CONTINUOUS
10
0.305561
20
0.943188
11
0.307669
21
0.943875
0
LINE
8
BLACK
6
CONTINUOUS
10
0.307669
20
0.943875
11
0.309764
21
0.944557
0
LINE
8
BLACK
6
CONTINUOUS
10
0.309764
20
0.944557
11
0.312217
21
0.945897
0
LINE
8
BLACK
6
CONTINUOUS
10
0.312217
20
0.945897
11
0.314208
21
0.947387
0
LINE
8
BLACK
6
CONTINUOUS
10
0.314208
20
0.947387
11
0.314958
21
0.947948
0
LINE
8
BLACK
6
CONTINUOUS
10
0.314958
20
0.947948
11
0.373529
21
1.00652
0
LINE
8
BLACK
6
CONTINUOUS
10
0.373529
20
1.00652
11
0.375982
21
1.00786
0
LINE
8
BLACK
6
CONTINUOUS
10
0.375982
20
1.00786
11
0.377037
21
1.00797
0
LINE
8
BLACK
6
CONTINUOUS
10
0.377037
20
1.00797
11
0.548268
21
1.00797
0
LINE
8
BLACK
6
CONTINUOUS
10
0.548268
20
1.00797
11
0.54891
21
1.00801
0
LINE
8
BLACK
6
CONTINUOUS
10
0.54891
20
1.00801
11
0.548911
21
1.00801
0
LINE
8
BLACK
6
CONTINUOUS
10
0.548911
20
1.00801
11
0.548911
21
1.00801
0
LINE
8
BLACK
6
CONTINUOUS
10
0.548911
20
1.00801
11
0.550286
21
1.00815
0
LINE
8
BLACK
6
CONTINUOUS
10
0.550286
20
1.00815
11
0.550484
21
1.00818
0
LINE
8
BLACK
6
CONTINUOUS
10
0.550484
20
1.00818
11
0.550561
21
1.00819
0
LINE
8
BLACK
6
CONTINUOUS
10
0.550561
20
1.00819
11
0.550561
21
1.00819
0
LINE
8
BLACK
6
CONTINUOUS
10
0.550561
20
1.00819
11
0.554764
21
1.00956
0
LINE
8
BLACK
6
CONTINUOUS
10
0.554764
20
1.00956
11
0.555463
21
1.00994
0
LINE
8
BLACK
6
CONTINUOUS
10
0.555463
20
1.00994
11
0.557217
21
1.0109
0
LINE
8
BLACK
6
CONTINUOUS
10
0.557217
20
1.0109
11
0.557217
21
1.0109
0
LINE
8
BLACK
6
CONTINUOUS
10
0.557217
20
1.0109
11
0.559958
21
1.01295
0
LINE
8
BLACK
6
CONTINUOUS
10
0.559958
20
1.01295
11
0.559958
21
1.01295
0
LINE
8
BLACK
6
CONTINUOUS
10
0.559958
20
1.01295
11
0.563776
21
1.01677
0
LINE
8
BLACK
6
CONTINUOUS
10
0.563776
20
1.01677
11
0.568529
21
1.02152
0
LINE
8
BLACK
6
CONTINUOUS
10
0.568529
20
1.02152
11
0.570982
21
1.02286
0
LINE
8
BLACK
6
CONTINUOUS
10
0.570982
20
1.02286
11
0.572037
21
1.02297
0
LINE
8
BLACK
6
CONTINUOUS
10
0.572037
20
1.02297
11
0.745039
21
1.02297
0
LINE
8
BLACK
6
CONTINUOUS
10
0.745039
20
1.02297
11
0.74557
21
1.02303
0
LINE
8
BLACK
6
CONTINUOUS
10
0.74557
20
1.02303
11
0.746739
21
1.02316
0
LINE
8
BLACK
6
CONTINUOUS
10
0.746739
20
1.02316
11
0.747004
21
1.02317
0
LINE
8
BLACK
6
CONTINUOUS
10
0.747004
20
1.02317
11
0.751766
21
1.02317
0
LINE
8
BLACK
6
CONTINUOUS
10
0.751766
20
1.02317
11
0.751766
21
1.02317
0
LINE
8
BLACK
6
CONTINUOUS
10
0.751766
20
1.02317
11
0.752755
21
1.02328
0
LINE
8
BLACK
6
CONTINUOUS
10
0.752755
20
1.02328
11
0.752756
21
1.02328
0
LINE
8
BLACK
6
CONTINUOUS
10
0.752756
20
1.02328
11
0.756802
21
1.02507
0
LINE
8
BLACK
6
CONTINUOUS
10
0.756802
20
1.02507
11
0.759929
21
1.0282
0
LINE
8
BLACK
6
CONTINUOUS
10
0.759929
20
1.0282
11
0.759929
21
1.0282
0
LINE
8
BLACK
6
CONTINUOUS
10
0.759929
20
1.0282
11
0.759929
21
1.0282
0
LINE
8
BLACK
6
CONTINUOUS
10
0.759929
20
1.0282
11
0.761716
21
1.03224
0
LINE
8
BLACK
6
CONTINUOUS
10
0.761716
20
1.03224
11
0.761831
21
1.03323
0
LINE
8
BLACK
6
CONTINUOUS
10
0.761831
20
1.03323
11
0.761831
21
1.03824
0
LINE
8
BLACK
6
CONTINUOUS
10
0.761831
20
1.03824
11
0.761881
21
1.03894
0
LINE
8
BLACK
6
CONTINUOUS
10
0.761881
20
1.03894
11
0.762028
21
1.03996
0
LINE
8
BLACK
6
CONTINUOUS
10
0.762028
20
1.03996
11
0.762028
21
1.08514
0
LINE
8
BLACK
6
CONTINUOUS
10
0.762028
20
1.08514
11
0.761844
21
1.08693
0
LINE
8
BLACK
6
CONTINUOUS
10
0.761844
20
1.08693
11
0.761831
21
1.08718
0
LINE
8
BLACK
6
CONTINUOUS
10
0.761831
20
1.08718
11
0.761831
21
1.09677
0
LINE
8
BLACK
6
CONTINUOUS
10
0.761831
20
1.09677
11
0.761831
21
1.09677
0
LINE
8
BLACK
6
CONTINUOUS
10
0.761831
20
1.09677
11
0.761716
21
1.09776
0
LINE
8
BLACK
6
CONTINUOUS
10
0.761716
20
1.09776
11
0.759929
21
1.1018
0
LINE
8
BLACK
6
CONTINUOUS
10
0.759929
20
1.1018
11
0.756802
21
1.10493
0
LINE
8
BLACK
6
CONTINUOUS
10
0.756802
20
1.10493
11
0.752756
21
1.10672
0
LINE
8
BLACK
6
CONTINUOUS
10
0.752756
20
1.10672
11
0.751766
21
1.10683
0
LINE
8
BLACK
6
CONTINUOUS
10
0.751766
20
1.10683
11
0.688234
21
1.10683
0
LINE
8
BLACK
6
CONTINUOUS
10
0.688234
20
1.10683
11
0.687244
21
1.10672
0
LINE
8
BLACK
6
CONTINUOUS
10
0.687244
20
1.10672
11
0.685843
21
1.1061
0
LINE
8
BLACK
6
CONTINUOUS
10
0.685843
20
1.1061
11
0.683198
21
1.10493
0
LINE
8
BLACK
6
CONTINUOUS
10
0.683198
20
1.10493
11
0.683132
21
1.10486
0
LINE
8
BLACK
6
CONTINUOUS
10
0.683132
20
1.10486
11
0.682984
21
1.10478
0
LINE
8
BLACK
6
CONTINUOUS
10
0.682984
20
1.10478
11
0.682819
21
1.10467
0
LINE
8
BLACK
6
CONTINUOUS
10
0.682819
20
1.10467
11
0.682808
21
1.10469
0
LINE
8
BLACK
6
CONTINUOUS
10
0.682808
20
1.10469
11
0.680679
21
1.10352
0
LINE
8
BLACK
6
CONTINUOUS
10
0.680679
20
1.10352
11
0.679528
21
1.10341
0
LINE
8
BLACK
6
CONTINUOUS
10
0.679528
20
1.10341
11
0.659893
21
1.1038
0
LINE
8
BLACK
6
CONTINUOUS
10
0.659893
20
1.1038
11
0.657227
21
1.10464
0
LINE
8
BLACK
6
CONTINUOUS
10
0.657227
20
1.10464
11
0.657183
21
1.10467
0
LINE
8
BLACK
6
CONTINUOUS
10
0.657183
20
1.10467
11
0.657181
21
1.10467
0
LINE
8
BLACK
6
CONTINUOUS
10
0.657181
20
1.10467
11
0.656802
21
1.10493
0
LINE
8
BLACK
6
CONTINUOUS
10
0.656802
20
1.10493
11
0.656802
21
1.10493
0
LINE
8
BLACK
6
CONTINUOUS
10
0.656802
20
1.10493
11
0.652756
21
1.10672
0
LINE
8
BLACK
6
CONTINUOUS
10
0.652756
20
1.10672
11
0.651766
21
1.10683
0
LINE
8
BLACK
6
CONTINUOUS
10
0.651766
20
1.10683
11
0.588234
21
1.10683
0
LINE
8
BLACK
6
CONTINUOUS
10
0.588234
20
1.10683
11
0.587244
21
1.10672
0
LINE
8
BLACK
6
CONTINUOUS
10
0.587244
20
1.10672
11
0.587244
21
1.10672
0
LINE
8
BLACK
6
CONTINUOUS
10
0.587244
20
1.10672
11
0.585007
21
1.10573
0
LINE
8
BLACK
6
CONTINUOUS
10
0.585007
20
1.10573
11
0.582906
21
1.10531
0
LINE
8
BLACK
6
CONTINUOUS
10
0.582906
20
1.10531
11
0.502077
21
1.10689
0
LINE
8
BLACK
6
CONTINUOUS
10
0.502077
20
1.10689
11
0.499411
21
1.10773
0
LINE
8
BLACK
6
CONTINUOUS
10
0.499411
20
1.10773
11
0.498667
21
1.10834
0
LINE
8
BLACK
6
CONTINUOUS
10
0.498667
20
1.10834
11
0.46473
21
1.14228
0
LINE
8
BLACK
6
CONTINUOUS
10
0.46473
20
1.14228
11
0.464251
21
1.14271
0
LINE
8
BLACK
6
CONTINUOUS
10
0.464251
20
1.14271
11
0.463174
21
1.14358
0
LINE
8
BLACK
6
CONTINUOUS
10
0.463174
20
1.14358
11
0.462956
21
1.14375
0
LINE
8
BLACK
6
CONTINUOUS
10
0.462956
20
1.14375
11
0.459016
21
1.14575
0
LINE
8
BLACK
6
CONTINUOUS
10
0.459016
20
1.14575
11
0.456334
21
1.14654
0
LINE
8
BLACK
6
CONTINUOUS
10
0.456334
20
1.14654
11
0.456333
21
1.14654
0
LINE
8
BLACK
6
CONTINUOUS
10
0.456333
20
1.14654
11
0.456333
21
1.14654
0
LINE
8
BLACK
6
CONTINUOUS
10
0.456333
20
1.14654
11
0.45468
21
1.14678
0
LINE
8
BLACK
6
CONTINUOUS
10
0.45468
20
1.14678
11
0.452945
21
1.14703
0
LINE
8
BLACK
6
CONTINUOUS
10
0.452945
20
1.14703
11
0.452945
21
1.14703
0
LINE
8
BLACK
6
CONTINUOUS
10
0.452945
20
1.14703
11
0.452945
21
1.14703
0
LINE
8
BLACK
6
CONTINUOUS
10
0.452945
20
1.14703
11
0.450256
21
1.14703
0
LINE
8
BLACK
6
CONTINUOUS
10
0.450256
20
1.14703
11
0.447574
21
1.14782
0
LINE
8
BLACK
6
CONTINUOUS
10
0.447574
20
1.14782
11
0.445744
21
1.14993
0
LINE
8
BLACK
6
CONTINUOUS
10
0.445744
20
1.14993
11
0.445295
21
1.15199
0
LINE
8
BLACK
6
CONTINUOUS
10
0.445295
20
1.15199
11
0.445295
21
1.17846
0
LINE
8
BLACK
6
CONTINUOUS
10
0.445295
20
1.17846
11
0.445295
21
1.17846
0
LINE
8
BLACK
6
CONTINUOUS
10
0.445295
20
1.17846
11
0.445181
21
1.17945
0
LINE
8
BLACK
6
CONTINUOUS
10
0.445181
20
1.17945
11
0.443394
21
1.18349
0
LINE
8
BLACK
6
CONTINUOUS
10
0.443394
20
1.18349
11
0.440266
21
1.18662
0
LINE
8
BLACK
6
CONTINUOUS
10
0.440266
20
1.18662
11
0.43622
21
1.18841
0
LINE
8
BLACK
6
CONTINUOUS
10
0.43622
20
1.18841
11
0.435231
21
1.18852
0
LINE
8
BLACK
6
CONTINUOUS
10
0.435231
20
1.18852
11
0.364769
21
1.18852
0
LINE
8
BLACK
6
CONTINUOUS
10
0.364769
20
1.18852
11
0.36378
21
1.18841
0
LINE
8
BLACK
6
CONTINUOUS
10
0.36378
20
1.18841
11
0.362379
21
1.18779
0
LINE
8
BLACK
6
CONTINUOUS
10
0.362379
20
1.18779
11
0.359734
21
1.18662
0
LINE
8
BLACK
6
CONTINUOUS
10
0.359734
20
1.18662
11
0.356606
21
1.18349
0
LINE
8
BLACK
6
CONTINUOUS
10
0.356606
20
1.18349
11
0.356606
21
1.18349
0
LINE
8
BLACK
6
CONTINUOUS
10
0.356606
20
1.18349
11
0.354819
21
1.17945
0
LINE
8
BLACK
6
CONTINUOUS
10
0.354819
20
1.17945
11
0.354705
21
1.17846
0
LINE
8
BLACK
6
CONTINUOUS
10
0.354705
20
1.17846
11
0.354705
21
1.17846
0
LINE
8
BLACK
6
CONTINUOUS
10
0.354705
20
1.17846
11
0.354705
21
1.15199
0
LINE
8
BLACK
6
CONTINUOUS
10
0.354705
20
1.15199
11
0.353917
21
1.14931
0
LINE
8
BLACK
6
CONTINUOUS
10
0.353917
20
1.14931
11
0.351805
21
1.14748
0
LINE
8
BLACK
6
CONTINUOUS
10
0.351805
20
1.14748
11
0.349744
21
1.14703
0
LINE
8
BLACK
6
CONTINUOUS
10
0.349744
20
1.14703
11
0.310678
21
1.14703
0
LINE
8
BLACK
6
CONTINUOUS
10
0.310678
20
1.14703
11
0.307996
21
1.14782
0
LINE
8
BLACK
6
CONTINUOUS
10
0.307996
20
1.14782
11
0.30717
21
1.14848
0
LINE
8
BLACK
6
CONTINUOUS
10
0.30717
20
1.14848
11
0.303662
21
1.15199
0
LINE
8
BLACK
6
CONTINUOUS
10
0.303662
20
1.15199
11
0.273116
21
1.18253
0
LINE
8
BLACK
6
CONTINUOUS
10
0.273116
20
1.18253
11
0.273059
21
1.18259
0
LINE
8
BLACK
6
CONTINUOUS
10
0.273059
20
1.18259
11
0.271306
21
1.18447
0
LINE
8
BLACK
6
CONTINUOUS
10
0.271306
20
1.18447
11
0.269819
21
1.18537
0
LINE
8
BLACK
6
CONTINUOUS
10
0.269819
20
1.18537
11
0.269609
21
1.18552
0
LINE
8
BLACK
6
CONTINUOUS
10
0.269609
20
1.18552
11
0.268222
21
1.18657
0
LINE
8
BLACK
6
CONTINUOUS
10
0.268222
20
1.18657
11
0.267571
21
1.18683
0
LINE
8
BLACK
6
CONTINUOUS
10
0.267571
20
1.18683
11
0.266813
21
1.1872
0
LINE
8
BLACK
6
CONTINUOUS
10
0.266813
20
1.1872
11
0.266216
21
1.18757
0
LINE
8
BLACK
6
CONTINUOUS
10
0.266216
20
1.18757
11
0.264539
21
1.18804
0
LINE
8
BLACK
6
CONTINUOUS
10
0.264539
20
1.18804
11
0.2643
21
1.18812
0
LINE
8
BLACK
6
CONTINUOUS
10
0.2643
20
1.18812
11
0.26268
21
1.18875
0
LINE
8
BLACK
6
CONTINUOUS
10
0.26268
20
1.18875
11
0.261983
21
1.18883
0
LINE
8
BLACK
6
CONTINUOUS
10
0.261983
20
1.18883
11
0.261153
21
1.18898
0
LINE
8
BLACK
6
CONTINUOUS
10
0.261153
20
1.18898
11
0.260479
21
1.18917
0
LINE
8
BLACK
6
CONTINUOUS
10
0.260479
20
1.18917
11
0.260479
21
1.18917
0
LINE
8
BLACK
6
CONTINUOUS
10
0.260479
20
1.18917
11
0.258738
21
1.18917
0
LINE
8
BLACK
6
CONTINUOUS
10
0.258738
20
1.18917
11
0.258484
21
1.18919
0
LINE
8
BLACK
6
CONTINUOUS
10
0.258484
20
1.18919
11
0.256753
21
1.18936
0
LINE
8
BLACK
6
CONTINUOUS
10
0.256753
20
1.18936
11
0.256753
21
1.18936
0
LINE
8
BLACK
6
CONTINUOUS
10
0.256753
20
1.18936
11
0.256753
21
1.18936
0
LINE
8
BLACK
6
CONTINUOUS
10
0.256753
20
1.18936
11
0.256463
21
1.18931
0
LINE
8
BLACK
6
CONTINUOUS
10
0.256463
20
1.18931
11
0.256063
21
1.18925
0
LINE
8
BLACK
6
CONTINUOUS
10
0.256063
20
1.18925
11
0.255221
21
1.18917
0
LINE
8
BLACK
6
CONTINUOUS
10
0.255221
20
1.18917
11
0.176822
21
1.18917
0
LINE
8
BLACK
6
CONTINUOUS
10
0.176822
20
1.18917
11
0.17414
21
1.18996
0
LINE
8
BLACK
6
CONTINUOUS
10
0.17414
20
1.18996
11
0.172805
21
1.1915
0
LINE
8
BLACK
6
CONTINUOUS
10
0.172805
20
1.1915
11
0.172689
21
1.19142
0
LINE
8
BLACK
6
CONTINUOUS
10
0.172689
20
1.19142
11
0.172429
21
1.1918
0
LINE
8
BLACK
6
CONTINUOUS
10
0.172429
20
1.1918
11
0.172429
21
1.1918
0
LINE
8
BLACK
6
CONTINUOUS
10
0.172429
20
1.1918
11
0.169302
21
1.19493
0
LINE
8
BLACK
6
CONTINUOUS
10
0.169302
20
1.19493
11
0.165256
21
1.19672
0
LINE
8
BLACK
6
CONTINUOUS
10
0.165256
20
1.19672
11
0.164266
21
1.19683
0
LINE
8
BLACK
6
CONTINUOUS
10
0.164266
20
1.19683
11
0.105734
21
1.19683
0
LINE
8
BLACK
6
CONTINUOUS
10
0.105734
20
1.19683
11
0.104744
21
1.19672
0
LINE
8
BLACK
6
CONTINUOUS
10
0.104744
20
1.19672
11
0.103343
21
1.1961
0
LINE
8
BLACK
6
CONTINUOUS
10
0.103343
20
1.1961
11
0.100698
21
1.19493
0
LINE
8
BLACK
6
CONTINUOUS
10
0.100698
20
1.19493
11
0.0975707
21
1.1918
0
LINE
8
BLACK
6
CONTINUOUS
10
0.0975707
20
1.1918
11
0.0975706
21
1.1918
0
LINE
8
BLACK
6
CONTINUOUS
10
0.0975706
20
1.1918
11
0.095784
21
1.18776
0
LINE
8
BLACK
6
CONTINUOUS
10
0.095784
20
1.18776
11
0.0956693
21
1.18677
0
LINE
8
BLACK
6
CONTINUOUS
10
0.0956693
20
1.18677
11
0.0956693
21
1.14823
0
LINE
8
BLACK
6
CONTINUOUS
10
0.0956693
20
1.14823
11
0.0956693
21
1.14823
0
LINE
8
BLACK
6
CONTINUOUS
10
0.0430694
20
1.38454
11
0.0430694
21
1.38454
0
LINE
8
BLACK
6
CONTINUOUS
10
0.0430694
20
1.38454
11
0.04534
21
1.36924
0
LINE
8
BLACK
6
CONTINUOUS
10
0.04534
20
1.36924
11
0.04534
21
1.36924
0
LINE
8
BLACK
6
CONTINUOUS
10
0.04534
20
1.36924
11
0.04722
21
1.36173
0
LINE
8
BLACK
6
CONTINUOUS
10
0.04722
20
1.36173
11
0.0491002
21
1.35422
0
LINE
8
BLACK
6
CONTINUOUS
10
0.0491002
20
1.35422
11
0.0543134
21
1.33965
0
LINE
8
BLACK
6
CONTINUOUS
10
0.0543134
20
1.33965
11
0.06093
21
1.32567
0
LINE
8
BLACK
6
CONTINUOUS
10
0.06093
20
1.32567
11
0.0688857
21
1.31239
0
LINE
8
BLACK
6
CONTINUOUS
10
0.0688857
20
1.31239
11
0.0781037
21
1.29996
0
LINE
8
BLACK
6
CONTINUOUS
10
0.0781037
20
1.29996
11
0.0884964
21
1.2885
0
LINE
8
BLACK
6
CONTINUOUS
10
0.0884964
20
1.2885
11
0.0999629
21
1.2781
0
LINE
8
BLACK
6
CONTINUOUS
10
0.0999629
20
1.2781
11
0.112392
21
1.26889
0
LINE
8
BLACK
6
CONTINUOUS
10
0.112392
20
1.26889
11
0.125665
21
1.26093
0
LINE
8
BLACK
6
CONTINUOUS
10
0.125665
20
1.26093
11
0.139655
21
1.25431
0
LINE
8
BLACK
6
CONTINUOUS
10
0.139655
20
1.25431
11
0.154225
21
1.2491
0
LINE
8
BLACK
6
CONTINUOUS
10
0.154225
20
1.2491
11
0.161731
21
1.24722
0
LINE
8
BLACK
6
CONTINUOUS
10
0.161731
20
1.24722
11
0.169236
21
1.24534
0
LINE
8
BLACK
6
CONTINUOUS
10
0.169236
20
1.24534
11
0.169236
21
1.24534
0
LINE
8
BLACK
6
CONTINUOUS
10
0.169236
20
1.24534
11
0.169236
21
1.24534
0
LINE
8
BLACK
6
CONTINUOUS
10
0.169236
20
1.24534
11
0.184543
21
1.24307
0
LINE
8
BLACK
6
CONTINUOUS
10
0.184543
20
1.24307
11
0.184544
21
1.24307
0
LINE
8
BLACK
6
CONTINUOUS
10
0.184544
20
1.24307
11
0.184544
21
1.24307
0
LINE
8
BLACK
6
CONTINUOUS
10
0.184544
20
1.24307
11
0.191168
21
1.24274
0
LINE
8
BLACK
6
CONTINUOUS
10
0.191168
20
1.24274
11
0.2
21
1.24231
0
LINE
8
BLACK
6
CONTINUOUS
10
0.2
20
1.24231
11
0.2
21
1.24231
0
LINE
8
BLACK
6
CONTINUOUS
10
0.2
20
1.24231
11
0.2
21
1.24231
0
LINE
8
BLACK
6
CONTINUOUS
10
0.2
20
1.24231
11
0.207728
21
1.24269
0
LINE
8
BLACK
6
CONTINUOUS
10
0.207728
20
1.24269
11
0.215456
21
1.24307
0
LINE
8
BLACK
6
CONTINUOUS
10
0.215456
20
1.24307
11
0.215456
21
1.24307
0
LINE
8
BLACK
6
CONTINUOUS
10
0.215456
20
1.24307
11
0.215457
21
1.24307
0
LINE
8
BLACK
6
CONTINUOUS
10
0.215457
20
1.24307
11
0.230764
21
1.24534
0
LINE
8
BLACK
6
CONTINUOUS
10
0.230764
20
1.24534
11
0.230764
21
1.24534
0
LINE
8
BLACK
6
CONTINUOUS
10
0.230764
20
1.24534
11
0.242008
21
1.24816
0
LINE
8
BLACK
6
CONTINUOUS
10
0.242008
20
1.24816
11
0.245775
21
1.2491
0
LINE
8
BLACK
6
CONTINUOUS
10
0.245775
20
1.2491
11
0.260345
21
1.25431
0
LINE
8
BLACK
6
CONTINUOUS
10
0.260345
20
1.25431
11
0.260345
21
1.25431
0
LINE
8
BLACK
6
CONTINUOUS
10
0.260345
20
1.25431
11
0.274335
21
1.26093
0
LINE
8
BLACK
6
CONTINUOUS
10
0.274335
20
1.26093
11
0.278805
21
1.26361
0
LINE
8
BLACK
6
CONTINUOUS
10
0.278805
20
1.26361
11
0.287608
21
1.26889
0
LINE
8
BLACK
6
CONTINUOUS
10
0.287608
20
1.26889
11
0.300037
21
1.2781
0
LINE
8
BLACK
6
CONTINUOUS
10
0.300037
20
1.2781
11
0.300037
21
1.2781
0
LINE
8
BLACK
6
CONTINUOUS
10
0.300037
20
1.2781
11
0.311504
21
1.2885
0
LINE
8
BLACK
6
CONTINUOUS
10
0.311504
20
1.2885
11
0.321896
21
1.29996
0
LINE
8
BLACK
6
CONTINUOUS
10
0.321896
20
1.29996
11
0.321896
21
1.29996
0
LINE
8
BLACK
6
CONTINUOUS
10
0.321896
20
1.29996
11
0.321896
21
1.29996
0
LINE
8
BLACK
6
CONTINUOUS
10
0.321896
20
1.29996
11
0.331114
21
1.31239
0
LINE
8
BLACK
6
CONTINUOUS
10
0.331114
20
1.31239
11
0.331114
21
1.31239
0
LINE
8
BLACK
6
CONTINUOUS
10
0.331114
20
1.31239
11
0.33907
21
1.32567
0
LINE
8
BLACK
6
CONTINUOUS
10
0.33907
20
1.32567
11
0.345687
21
1.33965
0
LINE
8
BLACK
6
CONTINUOUS
10
0.345687
20
1.33965
11
0.3509
21
1.35423
0
LINE
8
BLACK
6
CONTINUOUS
10
0.3509
20
1.35423
11
0.35466
21
1.36924
0
LINE
8
BLACK
6
CONTINUOUS
10
0.35466
20
1.36924
11
0.356931
21
1.38454
0
LINE
8
BLACK
6
CONTINUOUS
10
0.356931
20
1.38454
11
0.35769
21
1.4
0
LINE
8
BLACK
6
CONTINUOUS
10
0.35769
20
1.4
11
0.35769
21
1.4
0
LINE
8
BLACK
6
CONTINUOUS
10
0.35769
20
1.4
11
0.356931
21
1.41546
0
LINE
8
BLACK
6
CONTINUOUS
10
0.356931
20
1.41546
11
0.35466
21
1.43076
0
LINE
8
BLACK
6
CONTINUOUS
10
0.35466
20
1.43076
11
0.3509
21
1.44577
0
LINE
8
BLACK
6
CONTINUOUS
10
0.3509
20
1.44577
11
0.345687
21
1.46035
0
LINE
8
BLACK
6
CONTINUOUS
10
0.345687
20
1.46035
11
0.33907
21
1.47433
0
LINE
8
BLACK
6
CONTINUOUS
10
0.33907
20
1.47433
11
0.331114
21
1.48761
0
LINE
8
BLACK
6
CONTINUOUS
10
0.331114
20
1.48761
11
0.321896
21
1.50004
0
LINE
8
BLACK
6
CONTINUOUS
10
0.321896
20
1.50004
11
0.311504
21
1.5115
0
LINE
8
BLACK
6
CONTINUOUS
10
0.311504
20
1.5115
11
0.300037
21
1.5219
0
LINE
8
BLACK
6
CONTINUOUS
10
0.300037
20
1.5219
11
0.287608
21
1.53111
0
LINE
8
BLACK
6
CONTINUOUS
10
0.287608
20
1.53111
11
0.274335
21
1.53907
0
LINE
8
BLACK
6
CONTINUOUS
10
0.274335
20
1.53907
11
0.260345
21
1.54569
0
LINE
8
BLACK
6
CONTINUOUS
10
0.260345
20
1.54569
11
0.245775
21
1.5509
0
LINE
8
BLACK
6
CONTINUOUS
10
0.245775
20
1.5509
11
0.230764
21
1.55466
0
LINE
8
BLACK
6
CONTINUOUS
10
0.230764
20
1.55466
11
0.215456
21
1.55693
0
LINE
8
BLACK
6
CONTINUOUS
10
0.215456
20
1.55693
11
0.20218
21
1.55758
0
LINE
8
BLACK
6
CONTINUOUS
10
0.20218
20
1.55758
11
0.2
21
1.55769
0
LINE
8
BLACK
6
CONTINUOUS
10
0.2
20
1.55769
11
0.2
21
1.55769
0
LINE
8
BLACK
6
CONTINUOUS
10
0.2
20
1.55769
11
0.19774
21
1.55758
0
LINE
8
BLACK
6
CONTINUOUS
10
0.19774
20
1.55758
11
0.184544
21
1.55693
0
LINE
8
BLACK
6
CONTINUOUS
10
0.184544
20
1.55693
11
0.169236
21
1.55466
0
LINE
8
BLACK
6
CONTINUOUS
10
0.169236
20
1.55466
11
0.154225
21
1.5509
0
LINE
8
BLACK
6
CONTINUOUS
10
0.154225
20
1.5509
11
0.139655
21
1.54569
0
LINE
8
BLACK
6
CONTINUOUS
10
0.139655
20
1.54569
11
0.125665
21
1.53907
0
LINE
8
BLACK
6
CONTINUOUS
10
0.125665
20
1.53907
11
0.112392
21
1.53111
0
LINE
8
BLACK
6
CONTINUOUS
10
0.112392
20
1.53111
11
0.112392
21
1.53111
0
LINE
8
BLACK
6
CONTINUOUS
10
0.112392
20
1.53111
11
0.0999629
21
1.5219
0
LINE
8
BLACK
6
CONTINUOUS
10
0.0999629
20
1.5219
11
0.0999626
21
1.5219
0
LINE
8
BLACK
6
CONTINUOUS
10
0.0999626
20
1.5219
11
0.0999626
21
1.5219
0
LINE
8
BLACK
6
CONTINUOUS
10
0.0999626
20
1.5219
11
0.0884964
21
1.5115
0
LINE
8
BLACK
6
CONTINUOUS
10
0.0884964
20
1.5115
11
0.078104
21
1.50004
0
LINE
8
BLACK
6
CONTINUOUS
10
0.078104
20
1.50004
11
0.0781037
21
1.50004
0
LINE
8
BLACK
6
CONTINUOUS
10
0.0781037
20
1.50004
11
0.0688857
21
1.48761
0
LINE
8
BLACK
6
CONTINUOUS
10
0.0688857
20
1.48761
11
0.0688856
21
1.48761
0
LINE
8
BLACK
6
CONTINUOUS
10
0.0688856
20
1.48761
11
0.0609299
21
1.47433
0
LINE
8
BLACK
6
CONTINUOUS
10
0.0609299
20
1.47433
11
0.0543135
21
1.46035
0
LINE
8
BLACK
6
CONTINUOUS
10
0.0543135
20
1.46035
11
0.0543134
21
1.46035
0
LINE
8
BLACK
6
CONTINUOUS
10
0.0543134
20
1.46035
11
0.0491002
21
1.44578
0
LINE
8
BLACK
6
CONTINUOUS
10
0.0491002
20
1.44578
11
0.0491001
21
1.44577
0
LINE
8
BLACK
6
CONTINUOUS
10
0.0491001
20
1.44577
11
0.04534
21
1.43076
0
LINE
8
BLACK
6
CONTINUOUS
10
0.04534
20
1.43076
11
0.04534
21
1.43076
0
LINE
8
BLACK
6
CONTINUOUS
10
0.04534
20
1.43076
11
0.0430694
21
1.41546
0
LINE
8
BLACK
6
CONTINUOUS
10
0.0430694
20
1.41546
11
0.0430694
21
1.41546
0
LINE
8
BLACK
6
CONTINUOUS
10
0.0430694
20
1.41546
11
0.04231
21
1.4
0
LINE
8
BLACK
6
CONTINUOUS
10
0.04231
20
1.4
11
0.04231
21
1.4
0
LINE
8
BLACK
6
CONTINUOUS
10
0.04231
20
1.4
11
0.0430694
21
1.38454
0
LINE
8
BLACK
6
CONTINUOUS
10
0.443069
20
1.38454
11
0.443069
21
1.38454
0
LINE
8
BLACK
6
CONTINUOUS
10
0.443069
20
1.38454
11
0.44534
21
1.36924
0
LINE
8
BLACK
6
CONTINUOUS
10
0.44534
20
1.36924
11
0.44534
21
1.36924
0
LINE
8
BLACK
6
CONTINUOUS
10
0.44534
20
1.36924
11
0.44722
21
1.36173
0
LINE
8
BLACK
6
CONTINUOUS
10
0.44722
20
1.36173
11
0.4491
21
1.35422
0
LINE
8
BLACK
6
CONTINUOUS
10
0.4491
20
1.35422
11
0.454313
21
1.33965
0
LINE
8
BLACK
6
CONTINUOUS
10
0.454313
20
1.33965
11
0.46093
21
1.32567
0
LINE
8
BLACK
6
CONTINUOUS
10
0.46093
20
1.32567
11
0.468886
21
1.31239
0
LINE
8
BLACK
6
CONTINUOUS
10
0.468886
20
1.31239
11
0.478104
21
1.29996
0
LINE
8
BLACK
6
CONTINUOUS
10
0.478104
20
1.29996
11
0.488496
21
1.2885
0
LINE
8
BLACK
6
CONTINUOUS
10
0.488496
20
1.2885
11
0.499963
21
1.2781
0
LINE
8
BLACK
6
CONTINUOUS
10
0.499963
20
1.2781
11
0.512392
21
1.26889
0
LINE
8
BLACK
6
CONTINUOUS
10
0.512392
20
1.26889
11
0.525665
21
1.26093
0
LINE
8
BLACK
6
CONTINUOUS
10
0.525665
20
1.26093
11
0.539655
21
1.25431
0
LINE
8
BLACK
6
CONTINUOUS
10
0.539655
20
1.25431
11
0.554225
21
1.2491
0
LINE
8
BLACK
6
CONTINUOUS
10
0.554225
20
1.2491
11
0.561731
21
1.24722
0
LINE
8
BLACK
6
CONTINUOUS
10
0.561731
20
1.24722
11
0.569236
21
1.24534
0
LINE
8
BLACK
6
CONTINUOUS
10
0.569236
20
1.24534
11
0.569236
21
1.24534
0
LINE
8
BLACK
6
CONTINUOUS
10
0.569236
20
1.24534
11
0.569236
21
1.24534
0
LINE
8
BLACK
6
CONTINUOUS
10
0.569236
20
1.24534
11
0.584543
21
1.24307
0
LINE
8
BLACK
6
CONTINUOUS
10
0.584543
20
1.24307
11
0.584544
21
1.24307
0
LINE
8
BLACK
6
CONTINUOUS
10
0.584544
20
1.24307
11
0.584544
21
1.24307
0
LINE
8
BLACK
6
CONTINUOUS
10
0.584544
20
1.24307
11
0.591168
21
1.24274
0
LINE
8
BLACK
6
CONTINUOUS
10
0.591168
20
1.24274
11
0.6
21
1.24231
0
LINE
8
BLACK
6
CONTINUOUS
10
0.6
20
1.24231
11
0.6
21
1.24231
0
LINE
8
BLACK
6
CONTINUOUS
10
0.6
20
1.24231
11
0.6
21
1.24231
0
LINE
8
BLACK
6
CONTINUOUS
10
0.6
20
1.24231
11
0.607728
21
1.24269
0
LINE
8
BLACK
6
CONTINUOUS
10
0.607728
20
1.24269
11
0.615456
21
1.24307
0
LINE
8
BLACK
6
CONTINUOUS
10
0.615456
20
1.24307
11
0.615456
21
1.24307
0
LINE
8
BLACK
6
CONTINUOUS
10
0.615456
20
1.24307
11
0.615457
21
1.24307
0
LINE
8
BLACK
6
CONTINUOUS
10
0.615457
20
1.24307
11
0.630764
21
1.24534
0
LINE
8
BLACK
6
CONTINUOUS
10
0.630764
20
1.24534
11
0.630764
21
1.24534
0
LINE
8
BLACK
6
CONTINUOUS
10
0.630764
20
1.24534
11
0.642008
21
1.24816
0
LINE
8
BLACK
6
CONTINUOUS
10
0.642008
20
1.24816
11
0.645775
21
1.2491
0
LINE
8
BLACK
6
CONTINUOUS
10
0.645775
20
1.2491
11
0.660345
21
1.25431
0
LINE
8
BLACK
6
CONTINUOUS
10
0.660345
20
1.25431
11
0.660345
21
1.25431
0
LINE
8
BLACK
6
CONTINUOUS
10
0.660345
20
1.25431
11
0.674335
21
1.26093
0
LINE
8
BLACK
6
CONTINUOUS
10
0.674335
20
1.26093
11
0.678805
21
1.26361
0
LINE
8
BLACK
6
CONTINUOUS
10
0.678805
20
1.26361
11
0.687608
21
1.26889
0
LINE
8
BLACK
6
CONTINUOUS
10
0.687608
20
1.26889
11
0.700037
21
1.2781
0
LINE
8
BLACK
6
CONTINUOUS
10
0.700037
20
1.2781
11
0.700037
21
1.2781
0
LINE
8
BLACK
6
CONTINUOUS
10
0.700037
20
1.2781
11
0.711504
21
1.2885
0
LINE
8
BLACK
6
CONTINUOUS
10
0.711504
20
1.2885
11
0.721896
21
1.29996
0
LINE
8
BLACK
6
CONTINUOUS
10
0.721896
20
1.29996
11
0.721896
21
1.29996
0
LINE
8
BLACK
6
CONTINUOUS
10
0.721896
20
1.29996
11
0.721896
21
1.29996
0
LINE
8
BLACK
6
CONTINUOUS
10
0.721896
20
1.29996
11
0.731114
21
1.31239
0
LINE
8
BLACK
6
CONTINUOUS
10
0.731114
20
1.31239
11
0.731114
21
1.31239
0
LINE
8
BLACK
6
CONTINUOUS
10
0.731114
20
1.31239
11
0.73907
21
1.32567
0
LINE
8
BLACK
6
CONTINUOUS
10
0.73907
20
1.32567
11
0.745687
21
1.33965
0
LINE
8
BLACK
6
CONTINUOUS
10
0.745687
20
1.33965
11
0.7509
21
1.35423
0
LINE
8
BLACK
6
CONTINUOUS
10
0.7509
20
1.35423
11
0.75466
21
1.36924
0
LINE
8
BLACK
6
CONTINUOUS
10
0.75466
20
1.36924
11
0.756931
21
1.38454
0
LINE
8
BLACK
6
CONTINUOUS
10
0.756931
20
1.38454
11
0.75769
21
1.4
0
LINE
8
BLACK
6
CONTINUOUS
10
0.75769
20
1.4
11
0.756931
21
1.41546
0
LINE
8
BLACK
6
CONTINUOUS
10
0.756931
20
1.41546
11
0.75466
21
1.43076
0
LINE
8
BLACK
6
CONTINUOUS
10
0.75466
20
1.43076
11
0.7509
21
1.44577
0
LINE
8
BLACK
6
CONTINUOUS
10
0.7509
20
1.44577
11
0.745687
21
1.46035
0
LINE
8
BLACK
6
CONTINUOUS
10
0.745687
20
1.46035
11
0.73907
21
1.47433
0
LINE
8
BLACK
6
CONTINUOUS
10
0.73907
20
1.47433
11
0.731114
21
1.48761
0
LINE
8
BLACK
6
CONTINUOUS
10
0.731114
20
1.48761
11
0.721896
21
1.50004
0
LINE
8
BLACK
6
CONTINUOUS
10
0.721896
20
1.50004
11
0.711504
21
1.5115
0
LINE
8
BLACK
6
CONTINUOUS
10
0.711504
20
1.5115
11
0.700037
21
1.5219
0
LINE
8
BLACK
6
CONTINUOUS
10
0.700037
20
1.5219
11
0.687608
21
1.53111
0
LINE
8
BLACK
6
CONTINUOUS
10
0.687608
20
1.53111
11
0.674335
21
1.53907
0
LINE
8
BLACK
6
CONTINUOUS
10
0.674335
20
1.53907
11
0.660345
21
1.54569
0
LINE
8
BLACK
6
CONTINUOUS
10
0.660345
20
1.54569
11
0.645775
21
1.5509
0
LINE
8
BLACK
6
CONTINUOUS
10
0.645775
20
1.5509
11
0.630764
21
1.55466
0
LINE
8
BLACK
6
CONTINUOUS
10
0.630764
20
1.55466
11
0.615456
21
1.55693
0
LINE
8
BLACK
6
CONTINUOUS
10
0.615456
20
1.55693
11
0.60218
21
1.55758
0
LINE
8
BLACK
6
CONTINUOUS
10
0.60218
20
1.55758
11
0.6
21
1.55769
0
LINE
8
BLACK
6
CONTINUOUS
10
0.6
20
1.55769
11
0.6
21
1.55769
0
LINE
8
BLACK
6
CONTINUOUS
10
0.6
20
1.55769
11
0.59774
21
1.55758
0
LINE
8
BLACK
6
CONTINUOUS
10
0.59774
20
1.55758
11
0.584544
21
1.55693
0
LINE
8
BLACK
6
CONTINUOUS
10
0.584544
20
1.55693
11
0.569236
21
1.55466
0
LINE
8
BLACK
6
CONTINUOUS
10
0.569236
20
1.55466
11
0.554225
21
1.5509
0
LINE
8
BLACK
6
CONTINUOUS
10
0.554225
20
1.5509
11
0.539655
21
1.54569
0
LINE
8
BLACK
6
CONTINUOUS
10
0.539655
20
1.54569
11
0.525665
21
1.53907
0
LINE
8
BLACK
6
CONTINUOUS
10
0.525665
20
1.53907
11
0.512392
21
1.53111
0
LINE
8
BLACK
6
CONTINUOUS
10
0.512392
20
1.53111
11
0.512392
21
1.53111
0
LINE
8
BLACK
6
CONTINUOUS
10
0.512392
20
1.53111
11
0.499963
21
1.5219
0
LINE
8
BLACK
6
CONTINUOUS
10
0.499963
20
1.5219
11
0.499963
21
1.5219
0
LINE
8
BLACK
6
CONTINUOUS
10
0.499963
20
1.5219
11
0.499963
21
1.5219
0
LINE
8
BLACK
6
CONTINUOUS
10
0.499963
20
1.5219
11
0.488496
21
1.5115
0
LINE
8
BLACK
6
CONTINUOUS
10
0.488496
20
1.5115
11
0.478104
21
1.50004
0
LINE
8
BLACK
6
CONTINUOUS
10
0.478104
20
1.50004
11
0.478104
21
1.50004
0
LINE
8
BLACK
6
CONTINUOUS
10
0.478104
20
1.50004
11
0.468886
21
1.48761
0
LINE
8
BLACK
6
CONTINUOUS
10
0.468886
20
1.48761
11
0.468886
21
1.48761
0
LINE
8
BLACK
6
CONTINUOUS
10
0.468886
20
1.48761
11
0.46093
21
1.47433
0
LINE
8
BLACK
6
CONTINUOUS
10
0.46093
20
1.47433
11
0.454313
21
1.46035
0
LINE
8
BLACK
6
CONTINUOUS
10
0.454313
20
1.46035
11
0.454313
21
1.46035
0
LINE
8
BLACK
6
CONTINUOUS
10
0.454313
20
1.46035
11
0.4491
21
1.44578
0
LINE
8
BLACK
6
CONTINUOUS
10
0.4491
20
1.44578
11
0.4491
21
1.44577
0
LINE
8
BLACK
6
CONTINUOUS
10
0.4491
20
1.44577
11
0.44534
21
1.43076
0
LINE
8
BLACK
6
CONTINUOUS
10
0.44534
20
1.43076
11
0.44534
21
1.43076
0
LINE
8
BLACK
6
CONTINUOUS
10
0.44534
20
1.43076
11
0.443069
21
1.41546
0
LINE
8
BLACK
6
CONTINUOUS
10
0.443069
20
1.41546
11
0.443069
21
1.41546
0
LINE
8
BLACK
6
CONTINUOUS
10
0.443069
20
1.41546
11
0.44231
21
1.4
0
LINE
8
BLACK
6
CONTINUOUS
10
0.44231
20
1.4
11
0.44231
21
1.4
0
LINE
8
BLACK
6
CONTINUOUS
10
0.44231
20
1.4
11
0.443069
21
1.38454
0
CIRCLE
8
BLACK
10
0.6
20
1.4
40
0.00688976
0
CIRCLE
8
BLACK
10
0.6
20
0.2
40
0.00688976
0
CIRCLE
8
BLACK
10
0.2
20
0.2
40
0.00688976
0
CIRCLE
8
BLACK
10
0.2
20
1.4
40
0.00688976
0
CIRCLE
8
BLACK
10
0.62
20
1.165
40
0.00688976
0
CIRCLE
8
BLACK
10
0.72
20
1.165
40
0.00688976
0
CIRCLE
8
BLACK
10
0.62
20
1.065
40
0.00688976
0
CIRCLE
8
BLACK
10
0.72
20
1.065
40
0.00688976
0
CIRCLE
8
BLACK
10
0.62
20
0.965
40
0.00688976
0
CIRCLE
8
BLACK
10
0.72
20
0.965
40
0.00688976
0
CIRCLE
8
BLACK
10
0.1
20
0.885
40
0.00688976
0
CIRCLE
8
BLACK
10
0.1
20
0.985
40
0.00688976
0
CIRCLE
8
BLACK
10
0.62
20
0.7
40
0.00688976
0
CIRCLE
8
BLACK
10
0.72
20
0.7
40
0.00688976
0
CIRCLE
8
BLACK
10
0.62
20
0.6
40
0.00688976
0
CIRCLE
8
BLACK
10
0.72
20
0.6
40
0.00688976
0
CIRCLE
8
BLACK
10
0.62
20
0.5
40
0.00688976
0
CIRCLE
8
BLACK
10
0.72
20
0.5
40
0.00688976
0
CIRCLE
8
BLACK
10
0.62
20
0.4
40
0.00688976
0
CIRCLE
8
BLACK
10
0.72
20
0.4
40
0.00688976
0
CIRCLE
8
BLACK
10
0.055
20
0.53
40
0.00787402
0
CIRCLE
8
BLACK
10
0.11
20
0.53
40
0.00787402
0
CIRCLE
8
BLACK
10
0.465
20
0.71
40
0.00787402
0
CIRCLE
8
BLACK
10
0.195
20
1.05
40
0.00787402
0
CIRCLE
8
BLACK
10
0.665
20
0.77
40
0.00787402
0
CIRCLE
8
BLACK
10
0.19
20
0.495
40
0.00787402
0
CIRCLE
8
BLACK
10
0.355
20
0.775
40
0.00787402
0
CIRCLE
8
BLACK
10
0.315
20
0.81
40
0.00787402
0
CIRCLE
8
BLACK
10
0.19
20
0.445
40
0.00787402
0
CIRCLE
8
BLACK
10
0.725
20
0.77
40
0.00787402
0
CIRCLE
8
BLACK
10
0.365
20
0.67
40
0.00787402
0
CIRCLE
8
BLACK
10
0.5
20
1.165
40
0.00787402
0
CIRCLE
8
BLACK
10
0.165
20
0.885
40
0.00787402
0
CIRCLE
8
BLACK
10
0.19
20
0.4
40
0.00787402
0
CIRCLE
8
BLACK
10
0.355
20
0.72
40
0.00787402
0
CIRCLE
8
BLACK
10
0.55
20
1.165
40
0.00787402
0
CIRCLE
8
BLACK
10
0.725
20
0.895
40
0.00787402
0
CIRCLE
8
BLACK
10
0.25
20
1.05
40
0.00787402
0
CIRCLE
8
BLACK
10
0.395
20
0.71
40
0.00787402
0
CIRCLE
8
BLACK
10
0.265
20
0.81
40
0.00787402
0
CIRCLE
8
BLACK
10
0.055
20
0.585
40
0.00787402
0
CIRCLE
8
BLACK
10
0.62
20
0.895
40
0.00787402
0
CIRCLE
8
BLACK
10
0.615
20
0.77
40
0.00787402
0
CIRCLE
8
BLACK
10
0.19
20
1.13
40
0.00787402
0
CIRCLE
8
BLACK
10
0.67
20
0.895
40
0.00787402
0
CIRCLE
8
BLACK
10
0.155
20
0.53
40
0.00787402
  0
ENDSEC
  0
EOF
