  0
SECTION
  2
HEADER
  9
$ANGBASE
  50
0.0
  9
$ANGDIR
  70
1
  9
$MEASUREMENT
  70
0
  0
ENDSEC
  0
SECTION
  2
TABLES
  0
TABLE
  2
LTYPE
  70
4
  0
LTYPE
  5
40F
  2
CONTINUOUS
  70
0
  3
Solid line
  72
65
  73
0
  40
0.0
  0
LTYPE
  5
410
  2
DASHDOT
 70
0
  3
Dash Dot ____ _ ____ _
 72
65
 73
4
 40
2.0
 49
1.25
 49
-0.25
 49
0.25
 49
-0.25
  0
LTYPE
  5
411
  2
DASHED
 70
0
  3
Dashed __ __ __ __ __
 72
65
 73
2
 40
0.75
 49
0.5
 49
-0.25
  0
LTYPE
  5
43B
  2
DOTTED
 70
0
  3
Dotted .  .  .  .
 72
65
 73
2
 40
0.2
 49
0.0
 49
-0.2
  0
ENDTAB
  0
TABLE
  2
STYLE
  70
4
  0
STYLE
  2
KICAD
  70
0
  40
0
  41
1
  42
1
  50
0
  71
0
  3
isocp.shx
  0
STYLE
  2
KICADB
  70
0
  40
0
  41
1
  42
1
  50
0
  71
0
  3
isocp.shx
  0
STYLE
  2
KICADI
  70
0
  40
0
  41
1
  42
1
  50
15
  71
0
  3
isocp.shx
  0
STYLE
  2
KICADBI
  70
0
  40
0
  41
1
  42
1
  50
15
  71
0
  3
isocp.shx
  0
ENDTAB
  0
TABLE
  2
LAYER
  70
1
  0
LAYER
  2
BLACK
  70
0
  62
7
  6
CONTINUOUS
  0
ENDTAB
  0
ENDSEC
  0
SECTION
  2
ENTITIES
0
LINE
8
BLACK
6
CONTINUOUS
10
0.0251444
20
1.57215
11
0.0262282
21
1.57377
0
LINE
8
BLACK
6
CONTINUOUS
10
0.0262282
20
1.57377
11
0.0278504
21
1.57486
0
LINE
8
BLACK
6
CONTINUOUS
10
0.0278504
20
1.57486
11
0.0297638
21
1.57524
0
LINE
8
BLACK
6
CONTINUOUS
10
0.0297638
20
1.57524
11
0.770236
21
1.57524
0
LINE
8
BLACK
6
CONTINUOUS
10
0.770236
20
1.57524
11
0.77215
21
1.57486
0
LINE
8
BLACK
6
CONTINUOUS
10
0.77215
20
1.57486
11
0.773772
21
1.57377
0
LINE
8
BLACK
6
CONTINUOUS
10
0.773772
20
1.57377
11
0.774856
21
1.57215
0
LINE
8
BLACK
6
CONTINUOUS
10
0.774856
20
1.57215
11
0.775236
21
1.57024
0
LINE
8
BLACK
6
CONTINUOUS
10
0.775236
20
1.57024
11
0.775236
21
0.0297638
0
LINE
8
BLACK
6
CONTINUOUS
10
0.775236
20
0.0297638
11
0.774856
21
0.0278504
0
LINE
8
BLACK
6
CONTINUOUS
10
0.774856
20
0.0278504
11
0.773772
21
0.0262282
0
LINE
8
BLACK
6
CONTINUOUS
10
0.773772
20
0.0262282
11
0.77215
21
0.0251444
0
LINE
8
BLACK
6
CONTINUOUS
10
0.77215
20
0.0251444
11
0.770236
21
0.0247638
0
LINE
8
BLACK
6
CONTINUOUS
10
0.770236
20
0.0247638
11
0.0297638
21
0.0247638
0
LINE
8
BLACK
6
CONTINUOUS
10
0.0297638
20
0.0247638
11
0.0278504
21
0.0251444
0
LINE
8
BLACK
6
CONTINUOUS
10
0.0278504
20
0.0251444
11
0.0262282
21
0.0262282
0
LINE
8
BLACK
6
CONTINUOUS
10
0.0262282
20
0.0262282
11
0.0251444
21
0.0278504
0
LINE
8
BLACK
6
CONTINUOUS
10
0.0251444
20
0.0278504
11
0.0247638
21
0.0297638
0
LINE
8
BLACK
6
CONTINUOUS
10
0.0247638
20
0.0297638
11
0.0247638
21
1.57024
0
LINE
8
BLACK
6
CONTINUOUS
10
0.0247638
20
1.57024
11
0.0251444
21
1.57215
0
LINE
8
BLACK
6
CONTINUOUS
10
0.681485
20
0.561485
11
0.685392
21
0.558874
0
LINE
8
BLACK
6
CONTINUOUS
10
0.685392
20
0.558874
11
0.690492
21
0.55786
0
LINE
8
BLACK
6
CONTINUOUS
10
0.690492
20
0.55786
11
0.749508
21
0.55786
0
LINE
8
BLACK
6
CONTINUOUS
10
0.749508
20
0.55786
11
0.754608
21
0.558874
0
LINE
8
BLACK
6
CONTINUOUS
10
0.754608
20
0.558874
11
0.758515
21
0.561485
0
LINE
8
BLACK
6
CONTINUOUS
10
0.758515
20
0.561485
11
0.761126
21
0.565392
0
LINE
8
BLACK
6
CONTINUOUS
10
0.761126
20
0.565392
11
0.76214
21
0.570492
0
LINE
8
BLACK
6
CONTINUOUS
10
0.76214
20
0.570492
11
0.76214
21
0.629508
0
LINE
8
BLACK
6
CONTINUOUS
10
0.76214
20
0.629508
11
0.761126
21
0.634608
0
LINE
8
BLACK
6
CONTINUOUS
10
0.761126
20
0.634608
11
0.758515
21
0.638515
0
LINE
8
BLACK
6
CONTINUOUS
10
0.758515
20
0.638515
11
0.754608
21
0.641126
0
LINE
8
BLACK
6
CONTINUOUS
10
0.754608
20
0.641126
11
0.749508
21
0.64214
0
LINE
8
BLACK
6
CONTINUOUS
10
0.749508
20
0.64214
11
0.690492
21
0.64214
0
LINE
8
BLACK
6
CONTINUOUS
10
0.690492
20
0.64214
11
0.685392
21
0.641126
0
LINE
8
BLACK
6
CONTINUOUS
10
0.685392
20
0.641126
11
0.681485
21
0.638515
0
LINE
8
BLACK
6
CONTINUOUS
10
0.681485
20
0.638515
11
0.678874
21
0.634608
0
LINE
8
BLACK
6
CONTINUOUS
10
0.678874
20
0.634608
11
0.67786
21
0.629508
0
LINE
8
BLACK
6
CONTINUOUS
10
0.67786
20
0.629508
11
0.67786
21
0.570492
0
LINE
8
BLACK
6
CONTINUOUS
10
0.67786
20
0.570492
11
0.678874
21
0.565392
0
LINE
8
BLACK
6
CONTINUOUS
10
0.678874
20
0.565392
11
0.681485
21
0.561485
0
LINE
8
BLACK
6
CONTINUOUS
10
0.75
20
0.57
11
0.69
21
0.57
0
LINE
8
BLACK
6
CONTINUOUS
10
0.69
20
0.57
11
0.69
21
0.63
0
LINE
8
BLACK
6
CONTINUOUS
10
0.69
20
0.63
11
0.75
21
0.63
0
LINE
8
BLACK
6
CONTINUOUS
10
0.75
20
0.63
11
0.75
21
0.57
0
CIRCLE
8
BLACK
10
0.055
20
0.53
40
0.00787402
0
CIRCLE
8
BLACK
10
0.11
20
0.53
40
0.00787402
0
CIRCLE
8
BLACK
10
0.465
20
0.71
40
0.00787402
0
CIRCLE
8
BLACK
10
0.195
20
1.05
40
0.00787402
0
CIRCLE
8
BLACK
10
0.665
20
0.77
40
0.00787402
0
CIRCLE
8
BLACK
10
0.19
20
0.495
40
0.00787402
0
CIRCLE
8
BLACK
10
0.355
20
0.775
40
0.00787402
0
CIRCLE
8
BLACK
10
0.315
20
0.81
40
0.00787402
0
CIRCLE
8
BLACK
10
0.19
20
0.445
40
0.00787402
0
CIRCLE
8
BLACK
10
0.725
20
0.77
40
0.00787402
0
CIRCLE
8
BLACK
10
0.365
20
0.67
40
0.00787402
0
CIRCLE
8
BLACK
10
0.5
20
1.165
40
0.00787402
0
CIRCLE
8
BLACK
10
0.165
20
0.885
40
0.00787402
0
CIRCLE
8
BLACK
10
0.19
20
0.4
40
0.00787402
0
CIRCLE
8
BLACK
10
0.355
20
0.72
40
0.00787402
0
CIRCLE
8
BLACK
10
0.55
20
1.165
40
0.00787402
0
CIRCLE
8
BLACK
10
0.725
20
0.895
40
0.00787402
0
CIRCLE
8
BLACK
10
0.25
20
1.05
40
0.00787402
0
CIRCLE
8
BLACK
10
0.395
20
0.71
40
0.00787402
0
CIRCLE
8
BLACK
10
0.265
20
0.81
40
0.00787402
0
CIRCLE
8
BLACK
10
0.055
20
0.585
40
0.00787402
0
CIRCLE
8
BLACK
10
0.62
20
0.895
40
0.00787402
0
CIRCLE
8
BLACK
10
0.615
20
0.77
40
0.00787402
0
CIRCLE
8
BLACK
10
0.19
20
1.13
40
0.00787402
0
CIRCLE
8
BLACK
10
0.67
20
0.895
40
0.00787402
0
CIRCLE
8
BLACK
10
0.155
20
0.53
40
0.00787402
  0
ENDSEC
  0
EOF
