  0
SECTION
  2
HEADER
  9
$ANGBASE
  50
0.0
  9
$ANGDIR
  70
1
  9
$MEASUREMENT
  70
0
  0
ENDSEC
  0
SECTION
  2
TABLES
  0
TABLE
  2
LTYPE
  70
4
  0
LTYPE
  5
40F
  2
CONTINUOUS
  70
0
  3
Solid line
  72
65
  73
0
  40
0.0
  0
LTYPE
  5
410
  2
DASHDOT
 70
0
  3
Dash Dot ____ _ ____ _
 72
65
 73
4
 40
2.0
 49
1.25
 49
-0.25
 49
0.25
 49
-0.25
  0
LTYPE
  5
411
  2
DASHED
 70
0
  3
Dashed __ __ __ __ __
 72
65
 73
2
 40
0.75
 49
0.5
 49
-0.25
  0
LTYPE
  5
43B
  2
DOTTED
 70
0
  3
Dotted .  .  .  .
 72
65
 73
2
 40
0.2
 49
0.0
 49
-0.2
  0
ENDTAB
  0
TABLE
  2
STYLE
  70
4
  0
STYLE
  2
KICAD
  70
0
  40
0
  41
1
  42
1
  50
0
  71
0
  3
isocp.shx
  0
STYLE
  2
KICADB
  70
0
  40
0
  41
1
  42
1
  50
0
  71
0
  3
isocp.shx
  0
STYLE
  2
KICADI
  70
0
  40
0
  41
1
  42
1
  50
15
  71
0
  3
isocp.shx
  0
STYLE
  2
KICADBI
  70
0
  40
0
  41
1
  42
1
  50
15
  71
0
  3
isocp.shx
  0
ENDTAB
  0
TABLE
  2
LAYER
  70
1
  0
LAYER
  2
BLACK
  70
0
  62
7
  6
CONTINUOUS
  0
ENDTAB
  0
ENDSEC
  0
SECTION
  2
ENTITIES
0
LINE
8
BLACK
6
CONTINUOUS
10
0.0226182
20
1.57589
11
0.0247306
21
1.57772
0
LINE
8
BLACK
6
CONTINUOUS
10
0.0247306
20
1.57772
11
0.0267913
21
1.57817
0
LINE
8
BLACK
6
CONTINUOUS
10
0.0267913
20
1.57817
11
0.773209
21
1.57817
0
LINE
8
BLACK
6
CONTINUOUS
10
0.773209
20
1.57817
11
0.775891
21
1.57738
0
LINE
8
BLACK
6
CONTINUOUS
10
0.775891
20
1.57738
11
0.777721
21
1.57527
0
LINE
8
BLACK
6
CONTINUOUS
10
0.777721
20
1.57527
11
0.778169
21
1.57321
0
LINE
8
BLACK
6
CONTINUOUS
10
0.778169
20
1.57321
11
0.778169
21
0.0267913
0
LINE
8
BLACK
6
CONTINUOUS
10
0.778169
20
0.0267913
11
0.777382
21
0.0241094
0
LINE
8
BLACK
6
CONTINUOUS
10
0.777382
20
0.0241094
11
0.775269
21
0.022279
0
LINE
8
BLACK
6
CONTINUOUS
10
0.775269
20
0.022279
11
0.773209
21
0.0218307
0
LINE
8
BLACK
6
CONTINUOUS
10
0.773209
20
0.0218307
11
0.0267913
21
0.0218307
0
LINE
8
BLACK
6
CONTINUOUS
10
0.0267913
20
0.0218307
11
0.0241094
21
0.0226182
0
LINE
8
BLACK
6
CONTINUOUS
10
0.0241094
20
0.0226182
11
0.022279
21
0.0247306
0
LINE
8
BLACK
6
CONTINUOUS
10
0.022279
20
0.0247306
11
0.0218307
21
0.0267913
0
LINE
8
BLACK
6
CONTINUOUS
10
0.0218307
20
0.0267913
11
0.0218307
21
1.57321
0
LINE
8
BLACK
6
CONTINUOUS
10
0.0218307
20
1.57321
11
0.0226182
21
1.57589
0
LINE
8
BLACK
6
CONTINUOUS
10
0.444901
20
0.171534
11
0.448419
21
0.156535
0
LINE
8
BLACK
6
CONTINUOUS
10
0.448419
20
0.156535
11
0.448458
21
0.15642
0
LINE
8
BLACK
6
CONTINUOUS
10
0.448458
20
0.15642
11
0.448458
21
0.15642
0
LINE
8
BLACK
6
CONTINUOUS
10
0.448458
20
0.15642
11
0.453344
21
0.142065
0
LINE
8
BLACK
6
CONTINUOUS
10
0.453344
20
0.142065
11
0.453345
21
0.142065
0
LINE
8
BLACK
6
CONTINUOUS
10
0.453345
20
0.142065
11
0.453384
21
0.14195
0
LINE
8
BLACK
6
CONTINUOUS
10
0.453384
20
0.14195
11
0.459748
21
0.12792
0
LINE
8
BLACK
6
CONTINUOUS
10
0.459748
20
0.12792
11
0.467451
21
0.114578
0
LINE
8
BLACK
6
CONTINUOUS
10
0.467451
20
0.114578
11
0.467522
21
0.11448
0
LINE
8
BLACK
6
CONTINUOUS
10
0.467522
20
0.11448
11
0.467522
21
0.11448
0
LINE
8
BLACK
6
CONTINUOUS
10
0.467522
20
0.11448
11
0.471371
21
0.109102
0
LINE
8
BLACK
6
CONTINUOUS
10
0.471371
20
0.109102
11
0.476419
21
0.102051
0
LINE
8
BLACK
6
CONTINUOUS
10
0.476419
20
0.102051
11
0.486567
21
0.0904593
0
LINE
8
BLACK
6
CONTINUOUS
10
0.486567
20
0.0904593
11
0.497798
21
0.0799131
0
LINE
8
BLACK
6
CONTINUOUS
10
0.497798
20
0.0799131
11
0.510004
21
0.070513
0
LINE
8
BLACK
6
CONTINUOUS
10
0.510004
20
0.070513
11
0.510107
21
0.070449
0
LINE
8
BLACK
6
CONTINUOUS
10
0.510107
20
0.070449
11
0.510107
21
0.0704489
0
LINE
8
BLACK
6
CONTINUOUS
10
0.510107
20
0.0704489
11
0.514791
21
0.067522
0
LINE
8
BLACK
6
CONTINUOUS
10
0.514791
20
0.067522
11
0.523069
21
0.0623489
0
LINE
8
BLACK
6
CONTINUOUS
10
0.523069
20
0.0623489
11
0.536869
21
0.0554988
0
LINE
8
BLACK
6
CONTINUOUS
10
0.536869
20
0.0554988
11
0.551271
21
0.050028
0
LINE
8
BLACK
6
CONTINUOUS
10
0.551271
20
0.050028
11
0.566138
21
0.0459886
0
LINE
8
BLACK
6
CONTINUOUS
10
0.566138
20
0.0459886
11
0.566258
21
0.0459683
0
LINE
8
BLACK
6
CONTINUOUS
10
0.566258
20
0.0459683
11
0.566258
21
0.0459683
0
LINE
8
BLACK
6
CONTINUOUS
10
0.566258
20
0.0459683
11
0.581209
21
0.0434395
0
LINE
8
BLACK
6
CONTINUOUS
10
0.581209
20
0.0434395
11
0.581209
21
0.0434395
0
LINE
8
BLACK
6
CONTINUOUS
10
0.581209
20
0.0434395
11
0.581329
21
0.0434193
0
LINE
8
BLACK
6
CONTINUOUS
10
0.581329
20
0.0434193
11
0.58145
21
0.0434108
0
LINE
8
BLACK
6
CONTINUOUS
10
0.58145
20
0.0434108
11
0.58145
21
0.0434108
0
LINE
8
BLACK
6
CONTINUOUS
10
0.58145
20
0.0434108
11
0.596577
21
0.042353
0
LINE
8
BLACK
6
CONTINUOUS
10
0.596577
20
0.042353
11
0.596577
21
0.042353
0
LINE
8
BLACK
6
CONTINUOUS
10
0.596577
20
0.042353
11
0.596698
21
0.0423446
0
LINE
8
BLACK
6
CONTINUOUS
10
0.596698
20
0.0423446
11
0.606681
21
0.0426235
0
LINE
8
BLACK
6
CONTINUOUS
10
0.606681
20
0.0426235
11
0.611977
21
0.0427714
0
LINE
8
BLACK
6
CONTINUOUS
10
0.611977
20
0.0427714
11
0.611977
21
0.0427714
0
LINE
8
BLACK
6
CONTINUOUS
10
0.611977
20
0.0427714
11
0.612098
21
0.0427748
0
LINE
8
BLACK
6
CONTINUOUS
10
0.612098
20
0.0427748
11
0.612218
21
0.04279
0
LINE
8
BLACK
6
CONTINUOUS
10
0.612218
20
0.04279
11
0.612218
21
0.04279
0
LINE
8
BLACK
6
CONTINUOUS
10
0.612218
20
0.04279
11
0.619533
21
0.0437141
0
LINE
8
BLACK
6
CONTINUOUS
10
0.619533
20
0.0437141
11
0.627383
21
0.0447057
0
LINE
8
BLACK
6
CONTINUOUS
10
0.627383
20
0.0447057
11
0.627501
21
0.0447326
0
LINE
8
BLACK
6
CONTINUOUS
10
0.627501
20
0.0447326
11
0.627501
21
0.0447326
0
LINE
8
BLACK
6
CONTINUOUS
10
0.627501
20
0.0447326
11
0.642288
21
0.0480921
0
LINE
8
BLACK
6
CONTINUOUS
10
0.642288
20
0.0480921
11
0.642288
21
0.0480922
0
LINE
8
BLACK
6
CONTINUOUS
10
0.642288
20
0.0480922
11
0.642406
21
0.0481189
0
LINE
8
BLACK
6
CONTINUOUS
10
0.642406
20
0.0481189
11
0.648145
21
0.050028
0
LINE
8
BLACK
6
CONTINUOUS
10
0.648145
20
0.050028
11
0.656909
21
0.0529436
0
LINE
8
BLACK
6
CONTINUOUS
10
0.656909
20
0.0529436
11
0.65691
21
0.0529437
0
LINE
8
BLACK
6
CONTINUOUS
10
0.65691
20
0.0529437
11
0.657025
21
0.0529819
0
LINE
8
BLACK
6
CONTINUOUS
10
0.657025
20
0.0529819
11
0.662581
21
0.0554557
0
LINE
8
BLACK
6
CONTINUOUS
10
0.662581
20
0.0554557
11
0.670989
21
0.0591991
0
LINE
8
BLACK
6
CONTINUOUS
10
0.670989
20
0.0591991
11
0.670989
21
0.0591992
0
LINE
8
BLACK
6
CONTINUOUS
10
0.670989
20
0.0591992
11
0.671099
21
0.0592482
0
LINE
8
BLACK
6
CONTINUOUS
10
0.671099
20
0.0592482
11
0.671204
21
0.0593079
0
LINE
8
BLACK
6
CONTINUOUS
10
0.671204
20
0.0593079
11
0.684389
21
0.0667983
0
LINE
8
BLACK
6
CONTINUOUS
10
0.684389
20
0.0667983
11
0.68439
21
0.0667984
0
LINE
8
BLACK
6
CONTINUOUS
10
0.68439
20
0.0667984
11
0.684494
21
0.066858
0
LINE
8
BLACK
6
CONTINUOUS
10
0.684494
20
0.066858
11
0.697084
21
0.0757386
0
LINE
8
BLACK
6
CONTINUOUS
10
0.697084
20
0.0757386
11
0.708746
21
0.0858054
0
LINE
8
BLACK
6
CONTINUOUS
10
0.708746
20
0.0858054
11
0.70883
21
0.085893
0
LINE
8
BLACK
6
CONTINUOUS
10
0.70883
20
0.085893
11
0.70883
21
0.0858933
0
LINE
8
BLACK
6
CONTINUOUS
10
0.70883
20
0.0858933
11
0.719287
21
0.0968746
0
LINE
8
BLACK
6
CONTINUOUS
10
0.719287
20
0.0968746
11
0.719371
21
0.0969621
0
LINE
8
BLACK
6
CONTINUOUS
10
0.719371
20
0.0969621
11
0.723275
21
0.10196
0
LINE
8
BLACK
6
CONTINUOUS
10
0.723275
20
0.10196
11
0.72878
21
0.109006
0
LINE
8
BLACK
6
CONTINUOUS
10
0.72878
20
0.109006
11
0.72878
21
0.109006
0
LINE
8
BLACK
6
CONTINUOUS
10
0.72878
20
0.109006
11
0.728856
21
0.109102
0
LINE
8
BLACK
6
CONTINUOUS
10
0.728856
20
0.109102
11
0.728921
21
0.109205
0
LINE
8
BLACK
6
CONTINUOUS
10
0.728921
20
0.109205
11
0.728921
21
0.109205
0
LINE
8
BLACK
6
CONTINUOUS
10
0.728921
20
0.109205
11
0.737046
21
0.122008
0
LINE
8
BLACK
6
CONTINUOUS
10
0.737046
20
0.122008
11
0.737046
21
0.122008
0
LINE
8
BLACK
6
CONTINUOUS
10
0.737046
20
0.122008
11
0.737111
21
0.12211
0
LINE
8
BLACK
6
CONTINUOUS
10
0.737111
20
0.12211
11
0.744057
21
0.135862
0
LINE
8
BLACK
6
CONTINUOUS
10
0.744057
20
0.135862
11
0.749628
21
0.150225
0
LINE
8
BLACK
6
CONTINUOUS
10
0.749628
20
0.150225
11
0.753771
21
0.165064
0
LINE
8
BLACK
6
CONTINUOUS
10
0.753771
20
0.165064
11
0.756447
21
0.180236
0
LINE
8
BLACK
6
CONTINUOUS
10
0.756447
20
0.180236
11
0.756952
21
0.186805
0
LINE
8
BLACK
6
CONTINUOUS
10
0.756952
20
0.186805
11
0.757623
21
0.19552
0
LINE
8
BLACK
6
CONTINUOUS
10
0.757623
20
0.19552
11
0.757623
21
0.195521
0
LINE
8
BLACK
6
CONTINUOUS
10
0.757623
20
0.195521
11
0.757628
21
0.195597
0
LINE
8
BLACK
6
CONTINUOUS
10
0.757628
20
0.195597
11
0.75769
21
0.2
0
LINE
8
BLACK
6
CONTINUOUS
10
0.75769
20
0.2
11
0.756937
21
0.215388
0
LINE
8
BLACK
6
CONTINUOUS
10
0.756937
20
0.215388
11
0.754687
21
0.230629
0
LINE
8
BLACK
6
CONTINUOUS
10
0.754687
20
0.230629
11
0.75096
21
0.245577
0
LINE
8
BLACK
6
CONTINUOUS
10
0.75096
20
0.245577
11
0.745792
21
0.260091
0
LINE
8
BLACK
6
CONTINUOUS
10
0.745792
20
0.260091
11
0.739232
21
0.274031
0
LINE
8
BLACK
6
CONTINUOUS
10
0.739232
20
0.274031
11
0.738077
21
0.275968
0
LINE
8
BLACK
6
CONTINUOUS
10
0.738077
20
0.275968
11
0.731406
21
0.28716
0
LINE
8
BLACK
6
CONTINUOUS
10
0.731406
20
0.28716
11
0.731343
21
0.287264
0
LINE
8
BLACK
6
CONTINUOUS
10
0.731343
20
0.287264
11
0.722201
21
0.299665
0
LINE
8
BLACK
6
CONTINUOUS
10
0.722201
20
0.299665
11
0.711892
21
0.311114
0
LINE
8
BLACK
6
CONTINUOUS
10
0.711892
20
0.311114
11
0.700515
21
0.321502
0
LINE
8
BLACK
6
CONTINUOUS
10
0.700515
20
0.321502
11
0.688179
21
0.330731
0
LINE
8
BLACK
6
CONTINUOUS
10
0.688179
20
0.330731
11
0.686066
21
0.332011
0
LINE
8
BLACK
6
CONTINUOUS
10
0.686066
20
0.332011
11
0.675105
21
0.338649
0
LINE
8
BLACK
6
CONTINUOUS
10
0.675105
20
0.338649
11
0.675104
21
0.338649
0
LINE
8
BLACK
6
CONTINUOUS
10
0.675104
20
0.338649
11
0.675001
21
0.338712
0
LINE
8
BLACK
6
CONTINUOUS
10
0.675001
20
0.338712
11
0.661107
21
0.345369
0
LINE
8
BLACK
6
CONTINUOUS
10
0.661107
20
0.345369
11
0.660994
21
0.34541
0
LINE
8
BLACK
6
CONTINUOUS
10
0.660994
20
0.34541
11
0.660993
21
0.34541
0
LINE
8
BLACK
6
CONTINUOUS
10
0.660993
20
0.34541
11
0.646744
21
0.350596
0
LINE
8
BLACK
6
CONTINUOUS
10
0.646744
20
0.350596
11
0.646744
21
0.350596
0
LINE
8
BLACK
6
CONTINUOUS
10
0.646744
20
0.350596
11
0.64663
21
0.350638
0
LINE
8
BLACK
6
CONTINUOUS
10
0.64663
20
0.350638
11
0.635721
21
0.353439
0
LINE
8
BLACK
6
CONTINUOUS
10
0.635721
20
0.353439
11
0.631825
21
0.354439
0
LINE
8
BLACK
6
CONTINUOUS
10
0.631825
20
0.354439
11
0.631825
21
0.354439
0
LINE
8
BLACK
6
CONTINUOUS
10
0.631825
20
0.354439
11
0.631708
21
0.354469
0
LINE
8
BLACK
6
CONTINUOUS
10
0.631708
20
0.354469
11
0.616483
21
0.356826
0
LINE
8
BLACK
6
CONTINUOUS
10
0.616483
20
0.356826
11
0.616363
21
0.356833
0
LINE
8
BLACK
6
CONTINUOUS
10
0.616363
20
0.356833
11
0.616363
21
0.356833
0
LINE
8
BLACK
6
CONTINUOUS
10
0.616363
20
0.356833
11
0.615162
21
0.3569
0
LINE
8
BLACK
6
CONTINUOUS
10
0.615162
20
0.3569
11
0.601101
21
0.357686
0
LINE
8
BLACK
6
CONTINUOUS
10
0.601101
20
0.357686
11
0.60098
21
0.357681
0
LINE
8
BLACK
6
CONTINUOUS
10
0.60098
20
0.357681
11
0.60098
21
0.357681
0
LINE
8
BLACK
6
CONTINUOUS
10
0.60098
20
0.357681
11
0.590896
21
0.357258
0
LINE
8
BLACK
6
CONTINUOUS
10
0.590896
20
0.357258
11
0.585708
21
0.357041
0
LINE
8
BLACK
6
CONTINUOUS
10
0.585708
20
0.357041
11
0.585588
21
0.357024
0
LINE
8
BLACK
6
CONTINUOUS
10
0.585588
20
0.357024
11
0.585588
21
0.357024
0
LINE
8
BLACK
6
CONTINUOUS
10
0.585588
20
0.357024
11
0.584227
21
0.356833
0
LINE
8
BLACK
6
CONTINUOUS
10
0.584227
20
0.356833
11
0.570452
21
0.354897
0
LINE
8
BLACK
6
CONTINUOUS
10
0.570452
20
0.354897
11
0.555478
21
0.351274
0
LINE
8
BLACK
6
CONTINUOUS
10
0.555478
20
0.351274
11
0.540928
21
0.346208
0
LINE
8
BLACK
6
CONTINUOUS
10
0.540928
20
0.346208
11
0.540818
21
0.346157
0
LINE
8
BLACK
6
CONTINUOUS
10
0.540818
20
0.346157
11
0.527053
21
0.339796
0
LINE
8
BLACK
6
CONTINUOUS
10
0.527053
20
0.339796
11
0.527053
21
0.339796
0
LINE
8
BLACK
6
CONTINUOUS
10
0.527053
20
0.339796
11
0.526943
21
0.339745
0
LINE
8
BLACK
6
CONTINUOUS
10
0.526943
20
0.339745
11
0.52267
21
0.337239
0
LINE
8
BLACK
6
CONTINUOUS
10
0.52267
20
0.337239
11
0.513759
21
0.332011
0
LINE
8
BLACK
6
CONTINUOUS
10
0.513759
20
0.332011
11
0.513759
21
0.332011
0
LINE
8
BLACK
6
CONTINUOUS
10
0.513759
20
0.332011
11
0.513655
21
0.331949
0
LINE
8
BLACK
6
CONTINUOUS
10
0.513655
20
0.331949
11
0.512064
21
0.330794
0
LINE
8
BLACK
6
CONTINUOUS
10
0.512064
20
0.330794
11
0.501289
21
0.322965
0
LINE
8
BLACK
6
CONTINUOUS
10
0.501289
20
0.322965
11
0.501288
21
0.322965
0
LINE
8
BLACK
6
CONTINUOUS
10
0.501288
20
0.322965
11
0.501191
21
0.322894
0
LINE
8
BLACK
6
CONTINUOUS
10
0.501191
20
0.322894
11
0.501101
21
0.322814
0
LINE
8
BLACK
6
CONTINUOUS
10
0.501101
20
0.322814
11
0.5011
21
0.322814
0
LINE
8
BLACK
6
CONTINUOUS
10
0.5011
20
0.322814
11
0.489761
21
0.312746
0
LINE
8
BLACK
6
CONTINUOUS
10
0.489761
20
0.312746
11
0.48967
21
0.312665
0
LINE
8
BLACK
6
CONTINUOUS
10
0.48967
20
0.312665
11
0.479202
21
0.301361
0
LINE
8
BLACK
6
CONTINUOUS
10
0.479202
20
0.301361
11
0.469888
21
0.28909
0
LINE
8
BLACK
6
CONTINUOUS
10
0.469888
20
0.28909
11
0.461815
21
0.275968
0
LINE
8
BLACK
6
CONTINUOUS
10
0.461815
20
0.275968
11
0.455062
21
0.262121
0
LINE
8
BLACK
6
CONTINUOUS
10
0.455062
20
0.262121
11
0.449691
21
0.247681
0
LINE
8
BLACK
6
CONTINUOUS
10
0.449691
20
0.247681
11
0.445756
21
0.232786
0
LINE
8
BLACK
6
CONTINUOUS
10
0.445756
20
0.232786
11
0.443293
21
0.217578
0
LINE
8
BLACK
6
CONTINUOUS
10
0.443293
20
0.217578
11
0.442325
21
0.202202
0
LINE
8
BLACK
6
CONTINUOUS
10
0.442325
20
0.202202
11
0.442863
21
0.186805
0
LINE
8
BLACK
6
CONTINUOUS
10
0.442863
20
0.186805
11
0.444901
21
0.171534
0
LINE
8
BLACK
6
CONTINUOUS
10
0.680081
20
0.463183
11
0.6832
21
0.460069
0
LINE
8
BLACK
6
CONTINUOUS
10
0.6832
20
0.460069
11
0.683619
21
0.459884
0
LINE
8
BLACK
6
CONTINUOUS
10
0.683619
20
0.459884
11
0.683619
21
0.459884
0
LINE
8
BLACK
6
CONTINUOUS
10
0.683619
20
0.459884
11
0.685963
21
0.458848
0
LINE
8
BLACK
6
CONTINUOUS
10
0.685963
20
0.458848
11
0.687231
21
0.458287
0
LINE
8
BLACK
6
CONTINUOUS
10
0.687231
20
0.458287
11
0.688242
21
0.458169
0
LINE
8
BLACK
6
CONTINUOUS
10
0.688242
20
0.458169
11
0.751758
21
0.458169
0
LINE
8
BLACK
6
CONTINUOUS
10
0.751758
20
0.458169
11
0.751904
21
0.458187
0
LINE
8
BLACK
6
CONTINUOUS
10
0.751904
20
0.458187
11
0.751904
21
0.458187
0
LINE
8
BLACK
6
CONTINUOUS
10
0.751904
20
0.458187
11
0.752195
21
0.458221
0
LINE
8
BLACK
6
CONTINUOUS
10
0.752195
20
0.458221
11
0.752789
21
0.458292
0
LINE
8
BLACK
6
CONTINUOUS
10
0.752789
20
0.458292
11
0.756817
21
0.460081
0
LINE
8
BLACK
6
CONTINUOUS
10
0.756817
20
0.460081
11
0.759931
21
0.4632
0
LINE
8
BLACK
6
CONTINUOUS
10
0.759931
20
0.4632
11
0.761713
21
0.467231
0
LINE
8
BLACK
6
CONTINUOUS
10
0.761713
20
0.467231
11
0.761831
21
0.468242
0
LINE
8
BLACK
6
CONTINUOUS
10
0.761831
20
0.468242
11
0.761831
21
0.531758
0
LINE
8
BLACK
6
CONTINUOUS
10
0.761831
20
0.531758
11
0.761708
21
0.532789
0
LINE
8
BLACK
6
CONTINUOUS
10
0.761708
20
0.532789
11
0.759919
21
0.536817
0
LINE
8
BLACK
6
CONTINUOUS
10
0.759919
20
0.536817
11
0.7568
21
0.539931
0
LINE
8
BLACK
6
CONTINUOUS
10
0.7568
20
0.539931
11
0.756381
21
0.540116
0
LINE
8
BLACK
6
CONTINUOUS
10
0.756381
20
0.540116
11
0.756381
21
0.540116
0
LINE
8
BLACK
6
CONTINUOUS
10
0.756381
20
0.540116
11
0.754037
21
0.541152
0
LINE
8
BLACK
6
CONTINUOUS
10
0.754037
20
0.541152
11
0.752769
21
0.541713
0
LINE
8
BLACK
6
CONTINUOUS
10
0.752769
20
0.541713
11
0.751758
21
0.541831
0
LINE
8
BLACK
6
CONTINUOUS
10
0.751758
20
0.541831
11
0.688242
21
0.541831
0
LINE
8
BLACK
6
CONTINUOUS
10
0.688242
20
0.541831
11
0.688096
21
0.541813
0
LINE
8
BLACK
6
CONTINUOUS
10
0.688096
20
0.541813
11
0.688096
21
0.541813
0
LINE
8
BLACK
6
CONTINUOUS
10
0.688096
20
0.541813
11
0.687805
21
0.541779
0
LINE
8
BLACK
6
CONTINUOUS
10
0.687805
20
0.541779
11
0.687211
21
0.541708
0
LINE
8
BLACK
6
CONTINUOUS
10
0.687211
20
0.541708
11
0.683183
21
0.539919
0
LINE
8
BLACK
6
CONTINUOUS
10
0.683183
20
0.539919
11
0.680069
21
0.5368
0
LINE
8
BLACK
6
CONTINUOUS
10
0.680069
20
0.5368
11
0.678287
21
0.532769
0
LINE
8
BLACK
6
CONTINUOUS
10
0.678287
20
0.532769
11
0.678169
21
0.531758
0
LINE
8
BLACK
6
CONTINUOUS
10
0.678169
20
0.531758
11
0.678169
21
0.468242
0
LINE
8
BLACK
6
CONTINUOUS
10
0.678169
20
0.468242
11
0.678292
21
0.467211
0
LINE
8
BLACK
6
CONTINUOUS
10
0.678292
20
0.467211
11
0.680081
21
0.463183
0
LINE
8
BLACK
6
CONTINUOUS
10
0.0449007
20
0.171534
11
0.0484187
21
0.156535
0
LINE
8
BLACK
6
CONTINUOUS
10
0.0484187
20
0.156535
11
0.0484576
21
0.15642
0
LINE
8
BLACK
6
CONTINUOUS
10
0.0484576
20
0.15642
11
0.0484577
21
0.15642
0
LINE
8
BLACK
6
CONTINUOUS
10
0.0484577
20
0.15642
11
0.0533445
21
0.142065
0
LINE
8
BLACK
6
CONTINUOUS
10
0.0533445
20
0.142065
11
0.0533447
21
0.142065
0
LINE
8
BLACK
6
CONTINUOUS
10
0.0533447
20
0.142065
11
0.0533836
21
0.14195
0
LINE
8
BLACK
6
CONTINUOUS
10
0.0533836
20
0.14195
11
0.059748
21
0.12792
0
LINE
8
BLACK
6
CONTINUOUS
10
0.059748
20
0.12792
11
0.0674511
21
0.114578
0
LINE
8
BLACK
6
CONTINUOUS
10
0.0674511
20
0.114578
11
0.0675215
21
0.11448
0
LINE
8
BLACK
6
CONTINUOUS
10
0.0675215
20
0.11448
11
0.0675216
21
0.11448
0
LINE
8
BLACK
6
CONTINUOUS
10
0.0675216
20
0.11448
11
0.0713713
21
0.109102
0
LINE
8
BLACK
6
CONTINUOUS
10
0.0713713
20
0.109102
11
0.0764194
21
0.102051
0
LINE
8
BLACK
6
CONTINUOUS
10
0.0764194
20
0.102051
11
0.0865673
21
0.0904593
0
LINE
8
BLACK
6
CONTINUOUS
10
0.0865673
20
0.0904593
11
0.097798
21
0.0799131
0
LINE
8
BLACK
6
CONTINUOUS
10
0.097798
20
0.0799131
11
0.110004
21
0.070513
0
LINE
8
BLACK
6
CONTINUOUS
10
0.110004
20
0.070513
11
0.110107
21
0.070449
0
LINE
8
BLACK
6
CONTINUOUS
10
0.110107
20
0.070449
11
0.110107
21
0.0704489
0
LINE
8
BLACK
6
CONTINUOUS
10
0.110107
20
0.0704489
11
0.114791
21
0.067522
0
LINE
8
BLACK
6
CONTINUOUS
10
0.114791
20
0.067522
11
0.123069
21
0.0623489
0
LINE
8
BLACK
6
CONTINUOUS
10
0.123069
20
0.0623489
11
0.136869
21
0.0554988
0
LINE
8
BLACK
6
CONTINUOUS
10
0.136869
20
0.0554988
11
0.151271
21
0.050028
0
LINE
8
BLACK
6
CONTINUOUS
10
0.151271
20
0.050028
11
0.166138
21
0.0459886
0
LINE
8
BLACK
6
CONTINUOUS
10
0.166138
20
0.0459886
11
0.166258
21
0.0459683
0
LINE
8
BLACK
6
CONTINUOUS
10
0.166258
20
0.0459683
11
0.166258
21
0.0459683
0
LINE
8
BLACK
6
CONTINUOUS
10
0.166258
20
0.0459683
11
0.181209
21
0.0434395
0
LINE
8
BLACK
6
CONTINUOUS
10
0.181209
20
0.0434395
11
0.181209
21
0.0434395
0
LINE
8
BLACK
6
CONTINUOUS
10
0.181209
20
0.0434395
11
0.181329
21
0.0434193
0
LINE
8
BLACK
6
CONTINUOUS
10
0.181329
20
0.0434193
11
0.18145
21
0.0434108
0
LINE
8
BLACK
6
CONTINUOUS
10
0.18145
20
0.0434108
11
0.18145
21
0.0434108
0
LINE
8
BLACK
6
CONTINUOUS
10
0.18145
20
0.0434108
11
0.196577
21
0.042353
0
LINE
8
BLACK
6
CONTINUOUS
10
0.196577
20
0.042353
11
0.196577
21
0.042353
0
LINE
8
BLACK
6
CONTINUOUS
10
0.196577
20
0.042353
11
0.196698
21
0.0423446
0
LINE
8
BLACK
6
CONTINUOUS
10
0.196698
20
0.0423446
11
0.206681
21
0.0426235
0
LINE
8
BLACK
6
CONTINUOUS
10
0.206681
20
0.0426235
11
0.211977
21
0.0427714
0
LINE
8
BLACK
6
CONTINUOUS
10
0.211977
20
0.0427714
11
0.211977
21
0.0427714
0
LINE
8
BLACK
6
CONTINUOUS
10
0.211977
20
0.0427714
11
0.212098
21
0.0427748
0
LINE
8
BLACK
6
CONTINUOUS
10
0.212098
20
0.0427748
11
0.212218
21
0.04279
0
LINE
8
BLACK
6
CONTINUOUS
10
0.212218
20
0.04279
11
0.212218
21
0.04279
0
LINE
8
BLACK
6
CONTINUOUS
10
0.212218
20
0.04279
11
0.219533
21
0.0437141
0
LINE
8
BLACK
6
CONTINUOUS
10
0.219533
20
0.0437141
11
0.227383
21
0.0447057
0
LINE
8
BLACK
6
CONTINUOUS
10
0.227383
20
0.0447057
11
0.227501
21
0.0447326
0
LINE
8
BLACK
6
CONTINUOUS
10
0.227501
20
0.0447326
11
0.227501
21
0.0447326
0
LINE
8
BLACK
6
CONTINUOUS
10
0.227501
20
0.0447326
11
0.242288
21
0.0480921
0
LINE
8
BLACK
6
CONTINUOUS
10
0.242288
20
0.0480921
11
0.242288
21
0.0480922
0
LINE
8
BLACK
6
CONTINUOUS
10
0.242288
20
0.0480922
11
0.242406
21
0.0481189
0
LINE
8
BLACK
6
CONTINUOUS
10
0.242406
20
0.0481189
11
0.248145
21
0.050028
0
LINE
8
BLACK
6
CONTINUOUS
10
0.248145
20
0.050028
11
0.256909
21
0.0529436
0
LINE
8
BLACK
6
CONTINUOUS
10
0.256909
20
0.0529436
11
0.25691
21
0.0529437
0
LINE
8
BLACK
6
CONTINUOUS
10
0.25691
20
0.0529437
11
0.257025
21
0.0529819
0
LINE
8
BLACK
6
CONTINUOUS
10
0.257025
20
0.0529819
11
0.262581
21
0.0554557
0
LINE
8
BLACK
6
CONTINUOUS
10
0.262581
20
0.0554557
11
0.270989
21
0.0591991
0
LINE
8
BLACK
6
CONTINUOUS
10
0.270989
20
0.0591991
11
0.270989
21
0.0591992
0
LINE
8
BLACK
6
CONTINUOUS
10
0.270989
20
0.0591992
11
0.271099
21
0.0592482
0
LINE
8
BLACK
6
CONTINUOUS
10
0.271099
20
0.0592482
11
0.271204
21
0.0593079
0
LINE
8
BLACK
6
CONTINUOUS
10
0.271204
20
0.0593079
11
0.284389
21
0.0667983
0
LINE
8
BLACK
6
CONTINUOUS
10
0.284389
20
0.0667983
11
0.28439
21
0.0667984
0
LINE
8
BLACK
6
CONTINUOUS
10
0.28439
20
0.0667984
11
0.284494
21
0.066858
0
LINE
8
BLACK
6
CONTINUOUS
10
0.284494
20
0.066858
11
0.297084
21
0.0757386
0
LINE
8
BLACK
6
CONTINUOUS
10
0.297084
20
0.0757386
11
0.308746
21
0.0858054
0
LINE
8
BLACK
6
CONTINUOUS
10
0.308746
20
0.0858054
11
0.30883
21
0.085893
0
LINE
8
BLACK
6
CONTINUOUS
10
0.30883
20
0.085893
11
0.30883
21
0.0858933
0
LINE
8
BLACK
6
CONTINUOUS
10
0.30883
20
0.0858933
11
0.319287
21
0.0968746
0
LINE
8
BLACK
6
CONTINUOUS
10
0.319287
20
0.0968746
11
0.319371
21
0.0969621
0
LINE
8
BLACK
6
CONTINUOUS
10
0.319371
20
0.0969621
11
0.323275
21
0.10196
0
LINE
8
BLACK
6
CONTINUOUS
10
0.323275
20
0.10196
11
0.32878
21
0.109006
0
LINE
8
BLACK
6
CONTINUOUS
10
0.32878
20
0.109006
11
0.32878
21
0.109006
0
LINE
8
BLACK
6
CONTINUOUS
10
0.32878
20
0.109006
11
0.328856
21
0.109102
0
LINE
8
BLACK
6
CONTINUOUS
10
0.328856
20
0.109102
11
0.328921
21
0.109205
0
LINE
8
BLACK
6
CONTINUOUS
10
0.328921
20
0.109205
11
0.328921
21
0.109205
0
LINE
8
BLACK
6
CONTINUOUS
10
0.328921
20
0.109205
11
0.337046
21
0.122008
0
LINE
8
BLACK
6
CONTINUOUS
10
0.337046
20
0.122008
11
0.337046
21
0.122008
0
LINE
8
BLACK
6
CONTINUOUS
10
0.337046
20
0.122008
11
0.337111
21
0.12211
0
LINE
8
BLACK
6
CONTINUOUS
10
0.337111
20
0.12211
11
0.344057
21
0.135862
0
LINE
8
BLACK
6
CONTINUOUS
10
0.344057
20
0.135862
11
0.349628
21
0.150225
0
LINE
8
BLACK
6
CONTINUOUS
10
0.349628
20
0.150225
11
0.353771
21
0.165064
0
LINE
8
BLACK
6
CONTINUOUS
10
0.353771
20
0.165064
11
0.356447
21
0.180236
0
LINE
8
BLACK
6
CONTINUOUS
10
0.356447
20
0.180236
11
0.356952
21
0.186805
0
LINE
8
BLACK
6
CONTINUOUS
10
0.356952
20
0.186805
11
0.357623
21
0.19552
0
LINE
8
BLACK
6
CONTINUOUS
10
0.357623
20
0.19552
11
0.357623
21
0.195521
0
LINE
8
BLACK
6
CONTINUOUS
10
0.357623
20
0.195521
11
0.357628
21
0.195597
0
LINE
8
BLACK
6
CONTINUOUS
10
0.357628
20
0.195597
11
0.35769
21
0.2
0
LINE
8
BLACK
6
CONTINUOUS
10
0.35769
20
0.2
11
0.357582
21
0.202202
0
LINE
8
BLACK
6
CONTINUOUS
10
0.357582
20
0.202202
11
0.356937
21
0.215388
0
LINE
8
BLACK
6
CONTINUOUS
10
0.356937
20
0.215388
11
0.354687
21
0.230629
0
LINE
8
BLACK
6
CONTINUOUS
10
0.354687
20
0.230629
11
0.35096
21
0.245577
0
LINE
8
BLACK
6
CONTINUOUS
10
0.35096
20
0.245577
11
0.345792
21
0.260091
0
LINE
8
BLACK
6
CONTINUOUS
10
0.345792
20
0.260091
11
0.339232
21
0.274031
0
LINE
8
BLACK
6
CONTINUOUS
10
0.339232
20
0.274031
11
0.338077
21
0.275968
0
LINE
8
BLACK
6
CONTINUOUS
10
0.338077
20
0.275968
11
0.331406
21
0.28716
0
LINE
8
BLACK
6
CONTINUOUS
10
0.331406
20
0.28716
11
0.331343
21
0.287264
0
LINE
8
BLACK
6
CONTINUOUS
10
0.331343
20
0.287264
11
0.322201
21
0.299665
0
LINE
8
BLACK
6
CONTINUOUS
10
0.322201
20
0.299665
11
0.311892
21
0.311114
0
LINE
8
BLACK
6
CONTINUOUS
10
0.311892
20
0.311114
11
0.300515
21
0.321502
0
LINE
8
BLACK
6
CONTINUOUS
10
0.300515
20
0.321502
11
0.288179
21
0.330731
0
LINE
8
BLACK
6
CONTINUOUS
10
0.288179
20
0.330731
11
0.286066
21
0.332011
0
LINE
8
BLACK
6
CONTINUOUS
10
0.286066
20
0.332011
11
0.275105
21
0.338649
0
LINE
8
BLACK
6
CONTINUOUS
10
0.275105
20
0.338649
11
0.275104
21
0.338649
0
LINE
8
BLACK
6
CONTINUOUS
10
0.275104
20
0.338649
11
0.275001
21
0.338712
0
LINE
8
BLACK
6
CONTINUOUS
10
0.275001
20
0.338712
11
0.261107
21
0.345369
0
LINE
8
BLACK
6
CONTINUOUS
10
0.261107
20
0.345369
11
0.260994
21
0.34541
0
LINE
8
BLACK
6
CONTINUOUS
10
0.260994
20
0.34541
11
0.260993
21
0.34541
0
LINE
8
BLACK
6
CONTINUOUS
10
0.260993
20
0.34541
11
0.246744
21
0.350596
0
LINE
8
BLACK
6
CONTINUOUS
10
0.246744
20
0.350596
11
0.246744
21
0.350596
0
LINE
8
BLACK
6
CONTINUOUS
10
0.246744
20
0.350596
11
0.24663
21
0.350638
0
LINE
8
BLACK
6
CONTINUOUS
10
0.24663
20
0.350638
11
0.235721
21
0.353439
0
LINE
8
BLACK
6
CONTINUOUS
10
0.235721
20
0.353439
11
0.231825
21
0.354439
0
LINE
8
BLACK
6
CONTINUOUS
10
0.231825
20
0.354439
11
0.231825
21
0.354439
0
LINE
8
BLACK
6
CONTINUOUS
10
0.231825
20
0.354439
11
0.231708
21
0.354469
0
LINE
8
BLACK
6
CONTINUOUS
10
0.231708
20
0.354469
11
0.216483
21
0.356826
0
LINE
8
BLACK
6
CONTINUOUS
10
0.216483
20
0.356826
11
0.216363
21
0.356833
0
LINE
8
BLACK
6
CONTINUOUS
10
0.216363
20
0.356833
11
0.216363
21
0.356833
0
LINE
8
BLACK
6
CONTINUOUS
10
0.216363
20
0.356833
11
0.215162
21
0.3569
0
LINE
8
BLACK
6
CONTINUOUS
10
0.215162
20
0.3569
11
0.201101
21
0.357686
0
LINE
8
BLACK
6
CONTINUOUS
10
0.201101
20
0.357686
11
0.20098
21
0.357681
0
LINE
8
BLACK
6
CONTINUOUS
10
0.20098
20
0.357681
11
0.20098
21
0.357681
0
LINE
8
BLACK
6
CONTINUOUS
10
0.20098
20
0.357681
11
0.190896
21
0.357258
0
LINE
8
BLACK
6
CONTINUOUS
10
0.190896
20
0.357258
11
0.185708
21
0.357041
0
LINE
8
BLACK
6
CONTINUOUS
10
0.185708
20
0.357041
11
0.185588
21
0.357024
0
LINE
8
BLACK
6
CONTINUOUS
10
0.185588
20
0.357024
11
0.185588
21
0.357024
0
LINE
8
BLACK
6
CONTINUOUS
10
0.185588
20
0.357024
11
0.184227
21
0.356833
0
LINE
8
BLACK
6
CONTINUOUS
10
0.184227
20
0.356833
11
0.170452
21
0.354897
0
LINE
8
BLACK
6
CONTINUOUS
10
0.170452
20
0.354897
11
0.155478
21
0.351274
0
LINE
8
BLACK
6
CONTINUOUS
10
0.155478
20
0.351274
11
0.140928
21
0.346208
0
LINE
8
BLACK
6
CONTINUOUS
10
0.140928
20
0.346208
11
0.140818
21
0.346157
0
LINE
8
BLACK
6
CONTINUOUS
10
0.140818
20
0.346157
11
0.127053
21
0.339796
0
LINE
8
BLACK
6
CONTINUOUS
10
0.127053
20
0.339796
11
0.127053
21
0.339796
0
LINE
8
BLACK
6
CONTINUOUS
10
0.127053
20
0.339796
11
0.126943
21
0.339745
0
LINE
8
BLACK
6
CONTINUOUS
10
0.126943
20
0.339745
11
0.12267
21
0.337239
0
LINE
8
BLACK
6
CONTINUOUS
10
0.12267
20
0.337239
11
0.113759
21
0.332011
0
LINE
8
BLACK
6
CONTINUOUS
10
0.113759
20
0.332011
11
0.113759
21
0.332011
0
LINE
8
BLACK
6
CONTINUOUS
10
0.113759
20
0.332011
11
0.113655
21
0.331949
0
LINE
8
BLACK
6
CONTINUOUS
10
0.113655
20
0.331949
11
0.112064
21
0.330794
0
LINE
8
BLACK
6
CONTINUOUS
10
0.112064
20
0.330794
11
0.101289
21
0.322965
0
LINE
8
BLACK
6
CONTINUOUS
10
0.101289
20
0.322965
11
0.101288
21
0.322965
0
LINE
8
BLACK
6
CONTINUOUS
10
0.101288
20
0.322965
11
0.101191
21
0.322894
0
LINE
8
BLACK
6
CONTINUOUS
10
0.101191
20
0.322894
11
0.101101
21
0.322814
0
LINE
8
BLACK
6
CONTINUOUS
10
0.101101
20
0.322814
11
0.1011
21
0.322814
0
LINE
8
BLACK
6
CONTINUOUS
10
0.1011
20
0.322814
11
0.0897608
21
0.312746
0
LINE
8
BLACK
6
CONTINUOUS
10
0.0897608
20
0.312746
11
0.0896701
21
0.312665
0
LINE
8
BLACK
6
CONTINUOUS
10
0.0896701
20
0.312665
11
0.0792025
21
0.301361
0
LINE
8
BLACK
6
CONTINUOUS
10
0.0792025
20
0.301361
11
0.0698879
21
0.28909
0
LINE
8
BLACK
6
CONTINUOUS
10
0.0698879
20
0.28909
11
0.0618152
21
0.275968
0
LINE
8
BLACK
6
CONTINUOUS
10
0.0618152
20
0.275968
11
0.0550616
21
0.262121
0
LINE
8
BLACK
6
CONTINUOUS
10
0.0550616
20
0.262121
11
0.0496914
21
0.247681
0
LINE
8
BLACK
6
CONTINUOUS
10
0.0496914
20
0.247681
11
0.0457559
21
0.232786
0
LINE
8
BLACK
6
CONTINUOUS
10
0.0457559
20
0.232786
11
0.0432928
21
0.217578
0
LINE
8
BLACK
6
CONTINUOUS
10
0.0432928
20
0.217578
11
0.0423254
21
0.202202
0
LINE
8
BLACK
6
CONTINUOUS
10
0.0423254
20
0.202202
11
0.0428631
21
0.186805
0
LINE
8
BLACK
6
CONTINUOUS
10
0.0428631
20
0.186805
11
0.0449007
21
0.171534
0
LINE
8
BLACK
6
CONTINUOUS
10
0.661708
20
0.532789
11
0.659919
21
0.536817
0
LINE
8
BLACK
6
CONTINUOUS
10
0.659919
20
0.536817
11
0.6568
21
0.539931
0
LINE
8
BLACK
6
CONTINUOUS
10
0.6568
20
0.539931
11
0.656381
21
0.540116
0
LINE
8
BLACK
6
CONTINUOUS
10
0.656381
20
0.540116
11
0.656381
21
0.540116
0
LINE
8
BLACK
6
CONTINUOUS
10
0.656381
20
0.540116
11
0.654037
21
0.541152
0
LINE
8
BLACK
6
CONTINUOUS
10
0.654037
20
0.541152
11
0.652769
21
0.541713
0
LINE
8
BLACK
6
CONTINUOUS
10
0.652769
20
0.541713
11
0.651758
21
0.541831
0
LINE
8
BLACK
6
CONTINUOUS
10
0.651758
20
0.541831
11
0.588242
21
0.541831
0
LINE
8
BLACK
6
CONTINUOUS
10
0.588242
20
0.541831
11
0.588096
21
0.541813
0
LINE
8
BLACK
6
CONTINUOUS
10
0.588096
20
0.541813
11
0.588096
21
0.541813
0
LINE
8
BLACK
6
CONTINUOUS
10
0.588096
20
0.541813
11
0.587805
21
0.541779
0
LINE
8
BLACK
6
CONTINUOUS
10
0.587805
20
0.541779
11
0.587211
21
0.541708
0
LINE
8
BLACK
6
CONTINUOUS
10
0.587211
20
0.541708
11
0.583183
21
0.539919
0
LINE
8
BLACK
6
CONTINUOUS
10
0.583183
20
0.539919
11
0.580069
21
0.5368
0
LINE
8
BLACK
6
CONTINUOUS
10
0.580069
20
0.5368
11
0.578287
21
0.532769
0
LINE
8
BLACK
6
CONTINUOUS
10
0.578287
20
0.532769
11
0.578169
21
0.531758
0
LINE
8
BLACK
6
CONTINUOUS
10
0.578169
20
0.531758
11
0.578169
21
0.468242
0
LINE
8
BLACK
6
CONTINUOUS
10
0.578169
20
0.468242
11
0.578292
21
0.467211
0
LINE
8
BLACK
6
CONTINUOUS
10
0.578292
20
0.467211
11
0.580081
21
0.463183
0
LINE
8
BLACK
6
CONTINUOUS
10
0.580081
20
0.463183
11
0.5832
21
0.460069
0
LINE
8
BLACK
6
CONTINUOUS
10
0.5832
20
0.460069
11
0.583619
21
0.459884
0
LINE
8
BLACK
6
CONTINUOUS
10
0.583619
20
0.459884
11
0.583619
21
0.459884
0
LINE
8
BLACK
6
CONTINUOUS
10
0.583619
20
0.459884
11
0.585963
21
0.458848
0
LINE
8
BLACK
6
CONTINUOUS
10
0.585963
20
0.458848
11
0.587231
21
0.458287
0
LINE
8
BLACK
6
CONTINUOUS
10
0.587231
20
0.458287
11
0.588242
21
0.458169
0
LINE
8
BLACK
6
CONTINUOUS
10
0.588242
20
0.458169
11
0.651758
21
0.458169
0
LINE
8
BLACK
6
CONTINUOUS
10
0.651758
20
0.458169
11
0.651904
21
0.458187
0
LINE
8
BLACK
6
CONTINUOUS
10
0.651904
20
0.458187
11
0.651904
21
0.458187
0
LINE
8
BLACK
6
CONTINUOUS
10
0.651904
20
0.458187
11
0.652195
21
0.458221
0
LINE
8
BLACK
6
CONTINUOUS
10
0.652195
20
0.458221
11
0.652789
21
0.458292
0
LINE
8
BLACK
6
CONTINUOUS
10
0.652789
20
0.458292
11
0.656817
21
0.460081
0
LINE
8
BLACK
6
CONTINUOUS
10
0.656817
20
0.460081
11
0.659931
21
0.4632
0
LINE
8
BLACK
6
CONTINUOUS
10
0.659931
20
0.4632
11
0.661713
21
0.467231
0
LINE
8
BLACK
6
CONTINUOUS
10
0.661713
20
0.467231
11
0.661831
21
0.468242
0
LINE
8
BLACK
6
CONTINUOUS
10
0.661831
20
0.468242
11
0.661831
21
0.531758
0
LINE
8
BLACK
6
CONTINUOUS
10
0.661831
20
0.531758
11
0.661708
21
0.532789
0
LINE
8
BLACK
6
CONTINUOUS
10
0.680081
20
0.563183
11
0.6832
21
0.560069
0
LINE
8
BLACK
6
CONTINUOUS
10
0.6832
20
0.560069
11
0.683619
21
0.559884
0
LINE
8
BLACK
6
CONTINUOUS
10
0.683619
20
0.559884
11
0.683619
21
0.559884
0
LINE
8
BLACK
6
CONTINUOUS
10
0.683619
20
0.559884
11
0.685963
21
0.558848
0
LINE
8
BLACK
6
CONTINUOUS
10
0.685963
20
0.558848
11
0.687231
21
0.558287
0
LINE
8
BLACK
6
CONTINUOUS
10
0.687231
20
0.558287
11
0.688242
21
0.558169
0
LINE
8
BLACK
6
CONTINUOUS
10
0.688242
20
0.558169
11
0.751758
21
0.558169
0
LINE
8
BLACK
6
CONTINUOUS
10
0.751758
20
0.558169
11
0.751904
21
0.558187
0
LINE
8
BLACK
6
CONTINUOUS
10
0.751904
20
0.558187
11
0.751904
21
0.558187
0
LINE
8
BLACK
6
CONTINUOUS
10
0.751904
20
0.558187
11
0.752195
21
0.558221
0
LINE
8
BLACK
6
CONTINUOUS
10
0.752195
20
0.558221
11
0.752789
21
0.558292
0
LINE
8
BLACK
6
CONTINUOUS
10
0.752789
20
0.558292
11
0.756817
21
0.560081
0
LINE
8
BLACK
6
CONTINUOUS
10
0.756817
20
0.560081
11
0.759931
21
0.5632
0
LINE
8
BLACK
6
CONTINUOUS
10
0.759931
20
0.5632
11
0.761713
21
0.567231
0
LINE
8
BLACK
6
CONTINUOUS
10
0.761713
20
0.567231
11
0.761831
21
0.568242
0
LINE
8
BLACK
6
CONTINUOUS
10
0.761831
20
0.568242
11
0.761831
21
0.631758
0
LINE
8
BLACK
6
CONTINUOUS
10
0.761831
20
0.631758
11
0.761708
21
0.632789
0
LINE
8
BLACK
6
CONTINUOUS
10
0.761708
20
0.632789
11
0.759919
21
0.636817
0
LINE
8
BLACK
6
CONTINUOUS
10
0.759919
20
0.636817
11
0.7568
21
0.639931
0
LINE
8
BLACK
6
CONTINUOUS
10
0.7568
20
0.639931
11
0.756381
21
0.640116
0
LINE
8
BLACK
6
CONTINUOUS
10
0.756381
20
0.640116
11
0.756381
21
0.640116
0
LINE
8
BLACK
6
CONTINUOUS
10
0.756381
20
0.640116
11
0.754037
21
0.641152
0
LINE
8
BLACK
6
CONTINUOUS
10
0.754037
20
0.641152
11
0.752769
21
0.641713
0
LINE
8
BLACK
6
CONTINUOUS
10
0.752769
20
0.641713
11
0.751758
21
0.641831
0
LINE
8
BLACK
6
CONTINUOUS
10
0.751758
20
0.641831
11
0.688242
21
0.641831
0
LINE
8
BLACK
6
CONTINUOUS
10
0.688242
20
0.641831
11
0.688096
21
0.641813
0
LINE
8
BLACK
6
CONTINUOUS
10
0.688096
20
0.641813
11
0.688096
21
0.641813
0
LINE
8
BLACK
6
CONTINUOUS
10
0.688096
20
0.641813
11
0.687805
21
0.641779
0
LINE
8
BLACK
6
CONTINUOUS
10
0.687805
20
0.641779
11
0.687211
21
0.641708
0
LINE
8
BLACK
6
CONTINUOUS
10
0.687211
20
0.641708
11
0.683183
21
0.639919
0
LINE
8
BLACK
6
CONTINUOUS
10
0.683183
20
0.639919
11
0.680069
21
0.6368
0
LINE
8
BLACK
6
CONTINUOUS
10
0.680069
20
0.6368
11
0.678287
21
0.632769
0
LINE
8
BLACK
6
CONTINUOUS
10
0.678287
20
0.632769
11
0.678169
21
0.631758
0
LINE
8
BLACK
6
CONTINUOUS
10
0.678169
20
0.631758
11
0.678169
21
0.568242
0
LINE
8
BLACK
6
CONTINUOUS
10
0.678169
20
0.568242
11
0.678292
21
0.567211
0
LINE
8
BLACK
6
CONTINUOUS
10
0.678292
20
0.567211
11
0.680081
21
0.563183
0
LINE
8
BLACK
6
CONTINUOUS
10
0.0600811
20
0.948183
11
0.0632003
21
0.945069
0
LINE
8
BLACK
6
CONTINUOUS
10
0.0632003
20
0.945069
11
0.0636191
21
0.944884
0
LINE
8
BLACK
6
CONTINUOUS
10
0.0636191
20
0.944884
11
0.0636191
21
0.944884
0
LINE
8
BLACK
6
CONTINUOUS
10
0.0636191
20
0.944884
11
0.0659631
21
0.943848
0
LINE
8
BLACK
6
CONTINUOUS
10
0.0659631
20
0.943848
11
0.0672312
21
0.943287
0
LINE
8
BLACK
6
CONTINUOUS
10
0.0672312
20
0.943287
11
0.0682423
21
0.943169
0
LINE
8
BLACK
6
CONTINUOUS
10
0.0682423
20
0.943169
11
0.131758
21
0.943169
0
LINE
8
BLACK
6
CONTINUOUS
10
0.131758
20
0.943169
11
0.131904
21
0.943187
0
LINE
8
BLACK
6
CONTINUOUS
10
0.131904
20
0.943187
11
0.131904
21
0.943187
0
LINE
8
BLACK
6
CONTINUOUS
10
0.131904
20
0.943187
11
0.132195
21
0.943221
0
LINE
8
BLACK
6
CONTINUOUS
10
0.132195
20
0.943221
11
0.132789
21
0.943292
0
LINE
8
BLACK
6
CONTINUOUS
10
0.132789
20
0.943292
11
0.136817
21
0.945081
0
LINE
8
BLACK
6
CONTINUOUS
10
0.136817
20
0.945081
11
0.139931
21
0.9482
0
LINE
8
BLACK
6
CONTINUOUS
10
0.139931
20
0.9482
11
0.141713
21
0.952231
0
LINE
8
BLACK
6
CONTINUOUS
10
0.141713
20
0.952231
11
0.141831
21
0.953242
0
LINE
8
BLACK
6
CONTINUOUS
10
0.141831
20
0.953242
11
0.141831
21
1.01676
0
LINE
8
BLACK
6
CONTINUOUS
10
0.141831
20
1.01676
11
0.141708
21
1.01779
0
LINE
8
BLACK
6
CONTINUOUS
10
0.141708
20
1.01779
11
0.139919
21
1.02182
0
LINE
8
BLACK
6
CONTINUOUS
10
0.139919
20
1.02182
11
0.1368
21
1.02493
0
LINE
8
BLACK
6
CONTINUOUS
10
0.1368
20
1.02493
11
0.136381
21
1.02512
0
LINE
8
BLACK
6
CONTINUOUS
10
0.136381
20
1.02512
11
0.136381
21
1.02512
0
LINE
8
BLACK
6
CONTINUOUS
10
0.136381
20
1.02512
11
0.134037
21
1.02615
0
LINE
8
BLACK
6
CONTINUOUS
10
0.134037
20
1.02615
11
0.132769
21
1.02671
0
LINE
8
BLACK
6
CONTINUOUS
10
0.132769
20
1.02671
11
0.131758
21
1.02683
0
LINE
8
BLACK
6
CONTINUOUS
10
0.131758
20
1.02683
11
0.0682423
21
1.02683
0
LINE
8
BLACK
6
CONTINUOUS
10
0.0682423
20
1.02683
11
0.0680965
21
1.02681
0
LINE
8
BLACK
6
CONTINUOUS
10
0.0680965
20
1.02681
11
0.0680963
21
1.02681
0
LINE
8
BLACK
6
CONTINUOUS
10
0.0680963
20
1.02681
11
0.0678053
21
1.02678
0
LINE
8
BLACK
6
CONTINUOUS
10
0.0678053
20
1.02678
11
0.0672108
21
1.02671
0
LINE
8
BLACK
6
CONTINUOUS
10
0.0672108
20
1.02671
11
0.063183
21
1.02492
0
LINE
8
BLACK
6
CONTINUOUS
10
0.063183
20
1.02492
11
0.0628594
21
1.02459
0
LINE
8
BLACK
6
CONTINUOUS
10
0.0628594
20
1.02459
11
0.0628593
21
1.02459
0
LINE
8
BLACK
6
CONTINUOUS
10
0.0628593
20
1.02459
11
0.0616198
21
1.02335
0
LINE
8
BLACK
6
CONTINUOUS
10
0.0616198
20
1.02335
11
0.0600693
21
1.0218
0
LINE
8
BLACK
6
CONTINUOUS
10
0.0600693
20
1.0218
11
0.0582872
21
1.01777
0
LINE
8
BLACK
6
CONTINUOUS
10
0.0582872
20
1.01777
11
0.0581693
21
1.01676
0
LINE
8
BLACK
6
CONTINUOUS
10
0.0581693
20
1.01676
11
0.0581693
21
0.953242
0
LINE
8
BLACK
6
CONTINUOUS
10
0.0581693
20
0.953242
11
0.058292
21
0.952211
0
LINE
8
BLACK
6
CONTINUOUS
10
0.058292
20
0.952211
11
0.0600811
21
0.948183
0
LINE
8
BLACK
6
CONTINUOUS
10
0.580081
20
0.563183
11
0.5832
21
0.560069
0
LINE
8
BLACK
6
CONTINUOUS
10
0.5832
20
0.560069
11
0.583619
21
0.559884
0
LINE
8
BLACK
6
CONTINUOUS
10
0.583619
20
0.559884
11
0.583619
21
0.559884
0
LINE
8
BLACK
6
CONTINUOUS
10
0.583619
20
0.559884
11
0.585963
21
0.558848
0
LINE
8
BLACK
6
CONTINUOUS
10
0.585963
20
0.558848
11
0.587231
21
0.558287
0
LINE
8
BLACK
6
CONTINUOUS
10
0.587231
20
0.558287
11
0.588242
21
0.558169
0
LINE
8
BLACK
6
CONTINUOUS
10
0.588242
20
0.558169
11
0.651758
21
0.558169
0
LINE
8
BLACK
6
CONTINUOUS
10
0.651758
20
0.558169
11
0.651904
21
0.558187
0
LINE
8
BLACK
6
CONTINUOUS
10
0.651904
20
0.558187
11
0.651904
21
0.558187
0
LINE
8
BLACK
6
CONTINUOUS
10
0.651904
20
0.558187
11
0.652195
21
0.558221
0
LINE
8
BLACK
6
CONTINUOUS
10
0.652195
20
0.558221
11
0.652789
21
0.558292
0
LINE
8
BLACK
6
CONTINUOUS
10
0.652789
20
0.558292
11
0.656817
21
0.560081
0
LINE
8
BLACK
6
CONTINUOUS
10
0.656817
20
0.560081
11
0.659931
21
0.5632
0
LINE
8
BLACK
6
CONTINUOUS
10
0.659931
20
0.5632
11
0.661713
21
0.567231
0
LINE
8
BLACK
6
CONTINUOUS
10
0.661713
20
0.567231
11
0.661831
21
0.568242
0
LINE
8
BLACK
6
CONTINUOUS
10
0.661831
20
0.568242
11
0.661831
21
0.631758
0
LINE
8
BLACK
6
CONTINUOUS
10
0.661831
20
0.631758
11
0.661708
21
0.632789
0
LINE
8
BLACK
6
CONTINUOUS
10
0.661708
20
0.632789
11
0.659919
21
0.636817
0
LINE
8
BLACK
6
CONTINUOUS
10
0.659919
20
0.636817
11
0.6568
21
0.639931
0
LINE
8
BLACK
6
CONTINUOUS
10
0.6568
20
0.639931
11
0.656381
21
0.640116
0
LINE
8
BLACK
6
CONTINUOUS
10
0.656381
20
0.640116
11
0.656381
21
0.640116
0
LINE
8
BLACK
6
CONTINUOUS
10
0.656381
20
0.640116
11
0.654037
21
0.641152
0
LINE
8
BLACK
6
CONTINUOUS
10
0.654037
20
0.641152
11
0.652769
21
0.641713
0
LINE
8
BLACK
6
CONTINUOUS
10
0.652769
20
0.641713
11
0.651758
21
0.641831
0
LINE
8
BLACK
6
CONTINUOUS
10
0.651758
20
0.641831
11
0.588242
21
0.641831
0
LINE
8
BLACK
6
CONTINUOUS
10
0.588242
20
0.641831
11
0.588096
21
0.641813
0
LINE
8
BLACK
6
CONTINUOUS
10
0.588096
20
0.641813
11
0.588096
21
0.641813
0
LINE
8
BLACK
6
CONTINUOUS
10
0.588096
20
0.641813
11
0.587805
21
0.641779
0
LINE
8
BLACK
6
CONTINUOUS
10
0.587805
20
0.641779
11
0.587211
21
0.641708
0
LINE
8
BLACK
6
CONTINUOUS
10
0.587211
20
0.641708
11
0.583183
21
0.639919
0
LINE
8
BLACK
6
CONTINUOUS
10
0.583183
20
0.639919
11
0.580069
21
0.6368
0
LINE
8
BLACK
6
CONTINUOUS
10
0.580069
20
0.6368
11
0.578287
21
0.632769
0
LINE
8
BLACK
6
CONTINUOUS
10
0.578287
20
0.632769
11
0.578169
21
0.631758
0
LINE
8
BLACK
6
CONTINUOUS
10
0.578169
20
0.631758
11
0.578169
21
0.568242
0
LINE
8
BLACK
6
CONTINUOUS
10
0.578169
20
0.568242
11
0.578292
21
0.567211
0
LINE
8
BLACK
6
CONTINUOUS
10
0.578292
20
0.567211
11
0.580081
21
0.563183
0
LINE
8
BLACK
6
CONTINUOUS
10
0.680081
20
1.02818
11
0.6832
21
1.02507
0
LINE
8
BLACK
6
CONTINUOUS
10
0.6832
20
1.02507
11
0.683619
21
1.02488
0
LINE
8
BLACK
6
CONTINUOUS
10
0.683619
20
1.02488
11
0.683619
21
1.02488
0
LINE
8
BLACK
6
CONTINUOUS
10
0.683619
20
1.02488
11
0.685963
21
1.02385
0
LINE
8
BLACK
6
CONTINUOUS
10
0.685963
20
1.02385
11
0.687231
21
1.02329
0
LINE
8
BLACK
6
CONTINUOUS
10
0.687231
20
1.02329
11
0.688242
21
1.02317
0
LINE
8
BLACK
6
CONTINUOUS
10
0.688242
20
1.02317
11
0.751758
21
1.02317
0
LINE
8
BLACK
6
CONTINUOUS
10
0.751758
20
1.02317
11
0.751904
21
1.02319
0
LINE
8
BLACK
6
CONTINUOUS
10
0.751904
20
1.02319
11
0.751904
21
1.02319
0
LINE
8
BLACK
6
CONTINUOUS
10
0.751904
20
1.02319
11
0.752195
21
1.02322
0
LINE
8
BLACK
6
CONTINUOUS
10
0.752195
20
1.02322
11
0.752789
21
1.02329
0
LINE
8
BLACK
6
CONTINUOUS
10
0.752789
20
1.02329
11
0.756817
21
1.02508
0
LINE
8
BLACK
6
CONTINUOUS
10
0.756817
20
1.02508
11
0.758295
21
1.02656
0
LINE
8
BLACK
6
CONTINUOUS
10
0.758295
20
1.02656
11
0.759607
21
1.02788
0
LINE
8
BLACK
6
CONTINUOUS
10
0.759607
20
1.02788
11
0.759931
21
1.0282
0
LINE
8
BLACK
6
CONTINUOUS
10
0.759931
20
1.0282
11
0.761713
21
1.03223
0
LINE
8
BLACK
6
CONTINUOUS
10
0.761713
20
1.03223
11
0.761831
21
1.03324
0
LINE
8
BLACK
6
CONTINUOUS
10
0.761831
20
1.03324
11
0.761831
21
1.09676
0
LINE
8
BLACK
6
CONTINUOUS
10
0.761831
20
1.09676
11
0.761708
21
1.09779
0
LINE
8
BLACK
6
CONTINUOUS
10
0.761708
20
1.09779
11
0.759919
21
1.10182
0
LINE
8
BLACK
6
CONTINUOUS
10
0.759919
20
1.10182
11
0.7568
21
1.10493
0
LINE
8
BLACK
6
CONTINUOUS
10
0.7568
20
1.10493
11
0.756381
21
1.10512
0
LINE
8
BLACK
6
CONTINUOUS
10
0.756381
20
1.10512
11
0.756381
21
1.10512
0
LINE
8
BLACK
6
CONTINUOUS
10
0.756381
20
1.10512
11
0.754037
21
1.10615
0
LINE
8
BLACK
6
CONTINUOUS
10
0.754037
20
1.10615
11
0.752769
21
1.10671
0
LINE
8
BLACK
6
CONTINUOUS
10
0.752769
20
1.10671
11
0.751758
21
1.10683
0
LINE
8
BLACK
6
CONTINUOUS
10
0.751758
20
1.10683
11
0.688242
21
1.10683
0
LINE
8
BLACK
6
CONTINUOUS
10
0.688242
20
1.10683
11
0.688096
21
1.10681
0
LINE
8
BLACK
6
CONTINUOUS
10
0.688096
20
1.10681
11
0.688096
21
1.10681
0
LINE
8
BLACK
6
CONTINUOUS
10
0.688096
20
1.10681
11
0.687805
21
1.10678
0
LINE
8
BLACK
6
CONTINUOUS
10
0.687805
20
1.10678
11
0.687211
21
1.10671
0
LINE
8
BLACK
6
CONTINUOUS
10
0.687211
20
1.10671
11
0.683183
21
1.10492
0
LINE
8
BLACK
6
CONTINUOUS
10
0.683183
20
1.10492
11
0.680069
21
1.1018
0
LINE
8
BLACK
6
CONTINUOUS
10
0.680069
20
1.1018
11
0.678287
21
1.09777
0
LINE
8
BLACK
6
CONTINUOUS
10
0.678287
20
1.09777
11
0.678169
21
1.09676
0
LINE
8
BLACK
6
CONTINUOUS
10
0.678169
20
1.09676
11
0.678169
21
1.03324
0
LINE
8
BLACK
6
CONTINUOUS
10
0.678169
20
1.03324
11
0.678292
21
1.03221
0
LINE
8
BLACK
6
CONTINUOUS
10
0.678292
20
1.03221
11
0.680081
21
1.02818
0
LINE
8
BLACK
6
CONTINUOUS
10
0.661708
20
1.09779
11
0.659919
21
1.10182
0
LINE
8
BLACK
6
CONTINUOUS
10
0.659919
20
1.10182
11
0.6568
21
1.10493
0
LINE
8
BLACK
6
CONTINUOUS
10
0.6568
20
1.10493
11
0.656381
21
1.10512
0
LINE
8
BLACK
6
CONTINUOUS
10
0.656381
20
1.10512
11
0.656381
21
1.10512
0
LINE
8
BLACK
6
CONTINUOUS
10
0.656381
20
1.10512
11
0.654037
21
1.10615
0
LINE
8
BLACK
6
CONTINUOUS
10
0.654037
20
1.10615
11
0.652769
21
1.10671
0
LINE
8
BLACK
6
CONTINUOUS
10
0.652769
20
1.10671
11
0.651758
21
1.10683
0
LINE
8
BLACK
6
CONTINUOUS
10
0.651758
20
1.10683
11
0.588242
21
1.10683
0
LINE
8
BLACK
6
CONTINUOUS
10
0.588242
20
1.10683
11
0.588096
21
1.10681
0
LINE
8
BLACK
6
CONTINUOUS
10
0.588096
20
1.10681
11
0.588096
21
1.10681
0
LINE
8
BLACK
6
CONTINUOUS
10
0.588096
20
1.10681
11
0.587805
21
1.10678
0
LINE
8
BLACK
6
CONTINUOUS
10
0.587805
20
1.10678
11
0.587211
21
1.10671
0
LINE
8
BLACK
6
CONTINUOUS
10
0.587211
20
1.10671
11
0.583183
21
1.10492
0
LINE
8
BLACK
6
CONTINUOUS
10
0.583183
20
1.10492
11
0.580069
21
1.1018
0
LINE
8
BLACK
6
CONTINUOUS
10
0.580069
20
1.1018
11
0.578287
21
1.09777
0
LINE
8
BLACK
6
CONTINUOUS
10
0.578287
20
1.09777
11
0.578169
21
1.09676
0
LINE
8
BLACK
6
CONTINUOUS
10
0.578169
20
1.09676
11
0.578169
21
1.03324
0
LINE
8
BLACK
6
CONTINUOUS
10
0.578169
20
1.03324
11
0.578292
21
1.03221
0
LINE
8
BLACK
6
CONTINUOUS
10
0.578292
20
1.03221
11
0.580081
21
1.02818
0
LINE
8
BLACK
6
CONTINUOUS
10
0.580081
20
1.02818
11
0.5832
21
1.02507
0
LINE
8
BLACK
6
CONTINUOUS
10
0.5832
20
1.02507
11
0.583619
21
1.02488
0
LINE
8
BLACK
6
CONTINUOUS
10
0.583619
20
1.02488
11
0.583619
21
1.02488
0
LINE
8
BLACK
6
CONTINUOUS
10
0.583619
20
1.02488
11
0.585963
21
1.02385
0
LINE
8
BLACK
6
CONTINUOUS
10
0.585963
20
1.02385
11
0.587231
21
1.02329
0
LINE
8
BLACK
6
CONTINUOUS
10
0.587231
20
1.02329
11
0.588242
21
1.02317
0
LINE
8
BLACK
6
CONTINUOUS
10
0.588242
20
1.02317
11
0.651758
21
1.02317
0
LINE
8
BLACK
6
CONTINUOUS
10
0.651758
20
1.02317
11
0.651904
21
1.02319
0
LINE
8
BLACK
6
CONTINUOUS
10
0.651904
20
1.02319
11
0.651904
21
1.02319
0
LINE
8
BLACK
6
CONTINUOUS
10
0.651904
20
1.02319
11
0.652195
21
1.02322
0
LINE
8
BLACK
6
CONTINUOUS
10
0.652195
20
1.02322
11
0.652789
21
1.02329
0
LINE
8
BLACK
6
CONTINUOUS
10
0.652789
20
1.02329
11
0.656817
21
1.02508
0
LINE
8
BLACK
6
CONTINUOUS
10
0.656817
20
1.02508
11
0.658295
21
1.02656
0
LINE
8
BLACK
6
CONTINUOUS
10
0.658295
20
1.02656
11
0.659607
21
1.02788
0
LINE
8
BLACK
6
CONTINUOUS
10
0.659607
20
1.02788
11
0.659931
21
1.0282
0
LINE
8
BLACK
6
CONTINUOUS
10
0.659931
20
1.0282
11
0.661713
21
1.03223
0
LINE
8
BLACK
6
CONTINUOUS
10
0.661713
20
1.03223
11
0.661831
21
1.03324
0
LINE
8
BLACK
6
CONTINUOUS
10
0.661831
20
1.03324
11
0.661831
21
1.09676
0
LINE
8
BLACK
6
CONTINUOUS
10
0.661831
20
1.09676
11
0.661708
21
1.09779
0
LINE
8
BLACK
6
CONTINUOUS
10
0.444901
20
1.37153
11
0.448419
21
1.35653
0
LINE
8
BLACK
6
CONTINUOUS
10
0.448419
20
1.35653
11
0.448458
21
1.35642
0
LINE
8
BLACK
6
CONTINUOUS
10
0.448458
20
1.35642
11
0.448458
21
1.35642
0
LINE
8
BLACK
6
CONTINUOUS
10
0.448458
20
1.35642
11
0.453344
21
1.34207
0
LINE
8
BLACK
6
CONTINUOUS
10
0.453344
20
1.34207
11
0.453345
21
1.34206
0
LINE
8
BLACK
6
CONTINUOUS
10
0.453345
20
1.34206
11
0.453384
21
1.34195
0
LINE
8
BLACK
6
CONTINUOUS
10
0.453384
20
1.34195
11
0.459748
21
1.32792
0
LINE
8
BLACK
6
CONTINUOUS
10
0.459748
20
1.32792
11
0.467451
21
1.31458
0
LINE
8
BLACK
6
CONTINUOUS
10
0.467451
20
1.31458
11
0.467522
21
1.31448
0
LINE
8
BLACK
6
CONTINUOUS
10
0.467522
20
1.31448
11
0.467522
21
1.31448
0
LINE
8
BLACK
6
CONTINUOUS
10
0.467522
20
1.31448
11
0.471371
21
1.3091
0
LINE
8
BLACK
6
CONTINUOUS
10
0.471371
20
1.3091
11
0.476419
21
1.30205
0
LINE
8
BLACK
6
CONTINUOUS
10
0.476419
20
1.30205
11
0.486567
21
1.29046
0
LINE
8
BLACK
6
CONTINUOUS
10
0.486567
20
1.29046
11
0.497798
21
1.27991
0
LINE
8
BLACK
6
CONTINUOUS
10
0.497798
20
1.27991
11
0.510004
21
1.27051
0
LINE
8
BLACK
6
CONTINUOUS
10
0.510004
20
1.27051
11
0.510107
21
1.27045
0
LINE
8
BLACK
6
CONTINUOUS
10
0.510107
20
1.27045
11
0.510107
21
1.27045
0
LINE
8
BLACK
6
CONTINUOUS
10
0.510107
20
1.27045
11
0.514791
21
1.26752
0
LINE
8
BLACK
6
CONTINUOUS
10
0.514791
20
1.26752
11
0.523069
21
1.26235
0
LINE
8
BLACK
6
CONTINUOUS
10
0.523069
20
1.26235
11
0.536869
21
1.2555
0
LINE
8
BLACK
6
CONTINUOUS
10
0.536869
20
1.2555
11
0.551271
21
1.25003
0
LINE
8
BLACK
6
CONTINUOUS
10
0.551271
20
1.25003
11
0.566138
21
1.24599
0
LINE
8
BLACK
6
CONTINUOUS
10
0.566138
20
1.24599
11
0.566258
21
1.24597
0
LINE
8
BLACK
6
CONTINUOUS
10
0.566258
20
1.24597
11
0.566258
21
1.24597
0
LINE
8
BLACK
6
CONTINUOUS
10
0.566258
20
1.24597
11
0.581209
21
1.24344
0
LINE
8
BLACK
6
CONTINUOUS
10
0.581209
20
1.24344
11
0.581209
21
1.24344
0
LINE
8
BLACK
6
CONTINUOUS
10
0.581209
20
1.24344
11
0.581329
21
1.24342
0
LINE
8
BLACK
6
CONTINUOUS
10
0.581329
20
1.24342
11
0.58145
21
1.24341
0
LINE
8
BLACK
6
CONTINUOUS
10
0.58145
20
1.24341
11
0.58145
21
1.24341
0
LINE
8
BLACK
6
CONTINUOUS
10
0.58145
20
1.24341
11
0.596577
21
1.24235
0
LINE
8
BLACK
6
CONTINUOUS
10
0.596577
20
1.24235
11
0.596577
21
1.24235
0
LINE
8
BLACK
6
CONTINUOUS
10
0.596577
20
1.24235
11
0.596698
21
1.24234
0
LINE
8
BLACK
6
CONTINUOUS
10
0.596698
20
1.24234
11
0.606681
21
1.24262
0
LINE
8
BLACK
6
CONTINUOUS
10
0.606681
20
1.24262
11
0.611977
21
1.24277
0
LINE
8
BLACK
6
CONTINUOUS
10
0.611977
20
1.24277
11
0.611977
21
1.24277
0
LINE
8
BLACK
6
CONTINUOUS
10
0.611977
20
1.24277
11
0.612098
21
1.24277
0
LINE
8
BLACK
6
CONTINUOUS
10
0.612098
20
1.24277
11
0.612218
21
1.24279
0
LINE
8
BLACK
6
CONTINUOUS
10
0.612218
20
1.24279
11
0.612218
21
1.24279
0
LINE
8
BLACK
6
CONTINUOUS
10
0.612218
20
1.24279
11
0.619533
21
1.24371
0
LINE
8
BLACK
6
CONTINUOUS
10
0.619533
20
1.24371
11
0.627383
21
1.24471
0
LINE
8
BLACK
6
CONTINUOUS
10
0.627383
20
1.24471
11
0.627501
21
1.24473
0
LINE
8
BLACK
6
CONTINUOUS
10
0.627501
20
1.24473
11
0.627501
21
1.24473
0
LINE
8
BLACK
6
CONTINUOUS
10
0.627501
20
1.24473
11
0.642288
21
1.24809
0
LINE
8
BLACK
6
CONTINUOUS
10
0.642288
20
1.24809
11
0.642288
21
1.24809
0
LINE
8
BLACK
6
CONTINUOUS
10
0.642288
20
1.24809
11
0.642406
21
1.24812
0
LINE
8
BLACK
6
CONTINUOUS
10
0.642406
20
1.24812
11
0.648145
21
1.25003
0
LINE
8
BLACK
6
CONTINUOUS
10
0.648145
20
1.25003
11
0.656909
21
1.25294
0
LINE
8
BLACK
6
CONTINUOUS
10
0.656909
20
1.25294
11
0.65691
21
1.25294
0
LINE
8
BLACK
6
CONTINUOUS
10
0.65691
20
1.25294
11
0.657025
21
1.25298
0
LINE
8
BLACK
6
CONTINUOUS
10
0.657025
20
1.25298
11
0.662581
21
1.25546
0
LINE
8
BLACK
6
CONTINUOUS
10
0.662581
20
1.25546
11
0.670989
21
1.2592
0
LINE
8
BLACK
6
CONTINUOUS
10
0.670989
20
1.2592
11
0.670989
21
1.2592
0
LINE
8
BLACK
6
CONTINUOUS
10
0.670989
20
1.2592
11
0.671099
21
1.25925
0
LINE
8
BLACK
6
CONTINUOUS
10
0.671099
20
1.25925
11
0.671204
21
1.25931
0
LINE
8
BLACK
6
CONTINUOUS
10
0.671204
20
1.25931
11
0.684389
21
1.2668
0
LINE
8
BLACK
6
CONTINUOUS
10
0.684389
20
1.2668
11
0.68439
21
1.2668
0
LINE
8
BLACK
6
CONTINUOUS
10
0.68439
20
1.2668
11
0.684494
21
1.26686
0
LINE
8
BLACK
6
CONTINUOUS
10
0.684494
20
1.26686
11
0.697084
21
1.27574
0
LINE
8
BLACK
6
CONTINUOUS
10
0.697084
20
1.27574
11
0.708746
21
1.28581
0
LINE
8
BLACK
6
CONTINUOUS
10
0.708746
20
1.28581
11
0.70883
21
1.28589
0
LINE
8
BLACK
6
CONTINUOUS
10
0.70883
20
1.28589
11
0.70883
21
1.28589
0
LINE
8
BLACK
6
CONTINUOUS
10
0.70883
20
1.28589
11
0.719287
21
1.29687
0
LINE
8
BLACK
6
CONTINUOUS
10
0.719287
20
1.29687
11
0.719371
21
1.29696
0
LINE
8
BLACK
6
CONTINUOUS
10
0.719371
20
1.29696
11
0.723275
21
1.30196
0
LINE
8
BLACK
6
CONTINUOUS
10
0.723275
20
1.30196
11
0.72878
21
1.30901
0
LINE
8
BLACK
6
CONTINUOUS
10
0.72878
20
1.30901
11
0.72878
21
1.30901
0
LINE
8
BLACK
6
CONTINUOUS
10
0.72878
20
1.30901
11
0.728856
21
1.3091
0
LINE
8
BLACK
6
CONTINUOUS
10
0.728856
20
1.3091
11
0.728921
21
1.30921
0
LINE
8
BLACK
6
CONTINUOUS
10
0.728921
20
1.30921
11
0.728921
21
1.30921
0
LINE
8
BLACK
6
CONTINUOUS
10
0.728921
20
1.30921
11
0.737046
21
1.32201
0
LINE
8
BLACK
6
CONTINUOUS
10
0.737046
20
1.32201
11
0.737046
21
1.32201
0
LINE
8
BLACK
6
CONTINUOUS
10
0.737046
20
1.32201
11
0.737111
21
1.32211
0
LINE
8
BLACK
6
CONTINUOUS
10
0.737111
20
1.32211
11
0.744057
21
1.33586
0
LINE
8
BLACK
6
CONTINUOUS
10
0.744057
20
1.33586
11
0.749628
21
1.35023
0
LINE
8
BLACK
6
CONTINUOUS
10
0.749628
20
1.35023
11
0.753771
21
1.36506
0
LINE
8
BLACK
6
CONTINUOUS
10
0.753771
20
1.36506
11
0.756447
21
1.38024
0
LINE
8
BLACK
6
CONTINUOUS
10
0.756447
20
1.38024
11
0.756952
21
1.3868
0
LINE
8
BLACK
6
CONTINUOUS
10
0.756952
20
1.3868
11
0.757623
21
1.39552
0
LINE
8
BLACK
6
CONTINUOUS
10
0.757623
20
1.39552
11
0.757623
21
1.39552
0
LINE
8
BLACK
6
CONTINUOUS
10
0.757623
20
1.39552
11
0.757628
21
1.3956
0
LINE
8
BLACK
6
CONTINUOUS
10
0.757628
20
1.3956
11
0.75769
21
1.4
0
LINE
8
BLACK
6
CONTINUOUS
10
0.75769
20
1.4
11
0.756937
21
1.41539
0
LINE
8
BLACK
6
CONTINUOUS
10
0.756937
20
1.41539
11
0.754687
21
1.43063
0
LINE
8
BLACK
6
CONTINUOUS
10
0.754687
20
1.43063
11
0.75096
21
1.44558
0
LINE
8
BLACK
6
CONTINUOUS
10
0.75096
20
1.44558
11
0.745792
21
1.46009
0
LINE
8
BLACK
6
CONTINUOUS
10
0.745792
20
1.46009
11
0.739232
21
1.47403
0
LINE
8
BLACK
6
CONTINUOUS
10
0.739232
20
1.47403
11
0.738077
21
1.47597
0
LINE
8
BLACK
6
CONTINUOUS
10
0.738077
20
1.47597
11
0.731406
21
1.48716
0
LINE
8
BLACK
6
CONTINUOUS
10
0.731406
20
1.48716
11
0.731343
21
1.48726
0
LINE
8
BLACK
6
CONTINUOUS
10
0.731343
20
1.48726
11
0.722201
21
1.49966
0
LINE
8
BLACK
6
CONTINUOUS
10
0.722201
20
1.49966
11
0.711892
21
1.51111
0
LINE
8
BLACK
6
CONTINUOUS
10
0.711892
20
1.51111
11
0.700515
21
1.5215
0
LINE
8
BLACK
6
CONTINUOUS
10
0.700515
20
1.5215
11
0.688179
21
1.53073
0
LINE
8
BLACK
6
CONTINUOUS
10
0.688179
20
1.53073
11
0.686066
21
1.53201
0
LINE
8
BLACK
6
CONTINUOUS
10
0.686066
20
1.53201
11
0.675105
21
1.53865
0
LINE
8
BLACK
6
CONTINUOUS
10
0.675105
20
1.53865
11
0.675104
21
1.53865
0
LINE
8
BLACK
6
CONTINUOUS
10
0.675104
20
1.53865
11
0.675001
21
1.53871
0
LINE
8
BLACK
6
CONTINUOUS
10
0.675001
20
1.53871
11
0.661107
21
1.54537
0
LINE
8
BLACK
6
CONTINUOUS
10
0.661107
20
1.54537
11
0.660994
21
1.54541
0
LINE
8
BLACK
6
CONTINUOUS
10
0.660994
20
1.54541
11
0.660993
21
1.54541
0
LINE
8
BLACK
6
CONTINUOUS
10
0.660993
20
1.54541
11
0.646744
21
1.5506
0
LINE
8
BLACK
6
CONTINUOUS
10
0.646744
20
1.5506
11
0.646744
21
1.5506
0
LINE
8
BLACK
6
CONTINUOUS
10
0.646744
20
1.5506
11
0.64663
21
1.55064
0
LINE
8
BLACK
6
CONTINUOUS
10
0.64663
20
1.55064
11
0.635721
21
1.55344
0
LINE
8
BLACK
6
CONTINUOUS
10
0.635721
20
1.55344
11
0.631825
21
1.55444
0
LINE
8
BLACK
6
CONTINUOUS
10
0.631825
20
1.55444
11
0.631825
21
1.55444
0
LINE
8
BLACK
6
CONTINUOUS
10
0.631825
20
1.55444
11
0.631708
21
1.55447
0
LINE
8
BLACK
6
CONTINUOUS
10
0.631708
20
1.55447
11
0.616483
21
1.55683
0
LINE
8
BLACK
6
CONTINUOUS
10
0.616483
20
1.55683
11
0.616363
21
1.55683
0
LINE
8
BLACK
6
CONTINUOUS
10
0.616363
20
1.55683
11
0.616363
21
1.55683
0
LINE
8
BLACK
6
CONTINUOUS
10
0.616363
20
1.55683
11
0.615162
21
1.5569
0
LINE
8
BLACK
6
CONTINUOUS
10
0.615162
20
1.5569
11
0.601101
21
1.55769
0
LINE
8
BLACK
6
CONTINUOUS
10
0.601101
20
1.55769
11
0.60098
21
1.55768
0
LINE
8
BLACK
6
CONTINUOUS
10
0.60098
20
1.55768
11
0.60098
21
1.55768
0
LINE
8
BLACK
6
CONTINUOUS
10
0.60098
20
1.55768
11
0.590896
21
1.55726
0
LINE
8
BLACK
6
CONTINUOUS
10
0.590896
20
1.55726
11
0.585708
21
1.55704
0
LINE
8
BLACK
6
CONTINUOUS
10
0.585708
20
1.55704
11
0.585588
21
1.55702
0
LINE
8
BLACK
6
CONTINUOUS
10
0.585588
20
1.55702
11
0.585588
21
1.55702
0
LINE
8
BLACK
6
CONTINUOUS
10
0.585588
20
1.55702
11
0.584227
21
1.55683
0
LINE
8
BLACK
6
CONTINUOUS
10
0.584227
20
1.55683
11
0.570452
21
1.5549
0
LINE
8
BLACK
6
CONTINUOUS
10
0.570452
20
1.5549
11
0.555478
21
1.55127
0
LINE
8
BLACK
6
CONTINUOUS
10
0.555478
20
1.55127
11
0.540928
21
1.54621
0
LINE
8
BLACK
6
CONTINUOUS
10
0.540928
20
1.54621
11
0.540818
21
1.54616
0
LINE
8
BLACK
6
CONTINUOUS
10
0.540818
20
1.54616
11
0.527053
21
1.5398
0
LINE
8
BLACK
6
CONTINUOUS
10
0.527053
20
1.5398
11
0.527053
21
1.5398
0
LINE
8
BLACK
6
CONTINUOUS
10
0.527053
20
1.5398
11
0.526943
21
1.53975
0
LINE
8
BLACK
6
CONTINUOUS
10
0.526943
20
1.53975
11
0.52267
21
1.53724
0
LINE
8
BLACK
6
CONTINUOUS
10
0.52267
20
1.53724
11
0.513759
21
1.53201
0
LINE
8
BLACK
6
CONTINUOUS
10
0.513759
20
1.53201
11
0.513759
21
1.53201
0
LINE
8
BLACK
6
CONTINUOUS
10
0.513759
20
1.53201
11
0.513655
21
1.53195
0
LINE
8
BLACK
6
CONTINUOUS
10
0.513655
20
1.53195
11
0.512064
21
1.53079
0
LINE
8
BLACK
6
CONTINUOUS
10
0.512064
20
1.53079
11
0.501289
21
1.52296
0
LINE
8
BLACK
6
CONTINUOUS
10
0.501289
20
1.52296
11
0.501288
21
1.52296
0
LINE
8
BLACK
6
CONTINUOUS
10
0.501288
20
1.52296
11
0.501191
21
1.52289
0
LINE
8
BLACK
6
CONTINUOUS
10
0.501191
20
1.52289
11
0.501101
21
1.52281
0
LINE
8
BLACK
6
CONTINUOUS
10
0.501101
20
1.52281
11
0.5011
21
1.52281
0
LINE
8
BLACK
6
CONTINUOUS
10
0.5011
20
1.52281
11
0.489761
21
1.51275
0
LINE
8
BLACK
6
CONTINUOUS
10
0.489761
20
1.51275
11
0.48967
21
1.51267
0
LINE
8
BLACK
6
CONTINUOUS
10
0.48967
20
1.51267
11
0.479202
21
1.50136
0
LINE
8
BLACK
6
CONTINUOUS
10
0.479202
20
1.50136
11
0.469888
21
1.48909
0
LINE
8
BLACK
6
CONTINUOUS
10
0.469888
20
1.48909
11
0.461815
21
1.47597
0
LINE
8
BLACK
6
CONTINUOUS
10
0.461815
20
1.47597
11
0.455062
21
1.46212
0
LINE
8
BLACK
6
CONTINUOUS
10
0.455062
20
1.46212
11
0.449691
21
1.44768
0
LINE
8
BLACK
6
CONTINUOUS
10
0.449691
20
1.44768
11
0.445756
21
1.43279
0
LINE
8
BLACK
6
CONTINUOUS
10
0.445756
20
1.43279
11
0.443293
21
1.41758
0
LINE
8
BLACK
6
CONTINUOUS
10
0.443293
20
1.41758
11
0.442325
21
1.4022
0
LINE
8
BLACK
6
CONTINUOUS
10
0.442325
20
1.4022
11
0.442863
21
1.3868
0
LINE
8
BLACK
6
CONTINUOUS
10
0.442863
20
1.3868
11
0.444901
21
1.37153
0
LINE
8
BLACK
6
CONTINUOUS
10
0.354687
20
1.43063
11
0.35096
21
1.44558
0
LINE
8
BLACK
6
CONTINUOUS
10
0.35096
20
1.44558
11
0.345792
21
1.46009
0
LINE
8
BLACK
6
CONTINUOUS
10
0.345792
20
1.46009
11
0.339232
21
1.47403
0
LINE
8
BLACK
6
CONTINUOUS
10
0.339232
20
1.47403
11
0.338077
21
1.47597
0
LINE
8
BLACK
6
CONTINUOUS
10
0.338077
20
1.47597
11
0.331406
21
1.48716
0
LINE
8
BLACK
6
CONTINUOUS
10
0.331406
20
1.48716
11
0.331343
21
1.48726
0
LINE
8
BLACK
6
CONTINUOUS
10
0.331343
20
1.48726
11
0.322201
21
1.49966
0
LINE
8
BLACK
6
CONTINUOUS
10
0.322201
20
1.49966
11
0.311892
21
1.51111
0
LINE
8
BLACK
6
CONTINUOUS
10
0.311892
20
1.51111
11
0.300515
21
1.5215
0
LINE
8
BLACK
6
CONTINUOUS
10
0.300515
20
1.5215
11
0.288179
21
1.53073
0
LINE
8
BLACK
6
CONTINUOUS
10
0.288179
20
1.53073
11
0.286066
21
1.53201
0
LINE
8
BLACK
6
CONTINUOUS
10
0.286066
20
1.53201
11
0.275105
21
1.53865
0
LINE
8
BLACK
6
CONTINUOUS
10
0.275105
20
1.53865
11
0.275104
21
1.53865
0
LINE
8
BLACK
6
CONTINUOUS
10
0.275104
20
1.53865
11
0.275001
21
1.53871
0
LINE
8
BLACK
6
CONTINUOUS
10
0.275001
20
1.53871
11
0.261107
21
1.54537
0
LINE
8
BLACK
6
CONTINUOUS
10
0.261107
20
1.54537
11
0.260994
21
1.54541
0
LINE
8
BLACK
6
CONTINUOUS
10
0.260994
20
1.54541
11
0.260993
21
1.54541
0
LINE
8
BLACK
6
CONTINUOUS
10
0.260993
20
1.54541
11
0.246744
21
1.5506
0
LINE
8
BLACK
6
CONTINUOUS
10
0.246744
20
1.5506
11
0.246744
21
1.5506
0
LINE
8
BLACK
6
CONTINUOUS
10
0.246744
20
1.5506
11
0.24663
21
1.55064
0
LINE
8
BLACK
6
CONTINUOUS
10
0.24663
20
1.55064
11
0.235721
21
1.55344
0
LINE
8
BLACK
6
CONTINUOUS
10
0.235721
20
1.55344
11
0.231825
21
1.55444
0
LINE
8
BLACK
6
CONTINUOUS
10
0.231825
20
1.55444
11
0.231825
21
1.55444
0
LINE
8
BLACK
6
CONTINUOUS
10
0.231825
20
1.55444
11
0.231708
21
1.55447
0
LINE
8
BLACK
6
CONTINUOUS
10
0.231708
20
1.55447
11
0.216483
21
1.55683
0
LINE
8
BLACK
6
CONTINUOUS
10
0.216483
20
1.55683
11
0.216363
21
1.55683
0
LINE
8
BLACK
6
CONTINUOUS
10
0.216363
20
1.55683
11
0.216363
21
1.55683
0
LINE
8
BLACK
6
CONTINUOUS
10
0.216363
20
1.55683
11
0.215162
21
1.5569
0
LINE
8
BLACK
6
CONTINUOUS
10
0.215162
20
1.5569
11
0.201101
21
1.55769
0
LINE
8
BLACK
6
CONTINUOUS
10
0.201101
20
1.55769
11
0.20098
21
1.55768
0
LINE
8
BLACK
6
CONTINUOUS
10
0.20098
20
1.55768
11
0.20098
21
1.55768
0
LINE
8
BLACK
6
CONTINUOUS
10
0.20098
20
1.55768
11
0.190896
21
1.55726
0
LINE
8
BLACK
6
CONTINUOUS
10
0.190896
20
1.55726
11
0.185708
21
1.55704
0
LINE
8
BLACK
6
CONTINUOUS
10
0.185708
20
1.55704
11
0.185588
21
1.55702
0
LINE
8
BLACK
6
CONTINUOUS
10
0.185588
20
1.55702
11
0.185588
21
1.55702
0
LINE
8
BLACK
6
CONTINUOUS
10
0.185588
20
1.55702
11
0.184227
21
1.55683
0
LINE
8
BLACK
6
CONTINUOUS
10
0.184227
20
1.55683
11
0.170452
21
1.5549
0
LINE
8
BLACK
6
CONTINUOUS
10
0.170452
20
1.5549
11
0.155478
21
1.55127
0
LINE
8
BLACK
6
CONTINUOUS
10
0.155478
20
1.55127
11
0.140928
21
1.54621
0
LINE
8
BLACK
6
CONTINUOUS
10
0.140928
20
1.54621
11
0.140818
21
1.54616
0
LINE
8
BLACK
6
CONTINUOUS
10
0.140818
20
1.54616
11
0.127053
21
1.5398
0
LINE
8
BLACK
6
CONTINUOUS
10
0.127053
20
1.5398
11
0.127053
21
1.5398
0
LINE
8
BLACK
6
CONTINUOUS
10
0.127053
20
1.5398
11
0.126943
21
1.53975
0
LINE
8
BLACK
6
CONTINUOUS
10
0.126943
20
1.53975
11
0.12267
21
1.53724
0
LINE
8
BLACK
6
CONTINUOUS
10
0.12267
20
1.53724
11
0.113759
21
1.53201
0
LINE
8
BLACK
6
CONTINUOUS
10
0.113759
20
1.53201
11
0.113759
21
1.53201
0
LINE
8
BLACK
6
CONTINUOUS
10
0.113759
20
1.53201
11
0.113655
21
1.53195
0
LINE
8
BLACK
6
CONTINUOUS
10
0.113655
20
1.53195
11
0.112064
21
1.53079
0
LINE
8
BLACK
6
CONTINUOUS
10
0.112064
20
1.53079
11
0.101289
21
1.52296
0
LINE
8
BLACK
6
CONTINUOUS
10
0.101289
20
1.52296
11
0.101288
21
1.52296
0
LINE
8
BLACK
6
CONTINUOUS
10
0.101288
20
1.52296
11
0.101191
21
1.52289
0
LINE
8
BLACK
6
CONTINUOUS
10
0.101191
20
1.52289
11
0.101101
21
1.52281
0
LINE
8
BLACK
6
CONTINUOUS
10
0.101101
20
1.52281
11
0.1011
21
1.52281
0
LINE
8
BLACK
6
CONTINUOUS
10
0.1011
20
1.52281
11
0.0897608
21
1.51275
0
LINE
8
BLACK
6
CONTINUOUS
10
0.0897608
20
1.51275
11
0.0896701
21
1.51267
0
LINE
8
BLACK
6
CONTINUOUS
10
0.0896701
20
1.51267
11
0.0792025
21
1.50136
0
LINE
8
BLACK
6
CONTINUOUS
10
0.0792025
20
1.50136
11
0.0698879
21
1.48909
0
LINE
8
BLACK
6
CONTINUOUS
10
0.0698879
20
1.48909
11
0.0618152
21
1.47597
0
LINE
8
BLACK
6
CONTINUOUS
10
0.0618152
20
1.47597
11
0.0550616
21
1.46212
0
LINE
8
BLACK
6
CONTINUOUS
10
0.0550616
20
1.46212
11
0.0496914
21
1.44768
0
LINE
8
BLACK
6
CONTINUOUS
10
0.0496914
20
1.44768
11
0.0457559
21
1.43279
0
LINE
8
BLACK
6
CONTINUOUS
10
0.0457559
20
1.43279
11
0.0432928
21
1.41758
0
LINE
8
BLACK
6
CONTINUOUS
10
0.0432928
20
1.41758
11
0.0423254
21
1.4022
0
LINE
8
BLACK
6
CONTINUOUS
10
0.0423254
20
1.4022
11
0.0428631
21
1.3868
0
LINE
8
BLACK
6
CONTINUOUS
10
0.0428631
20
1.3868
11
0.0449007
21
1.37153
0
LINE
8
BLACK
6
CONTINUOUS
10
0.0449007
20
1.37153
11
0.0484187
21
1.35653
0
LINE
8
BLACK
6
CONTINUOUS
10
0.0484187
20
1.35653
11
0.0484576
21
1.35642
0
LINE
8
BLACK
6
CONTINUOUS
10
0.0484576
20
1.35642
11
0.0484577
21
1.35642
0
LINE
8
BLACK
6
CONTINUOUS
10
0.0484577
20
1.35642
11
0.0533445
21
1.34207
0
LINE
8
BLACK
6
CONTINUOUS
10
0.0533445
20
1.34207
11
0.0533447
21
1.34206
0
LINE
8
BLACK
6
CONTINUOUS
10
0.0533447
20
1.34206
11
0.0533836
21
1.34195
0
LINE
8
BLACK
6
CONTINUOUS
10
0.0533836
20
1.34195
11
0.059748
21
1.32792
0
LINE
8
BLACK
6
CONTINUOUS
10
0.059748
20
1.32792
11
0.0674511
21
1.31458
0
LINE
8
BLACK
6
CONTINUOUS
10
0.0674511
20
1.31458
11
0.0675215
21
1.31448
0
LINE
8
BLACK
6
CONTINUOUS
10
0.0675215
20
1.31448
11
0.0675216
21
1.31448
0
LINE
8
BLACK
6
CONTINUOUS
10
0.0675216
20
1.31448
11
0.0713713
21
1.3091
0
LINE
8
BLACK
6
CONTINUOUS
10
0.0713713
20
1.3091
11
0.0764194
21
1.30205
0
LINE
8
BLACK
6
CONTINUOUS
10
0.0764194
20
1.30205
11
0.0865673
21
1.29046
0
LINE
8
BLACK
6
CONTINUOUS
10
0.0865673
20
1.29046
11
0.097798
21
1.27991
0
LINE
8
BLACK
6
CONTINUOUS
10
0.097798
20
1.27991
11
0.110004
21
1.27051
0
LINE
8
BLACK
6
CONTINUOUS
10
0.110004
20
1.27051
11
0.110107
21
1.27045
0
LINE
8
BLACK
6
CONTINUOUS
10
0.110107
20
1.27045
11
0.110107
21
1.27045
0
LINE
8
BLACK
6
CONTINUOUS
10
0.110107
20
1.27045
11
0.114791
21
1.26752
0
LINE
8
BLACK
6
CONTINUOUS
10
0.114791
20
1.26752
11
0.123069
21
1.26235
0
LINE
8
BLACK
6
CONTINUOUS
10
0.123069
20
1.26235
11
0.136869
21
1.2555
0
LINE
8
BLACK
6
CONTINUOUS
10
0.136869
20
1.2555
11
0.151271
21
1.25003
0
LINE
8
BLACK
6
CONTINUOUS
10
0.151271
20
1.25003
11
0.166138
21
1.24599
0
LINE
8
BLACK
6
CONTINUOUS
10
0.166138
20
1.24599
11
0.166258
21
1.24597
0
LINE
8
BLACK
6
CONTINUOUS
10
0.166258
20
1.24597
11
0.166258
21
1.24597
0
LINE
8
BLACK
6
CONTINUOUS
10
0.166258
20
1.24597
11
0.181209
21
1.24344
0
LINE
8
BLACK
6
CONTINUOUS
10
0.181209
20
1.24344
11
0.181209
21
1.24344
0
LINE
8
BLACK
6
CONTINUOUS
10
0.181209
20
1.24344
11
0.181329
21
1.24342
0
LINE
8
BLACK
6
CONTINUOUS
10
0.181329
20
1.24342
11
0.18145
21
1.24341
0
LINE
8
BLACK
6
CONTINUOUS
10
0.18145
20
1.24341
11
0.18145
21
1.24341
0
LINE
8
BLACK
6
CONTINUOUS
10
0.18145
20
1.24341
11
0.196577
21
1.24235
0
LINE
8
BLACK
6
CONTINUOUS
10
0.196577
20
1.24235
11
0.196577
21
1.24235
0
LINE
8
BLACK
6
CONTINUOUS
10
0.196577
20
1.24235
11
0.196698
21
1.24234
0
LINE
8
BLACK
6
CONTINUOUS
10
0.196698
20
1.24234
11
0.206681
21
1.24262
0
LINE
8
BLACK
6
CONTINUOUS
10
0.206681
20
1.24262
11
0.211977
21
1.24277
0
LINE
8
BLACK
6
CONTINUOUS
10
0.211977
20
1.24277
11
0.211977
21
1.24277
0
LINE
8
BLACK
6
CONTINUOUS
10
0.211977
20
1.24277
11
0.212098
21
1.24277
0
LINE
8
BLACK
6
CONTINUOUS
10
0.212098
20
1.24277
11
0.212218
21
1.24279
0
LINE
8
BLACK
6
CONTINUOUS
10
0.212218
20
1.24279
11
0.212218
21
1.24279
0
LINE
8
BLACK
6
CONTINUOUS
10
0.212218
20
1.24279
11
0.219533
21
1.24371
0
LINE
8
BLACK
6
CONTINUOUS
10
0.219533
20
1.24371
11
0.227383
21
1.24471
0
LINE
8
BLACK
6
CONTINUOUS
10
0.227383
20
1.24471
11
0.227501
21
1.24473
0
LINE
8
BLACK
6
CONTINUOUS
10
0.227501
20
1.24473
11
0.227501
21
1.24473
0
LINE
8
BLACK
6
CONTINUOUS
10
0.227501
20
1.24473
11
0.242288
21
1.24809
0
LINE
8
BLACK
6
CONTINUOUS
10
0.242288
20
1.24809
11
0.242288
21
1.24809
0
LINE
8
BLACK
6
CONTINUOUS
10
0.242288
20
1.24809
11
0.242406
21
1.24812
0
LINE
8
BLACK
6
CONTINUOUS
10
0.242406
20
1.24812
11
0.248145
21
1.25003
0
LINE
8
BLACK
6
CONTINUOUS
10
0.248145
20
1.25003
11
0.256909
21
1.25294
0
LINE
8
BLACK
6
CONTINUOUS
10
0.256909
20
1.25294
11
0.25691
21
1.25294
0
LINE
8
BLACK
6
CONTINUOUS
10
0.25691
20
1.25294
11
0.257025
21
1.25298
0
LINE
8
BLACK
6
CONTINUOUS
10
0.257025
20
1.25298
11
0.262581
21
1.25546
0
LINE
8
BLACK
6
CONTINUOUS
10
0.262581
20
1.25546
11
0.270989
21
1.2592
0
LINE
8
BLACK
6
CONTINUOUS
10
0.270989
20
1.2592
11
0.270989
21
1.2592
0
LINE
8
BLACK
6
CONTINUOUS
10
0.270989
20
1.2592
11
0.271099
21
1.25925
0
LINE
8
BLACK
6
CONTINUOUS
10
0.271099
20
1.25925
11
0.271204
21
1.25931
0
LINE
8
BLACK
6
CONTINUOUS
10
0.271204
20
1.25931
11
0.284389
21
1.2668
0
LINE
8
BLACK
6
CONTINUOUS
10
0.284389
20
1.2668
11
0.28439
21
1.2668
0
LINE
8
BLACK
6
CONTINUOUS
10
0.28439
20
1.2668
11
0.284494
21
1.26686
0
LINE
8
BLACK
6
CONTINUOUS
10
0.284494
20
1.26686
11
0.297084
21
1.27574
0
LINE
8
BLACK
6
CONTINUOUS
10
0.297084
20
1.27574
11
0.308746
21
1.28581
0
LINE
8
BLACK
6
CONTINUOUS
10
0.308746
20
1.28581
11
0.30883
21
1.28589
0
LINE
8
BLACK
6
CONTINUOUS
10
0.30883
20
1.28589
11
0.30883
21
1.28589
0
LINE
8
BLACK
6
CONTINUOUS
10
0.30883
20
1.28589
11
0.319287
21
1.29687
0
LINE
8
BLACK
6
CONTINUOUS
10
0.319287
20
1.29687
11
0.319371
21
1.29696
0
LINE
8
BLACK
6
CONTINUOUS
10
0.319371
20
1.29696
11
0.323275
21
1.30196
0
LINE
8
BLACK
6
CONTINUOUS
10
0.323275
20
1.30196
11
0.32878
21
1.30901
0
LINE
8
BLACK
6
CONTINUOUS
10
0.32878
20
1.30901
11
0.32878
21
1.30901
0
LINE
8
BLACK
6
CONTINUOUS
10
0.32878
20
1.30901
11
0.328856
21
1.3091
0
LINE
8
BLACK
6
CONTINUOUS
10
0.328856
20
1.3091
11
0.328921
21
1.30921
0
LINE
8
BLACK
6
CONTINUOUS
10
0.328921
20
1.30921
11
0.328921
21
1.30921
0
LINE
8
BLACK
6
CONTINUOUS
10
0.328921
20
1.30921
11
0.337046
21
1.32201
0
LINE
8
BLACK
6
CONTINUOUS
10
0.337046
20
1.32201
11
0.337046
21
1.32201
0
LINE
8
BLACK
6
CONTINUOUS
10
0.337046
20
1.32201
11
0.337111
21
1.32211
0
LINE
8
BLACK
6
CONTINUOUS
10
0.337111
20
1.32211
11
0.344057
21
1.33586
0
LINE
8
BLACK
6
CONTINUOUS
10
0.344057
20
1.33586
11
0.349628
21
1.35023
0
LINE
8
BLACK
6
CONTINUOUS
10
0.349628
20
1.35023
11
0.353771
21
1.36506
0
LINE
8
BLACK
6
CONTINUOUS
10
0.353771
20
1.36506
11
0.356447
21
1.38024
0
LINE
8
BLACK
6
CONTINUOUS
10
0.356447
20
1.38024
11
0.356952
21
1.3868
0
LINE
8
BLACK
6
CONTINUOUS
10
0.356952
20
1.3868
11
0.357623
21
1.39552
0
LINE
8
BLACK
6
CONTINUOUS
10
0.357623
20
1.39552
11
0.357623
21
1.39552
0
LINE
8
BLACK
6
CONTINUOUS
10
0.357623
20
1.39552
11
0.357628
21
1.3956
0
LINE
8
BLACK
6
CONTINUOUS
10
0.357628
20
1.3956
11
0.35769
21
1.4
0
LINE
8
BLACK
6
CONTINUOUS
10
0.35769
20
1.4
11
0.357582
21
1.4022
0
LINE
8
BLACK
6
CONTINUOUS
10
0.357582
20
1.4022
11
0.356937
21
1.41539
0
LINE
8
BLACK
6
CONTINUOUS
10
0.356937
20
1.41539
11
0.354687
21
1.43063
0
LINE
8
BLACK
6
CONTINUOUS
10
0.60865
20
0.317793
11
0.622132
21
0.316018
0
LINE
8
BLACK
6
CONTINUOUS
10
0.622132
20
0.316018
11
0.63532
21
0.312706
0
LINE
8
BLACK
6
CONTINUOUS
10
0.63532
20
0.312706
11
0.64804
21
0.307899
0
LINE
8
BLACK
6
CONTINUOUS
10
0.64804
20
0.307899
11
0.660123
21
0.301662
0
LINE
8
BLACK
6
CONTINUOUS
10
0.660123
20
0.301662
11
0.671409
21
0.294078
0
LINE
8
BLACK
6
CONTINUOUS
10
0.671409
20
0.294078
11
0.681749
21
0.285247
0
LINE
8
BLACK
6
CONTINUOUS
10
0.681749
20
0.285247
11
0.691006
21
0.275286
0
LINE
8
BLACK
6
CONTINUOUS
10
0.691006
20
0.275286
11
0.699056
21
0.264327
0
LINE
8
BLACK
6
CONTINUOUS
10
0.699056
20
0.264327
11
0.705793
21
0.252516
0
LINE
8
BLACK
6
CONTINUOUS
10
0.705793
20
0.252516
11
0.711128
21
0.240008
0
LINE
8
BLACK
6
CONTINUOUS
10
0.711128
20
0.240008
11
0.71499
21
0.226971
0
LINE
8
BLACK
6
CONTINUOUS
10
0.71499
20
0.226971
11
0.717327
21
0.213575
0
LINE
8
BLACK
6
CONTINUOUS
10
0.717327
20
0.213575
11
0.71811
21
0.2
0
LINE
8
BLACK
6
CONTINUOUS
10
0.71811
20
0.2
11
0.717877
21
0.192584
0
LINE
8
BLACK
6
CONTINUOUS
10
0.717877
20
0.192584
11
0.716244
21
0.179084
0
LINE
8
BLACK
6
CONTINUOUS
10
0.716244
20
0.179084
11
0.713069
21
0.165862
0
LINE
8
BLACK
6
CONTINUOUS
10
0.713069
20
0.165862
11
0.708396
21
0.153093
0
LINE
8
BLACK
6
CONTINUOUS
10
0.708396
20
0.153093
11
0.702286
21
0.140945
0
LINE
8
BLACK
6
CONTINUOUS
10
0.702286
20
0.140945
11
0.694821
21
0.12958
0
LINE
8
BLACK
6
CONTINUOUS
10
0.694821
20
0.12958
11
0.686099
21
0.119148
0
LINE
8
BLACK
6
CONTINUOUS
10
0.686099
20
0.119148
11
0.676235
21
0.109788
0
LINE
8
BLACK
6
CONTINUOUS
10
0.676235
20
0.109788
11
0.665361
21
0.101623
0
LINE
8
BLACK
6
CONTINUOUS
10
0.665361
20
0.101623
11
0.653621
21
0.094763
0
LINE
8
BLACK
6
CONTINUOUS
10
0.653621
20
0.094763
11
0.64117
21
0.0892974
0
LINE
8
BLACK
6
CONTINUOUS
10
0.64117
20
0.0892974
11
0.628173
21
0.0852991
0
LINE
8
BLACK
6
CONTINUOUS
10
0.628173
20
0.0852991
11
0.614803
21
0.0828211
0
LINE
8
BLACK
6
CONTINUOUS
10
0.614803
20
0.0828211
11
0.601237
21
0.0818962
0
LINE
8
BLACK
6
CONTINUOUS
10
0.601237
20
0.0818962
11
0.587654
21
0.0825368
0
LINE
8
BLACK
6
CONTINUOUS
10
0.587654
20
0.0825368
11
0.574235
21
0.0847343
0
LINE
8
BLACK
6
CONTINUOUS
10
0.574235
20
0.0847343
11
0.561157
21
0.0884595
0
LINE
8
BLACK
6
CONTINUOUS
10
0.561157
20
0.0884595
11
0.548595
21
0.0936631
0
LINE
8
BLACK
6
CONTINUOUS
10
0.548595
20
0.0936631
11
0.536713
21
0.100276
0
LINE
8
BLACK
6
CONTINUOUS
10
0.536713
20
0.100276
11
0.525671
21
0.108211
0
LINE
8
BLACK
6
CONTINUOUS
10
0.525671
20
0.108211
11
0.515613
21
0.117363
0
LINE
8
BLACK
6
CONTINUOUS
10
0.515613
20
0.117363
11
0.506675
21
0.127609
0
LINE
8
BLACK
6
CONTINUOUS
10
0.506675
20
0.127609
11
0.498973
21
0.138816
0
LINE
8
BLACK
6
CONTINUOUS
10
0.498973
20
0.138816
11
0.49261
21
0.150833
0
LINE
8
BLACK
6
CONTINUOUS
10
0.49261
20
0.150833
11
0.48767
21
0.163502
0
LINE
8
BLACK
6
CONTINUOUS
10
0.48767
20
0.163502
11
0.48422
21
0.176655
0
LINE
8
BLACK
6
CONTINUOUS
10
0.48422
20
0.176655
11
0.482304
21
0.190117
0
LINE
8
BLACK
6
CONTINUOUS
10
0.482304
20
0.190117
11
0.481948
21
0.20371
0
LINE
8
BLACK
6
CONTINUOUS
10
0.481948
20
0.20371
11
0.483157
21
0.217254
0
LINE
8
BLACK
6
CONTINUOUS
10
0.483157
20
0.217254
11
0.485914
21
0.230569
0
LINE
8
BLACK
6
CONTINUOUS
10
0.485914
20
0.230569
11
0.490184
21
0.243479
0
LINE
8
BLACK
6
CONTINUOUS
10
0.490184
20
0.243479
11
0.495909
21
0.255813
0
LINE
8
BLACK
6
CONTINUOUS
10
0.495909
20
0.255813
11
0.503014
21
0.267407
0
LINE
8
BLACK
6
CONTINUOUS
10
0.503014
20
0.267407
11
0.511404
21
0.278108
0
LINE
8
BLACK
6
CONTINUOUS
10
0.511404
20
0.278108
11
0.520969
21
0.287773
0
LINE
8
BLACK
6
CONTINUOUS
10
0.520969
20
0.287773
11
0.531581
21
0.296275
0
LINE
8
BLACK
6
CONTINUOUS
10
0.531581
20
0.296275
11
0.5431
21
0.303501
0
LINE
8
BLACK
6
CONTINUOUS
10
0.5431
20
0.303501
11
0.555373
21
0.309355
0
LINE
8
BLACK
6
CONTINUOUS
10
0.555373
20
0.309355
11
0.568238
21
0.313759
0
LINE
8
BLACK
6
CONTINUOUS
10
0.568238
20
0.313759
11
0.581524
21
0.316656
0
LINE
8
BLACK
6
CONTINUOUS
10
0.581524
20
0.316656
11
0.595054
21
0.318007
0
LINE
8
BLACK
6
CONTINUOUS
10
0.595054
20
0.318007
11
0.60865
21
0.317793
0
LINE
8
BLACK
6
CONTINUOUS
10
0.20865
20
1.51779
11
0.222132
21
1.51602
0
LINE
8
BLACK
6
CONTINUOUS
10
0.222132
20
1.51602
11
0.23532
21
1.51271
0
LINE
8
BLACK
6
CONTINUOUS
10
0.23532
20
1.51271
11
0.24804
21
1.5079
0
LINE
8
BLACK
6
CONTINUOUS
10
0.24804
20
1.5079
11
0.260123
21
1.50166
0
LINE
8
BLACK
6
CONTINUOUS
10
0.260123
20
1.50166
11
0.271409
21
1.49408
0
LINE
8
BLACK
6
CONTINUOUS
10
0.271409
20
1.49408
11
0.281749
21
1.48525
0
LINE
8
BLACK
6
CONTINUOUS
10
0.281749
20
1.48525
11
0.291006
21
1.47529
0
LINE
8
BLACK
6
CONTINUOUS
10
0.291006
20
1.47529
11
0.299056
21
1.46433
0
LINE
8
BLACK
6
CONTINUOUS
10
0.299056
20
1.46433
11
0.305793
21
1.45252
0
LINE
8
BLACK
6
CONTINUOUS
10
0.305793
20
1.45252
11
0.311128
21
1.44001
0
LINE
8
BLACK
6
CONTINUOUS
10
0.311128
20
1.44001
11
0.31499
21
1.42697
0
LINE
8
BLACK
6
CONTINUOUS
10
0.31499
20
1.42697
11
0.317327
21
1.41358
0
LINE
8
BLACK
6
CONTINUOUS
10
0.317327
20
1.41358
11
0.31811
21
1.4
0
LINE
8
BLACK
6
CONTINUOUS
10
0.31811
20
1.4
11
0.317877
21
1.39258
0
LINE
8
BLACK
6
CONTINUOUS
10
0.317877
20
1.39258
11
0.316244
21
1.37908
0
LINE
8
BLACK
6
CONTINUOUS
10
0.316244
20
1.37908
11
0.313069
21
1.36586
0
LINE
8
BLACK
6
CONTINUOUS
10
0.313069
20
1.36586
11
0.308396
21
1.35309
0
LINE
8
BLACK
6
CONTINUOUS
10
0.308396
20
1.35309
11
0.302286
21
1.34094
0
LINE
8
BLACK
6
CONTINUOUS
10
0.302286
20
1.34094
11
0.294821
21
1.32958
0
LINE
8
BLACK
6
CONTINUOUS
10
0.294821
20
1.32958
11
0.286099
21
1.31915
0
LINE
8
BLACK
6
CONTINUOUS
10
0.286099
20
1.31915
11
0.276235
21
1.30979
0
LINE
8
BLACK
6
CONTINUOUS
10
0.276235
20
1.30979
11
0.265361
21
1.30162
0
LINE
8
BLACK
6
CONTINUOUS
10
0.265361
20
1.30162
11
0.253621
21
1.29476
0
LINE
8
BLACK
6
CONTINUOUS
10
0.253621
20
1.29476
11
0.24117
21
1.2893
0
LINE
8
BLACK
6
CONTINUOUS
10
0.24117
20
1.2893
11
0.228173
21
1.2853
0
LINE
8
BLACK
6
CONTINUOUS
10
0.228173
20
1.2853
11
0.214803
21
1.28282
0
LINE
8
BLACK
6
CONTINUOUS
10
0.214803
20
1.28282
11
0.201237
21
1.2819
0
LINE
8
BLACK
6
CONTINUOUS
10
0.201237
20
1.2819
11
0.187654
21
1.28254
0
LINE
8
BLACK
6
CONTINUOUS
10
0.187654
20
1.28254
11
0.174235
21
1.28473
0
LINE
8
BLACK
6
CONTINUOUS
10
0.174235
20
1.28473
11
0.161157
21
1.28846
0
LINE
8
BLACK
6
CONTINUOUS
10
0.161157
20
1.28846
11
0.148595
21
1.29366
0
LINE
8
BLACK
6
CONTINUOUS
10
0.148595
20
1.29366
11
0.136713
21
1.30028
0
LINE
8
BLACK
6
CONTINUOUS
10
0.136713
20
1.30028
11
0.125671
21
1.30821
0
LINE
8
BLACK
6
CONTINUOUS
10
0.125671
20
1.30821
11
0.115613
21
1.31736
0
LINE
8
BLACK
6
CONTINUOUS
10
0.115613
20
1.31736
11
0.106675
21
1.32761
0
LINE
8
BLACK
6
CONTINUOUS
10
0.106675
20
1.32761
11
0.0989727
21
1.33882
0
LINE
8
BLACK
6
CONTINUOUS
10
0.0989727
20
1.33882
11
0.0926099
21
1.35083
0
LINE
8
BLACK
6
CONTINUOUS
10
0.0926099
20
1.35083
11
0.0876705
21
1.3635
0
LINE
8
BLACK
6
CONTINUOUS
10
0.0876705
20
1.3635
11
0.0842199
21
1.37665
0
LINE
8
BLACK
6
CONTINUOUS
10
0.0842199
20
1.37665
11
0.082304
21
1.39012
0
LINE
8
BLACK
6
CONTINUOUS
10
0.082304
20
1.39012
11
0.081948
21
1.40371
0
LINE
8
BLACK
6
CONTINUOUS
10
0.081948
20
1.40371
11
0.0831568
21
1.41725
0
LINE
8
BLACK
6
CONTINUOUS
10
0.0831568
20
1.41725
11
0.0859143
21
1.43057
0
LINE
8
BLACK
6
CONTINUOUS
10
0.0859143
20
1.43057
11
0.0901839
21
1.44348
0
LINE
8
BLACK
6
CONTINUOUS
10
0.0901839
20
1.44348
11
0.0959091
21
1.45581
0
LINE
8
BLACK
6
CONTINUOUS
10
0.0959091
20
1.45581
11
0.103014
21
1.46741
0
LINE
8
BLACK
6
CONTINUOUS
10
0.103014
20
1.46741
11
0.111404
21
1.47811
0
LINE
8
BLACK
6
CONTINUOUS
10
0.111404
20
1.47811
11
0.120969
21
1.48777
0
LINE
8
BLACK
6
CONTINUOUS
10
0.120969
20
1.48777
11
0.131581
21
1.49627
0
LINE
8
BLACK
6
CONTINUOUS
10
0.131581
20
1.49627
11
0.1431
21
1.5035
0
LINE
8
BLACK
6
CONTINUOUS
10
0.1431
20
1.5035
11
0.155373
21
1.50935
0
LINE
8
BLACK
6
CONTINUOUS
10
0.155373
20
1.50935
11
0.168238
21
1.51376
0
LINE
8
BLACK
6
CONTINUOUS
10
0.168238
20
1.51376
11
0.181524
21
1.51666
0
LINE
8
BLACK
6
CONTINUOUS
10
0.181524
20
1.51666
11
0.195054
21
1.51801
0
LINE
8
BLACK
6
CONTINUOUS
10
0.195054
20
1.51801
11
0.20865
21
1.51779
0
LINE
8
BLACK
6
CONTINUOUS
10
0.60865
20
1.51779
11
0.622132
21
1.51602
0
LINE
8
BLACK
6
CONTINUOUS
10
0.622132
20
1.51602
11
0.63532
21
1.51271
0
LINE
8
BLACK
6
CONTINUOUS
10
0.63532
20
1.51271
11
0.64804
21
1.5079
0
LINE
8
BLACK
6
CONTINUOUS
10
0.64804
20
1.5079
11
0.660123
21
1.50166
0
LINE
8
BLACK
6
CONTINUOUS
10
0.660123
20
1.50166
11
0.671409
21
1.49408
0
LINE
8
BLACK
6
CONTINUOUS
10
0.671409
20
1.49408
11
0.681749
21
1.48525
0
LINE
8
BLACK
6
CONTINUOUS
10
0.681749
20
1.48525
11
0.691006
21
1.47529
0
LINE
8
BLACK
6
CONTINUOUS
10
0.691006
20
1.47529
11
0.699056
21
1.46433
0
LINE
8
BLACK
6
CONTINUOUS
10
0.699056
20
1.46433
11
0.705793
21
1.45252
0
LINE
8
BLACK
6
CONTINUOUS
10
0.705793
20
1.45252
11
0.711128
21
1.44001
0
LINE
8
BLACK
6
CONTINUOUS
10
0.711128
20
1.44001
11
0.71499
21
1.42697
0
LINE
8
BLACK
6
CONTINUOUS
10
0.71499
20
1.42697
11
0.717327
21
1.41358
0
LINE
8
BLACK
6
CONTINUOUS
10
0.717327
20
1.41358
11
0.71811
21
1.4
0
LINE
8
BLACK
6
CONTINUOUS
10
0.71811
20
1.4
11
0.717877
21
1.39258
0
LINE
8
BLACK
6
CONTINUOUS
10
0.717877
20
1.39258
11
0.716244
21
1.37908
0
LINE
8
BLACK
6
CONTINUOUS
10
0.716244
20
1.37908
11
0.713069
21
1.36586
0
LINE
8
BLACK
6
CONTINUOUS
10
0.713069
20
1.36586
11
0.708396
21
1.35309
0
LINE
8
BLACK
6
CONTINUOUS
10
0.708396
20
1.35309
11
0.702286
21
1.34094
0
LINE
8
BLACK
6
CONTINUOUS
10
0.702286
20
1.34094
11
0.694821
21
1.32958
0
LINE
8
BLACK
6
CONTINUOUS
10
0.694821
20
1.32958
11
0.686099
21
1.31915
0
LINE
8
BLACK
6
CONTINUOUS
10
0.686099
20
1.31915
11
0.676235
21
1.30979
0
LINE
8
BLACK
6
CONTINUOUS
10
0.676235
20
1.30979
11
0.665361
21
1.30162
0
LINE
8
BLACK
6
CONTINUOUS
10
0.665361
20
1.30162
11
0.653621
21
1.29476
0
LINE
8
BLACK
6
CONTINUOUS
10
0.653621
20
1.29476
11
0.64117
21
1.2893
0
LINE
8
BLACK
6
CONTINUOUS
10
0.64117
20
1.2893
11
0.628173
21
1.2853
0
LINE
8
BLACK
6
CONTINUOUS
10
0.628173
20
1.2853
11
0.614803
21
1.28282
0
LINE
8
BLACK
6
CONTINUOUS
10
0.614803
20
1.28282
11
0.601237
21
1.2819
0
LINE
8
BLACK
6
CONTINUOUS
10
0.601237
20
1.2819
11
0.587654
21
1.28254
0
LINE
8
BLACK
6
CONTINUOUS
10
0.587654
20
1.28254
11
0.574235
21
1.28473
0
LINE
8
BLACK
6
CONTINUOUS
10
0.574235
20
1.28473
11
0.561157
21
1.28846
0
LINE
8
BLACK
6
CONTINUOUS
10
0.561157
20
1.28846
11
0.548595
21
1.29366
0
LINE
8
BLACK
6
CONTINUOUS
10
0.548595
20
1.29366
11
0.536713
21
1.30028
0
LINE
8
BLACK
6
CONTINUOUS
10
0.536713
20
1.30028
11
0.525671
21
1.30821
0
LINE
8
BLACK
6
CONTINUOUS
10
0.525671
20
1.30821
11
0.515613
21
1.31736
0
LINE
8
BLACK
6
CONTINUOUS
10
0.515613
20
1.31736
11
0.506675
21
1.32761
0
LINE
8
BLACK
6
CONTINUOUS
10
0.506675
20
1.32761
11
0.498973
21
1.33882
0
LINE
8
BLACK
6
CONTINUOUS
10
0.498973
20
1.33882
11
0.49261
21
1.35083
0
LINE
8
BLACK
6
CONTINUOUS
10
0.49261
20
1.35083
11
0.48767
21
1.3635
0
LINE
8
BLACK
6
CONTINUOUS
10
0.48767
20
1.3635
11
0.48422
21
1.37665
0
LINE
8
BLACK
6
CONTINUOUS
10
0.48422
20
1.37665
11
0.482304
21
1.39012
0
LINE
8
BLACK
6
CONTINUOUS
10
0.482304
20
1.39012
11
0.481948
21
1.40371
0
LINE
8
BLACK
6
CONTINUOUS
10
0.481948
20
1.40371
11
0.483157
21
1.41725
0
LINE
8
BLACK
6
CONTINUOUS
10
0.483157
20
1.41725
11
0.485914
21
1.43057
0
LINE
8
BLACK
6
CONTINUOUS
10
0.485914
20
1.43057
11
0.490184
21
1.44348
0
LINE
8
BLACK
6
CONTINUOUS
10
0.490184
20
1.44348
11
0.495909
21
1.45581
0
LINE
8
BLACK
6
CONTINUOUS
10
0.495909
20
1.45581
11
0.503014
21
1.46741
0
LINE
8
BLACK
6
CONTINUOUS
10
0.503014
20
1.46741
11
0.511404
21
1.47811
0
LINE
8
BLACK
6
CONTINUOUS
10
0.511404
20
1.47811
11
0.520969
21
1.48777
0
LINE
8
BLACK
6
CONTINUOUS
10
0.520969
20
1.48777
11
0.531581
21
1.49627
0
LINE
8
BLACK
6
CONTINUOUS
10
0.531581
20
1.49627
11
0.5431
21
1.5035
0
LINE
8
BLACK
6
CONTINUOUS
10
0.5431
20
1.5035
11
0.555373
21
1.50935
0
LINE
8
BLACK
6
CONTINUOUS
10
0.555373
20
1.50935
11
0.568238
21
1.51376
0
LINE
8
BLACK
6
CONTINUOUS
10
0.568238
20
1.51376
11
0.581524
21
1.51666
0
LINE
8
BLACK
6
CONTINUOUS
10
0.581524
20
1.51666
11
0.595054
21
1.51801
0
LINE
8
BLACK
6
CONTINUOUS
10
0.595054
20
1.51801
11
0.60865
21
1.51779
0
LINE
8
BLACK
6
CONTINUOUS
10
0.75
20
0.47
11
0.69
21
0.47
0
LINE
8
BLACK
6
CONTINUOUS
10
0.69
20
0.47
11
0.69
21
0.53
0
LINE
8
BLACK
6
CONTINUOUS
10
0.69
20
0.53
11
0.75
21
0.53
0
LINE
8
BLACK
6
CONTINUOUS
10
0.75
20
0.53
11
0.75
21
0.47
0
LINE
8
BLACK
6
CONTINUOUS
10
0.20865
20
0.317793
11
0.222132
21
0.316018
0
LINE
8
BLACK
6
CONTINUOUS
10
0.222132
20
0.316018
11
0.23532
21
0.312706
0
LINE
8
BLACK
6
CONTINUOUS
10
0.23532
20
0.312706
11
0.24804
21
0.307899
0
LINE
8
BLACK
6
CONTINUOUS
10
0.24804
20
0.307899
11
0.260123
21
0.301662
0
LINE
8
BLACK
6
CONTINUOUS
10
0.260123
20
0.301662
11
0.271409
21
0.294078
0
LINE
8
BLACK
6
CONTINUOUS
10
0.271409
20
0.294078
11
0.281749
21
0.285247
0
LINE
8
BLACK
6
CONTINUOUS
10
0.281749
20
0.285247
11
0.291006
21
0.275286
0
LINE
8
BLACK
6
CONTINUOUS
10
0.291006
20
0.275286
11
0.299056
21
0.264327
0
LINE
8
BLACK
6
CONTINUOUS
10
0.299056
20
0.264327
11
0.305793
21
0.252516
0
LINE
8
BLACK
6
CONTINUOUS
10
0.305793
20
0.252516
11
0.311128
21
0.240008
0
LINE
8
BLACK
6
CONTINUOUS
10
0.311128
20
0.240008
11
0.31499
21
0.226971
0
LINE
8
BLACK
6
CONTINUOUS
10
0.31499
20
0.226971
11
0.317327
21
0.213575
0
LINE
8
BLACK
6
CONTINUOUS
10
0.317327
20
0.213575
11
0.31811
21
0.2
0
LINE
8
BLACK
6
CONTINUOUS
10
0.31811
20
0.2
11
0.317877
21
0.192584
0
LINE
8
BLACK
6
CONTINUOUS
10
0.317877
20
0.192584
11
0.316244
21
0.179084
0
LINE
8
BLACK
6
CONTINUOUS
10
0.316244
20
0.179084
11
0.313069
21
0.165862
0
LINE
8
BLACK
6
CONTINUOUS
10
0.313069
20
0.165862
11
0.308396
21
0.153093
0
LINE
8
BLACK
6
CONTINUOUS
10
0.308396
20
0.153093
11
0.302286
21
0.140945
0
LINE
8
BLACK
6
CONTINUOUS
10
0.302286
20
0.140945
11
0.294821
21
0.12958
0
LINE
8
BLACK
6
CONTINUOUS
10
0.294821
20
0.12958
11
0.286099
21
0.119148
0
LINE
8
BLACK
6
CONTINUOUS
10
0.286099
20
0.119148
11
0.276235
21
0.109788
0
LINE
8
BLACK
6
CONTINUOUS
10
0.276235
20
0.109788
11
0.265361
21
0.101623
0
LINE
8
BLACK
6
CONTINUOUS
10
0.265361
20
0.101623
11
0.253621
21
0.094763
0
LINE
8
BLACK
6
CONTINUOUS
10
0.253621
20
0.094763
11
0.24117
21
0.0892974
0
LINE
8
BLACK
6
CONTINUOUS
10
0.24117
20
0.0892974
11
0.228173
21
0.0852991
0
LINE
8
BLACK
6
CONTINUOUS
10
0.228173
20
0.0852991
11
0.214803
21
0.0828211
0
LINE
8
BLACK
6
CONTINUOUS
10
0.214803
20
0.0828211
11
0.201237
21
0.0818962
0
LINE
8
BLACK
6
CONTINUOUS
10
0.201237
20
0.0818962
11
0.187654
21
0.0825368
0
LINE
8
BLACK
6
CONTINUOUS
10
0.187654
20
0.0825368
11
0.174235
21
0.0847343
0
LINE
8
BLACK
6
CONTINUOUS
10
0.174235
20
0.0847343
11
0.161157
21
0.0884595
0
LINE
8
BLACK
6
CONTINUOUS
10
0.161157
20
0.0884595
11
0.148595
21
0.0936631
0
LINE
8
BLACK
6
CONTINUOUS
10
0.148595
20
0.0936631
11
0.136713
21
0.100276
0
LINE
8
BLACK
6
CONTINUOUS
10
0.136713
20
0.100276
11
0.125671
21
0.108211
0
LINE
8
BLACK
6
CONTINUOUS
10
0.125671
20
0.108211
11
0.115613
21
0.117363
0
LINE
8
BLACK
6
CONTINUOUS
10
0.115613
20
0.117363
11
0.106675
21
0.127609
0
LINE
8
BLACK
6
CONTINUOUS
10
0.106675
20
0.127609
11
0.0989727
21
0.138816
0
LINE
8
BLACK
6
CONTINUOUS
10
0.0989727
20
0.138816
11
0.0926099
21
0.150833
0
LINE
8
BLACK
6
CONTINUOUS
10
0.0926099
20
0.150833
11
0.0876705
21
0.163502
0
LINE
8
BLACK
6
CONTINUOUS
10
0.0876705
20
0.163502
11
0.0842199
21
0.176655
0
LINE
8
BLACK
6
CONTINUOUS
10
0.0842199
20
0.176655
11
0.082304
21
0.190117
0
LINE
8
BLACK
6
CONTINUOUS
10
0.082304
20
0.190117
11
0.081948
21
0.20371
0
LINE
8
BLACK
6
CONTINUOUS
10
0.081948
20
0.20371
11
0.0831568
21
0.217254
0
LINE
8
BLACK
6
CONTINUOUS
10
0.0831568
20
0.217254
11
0.0859143
21
0.230569
0
LINE
8
BLACK
6
CONTINUOUS
10
0.0859143
20
0.230569
11
0.0901839
21
0.243479
0
LINE
8
BLACK
6
CONTINUOUS
10
0.0901839
20
0.243479
11
0.0959091
21
0.255813
0
LINE
8
BLACK
6
CONTINUOUS
10
0.0959091
20
0.255813
11
0.103014
21
0.267407
0
LINE
8
BLACK
6
CONTINUOUS
10
0.103014
20
0.267407
11
0.111404
21
0.278108
0
LINE
8
BLACK
6
CONTINUOUS
10
0.111404
20
0.278108
11
0.120969
21
0.287773
0
LINE
8
BLACK
6
CONTINUOUS
10
0.120969
20
0.287773
11
0.131581
21
0.296275
0
LINE
8
BLACK
6
CONTINUOUS
10
0.131581
20
0.296275
11
0.1431
21
0.303501
0
LINE
8
BLACK
6
CONTINUOUS
10
0.1431
20
0.303501
11
0.155373
21
0.309355
0
LINE
8
BLACK
6
CONTINUOUS
10
0.155373
20
0.309355
11
0.168238
21
0.313759
0
LINE
8
BLACK
6
CONTINUOUS
10
0.168238
20
0.313759
11
0.181524
21
0.316656
0
LINE
8
BLACK
6
CONTINUOUS
10
0.181524
20
0.316656
11
0.195054
21
0.318007
0
LINE
8
BLACK
6
CONTINUOUS
10
0.195054
20
0.318007
11
0.20865
21
0.317793
0
LINE
8
BLACK
6
CONTINUOUS
10
0.65
20
0.47
11
0.59
21
0.47
0
LINE
8
BLACK
6
CONTINUOUS
10
0.59
20
0.47
11
0.59
21
0.53
0
LINE
8
BLACK
6
CONTINUOUS
10
0.59
20
0.53
11
0.65
21
0.53
0
LINE
8
BLACK
6
CONTINUOUS
10
0.65
20
0.53
11
0.65
21
0.47
0
LINE
8
BLACK
6
CONTINUOUS
10
0.75
20
0.57
11
0.69
21
0.57
0
LINE
8
BLACK
6
CONTINUOUS
10
0.69
20
0.57
11
0.69
21
0.63
0
LINE
8
BLACK
6
CONTINUOUS
10
0.69
20
0.63
11
0.75
21
0.63
0
LINE
8
BLACK
6
CONTINUOUS
10
0.75
20
0.63
11
0.75
21
0.57
0
LINE
8
BLACK
6
CONTINUOUS
10
0.13
20
0.955
11
0.07
21
0.955
0
LINE
8
BLACK
6
CONTINUOUS
10
0.07
20
0.955
11
0.07
21
1.015
0
LINE
8
BLACK
6
CONTINUOUS
10
0.07
20
1.015
11
0.13
21
1.015
0
LINE
8
BLACK
6
CONTINUOUS
10
0.13
20
1.015
11
0.13
21
0.955
0
LINE
8
BLACK
6
CONTINUOUS
10
0.65
20
0.57
11
0.59
21
0.57
0
LINE
8
BLACK
6
CONTINUOUS
10
0.59
20
0.57
11
0.59
21
0.63
0
LINE
8
BLACK
6
CONTINUOUS
10
0.59
20
0.63
11
0.65
21
0.63
0
LINE
8
BLACK
6
CONTINUOUS
10
0.65
20
0.63
11
0.65
21
0.57
0
LINE
8
BLACK
6
CONTINUOUS
10
0.75
20
1.035
11
0.69
21
1.035
0
LINE
8
BLACK
6
CONTINUOUS
10
0.69
20
1.035
11
0.69
21
1.095
0
LINE
8
BLACK
6
CONTINUOUS
10
0.69
20
1.095
11
0.75
21
1.095
0
LINE
8
BLACK
6
CONTINUOUS
10
0.75
20
1.095
11
0.75
21
1.035
0
LINE
8
BLACK
6
CONTINUOUS
10
0.65
20
1.035
11
0.59
21
1.035
0
LINE
8
BLACK
6
CONTINUOUS
10
0.59
20
1.035
11
0.59
21
1.095
0
LINE
8
BLACK
6
CONTINUOUS
10
0.59
20
1.095
11
0.65
21
1.095
0
LINE
8
BLACK
6
CONTINUOUS
10
0.65
20
1.095
11
0.65
21
1.035
0
CIRCLE
8
BLACK
10
0.055
20
0.53
40
0.00787402
0
CIRCLE
8
BLACK
10
0.11
20
0.53
40
0.00787402
0
CIRCLE
8
BLACK
10
0.465
20
0.71
40
0.00787402
0
CIRCLE
8
BLACK
10
0.195
20
1.05
40
0.00787402
0
CIRCLE
8
BLACK
10
0.665
20
0.77
40
0.00787402
0
CIRCLE
8
BLACK
10
0.19
20
0.495
40
0.00787402
0
CIRCLE
8
BLACK
10
0.355
20
0.775
40
0.00787402
0
CIRCLE
8
BLACK
10
0.315
20
0.81
40
0.00787402
0
CIRCLE
8
BLACK
10
0.19
20
0.445
40
0.00787402
0
CIRCLE
8
BLACK
10
0.725
20
0.77
40
0.00787402
0
CIRCLE
8
BLACK
10
0.365
20
0.67
40
0.00787402
0
CIRCLE
8
BLACK
10
0.5
20
1.165
40
0.00787402
0
CIRCLE
8
BLACK
10
0.165
20
0.885
40
0.00787402
0
CIRCLE
8
BLACK
10
0.19
20
0.4
40
0.00787402
0
CIRCLE
8
BLACK
10
0.355
20
0.72
40
0.00787402
0
CIRCLE
8
BLACK
10
0.55
20
1.165
40
0.00787402
0
CIRCLE
8
BLACK
10
0.725
20
0.895
40
0.00787402
0
CIRCLE
8
BLACK
10
0.25
20
1.05
40
0.00787402
0
CIRCLE
8
BLACK
10
0.395
20
0.71
40
0.00787402
0
CIRCLE
8
BLACK
10
0.265
20
0.81
40
0.00787402
0
CIRCLE
8
BLACK
10
0.055
20
0.585
40
0.00787402
0
CIRCLE
8
BLACK
10
0.62
20
0.895
40
0.00787402
0
CIRCLE
8
BLACK
10
0.615
20
0.77
40
0.00787402
0
CIRCLE
8
BLACK
10
0.19
20
1.13
40
0.00787402
0
CIRCLE
8
BLACK
10
0.67
20
0.895
40
0.00787402
0
CIRCLE
8
BLACK
10
0.155
20
0.53
40
0.00787402
  0
ENDSEC
  0
EOF
