  0
SECTION
  2
HEADER
  9
$ANGBASE
  50
0.0
  9
$ANGDIR
  70
1
  9
$MEASUREMENT
  70
0
  0
ENDSEC
  0
SECTION
  2
TABLES
  0
TABLE
  2
LTYPE
  70
4
  0
LTYPE
  5
40F
  2
CONTINUOUS
  70
0
  3
Solid line
  72
65
  73
0
  40
0.0
  0
LTYPE
  5
410
  2
DASHDOT
 70
0
  3
Dash Dot ____ _ ____ _
 72
65
 73
4
 40
2.0
 49
1.25
 49
-0.25
 49
0.25
 49
-0.25
  0
LTYPE
  5
411
  2
DASHED
 70
0
  3
Dashed __ __ __ __ __
 72
65
 73
2
 40
0.75
 49
0.5
 49
-0.25
  0
LTYPE
  5
43B
  2
DOTTED
 70
0
  3
Dotted .  .  .  .
 72
65
 73
2
 40
0.2
 49
0.0
 49
-0.2
  0
ENDTAB
  0
TABLE
  2
STYLE
  70
4
  0
STYLE
  2
KICAD
  70
0
  40
0
  41
1
  42
1
  50
0
  71
0
  3
isocp.shx
  0
STYLE
  2
KICADB
  70
0
  40
0
  41
1
  42
1
  50
0
  71
0
  3
isocp.shx
  0
STYLE
  2
KICADI
  70
0
  40
0
  41
1
  42
1
  50
15
  71
0
  3
isocp.shx
  0
STYLE
  2
KICADBI
  70
0
  40
0
  41
1
  42
1
  50
15
  71
0
  3
isocp.shx
  0
ENDTAB
  0
TABLE
  2
LAYER
  70
1
  0
LAYER
  2
BLACK
  70
0
  62
7
  6
CONTINUOUS
  0
ENDTAB
  0
ENDSEC
  0
SECTION
  2
ENTITIES
0
LINE
8
BLACK
6
CONTINUOUS
10
0.614917
20
0.325098
11
0.628769
21
0.322656
0
LINE
8
BLACK
6
CONTINUOUS
10
0.628769
20
0.322656
11
0.642262
21
0.318684
0
LINE
8
BLACK
6
CONTINUOUS
10
0.642262
20
0.318684
11
0.655228
21
0.313234
0
LINE
8
BLACK
6
CONTINUOUS
10
0.655228
20
0.313234
11
0.667506
21
0.306372
0
LINE
8
BLACK
6
CONTINUOUS
10
0.667506
20
0.306372
11
0.678942
21
0.298184
0
LINE
8
BLACK
6
CONTINUOUS
10
0.678942
20
0.298184
11
0.689395
21
0.288773
0
LINE
8
BLACK
6
CONTINUOUS
10
0.689395
20
0.288773
11
0.698733
21
0.278255
0
LINE
8
BLACK
6
CONTINUOUS
10
0.698733
20
0.278255
11
0.706841
21
0.266761
0
LINE
8
BLACK
6
CONTINUOUS
10
0.706841
20
0.266761
11
0.713617
21
0.254436
0
LINE
8
BLACK
6
CONTINUOUS
10
0.713617
20
0.254436
11
0.718977
21
0.241432
0
LINE
8
BLACK
6
CONTINUOUS
10
0.718977
20
0.241432
11
0.722853
21
0.227912
0
LINE
8
BLACK
6
CONTINUOUS
10
0.722853
20
0.227912
11
0.725199
21
0.214043
0
LINE
8
BLACK
6
CONTINUOUS
10
0.725199
20
0.214043
11
0.725984
21
0.2
0
LINE
8
BLACK
6
CONTINUOUS
10
0.725984
20
0.2
11
0.725935
21
0.196482
0
LINE
8
BLACK
6
CONTINUOUS
10
0.725935
20
0.196482
11
0.724758
21
0.182466
0
LINE
8
BLACK
6
CONTINUOUS
10
0.724758
20
0.182466
11
0.722026
21
0.168669
0
LINE
8
BLACK
6
CONTINUOUS
10
0.722026
20
0.168669
11
0.717773
21
0.155262
0
LINE
8
BLACK
6
CONTINUOUS
10
0.717773
20
0.155262
11
0.712052
21
0.142413
0
LINE
8
BLACK
6
CONTINUOUS
10
0.712052
20
0.142413
11
0.704935
21
0.130281
0
LINE
8
BLACK
6
CONTINUOUS
10
0.704935
20
0.130281
11
0.69651
21
0.119019
0
LINE
8
BLACK
6
CONTINUOUS
10
0.69651
20
0.119019
11
0.686881
21
0.108766
0
LINE
8
BLACK
6
CONTINUOUS
10
0.686881
20
0.108766
11
0.67617
21
0.0996498
0
LINE
8
BLACK
6
CONTINUOUS
10
0.67617
20
0.0996498
11
0.664509
21
0.0917846
0
LINE
8
BLACK
6
CONTINUOUS
10
0.664509
20
0.0917846
11
0.652045
21
0.0852682
0
LINE
8
BLACK
6
CONTINUOUS
10
0.652045
20
0.0852682
11
0.638931
21
0.0801819
0
LINE
8
BLACK
6
CONTINUOUS
10
0.638931
20
0.0801819
11
0.625333
21
0.0765889
0
LINE
8
BLACK
6
CONTINUOUS
10
0.625333
20
0.0765889
11
0.611418
21
0.0745343
0
LINE
8
BLACK
6
CONTINUOUS
10
0.611418
20
0.0745343
11
0.597362
21
0.0740434
0
LINE
8
BLACK
6
CONTINUOUS
10
0.597362
20
0.0740434
11
0.583338
21
0.0751224
0
LINE
8
BLACK
6
CONTINUOUS
10
0.583338
20
0.0751224
11
0.569522
21
0.077758
0
LINE
8
BLACK
6
CONTINUOUS
10
0.569522
20
0.077758
11
0.556085
21
0.0819172
0
LINE
8
BLACK
6
CONTINUOUS
10
0.556085
20
0.0819172
11
0.543197
21
0.0875482
0
LINE
8
BLACK
6
CONTINUOUS
10
0.543197
20
0.0875482
11
0.531016
21
0.0945809
0
LINE
8
BLACK
6
CONTINUOUS
10
0.531016
20
0.0945809
11
0.519695
21
0.102927
0
LINE
8
BLACK
6
CONTINUOUS
10
0.519695
20
0.102927
11
0.509375
21
0.112484
0
LINE
8
BLACK
6
CONTINUOUS
10
0.509375
20
0.112484
11
0.500184
21
0.123131
0
LINE
8
BLACK
6
CONTINUOUS
10
0.500184
20
0.123131
11
0.492238
21
0.134737
0
LINE
8
BLACK
6
CONTINUOUS
10
0.492238
20
0.134737
11
0.485634
21
0.147156
0
LINE
8
BLACK
6
CONTINUOUS
10
0.485634
20
0.147156
11
0.480457
21
0.160233
0
LINE
8
BLACK
6
CONTINUOUS
10
0.480457
20
0.160233
11
0.476769
21
0.173806
0
LINE
8
BLACK
6
CONTINUOUS
10
0.476769
20
0.173806
11
0.474617
21
0.187706
0
LINE
8
BLACK
6
CONTINUOUS
10
0.474617
20
0.187706
11
0.474028
21
0.201759
0
LINE
8
BLACK
6
CONTINUOUS
10
0.474028
20
0.201759
11
0.475009
21
0.21579
0
LINE
8
BLACK
6
CONTINUOUS
10
0.475009
20
0.21579
11
0.477548
21
0.229624
0
LINE
8
BLACK
6
CONTINUOUS
10
0.477548
20
0.229624
11
0.481614
21
0.243089
0
LINE
8
BLACK
6
CONTINUOUS
10
0.481614
20
0.243089
11
0.487154
21
0.256017
0
LINE
8
BLACK
6
CONTINUOUS
10
0.487154
20
0.256017
11
0.494102
21
0.268247
0
LINE
8
BLACK
6
CONTINUOUS
10
0.494102
20
0.268247
11
0.502369
21
0.279626
0
LINE
8
BLACK
6
CONTINUOUS
10
0.502369
20
0.279626
11
0.511853
21
0.290012
0
LINE
8
BLACK
6
CONTINUOUS
10
0.511853
20
0.290012
11
0.522436
21
0.299277
0
LINE
8
BLACK
6
CONTINUOUS
10
0.522436
20
0.299277
11
0.533986
21
0.307304
0
LINE
8
BLACK
6
CONTINUOUS
10
0.533986
20
0.307304
11
0.546359
21
0.313994
0
LINE
8
BLACK
6
CONTINUOUS
10
0.546359
20
0.313994
11
0.5594
21
0.319263
0
LINE
8
BLACK
6
CONTINUOUS
10
0.5594
20
0.319263
11
0.572947
21
0.323045
0
LINE
8
BLACK
6
CONTINUOUS
10
0.572947
20
0.323045
11
0.586831
21
0.325294
0
LINE
8
BLACK
6
CONTINUOUS
10
0.586831
20
0.325294
11
0.60088
21
0.325981
0
LINE
8
BLACK
6
CONTINUOUS
10
0.60088
20
0.325981
11
0.614917
21
0.325098
0
LINE
8
BLACK
6
CONTINUOUS
10
0.214917
20
0.325098
11
0.228769
21
0.322656
0
LINE
8
BLACK
6
CONTINUOUS
10
0.228769
20
0.322656
11
0.242262
21
0.318684
0
LINE
8
BLACK
6
CONTINUOUS
10
0.242262
20
0.318684
11
0.255228
21
0.313234
0
LINE
8
BLACK
6
CONTINUOUS
10
0.255228
20
0.313234
11
0.267506
21
0.306372
0
LINE
8
BLACK
6
CONTINUOUS
10
0.267506
20
0.306372
11
0.278942
21
0.298184
0
LINE
8
BLACK
6
CONTINUOUS
10
0.278942
20
0.298184
11
0.289395
21
0.288773
0
LINE
8
BLACK
6
CONTINUOUS
10
0.289395
20
0.288773
11
0.298733
21
0.278255
0
LINE
8
BLACK
6
CONTINUOUS
10
0.298733
20
0.278255
11
0.306841
21
0.266761
0
LINE
8
BLACK
6
CONTINUOUS
10
0.306841
20
0.266761
11
0.313617
21
0.254436
0
LINE
8
BLACK
6
CONTINUOUS
10
0.313617
20
0.254436
11
0.318977
21
0.241432
0
LINE
8
BLACK
6
CONTINUOUS
10
0.318977
20
0.241432
11
0.322853
21
0.227912
0
LINE
8
BLACK
6
CONTINUOUS
10
0.322853
20
0.227912
11
0.325199
21
0.214043
0
LINE
8
BLACK
6
CONTINUOUS
10
0.325199
20
0.214043
11
0.325984
21
0.2
0
LINE
8
BLACK
6
CONTINUOUS
10
0.325984
20
0.2
11
0.325935
21
0.196482
0
LINE
8
BLACK
6
CONTINUOUS
10
0.325935
20
0.196482
11
0.324758
21
0.182466
0
LINE
8
BLACK
6
CONTINUOUS
10
0.324758
20
0.182466
11
0.322026
21
0.168669
0
LINE
8
BLACK
6
CONTINUOUS
10
0.322026
20
0.168669
11
0.317773
21
0.155262
0
LINE
8
BLACK
6
CONTINUOUS
10
0.317773
20
0.155262
11
0.312052
21
0.142413
0
LINE
8
BLACK
6
CONTINUOUS
10
0.312052
20
0.142413
11
0.304935
21
0.130281
0
LINE
8
BLACK
6
CONTINUOUS
10
0.304935
20
0.130281
11
0.29651
21
0.119019
0
LINE
8
BLACK
6
CONTINUOUS
10
0.29651
20
0.119019
11
0.286881
21
0.108766
0
LINE
8
BLACK
6
CONTINUOUS
10
0.286881
20
0.108766
11
0.27617
21
0.0996498
0
LINE
8
BLACK
6
CONTINUOUS
10
0.27617
20
0.0996498
11
0.264509
21
0.0917846
0
LINE
8
BLACK
6
CONTINUOUS
10
0.264509
20
0.0917846
11
0.252045
21
0.0852682
0
LINE
8
BLACK
6
CONTINUOUS
10
0.252045
20
0.0852682
11
0.238931
21
0.0801819
0
LINE
8
BLACK
6
CONTINUOUS
10
0.238931
20
0.0801819
11
0.225333
21
0.0765889
0
LINE
8
BLACK
6
CONTINUOUS
10
0.225333
20
0.0765889
11
0.211418
21
0.0745343
0
LINE
8
BLACK
6
CONTINUOUS
10
0.211418
20
0.0745343
11
0.197362
21
0.0740434
0
LINE
8
BLACK
6
CONTINUOUS
10
0.197362
20
0.0740434
11
0.183338
21
0.0751224
0
LINE
8
BLACK
6
CONTINUOUS
10
0.183338
20
0.0751224
11
0.169522
21
0.077758
0
LINE
8
BLACK
6
CONTINUOUS
10
0.169522
20
0.077758
11
0.156085
21
0.0819172
0
LINE
8
BLACK
6
CONTINUOUS
10
0.156085
20
0.0819172
11
0.143197
21
0.0875482
0
LINE
8
BLACK
6
CONTINUOUS
10
0.143197
20
0.0875482
11
0.131016
21
0.0945809
0
LINE
8
BLACK
6
CONTINUOUS
10
0.131016
20
0.0945809
11
0.119695
21
0.102927
0
LINE
8
BLACK
6
CONTINUOUS
10
0.119695
20
0.102927
11
0.109375
21
0.112484
0
LINE
8
BLACK
6
CONTINUOUS
10
0.109375
20
0.112484
11
0.100184
21
0.123131
0
LINE
8
BLACK
6
CONTINUOUS
10
0.100184
20
0.123131
11
0.0922376
21
0.134737
0
LINE
8
BLACK
6
CONTINUOUS
10
0.0922376
20
0.134737
11
0.0856343
21
0.147156
0
LINE
8
BLACK
6
CONTINUOUS
10
0.0856343
20
0.147156
11
0.0804566
21
0.160233
0
LINE
8
BLACK
6
CONTINUOUS
10
0.0804566
20
0.160233
11
0.0767688
21
0.173806
0
LINE
8
BLACK
6
CONTINUOUS
10
0.0767688
20
0.173806
11
0.074617
21
0.187706
0
LINE
8
BLACK
6
CONTINUOUS
10
0.074617
20
0.187706
11
0.074028
21
0.201759
0
LINE
8
BLACK
6
CONTINUOUS
10
0.074028
20
0.201759
11
0.0750092
21
0.21579
0
LINE
8
BLACK
6
CONTINUOUS
10
0.0750092
20
0.21579
11
0.0775482
21
0.229624
0
LINE
8
BLACK
6
CONTINUOUS
10
0.0775482
20
0.229624
11
0.0816135
21
0.243089
0
LINE
8
BLACK
6
CONTINUOUS
10
0.0816135
20
0.243089
11
0.0871544
21
0.256017
0
LINE
8
BLACK
6
CONTINUOUS
10
0.0871544
20
0.256017
11
0.0941019
21
0.268247
0
LINE
8
BLACK
6
CONTINUOUS
10
0.0941019
20
0.268247
11
0.102369
21
0.279626
0
LINE
8
BLACK
6
CONTINUOUS
10
0.102369
20
0.279626
11
0.111853
21
0.290012
0
LINE
8
BLACK
6
CONTINUOUS
10
0.111853
20
0.290012
11
0.122436
21
0.299277
0
LINE
8
BLACK
6
CONTINUOUS
10
0.122436
20
0.299277
11
0.133986
21
0.307304
0
LINE
8
BLACK
6
CONTINUOUS
10
0.133986
20
0.307304
11
0.146359
21
0.313994
0
LINE
8
BLACK
6
CONTINUOUS
10
0.146359
20
0.313994
11
0.1594
21
0.319263
0
LINE
8
BLACK
6
CONTINUOUS
10
0.1594
20
0.319263
11
0.172947
21
0.323045
0
LINE
8
BLACK
6
CONTINUOUS
10
0.172947
20
0.323045
11
0.186831
21
0.325294
0
LINE
8
BLACK
6
CONTINUOUS
10
0.186831
20
0.325294
11
0.20088
21
0.325981
0
LINE
8
BLACK
6
CONTINUOUS
10
0.20088
20
0.325981
11
0.214917
21
0.325098
0
LINE
8
BLACK
6
CONTINUOUS
10
0.753013
20
0.437275
11
0.755568
21
0.435568
0
LINE
8
BLACK
6
CONTINUOUS
10
0.755568
20
0.435568
11
0.757275
21
0.433013
0
LINE
8
BLACK
6
CONTINUOUS
10
0.757275
20
0.433013
11
0.757874
21
0.43
0
LINE
8
BLACK
6
CONTINUOUS
10
0.757874
20
0.43
11
0.757874
21
0.37
0
LINE
8
BLACK
6
CONTINUOUS
10
0.757874
20
0.37
11
0.757275
21
0.366987
0
LINE
8
BLACK
6
CONTINUOUS
10
0.757275
20
0.366987
11
0.755568
21
0.364432
0
LINE
8
BLACK
6
CONTINUOUS
10
0.755568
20
0.364432
11
0.753013
21
0.362725
0
LINE
8
BLACK
6
CONTINUOUS
10
0.753013
20
0.362725
11
0.75
21
0.362126
0
LINE
8
BLACK
6
CONTINUOUS
10
0.75
20
0.362126
11
0.69
21
0.362126
0
LINE
8
BLACK
6
CONTINUOUS
10
0.69
20
0.362126
11
0.686987
21
0.362725
0
LINE
8
BLACK
6
CONTINUOUS
10
0.686987
20
0.362725
11
0.684432
21
0.364432
0
LINE
8
BLACK
6
CONTINUOUS
10
0.684432
20
0.364432
11
0.682725
21
0.366987
0
LINE
8
BLACK
6
CONTINUOUS
10
0.682725
20
0.366987
11
0.682126
21
0.37
0
LINE
8
BLACK
6
CONTINUOUS
10
0.682126
20
0.37
11
0.682126
21
0.43
0
LINE
8
BLACK
6
CONTINUOUS
10
0.682126
20
0.43
11
0.682725
21
0.433013
0
LINE
8
BLACK
6
CONTINUOUS
10
0.682725
20
0.433013
11
0.684432
21
0.435568
0
LINE
8
BLACK
6
CONTINUOUS
10
0.684432
20
0.435568
11
0.686987
21
0.437275
0
LINE
8
BLACK
6
CONTINUOUS
10
0.686987
20
0.437275
11
0.69
21
0.437874
0
LINE
8
BLACK
6
CONTINUOUS
10
0.69
20
0.437874
11
0.75
21
0.437874
0
LINE
8
BLACK
6
CONTINUOUS
10
0.75
20
0.437874
11
0.753013
21
0.437275
0
LINE
8
BLACK
6
CONTINUOUS
10
0.653013
20
0.437275
11
0.655568
21
0.435568
0
LINE
8
BLACK
6
CONTINUOUS
10
0.655568
20
0.435568
11
0.657275
21
0.433013
0
LINE
8
BLACK
6
CONTINUOUS
10
0.657275
20
0.433013
11
0.657874
21
0.43
0
LINE
8
BLACK
6
CONTINUOUS
10
0.657874
20
0.43
11
0.657874
21
0.37
0
LINE
8
BLACK
6
CONTINUOUS
10
0.657874
20
0.37
11
0.657275
21
0.366987
0
LINE
8
BLACK
6
CONTINUOUS
10
0.657275
20
0.366987
11
0.655568
21
0.364432
0
LINE
8
BLACK
6
CONTINUOUS
10
0.655568
20
0.364432
11
0.653013
21
0.362725
0
LINE
8
BLACK
6
CONTINUOUS
10
0.653013
20
0.362725
11
0.65
21
0.362126
0
LINE
8
BLACK
6
CONTINUOUS
10
0.65
20
0.362126
11
0.59
21
0.362126
0
LINE
8
BLACK
6
CONTINUOUS
10
0.59
20
0.362126
11
0.586987
21
0.362725
0
LINE
8
BLACK
6
CONTINUOUS
10
0.586987
20
0.362725
11
0.584432
21
0.364432
0
LINE
8
BLACK
6
CONTINUOUS
10
0.584432
20
0.364432
11
0.582725
21
0.366987
0
LINE
8
BLACK
6
CONTINUOUS
10
0.582725
20
0.366987
11
0.582126
21
0.37
0
LINE
8
BLACK
6
CONTINUOUS
10
0.582126
20
0.37
11
0.582126
21
0.43
0
LINE
8
BLACK
6
CONTINUOUS
10
0.582126
20
0.43
11
0.582725
21
0.433013
0
LINE
8
BLACK
6
CONTINUOUS
10
0.582725
20
0.433013
11
0.584432
21
0.435568
0
LINE
8
BLACK
6
CONTINUOUS
10
0.584432
20
0.435568
11
0.586987
21
0.437275
0
LINE
8
BLACK
6
CONTINUOUS
10
0.586987
20
0.437275
11
0.59
21
0.437874
0
LINE
8
BLACK
6
CONTINUOUS
10
0.59
20
0.437874
11
0.65
21
0.437874
0
LINE
8
BLACK
6
CONTINUOUS
10
0.65
20
0.437874
11
0.653013
21
0.437275
0
LINE
8
BLACK
6
CONTINUOUS
10
0.653013
20
0.537275
11
0.655568
21
0.535568
0
LINE
8
BLACK
6
CONTINUOUS
10
0.655568
20
0.535568
11
0.657275
21
0.533013
0
LINE
8
BLACK
6
CONTINUOUS
10
0.657275
20
0.533013
11
0.657874
21
0.53
0
LINE
8
BLACK
6
CONTINUOUS
10
0.657874
20
0.53
11
0.657874
21
0.47
0
LINE
8
BLACK
6
CONTINUOUS
10
0.657874
20
0.47
11
0.657275
21
0.466987
0
LINE
8
BLACK
6
CONTINUOUS
10
0.657275
20
0.466987
11
0.655568
21
0.464432
0
LINE
8
BLACK
6
CONTINUOUS
10
0.655568
20
0.464432
11
0.653013
21
0.462725
0
LINE
8
BLACK
6
CONTINUOUS
10
0.653013
20
0.462725
11
0.65
21
0.462126
0
LINE
8
BLACK
6
CONTINUOUS
10
0.65
20
0.462126
11
0.59
21
0.462126
0
LINE
8
BLACK
6
CONTINUOUS
10
0.59
20
0.462126
11
0.586987
21
0.462725
0
LINE
8
BLACK
6
CONTINUOUS
10
0.586987
20
0.462725
11
0.584432
21
0.464432
0
LINE
8
BLACK
6
CONTINUOUS
10
0.584432
20
0.464432
11
0.582725
21
0.466987
0
LINE
8
BLACK
6
CONTINUOUS
10
0.582725
20
0.466987
11
0.582126
21
0.47
0
LINE
8
BLACK
6
CONTINUOUS
10
0.582126
20
0.47
11
0.582126
21
0.53
0
LINE
8
BLACK
6
CONTINUOUS
10
0.582126
20
0.53
11
0.582725
21
0.533013
0
LINE
8
BLACK
6
CONTINUOUS
10
0.582725
20
0.533013
11
0.584432
21
0.535568
0
LINE
8
BLACK
6
CONTINUOUS
10
0.584432
20
0.535568
11
0.586987
21
0.537275
0
LINE
8
BLACK
6
CONTINUOUS
10
0.586987
20
0.537275
11
0.59
21
0.537874
0
LINE
8
BLACK
6
CONTINUOUS
10
0.59
20
0.537874
11
0.65
21
0.537874
0
LINE
8
BLACK
6
CONTINUOUS
10
0.65
20
0.537874
11
0.653013
21
0.537275
0
LINE
8
BLACK
6
CONTINUOUS
10
0.753013
20
0.537275
11
0.755568
21
0.535568
0
LINE
8
BLACK
6
CONTINUOUS
10
0.755568
20
0.535568
11
0.757275
21
0.533013
0
LINE
8
BLACK
6
CONTINUOUS
10
0.757275
20
0.533013
11
0.757874
21
0.53
0
LINE
8
BLACK
6
CONTINUOUS
10
0.757874
20
0.53
11
0.757874
21
0.47
0
LINE
8
BLACK
6
CONTINUOUS
10
0.757874
20
0.47
11
0.757275
21
0.466987
0
LINE
8
BLACK
6
CONTINUOUS
10
0.757275
20
0.466987
11
0.755568
21
0.464432
0
LINE
8
BLACK
6
CONTINUOUS
10
0.755568
20
0.464432
11
0.753013
21
0.462725
0
LINE
8
BLACK
6
CONTINUOUS
10
0.753013
20
0.462725
11
0.75
21
0.462126
0
LINE
8
BLACK
6
CONTINUOUS
10
0.75
20
0.462126
11
0.69
21
0.462126
0
LINE
8
BLACK
6
CONTINUOUS
10
0.69
20
0.462126
11
0.686987
21
0.462725
0
LINE
8
BLACK
6
CONTINUOUS
10
0.686987
20
0.462725
11
0.684432
21
0.464432
0
LINE
8
BLACK
6
CONTINUOUS
10
0.684432
20
0.464432
11
0.682725
21
0.466987
0
LINE
8
BLACK
6
CONTINUOUS
10
0.682725
20
0.466987
11
0.682126
21
0.47
0
LINE
8
BLACK
6
CONTINUOUS
10
0.682126
20
0.47
11
0.682126
21
0.53
0
LINE
8
BLACK
6
CONTINUOUS
10
0.682126
20
0.53
11
0.682725
21
0.533013
0
LINE
8
BLACK
6
CONTINUOUS
10
0.682725
20
0.533013
11
0.684432
21
0.535568
0
LINE
8
BLACK
6
CONTINUOUS
10
0.684432
20
0.535568
11
0.686987
21
0.537275
0
LINE
8
BLACK
6
CONTINUOUS
10
0.686987
20
0.537275
11
0.69
21
0.537874
0
LINE
8
BLACK
6
CONTINUOUS
10
0.69
20
0.537874
11
0.75
21
0.537874
0
LINE
8
BLACK
6
CONTINUOUS
10
0.75
20
0.537874
11
0.753013
21
0.537275
0
LINE
8
BLACK
6
CONTINUOUS
10
0.653013
20
0.637275
11
0.655568
21
0.635568
0
LINE
8
BLACK
6
CONTINUOUS
10
0.655568
20
0.635568
11
0.657275
21
0.633013
0
LINE
8
BLACK
6
CONTINUOUS
10
0.657275
20
0.633013
11
0.657874
21
0.63
0
LINE
8
BLACK
6
CONTINUOUS
10
0.657874
20
0.63
11
0.657874
21
0.57
0
LINE
8
BLACK
6
CONTINUOUS
10
0.657874
20
0.57
11
0.657275
21
0.566987
0
LINE
8
BLACK
6
CONTINUOUS
10
0.657275
20
0.566987
11
0.655568
21
0.564432
0
LINE
8
BLACK
6
CONTINUOUS
10
0.655568
20
0.564432
11
0.653013
21
0.562725
0
LINE
8
BLACK
6
CONTINUOUS
10
0.653013
20
0.562725
11
0.65
21
0.562126
0
LINE
8
BLACK
6
CONTINUOUS
10
0.65
20
0.562126
11
0.59
21
0.562126
0
LINE
8
BLACK
6
CONTINUOUS
10
0.59
20
0.562126
11
0.586987
21
0.562725
0
LINE
8
BLACK
6
CONTINUOUS
10
0.586987
20
0.562725
11
0.584432
21
0.564432
0
LINE
8
BLACK
6
CONTINUOUS
10
0.584432
20
0.564432
11
0.582725
21
0.566987
0
LINE
8
BLACK
6
CONTINUOUS
10
0.582725
20
0.566987
11
0.582126
21
0.57
0
LINE
8
BLACK
6
CONTINUOUS
10
0.582126
20
0.57
11
0.582126
21
0.63
0
LINE
8
BLACK
6
CONTINUOUS
10
0.582126
20
0.63
11
0.582725
21
0.633013
0
LINE
8
BLACK
6
CONTINUOUS
10
0.582725
20
0.633013
11
0.584432
21
0.635568
0
LINE
8
BLACK
6
CONTINUOUS
10
0.584432
20
0.635568
11
0.586987
21
0.637275
0
LINE
8
BLACK
6
CONTINUOUS
10
0.586987
20
0.637275
11
0.59
21
0.637874
0
LINE
8
BLACK
6
CONTINUOUS
10
0.59
20
0.637874
11
0.65
21
0.637874
0
LINE
8
BLACK
6
CONTINUOUS
10
0.65
20
0.637874
11
0.653013
21
0.637275
0
LINE
8
BLACK
6
CONTINUOUS
10
0.753013
20
0.637275
11
0.755568
21
0.635568
0
LINE
8
BLACK
6
CONTINUOUS
10
0.755568
20
0.635568
11
0.757275
21
0.633013
0
LINE
8
BLACK
6
CONTINUOUS
10
0.757275
20
0.633013
11
0.757874
21
0.63
0
LINE
8
BLACK
6
CONTINUOUS
10
0.757874
20
0.63
11
0.757874
21
0.57
0
LINE
8
BLACK
6
CONTINUOUS
10
0.757874
20
0.57
11
0.757275
21
0.566987
0
LINE
8
BLACK
6
CONTINUOUS
10
0.757275
20
0.566987
11
0.755568
21
0.564432
0
LINE
8
BLACK
6
CONTINUOUS
10
0.755568
20
0.564432
11
0.753013
21
0.562725
0
LINE
8
BLACK
6
CONTINUOUS
10
0.753013
20
0.562725
11
0.75
21
0.562126
0
LINE
8
BLACK
6
CONTINUOUS
10
0.75
20
0.562126
11
0.69
21
0.562126
0
LINE
8
BLACK
6
CONTINUOUS
10
0.69
20
0.562126
11
0.686987
21
0.562725
0
LINE
8
BLACK
6
CONTINUOUS
10
0.686987
20
0.562725
11
0.684432
21
0.564432
0
LINE
8
BLACK
6
CONTINUOUS
10
0.684432
20
0.564432
11
0.682725
21
0.566987
0
LINE
8
BLACK
6
CONTINUOUS
10
0.682725
20
0.566987
11
0.682126
21
0.57
0
LINE
8
BLACK
6
CONTINUOUS
10
0.682126
20
0.57
11
0.682126
21
0.63
0
LINE
8
BLACK
6
CONTINUOUS
10
0.682126
20
0.63
11
0.682725
21
0.633013
0
LINE
8
BLACK
6
CONTINUOUS
10
0.682725
20
0.633013
11
0.684432
21
0.635568
0
LINE
8
BLACK
6
CONTINUOUS
10
0.684432
20
0.635568
11
0.686987
21
0.637275
0
LINE
8
BLACK
6
CONTINUOUS
10
0.686987
20
0.637275
11
0.69
21
0.637874
0
LINE
8
BLACK
6
CONTINUOUS
10
0.69
20
0.637874
11
0.75
21
0.637874
0
LINE
8
BLACK
6
CONTINUOUS
10
0.75
20
0.637874
11
0.753013
21
0.637275
0
LINE
8
BLACK
6
CONTINUOUS
10
0.653013
20
0.737275
11
0.655568
21
0.735568
0
LINE
8
BLACK
6
CONTINUOUS
10
0.655568
20
0.735568
11
0.657275
21
0.733013
0
LINE
8
BLACK
6
CONTINUOUS
10
0.657275
20
0.733013
11
0.657874
21
0.73
0
LINE
8
BLACK
6
CONTINUOUS
10
0.657874
20
0.73
11
0.657874
21
0.67
0
LINE
8
BLACK
6
CONTINUOUS
10
0.657874
20
0.67
11
0.657275
21
0.666987
0
LINE
8
BLACK
6
CONTINUOUS
10
0.657275
20
0.666987
11
0.655568
21
0.664432
0
LINE
8
BLACK
6
CONTINUOUS
10
0.655568
20
0.664432
11
0.653013
21
0.662725
0
LINE
8
BLACK
6
CONTINUOUS
10
0.653013
20
0.662725
11
0.65
21
0.662126
0
LINE
8
BLACK
6
CONTINUOUS
10
0.65
20
0.662126
11
0.59
21
0.662126
0
LINE
8
BLACK
6
CONTINUOUS
10
0.59
20
0.662126
11
0.586987
21
0.662725
0
LINE
8
BLACK
6
CONTINUOUS
10
0.586987
20
0.662725
11
0.584432
21
0.664432
0
LINE
8
BLACK
6
CONTINUOUS
10
0.584432
20
0.664432
11
0.582725
21
0.666987
0
LINE
8
BLACK
6
CONTINUOUS
10
0.582725
20
0.666987
11
0.582126
21
0.67
0
LINE
8
BLACK
6
CONTINUOUS
10
0.582126
20
0.67
11
0.582126
21
0.73
0
LINE
8
BLACK
6
CONTINUOUS
10
0.582126
20
0.73
11
0.582725
21
0.733013
0
LINE
8
BLACK
6
CONTINUOUS
10
0.582725
20
0.733013
11
0.584432
21
0.735568
0
LINE
8
BLACK
6
CONTINUOUS
10
0.584432
20
0.735568
11
0.586987
21
0.737275
0
LINE
8
BLACK
6
CONTINUOUS
10
0.586987
20
0.737275
11
0.59
21
0.737874
0
LINE
8
BLACK
6
CONTINUOUS
10
0.59
20
0.737874
11
0.65
21
0.737874
0
LINE
8
BLACK
6
CONTINUOUS
10
0.65
20
0.737874
11
0.653013
21
0.737275
0
LINE
8
BLACK
6
CONTINUOUS
10
0.753013
20
0.737275
11
0.755568
21
0.735568
0
LINE
8
BLACK
6
CONTINUOUS
10
0.755568
20
0.735568
11
0.757275
21
0.733013
0
LINE
8
BLACK
6
CONTINUOUS
10
0.757275
20
0.733013
11
0.757874
21
0.73
0
LINE
8
BLACK
6
CONTINUOUS
10
0.757874
20
0.73
11
0.757874
21
0.67
0
LINE
8
BLACK
6
CONTINUOUS
10
0.757874
20
0.67
11
0.757275
21
0.666987
0
LINE
8
BLACK
6
CONTINUOUS
10
0.757275
20
0.666987
11
0.755568
21
0.664432
0
LINE
8
BLACK
6
CONTINUOUS
10
0.755568
20
0.664432
11
0.753013
21
0.662725
0
LINE
8
BLACK
6
CONTINUOUS
10
0.753013
20
0.662725
11
0.75
21
0.662126
0
LINE
8
BLACK
6
CONTINUOUS
10
0.75
20
0.662126
11
0.69
21
0.662126
0
LINE
8
BLACK
6
CONTINUOUS
10
0.69
20
0.662126
11
0.686987
21
0.662725
0
LINE
8
BLACK
6
CONTINUOUS
10
0.686987
20
0.662725
11
0.684432
21
0.664432
0
LINE
8
BLACK
6
CONTINUOUS
10
0.684432
20
0.664432
11
0.682725
21
0.666987
0
LINE
8
BLACK
6
CONTINUOUS
10
0.682725
20
0.666987
11
0.682126
21
0.67
0
LINE
8
BLACK
6
CONTINUOUS
10
0.682126
20
0.67
11
0.682126
21
0.73
0
LINE
8
BLACK
6
CONTINUOUS
10
0.682126
20
0.73
11
0.682725
21
0.733013
0
LINE
8
BLACK
6
CONTINUOUS
10
0.682725
20
0.733013
11
0.684432
21
0.735568
0
LINE
8
BLACK
6
CONTINUOUS
10
0.684432
20
0.735568
11
0.686987
21
0.737275
0
LINE
8
BLACK
6
CONTINUOUS
10
0.686987
20
0.737275
11
0.69
21
0.737874
0
LINE
8
BLACK
6
CONTINUOUS
10
0.69
20
0.737874
11
0.75
21
0.737874
0
LINE
8
BLACK
6
CONTINUOUS
10
0.75
20
0.737874
11
0.753013
21
0.737275
0
LINE
8
BLACK
6
CONTINUOUS
10
0.133013
20
0.922275
11
0.135568
21
0.920568
0
LINE
8
BLACK
6
CONTINUOUS
10
0.135568
20
0.920568
11
0.137275
21
0.918013
0
LINE
8
BLACK
6
CONTINUOUS
10
0.137275
20
0.918013
11
0.137874
21
0.915
0
LINE
8
BLACK
6
CONTINUOUS
10
0.137874
20
0.915
11
0.137874
21
0.855
0
LINE
8
BLACK
6
CONTINUOUS
10
0.137874
20
0.855
11
0.137275
21
0.851987
0
LINE
8
BLACK
6
CONTINUOUS
10
0.137275
20
0.851987
11
0.135568
21
0.849432
0
LINE
8
BLACK
6
CONTINUOUS
10
0.135568
20
0.849432
11
0.133013
21
0.847725
0
LINE
8
BLACK
6
CONTINUOUS
10
0.133013
20
0.847725
11
0.13
21
0.847126
0
LINE
8
BLACK
6
CONTINUOUS
10
0.13
20
0.847126
11
0.07
21
0.847126
0
LINE
8
BLACK
6
CONTINUOUS
10
0.07
20
0.847126
11
0.0669867
21
0.847725
0
LINE
8
BLACK
6
CONTINUOUS
10
0.0669867
20
0.847725
11
0.0644322
21
0.849432
0
LINE
8
BLACK
6
CONTINUOUS
10
0.0644322
20
0.849432
11
0.0627254
21
0.851987
0
LINE
8
BLACK
6
CONTINUOUS
10
0.0627254
20
0.851987
11
0.062126
21
0.855
0
LINE
8
BLACK
6
CONTINUOUS
10
0.062126
20
0.855
11
0.062126
21
0.915
0
LINE
8
BLACK
6
CONTINUOUS
10
0.062126
20
0.915
11
0.0627254
21
0.918013
0
LINE
8
BLACK
6
CONTINUOUS
10
0.0627254
20
0.918013
11
0.0644322
21
0.920568
0
LINE
8
BLACK
6
CONTINUOUS
10
0.0644322
20
0.920568
11
0.0669867
21
0.922275
0
LINE
8
BLACK
6
CONTINUOUS
10
0.0669867
20
0.922275
11
0.07
21
0.922874
0
LINE
8
BLACK
6
CONTINUOUS
10
0.07
20
0.922874
11
0.13
21
0.922874
0
LINE
8
BLACK
6
CONTINUOUS
10
0.13
20
0.922874
11
0.133013
21
0.922275
0
LINE
8
BLACK
6
CONTINUOUS
10
0.653013
20
1.00227
11
0.655568
21
1.00057
0
LINE
8
BLACK
6
CONTINUOUS
10
0.655568
20
1.00057
11
0.657275
21
0.998013
0
LINE
8
BLACK
6
CONTINUOUS
10
0.657275
20
0.998013
11
0.657874
21
0.995
0
LINE
8
BLACK
6
CONTINUOUS
10
0.657874
20
0.995
11
0.657874
21
0.935
0
LINE
8
BLACK
6
CONTINUOUS
10
0.657874
20
0.935
11
0.657275
21
0.931987
0
LINE
8
BLACK
6
CONTINUOUS
10
0.657275
20
0.931987
11
0.655568
21
0.929432
0
LINE
8
BLACK
6
CONTINUOUS
10
0.655568
20
0.929432
11
0.653013
21
0.927725
0
LINE
8
BLACK
6
CONTINUOUS
10
0.653013
20
0.927725
11
0.65
21
0.927126
0
LINE
8
BLACK
6
CONTINUOUS
10
0.65
20
0.927126
11
0.59
21
0.927126
0
LINE
8
BLACK
6
CONTINUOUS
10
0.59
20
0.927126
11
0.586987
21
0.927725
0
LINE
8
BLACK
6
CONTINUOUS
10
0.586987
20
0.927725
11
0.584432
21
0.929432
0
LINE
8
BLACK
6
CONTINUOUS
10
0.584432
20
0.929432
11
0.582725
21
0.931987
0
LINE
8
BLACK
6
CONTINUOUS
10
0.582725
20
0.931987
11
0.582126
21
0.935
0
LINE
8
BLACK
6
CONTINUOUS
10
0.582126
20
0.935
11
0.582126
21
0.995
0
LINE
8
BLACK
6
CONTINUOUS
10
0.582126
20
0.995
11
0.582725
21
0.998013
0
LINE
8
BLACK
6
CONTINUOUS
10
0.582725
20
0.998013
11
0.584432
21
1.00057
0
LINE
8
BLACK
6
CONTINUOUS
10
0.584432
20
1.00057
11
0.586987
21
1.00227
0
LINE
8
BLACK
6
CONTINUOUS
10
0.586987
20
1.00227
11
0.59
21
1.00287
0
LINE
8
BLACK
6
CONTINUOUS
10
0.59
20
1.00287
11
0.65
21
1.00287
0
LINE
8
BLACK
6
CONTINUOUS
10
0.65
20
1.00287
11
0.653013
21
1.00227
0
LINE
8
BLACK
6
CONTINUOUS
10
0.753013
20
1.00227
11
0.755568
21
1.00057
0
LINE
8
BLACK
6
CONTINUOUS
10
0.755568
20
1.00057
11
0.757275
21
0.998013
0
LINE
8
BLACK
6
CONTINUOUS
10
0.757275
20
0.998013
11
0.757874
21
0.995
0
LINE
8
BLACK
6
CONTINUOUS
10
0.757874
20
0.995
11
0.757874
21
0.935
0
LINE
8
BLACK
6
CONTINUOUS
10
0.757874
20
0.935
11
0.757275
21
0.931987
0
LINE
8
BLACK
6
CONTINUOUS
10
0.757275
20
0.931987
11
0.755568
21
0.929432
0
LINE
8
BLACK
6
CONTINUOUS
10
0.755568
20
0.929432
11
0.753013
21
0.927725
0
LINE
8
BLACK
6
CONTINUOUS
10
0.753013
20
0.927725
11
0.75
21
0.927126
0
LINE
8
BLACK
6
CONTINUOUS
10
0.75
20
0.927126
11
0.69
21
0.927126
0
LINE
8
BLACK
6
CONTINUOUS
10
0.69
20
0.927126
11
0.686987
21
0.927725
0
LINE
8
BLACK
6
CONTINUOUS
10
0.686987
20
0.927725
11
0.684432
21
0.929432
0
LINE
8
BLACK
6
CONTINUOUS
10
0.684432
20
0.929432
11
0.682725
21
0.931987
0
LINE
8
BLACK
6
CONTINUOUS
10
0.682725
20
0.931987
11
0.682126
21
0.935
0
LINE
8
BLACK
6
CONTINUOUS
10
0.682126
20
0.935
11
0.682126
21
0.995
0
LINE
8
BLACK
6
CONTINUOUS
10
0.682126
20
0.995
11
0.682725
21
0.998013
0
LINE
8
BLACK
6
CONTINUOUS
10
0.682725
20
0.998013
11
0.684432
21
1.00057
0
LINE
8
BLACK
6
CONTINUOUS
10
0.684432
20
1.00057
11
0.686987
21
1.00227
0
LINE
8
BLACK
6
CONTINUOUS
10
0.686987
20
1.00227
11
0.69
21
1.00287
0
LINE
8
BLACK
6
CONTINUOUS
10
0.69
20
1.00287
11
0.75
21
1.00287
0
LINE
8
BLACK
6
CONTINUOUS
10
0.75
20
1.00287
11
0.753013
21
1.00227
0
LINE
8
BLACK
6
CONTINUOUS
10
0.133013
20
1.02227
11
0.135568
21
1.02057
0
LINE
8
BLACK
6
CONTINUOUS
10
0.135568
20
1.02057
11
0.137275
21
1.01801
0
LINE
8
BLACK
6
CONTINUOUS
10
0.137275
20
1.01801
11
0.137874
21
1.015
0
LINE
8
BLACK
6
CONTINUOUS
10
0.137874
20
1.015
11
0.137874
21
0.955
0
LINE
8
BLACK
6
CONTINUOUS
10
0.137874
20
0.955
11
0.137275
21
0.951987
0
LINE
8
BLACK
6
CONTINUOUS
10
0.137275
20
0.951987
11
0.135568
21
0.949432
0
LINE
8
BLACK
6
CONTINUOUS
10
0.135568
20
0.949432
11
0.133013
21
0.947725
0
LINE
8
BLACK
6
CONTINUOUS
10
0.133013
20
0.947725
11
0.13
21
0.947126
0
LINE
8
BLACK
6
CONTINUOUS
10
0.13
20
0.947126
11
0.07
21
0.947126
0
LINE
8
BLACK
6
CONTINUOUS
10
0.07
20
0.947126
11
0.0669867
21
0.947725
0
LINE
8
BLACK
6
CONTINUOUS
10
0.0669867
20
0.947725
11
0.0644322
21
0.949432
0
LINE
8
BLACK
6
CONTINUOUS
10
0.0644322
20
0.949432
11
0.0627254
21
0.951987
0
LINE
8
BLACK
6
CONTINUOUS
10
0.0627254
20
0.951987
11
0.062126
21
0.955
0
LINE
8
BLACK
6
CONTINUOUS
10
0.062126
20
0.955
11
0.062126
21
1.015
0
LINE
8
BLACK
6
CONTINUOUS
10
0.062126
20
1.015
11
0.0627254
21
1.01801
0
LINE
8
BLACK
6
CONTINUOUS
10
0.0627254
20
1.01801
11
0.0644322
21
1.02057
0
LINE
8
BLACK
6
CONTINUOUS
10
0.0644322
20
1.02057
11
0.0669867
21
1.02227
0
LINE
8
BLACK
6
CONTINUOUS
10
0.0669867
20
1.02227
11
0.07
21
1.02287
0
LINE
8
BLACK
6
CONTINUOUS
10
0.07
20
1.02287
11
0.13
21
1.02287
0
LINE
8
BLACK
6
CONTINUOUS
10
0.13
20
1.02287
11
0.133013
21
1.02227
0
LINE
8
BLACK
6
CONTINUOUS
10
0.653013
20
1.10227
11
0.655568
21
1.10057
0
LINE
8
BLACK
6
CONTINUOUS
10
0.655568
20
1.10057
11
0.657275
21
1.09801
0
LINE
8
BLACK
6
CONTINUOUS
10
0.657275
20
1.09801
11
0.657874
21
1.095
0
LINE
8
BLACK
6
CONTINUOUS
10
0.657874
20
1.095
11
0.657874
21
1.035
0
LINE
8
BLACK
6
CONTINUOUS
10
0.657874
20
1.035
11
0.657275
21
1.03199
0
LINE
8
BLACK
6
CONTINUOUS
10
0.657275
20
1.03199
11
0.655568
21
1.02943
0
LINE
8
BLACK
6
CONTINUOUS
10
0.655568
20
1.02943
11
0.653013
21
1.02773
0
LINE
8
BLACK
6
CONTINUOUS
10
0.653013
20
1.02773
11
0.65
21
1.02713
0
LINE
8
BLACK
6
CONTINUOUS
10
0.65
20
1.02713
11
0.59
21
1.02713
0
LINE
8
BLACK
6
CONTINUOUS
10
0.59
20
1.02713
11
0.586987
21
1.02773
0
LINE
8
BLACK
6
CONTINUOUS
10
0.586987
20
1.02773
11
0.584432
21
1.02943
0
LINE
8
BLACK
6
CONTINUOUS
10
0.584432
20
1.02943
11
0.582725
21
1.03199
0
LINE
8
BLACK
6
CONTINUOUS
10
0.582725
20
1.03199
11
0.582126
21
1.035
0
LINE
8
BLACK
6
CONTINUOUS
10
0.582126
20
1.035
11
0.582126
21
1.095
0
LINE
8
BLACK
6
CONTINUOUS
10
0.582126
20
1.095
11
0.582725
21
1.09801
0
LINE
8
BLACK
6
CONTINUOUS
10
0.582725
20
1.09801
11
0.584432
21
1.10057
0
LINE
8
BLACK
6
CONTINUOUS
10
0.584432
20
1.10057
11
0.586987
21
1.10227
0
LINE
8
BLACK
6
CONTINUOUS
10
0.586987
20
1.10227
11
0.59
21
1.10287
0
LINE
8
BLACK
6
CONTINUOUS
10
0.59
20
1.10287
11
0.65
21
1.10287
0
LINE
8
BLACK
6
CONTINUOUS
10
0.65
20
1.10287
11
0.653013
21
1.10227
0
LINE
8
BLACK
6
CONTINUOUS
10
0.753013
20
1.10227
11
0.755568
21
1.10057
0
LINE
8
BLACK
6
CONTINUOUS
10
0.755568
20
1.10057
11
0.757275
21
1.09801
0
LINE
8
BLACK
6
CONTINUOUS
10
0.757275
20
1.09801
11
0.757874
21
1.095
0
LINE
8
BLACK
6
CONTINUOUS
10
0.757874
20
1.095
11
0.757874
21
1.035
0
LINE
8
BLACK
6
CONTINUOUS
10
0.757874
20
1.035
11
0.757275
21
1.03199
0
LINE
8
BLACK
6
CONTINUOUS
10
0.757275
20
1.03199
11
0.755568
21
1.02943
0
LINE
8
BLACK
6
CONTINUOUS
10
0.755568
20
1.02943
11
0.753013
21
1.02773
0
LINE
8
BLACK
6
CONTINUOUS
10
0.753013
20
1.02773
11
0.75
21
1.02713
0
LINE
8
BLACK
6
CONTINUOUS
10
0.75
20
1.02713
11
0.69
21
1.02713
0
LINE
8
BLACK
6
CONTINUOUS
10
0.69
20
1.02713
11
0.686987
21
1.02773
0
LINE
8
BLACK
6
CONTINUOUS
10
0.686987
20
1.02773
11
0.684432
21
1.02943
0
LINE
8
BLACK
6
CONTINUOUS
10
0.684432
20
1.02943
11
0.682725
21
1.03199
0
LINE
8
BLACK
6
CONTINUOUS
10
0.682725
20
1.03199
11
0.682126
21
1.035
0
LINE
8
BLACK
6
CONTINUOUS
10
0.682126
20
1.035
11
0.682126
21
1.095
0
LINE
8
BLACK
6
CONTINUOUS
10
0.682126
20
1.095
11
0.682725
21
1.09801
0
LINE
8
BLACK
6
CONTINUOUS
10
0.682725
20
1.09801
11
0.684432
21
1.10057
0
LINE
8
BLACK
6
CONTINUOUS
10
0.684432
20
1.10057
11
0.686987
21
1.10227
0
LINE
8
BLACK
6
CONTINUOUS
10
0.686987
20
1.10227
11
0.69
21
1.10287
0
LINE
8
BLACK
6
CONTINUOUS
10
0.69
20
1.10287
11
0.75
21
1.10287
0
LINE
8
BLACK
6
CONTINUOUS
10
0.75
20
1.10287
11
0.753013
21
1.10227
0
LINE
8
BLACK
6
CONTINUOUS
10
0.653013
20
1.20227
11
0.655568
21
1.20057
0
LINE
8
BLACK
6
CONTINUOUS
10
0.655568
20
1.20057
11
0.657275
21
1.19801
0
LINE
8
BLACK
6
CONTINUOUS
10
0.657275
20
1.19801
11
0.657874
21
1.195
0
LINE
8
BLACK
6
CONTINUOUS
10
0.657874
20
1.195
11
0.657874
21
1.135
0
LINE
8
BLACK
6
CONTINUOUS
10
0.657874
20
1.135
11
0.657275
21
1.13199
0
LINE
8
BLACK
6
CONTINUOUS
10
0.657275
20
1.13199
11
0.655568
21
1.12943
0
LINE
8
BLACK
6
CONTINUOUS
10
0.655568
20
1.12943
11
0.653013
21
1.12773
0
LINE
8
BLACK
6
CONTINUOUS
10
0.653013
20
1.12773
11
0.65
21
1.12713
0
LINE
8
BLACK
6
CONTINUOUS
10
0.65
20
1.12713
11
0.59
21
1.12713
0
LINE
8
BLACK
6
CONTINUOUS
10
0.59
20
1.12713
11
0.586987
21
1.12773
0
LINE
8
BLACK
6
CONTINUOUS
10
0.586987
20
1.12773
11
0.584432
21
1.12943
0
LINE
8
BLACK
6
CONTINUOUS
10
0.584432
20
1.12943
11
0.582725
21
1.13199
0
LINE
8
BLACK
6
CONTINUOUS
10
0.582725
20
1.13199
11
0.582126
21
1.135
0
LINE
8
BLACK
6
CONTINUOUS
10
0.582126
20
1.135
11
0.582126
21
1.195
0
LINE
8
BLACK
6
CONTINUOUS
10
0.582126
20
1.195
11
0.582725
21
1.19801
0
LINE
8
BLACK
6
CONTINUOUS
10
0.582725
20
1.19801
11
0.584432
21
1.20057
0
LINE
8
BLACK
6
CONTINUOUS
10
0.584432
20
1.20057
11
0.586987
21
1.20227
0
LINE
8
BLACK
6
CONTINUOUS
10
0.586987
20
1.20227
11
0.59
21
1.20287
0
LINE
8
BLACK
6
CONTINUOUS
10
0.59
20
1.20287
11
0.65
21
1.20287
0
LINE
8
BLACK
6
CONTINUOUS
10
0.65
20
1.20287
11
0.653013
21
1.20227
0
LINE
8
BLACK
6
CONTINUOUS
10
0.753013
20
1.20227
11
0.755568
21
1.20057
0
LINE
8
BLACK
6
CONTINUOUS
10
0.755568
20
1.20057
11
0.757275
21
1.19801
0
LINE
8
BLACK
6
CONTINUOUS
10
0.757275
20
1.19801
11
0.757874
21
1.195
0
LINE
8
BLACK
6
CONTINUOUS
10
0.757874
20
1.195
11
0.757874
21
1.135
0
LINE
8
BLACK
6
CONTINUOUS
10
0.757874
20
1.135
11
0.757275
21
1.13199
0
LINE
8
BLACK
6
CONTINUOUS
10
0.757275
20
1.13199
11
0.755568
21
1.12943
0
LINE
8
BLACK
6
CONTINUOUS
10
0.755568
20
1.12943
11
0.753013
21
1.12773
0
LINE
8
BLACK
6
CONTINUOUS
10
0.753013
20
1.12773
11
0.75
21
1.12713
0
LINE
8
BLACK
6
CONTINUOUS
10
0.75
20
1.12713
11
0.69
21
1.12713
0
LINE
8
BLACK
6
CONTINUOUS
10
0.69
20
1.12713
11
0.686987
21
1.12773
0
LINE
8
BLACK
6
CONTINUOUS
10
0.686987
20
1.12773
11
0.684432
21
1.12943
0
LINE
8
BLACK
6
CONTINUOUS
10
0.684432
20
1.12943
11
0.682725
21
1.13199
0
LINE
8
BLACK
6
CONTINUOUS
10
0.682725
20
1.13199
11
0.682126
21
1.135
0
LINE
8
BLACK
6
CONTINUOUS
10
0.682126
20
1.135
11
0.682126
21
1.195
0
LINE
8
BLACK
6
CONTINUOUS
10
0.682126
20
1.195
11
0.682725
21
1.19801
0
LINE
8
BLACK
6
CONTINUOUS
10
0.682725
20
1.19801
11
0.684432
21
1.20057
0
LINE
8
BLACK
6
CONTINUOUS
10
0.684432
20
1.20057
11
0.686987
21
1.20227
0
LINE
8
BLACK
6
CONTINUOUS
10
0.686987
20
1.20227
11
0.69
21
1.20287
0
LINE
8
BLACK
6
CONTINUOUS
10
0.69
20
1.20287
11
0.75
21
1.20287
0
LINE
8
BLACK
6
CONTINUOUS
10
0.75
20
1.20287
11
0.753013
21
1.20227
0
LINE
8
BLACK
6
CONTINUOUS
10
0.214917
20
1.5251
11
0.228769
21
1.52266
0
LINE
8
BLACK
6
CONTINUOUS
10
0.228769
20
1.52266
11
0.242262
21
1.51868
0
LINE
8
BLACK
6
CONTINUOUS
10
0.242262
20
1.51868
11
0.255228
21
1.51323
0
LINE
8
BLACK
6
CONTINUOUS
10
0.255228
20
1.51323
11
0.267506
21
1.50637
0
LINE
8
BLACK
6
CONTINUOUS
10
0.267506
20
1.50637
11
0.278942
21
1.49818
0
LINE
8
BLACK
6
CONTINUOUS
10
0.278942
20
1.49818
11
0.289395
21
1.48877
0
LINE
8
BLACK
6
CONTINUOUS
10
0.289395
20
1.48877
11
0.298733
21
1.47825
0
LINE
8
BLACK
6
CONTINUOUS
10
0.298733
20
1.47825
11
0.306841
21
1.46676
0
LINE
8
BLACK
6
CONTINUOUS
10
0.306841
20
1.46676
11
0.313617
21
1.45444
0
LINE
8
BLACK
6
CONTINUOUS
10
0.313617
20
1.45444
11
0.318977
21
1.44143
0
LINE
8
BLACK
6
CONTINUOUS
10
0.318977
20
1.44143
11
0.322853
21
1.42791
0
LINE
8
BLACK
6
CONTINUOUS
10
0.322853
20
1.42791
11
0.325199
21
1.41404
0
LINE
8
BLACK
6
CONTINUOUS
10
0.325199
20
1.41404
11
0.325984
21
1.4
0
LINE
8
BLACK
6
CONTINUOUS
10
0.325984
20
1.4
11
0.325935
21
1.39648
0
LINE
8
BLACK
6
CONTINUOUS
10
0.325935
20
1.39648
11
0.324758
21
1.38247
0
LINE
8
BLACK
6
CONTINUOUS
10
0.324758
20
1.38247
11
0.322026
21
1.36867
0
LINE
8
BLACK
6
CONTINUOUS
10
0.322026
20
1.36867
11
0.317773
21
1.35526
0
LINE
8
BLACK
6
CONTINUOUS
10
0.317773
20
1.35526
11
0.312052
21
1.34241
0
LINE
8
BLACK
6
CONTINUOUS
10
0.312052
20
1.34241
11
0.304935
21
1.33028
0
LINE
8
BLACK
6
CONTINUOUS
10
0.304935
20
1.33028
11
0.29651
21
1.31902
0
LINE
8
BLACK
6
CONTINUOUS
10
0.29651
20
1.31902
11
0.286881
21
1.30877
0
LINE
8
BLACK
6
CONTINUOUS
10
0.286881
20
1.30877
11
0.27617
21
1.29965
0
LINE
8
BLACK
6
CONTINUOUS
10
0.27617
20
1.29965
11
0.264509
21
1.29178
0
LINE
8
BLACK
6
CONTINUOUS
10
0.264509
20
1.29178
11
0.252045
21
1.28527
0
LINE
8
BLACK
6
CONTINUOUS
10
0.252045
20
1.28527
11
0.238931
21
1.28018
0
LINE
8
BLACK
6
CONTINUOUS
10
0.238931
20
1.28018
11
0.225333
21
1.27659
0
LINE
8
BLACK
6
CONTINUOUS
10
0.225333
20
1.27659
11
0.211418
21
1.27453
0
LINE
8
BLACK
6
CONTINUOUS
10
0.211418
20
1.27453
11
0.197362
21
1.27404
0
LINE
8
BLACK
6
CONTINUOUS
10
0.197362
20
1.27404
11
0.183338
21
1.27512
0
LINE
8
BLACK
6
CONTINUOUS
10
0.183338
20
1.27512
11
0.169522
21
1.27776
0
LINE
8
BLACK
6
CONTINUOUS
10
0.169522
20
1.27776
11
0.156085
21
1.28192
0
LINE
8
BLACK
6
CONTINUOUS
10
0.156085
20
1.28192
11
0.143197
21
1.28755
0
LINE
8
BLACK
6
CONTINUOUS
10
0.143197
20
1.28755
11
0.131016
21
1.29458
0
LINE
8
BLACK
6
CONTINUOUS
10
0.131016
20
1.29458
11
0.119695
21
1.30293
0
LINE
8
BLACK
6
CONTINUOUS
10
0.119695
20
1.30293
11
0.109375
21
1.31248
0
LINE
8
BLACK
6
CONTINUOUS
10
0.109375
20
1.31248
11
0.100184
21
1.32313
0
LINE
8
BLACK
6
CONTINUOUS
10
0.100184
20
1.32313
11
0.0922376
21
1.33474
0
LINE
8
BLACK
6
CONTINUOUS
10
0.0922376
20
1.33474
11
0.0856343
21
1.34716
0
LINE
8
BLACK
6
CONTINUOUS
10
0.0856343
20
1.34716
11
0.0804566
21
1.36023
0
LINE
8
BLACK
6
CONTINUOUS
10
0.0804566
20
1.36023
11
0.0767688
21
1.37381
0
LINE
8
BLACK
6
CONTINUOUS
10
0.0767688
20
1.37381
11
0.074617
21
1.38771
0
LINE
8
BLACK
6
CONTINUOUS
10
0.074617
20
1.38771
11
0.074028
21
1.40176
0
LINE
8
BLACK
6
CONTINUOUS
10
0.074028
20
1.40176
11
0.0750092
21
1.41579
0
LINE
8
BLACK
6
CONTINUOUS
10
0.0750092
20
1.41579
11
0.0775482
21
1.42962
0
LINE
8
BLACK
6
CONTINUOUS
10
0.0775482
20
1.42962
11
0.0816135
21
1.44309
0
LINE
8
BLACK
6
CONTINUOUS
10
0.0816135
20
1.44309
11
0.0871544
21
1.45602
0
LINE
8
BLACK
6
CONTINUOUS
10
0.0871544
20
1.45602
11
0.0941019
21
1.46825
0
LINE
8
BLACK
6
CONTINUOUS
10
0.0941019
20
1.46825
11
0.102369
21
1.47963
0
LINE
8
BLACK
6
CONTINUOUS
10
0.102369
20
1.47963
11
0.111853
21
1.49001
0
LINE
8
BLACK
6
CONTINUOUS
10
0.111853
20
1.49001
11
0.122436
21
1.49928
0
LINE
8
BLACK
6
CONTINUOUS
10
0.122436
20
1.49928
11
0.133986
21
1.5073
0
LINE
8
BLACK
6
CONTINUOUS
10
0.133986
20
1.5073
11
0.146359
21
1.51399
0
LINE
8
BLACK
6
CONTINUOUS
10
0.146359
20
1.51399
11
0.1594
21
1.51926
0
LINE
8
BLACK
6
CONTINUOUS
10
0.1594
20
1.51926
11
0.172947
21
1.52305
0
LINE
8
BLACK
6
CONTINUOUS
10
0.172947
20
1.52305
11
0.186831
21
1.52529
0
LINE
8
BLACK
6
CONTINUOUS
10
0.186831
20
1.52529
11
0.20088
21
1.52598
0
LINE
8
BLACK
6
CONTINUOUS
10
0.20088
20
1.52598
11
0.214917
21
1.5251
0
LINE
8
BLACK
6
CONTINUOUS
10
0.614917
20
1.5251
11
0.628769
21
1.52266
0
LINE
8
BLACK
6
CONTINUOUS
10
0.628769
20
1.52266
11
0.642262
21
1.51868
0
LINE
8
BLACK
6
CONTINUOUS
10
0.642262
20
1.51868
11
0.655228
21
1.51323
0
LINE
8
BLACK
6
CONTINUOUS
10
0.655228
20
1.51323
11
0.667506
21
1.50637
0
LINE
8
BLACK
6
CONTINUOUS
10
0.667506
20
1.50637
11
0.678942
21
1.49818
0
LINE
8
BLACK
6
CONTINUOUS
10
0.678942
20
1.49818
11
0.689395
21
1.48877
0
LINE
8
BLACK
6
CONTINUOUS
10
0.689395
20
1.48877
11
0.698733
21
1.47825
0
LINE
8
BLACK
6
CONTINUOUS
10
0.698733
20
1.47825
11
0.706841
21
1.46676
0
LINE
8
BLACK
6
CONTINUOUS
10
0.706841
20
1.46676
11
0.713617
21
1.45444
0
LINE
8
BLACK
6
CONTINUOUS
10
0.713617
20
1.45444
11
0.718977
21
1.44143
0
LINE
8
BLACK
6
CONTINUOUS
10
0.718977
20
1.44143
11
0.722853
21
1.42791
0
LINE
8
BLACK
6
CONTINUOUS
10
0.722853
20
1.42791
11
0.725199
21
1.41404
0
LINE
8
BLACK
6
CONTINUOUS
10
0.725199
20
1.41404
11
0.725984
21
1.4
0
LINE
8
BLACK
6
CONTINUOUS
10
0.725984
20
1.4
11
0.725935
21
1.39648
0
LINE
8
BLACK
6
CONTINUOUS
10
0.725935
20
1.39648
11
0.724758
21
1.38247
0
LINE
8
BLACK
6
CONTINUOUS
10
0.724758
20
1.38247
11
0.722026
21
1.36867
0
LINE
8
BLACK
6
CONTINUOUS
10
0.722026
20
1.36867
11
0.717773
21
1.35526
0
LINE
8
BLACK
6
CONTINUOUS
10
0.717773
20
1.35526
11
0.712052
21
1.34241
0
LINE
8
BLACK
6
CONTINUOUS
10
0.712052
20
1.34241
11
0.704935
21
1.33028
0
LINE
8
BLACK
6
CONTINUOUS
10
0.704935
20
1.33028
11
0.69651
21
1.31902
0
LINE
8
BLACK
6
CONTINUOUS
10
0.69651
20
1.31902
11
0.686881
21
1.30877
0
LINE
8
BLACK
6
CONTINUOUS
10
0.686881
20
1.30877
11
0.67617
21
1.29965
0
LINE
8
BLACK
6
CONTINUOUS
10
0.67617
20
1.29965
11
0.664509
21
1.29178
0
LINE
8
BLACK
6
CONTINUOUS
10
0.664509
20
1.29178
11
0.652045
21
1.28527
0
LINE
8
BLACK
6
CONTINUOUS
10
0.652045
20
1.28527
11
0.638931
21
1.28018
0
LINE
8
BLACK
6
CONTINUOUS
10
0.638931
20
1.28018
11
0.625333
21
1.27659
0
LINE
8
BLACK
6
CONTINUOUS
10
0.625333
20
1.27659
11
0.611418
21
1.27453
0
LINE
8
BLACK
6
CONTINUOUS
10
0.611418
20
1.27453
11
0.597362
21
1.27404
0
LINE
8
BLACK
6
CONTINUOUS
10
0.597362
20
1.27404
11
0.583338
21
1.27512
0
LINE
8
BLACK
6
CONTINUOUS
10
0.583338
20
1.27512
11
0.569522
21
1.27776
0
LINE
8
BLACK
6
CONTINUOUS
10
0.569522
20
1.27776
11
0.556085
21
1.28192
0
LINE
8
BLACK
6
CONTINUOUS
10
0.556085
20
1.28192
11
0.543197
21
1.28755
0
LINE
8
BLACK
6
CONTINUOUS
10
0.543197
20
1.28755
11
0.531016
21
1.29458
0
LINE
8
BLACK
6
CONTINUOUS
10
0.531016
20
1.29458
11
0.519695
21
1.30293
0
LINE
8
BLACK
6
CONTINUOUS
10
0.519695
20
1.30293
11
0.509375
21
1.31248
0
LINE
8
BLACK
6
CONTINUOUS
10
0.509375
20
1.31248
11
0.500184
21
1.32313
0
LINE
8
BLACK
6
CONTINUOUS
10
0.500184
20
1.32313
11
0.492238
21
1.33474
0
LINE
8
BLACK
6
CONTINUOUS
10
0.492238
20
1.33474
11
0.485634
21
1.34716
0
LINE
8
BLACK
6
CONTINUOUS
10
0.485634
20
1.34716
11
0.480457
21
1.36023
0
LINE
8
BLACK
6
CONTINUOUS
10
0.480457
20
1.36023
11
0.476769
21
1.37381
0
LINE
8
BLACK
6
CONTINUOUS
10
0.476769
20
1.37381
11
0.474617
21
1.38771
0
LINE
8
BLACK
6
CONTINUOUS
10
0.474617
20
1.38771
11
0.474028
21
1.40176
0
LINE
8
BLACK
6
CONTINUOUS
10
0.474028
20
1.40176
11
0.475009
21
1.41579
0
LINE
8
BLACK
6
CONTINUOUS
10
0.475009
20
1.41579
11
0.477548
21
1.42962
0
LINE
8
BLACK
6
CONTINUOUS
10
0.477548
20
1.42962
11
0.481614
21
1.44309
0
LINE
8
BLACK
6
CONTINUOUS
10
0.481614
20
1.44309
11
0.487154
21
1.45602
0
LINE
8
BLACK
6
CONTINUOUS
10
0.487154
20
1.45602
11
0.494102
21
1.46825
0
LINE
8
BLACK
6
CONTINUOUS
10
0.494102
20
1.46825
11
0.502369
21
1.47963
0
LINE
8
BLACK
6
CONTINUOUS
10
0.502369
20
1.47963
11
0.511853
21
1.49001
0
LINE
8
BLACK
6
CONTINUOUS
10
0.511853
20
1.49001
11
0.522436
21
1.49928
0
LINE
8
BLACK
6
CONTINUOUS
10
0.522436
20
1.49928
11
0.533986
21
1.5073
0
LINE
8
BLACK
6
CONTINUOUS
10
0.533986
20
1.5073
11
0.546359
21
1.51399
0
LINE
8
BLACK
6
CONTINUOUS
10
0.546359
20
1.51399
11
0.5594
21
1.51926
0
LINE
8
BLACK
6
CONTINUOUS
10
0.5594
20
1.51926
11
0.572947
21
1.52305
0
LINE
8
BLACK
6
CONTINUOUS
10
0.572947
20
1.52305
11
0.586831
21
1.52529
0
LINE
8
BLACK
6
CONTINUOUS
10
0.586831
20
1.52529
11
0.60088
21
1.52598
0
LINE
8
BLACK
6
CONTINUOUS
10
0.60088
20
1.52598
11
0.614917
21
1.5251
  0
ENDSEC
  0
EOF
