  0
SECTION
  2
HEADER
  9
$ANGBASE
  50
0.0
  9
$ANGDIR
  70
1
  9
$MEASUREMENT
  70
0
  0
ENDSEC
  0
SECTION
  2
TABLES
  0
TABLE
  2
LTYPE
  70
4
  0
LTYPE
  5
40F
  2
CONTINUOUS
  70
0
  3
Solid line
  72
65
  73
0
  40
0.0
  0
LTYPE
  5
410
  2
DASHDOT
 70
0
  3
Dash Dot ____ _ ____ _
 72
65
 73
4
 40
2.0
 49
1.25
 49
-0.25
 49
0.25
 49
-0.25
  0
LTYPE
  5
411
  2
DASHED
 70
0
  3
Dashed __ __ __ __ __
 72
65
 73
2
 40
0.75
 49
0.5
 49
-0.25
  0
LTYPE
  5
43B
  2
DOTTED
 70
0
  3
Dotted .  .  .  .
 72
65
 73
2
 40
0.2
 49
0.0
 49
-0.2
  0
ENDTAB
  0
TABLE
  2
STYLE
  70
4
  0
STYLE
  2
KICAD
  70
0
  40
0
  41
1
  42
1
  50
0
  71
0
  3
isocp.shx
  0
STYLE
  2
KICADB
  70
0
  40
0
  41
1
  42
1
  50
0
  71
0
  3
isocp.shx
  0
STYLE
  2
KICADI
  70
0
  40
0
  41
1
  42
1
  50
15
  71
0
  3
isocp.shx
  0
STYLE
  2
KICADBI
  70
0
  40
0
  41
1
  42
1
  50
15
  71
0
  3
isocp.shx
  0
ENDTAB
  0
TABLE
  2
LAYER
  70
1
  0
LAYER
  2
BLACK
  70
0
  62
7
  6
CONTINUOUS
  0
ENDTAB
  0
ENDSEC
  0
SECTION
  2
ENTITIES
0
LINE
8
BLACK
6
CONTINUOUS
10
0.3152
20
0.4108
11
0.2148
21
0.4108
0
LINE
8
BLACK
6
CONTINUOUS
10
0.2148
20
0.4108
11
0.2148
21
0.5092
0
LINE
8
BLACK
6
CONTINUOUS
10
0.2148
20
0.5092
11
0.3152
21
0.5092
0
LINE
8
BLACK
6
CONTINUOUS
10
0.3152
20
0.5092
11
0.3152
21
0.4108
0
LINE
8
BLACK
6
CONTINUOUS
10
0.514
20
0.4108
11
0.4136
21
0.4108
0
LINE
8
BLACK
6
CONTINUOUS
10
0.4136
20
0.4108
11
0.4136
21
0.5092
0
LINE
8
BLACK
6
CONTINUOUS
10
0.4136
20
0.5092
11
0.514
21
0.5092
0
LINE
8
BLACK
6
CONTINUOUS
10
0.514
20
0.5092
11
0.514
21
0.4108
0
LINE
8
BLACK
6
CONTINUOUS
10
0.2375
20
0.5725
11
0.1825
21
0.5725
0
LINE
8
BLACK
6
CONTINUOUS
10
0.1825
20
0.5725
11
0.1825
21
0.6075
0
LINE
8
BLACK
6
CONTINUOUS
10
0.1825
20
0.6075
11
0.2375
21
0.6075
0
LINE
8
BLACK
6
CONTINUOUS
10
0.2375
20
0.6075
11
0.2375
21
0.5725
0
LINE
8
BLACK
6
CONTINUOUS
10
0.3325
20
0.5725
11
0.2775
21
0.5725
0
LINE
8
BLACK
6
CONTINUOUS
10
0.2775
20
0.5725
11
0.2775
21
0.6075
0
LINE
8
BLACK
6
CONTINUOUS
10
0.2775
20
0.6075
11
0.3325
21
0.6075
0
LINE
8
BLACK
6
CONTINUOUS
10
0.3325
20
0.6075
11
0.3325
21
0.5725
0
LINE
8
BLACK
6
CONTINUOUS
10
0.1475
20
0.5725
11
0.0925
21
0.5725
0
LINE
8
BLACK
6
CONTINUOUS
10
0.0925
20
0.5725
11
0.0925
21
0.6075
0
LINE
8
BLACK
6
CONTINUOUS
10
0.0925
20
0.6075
11
0.1475
21
0.6075
0
LINE
8
BLACK
6
CONTINUOUS
10
0.1475
20
0.6075
11
0.1475
21
0.5725
0
LINE
8
BLACK
6
CONTINUOUS
10
0.495276
20
0.576142
11
0.404724
21
0.576142
0
LINE
8
BLACK
6
CONTINUOUS
10
0.404724
20
0.576142
11
0.404724
21
0.674567
0
LINE
8
BLACK
6
CONTINUOUS
10
0.404724
20
0.674567
11
0.495276
21
0.674567
0
LINE
8
BLACK
6
CONTINUOUS
10
0.495276
20
0.674567
11
0.495276
21
0.576142
0
LINE
8
BLACK
6
CONTINUOUS
10
0.2375
20
0.6475
11
0.1825
21
0.6475
0
LINE
8
BLACK
6
CONTINUOUS
10
0.1825
20
0.6475
11
0.1825
21
0.6825
0
LINE
8
BLACK
6
CONTINUOUS
10
0.1825
20
0.6825
11
0.2375
21
0.6825
0
LINE
8
BLACK
6
CONTINUOUS
10
0.2375
20
0.6825
11
0.2375
21
0.6475
0
LINE
8
BLACK
6
CONTINUOUS
10
0.3325
20
0.6475
11
0.2775
21
0.6475
0
LINE
8
BLACK
6
CONTINUOUS
10
0.2775
20
0.6475
11
0.2775
21
0.6825
0
LINE
8
BLACK
6
CONTINUOUS
10
0.2775
20
0.6825
11
0.3325
21
0.6825
0
LINE
8
BLACK
6
CONTINUOUS
10
0.3325
20
0.6825
11
0.3325
21
0.6475
0
LINE
8
BLACK
6
CONTINUOUS
10
0.1475
20
0.6475
11
0.0925
21
0.6475
0
LINE
8
BLACK
6
CONTINUOUS
10
0.0925
20
0.6475
11
0.0925
21
0.6825
0
LINE
8
BLACK
6
CONTINUOUS
10
0.0925
20
0.6825
11
0.1475
21
0.6825
0
LINE
8
BLACK
6
CONTINUOUS
10
0.1475
20
0.6825
11
0.1475
21
0.6475
0
LINE
8
BLACK
6
CONTINUOUS
10
0.2425
20
0.7175
11
0.2075
21
0.7175
0
LINE
8
BLACK
6
CONTINUOUS
10
0.2075
20
0.7175
11
0.2075
21
0.7725
0
LINE
8
BLACK
6
CONTINUOUS
10
0.2075
20
0.7725
11
0.2425
21
0.7725
0
LINE
8
BLACK
6
CONTINUOUS
10
0.2425
20
0.7725
11
0.2425
21
0.7175
0
LINE
8
BLACK
6
CONTINUOUS
10
0.3175
20
0.7175
11
0.2825
21
0.7175
0
LINE
8
BLACK
6
CONTINUOUS
10
0.2825
20
0.7175
11
0.2825
21
0.7725
0
LINE
8
BLACK
6
CONTINUOUS
10
0.2825
20
0.7725
11
0.3175
21
0.7725
0
LINE
8
BLACK
6
CONTINUOUS
10
0.3175
20
0.7725
11
0.3175
21
0.7175
0
LINE
8
BLACK
6
CONTINUOUS
10
0.495276
20
0.745433
11
0.404724
21
0.745433
0
LINE
8
BLACK
6
CONTINUOUS
10
0.404724
20
0.745433
11
0.404724
21
0.843858
0
LINE
8
BLACK
6
CONTINUOUS
10
0.404724
20
0.843858
11
0.495276
21
0.843858
0
LINE
8
BLACK
6
CONTINUOUS
10
0.495276
20
0.843858
11
0.495276
21
0.745433
0
LINE
8
BLACK
6
CONTINUOUS
10
0.227992
20
0.849291
11
0.202402
21
0.849291
0
LINE
8
BLACK
6
CONTINUOUS
10
0.202402
20
0.849291
11
0.202402
21
0.910709
0
LINE
8
BLACK
6
CONTINUOUS
10
0.202402
20
0.910709
11
0.227992
21
0.910709
0
LINE
8
BLACK
6
CONTINUOUS
10
0.227992
20
0.910709
11
0.227992
21
0.849291
0
LINE
8
BLACK
6
CONTINUOUS
10
0.265394
20
0.849291
11
0.239803
21
0.849291
0
LINE
8
BLACK
6
CONTINUOUS
10
0.239803
20
0.849291
11
0.239803
21
0.910709
0
LINE
8
BLACK
6
CONTINUOUS
10
0.239803
20
0.910709
11
0.265394
21
0.910709
0
LINE
8
BLACK
6
CONTINUOUS
10
0.265394
20
0.910709
11
0.265394
21
0.849291
0
LINE
8
BLACK
6
CONTINUOUS
10
0.302795
20
0.849291
11
0.277205
21
0.849291
0
LINE
8
BLACK
6
CONTINUOUS
10
0.277205
20
0.849291
11
0.277205
21
0.910709
0
LINE
8
BLACK
6
CONTINUOUS
10
0.277205
20
0.910709
11
0.302795
21
0.910709
0
LINE
8
BLACK
6
CONTINUOUS
10
0.302795
20
0.910709
11
0.302795
21
0.849291
0
LINE
8
BLACK
6
CONTINUOUS
10
0.52874
20
0.882638
11
0.37126
21
0.882638
0
LINE
8
BLACK
6
CONTINUOUS
10
0.37126
20
0.882638
11
0.37126
21
0.94563
0
LINE
8
BLACK
6
CONTINUOUS
10
0.37126
20
0.94563
11
0.52874
21
0.94563
0
LINE
8
BLACK
6
CONTINUOUS
10
0.52874
20
0.94563
11
0.52874
21
0.882638
0
LINE
8
BLACK
6
CONTINUOUS
10
0.302795
20
0.955591
11
0.277205
21
0.955591
0
LINE
8
BLACK
6
CONTINUOUS
10
0.277205
20
0.955591
11
0.277205
21
1.01701
0
LINE
8
BLACK
6
CONTINUOUS
10
0.277205
20
1.01701
11
0.302795
21
1.01701
0
LINE
8
BLACK
6
CONTINUOUS
10
0.302795
20
1.01701
11
0.302795
21
0.955591
0
LINE
8
BLACK
6
CONTINUOUS
10
0.227992
20
0.955591
11
0.202402
21
0.955591
0
LINE
8
BLACK
6
CONTINUOUS
10
0.202402
20
0.955591
11
0.202402
21
1.01701
0
LINE
8
BLACK
6
CONTINUOUS
10
0.202402
20
1.01701
11
0.227992
21
1.01701
0
LINE
8
BLACK
6
CONTINUOUS
10
0.227992
20
1.01701
11
0.227992
21
0.955591
0
LINE
8
BLACK
6
CONTINUOUS
10
0.52874
20
1.02437
11
0.37126
21
1.02437
0
LINE
8
BLACK
6
CONTINUOUS
10
0.37126
20
1.02437
11
0.37126
21
1.08736
0
LINE
8
BLACK
6
CONTINUOUS
10
0.37126
20
1.08736
11
0.52874
21
1.08736
0
LINE
8
BLACK
6
CONTINUOUS
10
0.52874
20
1.08736
11
0.52874
21
1.02437
0
LINE
8
BLACK
6
CONTINUOUS
10
0.1625
20
1.075
11
0.1075
21
1.075
0
LINE
8
BLACK
6
CONTINUOUS
10
0.1075
20
1.075
11
0.1075
21
1.11
0
LINE
8
BLACK
6
CONTINUOUS
10
0.1075
20
1.11
11
0.1625
21
1.11
0
LINE
8
BLACK
6
CONTINUOUS
10
0.1625
20
1.11
11
0.1625
21
1.075
0
LINE
8
BLACK
6
CONTINUOUS
10
0.3275
20
1.0775
11
0.2925
21
1.0775
0
LINE
8
BLACK
6
CONTINUOUS
10
0.2925
20
1.0775
11
0.2925
21
1.1325
0
LINE
8
BLACK
6
CONTINUOUS
10
0.2925
20
1.1325
11
0.3275
21
1.1325
0
LINE
8
BLACK
6
CONTINUOUS
10
0.3275
20
1.1325
11
0.3275
21
1.0775
0
LINE
8
BLACK
6
CONTINUOUS
10
0.2525
20
1.0775
11
0.2175
21
1.0775
0
LINE
8
BLACK
6
CONTINUOUS
10
0.2175
20
1.0775
11
0.2175
21
1.1325
0
LINE
8
BLACK
6
CONTINUOUS
10
0.2175
20
1.1325
11
0.2525
21
1.1325
0
LINE
8
BLACK
6
CONTINUOUS
10
0.2525
20
1.1325
11
0.2525
21
1.0775
0
LINE
8
BLACK
6
CONTINUOUS
10
0.433465
20
1.12551
11
0.366535
21
1.12551
0
LINE
8
BLACK
6
CONTINUOUS
10
0.366535
20
1.12551
11
0.366535
21
1.17669
0
LINE
8
BLACK
6
CONTINUOUS
10
0.366535
20
1.17669
11
0.433465
21
1.17669
0
LINE
8
BLACK
6
CONTINUOUS
10
0.433465
20
1.17669
11
0.433465
21
1.12551
0
LINE
8
BLACK
6
CONTINUOUS
10
0.1625
20
1.15
11
0.1075
21
1.15
0
LINE
8
BLACK
6
CONTINUOUS
10
0.1075
20
1.15
11
0.1075
21
1.185
0
LINE
8
BLACK
6
CONTINUOUS
10
0.1075
20
1.185
11
0.1625
21
1.185
0
LINE
8
BLACK
6
CONTINUOUS
10
0.1625
20
1.185
11
0.1625
21
1.15
0
LINE
8
BLACK
6
CONTINUOUS
10
0.433465
20
1.26331
11
0.366535
21
1.26331
0
LINE
8
BLACK
6
CONTINUOUS
10
0.366535
20
1.26331
11
0.366535
21
1.31449
0
LINE
8
BLACK
6
CONTINUOUS
10
0.366535
20
1.31449
11
0.433465
21
1.31449
0
LINE
8
BLACK
6
CONTINUOUS
10
0.433465
20
1.31449
11
0.433465
21
1.26331
  0
ENDSEC
  0
EOF
