  0
SECTION
  2
HEADER
  9
$ANGBASE
  50
0.0
  9
$ANGDIR
  70
1
  9
$MEASUREMENT
  70
0
  0
ENDSEC
  0
SECTION
  2
TABLES
  0
TABLE
  2
LTYPE
  70
4
  0
LTYPE
  5
40F
  2
CONTINUOUS
  70
0
  3
Solid line
  72
65
  73
0
  40
0.0
  0
LTYPE
  5
410
  2
DASHDOT
 70
0
  3
Dash Dot ____ _ ____ _
 72
65
 73
4
 40
2.0
 49
1.25
 49
-0.25
 49
0.25
 49
-0.25
  0
LTYPE
  5
411
  2
DASHED
 70
0
  3
Dashed __ __ __ __ __
 72
65
 73
2
 40
0.75
 49
0.5
 49
-0.25
  0
LTYPE
  5
43B
  2
DOTTED
 70
0
  3
Dotted .  .  .  .
 72
65
 73
2
 40
0.2
 49
0.0
 49
-0.2
  0
ENDTAB
  0
TABLE
  2
STYLE
  70
4
  0
STYLE
  2
KICAD
  70
0
  40
0
  41
1
  42
1
  50
0
  71
0
  3
isocp.shx
  0
STYLE
  2
KICADB
  70
0
  40
0
  41
1
  42
1
  50
0
  71
0
  3
isocp.shx
  0
STYLE
  2
KICADI
  70
0
  40
0
  41
1
  42
1
  50
15
  71
0
  3
isocp.shx
  0
STYLE
  2
KICADBI
  70
0
  40
0
  41
1
  42
1
  50
15
  71
0
  3
isocp.shx
  0
ENDTAB
  0
TABLE
  2
LAYER
  70
1
  0
LAYER
  2
BLACK
  70
0
  62
7
  6
CONTINUOUS
  0
ENDTAB
  0
ENDSEC
  0
SECTION
  2
ENTITIES
0
LINE
8
BLACK
6
CONTINUOUS
10
0.60865
20
0.317793
11
0.622132
21
0.316018
0
LINE
8
BLACK
6
CONTINUOUS
10
0.622132
20
0.316018
11
0.63532
21
0.312706
0
LINE
8
BLACK
6
CONTINUOUS
10
0.63532
20
0.312706
11
0.64804
21
0.307899
0
LINE
8
BLACK
6
CONTINUOUS
10
0.64804
20
0.307899
11
0.660123
21
0.301662
0
LINE
8
BLACK
6
CONTINUOUS
10
0.660123
20
0.301662
11
0.671409
21
0.294078
0
LINE
8
BLACK
6
CONTINUOUS
10
0.671409
20
0.294078
11
0.681749
21
0.285247
0
LINE
8
BLACK
6
CONTINUOUS
10
0.681749
20
0.285247
11
0.691006
21
0.275286
0
LINE
8
BLACK
6
CONTINUOUS
10
0.691006
20
0.275286
11
0.699056
21
0.264327
0
LINE
8
BLACK
6
CONTINUOUS
10
0.699056
20
0.264327
11
0.705793
21
0.252516
0
LINE
8
BLACK
6
CONTINUOUS
10
0.705793
20
0.252516
11
0.711128
21
0.240008
0
LINE
8
BLACK
6
CONTINUOUS
10
0.711128
20
0.240008
11
0.71499
21
0.226971
0
LINE
8
BLACK
6
CONTINUOUS
10
0.71499
20
0.226971
11
0.717327
21
0.213575
0
LINE
8
BLACK
6
CONTINUOUS
10
0.717327
20
0.213575
11
0.71811
21
0.2
0
LINE
8
BLACK
6
CONTINUOUS
10
0.71811
20
0.2
11
0.717877
21
0.192584
0
LINE
8
BLACK
6
CONTINUOUS
10
0.717877
20
0.192584
11
0.716244
21
0.179084
0
LINE
8
BLACK
6
CONTINUOUS
10
0.716244
20
0.179084
11
0.713069
21
0.165862
0
LINE
8
BLACK
6
CONTINUOUS
10
0.713069
20
0.165862
11
0.708396
21
0.153093
0
LINE
8
BLACK
6
CONTINUOUS
10
0.708396
20
0.153093
11
0.702286
21
0.140945
0
LINE
8
BLACK
6
CONTINUOUS
10
0.702286
20
0.140945
11
0.694821
21
0.12958
0
LINE
8
BLACK
6
CONTINUOUS
10
0.694821
20
0.12958
11
0.686099
21
0.119148
0
LINE
8
BLACK
6
CONTINUOUS
10
0.686099
20
0.119148
11
0.676235
21
0.109788
0
LINE
8
BLACK
6
CONTINUOUS
10
0.676235
20
0.109788
11
0.665361
21
0.101623
0
LINE
8
BLACK
6
CONTINUOUS
10
0.665361
20
0.101623
11
0.653621
21
0.094763
0
LINE
8
BLACK
6
CONTINUOUS
10
0.653621
20
0.094763
11
0.64117
21
0.0892974
0
LINE
8
BLACK
6
CONTINUOUS
10
0.64117
20
0.0892974
11
0.628173
21
0.0852991
0
LINE
8
BLACK
6
CONTINUOUS
10
0.628173
20
0.0852991
11
0.614803
21
0.0828211
0
LINE
8
BLACK
6
CONTINUOUS
10
0.614803
20
0.0828211
11
0.601237
21
0.0818962
0
LINE
8
BLACK
6
CONTINUOUS
10
0.601237
20
0.0818962
11
0.587654
21
0.0825368
0
LINE
8
BLACK
6
CONTINUOUS
10
0.587654
20
0.0825368
11
0.574235
21
0.0847343
0
LINE
8
BLACK
6
CONTINUOUS
10
0.574235
20
0.0847343
11
0.561157
21
0.0884595
0
LINE
8
BLACK
6
CONTINUOUS
10
0.561157
20
0.0884595
11
0.548595
21
0.0936631
0
LINE
8
BLACK
6
CONTINUOUS
10
0.548595
20
0.0936631
11
0.536713
21
0.100276
0
LINE
8
BLACK
6
CONTINUOUS
10
0.536713
20
0.100276
11
0.525671
21
0.108211
0
LINE
8
BLACK
6
CONTINUOUS
10
0.525671
20
0.108211
11
0.515613
21
0.117363
0
LINE
8
BLACK
6
CONTINUOUS
10
0.515613
20
0.117363
11
0.506675
21
0.127609
0
LINE
8
BLACK
6
CONTINUOUS
10
0.506675
20
0.127609
11
0.498973
21
0.138816
0
LINE
8
BLACK
6
CONTINUOUS
10
0.498973
20
0.138816
11
0.49261
21
0.150833
0
LINE
8
BLACK
6
CONTINUOUS
10
0.49261
20
0.150833
11
0.48767
21
0.163502
0
LINE
8
BLACK
6
CONTINUOUS
10
0.48767
20
0.163502
11
0.48422
21
0.176655
0
LINE
8
BLACK
6
CONTINUOUS
10
0.48422
20
0.176655
11
0.482304
21
0.190117
0
LINE
8
BLACK
6
CONTINUOUS
10
0.482304
20
0.190117
11
0.481948
21
0.20371
0
LINE
8
BLACK
6
CONTINUOUS
10
0.481948
20
0.20371
11
0.483157
21
0.217254
0
LINE
8
BLACK
6
CONTINUOUS
10
0.483157
20
0.217254
11
0.485914
21
0.230569
0
LINE
8
BLACK
6
CONTINUOUS
10
0.485914
20
0.230569
11
0.490184
21
0.243479
0
LINE
8
BLACK
6
CONTINUOUS
10
0.490184
20
0.243479
11
0.495909
21
0.255813
0
LINE
8
BLACK
6
CONTINUOUS
10
0.495909
20
0.255813
11
0.503014
21
0.267407
0
LINE
8
BLACK
6
CONTINUOUS
10
0.503014
20
0.267407
11
0.511404
21
0.278108
0
LINE
8
BLACK
6
CONTINUOUS
10
0.511404
20
0.278108
11
0.520969
21
0.287773
0
LINE
8
BLACK
6
CONTINUOUS
10
0.520969
20
0.287773
11
0.531581
21
0.296275
0
LINE
8
BLACK
6
CONTINUOUS
10
0.531581
20
0.296275
11
0.5431
21
0.303501
0
LINE
8
BLACK
6
CONTINUOUS
10
0.5431
20
0.303501
11
0.555373
21
0.309355
0
LINE
8
BLACK
6
CONTINUOUS
10
0.555373
20
0.309355
11
0.568238
21
0.313759
0
LINE
8
BLACK
6
CONTINUOUS
10
0.568238
20
0.313759
11
0.581524
21
0.316656
0
LINE
8
BLACK
6
CONTINUOUS
10
0.581524
20
0.316656
11
0.595054
21
0.318007
0
LINE
8
BLACK
6
CONTINUOUS
10
0.595054
20
0.318007
11
0.60865
21
0.317793
0
LINE
8
BLACK
6
CONTINUOUS
10
0.20865
20
0.317793
11
0.222132
21
0.316018
0
LINE
8
BLACK
6
CONTINUOUS
10
0.222132
20
0.316018
11
0.23532
21
0.312706
0
LINE
8
BLACK
6
CONTINUOUS
10
0.23532
20
0.312706
11
0.24804
21
0.307899
0
LINE
8
BLACK
6
CONTINUOUS
10
0.24804
20
0.307899
11
0.260123
21
0.301662
0
LINE
8
BLACK
6
CONTINUOUS
10
0.260123
20
0.301662
11
0.271409
21
0.294078
0
LINE
8
BLACK
6
CONTINUOUS
10
0.271409
20
0.294078
11
0.281749
21
0.285247
0
LINE
8
BLACK
6
CONTINUOUS
10
0.281749
20
0.285247
11
0.291006
21
0.275286
0
LINE
8
BLACK
6
CONTINUOUS
10
0.291006
20
0.275286
11
0.299056
21
0.264327
0
LINE
8
BLACK
6
CONTINUOUS
10
0.299056
20
0.264327
11
0.305793
21
0.252516
0
LINE
8
BLACK
6
CONTINUOUS
10
0.305793
20
0.252516
11
0.311128
21
0.240008
0
LINE
8
BLACK
6
CONTINUOUS
10
0.311128
20
0.240008
11
0.31499
21
0.226971
0
LINE
8
BLACK
6
CONTINUOUS
10
0.31499
20
0.226971
11
0.317327
21
0.213575
0
LINE
8
BLACK
6
CONTINUOUS
10
0.317327
20
0.213575
11
0.31811
21
0.2
0
LINE
8
BLACK
6
CONTINUOUS
10
0.31811
20
0.2
11
0.317877
21
0.192584
0
LINE
8
BLACK
6
CONTINUOUS
10
0.317877
20
0.192584
11
0.316244
21
0.179084
0
LINE
8
BLACK
6
CONTINUOUS
10
0.316244
20
0.179084
11
0.313069
21
0.165862
0
LINE
8
BLACK
6
CONTINUOUS
10
0.313069
20
0.165862
11
0.308396
21
0.153093
0
LINE
8
BLACK
6
CONTINUOUS
10
0.308396
20
0.153093
11
0.302286
21
0.140945
0
LINE
8
BLACK
6
CONTINUOUS
10
0.302286
20
0.140945
11
0.294821
21
0.12958
0
LINE
8
BLACK
6
CONTINUOUS
10
0.294821
20
0.12958
11
0.286099
21
0.119148
0
LINE
8
BLACK
6
CONTINUOUS
10
0.286099
20
0.119148
11
0.276235
21
0.109788
0
LINE
8
BLACK
6
CONTINUOUS
10
0.276235
20
0.109788
11
0.265361
21
0.101623
0
LINE
8
BLACK
6
CONTINUOUS
10
0.265361
20
0.101623
11
0.253621
21
0.094763
0
LINE
8
BLACK
6
CONTINUOUS
10
0.253621
20
0.094763
11
0.24117
21
0.0892974
0
LINE
8
BLACK
6
CONTINUOUS
10
0.24117
20
0.0892974
11
0.228173
21
0.0852991
0
LINE
8
BLACK
6
CONTINUOUS
10
0.228173
20
0.0852991
11
0.214803
21
0.0828211
0
LINE
8
BLACK
6
CONTINUOUS
10
0.214803
20
0.0828211
11
0.201237
21
0.0818962
0
LINE
8
BLACK
6
CONTINUOUS
10
0.201237
20
0.0818962
11
0.187654
21
0.0825368
0
LINE
8
BLACK
6
CONTINUOUS
10
0.187654
20
0.0825368
11
0.174235
21
0.0847343
0
LINE
8
BLACK
6
CONTINUOUS
10
0.174235
20
0.0847343
11
0.161157
21
0.0884595
0
LINE
8
BLACK
6
CONTINUOUS
10
0.161157
20
0.0884595
11
0.148595
21
0.0936631
0
LINE
8
BLACK
6
CONTINUOUS
10
0.148595
20
0.0936631
11
0.136713
21
0.100276
0
LINE
8
BLACK
6
CONTINUOUS
10
0.136713
20
0.100276
11
0.125671
21
0.108211
0
LINE
8
BLACK
6
CONTINUOUS
10
0.125671
20
0.108211
11
0.115613
21
0.117363
0
LINE
8
BLACK
6
CONTINUOUS
10
0.115613
20
0.117363
11
0.106675
21
0.127609
0
LINE
8
BLACK
6
CONTINUOUS
10
0.106675
20
0.127609
11
0.0989727
21
0.138816
0
LINE
8
BLACK
6
CONTINUOUS
10
0.0989727
20
0.138816
11
0.0926099
21
0.150833
0
LINE
8
BLACK
6
CONTINUOUS
10
0.0926099
20
0.150833
11
0.0876705
21
0.163502
0
LINE
8
BLACK
6
CONTINUOUS
10
0.0876705
20
0.163502
11
0.0842199
21
0.176655
0
LINE
8
BLACK
6
CONTINUOUS
10
0.0842199
20
0.176655
11
0.082304
21
0.190117
0
LINE
8
BLACK
6
CONTINUOUS
10
0.082304
20
0.190117
11
0.081948
21
0.20371
0
LINE
8
BLACK
6
CONTINUOUS
10
0.081948
20
0.20371
11
0.0831568
21
0.217254
0
LINE
8
BLACK
6
CONTINUOUS
10
0.0831568
20
0.217254
11
0.0859143
21
0.230569
0
LINE
8
BLACK
6
CONTINUOUS
10
0.0859143
20
0.230569
11
0.0901839
21
0.243479
0
LINE
8
BLACK
6
CONTINUOUS
10
0.0901839
20
0.243479
11
0.0959091
21
0.255813
0
LINE
8
BLACK
6
CONTINUOUS
10
0.0959091
20
0.255813
11
0.103014
21
0.267407
0
LINE
8
BLACK
6
CONTINUOUS
10
0.103014
20
0.267407
11
0.111404
21
0.278108
0
LINE
8
BLACK
6
CONTINUOUS
10
0.111404
20
0.278108
11
0.120969
21
0.287773
0
LINE
8
BLACK
6
CONTINUOUS
10
0.120969
20
0.287773
11
0.131581
21
0.296275
0
LINE
8
BLACK
6
CONTINUOUS
10
0.131581
20
0.296275
11
0.1431
21
0.303501
0
LINE
8
BLACK
6
CONTINUOUS
10
0.1431
20
0.303501
11
0.155373
21
0.309355
0
LINE
8
BLACK
6
CONTINUOUS
10
0.155373
20
0.309355
11
0.168238
21
0.313759
0
LINE
8
BLACK
6
CONTINUOUS
10
0.168238
20
0.313759
11
0.181524
21
0.316656
0
LINE
8
BLACK
6
CONTINUOUS
10
0.181524
20
0.316656
11
0.195054
21
0.318007
0
LINE
8
BLACK
6
CONTINUOUS
10
0.195054
20
0.318007
11
0.20865
21
0.317793
0
LINE
8
BLACK
6
CONTINUOUS
10
0.60865
20
1.51779
11
0.622132
21
1.51602
0
LINE
8
BLACK
6
CONTINUOUS
10
0.622132
20
1.51602
11
0.63532
21
1.51271
0
LINE
8
BLACK
6
CONTINUOUS
10
0.63532
20
1.51271
11
0.64804
21
1.5079
0
LINE
8
BLACK
6
CONTINUOUS
10
0.64804
20
1.5079
11
0.660123
21
1.50166
0
LINE
8
BLACK
6
CONTINUOUS
10
0.660123
20
1.50166
11
0.671409
21
1.49408
0
LINE
8
BLACK
6
CONTINUOUS
10
0.671409
20
1.49408
11
0.681749
21
1.48525
0
LINE
8
BLACK
6
CONTINUOUS
10
0.681749
20
1.48525
11
0.691006
21
1.47529
0
LINE
8
BLACK
6
CONTINUOUS
10
0.691006
20
1.47529
11
0.699056
21
1.46433
0
LINE
8
BLACK
6
CONTINUOUS
10
0.699056
20
1.46433
11
0.705793
21
1.45252
0
LINE
8
BLACK
6
CONTINUOUS
10
0.705793
20
1.45252
11
0.711128
21
1.44001
0
LINE
8
BLACK
6
CONTINUOUS
10
0.711128
20
1.44001
11
0.71499
21
1.42697
0
LINE
8
BLACK
6
CONTINUOUS
10
0.71499
20
1.42697
11
0.717327
21
1.41358
0
LINE
8
BLACK
6
CONTINUOUS
10
0.717327
20
1.41358
11
0.71811
21
1.4
0
LINE
8
BLACK
6
CONTINUOUS
10
0.71811
20
1.4
11
0.717877
21
1.39258
0
LINE
8
BLACK
6
CONTINUOUS
10
0.717877
20
1.39258
11
0.716244
21
1.37908
0
LINE
8
BLACK
6
CONTINUOUS
10
0.716244
20
1.37908
11
0.713069
21
1.36586
0
LINE
8
BLACK
6
CONTINUOUS
10
0.713069
20
1.36586
11
0.708396
21
1.35309
0
LINE
8
BLACK
6
CONTINUOUS
10
0.708396
20
1.35309
11
0.702286
21
1.34094
0
LINE
8
BLACK
6
CONTINUOUS
10
0.702286
20
1.34094
11
0.694821
21
1.32958
0
LINE
8
BLACK
6
CONTINUOUS
10
0.694821
20
1.32958
11
0.686099
21
1.31915
0
LINE
8
BLACK
6
CONTINUOUS
10
0.686099
20
1.31915
11
0.676235
21
1.30979
0
LINE
8
BLACK
6
CONTINUOUS
10
0.676235
20
1.30979
11
0.665361
21
1.30162
0
LINE
8
BLACK
6
CONTINUOUS
10
0.665361
20
1.30162
11
0.653621
21
1.29476
0
LINE
8
BLACK
6
CONTINUOUS
10
0.653621
20
1.29476
11
0.64117
21
1.2893
0
LINE
8
BLACK
6
CONTINUOUS
10
0.64117
20
1.2893
11
0.628173
21
1.2853
0
LINE
8
BLACK
6
CONTINUOUS
10
0.628173
20
1.2853
11
0.614803
21
1.28282
0
LINE
8
BLACK
6
CONTINUOUS
10
0.614803
20
1.28282
11
0.601237
21
1.2819
0
LINE
8
BLACK
6
CONTINUOUS
10
0.601237
20
1.2819
11
0.587654
21
1.28254
0
LINE
8
BLACK
6
CONTINUOUS
10
0.587654
20
1.28254
11
0.574235
21
1.28473
0
LINE
8
BLACK
6
CONTINUOUS
10
0.574235
20
1.28473
11
0.561157
21
1.28846
0
LINE
8
BLACK
6
CONTINUOUS
10
0.561157
20
1.28846
11
0.548595
21
1.29366
0
LINE
8
BLACK
6
CONTINUOUS
10
0.548595
20
1.29366
11
0.536713
21
1.30028
0
LINE
8
BLACK
6
CONTINUOUS
10
0.536713
20
1.30028
11
0.525671
21
1.30821
0
LINE
8
BLACK
6
CONTINUOUS
10
0.525671
20
1.30821
11
0.515613
21
1.31736
0
LINE
8
BLACK
6
CONTINUOUS
10
0.515613
20
1.31736
11
0.506675
21
1.32761
0
LINE
8
BLACK
6
CONTINUOUS
10
0.506675
20
1.32761
11
0.498973
21
1.33882
0
LINE
8
BLACK
6
CONTINUOUS
10
0.498973
20
1.33882
11
0.49261
21
1.35083
0
LINE
8
BLACK
6
CONTINUOUS
10
0.49261
20
1.35083
11
0.48767
21
1.3635
0
LINE
8
BLACK
6
CONTINUOUS
10
0.48767
20
1.3635
11
0.48422
21
1.37665
0
LINE
8
BLACK
6
CONTINUOUS
10
0.48422
20
1.37665
11
0.482304
21
1.39012
0
LINE
8
BLACK
6
CONTINUOUS
10
0.482304
20
1.39012
11
0.481948
21
1.40371
0
LINE
8
BLACK
6
CONTINUOUS
10
0.481948
20
1.40371
11
0.483157
21
1.41725
0
LINE
8
BLACK
6
CONTINUOUS
10
0.483157
20
1.41725
11
0.485914
21
1.43057
0
LINE
8
BLACK
6
CONTINUOUS
10
0.485914
20
1.43057
11
0.490184
21
1.44348
0
LINE
8
BLACK
6
CONTINUOUS
10
0.490184
20
1.44348
11
0.495909
21
1.45581
0
LINE
8
BLACK
6
CONTINUOUS
10
0.495909
20
1.45581
11
0.503014
21
1.46741
0
LINE
8
BLACK
6
CONTINUOUS
10
0.503014
20
1.46741
11
0.511404
21
1.47811
0
LINE
8
BLACK
6
CONTINUOUS
10
0.511404
20
1.47811
11
0.520969
21
1.48777
0
LINE
8
BLACK
6
CONTINUOUS
10
0.520969
20
1.48777
11
0.531581
21
1.49627
0
LINE
8
BLACK
6
CONTINUOUS
10
0.531581
20
1.49627
11
0.5431
21
1.5035
0
LINE
8
BLACK
6
CONTINUOUS
10
0.5431
20
1.5035
11
0.555373
21
1.50935
0
LINE
8
BLACK
6
CONTINUOUS
10
0.555373
20
1.50935
11
0.568238
21
1.51376
0
LINE
8
BLACK
6
CONTINUOUS
10
0.568238
20
1.51376
11
0.581524
21
1.51666
0
LINE
8
BLACK
6
CONTINUOUS
10
0.581524
20
1.51666
11
0.595054
21
1.51801
0
LINE
8
BLACK
6
CONTINUOUS
10
0.595054
20
1.51801
11
0.60865
21
1.51779
0
LINE
8
BLACK
6
CONTINUOUS
10
0.20865
20
1.51779
11
0.222132
21
1.51602
0
LINE
8
BLACK
6
CONTINUOUS
10
0.222132
20
1.51602
11
0.23532
21
1.51271
0
LINE
8
BLACK
6
CONTINUOUS
10
0.23532
20
1.51271
11
0.24804
21
1.5079
0
LINE
8
BLACK
6
CONTINUOUS
10
0.24804
20
1.5079
11
0.260123
21
1.50166
0
LINE
8
BLACK
6
CONTINUOUS
10
0.260123
20
1.50166
11
0.271409
21
1.49408
0
LINE
8
BLACK
6
CONTINUOUS
10
0.271409
20
1.49408
11
0.281749
21
1.48525
0
LINE
8
BLACK
6
CONTINUOUS
10
0.281749
20
1.48525
11
0.291006
21
1.47529
0
LINE
8
BLACK
6
CONTINUOUS
10
0.291006
20
1.47529
11
0.299056
21
1.46433
0
LINE
8
BLACK
6
CONTINUOUS
10
0.299056
20
1.46433
11
0.305793
21
1.45252
0
LINE
8
BLACK
6
CONTINUOUS
10
0.305793
20
1.45252
11
0.311128
21
1.44001
0
LINE
8
BLACK
6
CONTINUOUS
10
0.311128
20
1.44001
11
0.31499
21
1.42697
0
LINE
8
BLACK
6
CONTINUOUS
10
0.31499
20
1.42697
11
0.317327
21
1.41358
0
LINE
8
BLACK
6
CONTINUOUS
10
0.317327
20
1.41358
11
0.31811
21
1.4
0
LINE
8
BLACK
6
CONTINUOUS
10
0.31811
20
1.4
11
0.317877
21
1.39258
0
LINE
8
BLACK
6
CONTINUOUS
10
0.317877
20
1.39258
11
0.316244
21
1.37908
0
LINE
8
BLACK
6
CONTINUOUS
10
0.316244
20
1.37908
11
0.313069
21
1.36586
0
LINE
8
BLACK
6
CONTINUOUS
10
0.313069
20
1.36586
11
0.308396
21
1.35309
0
LINE
8
BLACK
6
CONTINUOUS
10
0.308396
20
1.35309
11
0.302286
21
1.34094
0
LINE
8
BLACK
6
CONTINUOUS
10
0.302286
20
1.34094
11
0.294821
21
1.32958
0
LINE
8
BLACK
6
CONTINUOUS
10
0.294821
20
1.32958
11
0.286099
21
1.31915
0
LINE
8
BLACK
6
CONTINUOUS
10
0.286099
20
1.31915
11
0.276235
21
1.30979
0
LINE
8
BLACK
6
CONTINUOUS
10
0.276235
20
1.30979
11
0.265361
21
1.30162
0
LINE
8
BLACK
6
CONTINUOUS
10
0.265361
20
1.30162
11
0.253621
21
1.29476
0
LINE
8
BLACK
6
CONTINUOUS
10
0.253621
20
1.29476
11
0.24117
21
1.2893
0
LINE
8
BLACK
6
CONTINUOUS
10
0.24117
20
1.2893
11
0.228173
21
1.2853
0
LINE
8
BLACK
6
CONTINUOUS
10
0.228173
20
1.2853
11
0.214803
21
1.28282
0
LINE
8
BLACK
6
CONTINUOUS
10
0.214803
20
1.28282
11
0.201237
21
1.2819
0
LINE
8
BLACK
6
CONTINUOUS
10
0.201237
20
1.2819
11
0.187654
21
1.28254
0
LINE
8
BLACK
6
CONTINUOUS
10
0.187654
20
1.28254
11
0.174235
21
1.28473
0
LINE
8
BLACK
6
CONTINUOUS
10
0.174235
20
1.28473
11
0.161157
21
1.28846
0
LINE
8
BLACK
6
CONTINUOUS
10
0.161157
20
1.28846
11
0.148595
21
1.29366
0
LINE
8
BLACK
6
CONTINUOUS
10
0.148595
20
1.29366
11
0.136713
21
1.30028
0
LINE
8
BLACK
6
CONTINUOUS
10
0.136713
20
1.30028
11
0.125671
21
1.30821
0
LINE
8
BLACK
6
CONTINUOUS
10
0.125671
20
1.30821
11
0.115613
21
1.31736
0
LINE
8
BLACK
6
CONTINUOUS
10
0.115613
20
1.31736
11
0.106675
21
1.32761
0
LINE
8
BLACK
6
CONTINUOUS
10
0.106675
20
1.32761
11
0.0989727
21
1.33882
0
LINE
8
BLACK
6
CONTINUOUS
10
0.0989727
20
1.33882
11
0.0926099
21
1.35083
0
LINE
8
BLACK
6
CONTINUOUS
10
0.0926099
20
1.35083
11
0.0876705
21
1.3635
0
LINE
8
BLACK
6
CONTINUOUS
10
0.0876705
20
1.3635
11
0.0842199
21
1.37665
0
LINE
8
BLACK
6
CONTINUOUS
10
0.0842199
20
1.37665
11
0.082304
21
1.39012
0
LINE
8
BLACK
6
CONTINUOUS
10
0.082304
20
1.39012
11
0.081948
21
1.40371
0
LINE
8
BLACK
6
CONTINUOUS
10
0.081948
20
1.40371
11
0.0831568
21
1.41725
0
LINE
8
BLACK
6
CONTINUOUS
10
0.0831568
20
1.41725
11
0.0859143
21
1.43057
0
LINE
8
BLACK
6
CONTINUOUS
10
0.0859143
20
1.43057
11
0.0901839
21
1.44348
0
LINE
8
BLACK
6
CONTINUOUS
10
0.0901839
20
1.44348
11
0.0959091
21
1.45581
0
LINE
8
BLACK
6
CONTINUOUS
10
0.0959091
20
1.45581
11
0.103014
21
1.46741
0
LINE
8
BLACK
6
CONTINUOUS
10
0.103014
20
1.46741
11
0.111404
21
1.47811
0
LINE
8
BLACK
6
CONTINUOUS
10
0.111404
20
1.47811
11
0.120969
21
1.48777
0
LINE
8
BLACK
6
CONTINUOUS
10
0.120969
20
1.48777
11
0.131581
21
1.49627
0
LINE
8
BLACK
6
CONTINUOUS
10
0.131581
20
1.49627
11
0.1431
21
1.5035
0
LINE
8
BLACK
6
CONTINUOUS
10
0.1431
20
1.5035
11
0.155373
21
1.50935
0
LINE
8
BLACK
6
CONTINUOUS
10
0.155373
20
1.50935
11
0.168238
21
1.51376
0
LINE
8
BLACK
6
CONTINUOUS
10
0.168238
20
1.51376
11
0.181524
21
1.51666
0
LINE
8
BLACK
6
CONTINUOUS
10
0.181524
20
1.51666
11
0.195054
21
1.51801
0
LINE
8
BLACK
6
CONTINUOUS
10
0.195054
20
1.51801
11
0.20865
21
1.51779
  0
ENDSEC
  0
EOF
