  0
SECTION
  2
HEADER
  9
$ANGBASE
  50
0.0
  9
$ANGDIR
  70
1
  9
$MEASUREMENT
  70
0
  0
ENDSEC
  0
SECTION
  2
TABLES
  0
TABLE
  2
LTYPE
  70
4
  0
LTYPE
  5
40F
  2
CONTINUOUS
  70
0
  3
Solid line
  72
65
  73
0
  40
0.0
  0
LTYPE
  5
410
  2
DASHDOT
 70
0
  3
Dash Dot ____ _ ____ _
 72
65
 73
4
 40
2.0
 49
1.25
 49
-0.25
 49
0.25
 49
-0.25
  0
LTYPE
  5
411
  2
DASHED
 70
0
  3
Dashed __ __ __ __ __
 72
65
 73
2
 40
0.75
 49
0.5
 49
-0.25
  0
LTYPE
  5
43B
  2
DOTTED
 70
0
  3
Dotted .  .  .  .
 72
65
 73
2
 40
0.2
 49
0.0
 49
-0.2
  0
ENDTAB
  0
TABLE
  2
STYLE
  70
4
  0
STYLE
  2
KICAD
  70
0
  40
0
  41
1
  42
1
  50
0
  71
0
  3
isocp.shx
  0
STYLE
  2
KICADB
  70
0
  40
0
  41
1
  42
1
  50
0
  71
0
  3
isocp.shx
  0
STYLE
  2
KICADI
  70
0
  40
0
  41
1
  42
1
  50
15
  71
0
  3
isocp.shx
  0
STYLE
  2
KICADBI
  70
0
  40
0
  41
1
  42
1
  50
15
  71
0
  3
isocp.shx
  0
ENDTAB
  0
TABLE
  2
LAYER
  70
1
  0
LAYER
  2
BLACK
  70
0
  62
7
  6
CONTINUOUS
  0
ENDTAB
  0
ENDSEC
  0
SECTION
  2
ENTITIES
0
LINE
8
BLACK
6
CONTINUOUS
10
0.538583
20
0.854685
11
0.539279
21
0.854397
0
LINE
8
BLACK
6
CONTINUOUS
10
0.539279
20
0.854397
11
0.539567
21
0.853701
0
LINE
8
BLACK
6
CONTINUOUS
10
0.539567
20
0.853701
11
0.539567
21
0.566299
0
LINE
8
BLACK
6
CONTINUOUS
10
0.539567
20
0.566299
11
0.539279
21
0.565603
0
LINE
8
BLACK
6
CONTINUOUS
10
0.539279
20
0.565603
11
0.538583
21
0.565315
0
LINE
8
BLACK
6
CONTINUOUS
10
0.538583
20
0.565315
11
0.361417
21
0.565315
0
LINE
8
BLACK
6
CONTINUOUS
10
0.361417
20
0.565315
11
0.360721
21
0.565603
0
LINE
8
BLACK
6
CONTINUOUS
10
0.360721
20
0.565603
11
0.360433
21
0.566299
0
LINE
8
BLACK
6
CONTINUOUS
10
0.360433
20
0.566299
11
0.360433
21
0.853701
0
LINE
8
BLACK
6
CONTINUOUS
10
0.360433
20
0.853701
11
0.360721
21
0.854397
0
LINE
8
BLACK
6
CONTINUOUS
10
0.360721
20
0.854397
11
0.361417
21
0.854685
0
LINE
8
BLACK
6
CONTINUOUS
10
0.361417
20
0.854685
11
0.538583
21
0.854685
0
LINE
8
BLACK
6
CONTINUOUS
10
0.362402
20
0.852717
11
0.362402
21
0.567283
0
LINE
8
BLACK
6
CONTINUOUS
10
0.362402
20
0.567283
11
0.537598
21
0.567283
0
LINE
8
BLACK
6
CONTINUOUS
10
0.537598
20
0.567283
11
0.537598
21
0.852717
0
LINE
8
BLACK
6
CONTINUOUS
10
0.537598
20
0.852717
11
0.362402
21
0.852717
0
LINE
8
BLACK
6
CONTINUOUS
10
0.323465
20
1.02783
11
0.324161
21
1.02755
0
LINE
8
BLACK
6
CONTINUOUS
10
0.324161
20
1.02755
11
0.324449
21
1.02685
0
LINE
8
BLACK
6
CONTINUOUS
10
0.324449
20
1.02685
11
0.324449
21
0.839449
0
LINE
8
BLACK
6
CONTINUOUS
10
0.324449
20
0.839449
11
0.324161
21
0.838753
0
LINE
8
BLACK
6
CONTINUOUS
10
0.324161
20
0.838753
11
0.323465
21
0.838465
0
LINE
8
BLACK
6
CONTINUOUS
10
0.323465
20
0.838465
11
0.181732
21
0.838465
0
LINE
8
BLACK
6
CONTINUOUS
10
0.181732
20
0.838465
11
0.181036
21
0.838753
0
LINE
8
BLACK
6
CONTINUOUS
10
0.181036
20
0.838753
11
0.180748
21
0.839449
0
LINE
8
BLACK
6
CONTINUOUS
10
0.180748
20
0.839449
11
0.180748
21
1.02685
0
LINE
8
BLACK
6
CONTINUOUS
10
0.180748
20
1.02685
11
0.181036
21
1.02755
0
LINE
8
BLACK
6
CONTINUOUS
10
0.181036
20
1.02755
11
0.181732
21
1.02783
0
LINE
8
BLACK
6
CONTINUOUS
10
0.181732
20
1.02783
11
0.323465
21
1.02783
0
LINE
8
BLACK
6
CONTINUOUS
10
0.182717
20
1.02587
11
0.182717
21
0.840433
0
LINE
8
BLACK
6
CONTINUOUS
10
0.182717
20
0.840433
11
0.32248
21
0.840433
0
LINE
8
BLACK
6
CONTINUOUS
10
0.32248
20
0.840433
11
0.32248
21
1.02587
0
LINE
8
BLACK
6
CONTINUOUS
10
0.32248
20
1.02587
11
0.182717
21
1.02587
0
LINE
8
BLACK
6
CONTINUOUS
10
0.443307
20
1.32531
11
0.444003
21
1.32503
0
LINE
8
BLACK
6
CONTINUOUS
10
0.444003
20
1.32503
11
0.444291
21
1.32433
0
LINE
8
BLACK
6
CONTINUOUS
10
0.444291
20
1.32433
11
0.444291
21
1.11567
0
LINE
8
BLACK
6
CONTINUOUS
10
0.444291
20
1.11567
11
0.444003
21
1.11497
0
LINE
8
BLACK
6
CONTINUOUS
10
0.444003
20
1.11497
11
0.443307
21
1.11469
0
LINE
8
BLACK
6
CONTINUOUS
10
0.443307
20
1.11469
11
0.356693
21
1.11469
0
LINE
8
BLACK
6
CONTINUOUS
10
0.356693
20
1.11469
11
0.355997
21
1.11497
0
LINE
8
BLACK
6
CONTINUOUS
10
0.355997
20
1.11497
11
0.355709
21
1.11567
0
LINE
8
BLACK
6
CONTINUOUS
10
0.355709
20
1.11567
11
0.355709
21
1.32433
0
LINE
8
BLACK
6
CONTINUOUS
10
0.355709
20
1.32433
11
0.355997
21
1.32503
0
LINE
8
BLACK
6
CONTINUOUS
10
0.355997
20
1.32503
11
0.356693
21
1.32531
0
LINE
8
BLACK
6
CONTINUOUS
10
0.356693
20
1.32531
11
0.443307
21
1.32531
0
LINE
8
BLACK
6
CONTINUOUS
10
0.357677
20
1.32335
11
0.357677
21
1.11665
0
LINE
8
BLACK
6
CONTINUOUS
10
0.357677
20
1.11665
11
0.442323
21
1.11665
0
LINE
8
BLACK
6
CONTINUOUS
10
0.442323
20
1.11665
11
0.442323
21
1.32335
0
LINE
8
BLACK
6
CONTINUOUS
10
0.442323
20
1.32335
11
0.357677
21
1.32335
  0
ENDSEC
  0
EOF
