  0
SECTION
  2
HEADER
  9
$ANGBASE
  50
0.0
  9
$ANGDIR
  70
1
  9
$MEASUREMENT
  70
0
  0
ENDSEC
  0
SECTION
  2
TABLES
  0
TABLE
  2
LTYPE
  70
4
  0
LTYPE
  5
40F
  2
CONTINUOUS
  70
0
  3
Solid line
  72
65
  73
0
  40
0.0
  0
LTYPE
  5
410
  2
DASHDOT
 70
0
  3
Dash Dot ____ _ ____ _
 72
65
 73
4
 40
2.0
 49
1.25
 49
-0.25
 49
0.25
 49
-0.25
  0
LTYPE
  5
411
  2
DASHED
 70
0
  3
Dashed __ __ __ __ __
 72
65
 73
2
 40
0.75
 49
0.5
 49
-0.25
  0
LTYPE
  5
43B
  2
DOTTED
 70
0
  3
Dotted .  .  .  .
 72
65
 73
2
 40
0.2
 49
0.0
 49
-0.2
  0
ENDTAB
  0
TABLE
  2
STYLE
  70
4
  0
STYLE
  2
KICAD
  70
0
  40
0
  41
1
  42
1
  50
0
  71
0
  3
isocp.shx
  0
STYLE
  2
KICADB
  70
0
  40
0
  41
1
  42
1
  50
0
  71
0
  3
isocp.shx
  0
STYLE
  2
KICADI
  70
0
  40
0
  41
1
  42
1
  50
15
  71
0
  3
isocp.shx
  0
STYLE
  2
KICADBI
  70
0
  40
0
  41
1
  42
1
  50
15
  71
0
  3
isocp.shx
  0
ENDTAB
  0
TABLE
  2
LAYER
  70
1
  0
LAYER
  2
BLACK
  70
0
  62
7
  6
CONTINUOUS
  0
ENDTAB
  0
ENDSEC
  0
SECTION
  2
ENTITIES
0
LINE
8
BLACK
6
CONTINUOUS
10
0.0251444
20
1.57215
11
0.0262282
21
1.57377
0
LINE
8
BLACK
6
CONTINUOUS
10
0.0262282
20
1.57377
11
0.0278504
21
1.57486
0
LINE
8
BLACK
6
CONTINUOUS
10
0.0278504
20
1.57486
11
0.0297638
21
1.57524
0
LINE
8
BLACK
6
CONTINUOUS
10
0.0297638
20
1.57524
11
0.770236
21
1.57524
0
LINE
8
BLACK
6
CONTINUOUS
10
0.770236
20
1.57524
11
0.77215
21
1.57486
0
LINE
8
BLACK
6
CONTINUOUS
10
0.77215
20
1.57486
11
0.773772
21
1.57377
0
LINE
8
BLACK
6
CONTINUOUS
10
0.773772
20
1.57377
11
0.774856
21
1.57215
0
LINE
8
BLACK
6
CONTINUOUS
10
0.774856
20
1.57215
11
0.775236
21
1.57024
0
LINE
8
BLACK
6
CONTINUOUS
10
0.775236
20
1.57024
11
0.775236
21
0.0297638
0
LINE
8
BLACK
6
CONTINUOUS
10
0.775236
20
0.0297638
11
0.774856
21
0.0278504
0
LINE
8
BLACK
6
CONTINUOUS
10
0.774856
20
0.0278504
11
0.773772
21
0.0262282
0
LINE
8
BLACK
6
CONTINUOUS
10
0.773772
20
0.0262282
11
0.77215
21
0.0251444
0
LINE
8
BLACK
6
CONTINUOUS
10
0.77215
20
0.0251444
11
0.770236
21
0.0247638
0
LINE
8
BLACK
6
CONTINUOUS
10
0.770236
20
0.0247638
11
0.0297638
21
0.0247638
0
LINE
8
BLACK
6
CONTINUOUS
10
0.0297638
20
0.0247638
11
0.0278504
21
0.0251444
0
LINE
8
BLACK
6
CONTINUOUS
10
0.0278504
20
0.0251444
11
0.0262282
21
0.0262282
0
LINE
8
BLACK
6
CONTINUOUS
10
0.0262282
20
0.0262282
11
0.0251444
21
0.0278504
0
LINE
8
BLACK
6
CONTINUOUS
10
0.0251444
20
0.0278504
11
0.0247638
21
0.0297638
0
LINE
8
BLACK
6
CONTINUOUS
10
0.0247638
20
0.0297638
11
0.0247638
21
1.57024
0
LINE
8
BLACK
6
CONTINUOUS
10
0.0247638
20
1.57024
11
0.0251444
21
1.57215
0
LINE
8
BLACK
6
CONTINUOUS
10
0.371752
20
0.95777
11
0.366651
21
0.956756
0
LINE
8
BLACK
6
CONTINUOUS
10
0.366651
20
0.956756
11
0.362237
21
0.953806
0
LINE
8
BLACK
6
CONTINUOUS
10
0.362237
20
0.953806
11
0.361705
21
0.953274
0
LINE
8
BLACK
6
CONTINUOUS
10
0.361705
20
0.953274
11
0.3613
21
0.953004
0
LINE
8
BLACK
6
CONTINUOUS
10
0.3613
20
0.953004
11
0.331572
21
0.923275
0
LINE
8
BLACK
6
CONTINUOUS
10
0.331572
20
0.923275
11
0.32995
21
0.922192
0
LINE
8
BLACK
6
CONTINUOUS
10
0.32995
20
0.922192
11
0.328037
21
0.921811
0
LINE
8
BLACK
6
CONTINUOUS
10
0.328037
20
0.921811
11
0.308014
21
0.921811
0
LINE
8
BLACK
6
CONTINUOUS
10
0.308014
20
0.921811
11
0.307038
21
0.921907
0
LINE
8
BLACK
6
CONTINUOUS
10
0.307038
20
0.921907
11
0.302303
21
0.922849
0
LINE
8
BLACK
6
CONTINUOUS
10
0.302303
20
0.922849
11
0.277697
21
0.922849
0
LINE
8
BLACK
6
CONTINUOUS
10
0.277697
20
0.922849
11
0.272596
21
0.921834
0
LINE
8
BLACK
6
CONTINUOUS
10
0.272596
20
0.921834
11
0.268689
21
0.919224
0
LINE
8
BLACK
6
CONTINUOUS
10
0.268689
20
0.919224
11
0.266079
21
0.915317
0
LINE
8
BLACK
6
CONTINUOUS
10
0.266079
20
0.915317
11
0.265162
21
0.910709
0
LINE
8
BLACK
6
CONTINUOUS
10
0.265162
20
0.910709
11
0.265394
21
0.910709
0
LINE
8
BLACK
6
CONTINUOUS
10
0.265394
20
0.910709
11
0.265394
21
0.849291
0
LINE
8
BLACK
6
CONTINUOUS
10
0.265394
20
0.849291
11
0.265162
21
0.849291
0
LINE
8
BLACK
6
CONTINUOUS
10
0.265162
20
0.849291
11
0.266079
21
0.844683
0
LINE
8
BLACK
6
CONTINUOUS
10
0.266079
20
0.844683
11
0.268689
21
0.840776
0
LINE
8
BLACK
6
CONTINUOUS
10
0.268689
20
0.840776
11
0.272596
21
0.838166
0
LINE
8
BLACK
6
CONTINUOUS
10
0.272596
20
0.838166
11
0.277697
21
0.837151
0
LINE
8
BLACK
6
CONTINUOUS
10
0.277697
20
0.837151
11
0.302303
21
0.837151
0
LINE
8
BLACK
6
CONTINUOUS
10
0.302303
20
0.837151
11
0.307038
21
0.838093
0
LINE
8
BLACK
6
CONTINUOUS
10
0.307038
20
0.838093
11
0.308014
21
0.838189
0
LINE
8
BLACK
6
CONTINUOUS
10
0.308014
20
0.838189
11
0.343037
21
0.838189
0
LINE
8
BLACK
6
CONTINUOUS
10
0.343037
20
0.838189
11
0.34495
21
0.837808
0
LINE
8
BLACK
6
CONTINUOUS
10
0.34495
20
0.837808
11
0.346572
21
0.836725
0
LINE
8
BLACK
6
CONTINUOUS
10
0.346572
20
0.836725
11
0.381725
21
0.801572
0
LINE
8
BLACK
6
CONTINUOUS
10
0.381725
20
0.801572
11
0.382808
21
0.79995
0
LINE
8
BLACK
6
CONTINUOUS
10
0.382808
20
0.79995
11
0.383189
21
0.798037
0
LINE
8
BLACK
6
CONTINUOUS
10
0.383189
20
0.798037
11
0.383189
21
0.735492
0
LINE
8
BLACK
6
CONTINUOUS
10
0.383189
20
0.735492
11
0.384179
21
0.730518
0
LINE
8
BLACK
6
CONTINUOUS
10
0.384179
20
0.730518
11
0.386718
21
0.726718
0
LINE
8
BLACK
6
CONTINUOUS
10
0.386718
20
0.726718
11
0.389673
21
0.724743
0
LINE
8
BLACK
6
CONTINUOUS
10
0.389673
20
0.724743
11
0.390134
21
0.724977
0
LINE
8
BLACK
6
CONTINUOUS
10
0.390134
20
0.724977
11
0.395
21
0.725748
0
LINE
8
BLACK
6
CONTINUOUS
10
0.395
20
0.725748
11
0.399866
21
0.724977
0
LINE
8
BLACK
6
CONTINUOUS
10
0.399866
20
0.724977
11
0.403376
21
0.723189
0
LINE
8
BLACK
6
CONTINUOUS
10
0.403376
20
0.723189
11
0.456624
21
0.723189
0
LINE
8
BLACK
6
CONTINUOUS
10
0.456624
20
0.723189
11
0.460134
21
0.724977
0
LINE
8
BLACK
6
CONTINUOUS
10
0.460134
20
0.724977
11
0.465
21
0.725748
0
LINE
8
BLACK
6
CONTINUOUS
10
0.465
20
0.725748
11
0.469866
21
0.724977
0
LINE
8
BLACK
6
CONTINUOUS
10
0.469866
20
0.724977
11
0.473376
21
0.723189
0
LINE
8
BLACK
6
CONTINUOUS
10
0.473376
20
0.723189
11
0.494508
21
0.723189
0
LINE
8
BLACK
6
CONTINUOUS
10
0.494508
20
0.723189
11
0.499482
21
0.724179
0
LINE
8
BLACK
6
CONTINUOUS
10
0.499482
20
0.724179
11
0.503282
21
0.726718
0
LINE
8
BLACK
6
CONTINUOUS
10
0.503282
20
0.726718
11
0.505821
21
0.730518
0
LINE
8
BLACK
6
CONTINUOUS
10
0.505821
20
0.730518
11
0.506811
21
0.735492
0
LINE
8
BLACK
6
CONTINUOUS
10
0.506811
20
0.735492
11
0.506811
21
0.742392
0
LINE
8
BLACK
6
CONTINUOUS
10
0.506811
20
0.742392
11
0.506907
21
0.743367
0
LINE
8
BLACK
6
CONTINUOUS
10
0.506907
20
0.743367
11
0.507416
21
0.745926
0
LINE
8
BLACK
6
CONTINUOUS
10
0.507416
20
0.745926
11
0.507416
21
0.838642
0
LINE
8
BLACK
6
CONTINUOUS
10
0.507416
20
0.838642
11
0.507797
21
0.840555
0
LINE
8
BLACK
6
CONTINUOUS
10
0.507797
20
0.840555
11
0.50888
21
0.842177
0
LINE
8
BLACK
6
CONTINUOUS
10
0.50888
20
0.842177
11
0.538004
21
0.8713
0
LINE
8
BLACK
6
CONTINUOUS
10
0.538004
20
0.8713
11
0.540821
21
0.875518
0
LINE
8
BLACK
6
CONTINUOUS
10
0.540821
20
0.875518
11
0.541811
21
0.880492
0
LINE
8
BLACK
6
CONTINUOUS
10
0.541811
20
0.880492
11
0.541811
21
0.944508
0
LINE
8
BLACK
6
CONTINUOUS
10
0.541811
20
0.944508
11
0.540821
21
0.949482
0
LINE
8
BLACK
6
CONTINUOUS
10
0.540821
20
0.949482
11
0.538274
21
0.953296
0
LINE
8
BLACK
6
CONTINUOUS
10
0.538274
20
0.953296
11
0.537763
21
0.953806
0
LINE
8
BLACK
6
CONTINUOUS
10
0.537763
20
0.953806
11
0.533349
21
0.956756
0
LINE
8
BLACK
6
CONTINUOUS
10
0.533349
20
0.956756
11
0.528248
21
0.95777
0
LINE
8
BLACK
6
CONTINUOUS
10
0.528248
20
0.95777
11
0.371752
21
0.95777
0
LINE
8
BLACK
6
CONTINUOUS
10
0.277205
20
0.849291
11
0.277205
21
0.910709
0
LINE
8
BLACK
6
CONTINUOUS
10
0.277205
20
0.910709
11
0.302795
21
0.910709
0
LINE
8
BLACK
6
CONTINUOUS
10
0.302795
20
0.910709
11
0.302795
21
0.91
0
LINE
8
BLACK
6
CONTINUOUS
10
0.302795
20
0.91
11
0.334508
21
0.91
0
LINE
8
BLACK
6
CONTINUOUS
10
0.334508
20
0.91
11
0.334963
21
0.910091
0
LINE
8
BLACK
6
CONTINUOUS
10
0.334963
20
0.910091
11
0.335348
21
0.910348
0
LINE
8
BLACK
6
CONTINUOUS
10
0.335348
20
0.910348
11
0.368536
21
0.943536
0
LINE
8
BLACK
6
CONTINUOUS
10
0.368536
20
0.943536
11
0.370158
21
0.944619
0
LINE
8
BLACK
6
CONTINUOUS
10
0.370158
20
0.944619
11
0.37126
21
0.944839
0
LINE
8
BLACK
6
CONTINUOUS
10
0.37126
20
0.944839
11
0.37126
21
0.94563
0
LINE
8
BLACK
6
CONTINUOUS
10
0.37126
20
0.94563
11
0.52874
21
0.94563
0
LINE
8
BLACK
6
CONTINUOUS
10
0.52874
20
0.94563
11
0.52874
21
0.943229
0
LINE
8
BLACK
6
CONTINUOUS
10
0.52874
20
0.943229
11
0.529619
21
0.941913
0
LINE
8
BLACK
6
CONTINUOUS
10
0.529619
20
0.941913
11
0.53
21
0.94
0
LINE
8
BLACK
6
CONTINUOUS
10
0.53
20
0.94
11
0.53
21
0.882071
0
LINE
8
BLACK
6
CONTINUOUS
10
0.53
20
0.882071
11
0.529619
21
0.880158
0
LINE
8
BLACK
6
CONTINUOUS
10
0.529619
20
0.880158
11
0.528536
21
0.878536
0
LINE
8
BLACK
6
CONTINUOUS
10
0.528536
20
0.878536
11
0.495348
21
0.845348
0
LINE
8
BLACK
6
CONTINUOUS
10
0.495348
20
0.845348
11
0.495091
21
0.844963
0
LINE
8
BLACK
6
CONTINUOUS
10
0.495091
20
0.844963
11
0.495
21
0.844508
0
LINE
8
BLACK
6
CONTINUOUS
10
0.495
20
0.844508
11
0.495
21
0.843858
0
LINE
8
BLACK
6
CONTINUOUS
10
0.495
20
0.843858
11
0.495276
21
0.843858
0
LINE
8
BLACK
6
CONTINUOUS
10
0.495276
20
0.843858
11
0.495276
21
0.745433
0
LINE
8
BLACK
6
CONTINUOUS
10
0.495276
20
0.745433
11
0.495
21
0.745433
0
LINE
8
BLACK
6
CONTINUOUS
10
0.495
20
0.745433
11
0.495
21
0.74
0
LINE
8
BLACK
6
CONTINUOUS
10
0.495
20
0.74
11
0.494619
21
0.738087
0
LINE
8
BLACK
6
CONTINUOUS
10
0.494619
20
0.738087
11
0.493536
21
0.736464
0
LINE
8
BLACK
6
CONTINUOUS
10
0.493536
20
0.736464
11
0.491913
21
0.735381
0
LINE
8
BLACK
6
CONTINUOUS
10
0.491913
20
0.735381
11
0.49
21
0.735
0
LINE
8
BLACK
6
CONTINUOUS
10
0.49
20
0.735
11
0.477655
21
0.735
0
LINE
8
BLACK
6
CONTINUOUS
10
0.477655
20
0.735
11
0.475741
21
0.735381
0
LINE
8
BLACK
6
CONTINUOUS
10
0.475741
20
0.735381
11
0.470482
21
0.737559
0
LINE
8
BLACK
6
CONTINUOUS
10
0.470482
20
0.737559
11
0.459518
21
0.737559
0
LINE
8
BLACK
6
CONTINUOUS
10
0.459518
20
0.737559
11
0.454259
21
0.735381
0
LINE
8
BLACK
6
CONTINUOUS
10
0.454259
20
0.735381
11
0.452345
21
0.735
0
LINE
8
BLACK
6
CONTINUOUS
10
0.452345
20
0.735
11
0.407654
21
0.735
0
LINE
8
BLACK
6
CONTINUOUS
10
0.407654
20
0.735
11
0.405741
21
0.735381
0
LINE
8
BLACK
6
CONTINUOUS
10
0.405741
20
0.735381
11
0.400482
21
0.737559
0
LINE
8
BLACK
6
CONTINUOUS
10
0.400482
20
0.737559
11
0.4
21
0.737559
0
LINE
8
BLACK
6
CONTINUOUS
10
0.4
20
0.737559
11
0.398087
21
0.73794
0
LINE
8
BLACK
6
CONTINUOUS
10
0.398087
20
0.73794
11
0.396464
21
0.739023
0
LINE
8
BLACK
6
CONTINUOUS
10
0.396464
20
0.739023
11
0.395381
21
0.740646
0
LINE
8
BLACK
6
CONTINUOUS
10
0.395381
20
0.740646
11
0.395
21
0.742559
0
LINE
8
BLACK
6
CONTINUOUS
10
0.395
20
0.742559
11
0.395
21
0.804508
0
LINE
8
BLACK
6
CONTINUOUS
10
0.395
20
0.804508
11
0.394909
21
0.804963
0
LINE
8
BLACK
6
CONTINUOUS
10
0.394909
20
0.804963
11
0.394652
21
0.805348
0
LINE
8
BLACK
6
CONTINUOUS
10
0.394652
20
0.805348
11
0.350348
21
0.849652
0
LINE
8
BLACK
6
CONTINUOUS
10
0.350348
20
0.849652
11
0.349963
21
0.849909
0
LINE
8
BLACK
6
CONTINUOUS
10
0.349963
20
0.849909
11
0.349508
21
0.85
0
LINE
8
BLACK
6
CONTINUOUS
10
0.349508
20
0.85
11
0.302795
21
0.85
0
LINE
8
BLACK
6
CONTINUOUS
10
0.302795
20
0.85
11
0.302795
21
0.849291
0
LINE
8
BLACK
6
CONTINUOUS
10
0.302795
20
0.849291
11
0.277205
21
0.849291
0
CIRCLE
8
BLACK
10
0.055
20
0.53
40
0.00787402
0
CIRCLE
8
BLACK
10
0.11
20
0.53
40
0.00787402
0
CIRCLE
8
BLACK
10
0.465
20
0.71
40
0.00787402
0
CIRCLE
8
BLACK
10
0.195
20
1.05
40
0.00787402
0
CIRCLE
8
BLACK
10
0.665
20
0.77
40
0.00787402
0
CIRCLE
8
BLACK
10
0.19
20
0.495
40
0.00787402
0
CIRCLE
8
BLACK
10
0.355
20
0.775
40
0.00787402
0
CIRCLE
8
BLACK
10
0.315
20
0.81
40
0.00787402
0
CIRCLE
8
BLACK
10
0.19
20
0.445
40
0.00787402
0
CIRCLE
8
BLACK
10
0.725
20
0.77
40
0.00787402
0
CIRCLE
8
BLACK
10
0.365
20
0.67
40
0.00787402
0
CIRCLE
8
BLACK
10
0.5
20
1.165
40
0.00787402
0
CIRCLE
8
BLACK
10
0.165
20
0.885
40
0.00787402
0
CIRCLE
8
BLACK
10
0.19
20
0.4
40
0.00787402
0
CIRCLE
8
BLACK
10
0.355
20
0.72
40
0.00787402
0
CIRCLE
8
BLACK
10
0.55
20
1.165
40
0.00787402
0
CIRCLE
8
BLACK
10
0.725
20
0.895
40
0.00787402
0
CIRCLE
8
BLACK
10
0.25
20
1.05
40
0.00787402
0
CIRCLE
8
BLACK
10
0.395
20
0.71
40
0.00787402
0
CIRCLE
8
BLACK
10
0.265
20
0.81
40
0.00787402
0
CIRCLE
8
BLACK
10
0.055
20
0.585
40
0.00787402
0
CIRCLE
8
BLACK
10
0.62
20
0.895
40
0.00787402
0
CIRCLE
8
BLACK
10
0.615
20
0.77
40
0.00787402
0
CIRCLE
8
BLACK
10
0.19
20
1.13
40
0.00787402
0
CIRCLE
8
BLACK
10
0.67
20
0.895
40
0.00787402
0
CIRCLE
8
BLACK
10
0.155
20
0.53
40
0.00787402
  0
ENDSEC
  0
EOF
