  0
SECTION
  2
HEADER
  9
$ANGBASE
  50
0.0
  9
$ANGDIR
  70
1
  9
$MEASUREMENT
  70
0
  0
ENDSEC
  0
SECTION
  2
TABLES
  0
TABLE
  2
LTYPE
  70
4
  0
LTYPE
  5
40F
  2
CONTINUOUS
  70
0
  3
Solid line
  72
65
  73
0
  40
0.0
  0
LTYPE
  5
410
  2
DASHDOT
 70
0
  3
Dash Dot ____ _ ____ _
 72
65
 73
4
 40
2.0
 49
1.25
 49
-0.25
 49
0.25
 49
-0.25
  0
LTYPE
  5
411
  2
DASHED
 70
0
  3
Dashed __ __ __ __ __
 72
65
 73
2
 40
0.75
 49
0.5
 49
-0.25
  0
LTYPE
  5
43B
  2
DOTTED
 70
0
  3
Dotted .  .  .  .
 72
65
 73
2
 40
0.2
 49
0.0
 49
-0.2
  0
ENDTAB
  0
TABLE
  2
STYLE
  70
4
  0
STYLE
  2
KICAD
  70
0
  40
0
  41
1
  42
1
  50
0
  71
0
  3
isocp.shx
  0
STYLE
  2
KICADB
  70
0
  40
0
  41
1
  42
1
  50
0
  71
0
  3
isocp.shx
  0
STYLE
  2
KICADI
  70
0
  40
0
  41
1
  42
1
  50
15
  71
0
  3
isocp.shx
  0
STYLE
  2
KICADBI
  70
0
  40
0
  41
1
  42
1
  50
15
  71
0
  3
isocp.shx
  0
ENDTAB
  0
TABLE
  2
LAYER
  70
1
  0
LAYER
  2
BLACK
  70
0
  62
7
  6
CONTINUOUS
  0
ENDTAB
  0
ENDSEC
  0
SECTION
  2
ENTITIES
0
LINE
8
BLACK
6
CONTINUOUS
10
0.477922
20
0.229534
11
0.481975
21
0.242958
0
LINE
8
BLACK
6
CONTINUOUS
10
0.481975
20
0.242958
11
0.487499
21
0.255846
0
LINE
8
BLACK
6
CONTINUOUS
10
0.487499
20
0.255846
11
0.494425
21
0.268039
0
LINE
8
BLACK
6
CONTINUOUS
10
0.494425
20
0.268039
11
0.502667
21
0.279383
0
LINE
8
BLACK
6
CONTINUOUS
10
0.502667
20
0.279383
11
0.512122
21
0.289738
0
LINE
8
BLACK
6
CONTINUOUS
10
0.512122
20
0.289738
11
0.522673
21
0.298974
0
LINE
8
BLACK
6
CONTINUOUS
10
0.522673
20
0.298974
11
0.534187
21
0.306977
0
LINE
8
BLACK
6
CONTINUOUS
10
0.534187
20
0.306977
11
0.546522
21
0.313646
0
LINE
8
BLACK
6
CONTINUOUS
10
0.546522
20
0.313646
11
0.559523
21
0.318899
0
LINE
8
BLACK
6
CONTINUOUS
10
0.559523
20
0.318899
11
0.573029
21
0.32267
0
LINE
8
BLACK
6
CONTINUOUS
10
0.573029
20
0.32267
11
0.586871
21
0.324912
0
LINE
8
BLACK
6
CONTINUOUS
10
0.586871
20
0.324912
11
0.600877
21
0.325597
0
LINE
8
BLACK
6
CONTINUOUS
10
0.600877
20
0.325597
11
0.614872
21
0.324716
0
LINE
8
BLACK
6
CONTINUOUS
10
0.614872
20
0.324716
11
0.628681
21
0.322281
0
LINE
8
BLACK
6
CONTINUOUS
10
0.628681
20
0.322281
11
0.642133
21
0.318322
0
LINE
8
BLACK
6
CONTINUOUS
10
0.642133
20
0.318322
11
0.655059
21
0.312889
0
LINE
8
BLACK
6
CONTINUOUS
10
0.655059
20
0.312889
11
0.6673
21
0.306048
0
LINE
8
BLACK
6
CONTINUOUS
10
0.6673
20
0.306048
11
0.678701
21
0.297885
0
LINE
8
BLACK
6
CONTINUOUS
10
0.678701
20
0.297885
11
0.689122
21
0.288502
0
LINE
8
BLACK
6
CONTINUOUS
10
0.689122
20
0.288502
11
0.698432
21
0.278016
0
LINE
8
BLACK
6
CONTINUOUS
10
0.698432
20
0.278016
11
0.706515
21
0.266558
0
LINE
8
BLACK
6
CONTINUOUS
10
0.706515
20
0.266558
11
0.71327
21
0.25427
0
LINE
8
BLACK
6
CONTINUOUS
10
0.71327
20
0.25427
11
0.718614
21
0.241306
0
LINE
8
BLACK
6
CONTINUOUS
10
0.718614
20
0.241306
11
0.722479
21
0.227826
0
LINE
8
BLACK
6
CONTINUOUS
10
0.722479
20
0.227826
11
0.724817
21
0.214001
0
LINE
8
BLACK
6
CONTINUOUS
10
0.724817
20
0.214001
11
0.7256
21
0.2
0
LINE
8
BLACK
6
CONTINUOUS
10
0.7256
20
0.2
11
0.725551
21
0.196493
0
LINE
8
BLACK
6
CONTINUOUS
10
0.725551
20
0.196493
11
0.724378
21
0.18252
0
LINE
8
BLACK
6
CONTINUOUS
10
0.724378
20
0.18252
11
0.721654
21
0.168765
0
LINE
8
BLACK
6
CONTINUOUS
10
0.721654
20
0.168765
11
0.717414
21
0.155399
0
LINE
8
BLACK
6
CONTINUOUS
10
0.717414
20
0.155399
11
0.711711
21
0.142589
0
LINE
8
BLACK
6
CONTINUOUS
10
0.711711
20
0.142589
11
0.704615
21
0.130494
0
LINE
8
BLACK
6
CONTINUOUS
10
0.704615
20
0.130494
11
0.696215
21
0.119266
0
LINE
8
BLACK
6
CONTINUOUS
10
0.696215
20
0.119266
11
0.686616
21
0.109044
0
LINE
8
BLACK
6
CONTINUOUS
10
0.686616
20
0.109044
11
0.675938
21
0.0999558
0
LINE
8
BLACK
6
CONTINUOUS
10
0.675938
20
0.0999558
11
0.664313
21
0.0921146
0
LINE
8
BLACK
6
CONTINUOUS
10
0.664313
20
0.0921146
11
0.651886
21
0.0856181
0
LINE
8
BLACK
6
CONTINUOUS
10
0.651886
20
0.0856181
11
0.638813
21
0.0805473
0
LINE
8
BLACK
6
CONTINUOUS
10
0.638813
20
0.0805473
11
0.625255
21
0.0769654
0
LINE
8
BLACK
6
CONTINUOUS
10
0.625255
20
0.0769654
11
0.611383
21
0.0749169
0
LINE
8
BLACK
6
CONTINUOUS
10
0.611383
20
0.0749169
11
0.59737
21
0.0744276
0
LINE
8
BLACK
6
CONTINUOUS
10
0.59737
20
0.0744276
11
0.583389
21
0.0755033
0
LINE
8
BLACK
6
CONTINUOUS
10
0.583389
20
0.0755033
11
0.569615
21
0.0781309
0
LINE
8
BLACK
6
CONTINUOUS
10
0.569615
20
0.0781309
11
0.556219
21
0.0822774
0
LINE
8
BLACK
6
CONTINUOUS
10
0.556219
20
0.0822774
11
0.54337
21
0.0878912
0
LINE
8
BLACK
6
CONTINUOUS
10
0.54337
20
0.0878912
11
0.531226
21
0.0949024
0
LINE
8
BLACK
6
CONTINUOUS
10
0.531226
20
0.0949024
11
0.51994
21
0.103224
0
LINE
8
BLACK
6
CONTINUOUS
10
0.51994
20
0.103224
11
0.509651
21
0.112751
0
LINE
8
BLACK
6
CONTINUOUS
10
0.509651
20
0.112751
11
0.500488
21
0.123366
0
LINE
8
BLACK
6
CONTINUOUS
10
0.500488
20
0.123366
11
0.492566
21
0.134936
0
LINE
8
BLACK
6
CONTINUOUS
10
0.492566
20
0.134936
11
0.485983
21
0.147317
0
LINE
8
BLACK
6
CONTINUOUS
10
0.485983
20
0.147317
11
0.480821
21
0.160354
0
LINE
8
BLACK
6
CONTINUOUS
10
0.480821
20
0.160354
11
0.477145
21
0.173886
0
LINE
8
BLACK
6
CONTINUOUS
10
0.477145
20
0.173886
11
0.474999
21
0.187744
0
LINE
8
BLACK
6
CONTINUOUS
10
0.474999
20
0.187744
11
0.474412
21
0.201754
0
LINE
8
BLACK
6
CONTINUOUS
10
0.474412
20
0.201754
11
0.474533
21
0.20348
0
LINE
8
BLACK
6
CONTINUOUS
10
0.474533
20
0.20348
11
0.47539
21
0.215742
0
LINE
8
BLACK
6
CONTINUOUS
10
0.47539
20
0.215742
11
0.477922
21
0.229534
0
LINE
8
BLACK
6
CONTINUOUS
10
0.491398
20
0.178102
11
0.494635
21
0.165765
0
LINE
8
BLACK
6
CONTINUOUS
10
0.494635
20
0.165765
11
0.499268
21
0.153881
0
LINE
8
BLACK
6
CONTINUOUS
10
0.499268
20
0.153881
11
0.505236
21
0.142609
0
LINE
8
BLACK
6
CONTINUOUS
10
0.505236
20
0.142609
11
0.512461
21
0.132098
0
LINE
8
BLACK
6
CONTINUOUS
10
0.512461
20
0.132098
11
0.520845
21
0.122486
0
LINE
8
BLACK
6
CONTINUOUS
10
0.520845
20
0.122486
11
0.530279
21
0.113902
0
LINE
8
BLACK
6
CONTINUOUS
10
0.530279
20
0.113902
11
0.540637
21
0.106459
0
LINE
8
BLACK
6
CONTINUOUS
10
0.540637
20
0.106459
11
0.551782
21
0.100256
0
LINE
8
BLACK
6
CONTINUOUS
10
0.551782
20
0.100256
11
0.563566
21
0.095375
0
LINE
8
BLACK
6
CONTINUOUS
10
0.563566
20
0.095375
11
0.575832
21
0.0918807
0
LINE
8
BLACK
6
CONTINUOUS
10
0.575832
20
0.0918807
11
0.58842
21
0.0898194
0
LINE
8
BLACK
6
CONTINUOUS
10
0.58842
20
0.0898194
11
0.60116
21
0.0892186
0
LINE
8
BLACK
6
CONTINUOUS
10
0.60116
20
0.0892186
11
0.613885
21
0.0900861
0
LINE
8
BLACK
6
CONTINUOUS
10
0.613885
20
0.0900861
11
0.626426
21
0.0924105
0
LINE
8
BLACK
6
CONTINUOUS
10
0.626426
20
0.0924105
11
0.638617
21
0.0961609
0
LINE
8
BLACK
6
CONTINUOUS
10
0.638617
20
0.0961609
11
0.650296
21
0.101288
0
LINE
8
BLACK
6
CONTINUOUS
10
0.650296
20
0.101288
11
0.661309
21
0.107723
0
LINE
8
BLACK
6
CONTINUOUS
10
0.661309
20
0.107723
11
0.671509
21
0.115381
0
LINE
8
BLACK
6
CONTINUOUS
10
0.671509
20
0.115381
11
0.680761
21
0.124161
0
LINE
8
BLACK
6
CONTINUOUS
10
0.680761
20
0.124161
11
0.688942
21
0.133946
0
LINE
8
BLACK
6
CONTINUOUS
10
0.688942
20
0.133946
11
0.695945
21
0.144606
0
LINE
8
BLACK
6
CONTINUOUS
10
0.695945
20
0.144606
11
0.701676
21
0.156001
0
LINE
8
BLACK
6
CONTINUOUS
10
0.701676
20
0.156001
11
0.706059
21
0.167979
0
LINE
8
BLACK
6
CONTINUOUS
10
0.706059
20
0.167979
11
0.709036
21
0.180381
0
LINE
8
BLACK
6
CONTINUOUS
10
0.709036
20
0.180381
11
0.710569
21
0.193044
0
LINE
8
BLACK
6
CONTINUOUS
10
0.710569
20
0.193044
11
0.710787
21
0.2
0
LINE
8
BLACK
6
CONTINUOUS
10
0.710787
20
0.2
11
0.710053
21
0.212734
0
LINE
8
BLACK
6
CONTINUOUS
10
0.710053
20
0.212734
11
0.70786
21
0.225298
0
LINE
8
BLACK
6
CONTINUOUS
10
0.70786
20
0.225298
11
0.704238
21
0.237528
0
LINE
8
BLACK
6
CONTINUOUS
10
0.704238
20
0.237528
11
0.699234
21
0.24926
0
LINE
8
BLACK
6
CONTINUOUS
10
0.699234
20
0.24926
11
0.692914
21
0.260339
0
LINE
8
BLACK
6
CONTINUOUS
10
0.692914
20
0.260339
11
0.685363
21
0.270619
0
LINE
8
BLACK
6
CONTINUOUS
10
0.685363
20
0.270619
11
0.676681
21
0.279962
0
LINE
8
BLACK
6
CONTINUOUS
10
0.676681
20
0.279962
11
0.666982
21
0.288246
0
LINE
8
BLACK
6
CONTINUOUS
10
0.666982
20
0.288246
11
0.656395
21
0.295359
0
LINE
8
BLACK
6
CONTINUOUS
10
0.656395
20
0.295359
11
0.645061
21
0.301209
0
LINE
8
BLACK
6
CONTINUOUS
10
0.645061
20
0.301209
11
0.63313
21
0.305718
0
LINE
8
BLACK
6
CONTINUOUS
10
0.63313
20
0.305718
11
0.620759
21
0.308825
0
LINE
8
BLACK
6
CONTINUOUS
10
0.620759
20
0.308825
11
0.608114
21
0.31049
0
LINE
8
BLACK
6
CONTINUOUS
10
0.608114
20
0.31049
11
0.595361
21
0.31069
0
LINE
8
BLACK
6
CONTINUOUS
10
0.595361
20
0.31069
11
0.582669
21
0.309423
0
LINE
8
BLACK
6
CONTINUOUS
10
0.582669
20
0.309423
11
0.570207
21
0.306706
0
LINE
8
BLACK
6
CONTINUOUS
10
0.570207
20
0.306706
11
0.55814
21
0.302575
0
LINE
8
BLACK
6
CONTINUOUS
10
0.55814
20
0.302575
11
0.546628
21
0.297084
0
LINE
8
BLACK
6
CONTINUOUS
10
0.546628
20
0.297084
11
0.535823
21
0.290306
0
LINE
8
BLACK
6
CONTINUOUS
10
0.535823
20
0.290306
11
0.525869
21
0.282331
0
LINE
8
BLACK
6
CONTINUOUS
10
0.525869
20
0.282331
11
0.516897
21
0.273265
0
LINE
8
BLACK
6
CONTINUOUS
10
0.516897
20
0.273265
11
0.509027
21
0.263228
0
LINE
8
BLACK
6
CONTINUOUS
10
0.509027
20
0.263228
11
0.502363
21
0.252353
0
LINE
8
BLACK
6
CONTINUOUS
10
0.502363
20
0.252353
11
0.496992
21
0.240784
0
LINE
8
BLACK
6
CONTINUOUS
10
0.496992
20
0.240784
11
0.492988
21
0.228674
0
LINE
8
BLACK
6
CONTINUOUS
10
0.492988
20
0.228674
11
0.490401
21
0.216184
0
LINE
8
BLACK
6
CONTINUOUS
10
0.490401
20
0.216184
11
0.489267
21
0.20348
0
LINE
8
BLACK
6
CONTINUOUS
10
0.489267
20
0.20348
11
0.489601
21
0.19073
0
LINE
8
BLACK
6
CONTINUOUS
10
0.489601
20
0.19073
11
0.491398
21
0.178102
0
LINE
8
BLACK
6
CONTINUOUS
10
0.0779217
20
0.229534
11
0.0819746
21
0.242958
0
LINE
8
BLACK
6
CONTINUOUS
10
0.0819746
20
0.242958
11
0.0874986
21
0.255846
0
LINE
8
BLACK
6
CONTINUOUS
10
0.0874986
20
0.255846
11
0.0944248
21
0.268039
0
LINE
8
BLACK
6
CONTINUOUS
10
0.0944248
20
0.268039
11
0.102667
21
0.279383
0
LINE
8
BLACK
6
CONTINUOUS
10
0.102667
20
0.279383
11
0.112122
21
0.289738
0
LINE
8
BLACK
6
CONTINUOUS
10
0.112122
20
0.289738
11
0.122673
21
0.298974
0
LINE
8
BLACK
6
CONTINUOUS
10
0.122673
20
0.298974
11
0.134187
21
0.306977
0
LINE
8
BLACK
6
CONTINUOUS
10
0.134187
20
0.306977
11
0.146522
21
0.313646
0
LINE
8
BLACK
6
CONTINUOUS
10
0.146522
20
0.313646
11
0.159523
21
0.318899
0
LINE
8
BLACK
6
CONTINUOUS
10
0.159523
20
0.318899
11
0.173029
21
0.32267
0
LINE
8
BLACK
6
CONTINUOUS
10
0.173029
20
0.32267
11
0.186871
21
0.324912
0
LINE
8
BLACK
6
CONTINUOUS
10
0.186871
20
0.324912
11
0.200877
21
0.325597
0
LINE
8
BLACK
6
CONTINUOUS
10
0.200877
20
0.325597
11
0.214872
21
0.324716
0
LINE
8
BLACK
6
CONTINUOUS
10
0.214872
20
0.324716
11
0.228681
21
0.322281
0
LINE
8
BLACK
6
CONTINUOUS
10
0.228681
20
0.322281
11
0.242133
21
0.318322
0
LINE
8
BLACK
6
CONTINUOUS
10
0.242133
20
0.318322
11
0.255059
21
0.312889
0
LINE
8
BLACK
6
CONTINUOUS
10
0.255059
20
0.312889
11
0.2673
21
0.306048
0
LINE
8
BLACK
6
CONTINUOUS
10
0.2673
20
0.306048
11
0.278701
21
0.297885
0
LINE
8
BLACK
6
CONTINUOUS
10
0.278701
20
0.297885
11
0.289122
21
0.288502
0
LINE
8
BLACK
6
CONTINUOUS
10
0.289122
20
0.288502
11
0.298432
21
0.278016
0
LINE
8
BLACK
6
CONTINUOUS
10
0.298432
20
0.278016
11
0.306515
21
0.266558
0
LINE
8
BLACK
6
CONTINUOUS
10
0.306515
20
0.266558
11
0.31327
21
0.25427
0
LINE
8
BLACK
6
CONTINUOUS
10
0.31327
20
0.25427
11
0.318614
21
0.241306
0
LINE
8
BLACK
6
CONTINUOUS
10
0.318614
20
0.241306
11
0.322479
21
0.227826
0
LINE
8
BLACK
6
CONTINUOUS
10
0.322479
20
0.227826
11
0.324817
21
0.214001
0
LINE
8
BLACK
6
CONTINUOUS
10
0.324817
20
0.214001
11
0.3256
21
0.2
0
LINE
8
BLACK
6
CONTINUOUS
10
0.3256
20
0.2
11
0.325551
21
0.196493
0
LINE
8
BLACK
6
CONTINUOUS
10
0.325551
20
0.196493
11
0.324378
21
0.18252
0
LINE
8
BLACK
6
CONTINUOUS
10
0.324378
20
0.18252
11
0.321654
21
0.168765
0
LINE
8
BLACK
6
CONTINUOUS
10
0.321654
20
0.168765
11
0.317414
21
0.155399
0
LINE
8
BLACK
6
CONTINUOUS
10
0.317414
20
0.155399
11
0.311711
21
0.142589
0
LINE
8
BLACK
6
CONTINUOUS
10
0.311711
20
0.142589
11
0.304615
21
0.130494
0
LINE
8
BLACK
6
CONTINUOUS
10
0.304615
20
0.130494
11
0.296215
21
0.119266
0
LINE
8
BLACK
6
CONTINUOUS
10
0.296215
20
0.119266
11
0.286616
21
0.109044
0
LINE
8
BLACK
6
CONTINUOUS
10
0.286616
20
0.109044
11
0.275938
21
0.0999558
0
LINE
8
BLACK
6
CONTINUOUS
10
0.275938
20
0.0999558
11
0.264313
21
0.0921146
0
LINE
8
BLACK
6
CONTINUOUS
10
0.264313
20
0.0921146
11
0.251886
21
0.0856181
0
LINE
8
BLACK
6
CONTINUOUS
10
0.251886
20
0.0856181
11
0.238813
21
0.0805473
0
LINE
8
BLACK
6
CONTINUOUS
10
0.238813
20
0.0805473
11
0.225255
21
0.0769654
0
LINE
8
BLACK
6
CONTINUOUS
10
0.225255
20
0.0769654
11
0.211383
21
0.0749169
0
LINE
8
BLACK
6
CONTINUOUS
10
0.211383
20
0.0749169
11
0.19737
21
0.0744276
0
LINE
8
BLACK
6
CONTINUOUS
10
0.19737
20
0.0744276
11
0.183389
21
0.0755033
0
LINE
8
BLACK
6
CONTINUOUS
10
0.183389
20
0.0755033
11
0.169615
21
0.0781309
0
LINE
8
BLACK
6
CONTINUOUS
10
0.169615
20
0.0781309
11
0.156219
21
0.0822774
0
LINE
8
BLACK
6
CONTINUOUS
10
0.156219
20
0.0822774
11
0.14337
21
0.0878912
0
LINE
8
BLACK
6
CONTINUOUS
10
0.14337
20
0.0878912
11
0.131226
21
0.0949024
0
LINE
8
BLACK
6
CONTINUOUS
10
0.131226
20
0.0949024
11
0.11994
21
0.103224
0
LINE
8
BLACK
6
CONTINUOUS
10
0.11994
20
0.103224
11
0.109651
21
0.112751
0
LINE
8
BLACK
6
CONTINUOUS
10
0.109651
20
0.112751
11
0.100488
21
0.123366
0
LINE
8
BLACK
6
CONTINUOUS
10
0.100488
20
0.123366
11
0.0925663
21
0.134936
0
LINE
8
BLACK
6
CONTINUOUS
10
0.0925663
20
0.134936
11
0.0859831
21
0.147317
0
LINE
8
BLACK
6
CONTINUOUS
10
0.0859831
20
0.147317
11
0.0808212
21
0.160354
0
LINE
8
BLACK
6
CONTINUOUS
10
0.0808212
20
0.160354
11
0.0771446
21
0.173886
0
LINE
8
BLACK
6
CONTINUOUS
10
0.0771446
20
0.173886
11
0.0749994
21
0.187744
0
LINE
8
BLACK
6
CONTINUOUS
10
0.0749994
20
0.187744
11
0.0744122
21
0.201754
0
LINE
8
BLACK
6
CONTINUOUS
10
0.0744122
20
0.201754
11
0.074533
21
0.20348
0
LINE
8
BLACK
6
CONTINUOUS
10
0.074533
20
0.20348
11
0.0753904
21
0.215742
0
LINE
8
BLACK
6
CONTINUOUS
10
0.0753904
20
0.215742
11
0.0779217
21
0.229534
0
LINE
8
BLACK
6
CONTINUOUS
10
0.0913983
20
0.178102
11
0.0946349
21
0.165765
0
LINE
8
BLACK
6
CONTINUOUS
10
0.0946349
20
0.165765
11
0.0992681
21
0.153881
0
LINE
8
BLACK
6
CONTINUOUS
10
0.0992681
20
0.153881
11
0.105236
21
0.142609
0
LINE
8
BLACK
6
CONTINUOUS
10
0.105236
20
0.142609
11
0.112461
21
0.132098
0
LINE
8
BLACK
6
CONTINUOUS
10
0.112461
20
0.132098
11
0.120845
21
0.122486
0
LINE
8
BLACK
6
CONTINUOUS
10
0.120845
20
0.122486
11
0.130279
21
0.113902
0
LINE
8
BLACK
6
CONTINUOUS
10
0.130279
20
0.113902
11
0.140637
21
0.106459
0
LINE
8
BLACK
6
CONTINUOUS
10
0.140637
20
0.106459
11
0.151782
21
0.100256
0
LINE
8
BLACK
6
CONTINUOUS
10
0.151782
20
0.100256
11
0.163566
21
0.095375
0
LINE
8
BLACK
6
CONTINUOUS
10
0.163566
20
0.095375
11
0.175832
21
0.0918807
0
LINE
8
BLACK
6
CONTINUOUS
10
0.175832
20
0.0918807
11
0.18842
21
0.0898194
0
LINE
8
BLACK
6
CONTINUOUS
10
0.18842
20
0.0898194
11
0.20116
21
0.0892186
0
LINE
8
BLACK
6
CONTINUOUS
10
0.20116
20
0.0892186
11
0.213885
21
0.0900861
0
LINE
8
BLACK
6
CONTINUOUS
10
0.213885
20
0.0900861
11
0.226426
21
0.0924105
0
LINE
8
BLACK
6
CONTINUOUS
10
0.226426
20
0.0924105
11
0.238617
21
0.0961609
0
LINE
8
BLACK
6
CONTINUOUS
10
0.238617
20
0.0961609
11
0.250296
21
0.101288
0
LINE
8
BLACK
6
CONTINUOUS
10
0.250296
20
0.101288
11
0.261309
21
0.107723
0
LINE
8
BLACK
6
CONTINUOUS
10
0.261309
20
0.107723
11
0.271509
21
0.115381
0
LINE
8
BLACK
6
CONTINUOUS
10
0.271509
20
0.115381
11
0.280761
21
0.124161
0
LINE
8
BLACK
6
CONTINUOUS
10
0.280761
20
0.124161
11
0.288942
21
0.133946
0
LINE
8
BLACK
6
CONTINUOUS
10
0.288942
20
0.133946
11
0.295945
21
0.144606
0
LINE
8
BLACK
6
CONTINUOUS
10
0.295945
20
0.144606
11
0.301676
21
0.156001
0
LINE
8
BLACK
6
CONTINUOUS
10
0.301676
20
0.156001
11
0.306059
21
0.167979
0
LINE
8
BLACK
6
CONTINUOUS
10
0.306059
20
0.167979
11
0.309036
21
0.180381
0
LINE
8
BLACK
6
CONTINUOUS
10
0.309036
20
0.180381
11
0.310569
21
0.193044
0
LINE
8
BLACK
6
CONTINUOUS
10
0.310569
20
0.193044
11
0.310787
21
0.2
0
LINE
8
BLACK
6
CONTINUOUS
10
0.310787
20
0.2
11
0.310053
21
0.212734
0
LINE
8
BLACK
6
CONTINUOUS
10
0.310053
20
0.212734
11
0.30786
21
0.225298
0
LINE
8
BLACK
6
CONTINUOUS
10
0.30786
20
0.225298
11
0.304238
21
0.237528
0
LINE
8
BLACK
6
CONTINUOUS
10
0.304238
20
0.237528
11
0.299234
21
0.24926
0
LINE
8
BLACK
6
CONTINUOUS
10
0.299234
20
0.24926
11
0.292914
21
0.260339
0
LINE
8
BLACK
6
CONTINUOUS
10
0.292914
20
0.260339
11
0.285363
21
0.270619
0
LINE
8
BLACK
6
CONTINUOUS
10
0.285363
20
0.270619
11
0.276681
21
0.279962
0
LINE
8
BLACK
6
CONTINUOUS
10
0.276681
20
0.279962
11
0.266982
21
0.288246
0
LINE
8
BLACK
6
CONTINUOUS
10
0.266982
20
0.288246
11
0.256395
21
0.295359
0
LINE
8
BLACK
6
CONTINUOUS
10
0.256395
20
0.295359
11
0.245061
21
0.301209
0
LINE
8
BLACK
6
CONTINUOUS
10
0.245061
20
0.301209
11
0.23313
21
0.305718
0
LINE
8
BLACK
6
CONTINUOUS
10
0.23313
20
0.305718
11
0.220759
21
0.308825
0
LINE
8
BLACK
6
CONTINUOUS
10
0.220759
20
0.308825
11
0.208114
21
0.31049
0
LINE
8
BLACK
6
CONTINUOUS
10
0.208114
20
0.31049
11
0.195361
21
0.31069
0
LINE
8
BLACK
6
CONTINUOUS
10
0.195361
20
0.31069
11
0.182669
21
0.309423
0
LINE
8
BLACK
6
CONTINUOUS
10
0.182669
20
0.309423
11
0.170207
21
0.306706
0
LINE
8
BLACK
6
CONTINUOUS
10
0.170207
20
0.306706
11
0.15814
21
0.302575
0
LINE
8
BLACK
6
CONTINUOUS
10
0.15814
20
0.302575
11
0.146628
21
0.297084
0
LINE
8
BLACK
6
CONTINUOUS
10
0.146628
20
0.297084
11
0.135823
21
0.290306
0
LINE
8
BLACK
6
CONTINUOUS
10
0.135823
20
0.290306
11
0.125869
21
0.282331
0
LINE
8
BLACK
6
CONTINUOUS
10
0.125869
20
0.282331
11
0.116897
21
0.273265
0
LINE
8
BLACK
6
CONTINUOUS
10
0.116897
20
0.273265
11
0.109027
21
0.263228
0
LINE
8
BLACK
6
CONTINUOUS
10
0.109027
20
0.263228
11
0.102363
21
0.252353
0
LINE
8
BLACK
6
CONTINUOUS
10
0.102363
20
0.252353
11
0.0969924
21
0.240784
0
LINE
8
BLACK
6
CONTINUOUS
10
0.0969924
20
0.240784
11
0.0929876
21
0.228674
0
LINE
8
BLACK
6
CONTINUOUS
10
0.0929876
20
0.228674
11
0.0904011
21
0.216184
0
LINE
8
BLACK
6
CONTINUOUS
10
0.0904011
20
0.216184
11
0.0892672
21
0.20348
0
LINE
8
BLACK
6
CONTINUOUS
10
0.0892672
20
0.20348
11
0.0896011
21
0.19073
0
LINE
8
BLACK
6
CONTINUOUS
10
0.0896011
20
0.19073
11
0.0913983
21
0.178102
0
LINE
8
BLACK
6
CONTINUOUS
10
0.477922
20
1.42953
11
0.481975
21
1.44296
0
LINE
8
BLACK
6
CONTINUOUS
10
0.481975
20
1.44296
11
0.487499
21
1.45585
0
LINE
8
BLACK
6
CONTINUOUS
10
0.487499
20
1.45585
11
0.494425
21
1.46804
0
LINE
8
BLACK
6
CONTINUOUS
10
0.494425
20
1.46804
11
0.502667
21
1.47938
0
LINE
8
BLACK
6
CONTINUOUS
10
0.502667
20
1.47938
11
0.512122
21
1.48974
0
LINE
8
BLACK
6
CONTINUOUS
10
0.512122
20
1.48974
11
0.522673
21
1.49897
0
LINE
8
BLACK
6
CONTINUOUS
10
0.522673
20
1.49897
11
0.534187
21
1.50698
0
LINE
8
BLACK
6
CONTINUOUS
10
0.534187
20
1.50698
11
0.546522
21
1.51365
0
LINE
8
BLACK
6
CONTINUOUS
10
0.546522
20
1.51365
11
0.559523
21
1.5189
0
LINE
8
BLACK
6
CONTINUOUS
10
0.559523
20
1.5189
11
0.573029
21
1.52267
0
LINE
8
BLACK
6
CONTINUOUS
10
0.573029
20
1.52267
11
0.586871
21
1.52491
0
LINE
8
BLACK
6
CONTINUOUS
10
0.586871
20
1.52491
11
0.600877
21
1.5256
0
LINE
8
BLACK
6
CONTINUOUS
10
0.600877
20
1.5256
11
0.614872
21
1.52472
0
LINE
8
BLACK
6
CONTINUOUS
10
0.614872
20
1.52472
11
0.628681
21
1.52228
0
LINE
8
BLACK
6
CONTINUOUS
10
0.628681
20
1.52228
11
0.642133
21
1.51832
0
LINE
8
BLACK
6
CONTINUOUS
10
0.642133
20
1.51832
11
0.655059
21
1.51289
0
LINE
8
BLACK
6
CONTINUOUS
10
0.655059
20
1.51289
11
0.6673
21
1.50605
0
LINE
8
BLACK
6
CONTINUOUS
10
0.6673
20
1.50605
11
0.678701
21
1.49788
0
LINE
8
BLACK
6
CONTINUOUS
10
0.678701
20
1.49788
11
0.689122
21
1.4885
0
LINE
8
BLACK
6
CONTINUOUS
10
0.689122
20
1.4885
11
0.698432
21
1.47802
0
LINE
8
BLACK
6
CONTINUOUS
10
0.698432
20
1.47802
11
0.706515
21
1.46656
0
LINE
8
BLACK
6
CONTINUOUS
10
0.706515
20
1.46656
11
0.71327
21
1.45427
0
LINE
8
BLACK
6
CONTINUOUS
10
0.71327
20
1.45427
11
0.718614
21
1.44131
0
LINE
8
BLACK
6
CONTINUOUS
10
0.718614
20
1.44131
11
0.722479
21
1.42783
0
LINE
8
BLACK
6
CONTINUOUS
10
0.722479
20
1.42783
11
0.724817
21
1.414
0
LINE
8
BLACK
6
CONTINUOUS
10
0.724817
20
1.414
11
0.7256
21
1.4
0
LINE
8
BLACK
6
CONTINUOUS
10
0.7256
20
1.4
11
0.725551
21
1.39649
0
LINE
8
BLACK
6
CONTINUOUS
10
0.725551
20
1.39649
11
0.724378
21
1.38252
0
LINE
8
BLACK
6
CONTINUOUS
10
0.724378
20
1.38252
11
0.721654
21
1.36876
0
LINE
8
BLACK
6
CONTINUOUS
10
0.721654
20
1.36876
11
0.717414
21
1.3554
0
LINE
8
BLACK
6
CONTINUOUS
10
0.717414
20
1.3554
11
0.711711
21
1.34259
0
LINE
8
BLACK
6
CONTINUOUS
10
0.711711
20
1.34259
11
0.704615
21
1.33049
0
LINE
8
BLACK
6
CONTINUOUS
10
0.704615
20
1.33049
11
0.696215
21
1.31927
0
LINE
8
BLACK
6
CONTINUOUS
10
0.696215
20
1.31927
11
0.686616
21
1.30904
0
LINE
8
BLACK
6
CONTINUOUS
10
0.686616
20
1.30904
11
0.675938
21
1.29996
0
LINE
8
BLACK
6
CONTINUOUS
10
0.675938
20
1.29996
11
0.664313
21
1.29211
0
LINE
8
BLACK
6
CONTINUOUS
10
0.664313
20
1.29211
11
0.651886
21
1.28562
0
LINE
8
BLACK
6
CONTINUOUS
10
0.651886
20
1.28562
11
0.638813
21
1.28055
0
LINE
8
BLACK
6
CONTINUOUS
10
0.638813
20
1.28055
11
0.625255
21
1.27697
0
LINE
8
BLACK
6
CONTINUOUS
10
0.625255
20
1.27697
11
0.611383
21
1.27492
0
LINE
8
BLACK
6
CONTINUOUS
10
0.611383
20
1.27492
11
0.59737
21
1.27443
0
LINE
8
BLACK
6
CONTINUOUS
10
0.59737
20
1.27443
11
0.583389
21
1.2755
0
LINE
8
BLACK
6
CONTINUOUS
10
0.583389
20
1.2755
11
0.569615
21
1.27813
0
LINE
8
BLACK
6
CONTINUOUS
10
0.569615
20
1.27813
11
0.556219
21
1.28228
0
LINE
8
BLACK
6
CONTINUOUS
10
0.556219
20
1.28228
11
0.54337
21
1.28789
0
LINE
8
BLACK
6
CONTINUOUS
10
0.54337
20
1.28789
11
0.531226
21
1.2949
0
LINE
8
BLACK
6
CONTINUOUS
10
0.531226
20
1.2949
11
0.51994
21
1.30322
0
LINE
8
BLACK
6
CONTINUOUS
10
0.51994
20
1.30322
11
0.509651
21
1.31275
0
LINE
8
BLACK
6
CONTINUOUS
10
0.509651
20
1.31275
11
0.500488
21
1.32337
0
LINE
8
BLACK
6
CONTINUOUS
10
0.500488
20
1.32337
11
0.492566
21
1.33494
0
LINE
8
BLACK
6
CONTINUOUS
10
0.492566
20
1.33494
11
0.485983
21
1.34732
0
LINE
8
BLACK
6
CONTINUOUS
10
0.485983
20
1.34732
11
0.480821
21
1.36035
0
LINE
8
BLACK
6
CONTINUOUS
10
0.480821
20
1.36035
11
0.477145
21
1.37389
0
LINE
8
BLACK
6
CONTINUOUS
10
0.477145
20
1.37389
11
0.474999
21
1.38774
0
LINE
8
BLACK
6
CONTINUOUS
10
0.474999
20
1.38774
11
0.474412
21
1.40175
0
LINE
8
BLACK
6
CONTINUOUS
10
0.474412
20
1.40175
11
0.474533
21
1.40348
0
LINE
8
BLACK
6
CONTINUOUS
10
0.474533
20
1.40348
11
0.47539
21
1.41574
0
LINE
8
BLACK
6
CONTINUOUS
10
0.47539
20
1.41574
11
0.477922
21
1.42953
0
LINE
8
BLACK
6
CONTINUOUS
10
0.491398
20
1.3781
11
0.494635
21
1.36576
0
LINE
8
BLACK
6
CONTINUOUS
10
0.494635
20
1.36576
11
0.499268
21
1.35388
0
LINE
8
BLACK
6
CONTINUOUS
10
0.499268
20
1.35388
11
0.505236
21
1.34261
0
LINE
8
BLACK
6
CONTINUOUS
10
0.505236
20
1.34261
11
0.512461
21
1.3321
0
LINE
8
BLACK
6
CONTINUOUS
10
0.512461
20
1.3321
11
0.520845
21
1.32249
0
LINE
8
BLACK
6
CONTINUOUS
10
0.520845
20
1.32249
11
0.530279
21
1.3139
0
LINE
8
BLACK
6
CONTINUOUS
10
0.530279
20
1.3139
11
0.540637
21
1.30646
0
LINE
8
BLACK
6
CONTINUOUS
10
0.540637
20
1.30646
11
0.551782
21
1.30026
0
LINE
8
BLACK
6
CONTINUOUS
10
0.551782
20
1.30026
11
0.563566
21
1.29537
0
LINE
8
BLACK
6
CONTINUOUS
10
0.563566
20
1.29537
11
0.575832
21
1.29188
0
LINE
8
BLACK
6
CONTINUOUS
10
0.575832
20
1.29188
11
0.58842
21
1.28982
0
LINE
8
BLACK
6
CONTINUOUS
10
0.58842
20
1.28982
11
0.60116
21
1.28922
0
LINE
8
BLACK
6
CONTINUOUS
10
0.60116
20
1.28922
11
0.613885
21
1.29009
0
LINE
8
BLACK
6
CONTINUOUS
10
0.613885
20
1.29009
11
0.626426
21
1.29241
0
LINE
8
BLACK
6
CONTINUOUS
10
0.626426
20
1.29241
11
0.638617
21
1.29616
0
LINE
8
BLACK
6
CONTINUOUS
10
0.638617
20
1.29616
11
0.650296
21
1.30129
0
LINE
8
BLACK
6
CONTINUOUS
10
0.650296
20
1.30129
11
0.661309
21
1.30772
0
LINE
8
BLACK
6
CONTINUOUS
10
0.661309
20
1.30772
11
0.671509
21
1.31538
0
LINE
8
BLACK
6
CONTINUOUS
10
0.671509
20
1.31538
11
0.680761
21
1.32416
0
LINE
8
BLACK
6
CONTINUOUS
10
0.680761
20
1.32416
11
0.688942
21
1.33395
0
LINE
8
BLACK
6
CONTINUOUS
10
0.688942
20
1.33395
11
0.695945
21
1.34461
0
LINE
8
BLACK
6
CONTINUOUS
10
0.695945
20
1.34461
11
0.701676
21
1.356
0
LINE
8
BLACK
6
CONTINUOUS
10
0.701676
20
1.356
11
0.706059
21
1.36798
0
LINE
8
BLACK
6
CONTINUOUS
10
0.706059
20
1.36798
11
0.709036
21
1.38038
0
LINE
8
BLACK
6
CONTINUOUS
10
0.709036
20
1.38038
11
0.710569
21
1.39304
0
LINE
8
BLACK
6
CONTINUOUS
10
0.710569
20
1.39304
11
0.710787
21
1.4
0
LINE
8
BLACK
6
CONTINUOUS
10
0.710787
20
1.4
11
0.710053
21
1.41273
0
LINE
8
BLACK
6
CONTINUOUS
10
0.710053
20
1.41273
11
0.70786
21
1.4253
0
LINE
8
BLACK
6
CONTINUOUS
10
0.70786
20
1.4253
11
0.704238
21
1.43753
0
LINE
8
BLACK
6
CONTINUOUS
10
0.704238
20
1.43753
11
0.699234
21
1.44926
0
LINE
8
BLACK
6
CONTINUOUS
10
0.699234
20
1.44926
11
0.692914
21
1.46034
0
LINE
8
BLACK
6
CONTINUOUS
10
0.692914
20
1.46034
11
0.685363
21
1.47062
0
LINE
8
BLACK
6
CONTINUOUS
10
0.685363
20
1.47062
11
0.676681
21
1.47996
0
LINE
8
BLACK
6
CONTINUOUS
10
0.676681
20
1.47996
11
0.666982
21
1.48825
0
LINE
8
BLACK
6
CONTINUOUS
10
0.666982
20
1.48825
11
0.656395
21
1.49536
0
LINE
8
BLACK
6
CONTINUOUS
10
0.656395
20
1.49536
11
0.645061
21
1.50121
0
LINE
8
BLACK
6
CONTINUOUS
10
0.645061
20
1.50121
11
0.63313
21
1.50572
0
LINE
8
BLACK
6
CONTINUOUS
10
0.63313
20
1.50572
11
0.620759
21
1.50883
0
LINE
8
BLACK
6
CONTINUOUS
10
0.620759
20
1.50883
11
0.608114
21
1.51049
0
LINE
8
BLACK
6
CONTINUOUS
10
0.608114
20
1.51049
11
0.595361
21
1.51069
0
LINE
8
BLACK
6
CONTINUOUS
10
0.595361
20
1.51069
11
0.582669
21
1.50942
0
LINE
8
BLACK
6
CONTINUOUS
10
0.582669
20
1.50942
11
0.570207
21
1.50671
0
LINE
8
BLACK
6
CONTINUOUS
10
0.570207
20
1.50671
11
0.55814
21
1.50257
0
LINE
8
BLACK
6
CONTINUOUS
10
0.55814
20
1.50257
11
0.546628
21
1.49708
0
LINE
8
BLACK
6
CONTINUOUS
10
0.546628
20
1.49708
11
0.535823
21
1.49031
0
LINE
8
BLACK
6
CONTINUOUS
10
0.535823
20
1.49031
11
0.525869
21
1.48233
0
LINE
8
BLACK
6
CONTINUOUS
10
0.525869
20
1.48233
11
0.516897
21
1.47327
0
LINE
8
BLACK
6
CONTINUOUS
10
0.516897
20
1.47327
11
0.509027
21
1.46323
0
LINE
8
BLACK
6
CONTINUOUS
10
0.509027
20
1.46323
11
0.502363
21
1.45235
0
LINE
8
BLACK
6
CONTINUOUS
10
0.502363
20
1.45235
11
0.496992
21
1.44078
0
LINE
8
BLACK
6
CONTINUOUS
10
0.496992
20
1.44078
11
0.492988
21
1.42867
0
LINE
8
BLACK
6
CONTINUOUS
10
0.492988
20
1.42867
11
0.490401
21
1.41618
0
LINE
8
BLACK
6
CONTINUOUS
10
0.490401
20
1.41618
11
0.489267
21
1.40348
0
LINE
8
BLACK
6
CONTINUOUS
10
0.489267
20
1.40348
11
0.489601
21
1.39073
0
LINE
8
BLACK
6
CONTINUOUS
10
0.489601
20
1.39073
11
0.491398
21
1.3781
0
LINE
8
BLACK
6
CONTINUOUS
10
0.0779217
20
1.42953
11
0.0819746
21
1.44296
0
LINE
8
BLACK
6
CONTINUOUS
10
0.0819746
20
1.44296
11
0.0874986
21
1.45585
0
LINE
8
BLACK
6
CONTINUOUS
10
0.0874986
20
1.45585
11
0.0944248
21
1.46804
0
LINE
8
BLACK
6
CONTINUOUS
10
0.0944248
20
1.46804
11
0.102667
21
1.47938
0
LINE
8
BLACK
6
CONTINUOUS
10
0.102667
20
1.47938
11
0.112122
21
1.48974
0
LINE
8
BLACK
6
CONTINUOUS
10
0.112122
20
1.48974
11
0.122673
21
1.49897
0
LINE
8
BLACK
6
CONTINUOUS
10
0.122673
20
1.49897
11
0.134187
21
1.50698
0
LINE
8
BLACK
6
CONTINUOUS
10
0.134187
20
1.50698
11
0.146522
21
1.51365
0
LINE
8
BLACK
6
CONTINUOUS
10
0.146522
20
1.51365
11
0.159523
21
1.5189
0
LINE
8
BLACK
6
CONTINUOUS
10
0.159523
20
1.5189
11
0.173029
21
1.52267
0
LINE
8
BLACK
6
CONTINUOUS
10
0.173029
20
1.52267
11
0.186871
21
1.52491
0
LINE
8
BLACK
6
CONTINUOUS
10
0.186871
20
1.52491
11
0.200877
21
1.5256
0
LINE
8
BLACK
6
CONTINUOUS
10
0.200877
20
1.5256
11
0.214872
21
1.52472
0
LINE
8
BLACK
6
CONTINUOUS
10
0.214872
20
1.52472
11
0.228681
21
1.52228
0
LINE
8
BLACK
6
CONTINUOUS
10
0.228681
20
1.52228
11
0.242133
21
1.51832
0
LINE
8
BLACK
6
CONTINUOUS
10
0.242133
20
1.51832
11
0.255059
21
1.51289
0
LINE
8
BLACK
6
CONTINUOUS
10
0.255059
20
1.51289
11
0.2673
21
1.50605
0
LINE
8
BLACK
6
CONTINUOUS
10
0.2673
20
1.50605
11
0.278701
21
1.49788
0
LINE
8
BLACK
6
CONTINUOUS
10
0.278701
20
1.49788
11
0.289122
21
1.4885
0
LINE
8
BLACK
6
CONTINUOUS
10
0.289122
20
1.4885
11
0.298432
21
1.47802
0
LINE
8
BLACK
6
CONTINUOUS
10
0.298432
20
1.47802
11
0.306515
21
1.46656
0
LINE
8
BLACK
6
CONTINUOUS
10
0.306515
20
1.46656
11
0.31327
21
1.45427
0
LINE
8
BLACK
6
CONTINUOUS
10
0.31327
20
1.45427
11
0.318614
21
1.44131
0
LINE
8
BLACK
6
CONTINUOUS
10
0.318614
20
1.44131
11
0.322479
21
1.42783
0
LINE
8
BLACK
6
CONTINUOUS
10
0.322479
20
1.42783
11
0.324817
21
1.414
0
LINE
8
BLACK
6
CONTINUOUS
10
0.324817
20
1.414
11
0.3256
21
1.4
0
LINE
8
BLACK
6
CONTINUOUS
10
0.3256
20
1.4
11
0.325551
21
1.39649
0
LINE
8
BLACK
6
CONTINUOUS
10
0.325551
20
1.39649
11
0.324378
21
1.38252
0
LINE
8
BLACK
6
CONTINUOUS
10
0.324378
20
1.38252
11
0.321654
21
1.36876
0
LINE
8
BLACK
6
CONTINUOUS
10
0.321654
20
1.36876
11
0.317414
21
1.3554
0
LINE
8
BLACK
6
CONTINUOUS
10
0.317414
20
1.3554
11
0.311711
21
1.34259
0
LINE
8
BLACK
6
CONTINUOUS
10
0.311711
20
1.34259
11
0.304615
21
1.33049
0
LINE
8
BLACK
6
CONTINUOUS
10
0.304615
20
1.33049
11
0.296215
21
1.31927
0
LINE
8
BLACK
6
CONTINUOUS
10
0.296215
20
1.31927
11
0.286616
21
1.30904
0
LINE
8
BLACK
6
CONTINUOUS
10
0.286616
20
1.30904
11
0.275938
21
1.29996
0
LINE
8
BLACK
6
CONTINUOUS
10
0.275938
20
1.29996
11
0.264313
21
1.29211
0
LINE
8
BLACK
6
CONTINUOUS
10
0.264313
20
1.29211
11
0.251886
21
1.28562
0
LINE
8
BLACK
6
CONTINUOUS
10
0.251886
20
1.28562
11
0.238813
21
1.28055
0
LINE
8
BLACK
6
CONTINUOUS
10
0.238813
20
1.28055
11
0.225255
21
1.27697
0
LINE
8
BLACK
6
CONTINUOUS
10
0.225255
20
1.27697
11
0.211383
21
1.27492
0
LINE
8
BLACK
6
CONTINUOUS
10
0.211383
20
1.27492
11
0.19737
21
1.27443
0
LINE
8
BLACK
6
CONTINUOUS
10
0.19737
20
1.27443
11
0.183389
21
1.2755
0
LINE
8
BLACK
6
CONTINUOUS
10
0.183389
20
1.2755
11
0.169615
21
1.27813
0
LINE
8
BLACK
6
CONTINUOUS
10
0.169615
20
1.27813
11
0.156219
21
1.28228
0
LINE
8
BLACK
6
CONTINUOUS
10
0.156219
20
1.28228
11
0.14337
21
1.28789
0
LINE
8
BLACK
6
CONTINUOUS
10
0.14337
20
1.28789
11
0.131226
21
1.2949
0
LINE
8
BLACK
6
CONTINUOUS
10
0.131226
20
1.2949
11
0.11994
21
1.30322
0
LINE
8
BLACK
6
CONTINUOUS
10
0.11994
20
1.30322
11
0.109651
21
1.31275
0
LINE
8
BLACK
6
CONTINUOUS
10
0.109651
20
1.31275
11
0.100488
21
1.32337
0
LINE
8
BLACK
6
CONTINUOUS
10
0.100488
20
1.32337
11
0.0925663
21
1.33494
0
LINE
8
BLACK
6
CONTINUOUS
10
0.0925663
20
1.33494
11
0.0859831
21
1.34732
0
LINE
8
BLACK
6
CONTINUOUS
10
0.0859831
20
1.34732
11
0.0808212
21
1.36035
0
LINE
8
BLACK
6
CONTINUOUS
10
0.0808212
20
1.36035
11
0.0771446
21
1.37389
0
LINE
8
BLACK
6
CONTINUOUS
10
0.0771446
20
1.37389
11
0.0749994
21
1.38774
0
LINE
8
BLACK
6
CONTINUOUS
10
0.0749994
20
1.38774
11
0.0744122
21
1.40175
0
LINE
8
BLACK
6
CONTINUOUS
10
0.0744122
20
1.40175
11
0.074533
21
1.40348
0
LINE
8
BLACK
6
CONTINUOUS
10
0.074533
20
1.40348
11
0.0753904
21
1.41574
0
LINE
8
BLACK
6
CONTINUOUS
10
0.0753904
20
1.41574
11
0.0779217
21
1.42953
0
LINE
8
BLACK
6
CONTINUOUS
10
0.0913983
20
1.3781
11
0.0946349
21
1.36576
0
LINE
8
BLACK
6
CONTINUOUS
10
0.0946349
20
1.36576
11
0.0992681
21
1.35388
0
LINE
8
BLACK
6
CONTINUOUS
10
0.0992681
20
1.35388
11
0.105236
21
1.34261
0
LINE
8
BLACK
6
CONTINUOUS
10
0.105236
20
1.34261
11
0.112461
21
1.3321
0
LINE
8
BLACK
6
CONTINUOUS
10
0.112461
20
1.3321
11
0.120845
21
1.32249
0
LINE
8
BLACK
6
CONTINUOUS
10
0.120845
20
1.32249
11
0.130279
21
1.3139
0
LINE
8
BLACK
6
CONTINUOUS
10
0.130279
20
1.3139
11
0.140637
21
1.30646
0
LINE
8
BLACK
6
CONTINUOUS
10
0.140637
20
1.30646
11
0.151782
21
1.30026
0
LINE
8
BLACK
6
CONTINUOUS
10
0.151782
20
1.30026
11
0.163566
21
1.29537
0
LINE
8
BLACK
6
CONTINUOUS
10
0.163566
20
1.29537
11
0.175832
21
1.29188
0
LINE
8
BLACK
6
CONTINUOUS
10
0.175832
20
1.29188
11
0.18842
21
1.28982
0
LINE
8
BLACK
6
CONTINUOUS
10
0.18842
20
1.28982
11
0.20116
21
1.28922
0
LINE
8
BLACK
6
CONTINUOUS
10
0.20116
20
1.28922
11
0.213885
21
1.29009
0
LINE
8
BLACK
6
CONTINUOUS
10
0.213885
20
1.29009
11
0.226426
21
1.29241
0
LINE
8
BLACK
6
CONTINUOUS
10
0.226426
20
1.29241
11
0.238617
21
1.29616
0
LINE
8
BLACK
6
CONTINUOUS
10
0.238617
20
1.29616
11
0.250296
21
1.30129
0
LINE
8
BLACK
6
CONTINUOUS
10
0.250296
20
1.30129
11
0.261309
21
1.30772
0
LINE
8
BLACK
6
CONTINUOUS
10
0.261309
20
1.30772
11
0.271509
21
1.31538
0
LINE
8
BLACK
6
CONTINUOUS
10
0.271509
20
1.31538
11
0.280761
21
1.32416
0
LINE
8
BLACK
6
CONTINUOUS
10
0.280761
20
1.32416
11
0.288942
21
1.33395
0
LINE
8
BLACK
6
CONTINUOUS
10
0.288942
20
1.33395
11
0.295945
21
1.34461
0
LINE
8
BLACK
6
CONTINUOUS
10
0.295945
20
1.34461
11
0.301676
21
1.356
0
LINE
8
BLACK
6
CONTINUOUS
10
0.301676
20
1.356
11
0.306059
21
1.36798
0
LINE
8
BLACK
6
CONTINUOUS
10
0.306059
20
1.36798
11
0.309036
21
1.38038
0
LINE
8
BLACK
6
CONTINUOUS
10
0.309036
20
1.38038
11
0.310569
21
1.39304
0
LINE
8
BLACK
6
CONTINUOUS
10
0.310569
20
1.39304
11
0.310787
21
1.4
0
LINE
8
BLACK
6
CONTINUOUS
10
0.310787
20
1.4
11
0.310053
21
1.41273
0
LINE
8
BLACK
6
CONTINUOUS
10
0.310053
20
1.41273
11
0.30786
21
1.4253
0
LINE
8
BLACK
6
CONTINUOUS
10
0.30786
20
1.4253
11
0.304238
21
1.43753
0
LINE
8
BLACK
6
CONTINUOUS
10
0.304238
20
1.43753
11
0.299234
21
1.44926
0
LINE
8
BLACK
6
CONTINUOUS
10
0.299234
20
1.44926
11
0.292914
21
1.46034
0
LINE
8
BLACK
6
CONTINUOUS
10
0.292914
20
1.46034
11
0.285363
21
1.47062
0
LINE
8
BLACK
6
CONTINUOUS
10
0.285363
20
1.47062
11
0.276681
21
1.47996
0
LINE
8
BLACK
6
CONTINUOUS
10
0.276681
20
1.47996
11
0.266982
21
1.48825
0
LINE
8
BLACK
6
CONTINUOUS
10
0.266982
20
1.48825
11
0.256395
21
1.49536
0
LINE
8
BLACK
6
CONTINUOUS
10
0.256395
20
1.49536
11
0.245061
21
1.50121
0
LINE
8
BLACK
6
CONTINUOUS
10
0.245061
20
1.50121
11
0.23313
21
1.50572
0
LINE
8
BLACK
6
CONTINUOUS
10
0.23313
20
1.50572
11
0.220759
21
1.50883
0
LINE
8
BLACK
6
CONTINUOUS
10
0.220759
20
1.50883
11
0.208114
21
1.51049
0
LINE
8
BLACK
6
CONTINUOUS
10
0.208114
20
1.51049
11
0.195361
21
1.51069
0
LINE
8
BLACK
6
CONTINUOUS
10
0.195361
20
1.51069
11
0.182669
21
1.50942
0
LINE
8
BLACK
6
CONTINUOUS
10
0.182669
20
1.50942
11
0.170207
21
1.50671
0
LINE
8
BLACK
6
CONTINUOUS
10
0.170207
20
1.50671
11
0.15814
21
1.50257
0
LINE
8
BLACK
6
CONTINUOUS
10
0.15814
20
1.50257
11
0.146628
21
1.49708
0
LINE
8
BLACK
6
CONTINUOUS
10
0.146628
20
1.49708
11
0.135823
21
1.49031
0
LINE
8
BLACK
6
CONTINUOUS
10
0.135823
20
1.49031
11
0.125869
21
1.48233
0
LINE
8
BLACK
6
CONTINUOUS
10
0.125869
20
1.48233
11
0.116897
21
1.47327
0
LINE
8
BLACK
6
CONTINUOUS
10
0.116897
20
1.47327
11
0.109027
21
1.46323
0
LINE
8
BLACK
6
CONTINUOUS
10
0.109027
20
1.46323
11
0.102363
21
1.45235
0
LINE
8
BLACK
6
CONTINUOUS
10
0.102363
20
1.45235
11
0.0969924
21
1.44078
0
LINE
8
BLACK
6
CONTINUOUS
10
0.0969924
20
1.44078
11
0.0929876
21
1.42867
0
LINE
8
BLACK
6
CONTINUOUS
10
0.0929876
20
1.42867
11
0.0904011
21
1.41618
0
LINE
8
BLACK
6
CONTINUOUS
10
0.0904011
20
1.41618
11
0.0892672
21
1.40348
0
LINE
8
BLACK
6
CONTINUOUS
10
0.0892672
20
1.40348
11
0.0896011
21
1.39073
0
LINE
8
BLACK
6
CONTINUOUS
10
0.0896011
20
1.39073
11
0.0913983
21
1.3781
  0
ENDSEC
  0
EOF
