  0
SECTION
  2
HEADER
  9
$ANGBASE
  50
0.0
  9
$ANGDIR
  70
1
  9
$MEASUREMENT
  70
0
  0
ENDSEC
  0
SECTION
  2
TABLES
  0
TABLE
  2
LTYPE
  70
4
  0
LTYPE
  5
40F
  2
CONTINUOUS
  70
0
  3
Solid line
  72
65
  73
0
  40
0.0
  0
LTYPE
  5
410
  2
DASHDOT
 70
0
  3
Dash Dot ____ _ ____ _
 72
65
 73
4
 40
2.0
 49
1.25
 49
-0.25
 49
0.25
 49
-0.25
  0
LTYPE
  5
411
  2
DASHED
 70
0
  3
Dashed __ __ __ __ __
 72
65
 73
2
 40
0.75
 49
0.5
 49
-0.25
  0
LTYPE
  5
43B
  2
DOTTED
 70
0
  3
Dotted .  .  .  .
 72
65
 73
2
 40
0.2
 49
0.0
 49
-0.2
  0
ENDTAB
  0
TABLE
  2
STYLE
  70
4
  0
STYLE
  2
KICAD
  70
0
  40
0
  41
1
  42
1
  50
0
  71
0
  3
isocp.shx
  0
STYLE
  2
KICADB
  70
0
  40
0
  41
1
  42
1
  50
0
  71
0
  3
isocp.shx
  0
STYLE
  2
KICADI
  70
0
  40
0
  41
1
  42
1
  50
15
  71
0
  3
isocp.shx
  0
STYLE
  2
KICADBI
  70
0
  40
0
  41
1
  42
1
  50
15
  71
0
  3
isocp.shx
  0
ENDTAB
  0
TABLE
  2
LAYER
  70
1
  0
LAYER
  2
BLACK
  70
0
  62
7
  6
CONTINUOUS
  0
ENDTAB
  0
ENDSEC
  0
SECTION
  2
ENTITIES
0
LINE
8
BLACK
6
CONTINUOUS
10
0.370506
20
0.38354
11
0.371754
21
0.383336
0
LINE
8
BLACK
6
CONTINUOUS
10
0.371754
20
0.383336
11
0.37199
21
0.383142
0
LINE
8
BLACK
6
CONTINUOUS
10
0.37199
20
0.383142
11
0.372286
21
0.383063
0
LINE
8
BLACK
6
CONTINUOUS
10
0.372286
20
0.383063
11
0.373179
21
0.382169
0
LINE
8
BLACK
6
CONTINUOUS
10
0.373179
20
0.382169
11
0.374158
21
0.381369
0
LINE
8
BLACK
6
CONTINUOUS
10
0.374158
20
0.381369
11
0.374266
21
0.381083
0
LINE
8
BLACK
6
CONTINUOUS
10
0.374266
20
0.381083
11
0.374482
21
0.380867
0
LINE
8
BLACK
6
CONTINUOUS
10
0.374482
20
0.380867
11
0.374809
21
0.379646
0
LINE
8
BLACK
6
CONTINUOUS
10
0.374809
20
0.379646
11
0.375256
21
0.378464
0
LINE
8
BLACK
6
CONTINUOUS
10
0.375256
20
0.378464
11
0.378113
21
0.349892
0
LINE
8
BLACK
6
CONTINUOUS
10
0.378113
20
0.349892
11
0.377938
21
0.348825
0
LINE
8
BLACK
6
CONTINUOUS
10
0.377938
20
0.348825
11
0.377938
21
0.347743
0
LINE
8
BLACK
6
CONTINUOUS
10
0.377938
20
0.347743
11
0.377691
21
0.347315
0
LINE
8
BLACK
6
CONTINUOUS
10
0.377691
20
0.347315
11
0.377612
21
0.346827
0
LINE
8
BLACK
6
CONTINUOUS
10
0.377612
20
0.346827
11
0.376927
21
0.34599
0
LINE
8
BLACK
6
CONTINUOUS
10
0.376927
20
0.34599
11
0.376386
21
0.345053
0
LINE
8
BLACK
6
CONTINUOUS
10
0.376386
20
0.345053
11
0.375958
21
0.344806
0
LINE
8
BLACK
6
CONTINUOUS
10
0.375958
20
0.344806
11
0.375645
21
0.344424
0
LINE
8
BLACK
6
CONTINUOUS
10
0.375645
20
0.344424
11
0.374633
21
0.344041
0
LINE
8
BLACK
6
CONTINUOUS
10
0.374633
20
0.344041
11
0.373696
21
0.3435
0
LINE
8
BLACK
6
CONTINUOUS
10
0.373696
20
0.3435
11
0.373202
21
0.3435
0
LINE
8
BLACK
6
CONTINUOUS
10
0.373202
20
0.3435
11
0.37274
21
0.343325
0
LINE
8
BLACK
6
CONTINUOUS
10
0.37274
20
0.343325
11
0.371672
21
0.3435
0
LINE
8
BLACK
6
CONTINUOUS
10
0.371672
20
0.3435
11
0.37059
21
0.3435
0
LINE
8
BLACK
6
CONTINUOUS
10
0.37059
20
0.3435
11
0.370162
21
0.343747
0
LINE
8
BLACK
6
CONTINUOUS
10
0.370162
20
0.343747
11
0.369675
21
0.343827
0
LINE
8
BLACK
6
CONTINUOUS
10
0.369675
20
0.343827
11
0.368837
21
0.344512
0
LINE
8
BLACK
6
CONTINUOUS
10
0.368837
20
0.344512
11
0.3679
21
0.345053
0
LINE
8
BLACK
6
CONTINUOUS
10
0.3679
20
0.345053
11
0.365731
21
0.347221
0
LINE
8
BLACK
6
CONTINUOUS
10
0.365731
20
0.347221
11
0.362155
21
0.34901
0
LINE
8
BLACK
6
CONTINUOUS
10
0.362155
20
0.34901
11
0.350702
21
0.34901
0
LINE
8
BLACK
6
CONTINUOUS
10
0.350702
20
0.34901
11
0.347126
21
0.347221
0
LINE
8
BLACK
6
CONTINUOUS
10
0.347126
20
0.347221
11
0.345645
21
0.345741
0
LINE
8
BLACK
6
CONTINUOUS
10
0.345645
20
0.345741
11
0.343857
21
0.342165
0
LINE
8
BLACK
6
CONTINUOUS
10
0.343857
20
0.342165
11
0.343857
21
0.330712
0
LINE
8
BLACK
6
CONTINUOUS
10
0.343857
20
0.330712
11
0.345645
21
0.327135
0
LINE
8
BLACK
6
CONTINUOUS
10
0.345645
20
0.327135
11
0.347126
21
0.325655
0
LINE
8
BLACK
6
CONTINUOUS
10
0.347126
20
0.325655
11
0.350702
21
0.323867
0
LINE
8
BLACK
6
CONTINUOUS
10
0.350702
20
0.323867
11
0.362155
21
0.323867
0
LINE
8
BLACK
6
CONTINUOUS
10
0.362155
20
0.323867
11
0.365731
21
0.325655
0
LINE
8
BLACK
6
CONTINUOUS
10
0.365731
20
0.325655
11
0.3679
21
0.327824
0
LINE
8
BLACK
6
CONTINUOUS
10
0.3679
20
0.327824
11
0.37059
21
0.329377
0
LINE
8
BLACK
6
CONTINUOUS
10
0.37059
20
0.329377
11
0.373696
21
0.329377
0
LINE
8
BLACK
6
CONTINUOUS
10
0.373696
20
0.329377
11
0.376386
21
0.327824
0
LINE
8
BLACK
6
CONTINUOUS
10
0.376386
20
0.327824
11
0.377938
21
0.325134
0
LINE
8
BLACK
6
CONTINUOUS
10
0.377938
20
0.325134
11
0.377938
21
0.322028
0
LINE
8
BLACK
6
CONTINUOUS
10
0.377938
20
0.322028
11
0.376385
21
0.319338
0
LINE
8
BLACK
6
CONTINUOUS
10
0.376385
20
0.319338
11
0.373528
21
0.316481
0
LINE
8
BLACK
6
CONTINUOUS
10
0.373528
20
0.316481
11
0.372692
21
0.315998
0
LINE
8
BLACK
6
CONTINUOUS
10
0.372692
20
0.315998
11
0.371969
21
0.315357
0
LINE
8
BLACK
6
CONTINUOUS
10
0.371969
20
0.315357
11
0.366255
21
0.3125
0
LINE
8
BLACK
6
CONTINUOUS
10
0.366255
20
0.3125
11
0.364904
21
0.312224
0
LINE
8
BLACK
6
CONTINUOUS
10
0.364904
20
0.312224
11
0.363571
21
0.311867
0
LINE
8
BLACK
6
CONTINUOUS
10
0.363571
20
0.311867
11
0.349286
21
0.311867
0
LINE
8
BLACK
6
CONTINUOUS
10
0.349286
20
0.311867
11
0.347953
21
0.312224
0
LINE
8
BLACK
6
CONTINUOUS
10
0.347953
20
0.312224
11
0.346602
21
0.3125
0
LINE
8
BLACK
6
CONTINUOUS
10
0.346602
20
0.3125
11
0.340888
21
0.315357
0
LINE
8
BLACK
6
CONTINUOUS
10
0.340888
20
0.315357
11
0.340165
21
0.315998
0
LINE
8
BLACK
6
CONTINUOUS
10
0.340165
20
0.315998
11
0.339329
21
0.316481
0
LINE
8
BLACK
6
CONTINUOUS
10
0.339329
20
0.316481
11
0.336472
21
0.319338
0
LINE
8
BLACK
6
CONTINUOUS
10
0.336472
20
0.319338
11
0.335989
21
0.320175
0
LINE
8
BLACK
6
CONTINUOUS
10
0.335989
20
0.320175
11
0.335348
21
0.320898
0
LINE
8
BLACK
6
CONTINUOUS
10
0.335348
20
0.320898
11
0.332491
21
0.326612
0
LINE
8
BLACK
6
CONTINUOUS
10
0.332491
20
0.326612
11
0.332214
21
0.327963
0
LINE
8
BLACK
6
CONTINUOUS
10
0.332214
20
0.327963
11
0.331857
21
0.329295
0
LINE
8
BLACK
6
CONTINUOUS
10
0.331857
20
0.329295
11
0.331857
21
0.343581
0
LINE
8
BLACK
6
CONTINUOUS
10
0.331857
20
0.343581
11
0.332214
21
0.344913
0
LINE
8
BLACK
6
CONTINUOUS
10
0.332214
20
0.344913
11
0.332491
21
0.346264
0
LINE
8
BLACK
6
CONTINUOUS
10
0.332491
20
0.346264
11
0.335348
21
0.351979
0
LINE
8
BLACK
6
CONTINUOUS
10
0.335348
20
0.351979
11
0.335989
21
0.352701
0
LINE
8
BLACK
6
CONTINUOUS
10
0.335989
20
0.352701
11
0.336472
21
0.353538
0
LINE
8
BLACK
6
CONTINUOUS
10
0.336472
20
0.353538
11
0.339329
21
0.356395
0
LINE
8
BLACK
6
CONTINUOUS
10
0.339329
20
0.356395
11
0.340165
21
0.356878
0
LINE
8
BLACK
6
CONTINUOUS
10
0.340165
20
0.356878
11
0.340888
21
0.357519
0
LINE
8
BLACK
6
CONTINUOUS
10
0.340888
20
0.357519
11
0.346602
21
0.360376
0
LINE
8
BLACK
6
CONTINUOUS
10
0.346602
20
0.360376
11
0.347953
21
0.360653
0
LINE
8
BLACK
6
CONTINUOUS
10
0.347953
20
0.360653
11
0.349286
21
0.36101
0
LINE
8
BLACK
6
CONTINUOUS
10
0.349286
20
0.36101
11
0.363571
21
0.36101
0
LINE
8
BLACK
6
CONTINUOUS
10
0.363571
20
0.36101
11
0.364904
21
0.360653
0
LINE
8
BLACK
6
CONTINUOUS
10
0.364904
20
0.360653
11
0.364979
21
0.360637
0
LINE
8
BLACK
6
CONTINUOUS
10
0.364979
20
0.360637
11
0.363856
21
0.371867
0
LINE
8
BLACK
6
CONTINUOUS
10
0.363856
20
0.371867
11
0.340714
21
0.371867
0
LINE
8
BLACK
6
CONTINUOUS
10
0.340714
20
0.371867
11
0.337714
21
0.372671
0
LINE
8
BLACK
6
CONTINUOUS
10
0.337714
20
0.372671
11
0.335518
21
0.374867
0
LINE
8
BLACK
6
CONTINUOUS
10
0.335518
20
0.374867
11
0.334714
21
0.377867
0
LINE
8
BLACK
6
CONTINUOUS
10
0.334714
20
0.377867
11
0.335518
21
0.380867
0
LINE
8
BLACK
6
CONTINUOUS
10
0.335518
20
0.380867
11
0.337714
21
0.383063
0
LINE
8
BLACK
6
CONTINUOUS
10
0.337714
20
0.383063
11
0.340714
21
0.383867
0
LINE
8
BLACK
6
CONTINUOUS
10
0.340714
20
0.383867
11
0.369286
21
0.383867
0
LINE
8
BLACK
6
CONTINUOUS
10
0.369286
20
0.383867
11
0.370506
21
0.38354
0
LINE
8
BLACK
6
CONTINUOUS
10
0.413076
20
0.383617
11
0.41404
21
0.383559
0
LINE
8
BLACK
6
CONTINUOUS
10
0.41404
20
0.383559
11
0.422612
21
0.380702
0
LINE
8
BLACK
6
CONTINUOUS
10
0.422612
20
0.380702
11
0.423762
21
0.379942
0
LINE
8
BLACK
6
CONTINUOUS
10
0.423762
20
0.379942
11
0.424957
21
0.379252
0
LINE
8
BLACK
6
CONTINUOUS
10
0.424957
20
0.379252
11
0.430671
21
0.373538
0
LINE
8
BLACK
6
CONTINUOUS
10
0.430671
20
0.373538
11
0.431154
21
0.372701
0
LINE
8
BLACK
6
CONTINUOUS
10
0.431154
20
0.372701
11
0.431795
21
0.371979
0
LINE
8
BLACK
6
CONTINUOUS
10
0.431795
20
0.371979
11
0.434652
21
0.366264
0
LINE
8
BLACK
6
CONTINUOUS
10
0.434652
20
0.366264
11
0.434785
21
0.365616
0
LINE
8
BLACK
6
CONTINUOUS
10
0.434785
20
0.365616
11
0.435107
21
0.365036
0
LINE
8
BLACK
6
CONTINUOUS
10
0.435107
20
0.365036
11
0.437964
21
0.353608
0
LINE
8
BLACK
6
CONTINUOUS
10
0.437964
20
0.353608
11
0.437951
21
0.352868
0
LINE
8
BLACK
6
CONTINUOUS
10
0.437951
20
0.352868
11
0.438143
21
0.352153
0
LINE
8
BLACK
6
CONTINUOUS
10
0.438143
20
0.352153
11
0.438143
21
0.343581
0
LINE
8
BLACK
6
CONTINUOUS
10
0.438143
20
0.343581
11
0.437951
21
0.342866
0
LINE
8
BLACK
6
CONTINUOUS
10
0.437951
20
0.342866
11
0.437964
21
0.342126
0
LINE
8
BLACK
6
CONTINUOUS
10
0.437964
20
0.342126
11
0.435107
21
0.330697
0
LINE
8
BLACK
6
CONTINUOUS
10
0.435107
20
0.330697
11
0.434785
21
0.330118
0
LINE
8
BLACK
6
CONTINUOUS
10
0.434785
20
0.330118
11
0.434652
21
0.329469
0
LINE
8
BLACK
6
CONTINUOUS
10
0.434652
20
0.329469
11
0.431795
21
0.323755
0
LINE
8
BLACK
6
CONTINUOUS
10
0.431795
20
0.323755
11
0.431154
21
0.323032
0
LINE
8
BLACK
6
CONTINUOUS
10
0.431154
20
0.323032
11
0.430671
21
0.322196
0
LINE
8
BLACK
6
CONTINUOUS
10
0.430671
20
0.322196
11
0.424957
21
0.316481
0
LINE
8
BLACK
6
CONTINUOUS
10
0.424957
20
0.316481
11
0.423763
21
0.315792
0
LINE
8
BLACK
6
CONTINUOUS
10
0.423763
20
0.315792
11
0.422612
21
0.315032
0
LINE
8
BLACK
6
CONTINUOUS
10
0.422612
20
0.315032
11
0.41404
21
0.312175
0
LINE
8
BLACK
6
CONTINUOUS
10
0.41404
20
0.312175
11
0.413076
21
0.312117
0
LINE
8
BLACK
6
CONTINUOUS
10
0.413076
20
0.312117
11
0.412143
21
0.311867
0
LINE
8
BLACK
6
CONTINUOUS
10
0.412143
20
0.311867
11
0.406429
21
0.311867
0
LINE
8
BLACK
6
CONTINUOUS
10
0.406429
20
0.311867
11
0.405495
21
0.312117
0
LINE
8
BLACK
6
CONTINUOUS
10
0.405495
20
0.312117
11
0.404531
21
0.312175
0
LINE
8
BLACK
6
CONTINUOUS
10
0.404531
20
0.312175
11
0.39596
21
0.315032
0
LINE
8
BLACK
6
CONTINUOUS
10
0.39596
20
0.315032
11
0.394809
21
0.315792
0
LINE
8
BLACK
6
CONTINUOUS
10
0.394809
20
0.315792
11
0.393615
21
0.316481
0
LINE
8
BLACK
6
CONTINUOUS
10
0.393615
20
0.316481
11
0.390757
21
0.319338
0
LINE
8
BLACK
6
CONTINUOUS
10
0.390757
20
0.319338
11
0.389204
21
0.322028
0
LINE
8
BLACK
6
CONTINUOUS
10
0.389204
20
0.322028
11
0.389204
21
0.325134
0
LINE
8
BLACK
6
CONTINUOUS
10
0.389204
20
0.325134
11
0.390757
21
0.327824
0
LINE
8
BLACK
6
CONTINUOUS
10
0.390757
20
0.327824
11
0.393447
21
0.329377
0
LINE
8
BLACK
6
CONTINUOUS
10
0.393447
20
0.329377
11
0.396553
21
0.329377
0
LINE
8
BLACK
6
CONTINUOUS
10
0.396553
20
0.329377
11
0.399243
21
0.327824
0
LINE
8
BLACK
6
CONTINUOUS
10
0.399243
20
0.327824
11
0.401098
21
0.325968
0
LINE
8
BLACK
6
CONTINUOUS
10
0.401098
20
0.325968
11
0.407402
21
0.323867
0
LINE
8
BLACK
6
CONTINUOUS
10
0.407402
20
0.323867
11
0.411169
21
0.323867
0
LINE
8
BLACK
6
CONTINUOUS
10
0.411169
20
0.323867
11
0.417473
21
0.325968
0
LINE
8
BLACK
6
CONTINUOUS
10
0.417473
20
0.325968
11
0.421497
21
0.329992
0
LINE
8
BLACK
6
CONTINUOUS
10
0.421497
20
0.329992
11
0.423625
21
0.334247
0
LINE
8
BLACK
6
CONTINUOUS
10
0.423625
20
0.334247
11
0.426143
21
0.34432
0
LINE
8
BLACK
6
CONTINUOUS
10
0.426143
20
0.34432
11
0.426143
21
0.351414
0
LINE
8
BLACK
6
CONTINUOUS
10
0.426143
20
0.351414
11
0.423625
21
0.361487
0
LINE
8
BLACK
6
CONTINUOUS
10
0.423625
20
0.361487
11
0.421497
21
0.365741
0
LINE
8
BLACK
6
CONTINUOUS
10
0.421497
20
0.365741
11
0.417473
21
0.369765
0
LINE
8
BLACK
6
CONTINUOUS
10
0.417473
20
0.369765
11
0.411169
21
0.371867
0
LINE
8
BLACK
6
CONTINUOUS
10
0.411169
20
0.371867
11
0.407402
21
0.371867
0
LINE
8
BLACK
6
CONTINUOUS
10
0.407402
20
0.371867
11
0.401098
21
0.369766
0
LINE
8
BLACK
6
CONTINUOUS
10
0.401098
20
0.369766
11
0.399243
21
0.36791
0
LINE
8
BLACK
6
CONTINUOUS
10
0.399243
20
0.36791
11
0.396553
21
0.366357
0
LINE
8
BLACK
6
CONTINUOUS
10
0.396553
20
0.366357
11
0.393447
21
0.366357
0
LINE
8
BLACK
6
CONTINUOUS
10
0.393447
20
0.366357
11
0.390757
21
0.36791
0
LINE
8
BLACK
6
CONTINUOUS
10
0.390757
20
0.36791
11
0.389204
21
0.3706
0
LINE
8
BLACK
6
CONTINUOUS
10
0.389204
20
0.3706
11
0.389204
21
0.373705
0
LINE
8
BLACK
6
CONTINUOUS
10
0.389204
20
0.373705
11
0.390757
21
0.376395
0
LINE
8
BLACK
6
CONTINUOUS
10
0.390757
20
0.376395
11
0.393614
21
0.379252
0
LINE
8
BLACK
6
CONTINUOUS
10
0.393614
20
0.379252
11
0.394809
21
0.379942
0
LINE
8
BLACK
6
CONTINUOUS
10
0.394809
20
0.379942
11
0.39596
21
0.380702
0
LINE
8
BLACK
6
CONTINUOUS
10
0.39596
20
0.380702
11
0.404531
21
0.383559
0
LINE
8
BLACK
6
CONTINUOUS
10
0.404531
20
0.383559
11
0.405496
21
0.383617
0
LINE
8
BLACK
6
CONTINUOUS
10
0.405496
20
0.383617
11
0.406429
21
0.383867
0
LINE
8
BLACK
6
CONTINUOUS
10
0.406429
20
0.383867
11
0.412143
21
0.383867
0
LINE
8
BLACK
6
CONTINUOUS
10
0.412143
20
0.383867
11
0.413076
21
0.383617
0
LINE
8
BLACK
6
CONTINUOUS
10
0.48351
20
0.395875
11
0.485057
21
0.394576
0
LINE
8
BLACK
6
CONTINUOUS
10
0.485057
20
0.394576
11
0.485408
21
0.392587
0
LINE
8
BLACK
6
CONTINUOUS
10
0.485408
20
0.392587
11
0.484398
21
0.390838
0
LINE
8
BLACK
6
CONTINUOUS
10
0.484398
20
0.390838
11
0.4825
21
0.390147
0
LINE
8
BLACK
6
CONTINUOUS
10
0.4825
20
0.390147
11
0.2463
21
0.390147
0
LINE
8
BLACK
6
CONTINUOUS
10
0.2463
20
0.390147
11
0.24529
21
0.390325
0
LINE
8
BLACK
6
CONTINUOUS
10
0.24529
20
0.390325
11
0.243743
21
0.391624
0
LINE
8
BLACK
6
CONTINUOUS
10
0.243743
20
0.391624
11
0.243392
21
0.393613
0
LINE
8
BLACK
6
CONTINUOUS
10
0.243392
20
0.393613
11
0.244402
21
0.395362
0
LINE
8
BLACK
6
CONTINUOUS
10
0.244402
20
0.395362
11
0.2463
21
0.396053
0
LINE
8
BLACK
6
CONTINUOUS
10
0.2463
20
0.396053
11
0.4825
21
0.396053
0
LINE
8
BLACK
6
CONTINUOUS
10
0.4825
20
0.396053
11
0.48351
21
0.395875
0
LINE
8
BLACK
6
CONTINUOUS
10
0.536662
20
0.528898
11
0.537353
21
0.527
0
LINE
8
BLACK
6
CONTINUOUS
10
0.537353
20
0.527
11
0.537353
21
0.3932
0
LINE
8
BLACK
6
CONTINUOUS
10
0.537353
20
0.3932
11
0.537175
21
0.39219
0
LINE
8
BLACK
6
CONTINUOUS
10
0.537175
20
0.39219
11
0.535876
21
0.390643
0
LINE
8
BLACK
6
CONTINUOUS
10
0.535876
20
0.390643
11
0.533887
21
0.390292
0
LINE
8
BLACK
6
CONTINUOUS
10
0.533887
20
0.390292
11
0.533856
21
0.39031
0
LINE
8
BLACK
6
CONTINUOUS
10
0.533856
20
0.39031
11
0.533187
21
0.390192
0
LINE
8
BLACK
6
CONTINUOUS
10
0.533187
20
0.390192
11
0.531438
21
0.391202
0
LINE
8
BLACK
6
CONTINUOUS
10
0.531438
20
0.391202
11
0.530747
21
0.3931
0
LINE
8
BLACK
6
CONTINUOUS
10
0.530747
20
0.3931
11
0.530747
21
0.5269
0
LINE
8
BLACK
6
CONTINUOUS
10
0.530747
20
0.5269
11
0.530925
21
0.52791
0
LINE
8
BLACK
6
CONTINUOUS
10
0.530925
20
0.52791
11
0.532224
21
0.529457
0
LINE
8
BLACK
6
CONTINUOUS
10
0.532224
20
0.529457
11
0.534213
21
0.529808
0
LINE
8
BLACK
6
CONTINUOUS
10
0.534213
20
0.529808
11
0.534244
21
0.52979
0
LINE
8
BLACK
6
CONTINUOUS
10
0.534244
20
0.52979
11
0.534913
21
0.529908
0
LINE
8
BLACK
6
CONTINUOUS
10
0.534913
20
0.529908
11
0.536662
21
0.528898
0
LINE
8
BLACK
6
CONTINUOUS
10
0.48441
20
0.529775
11
0.485957
21
0.528476
0
LINE
8
BLACK
6
CONTINUOUS
10
0.485957
20
0.528476
11
0.486308
21
0.526487
0
LINE
8
BLACK
6
CONTINUOUS
10
0.486308
20
0.526487
11
0.485298
21
0.524738
0
LINE
8
BLACK
6
CONTINUOUS
10
0.485298
20
0.524738
11
0.4834
21
0.524047
0
LINE
8
BLACK
6
CONTINUOUS
10
0.4834
20
0.524047
11
0.2472
21
0.524047
0
LINE
8
BLACK
6
CONTINUOUS
10
0.2472
20
0.524047
11
0.24619
21
0.524225
0
LINE
8
BLACK
6
CONTINUOUS
10
0.24619
20
0.524225
11
0.244643
21
0.525524
0
LINE
8
BLACK
6
CONTINUOUS
10
0.244643
20
0.525524
11
0.244292
21
0.527513
0
LINE
8
BLACK
6
CONTINUOUS
10
0.244292
20
0.527513
11
0.245302
21
0.529262
0
LINE
8
BLACK
6
CONTINUOUS
10
0.245302
20
0.529262
11
0.2472
21
0.529953
0
LINE
8
BLACK
6
CONTINUOUS
10
0.2472
20
0.529953
11
0.4834
21
0.529953
0
LINE
8
BLACK
6
CONTINUOUS
10
0.4834
20
0.529953
11
0.48441
21
0.529775
0
LINE
8
BLACK
6
CONTINUOUS
10
0.5642
20
0.584177
11
0.566396
21
0.581981
0
LINE
8
BLACK
6
CONTINUOUS
10
0.566396
20
0.581981
11
0.5672
21
0.578981
0
LINE
8
BLACK
6
CONTINUOUS
10
0.5672
20
0.578981
11
0.5672
21
0.563453
0
LINE
8
BLACK
6
CONTINUOUS
10
0.5672
20
0.563453
11
0.5849
21
0.563453
0
LINE
8
BLACK
6
CONTINUOUS
10
0.5849
20
0.563453
11
0.58591
21
0.563275
0
LINE
8
BLACK
6
CONTINUOUS
10
0.58591
20
0.563275
11
0.587457
21
0.561976
0
LINE
8
BLACK
6
CONTINUOUS
10
0.587457
20
0.561976
11
0.587683
21
0.560694
0
LINE
8
BLACK
6
CONTINUOUS
10
0.587683
20
0.560694
11
0.589253
21
0.559124
0
LINE
8
BLACK
6
CONTINUOUS
10
0.589253
20
0.559124
11
0.590057
21
0.556124
0
LINE
8
BLACK
6
CONTINUOUS
10
0.590057
20
0.556124
11
0.589253
21
0.553124
0
LINE
8
BLACK
6
CONTINUOUS
10
0.589253
20
0.553124
11
0.587057
21
0.550928
0
LINE
8
BLACK
6
CONTINUOUS
10
0.587057
20
0.550928
11
0.584057
21
0.550124
0
LINE
8
BLACK
6
CONTINUOUS
10
0.584057
20
0.550124
11
0.5672
21
0.550124
0
LINE
8
BLACK
6
CONTINUOUS
10
0.5672
20
0.550124
11
0.5672
21
0.533267
0
LINE
8
BLACK
6
CONTINUOUS
10
0.5672
20
0.533267
11
0.566396
21
0.530267
0
LINE
8
BLACK
6
CONTINUOUS
10
0.566396
20
0.530267
11
0.5642
21
0.528071
0
LINE
8
BLACK
6
CONTINUOUS
10
0.5642
20
0.528071
11
0.5612
21
0.527267
0
LINE
8
BLACK
6
CONTINUOUS
10
0.5612
20
0.527267
11
0.5582
21
0.528071
0
LINE
8
BLACK
6
CONTINUOUS
10
0.5582
20
0.528071
11
0.556004
21
0.530267
0
LINE
8
BLACK
6
CONTINUOUS
10
0.556004
20
0.530267
11
0.5552
21
0.533267
0
LINE
8
BLACK
6
CONTINUOUS
10
0.5552
20
0.533267
11
0.5552
21
0.550124
0
LINE
8
BLACK
6
CONTINUOUS
10
0.5552
20
0.550124
11
0.538343
21
0.550124
0
LINE
8
BLACK
6
CONTINUOUS
10
0.538343
20
0.550124
11
0.535343
21
0.550928
0
LINE
8
BLACK
6
CONTINUOUS
10
0.535343
20
0.550928
11
0.533147
21
0.553124
0
LINE
8
BLACK
6
CONTINUOUS
10
0.533147
20
0.553124
11
0.532343
21
0.556124
0
LINE
8
BLACK
6
CONTINUOUS
10
0.532343
20
0.556124
11
0.533147
21
0.559124
0
LINE
8
BLACK
6
CONTINUOUS
10
0.533147
20
0.559124
11
0.534829
21
0.560806
0
LINE
8
BLACK
6
CONTINUOUS
10
0.534829
20
0.560806
11
0.534792
21
0.561013
0
LINE
8
BLACK
6
CONTINUOUS
10
0.534792
20
0.561013
11
0.535802
21
0.562762
0
LINE
8
BLACK
6
CONTINUOUS
10
0.535802
20
0.562762
11
0.5377
21
0.563453
0
LINE
8
BLACK
6
CONTINUOUS
10
0.5377
20
0.563453
11
0.5552
21
0.563453
0
LINE
8
BLACK
6
CONTINUOUS
10
0.5552
20
0.563453
11
0.5552
21
0.578981
0
LINE
8
BLACK
6
CONTINUOUS
10
0.5552
20
0.578981
11
0.556004
21
0.581981
0
LINE
8
BLACK
6
CONTINUOUS
10
0.556004
20
0.581981
11
0.5582
21
0.584177
0
LINE
8
BLACK
6
CONTINUOUS
10
0.5582
20
0.584177
11
0.5612
21
0.584981
0
LINE
8
BLACK
6
CONTINUOUS
10
0.5612
20
0.584981
11
0.5642
21
0.584177
0
LINE
8
BLACK
6
CONTINUOUS
10
0.152262
20
0.609398
11
0.152953
21
0.6075
0
LINE
8
BLACK
6
CONTINUOUS
10
0.152953
20
0.6075
11
0.152953
21
0.5675
0
LINE
8
BLACK
6
CONTINUOUS
10
0.152953
20
0.5675
11
0.152885
21
0.567116
0
LINE
8
BLACK
6
CONTINUOUS
10
0.152885
20
0.567116
11
0.152908
21
0.566987
0
LINE
8
BLACK
6
CONTINUOUS
10
0.152908
20
0.566987
11
0.152842
21
0.566874
0
LINE
8
BLACK
6
CONTINUOUS
10
0.152842
20
0.566874
11
0.152775
21
0.56649
0
LINE
8
BLACK
6
CONTINUOUS
10
0.152775
20
0.56649
11
0.152282
21
0.565902
0
LINE
8
BLACK
6
CONTINUOUS
10
0.152282
20
0.565902
11
0.151898
21
0.565238
0
LINE
8
BLACK
6
CONTINUOUS
10
0.151898
20
0.565238
11
0.151648
21
0.565147
0
LINE
8
BLACK
6
CONTINUOUS
10
0.151648
20
0.565147
11
0.151476
21
0.564943
0
LINE
8
BLACK
6
CONTINUOUS
10
0.151476
20
0.564943
11
0.150721
21
0.56481
0
LINE
8
BLACK
6
CONTINUOUS
10
0.150721
20
0.56481
11
0.15
21
0.564547
0
LINE
8
BLACK
6
CONTINUOUS
10
0.15
20
0.564547
11
0.0974855
21
0.564547
0
LINE
8
BLACK
6
CONTINUOUS
10
0.0974855
20
0.564547
11
0.0979528
21
0.5625
0
LINE
8
BLACK
6
CONTINUOUS
10
0.0979528
20
0.5625
11
0.0971652
21
0.559049
0
LINE
8
BLACK
6
CONTINUOUS
10
0.0971652
20
0.559049
11
0.0949585
21
0.556282
0
LINE
8
BLACK
6
CONTINUOUS
10
0.0949585
20
0.556282
11
0.0917696
21
0.554747
0
LINE
8
BLACK
6
CONTINUOUS
10
0.0917696
20
0.554747
11
0.0882304
21
0.554747
0
LINE
8
BLACK
6
CONTINUOUS
10
0.0882304
20
0.554747
11
0.0850415
21
0.556282
0
LINE
8
BLACK
6
CONTINUOUS
10
0.0850415
20
0.556282
11
0.0828348
21
0.559049
0
LINE
8
BLACK
6
CONTINUOUS
10
0.0828348
20
0.559049
11
0.0820472
21
0.5625
0
LINE
8
BLACK
6
CONTINUOUS
10
0.0820472
20
0.5625
11
0.0828348
21
0.565951
0
LINE
8
BLACK
6
CONTINUOUS
10
0.0828348
20
0.565951
11
0.0850415
21
0.568718
0
LINE
8
BLACK
6
CONTINUOUS
10
0.0850415
20
0.568718
11
0.0870472
21
0.569684
0
LINE
8
BLACK
6
CONTINUOUS
10
0.0870472
20
0.569684
11
0.0870472
21
0.6075
0
LINE
8
BLACK
6
CONTINUOUS
10
0.0870472
20
0.6075
11
0.0872253
21
0.60851
0
LINE
8
BLACK
6
CONTINUOUS
10
0.0872253
20
0.60851
11
0.0885236
21
0.610057
0
LINE
8
BLACK
6
CONTINUOUS
10
0.0885236
20
0.610057
11
0.0905128
21
0.610408
0
LINE
8
BLACK
6
CONTINUOUS
10
0.0905128
20
0.610408
11
0.0922619
21
0.609398
0
LINE
8
BLACK
6
CONTINUOUS
10
0.0922619
20
0.609398
11
0.0929528
21
0.6075
0
LINE
8
BLACK
6
CONTINUOUS
10
0.0929528
20
0.6075
11
0.0929528
21
0.570453
0
LINE
8
BLACK
6
CONTINUOUS
10
0.0929528
20
0.570453
11
0.147047
21
0.570453
0
LINE
8
BLACK
6
CONTINUOUS
10
0.147047
20
0.570453
11
0.147047
21
0.6075
0
LINE
8
BLACK
6
CONTINUOUS
10
0.147047
20
0.6075
11
0.147225
21
0.60851
0
LINE
8
BLACK
6
CONTINUOUS
10
0.147225
20
0.60851
11
0.148524
21
0.610057
0
LINE
8
BLACK
6
CONTINUOUS
10
0.148524
20
0.610057
11
0.150513
21
0.610408
0
LINE
8
BLACK
6
CONTINUOUS
10
0.150513
20
0.610408
11
0.152262
21
0.609398
0
LINE
8
BLACK
6
CONTINUOUS
10
0.0884331
20
0.560933
11
0.09
21
0.560284
0
LINE
8
BLACK
6
CONTINUOUS
10
0.09
20
0.560284
11
0.0915669
21
0.560933
0
LINE
8
BLACK
6
CONTINUOUS
10
0.0915669
20
0.560933
11
0.0922159
21
0.5625
0
LINE
8
BLACK
6
CONTINUOUS
10
0.0922159
20
0.5625
11
0.0915669
21
0.564067
0
LINE
8
BLACK
6
CONTINUOUS
10
0.0915669
20
0.564067
11
0.0904072
21
0.564547
0
LINE
8
BLACK
6
CONTINUOUS
10
0.0904072
20
0.564547
11
0.09
21
0.564547
0
LINE
8
BLACK
6
CONTINUOUS
10
0.09
20
0.564547
11
0.0897144
21
0.564598
0
LINE
8
BLACK
6
CONTINUOUS
10
0.0897144
20
0.564598
11
0.0884331
21
0.564067
0
LINE
8
BLACK
6
CONTINUOUS
10
0.0884331
20
0.564067
11
0.0877841
21
0.5625
0
LINE
8
BLACK
6
CONTINUOUS
10
0.0877841
20
0.5625
11
0.0884331
21
0.560933
0
LINE
8
BLACK
6
CONTINUOUS
10
0.242262
20
0.609398
11
0.242953
21
0.6075
0
LINE
8
BLACK
6
CONTINUOUS
10
0.242953
20
0.6075
11
0.242953
21
0.5675
0
LINE
8
BLACK
6
CONTINUOUS
10
0.242953
20
0.5675
11
0.242885
21
0.567116
0
LINE
8
BLACK
6
CONTINUOUS
10
0.242885
20
0.567116
11
0.242908
21
0.566987
0
LINE
8
BLACK
6
CONTINUOUS
10
0.242908
20
0.566987
11
0.242842
21
0.566874
0
LINE
8
BLACK
6
CONTINUOUS
10
0.242842
20
0.566874
11
0.242775
21
0.56649
0
LINE
8
BLACK
6
CONTINUOUS
10
0.242775
20
0.56649
11
0.242282
21
0.565902
0
LINE
8
BLACK
6
CONTINUOUS
10
0.242282
20
0.565902
11
0.241898
21
0.565238
0
LINE
8
BLACK
6
CONTINUOUS
10
0.241898
20
0.565238
11
0.241648
21
0.565147
0
LINE
8
BLACK
6
CONTINUOUS
10
0.241648
20
0.565147
11
0.241476
21
0.564943
0
LINE
8
BLACK
6
CONTINUOUS
10
0.241476
20
0.564943
11
0.240721
21
0.56481
0
LINE
8
BLACK
6
CONTINUOUS
10
0.240721
20
0.56481
11
0.24
21
0.564547
0
LINE
8
BLACK
6
CONTINUOUS
10
0.24
20
0.564547
11
0.187486
21
0.564547
0
LINE
8
BLACK
6
CONTINUOUS
10
0.187486
20
0.564547
11
0.187953
21
0.5625
0
LINE
8
BLACK
6
CONTINUOUS
10
0.187953
20
0.5625
11
0.187165
21
0.559049
0
LINE
8
BLACK
6
CONTINUOUS
10
0.187165
20
0.559049
11
0.184958
21
0.556282
0
LINE
8
BLACK
6
CONTINUOUS
10
0.184958
20
0.556282
11
0.18177
21
0.554747
0
LINE
8
BLACK
6
CONTINUOUS
10
0.18177
20
0.554747
11
0.17823
21
0.554747
0
LINE
8
BLACK
6
CONTINUOUS
10
0.17823
20
0.554747
11
0.175042
21
0.556282
0
LINE
8
BLACK
6
CONTINUOUS
10
0.175042
20
0.556282
11
0.172835
21
0.559049
0
LINE
8
BLACK
6
CONTINUOUS
10
0.172835
20
0.559049
11
0.172047
21
0.5625
0
LINE
8
BLACK
6
CONTINUOUS
10
0.172047
20
0.5625
11
0.172835
21
0.565951
0
LINE
8
BLACK
6
CONTINUOUS
10
0.172835
20
0.565951
11
0.175042
21
0.568718
0
LINE
8
BLACK
6
CONTINUOUS
10
0.175042
20
0.568718
11
0.177047
21
0.569684
0
LINE
8
BLACK
6
CONTINUOUS
10
0.177047
20
0.569684
11
0.177047
21
0.6075
0
LINE
8
BLACK
6
CONTINUOUS
10
0.177047
20
0.6075
11
0.177225
21
0.60851
0
LINE
8
BLACK
6
CONTINUOUS
10
0.177225
20
0.60851
11
0.178524
21
0.610057
0
LINE
8
BLACK
6
CONTINUOUS
10
0.178524
20
0.610057
11
0.180513
21
0.610408
0
LINE
8
BLACK
6
CONTINUOUS
10
0.180513
20
0.610408
11
0.182262
21
0.609398
0
LINE
8
BLACK
6
CONTINUOUS
10
0.182262
20
0.609398
11
0.182953
21
0.6075
0
LINE
8
BLACK
6
CONTINUOUS
10
0.182953
20
0.6075
11
0.182953
21
0.570453
0
LINE
8
BLACK
6
CONTINUOUS
10
0.182953
20
0.570453
11
0.237047
21
0.570453
0
LINE
8
BLACK
6
CONTINUOUS
10
0.237047
20
0.570453
11
0.237047
21
0.6075
0
LINE
8
BLACK
6
CONTINUOUS
10
0.237047
20
0.6075
11
0.237225
21
0.60851
0
LINE
8
BLACK
6
CONTINUOUS
10
0.237225
20
0.60851
11
0.238524
21
0.610057
0
LINE
8
BLACK
6
CONTINUOUS
10
0.238524
20
0.610057
11
0.240513
21
0.610408
0
LINE
8
BLACK
6
CONTINUOUS
10
0.240513
20
0.610408
11
0.242262
21
0.609398
0
LINE
8
BLACK
6
CONTINUOUS
10
0.178433
20
0.560933
11
0.18
21
0.560284
0
LINE
8
BLACK
6
CONTINUOUS
10
0.18
20
0.560284
11
0.181567
21
0.560933
0
LINE
8
BLACK
6
CONTINUOUS
10
0.181567
20
0.560933
11
0.182216
21
0.5625
0
LINE
8
BLACK
6
CONTINUOUS
10
0.182216
20
0.5625
11
0.181567
21
0.564067
0
LINE
8
BLACK
6
CONTINUOUS
10
0.181567
20
0.564067
11
0.180407
21
0.564547
0
LINE
8
BLACK
6
CONTINUOUS
10
0.180407
20
0.564547
11
0.18
21
0.564547
0
LINE
8
BLACK
6
CONTINUOUS
10
0.18
20
0.564547
11
0.179714
21
0.564598
0
LINE
8
BLACK
6
CONTINUOUS
10
0.179714
20
0.564598
11
0.178433
21
0.564067
0
LINE
8
BLACK
6
CONTINUOUS
10
0.178433
20
0.564067
11
0.177784
21
0.5625
0
LINE
8
BLACK
6
CONTINUOUS
10
0.177784
20
0.5625
11
0.178433
21
0.560933
0
LINE
8
BLACK
6
CONTINUOUS
10
0.337262
20
0.609398
11
0.337953
21
0.6075
0
LINE
8
BLACK
6
CONTINUOUS
10
0.337953
20
0.6075
11
0.337953
21
0.5675
0
LINE
8
BLACK
6
CONTINUOUS
10
0.337953
20
0.5675
11
0.337885
21
0.567116
0
LINE
8
BLACK
6
CONTINUOUS
10
0.337885
20
0.567116
11
0.337908
21
0.566987
0
LINE
8
BLACK
6
CONTINUOUS
10
0.337908
20
0.566987
11
0.337842
21
0.566874
0
LINE
8
BLACK
6
CONTINUOUS
10
0.337842
20
0.566874
11
0.337775
21
0.56649
0
LINE
8
BLACK
6
CONTINUOUS
10
0.337775
20
0.56649
11
0.337282
21
0.565902
0
LINE
8
BLACK
6
CONTINUOUS
10
0.337282
20
0.565902
11
0.336898
21
0.565238
0
LINE
8
BLACK
6
CONTINUOUS
10
0.336898
20
0.565238
11
0.336648
21
0.565147
0
LINE
8
BLACK
6
CONTINUOUS
10
0.336648
20
0.565147
11
0.336476
21
0.564943
0
LINE
8
BLACK
6
CONTINUOUS
10
0.336476
20
0.564943
11
0.335721
21
0.56481
0
LINE
8
BLACK
6
CONTINUOUS
10
0.335721
20
0.56481
11
0.335
21
0.564547
0
LINE
8
BLACK
6
CONTINUOUS
10
0.335
20
0.564547
11
0.282486
21
0.564547
0
LINE
8
BLACK
6
CONTINUOUS
10
0.282486
20
0.564547
11
0.282953
21
0.5625
0
LINE
8
BLACK
6
CONTINUOUS
10
0.282953
20
0.5625
11
0.282165
21
0.559049
0
LINE
8
BLACK
6
CONTINUOUS
10
0.282165
20
0.559049
11
0.279958
21
0.556282
0
LINE
8
BLACK
6
CONTINUOUS
10
0.279958
20
0.556282
11
0.27677
21
0.554747
0
LINE
8
BLACK
6
CONTINUOUS
10
0.27677
20
0.554747
11
0.27323
21
0.554747
0
LINE
8
BLACK
6
CONTINUOUS
10
0.27323
20
0.554747
11
0.270042
21
0.556282
0
LINE
8
BLACK
6
CONTINUOUS
10
0.270042
20
0.556282
11
0.267835
21
0.559049
0
LINE
8
BLACK
6
CONTINUOUS
10
0.267835
20
0.559049
11
0.267047
21
0.5625
0
LINE
8
BLACK
6
CONTINUOUS
10
0.267047
20
0.5625
11
0.267835
21
0.565951
0
LINE
8
BLACK
6
CONTINUOUS
10
0.267835
20
0.565951
11
0.270042
21
0.568718
0
LINE
8
BLACK
6
CONTINUOUS
10
0.270042
20
0.568718
11
0.272047
21
0.569684
0
LINE
8
BLACK
6
CONTINUOUS
10
0.272047
20
0.569684
11
0.272047
21
0.6075
0
LINE
8
BLACK
6
CONTINUOUS
10
0.272047
20
0.6075
11
0.272225
21
0.60851
0
LINE
8
BLACK
6
CONTINUOUS
10
0.272225
20
0.60851
11
0.273524
21
0.610057
0
LINE
8
BLACK
6
CONTINUOUS
10
0.273524
20
0.610057
11
0.275513
21
0.610408
0
LINE
8
BLACK
6
CONTINUOUS
10
0.275513
20
0.610408
11
0.277262
21
0.609398
0
LINE
8
BLACK
6
CONTINUOUS
10
0.277262
20
0.609398
11
0.277953
21
0.6075
0
LINE
8
BLACK
6
CONTINUOUS
10
0.277953
20
0.6075
11
0.277953
21
0.570453
0
LINE
8
BLACK
6
CONTINUOUS
10
0.277953
20
0.570453
11
0.332047
21
0.570453
0
LINE
8
BLACK
6
CONTINUOUS
10
0.332047
20
0.570453
11
0.332047
21
0.6075
0
LINE
8
BLACK
6
CONTINUOUS
10
0.332047
20
0.6075
11
0.332225
21
0.60851
0
LINE
8
BLACK
6
CONTINUOUS
10
0.332225
20
0.60851
11
0.333524
21
0.610057
0
LINE
8
BLACK
6
CONTINUOUS
10
0.333524
20
0.610057
11
0.335513
21
0.610408
0
LINE
8
BLACK
6
CONTINUOUS
10
0.335513
20
0.610408
11
0.337262
21
0.609398
0
LINE
8
BLACK
6
CONTINUOUS
10
0.273433
20
0.560933
11
0.275
21
0.560284
0
LINE
8
BLACK
6
CONTINUOUS
10
0.275
20
0.560284
11
0.276567
21
0.560933
0
LINE
8
BLACK
6
CONTINUOUS
10
0.276567
20
0.560933
11
0.277216
21
0.5625
0
LINE
8
BLACK
6
CONTINUOUS
10
0.277216
20
0.5625
11
0.276567
21
0.564067
0
LINE
8
BLACK
6
CONTINUOUS
10
0.276567
20
0.564067
11
0.275407
21
0.564547
0
LINE
8
BLACK
6
CONTINUOUS
10
0.275407
20
0.564547
11
0.275
21
0.564547
0
LINE
8
BLACK
6
CONTINUOUS
10
0.275
20
0.564547
11
0.274714
21
0.564598
0
LINE
8
BLACK
6
CONTINUOUS
10
0.274714
20
0.564598
11
0.273433
21
0.564067
0
LINE
8
BLACK
6
CONTINUOUS
10
0.273433
20
0.564067
11
0.272784
21
0.5625
0
LINE
8
BLACK
6
CONTINUOUS
10
0.272784
20
0.5625
11
0.273433
21
0.560933
0
LINE
8
BLACK
6
CONTINUOUS
10
0.536316
20
0.796316
11
0.537008
21
0.794646
0
LINE
8
BLACK
6
CONTINUOUS
10
0.537008
20
0.794646
11
0.537008
21
0.570236
0
LINE
8
BLACK
6
CONTINUOUS
10
0.537008
20
0.570236
11
0.536316
21
0.568566
0
LINE
8
BLACK
6
CONTINUOUS
10
0.536316
20
0.568566
11
0.534646
21
0.567874
0
LINE
8
BLACK
6
CONTINUOUS
10
0.534646
20
0.567874
11
0.365354
21
0.567874
0
LINE
8
BLACK
6
CONTINUOUS
10
0.365354
20
0.567874
11
0.363684
21
0.568566
0
LINE
8
BLACK
6
CONTINUOUS
10
0.363684
20
0.568566
11
0.362992
21
0.570236
0
LINE
8
BLACK
6
CONTINUOUS
10
0.362992
20
0.570236
11
0.362992
21
0.794646
0
LINE
8
BLACK
6
CONTINUOUS
10
0.362992
20
0.794646
11
0.363684
21
0.796316
0
LINE
8
BLACK
6
CONTINUOUS
10
0.363684
20
0.796316
11
0.365354
21
0.797008
0
LINE
8
BLACK
6
CONTINUOUS
10
0.365354
20
0.797008
11
0.367025
21
0.796316
0
LINE
8
BLACK
6
CONTINUOUS
10
0.367025
20
0.796316
11
0.367717
21
0.794646
0
LINE
8
BLACK
6
CONTINUOUS
10
0.367717
20
0.794646
11
0.367717
21
0.572598
0
LINE
8
BLACK
6
CONTINUOUS
10
0.367717
20
0.572598
11
0.532283
21
0.572598
0
LINE
8
BLACK
6
CONTINUOUS
10
0.532283
20
0.572598
11
0.532283
21
0.794646
0
LINE
8
BLACK
6
CONTINUOUS
10
0.532283
20
0.794646
11
0.532975
21
0.796316
0
LINE
8
BLACK
6
CONTINUOUS
10
0.532975
20
0.796316
11
0.534646
21
0.797008
0
LINE
8
BLACK
6
CONTINUOUS
10
0.534646
20
0.797008
11
0.536316
21
0.796316
0
LINE
8
BLACK
6
CONTINUOUS
10
0.150384
20
0.690385
11
0.150513
21
0.690408
0
LINE
8
BLACK
6
CONTINUOUS
10
0.150513
20
0.690408
11
0.150626
21
0.690342
0
LINE
8
BLACK
6
CONTINUOUS
10
0.150626
20
0.690342
11
0.15101
21
0.690275
0
LINE
8
BLACK
6
CONTINUOUS
10
0.15101
20
0.690275
11
0.151598
21
0.689782
0
LINE
8
BLACK
6
CONTINUOUS
10
0.151598
20
0.689782
11
0.152262
21
0.689398
0
LINE
8
BLACK
6
CONTINUOUS
10
0.152262
20
0.689398
11
0.152353
21
0.689148
0
LINE
8
BLACK
6
CONTINUOUS
10
0.152353
20
0.689148
11
0.152557
21
0.688976
0
LINE
8
BLACK
6
CONTINUOUS
10
0.152557
20
0.688976
11
0.15269
21
0.688221
0
LINE
8
BLACK
6
CONTINUOUS
10
0.15269
20
0.688221
11
0.152953
21
0.6875
0
LINE
8
BLACK
6
CONTINUOUS
10
0.152953
20
0.6875
11
0.152953
21
0.6475
0
LINE
8
BLACK
6
CONTINUOUS
10
0.152953
20
0.6475
11
0.152775
21
0.64649
0
LINE
8
BLACK
6
CONTINUOUS
10
0.152775
20
0.64649
11
0.151476
21
0.644943
0
LINE
8
BLACK
6
CONTINUOUS
10
0.151476
20
0.644943
11
0.149487
21
0.644592
0
LINE
8
BLACK
6
CONTINUOUS
10
0.149487
20
0.644592
11
0.147738
21
0.645602
0
LINE
8
BLACK
6
CONTINUOUS
10
0.147738
20
0.645602
11
0.147047
21
0.6475
0
LINE
8
BLACK
6
CONTINUOUS
10
0.147047
20
0.6475
11
0.147047
21
0.684547
0
LINE
8
BLACK
6
CONTINUOUS
10
0.147047
20
0.684547
11
0.0929528
21
0.684547
0
LINE
8
BLACK
6
CONTINUOUS
10
0.0929528
20
0.684547
11
0.0929528
21
0.6475
0
LINE
8
BLACK
6
CONTINUOUS
10
0.0929528
20
0.6475
11
0.0927747
21
0.64649
0
LINE
8
BLACK
6
CONTINUOUS
10
0.0927747
20
0.64649
11
0.0914764
21
0.644943
0
LINE
8
BLACK
6
CONTINUOUS
10
0.0914764
20
0.644943
11
0.0894872
21
0.644592
0
LINE
8
BLACK
6
CONTINUOUS
10
0.0894872
20
0.644592
11
0.0877381
21
0.645602
0
LINE
8
BLACK
6
CONTINUOUS
10
0.0877381
20
0.645602
11
0.0870472
21
0.6475
0
LINE
8
BLACK
6
CONTINUOUS
10
0.0870472
20
0.6475
11
0.0870472
21
0.6875
0
LINE
8
BLACK
6
CONTINUOUS
10
0.0870472
20
0.6875
11
0.0871148
21
0.687884
0
LINE
8
BLACK
6
CONTINUOUS
10
0.0871148
20
0.687884
11
0.0870921
21
0.688013
0
LINE
8
BLACK
6
CONTINUOUS
10
0.0870921
20
0.688013
11
0.0871577
21
0.688126
0
LINE
8
BLACK
6
CONTINUOUS
10
0.0871577
20
0.688126
11
0.0872253
21
0.68851
0
LINE
8
BLACK
6
CONTINUOUS
10
0.0872253
20
0.68851
11
0.0877184
21
0.689098
0
LINE
8
BLACK
6
CONTINUOUS
10
0.0877184
20
0.689098
11
0.088102
21
0.689762
0
LINE
8
BLACK
6
CONTINUOUS
10
0.088102
20
0.689762
11
0.0883523
21
0.689853
0
LINE
8
BLACK
6
CONTINUOUS
10
0.0883523
20
0.689853
11
0.0885236
21
0.690057
0
LINE
8
BLACK
6
CONTINUOUS
10
0.0885236
20
0.690057
11
0.0892792
21
0.69019
0
LINE
8
BLACK
6
CONTINUOUS
10
0.0892792
20
0.69019
11
0.09
21
0.690453
0
LINE
8
BLACK
6
CONTINUOUS
10
0.09
20
0.690453
11
0.15
21
0.690453
0
LINE
8
BLACK
6
CONTINUOUS
10
0.15
20
0.690453
11
0.150384
21
0.690385
0
LINE
8
BLACK
6
CONTINUOUS
10
0.240384
20
0.690385
11
0.240513
21
0.690408
0
LINE
8
BLACK
6
CONTINUOUS
10
0.240513
20
0.690408
11
0.240626
21
0.690342
0
LINE
8
BLACK
6
CONTINUOUS
10
0.240626
20
0.690342
11
0.24101
21
0.690275
0
LINE
8
BLACK
6
CONTINUOUS
10
0.24101
20
0.690275
11
0.241598
21
0.689782
0
LINE
8
BLACK
6
CONTINUOUS
10
0.241598
20
0.689782
11
0.242262
21
0.689398
0
LINE
8
BLACK
6
CONTINUOUS
10
0.242262
20
0.689398
11
0.242353
21
0.689148
0
LINE
8
BLACK
6
CONTINUOUS
10
0.242353
20
0.689148
11
0.242557
21
0.688976
0
LINE
8
BLACK
6
CONTINUOUS
10
0.242557
20
0.688976
11
0.24269
21
0.688221
0
LINE
8
BLACK
6
CONTINUOUS
10
0.24269
20
0.688221
11
0.242953
21
0.6875
0
LINE
8
BLACK
6
CONTINUOUS
10
0.242953
20
0.6875
11
0.242953
21
0.6475
0
LINE
8
BLACK
6
CONTINUOUS
10
0.242953
20
0.6475
11
0.242775
21
0.64649
0
LINE
8
BLACK
6
CONTINUOUS
10
0.242775
20
0.64649
11
0.241476
21
0.644943
0
LINE
8
BLACK
6
CONTINUOUS
10
0.241476
20
0.644943
11
0.239487
21
0.644592
0
LINE
8
BLACK
6
CONTINUOUS
10
0.239487
20
0.644592
11
0.237738
21
0.645602
0
LINE
8
BLACK
6
CONTINUOUS
10
0.237738
20
0.645602
11
0.237047
21
0.6475
0
LINE
8
BLACK
6
CONTINUOUS
10
0.237047
20
0.6475
11
0.237047
21
0.684547
0
LINE
8
BLACK
6
CONTINUOUS
10
0.237047
20
0.684547
11
0.182953
21
0.684547
0
LINE
8
BLACK
6
CONTINUOUS
10
0.182953
20
0.684547
11
0.182953
21
0.6475
0
LINE
8
BLACK
6
CONTINUOUS
10
0.182953
20
0.6475
11
0.182775
21
0.64649
0
LINE
8
BLACK
6
CONTINUOUS
10
0.182775
20
0.64649
11
0.181476
21
0.644943
0
LINE
8
BLACK
6
CONTINUOUS
10
0.181476
20
0.644943
11
0.179487
21
0.644592
0
LINE
8
BLACK
6
CONTINUOUS
10
0.179487
20
0.644592
11
0.177738
21
0.645602
0
LINE
8
BLACK
6
CONTINUOUS
10
0.177738
20
0.645602
11
0.177047
21
0.6475
0
LINE
8
BLACK
6
CONTINUOUS
10
0.177047
20
0.6475
11
0.177047
21
0.6875
0
LINE
8
BLACK
6
CONTINUOUS
10
0.177047
20
0.6875
11
0.177115
21
0.687884
0
LINE
8
BLACK
6
CONTINUOUS
10
0.177115
20
0.687884
11
0.177092
21
0.688013
0
LINE
8
BLACK
6
CONTINUOUS
10
0.177092
20
0.688013
11
0.177158
21
0.688126
0
LINE
8
BLACK
6
CONTINUOUS
10
0.177158
20
0.688126
11
0.177225
21
0.68851
0
LINE
8
BLACK
6
CONTINUOUS
10
0.177225
20
0.68851
11
0.177718
21
0.689098
0
LINE
8
BLACK
6
CONTINUOUS
10
0.177718
20
0.689098
11
0.178102
21
0.689762
0
LINE
8
BLACK
6
CONTINUOUS
10
0.178102
20
0.689762
11
0.178352
21
0.689853
0
LINE
8
BLACK
6
CONTINUOUS
10
0.178352
20
0.689853
11
0.178524
21
0.690057
0
LINE
8
BLACK
6
CONTINUOUS
10
0.178524
20
0.690057
11
0.179279
21
0.69019
0
LINE
8
BLACK
6
CONTINUOUS
10
0.179279
20
0.69019
11
0.18
21
0.690453
0
LINE
8
BLACK
6
CONTINUOUS
10
0.18
20
0.690453
11
0.24
21
0.690453
0
LINE
8
BLACK
6
CONTINUOUS
10
0.24
20
0.690453
11
0.240384
21
0.690385
0
LINE
8
BLACK
6
CONTINUOUS
10
0.335384
20
0.690385
11
0.335513
21
0.690408
0
LINE
8
BLACK
6
CONTINUOUS
10
0.335513
20
0.690408
11
0.335626
21
0.690342
0
LINE
8
BLACK
6
CONTINUOUS
10
0.335626
20
0.690342
11
0.33601
21
0.690275
0
LINE
8
BLACK
6
CONTINUOUS
10
0.33601
20
0.690275
11
0.336598
21
0.689782
0
LINE
8
BLACK
6
CONTINUOUS
10
0.336598
20
0.689782
11
0.337262
21
0.689398
0
LINE
8
BLACK
6
CONTINUOUS
10
0.337262
20
0.689398
11
0.337353
21
0.689148
0
LINE
8
BLACK
6
CONTINUOUS
10
0.337353
20
0.689148
11
0.337557
21
0.688976
0
LINE
8
BLACK
6
CONTINUOUS
10
0.337557
20
0.688976
11
0.33769
21
0.688221
0
LINE
8
BLACK
6
CONTINUOUS
10
0.33769
20
0.688221
11
0.337953
21
0.6875
0
LINE
8
BLACK
6
CONTINUOUS
10
0.337953
20
0.6875
11
0.337953
21
0.6475
0
LINE
8
BLACK
6
CONTINUOUS
10
0.337953
20
0.6475
11
0.337775
21
0.64649
0
LINE
8
BLACK
6
CONTINUOUS
10
0.337775
20
0.64649
11
0.336476
21
0.644943
0
LINE
8
BLACK
6
CONTINUOUS
10
0.336476
20
0.644943
11
0.334487
21
0.644592
0
LINE
8
BLACK
6
CONTINUOUS
10
0.334487
20
0.644592
11
0.332738
21
0.645602
0
LINE
8
BLACK
6
CONTINUOUS
10
0.332738
20
0.645602
11
0.332047
21
0.6475
0
LINE
8
BLACK
6
CONTINUOUS
10
0.332047
20
0.6475
11
0.332047
21
0.684547
0
LINE
8
BLACK
6
CONTINUOUS
10
0.332047
20
0.684547
11
0.277953
21
0.684547
0
LINE
8
BLACK
6
CONTINUOUS
10
0.277953
20
0.684547
11
0.277953
21
0.6475
0
LINE
8
BLACK
6
CONTINUOUS
10
0.277953
20
0.6475
11
0.277775
21
0.64649
0
LINE
8
BLACK
6
CONTINUOUS
10
0.277775
20
0.64649
11
0.276476
21
0.644943
0
LINE
8
BLACK
6
CONTINUOUS
10
0.276476
20
0.644943
11
0.274487
21
0.644592
0
LINE
8
BLACK
6
CONTINUOUS
10
0.274487
20
0.644592
11
0.272738
21
0.645602
0
LINE
8
BLACK
6
CONTINUOUS
10
0.272738
20
0.645602
11
0.272047
21
0.6475
0
LINE
8
BLACK
6
CONTINUOUS
10
0.272047
20
0.6475
11
0.272047
21
0.6875
0
LINE
8
BLACK
6
CONTINUOUS
10
0.272047
20
0.6875
11
0.272115
21
0.687884
0
LINE
8
BLACK
6
CONTINUOUS
10
0.272115
20
0.687884
11
0.272092
21
0.688013
0
LINE
8
BLACK
6
CONTINUOUS
10
0.272092
20
0.688013
11
0.272158
21
0.688126
0
LINE
8
BLACK
6
CONTINUOUS
10
0.272158
20
0.688126
11
0.272225
21
0.68851
0
LINE
8
BLACK
6
CONTINUOUS
10
0.272225
20
0.68851
11
0.272718
21
0.689098
0
LINE
8
BLACK
6
CONTINUOUS
10
0.272718
20
0.689098
11
0.273102
21
0.689762
0
LINE
8
BLACK
6
CONTINUOUS
10
0.273102
20
0.689762
11
0.273352
21
0.689853
0
LINE
8
BLACK
6
CONTINUOUS
10
0.273352
20
0.689853
11
0.273524
21
0.690057
0
LINE
8
BLACK
6
CONTINUOUS
10
0.273524
20
0.690057
11
0.274279
21
0.69019
0
LINE
8
BLACK
6
CONTINUOUS
10
0.274279
20
0.69019
11
0.275
21
0.690453
0
LINE
8
BLACK
6
CONTINUOUS
10
0.275
20
0.690453
11
0.335
21
0.690453
0
LINE
8
BLACK
6
CONTINUOUS
10
0.335
20
0.690453
11
0.335384
21
0.690385
0
LINE
8
BLACK
6
CONTINUOUS
10
0.559654
20
0.703935
11
0.560767
21
0.70225
0
LINE
8
BLACK
6
CONTINUOUS
10
0.560767
20
0.70225
11
0.560536
21
0.700243
0
LINE
8
BLACK
6
CONTINUOUS
10
0.560536
20
0.700243
11
0.558661
21
0.696493
0
LINE
8
BLACK
6
CONTINUOUS
10
0.558661
20
0.696493
11
0.558135
21
0.695784
0
LINE
8
BLACK
6
CONTINUOUS
10
0.558135
20
0.695784
11
0.558108
21
0.695726
0
LINE
8
BLACK
6
CONTINUOUS
10
0.558108
20
0.695726
11
0.55565
21
0.693268
0
LINE
8
BLACK
6
CONTINUOUS
10
0.55565
20
0.693268
11
0.583064
21
0.693268
0
LINE
8
BLACK
6
CONTINUOUS
10
0.583064
20
0.693268
11
0.583064
21
0.701564
0
LINE
8
BLACK
6
CONTINUOUS
10
0.583064
20
0.701564
11
0.583242
21
0.702573
0
LINE
8
BLACK
6
CONTINUOUS
10
0.583242
20
0.702573
11
0.58454
21
0.704121
0
LINE
8
BLACK
6
CONTINUOUS
10
0.58454
20
0.704121
11
0.586529
21
0.704471
0
LINE
8
BLACK
6
CONTINUOUS
10
0.586529
20
0.704471
11
0.588278
21
0.703461
0
LINE
8
BLACK
6
CONTINUOUS
10
0.588278
20
0.703461
11
0.588969
21
0.701564
0
LINE
8
BLACK
6
CONTINUOUS
10
0.588969
20
0.701564
11
0.588969
21
0.679066
0
LINE
8
BLACK
6
CONTINUOUS
10
0.588969
20
0.679066
11
0.588791
21
0.678056
0
LINE
8
BLACK
6
CONTINUOUS
10
0.588791
20
0.678056
11
0.587493
21
0.676509
0
LINE
8
BLACK
6
CONTINUOUS
10
0.587493
20
0.676509
11
0.585504
21
0.676158
0
LINE
8
BLACK
6
CONTINUOUS
10
0.585504
20
0.676158
11
0.583755
21
0.677168
0
LINE
8
BLACK
6
CONTINUOUS
10
0.583755
20
0.677168
11
0.583064
21
0.679066
0
LINE
8
BLACK
6
CONTINUOUS
10
0.583064
20
0.679066
11
0.583064
21
0.687362
0
LINE
8
BLACK
6
CONTINUOUS
10
0.583064
20
0.687362
11
0.546646
21
0.687362
0
LINE
8
BLACK
6
CONTINUOUS
10
0.546646
20
0.687362
11
0.545636
21
0.68754
0
LINE
8
BLACK
6
CONTINUOUS
10
0.545636
20
0.68754
11
0.545506
21
0.687649
0
LINE
8
BLACK
6
CONTINUOUS
10
0.545506
20
0.687649
11
0.545338
21
0.687668
0
LINE
8
BLACK
6
CONTINUOUS
10
0.545338
20
0.687668
11
0.544746
21
0.688288
0
LINE
8
BLACK
6
CONTINUOUS
10
0.544746
20
0.688288
11
0.544089
21
0.688839
0
LINE
8
BLACK
6
CONTINUOUS
10
0.544089
20
0.688839
11
0.54406
21
0.689006
0
LINE
8
BLACK
6
CONTINUOUS
10
0.54406
20
0.689006
11
0.543942
21
0.689129
0
LINE
8
BLACK
6
CONTINUOUS
10
0.543942
20
0.689129
11
0.543887
21
0.689984
0
LINE
8
BLACK
6
CONTINUOUS
10
0.543887
20
0.689984
11
0.543739
21
0.690828
0
LINE
8
BLACK
6
CONTINUOUS
10
0.543739
20
0.690828
11
0.543823
21
0.690975
0
LINE
8
BLACK
6
CONTINUOUS
10
0.543823
20
0.690975
11
0.543812
21
0.691144
0
LINE
8
BLACK
6
CONTINUOUS
10
0.543812
20
0.691144
11
0.54432
21
0.691835
0
LINE
8
BLACK
6
CONTINUOUS
10
0.54432
20
0.691835
11
0.544748
21
0.692577
0
LINE
8
BLACK
6
CONTINUOUS
10
0.544748
20
0.692577
11
0.544908
21
0.692635
0
LINE
8
BLACK
6
CONTINUOUS
10
0.544908
20
0.692635
11
0.545009
21
0.692772
0
LINE
8
BLACK
6
CONTINUOUS
10
0.545009
20
0.692772
11
0.55039
21
0.696359
0
LINE
8
BLACK
6
CONTINUOUS
10
0.55039
20
0.696359
11
0.553594
21
0.699563
0
LINE
8
BLACK
6
CONTINUOUS
10
0.553594
20
0.699563
11
0.555254
21
0.702884
0
LINE
8
BLACK
6
CONTINUOUS
10
0.555254
20
0.702884
11
0.555865
21
0.703708
0
LINE
8
BLACK
6
CONTINUOUS
10
0.555865
20
0.703708
11
0.557718
21
0.704511
0
LINE
8
BLACK
6
CONTINUOUS
10
0.557718
20
0.704511
11
0.559654
21
0.703935
0
LINE
8
BLACK
6
CONTINUOUS
10
0.202458
20
0.781218
11
0.204665
21
0.778451
0
LINE
8
BLACK
6
CONTINUOUS
10
0.204665
20
0.778451
11
0.204779
21
0.777953
0
LINE
8
BLACK
6
CONTINUOUS
10
0.204779
20
0.777953
11
0.2425
21
0.777953
0
LINE
8
BLACK
6
CONTINUOUS
10
0.2425
20
0.777953
11
0.24351
21
0.777775
0
LINE
8
BLACK
6
CONTINUOUS
10
0.24351
20
0.777775
11
0.245057
21
0.776476
0
LINE
8
BLACK
6
CONTINUOUS
10
0.245057
20
0.776476
11
0.245408
21
0.774487
0
LINE
8
BLACK
6
CONTINUOUS
10
0.245408
20
0.774487
11
0.244398
21
0.772738
0
LINE
8
BLACK
6
CONTINUOUS
10
0.244398
20
0.772738
11
0.2425
21
0.772047
0
LINE
8
BLACK
6
CONTINUOUS
10
0.2425
20
0.772047
11
0.205453
21
0.772047
0
LINE
8
BLACK
6
CONTINUOUS
10
0.205453
20
0.772047
11
0.205453
21
0.717953
0
LINE
8
BLACK
6
CONTINUOUS
10
0.205453
20
0.717953
11
0.2425
21
0.717953
0
LINE
8
BLACK
6
CONTINUOUS
10
0.2425
20
0.717953
11
0.24351
21
0.717775
0
LINE
8
BLACK
6
CONTINUOUS
10
0.24351
20
0.717775
11
0.245057
21
0.716476
0
LINE
8
BLACK
6
CONTINUOUS
10
0.245057
20
0.716476
11
0.245408
21
0.714487
0
LINE
8
BLACK
6
CONTINUOUS
10
0.245408
20
0.714487
11
0.244398
21
0.712738
0
LINE
8
BLACK
6
CONTINUOUS
10
0.244398
20
0.712738
11
0.2425
21
0.712047
0
LINE
8
BLACK
6
CONTINUOUS
10
0.2425
20
0.712047
11
0.2025
21
0.712047
0
LINE
8
BLACK
6
CONTINUOUS
10
0.2025
20
0.712047
11
0.202116
21
0.712115
0
LINE
8
BLACK
6
CONTINUOUS
10
0.202116
20
0.712115
11
0.201987
21
0.712092
0
LINE
8
BLACK
6
CONTINUOUS
10
0.201987
20
0.712092
11
0.201874
21
0.712158
0
LINE
8
BLACK
6
CONTINUOUS
10
0.201874
20
0.712158
11
0.20149
21
0.712225
0
LINE
8
BLACK
6
CONTINUOUS
10
0.20149
20
0.712225
11
0.200902
21
0.712718
0
LINE
8
BLACK
6
CONTINUOUS
10
0.200902
20
0.712718
11
0.200238
21
0.713102
0
LINE
8
BLACK
6
CONTINUOUS
10
0.200238
20
0.713102
11
0.200147
21
0.713352
0
LINE
8
BLACK
6
CONTINUOUS
10
0.200147
20
0.713352
11
0.199943
21
0.713524
0
LINE
8
BLACK
6
CONTINUOUS
10
0.199943
20
0.713524
11
0.19981
21
0.714279
0
LINE
8
BLACK
6
CONTINUOUS
10
0.19981
20
0.714279
11
0.199547
21
0.715
0
LINE
8
BLACK
6
CONTINUOUS
10
0.199547
20
0.715
11
0.199547
21
0.76738
0
LINE
8
BLACK
6
CONTINUOUS
10
0.199547
20
0.76738
11
0.19927
21
0.767247
0
LINE
8
BLACK
6
CONTINUOUS
10
0.19927
20
0.767247
11
0.19573
21
0.767247
0
LINE
8
BLACK
6
CONTINUOUS
10
0.19573
20
0.767247
11
0.192542
21
0.768782
0
LINE
8
BLACK
6
CONTINUOUS
10
0.192542
20
0.768782
11
0.190335
21
0.771549
0
LINE
8
BLACK
6
CONTINUOUS
10
0.190335
20
0.771549
11
0.189547
21
0.775
0
LINE
8
BLACK
6
CONTINUOUS
10
0.189547
20
0.775
11
0.190335
21
0.778451
0
LINE
8
BLACK
6
CONTINUOUS
10
0.190335
20
0.778451
11
0.192542
21
0.781218
0
LINE
8
BLACK
6
CONTINUOUS
10
0.192542
20
0.781218
11
0.19573
21
0.782753
0
LINE
8
BLACK
6
CONTINUOUS
10
0.19573
20
0.782753
11
0.19927
21
0.782753
0
LINE
8
BLACK
6
CONTINUOUS
10
0.19927
20
0.782753
11
0.202458
21
0.781218
0
LINE
8
BLACK
6
CONTINUOUS
10
0.195933
20
0.773433
11
0.1975
21
0.772784
0
LINE
8
BLACK
6
CONTINUOUS
10
0.1975
20
0.772784
11
0.199067
21
0.773433
0
LINE
8
BLACK
6
CONTINUOUS
10
0.199067
20
0.773433
11
0.199547
21
0.774593
0
LINE
8
BLACK
6
CONTINUOUS
10
0.199547
20
0.774593
11
0.199547
21
0.775
0
LINE
8
BLACK
6
CONTINUOUS
10
0.199547
20
0.775
11
0.199598
21
0.775286
0
LINE
8
BLACK
6
CONTINUOUS
10
0.199598
20
0.775286
11
0.199067
21
0.776567
0
LINE
8
BLACK
6
CONTINUOUS
10
0.199067
20
0.776567
11
0.1975
21
0.777216
0
LINE
8
BLACK
6
CONTINUOUS
10
0.1975
20
0.777216
11
0.195933
21
0.776567
0
LINE
8
BLACK
6
CONTINUOUS
10
0.195933
20
0.776567
11
0.195284
21
0.775
0
LINE
8
BLACK
6
CONTINUOUS
10
0.195284
20
0.775
11
0.195933
21
0.773433
0
LINE
8
BLACK
6
CONTINUOUS
10
0.322884
20
0.777885
11
0.323013
21
0.777908
0
LINE
8
BLACK
6
CONTINUOUS
10
0.323013
20
0.777908
11
0.323126
21
0.777842
0
LINE
8
BLACK
6
CONTINUOUS
10
0.323126
20
0.777842
11
0.32351
21
0.777775
0
LINE
8
BLACK
6
CONTINUOUS
10
0.32351
20
0.777775
11
0.324098
21
0.777282
0
LINE
8
BLACK
6
CONTINUOUS
10
0.324098
20
0.777282
11
0.324762
21
0.776898
0
LINE
8
BLACK
6
CONTINUOUS
10
0.324762
20
0.776898
11
0.324853
21
0.776648
0
LINE
8
BLACK
6
CONTINUOUS
10
0.324853
20
0.776648
11
0.325057
21
0.776476
0
LINE
8
BLACK
6
CONTINUOUS
10
0.325057
20
0.776476
11
0.32519
21
0.775721
0
LINE
8
BLACK
6
CONTINUOUS
10
0.32519
20
0.775721
11
0.325453
21
0.775
0
LINE
8
BLACK
6
CONTINUOUS
10
0.325453
20
0.775
11
0.325453
21
0.715
0
LINE
8
BLACK
6
CONTINUOUS
10
0.325453
20
0.715
11
0.325385
21
0.714616
0
LINE
8
BLACK
6
CONTINUOUS
10
0.325385
20
0.714616
11
0.325408
21
0.714487
0
LINE
8
BLACK
6
CONTINUOUS
10
0.325408
20
0.714487
11
0.325342
21
0.714374
0
LINE
8
BLACK
6
CONTINUOUS
10
0.325342
20
0.714374
11
0.325275
21
0.71399
0
LINE
8
BLACK
6
CONTINUOUS
10
0.325275
20
0.71399
11
0.324782
21
0.713402
0
LINE
8
BLACK
6
CONTINUOUS
10
0.324782
20
0.713402
11
0.324398
21
0.712738
0
LINE
8
BLACK
6
CONTINUOUS
10
0.324398
20
0.712738
11
0.324148
21
0.712647
0
LINE
8
BLACK
6
CONTINUOUS
10
0.324148
20
0.712647
11
0.323976
21
0.712443
0
LINE
8
BLACK
6
CONTINUOUS
10
0.323976
20
0.712443
11
0.323221
21
0.71231
0
LINE
8
BLACK
6
CONTINUOUS
10
0.323221
20
0.71231
11
0.3225
21
0.712047
0
LINE
8
BLACK
6
CONTINUOUS
10
0.3225
20
0.712047
11
0.2825
21
0.712047
0
LINE
8
BLACK
6
CONTINUOUS
10
0.2825
20
0.712047
11
0.28149
21
0.712225
0
LINE
8
BLACK
6
CONTINUOUS
10
0.28149
20
0.712225
11
0.279943
21
0.713524
0
LINE
8
BLACK
6
CONTINUOUS
10
0.279943
20
0.713524
11
0.279592
21
0.715513
0
LINE
8
BLACK
6
CONTINUOUS
10
0.279592
20
0.715513
11
0.280602
21
0.717262
0
LINE
8
BLACK
6
CONTINUOUS
10
0.280602
20
0.717262
11
0.2825
21
0.717953
0
LINE
8
BLACK
6
CONTINUOUS
10
0.2825
20
0.717953
11
0.319547
21
0.717953
0
LINE
8
BLACK
6
CONTINUOUS
10
0.319547
20
0.717953
11
0.319547
21
0.772047
0
LINE
8
BLACK
6
CONTINUOUS
10
0.319547
20
0.772047
11
0.2825
21
0.772047
0
LINE
8
BLACK
6
CONTINUOUS
10
0.2825
20
0.772047
11
0.28149
21
0.772225
0
LINE
8
BLACK
6
CONTINUOUS
10
0.28149
20
0.772225
11
0.279943
21
0.773524
0
LINE
8
BLACK
6
CONTINUOUS
10
0.279943
20
0.773524
11
0.279592
21
0.775513
0
LINE
8
BLACK
6
CONTINUOUS
10
0.279592
20
0.775513
11
0.280602
21
0.777262
0
LINE
8
BLACK
6
CONTINUOUS
10
0.280602
20
0.777262
11
0.2825
21
0.777953
0
LINE
8
BLACK
6
CONTINUOUS
10
0.2825
20
0.777953
11
0.3225
21
0.777953
0
LINE
8
BLACK
6
CONTINUOUS
10
0.3225
20
0.777953
11
0.322884
21
0.777885
0
LINE
8
BLACK
6
CONTINUOUS
10
0.5864
20
0.741944
11
0.586529
21
0.741967
0
LINE
8
BLACK
6
CONTINUOUS
10
0.586529
20
0.741967
11
0.586643
21
0.741901
0
LINE
8
BLACK
6
CONTINUOUS
10
0.586643
20
0.741901
11
0.587026
21
0.741834
0
LINE
8
BLACK
6
CONTINUOUS
10
0.587026
20
0.741834
11
0.587614
21
0.74134
0
LINE
8
BLACK
6
CONTINUOUS
10
0.587614
20
0.74134
11
0.588278
21
0.740957
0
LINE
8
BLACK
6
CONTINUOUS
10
0.588278
20
0.740957
11
0.58837
21
0.740706
0
LINE
8
BLACK
6
CONTINUOUS
10
0.58837
20
0.740706
11
0.588574
21
0.740535
0
LINE
8
BLACK
6
CONTINUOUS
10
0.588574
20
0.740535
11
0.588707
21
0.73978
0
LINE
8
BLACK
6
CONTINUOUS
10
0.588707
20
0.73978
11
0.588969
21
0.739059
0
LINE
8
BLACK
6
CONTINUOUS
10
0.588969
20
0.739059
11
0.588969
21
0.729685
0
LINE
8
BLACK
6
CONTINUOUS
10
0.588969
20
0.729685
11
0.588816
21
0.728816
0
LINE
8
BLACK
6
CONTINUOUS
10
0.588816
20
0.728816
11
0.588818
21
0.728751
0
LINE
8
BLACK
6
CONTINUOUS
10
0.588818
20
0.728751
11
0.586943
21
0.723127
0
LINE
8
BLACK
6
CONTINUOUS
10
0.586943
20
0.723127
11
0.586455
21
0.722225
0
LINE
8
BLACK
6
CONTINUOUS
10
0.586455
20
0.722225
11
0.586304
21
0.722133
0
LINE
8
BLACK
6
CONTINUOUS
10
0.586304
20
0.722133
11
0.58623
21
0.721973
0
LINE
8
BLACK
6
CONTINUOUS
10
0.58623
20
0.721973
11
0.58248
21
0.718223
0
LINE
8
BLACK
6
CONTINUOUS
10
0.58248
20
0.718223
11
0.581757
21
0.717717
0
LINE
8
BLACK
6
CONTINUOUS
10
0.581757
20
0.717717
11
0.581713
21
0.71767
0
LINE
8
BLACK
6
CONTINUOUS
10
0.581713
20
0.71767
11
0.577963
21
0.715795
0
LINE
8
BLACK
6
CONTINUOUS
10
0.577963
20
0.715795
11
0.577475
21
0.71565
0
LINE
8
BLACK
6
CONTINUOUS
10
0.577475
20
0.71565
11
0.577359
21
0.715572
0
LINE
8
BLACK
6
CONTINUOUS
10
0.577359
20
0.715572
11
0.56986
21
0.713697
0
LINE
8
BLACK
6
CONTINUOUS
10
0.56986
20
0.713697
11
0.569272
21
0.713656
0
LINE
8
BLACK
6
CONTINUOUS
10
0.569272
20
0.713656
11
0.569144
21
0.713609
0
LINE
8
BLACK
6
CONTINUOUS
10
0.569144
20
0.713609
11
0.563519
21
0.713609
0
LINE
8
BLACK
6
CONTINUOUS
10
0.563519
20
0.713609
11
0.562939
21
0.713711
0
LINE
8
BLACK
6
CONTINUOUS
10
0.562939
20
0.713711
11
0.562803
21
0.713697
0
LINE
8
BLACK
6
CONTINUOUS
10
0.562803
20
0.713697
11
0.555304
21
0.715572
0
LINE
8
BLACK
6
CONTINUOUS
10
0.555304
20
0.715572
11
0.554839
21
0.715779
0
LINE
8
BLACK
6
CONTINUOUS
10
0.554839
20
0.715779
11
0.5547
21
0.715795
0
LINE
8
BLACK
6
CONTINUOUS
10
0.5547
20
0.715795
11
0.55095
21
0.71767
0
LINE
8
BLACK
6
CONTINUOUS
10
0.55095
20
0.71767
11
0.550241
21
0.718196
0
LINE
8
BLACK
6
CONTINUOUS
10
0.550241
20
0.718196
11
0.550183
21
0.718223
0
LINE
8
BLACK
6
CONTINUOUS
10
0.550183
20
0.718223
11
0.546433
21
0.721973
0
LINE
8
BLACK
6
CONTINUOUS
10
0.546433
20
0.721973
11
0.545845
21
0.722813
0
LINE
8
BLACK
6
CONTINUOUS
10
0.545845
20
0.722813
11
0.54583
21
0.722989
0
LINE
8
BLACK
6
CONTINUOUS
10
0.54583
20
0.722989
11
0.54572
21
0.723127
0
LINE
8
BLACK
6
CONTINUOUS
10
0.54572
20
0.723127
11
0.543845
21
0.728751
0
LINE
8
BLACK
6
CONTINUOUS
10
0.543845
20
0.728751
11
0.543716
21
0.729624
0
LINE
8
BLACK
6
CONTINUOUS
10
0.543716
20
0.729624
11
0.543694
21
0.729685
0
LINE
8
BLACK
6
CONTINUOUS
10
0.543694
20
0.729685
11
0.543694
21
0.739059
0
LINE
8
BLACK
6
CONTINUOUS
10
0.543694
20
0.739059
11
0.543761
21
0.739442
0
LINE
8
BLACK
6
CONTINUOUS
10
0.543761
20
0.739442
11
0.543739
21
0.739572
0
LINE
8
BLACK
6
CONTINUOUS
10
0.543739
20
0.739572
11
0.543804
21
0.739685
0
LINE
8
BLACK
6
CONTINUOUS
10
0.543804
20
0.739685
11
0.543872
21
0.740069
0
LINE
8
BLACK
6
CONTINUOUS
10
0.543872
20
0.740069
11
0.544365
21
0.740656
0
LINE
8
BLACK
6
CONTINUOUS
10
0.544365
20
0.740656
11
0.544748
21
0.741321
0
LINE
8
BLACK
6
CONTINUOUS
10
0.544748
20
0.741321
11
0.544999
21
0.741412
0
LINE
8
BLACK
6
CONTINUOUS
10
0.544999
20
0.741412
11
0.54517
21
0.741616
0
LINE
8
BLACK
6
CONTINUOUS
10
0.54517
20
0.741616
11
0.545926
21
0.741749
0
LINE
8
BLACK
6
CONTINUOUS
10
0.545926
20
0.741749
11
0.546646
21
0.742012
0
LINE
8
BLACK
6
CONTINUOUS
10
0.546646
20
0.742012
11
0.586016
21
0.742012
0
LINE
8
BLACK
6
CONTINUOUS
10
0.586016
20
0.742012
11
0.5864
21
0.741944
0
LINE
8
BLACK
6
CONTINUOUS
10
0.549599
20
0.730164
11
0.551102
21
0.725656
0
LINE
8
BLACK
6
CONTINUOUS
10
0.551102
20
0.725656
11
0.55402
21
0.722738
0
LINE
8
BLACK
6
CONTINUOUS
10
0.55402
20
0.722738
11
0.557051
21
0.721222
0
LINE
8
BLACK
6
CONTINUOUS
10
0.557051
20
0.721222
11
0.563883
21
0.719514
0
LINE
8
BLACK
6
CONTINUOUS
10
0.563883
20
0.719514
11
0.56878
21
0.719514
0
LINE
8
BLACK
6
CONTINUOUS
10
0.56878
20
0.719514
11
0.575612
21
0.721222
0
LINE
8
BLACK
6
CONTINUOUS
10
0.575612
20
0.721222
11
0.578643
21
0.722738
0
LINE
8
BLACK
6
CONTINUOUS
10
0.578643
20
0.722738
11
0.581561
21
0.725656
0
LINE
8
BLACK
6
CONTINUOUS
10
0.581561
20
0.725656
11
0.583064
21
0.730164
0
LINE
8
BLACK
6
CONTINUOUS
10
0.583064
20
0.730164
11
0.583064
21
0.736106
0
LINE
8
BLACK
6
CONTINUOUS
10
0.583064
20
0.736106
11
0.549599
21
0.736106
0
LINE
8
BLACK
6
CONTINUOUS
10
0.549599
20
0.736106
11
0.549599
21
0.730164
0
LINE
8
BLACK
6
CONTINUOUS
10
0.317655
20
0.970253
11
0.318346
21
0.968583
0
LINE
8
BLACK
6
CONTINUOUS
10
0.318346
20
0.968583
11
0.318346
21
0.872126
0
LINE
8
BLACK
6
CONTINUOUS
10
0.318346
20
0.872126
11
0.317655
21
0.870456
0
LINE
8
BLACK
6
CONTINUOUS
10
0.317655
20
0.870456
11
0.315984
21
0.869764
0
LINE
8
BLACK
6
CONTINUOUS
10
0.315984
20
0.869764
11
0.314314
21
0.870456
0
LINE
8
BLACK
6
CONTINUOUS
10
0.314314
20
0.870456
11
0.313622
21
0.872126
0
LINE
8
BLACK
6
CONTINUOUS
10
0.313622
20
0.872126
11
0.313622
21
0.968583
0
LINE
8
BLACK
6
CONTINUOUS
10
0.313622
20
0.968583
11
0.314314
21
0.970253
0
LINE
8
BLACK
6
CONTINUOUS
10
0.314314
20
0.970253
11
0.315984
21
0.970945
0
LINE
8
BLACK
6
CONTINUOUS
10
0.315984
20
0.970945
11
0.317655
21
0.970253
0
LINE
8
BLACK
6
CONTINUOUS
10
0.434724
20
1.00929
11
0.434894
21
1.0093
0
LINE
8
BLACK
6
CONTINUOUS
10
0.434894
20
1.0093
11
0.435584
21
1.00879
0
LINE
8
BLACK
6
CONTINUOUS
10
0.435584
20
1.00879
11
0.436326
21
1.00836
0
LINE
8
BLACK
6
CONTINUOUS
10
0.436326
20
1.00836
11
0.436384
21
1.0082
0
LINE
8
BLACK
6
CONTINUOUS
10
0.436384
20
1.0082
11
0.436521
21
1.0081
0
LINE
8
BLACK
6
CONTINUOUS
10
0.436521
20
1.0081
11
0.440109
21
1.00272
0
LINE
8
BLACK
6
CONTINUOUS
10
0.440109
20
1.00272
11
0.443313
21
0.999517
0
LINE
8
BLACK
6
CONTINUOUS
10
0.443313
20
0.999517
11
0.446634
21
0.997856
0
LINE
8
BLACK
6
CONTINUOUS
10
0.446634
20
0.997856
11
0.447457
21
0.997245
0
LINE
8
BLACK
6
CONTINUOUS
10
0.447457
20
0.997245
11
0.44826
21
0.995392
0
LINE
8
BLACK
6
CONTINUOUS
10
0.44826
20
0.995392
11
0.447685
21
0.993456
0
LINE
8
BLACK
6
CONTINUOUS
10
0.447685
20
0.993456
11
0.445999
21
0.992343
0
LINE
8
BLACK
6
CONTINUOUS
10
0.445999
20
0.992343
11
0.443993
21
0.992574
0
LINE
8
BLACK
6
CONTINUOUS
10
0.443993
20
0.992574
11
0.440243
21
0.994449
0
LINE
8
BLACK
6
CONTINUOUS
10
0.440243
20
0.994449
11
0.439534
21
0.994975
0
LINE
8
BLACK
6
CONTINUOUS
10
0.439534
20
0.994975
11
0.439476
21
0.995002
0
LINE
8
BLACK
6
CONTINUOUS
10
0.439476
20
0.995002
11
0.437017
21
0.99746
0
LINE
8
BLACK
6
CONTINUOUS
10
0.437017
20
0.99746
11
0.437017
21
0.970046
0
LINE
8
BLACK
6
CONTINUOUS
10
0.437017
20
0.970046
11
0.445313
21
0.970046
0
LINE
8
BLACK
6
CONTINUOUS
10
0.445313
20
0.970046
11
0.446323
21
0.969868
0
LINE
8
BLACK
6
CONTINUOUS
10
0.446323
20
0.969868
11
0.44787
21
0.96857
0
LINE
8
BLACK
6
CONTINUOUS
10
0.44787
20
0.96857
11
0.448221
21
0.966581
0
LINE
8
BLACK
6
CONTINUOUS
10
0.448221
20
0.966581
11
0.447211
21
0.964832
0
LINE
8
BLACK
6
CONTINUOUS
10
0.447211
20
0.964832
11
0.445313
21
0.964141
0
LINE
8
BLACK
6
CONTINUOUS
10
0.445313
20
0.964141
11
0.422816
21
0.964141
0
LINE
8
BLACK
6
CONTINUOUS
10
0.422816
20
0.964141
11
0.421806
21
0.964319
0
LINE
8
BLACK
6
CONTINUOUS
10
0.421806
20
0.964319
11
0.420259
21
0.965617
0
LINE
8
BLACK
6
CONTINUOUS
10
0.420259
20
0.965617
11
0.419908
21
0.967606
0
LINE
8
BLACK
6
CONTINUOUS
10
0.419908
20
0.967606
11
0.420918
21
0.969356
0
LINE
8
BLACK
6
CONTINUOUS
10
0.420918
20
0.969356
11
0.422816
21
0.970046
0
LINE
8
BLACK
6
CONTINUOUS
10
0.422816
20
0.970046
11
0.431112
21
0.970046
0
LINE
8
BLACK
6
CONTINUOUS
10
0.431112
20
0.970046
11
0.431112
21
1.00646
0
LINE
8
BLACK
6
CONTINUOUS
10
0.431112
20
1.00646
11
0.43129
21
1.00747
0
LINE
8
BLACK
6
CONTINUOUS
10
0.43129
20
1.00747
11
0.431399
21
1.0076
0
LINE
8
BLACK
6
CONTINUOUS
10
0.431399
20
1.0076
11
0.431418
21
1.00777
0
LINE
8
BLACK
6
CONTINUOUS
10
0.431418
20
1.00777
11
0.432037
21
1.00836
0
LINE
8
BLACK
6
CONTINUOUS
10
0.432037
20
1.00836
11
0.432588
21
1.00902
0
LINE
8
BLACK
6
CONTINUOUS
10
0.432588
20
1.00902
11
0.432755
21
1.00905
0
LINE
8
BLACK
6
CONTINUOUS
10
0.432755
20
1.00905
11
0.432878
21
1.00917
0
LINE
8
BLACK
6
CONTINUOUS
10
0.432878
20
1.00917
11
0.433733
21
1.00922
0
LINE
8
BLACK
6
CONTINUOUS
10
0.433733
20
1.00922
11
0.434577
21
1.00937
0
LINE
8
BLACK
6
CONTINUOUS
10
0.434577
20
1.00937
11
0.434724
21
1.00929
0
LINE
8
BLACK
6
CONTINUOUS
10
0.477571
20
1.00836
11
0.478262
21
1.00646
0
LINE
8
BLACK
6
CONTINUOUS
10
0.478262
20
1.00646
11
0.478262
21
0.967094
0
LINE
8
BLACK
6
CONTINUOUS
10
0.478262
20
0.967094
11
0.478194
21
0.96671
0
LINE
8
BLACK
6
CONTINUOUS
10
0.478194
20
0.96671
11
0.478217
21
0.966581
0
LINE
8
BLACK
6
CONTINUOUS
10
0.478217
20
0.966581
11
0.478152
21
0.966467
0
LINE
8
BLACK
6
CONTINUOUS
10
0.478152
20
0.966467
11
0.478084
21
0.966084
0
LINE
8
BLACK
6
CONTINUOUS
10
0.478084
20
0.966084
11
0.477591
21
0.965496
0
LINE
8
BLACK
6
CONTINUOUS
10
0.477591
20
0.965496
11
0.477207
21
0.964832
0
LINE
8
BLACK
6
CONTINUOUS
10
0.477207
20
0.964832
11
0.476957
21
0.964741
0
LINE
8
BLACK
6
CONTINUOUS
10
0.476957
20
0.964741
11
0.476786
21
0.964537
0
LINE
8
BLACK
6
CONTINUOUS
10
0.476786
20
0.964537
11
0.47603
21
0.964403
0
LINE
8
BLACK
6
CONTINUOUS
10
0.47603
20
0.964403
11
0.475309
21
0.964141
0
LINE
8
BLACK
6
CONTINUOUS
10
0.475309
20
0.964141
11
0.456562
21
0.964141
0
LINE
8
BLACK
6
CONTINUOUS
10
0.456562
20
0.964141
11
0.455552
21
0.964319
0
LINE
8
BLACK
6
CONTINUOUS
10
0.455552
20
0.964319
11
0.454004
21
0.965617
0
LINE
8
BLACK
6
CONTINUOUS
10
0.454004
20
0.965617
11
0.453654
21
0.967606
0
LINE
8
BLACK
6
CONTINUOUS
10
0.453654
20
0.967606
11
0.454664
21
0.969356
0
LINE
8
BLACK
6
CONTINUOUS
10
0.454664
20
0.969356
11
0.456562
21
0.970046
0
LINE
8
BLACK
6
CONTINUOUS
10
0.456562
20
0.970046
11
0.472357
21
0.970046
0
LINE
8
BLACK
6
CONTINUOUS
10
0.472357
20
0.970046
11
0.472357
21
1.00646
0
LINE
8
BLACK
6
CONTINUOUS
10
0.472357
20
1.00646
11
0.472535
21
1.00747
0
LINE
8
BLACK
6
CONTINUOUS
10
0.472535
20
1.00747
11
0.473833
21
1.00902
0
LINE
8
BLACK
6
CONTINUOUS
10
0.473833
20
1.00902
11
0.475822
21
1.00937
0
LINE
8
BLACK
6
CONTINUOUS
10
0.475822
20
1.00937
11
0.477571
21
1.00836
0
LINE
8
BLACK
6
CONTINUOUS
10
0.548809
20
1.08631
11
0.548938
21
1.08633
0
LINE
8
BLACK
6
CONTINUOUS
10
0.548938
20
1.08633
11
0.549052
21
1.08627
0
LINE
8
BLACK
6
CONTINUOUS
10
0.549052
20
1.08627
11
0.549435
21
1.0862
0
LINE
8
BLACK
6
CONTINUOUS
10
0.549435
20
1.0862
11
0.550023
21
1.08571
0
LINE
8
BLACK
6
CONTINUOUS
10
0.550023
20
1.08571
11
0.550687
21
1.08532
0
LINE
8
BLACK
6
CONTINUOUS
10
0.550687
20
1.08532
11
0.550778
21
1.08507
0
LINE
8
BLACK
6
CONTINUOUS
10
0.550778
20
1.08507
11
0.550982
21
1.0849
0
LINE
8
BLACK
6
CONTINUOUS
10
0.550982
20
1.0849
11
0.551116
21
1.08415
0
LINE
8
BLACK
6
CONTINUOUS
10
0.551116
20
1.08415
11
0.551378
21
1.08343
0
LINE
8
BLACK
6
CONTINUOUS
10
0.551378
20
1.08343
11
0.551378
21
0.886575
0
LINE
8
BLACK
6
CONTINUOUS
10
0.551378
20
0.886575
11
0.55131
21
0.886191
0
LINE
8
BLACK
6
CONTINUOUS
10
0.55131
20
0.886191
11
0.551333
21
0.886062
0
LINE
8
BLACK
6
CONTINUOUS
10
0.551333
20
0.886062
11
0.551267
21
0.885948
0
LINE
8
BLACK
6
CONTINUOUS
10
0.551267
20
0.885948
11
0.5512
21
0.885565
0
LINE
8
BLACK
6
CONTINUOUS
10
0.5512
20
0.885565
11
0.550707
21
0.884977
0
LINE
8
BLACK
6
CONTINUOUS
10
0.550707
20
0.884977
11
0.550323
21
0.884313
0
LINE
8
BLACK
6
CONTINUOUS
10
0.550323
20
0.884313
11
0.550073
21
0.884222
0
LINE
8
BLACK
6
CONTINUOUS
10
0.550073
20
0.884222
11
0.549902
21
0.884018
0
LINE
8
BLACK
6
CONTINUOUS
10
0.549902
20
0.884018
11
0.549146
21
0.883884
0
LINE
8
BLACK
6
CONTINUOUS
10
0.549146
20
0.883884
11
0.548425
21
0.883622
0
LINE
8
BLACK
6
CONTINUOUS
10
0.548425
20
0.883622
11
0.351575
21
0.883622
0
LINE
8
BLACK
6
CONTINUOUS
10
0.351575
20
0.883622
11
0.351191
21
0.88369
0
LINE
8
BLACK
6
CONTINUOUS
10
0.351191
20
0.88369
11
0.351062
21
0.883667
0
LINE
8
BLACK
6
CONTINUOUS
10
0.351062
20
0.883667
11
0.350948
21
0.883732
0
LINE
8
BLACK
6
CONTINUOUS
10
0.350948
20
0.883732
11
0.350565
21
0.8838
0
LINE
8
BLACK
6
CONTINUOUS
10
0.350565
20
0.8838
11
0.349977
21
0.884293
0
LINE
8
BLACK
6
CONTINUOUS
10
0.349977
20
0.884293
11
0.349313
21
0.884677
0
LINE
8
BLACK
6
CONTINUOUS
10
0.349313
20
0.884677
11
0.349222
21
0.884927
0
LINE
8
BLACK
6
CONTINUOUS
10
0.349222
20
0.884927
11
0.349018
21
0.885098
0
LINE
8
BLACK
6
CONTINUOUS
10
0.349018
20
0.885098
11
0.348884
21
0.885854
0
LINE
8
BLACK
6
CONTINUOUS
10
0.348884
20
0.885854
11
0.348622
21
0.886575
0
LINE
8
BLACK
6
CONTINUOUS
10
0.348622
20
0.886575
11
0.348622
21
1.08343
0
LINE
8
BLACK
6
CONTINUOUS
10
0.348622
20
1.08343
11
0.34869
21
1.08381
0
LINE
8
BLACK
6
CONTINUOUS
10
0.34869
20
1.08381
11
0.348667
21
1.08394
0
LINE
8
BLACK
6
CONTINUOUS
10
0.348667
20
1.08394
11
0.348732
21
1.08405
0
LINE
8
BLACK
6
CONTINUOUS
10
0.348732
20
1.08405
11
0.3488
21
1.08444
0
LINE
8
BLACK
6
CONTINUOUS
10
0.3488
20
1.08444
11
0.349293
21
1.08502
0
LINE
8
BLACK
6
CONTINUOUS
10
0.349293
20
1.08502
11
0.349677
21
1.08569
0
LINE
8
BLACK
6
CONTINUOUS
10
0.349677
20
1.08569
11
0.349927
21
1.08578
0
LINE
8
BLACK
6
CONTINUOUS
10
0.349927
20
1.08578
11
0.350098
21
1.08598
0
LINE
8
BLACK
6
CONTINUOUS
10
0.350098
20
1.08598
11
0.350854
21
1.08612
0
LINE
8
BLACK
6
CONTINUOUS
10
0.350854
20
1.08612
11
0.351575
21
1.08638
0
LINE
8
BLACK
6
CONTINUOUS
10
0.351575
20
1.08638
11
0.548425
21
1.08638
0
LINE
8
BLACK
6
CONTINUOUS
10
0.548425
20
1.08638
11
0.548809
21
1.08631
0
LINE
8
BLACK
6
CONTINUOUS
10
0.354528
20
1.08047
11
0.354528
21
0.889528
0
LINE
8
BLACK
6
CONTINUOUS
10
0.354528
20
0.889528
11
0.545472
21
0.889528
0
LINE
8
BLACK
6
CONTINUOUS
10
0.545472
20
0.889528
11
0.545472
21
1.08047
0
LINE
8
BLACK
6
CONTINUOUS
10
0.545472
20
1.08047
11
0.354528
21
1.08047
0
LINE
8
BLACK
6
CONTINUOUS
10
0.241544
20
0.922998
11
0.242657
21
0.921312
0
LINE
8
BLACK
6
CONTINUOUS
10
0.242657
20
0.921312
11
0.242426
21
0.919306
0
LINE
8
BLACK
6
CONTINUOUS
10
0.242426
20
0.919306
11
0.240551
21
0.915556
0
LINE
8
BLACK
6
CONTINUOUS
10
0.240551
20
0.915556
11
0.240025
21
0.914847
0
LINE
8
BLACK
6
CONTINUOUS
10
0.240025
20
0.914847
11
0.239998
21
0.914789
0
LINE
8
BLACK
6
CONTINUOUS
10
0.239998
20
0.914789
11
0.23754
21
0.91233
0
LINE
8
BLACK
6
CONTINUOUS
10
0.23754
20
0.91233
11
0.264954
21
0.91233
0
LINE
8
BLACK
6
CONTINUOUS
10
0.264954
20
0.91233
11
0.264954
21
0.920626
0
LINE
8
BLACK
6
CONTINUOUS
10
0.264954
20
0.920626
11
0.265132
21
0.921636
0
LINE
8
BLACK
6
CONTINUOUS
10
0.265132
20
0.921636
11
0.26643
21
0.923183
0
LINE
8
BLACK
6
CONTINUOUS
10
0.26643
20
0.923183
11
0.268419
21
0.923534
0
LINE
8
BLACK
6
CONTINUOUS
10
0.268419
20
0.923534
11
0.270168
21
0.922524
0
LINE
8
BLACK
6
CONTINUOUS
10
0.270168
20
0.922524
11
0.270859
21
0.920626
0
LINE
8
BLACK
6
CONTINUOUS
10
0.270859
20
0.920626
11
0.270859
21
0.898129
0
LINE
8
BLACK
6
CONTINUOUS
10
0.270859
20
0.898129
11
0.270681
21
0.897119
0
LINE
8
BLACK
6
CONTINUOUS
10
0.270681
20
0.897119
11
0.269383
21
0.895572
0
LINE
8
BLACK
6
CONTINUOUS
10
0.269383
20
0.895572
11
0.267394
21
0.895221
0
LINE
8
BLACK
6
CONTINUOUS
10
0.267394
20
0.895221
11
0.265644
21
0.896231
0
LINE
8
BLACK
6
CONTINUOUS
10
0.265644
20
0.896231
11
0.264954
21
0.898129
0
LINE
8
BLACK
6
CONTINUOUS
10
0.264954
20
0.898129
11
0.264954
21
0.906425
0
LINE
8
BLACK
6
CONTINUOUS
10
0.264954
20
0.906425
11
0.228536
21
0.906425
0
LINE
8
BLACK
6
CONTINUOUS
10
0.228536
20
0.906425
11
0.227526
21
0.906603
0
LINE
8
BLACK
6
CONTINUOUS
10
0.227526
20
0.906603
11
0.227396
21
0.906712
0
LINE
8
BLACK
6
CONTINUOUS
10
0.227396
20
0.906712
11
0.227227
21
0.906731
0
LINE
8
BLACK
6
CONTINUOUS
10
0.227227
20
0.906731
11
0.226636
21
0.90735
0
LINE
8
BLACK
6
CONTINUOUS
10
0.226636
20
0.90735
11
0.225979
21
0.907901
0
LINE
8
BLACK
6
CONTINUOUS
10
0.225979
20
0.907901
11
0.22595
21
0.908068
0
LINE
8
BLACK
6
CONTINUOUS
10
0.22595
20
0.908068
11
0.225832
21
0.908191
0
LINE
8
BLACK
6
CONTINUOUS
10
0.225832
20
0.908191
11
0.225777
21
0.909046
0
LINE
8
BLACK
6
CONTINUOUS
10
0.225777
20
0.909046
11
0.225628
21
0.90989
0
LINE
8
BLACK
6
CONTINUOUS
10
0.225628
20
0.90989
11
0.225713
21
0.910037
0
LINE
8
BLACK
6
CONTINUOUS
10
0.225713
20
0.910037
11
0.225702
21
0.910207
0
LINE
8
BLACK
6
CONTINUOUS
10
0.225702
20
0.910207
11
0.22621
21
0.910897
0
LINE
8
BLACK
6
CONTINUOUS
10
0.22621
20
0.910897
11
0.226638
21
0.911639
0
LINE
8
BLACK
6
CONTINUOUS
10
0.226638
20
0.911639
11
0.226798
21
0.911698
0
LINE
8
BLACK
6
CONTINUOUS
10
0.226798
20
0.911698
11
0.226898
21
0.911834
0
LINE
8
BLACK
6
CONTINUOUS
10
0.226898
20
0.911834
11
0.232279
21
0.915422
0
LINE
8
BLACK
6
CONTINUOUS
10
0.232279
20
0.915422
11
0.235483
21
0.918626
0
LINE
8
BLACK
6
CONTINUOUS
10
0.235483
20
0.918626
11
0.237144
21
0.921947
0
LINE
8
BLACK
6
CONTINUOUS
10
0.237144
20
0.921947
11
0.237755
21
0.92277
0
LINE
8
BLACK
6
CONTINUOUS
10
0.237755
20
0.92277
11
0.239608
21
0.923574
0
LINE
8
BLACK
6
CONTINUOUS
10
0.239608
20
0.923574
11
0.241544
21
0.922998
0
LINE
8
BLACK
6
CONTINUOUS
10
0.190883
20
0.970253
11
0.191575
21
0.968583
0
LINE
8
BLACK
6
CONTINUOUS
10
0.191575
20
0.968583
11
0.191575
21
0.897717
0
LINE
8
BLACK
6
CONTINUOUS
10
0.191575
20
0.897717
11
0.190883
21
0.896046
0
LINE
8
BLACK
6
CONTINUOUS
10
0.190883
20
0.896046
11
0.189213
21
0.895354
0
LINE
8
BLACK
6
CONTINUOUS
10
0.189213
20
0.895354
11
0.187542
21
0.896046
0
LINE
8
BLACK
6
CONTINUOUS
10
0.187542
20
0.896046
11
0.18685
21
0.897717
0
LINE
8
BLACK
6
CONTINUOUS
10
0.18685
20
0.897717
11
0.18685
21
0.968583
0
LINE
8
BLACK
6
CONTINUOUS
10
0.18685
20
0.968583
11
0.187542
21
0.970253
0
LINE
8
BLACK
6
CONTINUOUS
10
0.187542
20
0.970253
11
0.189213
21
0.970945
0
LINE
8
BLACK
6
CONTINUOUS
10
0.189213
20
0.970945
11
0.190883
21
0.970253
0
LINE
8
BLACK
6
CONTINUOUS
10
0.261417
20
0.962771
11
0.261552
21
0.962657
0
LINE
8
BLACK
6
CONTINUOUS
10
0.261552
20
0.962657
11
0.261728
21
0.962637
0
LINE
8
BLACK
6
CONTINUOUS
10
0.261728
20
0.962637
11
0.265477
21
0.960762
0
LINE
8
BLACK
6
CONTINUOUS
10
0.265477
20
0.960762
11
0.266186
21
0.960237
0
LINE
8
BLACK
6
CONTINUOUS
10
0.266186
20
0.960237
11
0.266245
21
0.960209
0
LINE
8
BLACK
6
CONTINUOUS
10
0.266245
20
0.960209
11
0.268119
21
0.958335
0
LINE
8
BLACK
6
CONTINUOUS
10
0.268119
20
0.958335
11
0.268626
21
0.957611
0
LINE
8
BLACK
6
CONTINUOUS
10
0.268626
20
0.957611
11
0.268673
21
0.957567
0
LINE
8
BLACK
6
CONTINUOUS
10
0.268673
20
0.957567
11
0.270547
21
0.953818
0
LINE
8
BLACK
6
CONTINUOUS
10
0.270547
20
0.953818
11
0.27084
21
0.952835
0
LINE
8
BLACK
6
CONTINUOUS
10
0.27084
20
0.952835
11
0.270799
21
0.952663
0
LINE
8
BLACK
6
CONTINUOUS
10
0.270799
20
0.952663
11
0.270859
21
0.952497
0
LINE
8
BLACK
6
CONTINUOUS
10
0.270859
20
0.952497
11
0.270859
21
0.944998
0
LINE
8
BLACK
6
CONTINUOUS
10
0.270859
20
0.944998
11
0.270681
21
0.943988
0
LINE
8
BLACK
6
CONTINUOUS
10
0.270681
20
0.943988
11
0.270567
21
0.943853
0
LINE
8
BLACK
6
CONTINUOUS
10
0.270567
20
0.943853
11
0.270547
21
0.943678
0
LINE
8
BLACK
6
CONTINUOUS
10
0.270547
20
0.943678
11
0.268673
21
0.939928
0
LINE
8
BLACK
6
CONTINUOUS
10
0.268673
20
0.939928
11
0.268147
21
0.939219
0
LINE
8
BLACK
6
CONTINUOUS
10
0.268147
20
0.939219
11
0.268119
21
0.939161
0
LINE
8
BLACK
6
CONTINUOUS
10
0.268119
20
0.939161
11
0.266245
21
0.937286
0
LINE
8
BLACK
6
CONTINUOUS
10
0.266245
20
0.937286
11
0.265521
21
0.93678
0
LINE
8
BLACK
6
CONTINUOUS
10
0.265521
20
0.93678
11
0.265477
21
0.936733
0
LINE
8
BLACK
6
CONTINUOUS
10
0.265477
20
0.936733
11
0.261728
21
0.934858
0
LINE
8
BLACK
6
CONTINUOUS
10
0.261728
20
0.934858
11
0.260745
21
0.934566
0
LINE
8
BLACK
6
CONTINUOUS
10
0.260745
20
0.934566
11
0.260573
21
0.934607
0
LINE
8
BLACK
6
CONTINUOUS
10
0.260573
20
0.934607
11
0.260407
21
0.934546
0
LINE
8
BLACK
6
CONTINUOUS
10
0.260407
20
0.934546
11
0.228536
21
0.934546
0
LINE
8
BLACK
6
CONTINUOUS
10
0.228536
20
0.934546
11
0.227526
21
0.934724
0
LINE
8
BLACK
6
CONTINUOUS
10
0.227526
20
0.934724
11
0.225979
21
0.936023
0
LINE
8
BLACK
6
CONTINUOUS
10
0.225979
20
0.936023
11
0.225628
21
0.938012
0
LINE
8
BLACK
6
CONTINUOUS
10
0.225628
20
0.938012
11
0.226638
21
0.939761
0
LINE
8
BLACK
6
CONTINUOUS
10
0.226638
20
0.939761
11
0.228536
21
0.940452
0
LINE
8
BLACK
6
CONTINUOUS
10
0.228536
20
0.940452
11
0.25971
21
0.940452
0
LINE
8
BLACK
6
CONTINUOUS
10
0.25971
20
0.940452
11
0.262408
21
0.941801
0
LINE
8
BLACK
6
CONTINUOUS
10
0.262408
20
0.941801
11
0.263605
21
0.942998
0
LINE
8
BLACK
6
CONTINUOUS
10
0.263605
20
0.942998
11
0.264954
21
0.945695
0
LINE
8
BLACK
6
CONTINUOUS
10
0.264954
20
0.945695
11
0.264954
21
0.9518
0
LINE
8
BLACK
6
CONTINUOUS
10
0.264954
20
0.9518
11
0.263605
21
0.954498
0
LINE
8
BLACK
6
CONTINUOUS
10
0.263605
20
0.954498
11
0.262408
21
0.955695
0
LINE
8
BLACK
6
CONTINUOUS
10
0.262408
20
0.955695
11
0.25971
21
0.957043
0
LINE
8
BLACK
6
CONTINUOUS
10
0.25971
20
0.957043
11
0.228536
21
0.957043
0
LINE
8
BLACK
6
CONTINUOUS
10
0.228536
20
0.957043
11
0.227526
21
0.957222
0
LINE
8
BLACK
6
CONTINUOUS
10
0.227526
20
0.957222
11
0.225979
21
0.95852
0
LINE
8
BLACK
6
CONTINUOUS
10
0.225979
20
0.95852
11
0.225628
21
0.960509
0
LINE
8
BLACK
6
CONTINUOUS
10
0.225628
20
0.960509
11
0.226638
21
0.962258
0
LINE
8
BLACK
6
CONTINUOUS
10
0.226638
20
0.962258
11
0.228536
21
0.962949
0
LINE
8
BLACK
6
CONTINUOUS
10
0.228536
20
0.962949
11
0.260407
21
0.962949
0
LINE
8
BLACK
6
CONTINUOUS
10
0.260407
20
0.962949
11
0.261417
21
0.962771
0
LINE
8
BLACK
6
CONTINUOUS
10
0.167262
20
1.1119
11
0.167953
21
1.11
0
LINE
8
BLACK
6
CONTINUOUS
10
0.167953
20
1.11
11
0.167953
21
1.07
0
LINE
8
BLACK
6
CONTINUOUS
10
0.167953
20
1.07
11
0.167885
21
1.06962
0
LINE
8
BLACK
6
CONTINUOUS
10
0.167885
20
1.06962
11
0.167908
21
1.06949
0
LINE
8
BLACK
6
CONTINUOUS
10
0.167908
20
1.06949
11
0.167842
21
1.06937
0
LINE
8
BLACK
6
CONTINUOUS
10
0.167842
20
1.06937
11
0.167775
21
1.06899
0
LINE
8
BLACK
6
CONTINUOUS
10
0.167775
20
1.06899
11
0.167282
21
1.0684
0
LINE
8
BLACK
6
CONTINUOUS
10
0.167282
20
1.0684
11
0.166898
21
1.06774
0
LINE
8
BLACK
6
CONTINUOUS
10
0.166898
20
1.06774
11
0.166648
21
1.06765
0
LINE
8
BLACK
6
CONTINUOUS
10
0.166648
20
1.06765
11
0.166476
21
1.06744
0
LINE
8
BLACK
6
CONTINUOUS
10
0.166476
20
1.06744
11
0.165721
21
1.06731
0
LINE
8
BLACK
6
CONTINUOUS
10
0.165721
20
1.06731
11
0.165
21
1.06705
0
LINE
8
BLACK
6
CONTINUOUS
10
0.165
20
1.06705
11
0.105
21
1.06705
0
LINE
8
BLACK
6
CONTINUOUS
10
0.105
20
1.06705
11
0.104616
21
1.06711
0
LINE
8
BLACK
6
CONTINUOUS
10
0.104616
20
1.06711
11
0.104487
21
1.06709
0
LINE
8
BLACK
6
CONTINUOUS
10
0.104487
20
1.06709
11
0.104374
21
1.06716
0
LINE
8
BLACK
6
CONTINUOUS
10
0.104374
20
1.06716
11
0.10399
21
1.06723
0
LINE
8
BLACK
6
CONTINUOUS
10
0.10399
20
1.06723
11
0.103402
21
1.06772
0
LINE
8
BLACK
6
CONTINUOUS
10
0.103402
20
1.06772
11
0.102738
21
1.0681
0
LINE
8
BLACK
6
CONTINUOUS
10
0.102738
20
1.0681
11
0.102647
21
1.06835
0
LINE
8
BLACK
6
CONTINUOUS
10
0.102647
20
1.06835
11
0.102443
21
1.06852
0
LINE
8
BLACK
6
CONTINUOUS
10
0.102443
20
1.06852
11
0.10231
21
1.06928
0
LINE
8
BLACK
6
CONTINUOUS
10
0.10231
20
1.06928
11
0.102047
21
1.07
0
LINE
8
BLACK
6
CONTINUOUS
10
0.102047
20
1.07
11
0.102047
21
1.11
0
LINE
8
BLACK
6
CONTINUOUS
10
0.102047
20
1.11
11
0.102225
21
1.11101
0
LINE
8
BLACK
6
CONTINUOUS
10
0.102225
20
1.11101
11
0.103524
21
1.11256
0
LINE
8
BLACK
6
CONTINUOUS
10
0.103524
20
1.11256
11
0.105513
21
1.11291
0
LINE
8
BLACK
6
CONTINUOUS
10
0.105513
20
1.11291
11
0.107262
21
1.1119
0
LINE
8
BLACK
6
CONTINUOUS
10
0.107262
20
1.1119
11
0.107953
21
1.11
0
LINE
8
BLACK
6
CONTINUOUS
10
0.107953
20
1.11
11
0.107953
21
1.07295
0
LINE
8
BLACK
6
CONTINUOUS
10
0.107953
20
1.07295
11
0.162047
21
1.07295
0
LINE
8
BLACK
6
CONTINUOUS
10
0.162047
20
1.07295
11
0.162047
21
1.11
0
LINE
8
BLACK
6
CONTINUOUS
10
0.162047
20
1.11
11
0.162225
21
1.11101
0
LINE
8
BLACK
6
CONTINUOUS
10
0.162225
20
1.11101
11
0.163524
21
1.11256
0
LINE
8
BLACK
6
CONTINUOUS
10
0.163524
20
1.11256
11
0.165513
21
1.11291
0
LINE
8
BLACK
6
CONTINUOUS
10
0.165513
20
1.11291
11
0.167262
21
1.1119
0
LINE
8
BLACK
6
CONTINUOUS
10
0.332884
20
1.13789
11
0.333013
21
1.13791
0
LINE
8
BLACK
6
CONTINUOUS
10
0.333013
20
1.13791
11
0.333126
21
1.13784
0
LINE
8
BLACK
6
CONTINUOUS
10
0.333126
20
1.13784
11
0.33351
21
1.13777
0
LINE
8
BLACK
6
CONTINUOUS
10
0.33351
20
1.13777
11
0.334098
21
1.13728
0
LINE
8
BLACK
6
CONTINUOUS
10
0.334098
20
1.13728
11
0.334762
21
1.1369
0
LINE
8
BLACK
6
CONTINUOUS
10
0.334762
20
1.1369
11
0.334853
21
1.13665
0
LINE
8
BLACK
6
CONTINUOUS
10
0.334853
20
1.13665
11
0.335057
21
1.13648
0
LINE
8
BLACK
6
CONTINUOUS
10
0.335057
20
1.13648
11
0.33519
21
1.13572
0
LINE
8
BLACK
6
CONTINUOUS
10
0.33519
20
1.13572
11
0.335453
21
1.135
0
LINE
8
BLACK
6
CONTINUOUS
10
0.335453
20
1.135
11
0.335453
21
1.08262
0
LINE
8
BLACK
6
CONTINUOUS
10
0.335453
20
1.08262
11
0.33573
21
1.08275
0
LINE
8
BLACK
6
CONTINUOUS
10
0.33573
20
1.08275
11
0.33927
21
1.08275
0
LINE
8
BLACK
6
CONTINUOUS
10
0.33927
20
1.08275
11
0.342458
21
1.08122
0
LINE
8
BLACK
6
CONTINUOUS
10
0.342458
20
1.08122
11
0.344665
21
1.07845
0
LINE
8
BLACK
6
CONTINUOUS
10
0.344665
20
1.07845
11
0.345453
21
1.075
0
LINE
8
BLACK
6
CONTINUOUS
10
0.345453
20
1.075
11
0.344665
21
1.07155
0
LINE
8
BLACK
6
CONTINUOUS
10
0.344665
20
1.07155
11
0.342458
21
1.06878
0
LINE
8
BLACK
6
CONTINUOUS
10
0.342458
20
1.06878
11
0.33927
21
1.06725
0
LINE
8
BLACK
6
CONTINUOUS
10
0.33927
20
1.06725
11
0.33573
21
1.06725
0
LINE
8
BLACK
6
CONTINUOUS
10
0.33573
20
1.06725
11
0.332542
21
1.06878
0
LINE
8
BLACK
6
CONTINUOUS
10
0.332542
20
1.06878
11
0.330335
21
1.07155
0
LINE
8
BLACK
6
CONTINUOUS
10
0.330335
20
1.07155
11
0.330221
21
1.07205
0
LINE
8
BLACK
6
CONTINUOUS
10
0.330221
20
1.07205
11
0.2925
21
1.07205
0
LINE
8
BLACK
6
CONTINUOUS
10
0.2925
20
1.07205
11
0.29149
21
1.07223
0
LINE
8
BLACK
6
CONTINUOUS
10
0.29149
20
1.07223
11
0.289943
21
1.07352
0
LINE
8
BLACK
6
CONTINUOUS
10
0.289943
20
1.07352
11
0.289592
21
1.07551
0
LINE
8
BLACK
6
CONTINUOUS
10
0.289592
20
1.07551
11
0.290602
21
1.07726
0
LINE
8
BLACK
6
CONTINUOUS
10
0.290602
20
1.07726
11
0.2925
21
1.07795
0
LINE
8
BLACK
6
CONTINUOUS
10
0.2925
20
1.07795
11
0.329547
21
1.07795
0
LINE
8
BLACK
6
CONTINUOUS
10
0.329547
20
1.07795
11
0.329547
21
1.13205
0
LINE
8
BLACK
6
CONTINUOUS
10
0.329547
20
1.13205
11
0.2925
21
1.13205
0
LINE
8
BLACK
6
CONTINUOUS
10
0.2925
20
1.13205
11
0.29149
21
1.13223
0
LINE
8
BLACK
6
CONTINUOUS
10
0.29149
20
1.13223
11
0.289943
21
1.13352
0
LINE
8
BLACK
6
CONTINUOUS
10
0.289943
20
1.13352
11
0.289592
21
1.13551
0
LINE
8
BLACK
6
CONTINUOUS
10
0.289592
20
1.13551
11
0.290602
21
1.13726
0
LINE
8
BLACK
6
CONTINUOUS
10
0.290602
20
1.13726
11
0.2925
21
1.13795
0
LINE
8
BLACK
6
CONTINUOUS
10
0.2925
20
1.13795
11
0.3325
21
1.13795
0
LINE
8
BLACK
6
CONTINUOUS
10
0.3325
20
1.13795
11
0.332884
21
1.13789
0
LINE
8
BLACK
6
CONTINUOUS
10
0.335933
20
1.07657
11
0.335453
21
1.07541
0
LINE
8
BLACK
6
CONTINUOUS
10
0.335453
20
1.07541
11
0.335453
21
1.075
0
LINE
8
BLACK
6
CONTINUOUS
10
0.335453
20
1.075
11
0.335402
21
1.07471
0
LINE
8
BLACK
6
CONTINUOUS
10
0.335402
20
1.07471
11
0.335933
21
1.07343
0
LINE
8
BLACK
6
CONTINUOUS
10
0.335933
20
1.07343
11
0.3375
21
1.07278
0
LINE
8
BLACK
6
CONTINUOUS
10
0.3375
20
1.07278
11
0.339067
21
1.07343
0
LINE
8
BLACK
6
CONTINUOUS
10
0.339067
20
1.07343
11
0.339716
21
1.075
0
LINE
8
BLACK
6
CONTINUOUS
10
0.339716
20
1.075
11
0.339067
21
1.07657
0
LINE
8
BLACK
6
CONTINUOUS
10
0.339067
20
1.07657
11
0.3375
21
1.07722
0
LINE
8
BLACK
6
CONTINUOUS
10
0.3375
20
1.07722
11
0.335933
21
1.07657
0
LINE
8
BLACK
6
CONTINUOUS
10
0.25351
20
1.13777
11
0.255057
21
1.13648
0
LINE
8
BLACK
6
CONTINUOUS
10
0.255057
20
1.13648
11
0.255408
21
1.13449
0
LINE
8
BLACK
6
CONTINUOUS
10
0.255408
20
1.13449
11
0.254398
21
1.13274
0
LINE
8
BLACK
6
CONTINUOUS
10
0.254398
20
1.13274
11
0.2525
21
1.13205
0
LINE
8
BLACK
6
CONTINUOUS
10
0.2525
20
1.13205
11
0.215453
21
1.13205
0
LINE
8
BLACK
6
CONTINUOUS
10
0.215453
20
1.13205
11
0.215453
21
1.07795
0
LINE
8
BLACK
6
CONTINUOUS
10
0.215453
20
1.07795
11
0.2525
21
1.07795
0
LINE
8
BLACK
6
CONTINUOUS
10
0.2525
20
1.07795
11
0.25351
21
1.07777
0
LINE
8
BLACK
6
CONTINUOUS
10
0.25351
20
1.07777
11
0.255057
21
1.07648
0
LINE
8
BLACK
6
CONTINUOUS
10
0.255057
20
1.07648
11
0.255408
21
1.07449
0
LINE
8
BLACK
6
CONTINUOUS
10
0.255408
20
1.07449
11
0.254398
21
1.07274
0
LINE
8
BLACK
6
CONTINUOUS
10
0.254398
20
1.07274
11
0.2525
21
1.07205
0
LINE
8
BLACK
6
CONTINUOUS
10
0.2525
20
1.07205
11
0.2125
21
1.07205
0
LINE
8
BLACK
6
CONTINUOUS
10
0.2125
20
1.07205
11
0.212116
21
1.07211
0
LINE
8
BLACK
6
CONTINUOUS
10
0.212116
20
1.07211
11
0.211987
21
1.07209
0
LINE
8
BLACK
6
CONTINUOUS
10
0.211987
20
1.07209
11
0.211874
21
1.07216
0
LINE
8
BLACK
6
CONTINUOUS
10
0.211874
20
1.07216
11
0.21149
21
1.07223
0
LINE
8
BLACK
6
CONTINUOUS
10
0.21149
20
1.07223
11
0.210902
21
1.07272
0
LINE
8
BLACK
6
CONTINUOUS
10
0.210902
20
1.07272
11
0.210238
21
1.0731
0
LINE
8
BLACK
6
CONTINUOUS
10
0.210238
20
1.0731
11
0.210147
21
1.07335
0
LINE
8
BLACK
6
CONTINUOUS
10
0.210147
20
1.07335
11
0.209943
21
1.07352
0
LINE
8
BLACK
6
CONTINUOUS
10
0.209943
20
1.07352
11
0.20981
21
1.07428
0
LINE
8
BLACK
6
CONTINUOUS
10
0.20981
20
1.07428
11
0.209547
21
1.075
0
LINE
8
BLACK
6
CONTINUOUS
10
0.209547
20
1.075
11
0.209547
21
1.135
0
LINE
8
BLACK
6
CONTINUOUS
10
0.209547
20
1.135
11
0.209615
21
1.13538
0
LINE
8
BLACK
6
CONTINUOUS
10
0.209615
20
1.13538
11
0.209592
21
1.13551
0
LINE
8
BLACK
6
CONTINUOUS
10
0.209592
20
1.13551
11
0.209658
21
1.13563
0
LINE
8
BLACK
6
CONTINUOUS
10
0.209658
20
1.13563
11
0.209725
21
1.13601
0
LINE
8
BLACK
6
CONTINUOUS
10
0.209725
20
1.13601
11
0.210218
21
1.1366
0
LINE
8
BLACK
6
CONTINUOUS
10
0.210218
20
1.1366
11
0.210602
21
1.13726
0
LINE
8
BLACK
6
CONTINUOUS
10
0.210602
20
1.13726
11
0.210852
21
1.13735
0
LINE
8
BLACK
6
CONTINUOUS
10
0.210852
20
1.13735
11
0.211024
21
1.13756
0
LINE
8
BLACK
6
CONTINUOUS
10
0.211024
20
1.13756
11
0.211779
21
1.13769
0
LINE
8
BLACK
6
CONTINUOUS
10
0.211779
20
1.13769
11
0.2125
21
1.13795
0
LINE
8
BLACK
6
CONTINUOUS
10
0.2125
20
1.13795
11
0.2525
21
1.13795
0
LINE
8
BLACK
6
CONTINUOUS
10
0.2525
20
1.13795
11
0.25351
21
1.13777
0
LINE
8
BLACK
6
CONTINUOUS
10
0.44104
20
1.29057
11
0.441732
21
1.2889
0
LINE
8
BLACK
6
CONTINUOUS
10
0.441732
20
1.2889
11
0.441732
21
1.11961
0
LINE
8
BLACK
6
CONTINUOUS
10
0.441732
20
1.11961
11
0.44104
21
1.11794
0
LINE
8
BLACK
6
CONTINUOUS
10
0.44104
20
1.11794
11
0.43937
21
1.11724
0
LINE
8
BLACK
6
CONTINUOUS
10
0.43937
20
1.11724
11
0.36063
21
1.11724
0
LINE
8
BLACK
6
CONTINUOUS
10
0.36063
20
1.11724
11
0.35896
21
1.11794
0
LINE
8
BLACK
6
CONTINUOUS
10
0.35896
20
1.11794
11
0.358268
21
1.11961
0
LINE
8
BLACK
6
CONTINUOUS
10
0.358268
20
1.11961
11
0.358268
21
1.2889
0
LINE
8
BLACK
6
CONTINUOUS
10
0.358268
20
1.2889
11
0.35896
21
1.29057
0
LINE
8
BLACK
6
CONTINUOUS
10
0.35896
20
1.29057
11
0.36063
21
1.29126
0
LINE
8
BLACK
6
CONTINUOUS
10
0.36063
20
1.29126
11
0.3623
21
1.29057
0
LINE
8
BLACK
6
CONTINUOUS
10
0.3623
20
1.29057
11
0.362992
21
1.2889
0
LINE
8
BLACK
6
CONTINUOUS
10
0.362992
20
1.2889
11
0.362992
21
1.12197
0
LINE
8
BLACK
6
CONTINUOUS
10
0.362992
20
1.12197
11
0.437008
21
1.12197
0
LINE
8
BLACK
6
CONTINUOUS
10
0.437008
20
1.12197
11
0.437008
21
1.2889
0
LINE
8
BLACK
6
CONTINUOUS
10
0.437008
20
1.2889
11
0.4377
21
1.29057
0
LINE
8
BLACK
6
CONTINUOUS
10
0.4377
20
1.29057
11
0.43937
21
1.29126
0
LINE
8
BLACK
6
CONTINUOUS
10
0.43937
20
1.29126
11
0.44104
21
1.29057
0
LINE
8
BLACK
6
CONTINUOUS
10
0.169958
20
1.20122
11
0.172165
21
1.19845
0
LINE
8
BLACK
6
CONTINUOUS
10
0.172165
20
1.19845
11
0.172953
21
1.195
0
LINE
8
BLACK
6
CONTINUOUS
10
0.172953
20
1.195
11
0.172165
21
1.19155
0
LINE
8
BLACK
6
CONTINUOUS
10
0.172165
20
1.19155
11
0.169958
21
1.18878
0
LINE
8
BLACK
6
CONTINUOUS
10
0.169958
20
1.18878
11
0.167953
21
1.18782
0
LINE
8
BLACK
6
CONTINUOUS
10
0.167953
20
1.18782
11
0.167953
21
1.15
0
LINE
8
BLACK
6
CONTINUOUS
10
0.167953
20
1.15
11
0.167775
21
1.14899
0
LINE
8
BLACK
6
CONTINUOUS
10
0.167775
20
1.14899
11
0.166476
21
1.14744
0
LINE
8
BLACK
6
CONTINUOUS
10
0.166476
20
1.14744
11
0.164487
21
1.14709
0
LINE
8
BLACK
6
CONTINUOUS
10
0.164487
20
1.14709
11
0.162738
21
1.1481
0
LINE
8
BLACK
6
CONTINUOUS
10
0.162738
20
1.1481
11
0.162047
21
1.15
0
LINE
8
BLACK
6
CONTINUOUS
10
0.162047
20
1.15
11
0.162047
21
1.18705
0
LINE
8
BLACK
6
CONTINUOUS
10
0.162047
20
1.18705
11
0.107953
21
1.18705
0
LINE
8
BLACK
6
CONTINUOUS
10
0.107953
20
1.18705
11
0.107953
21
1.15
0
LINE
8
BLACK
6
CONTINUOUS
10
0.107953
20
1.15
11
0.107775
21
1.14899
0
LINE
8
BLACK
6
CONTINUOUS
10
0.107775
20
1.14899
11
0.106476
21
1.14744
0
LINE
8
BLACK
6
CONTINUOUS
10
0.106476
20
1.14744
11
0.104487
21
1.14709
0
LINE
8
BLACK
6
CONTINUOUS
10
0.104487
20
1.14709
11
0.102738
21
1.1481
0
LINE
8
BLACK
6
CONTINUOUS
10
0.102738
20
1.1481
11
0.102047
21
1.15
0
LINE
8
BLACK
6
CONTINUOUS
10
0.102047
20
1.15
11
0.102047
21
1.19
0
LINE
8
BLACK
6
CONTINUOUS
10
0.102047
20
1.19
11
0.102115
21
1.19038
0
LINE
8
BLACK
6
CONTINUOUS
10
0.102115
20
1.19038
11
0.102092
21
1.19051
0
LINE
8
BLACK
6
CONTINUOUS
10
0.102092
20
1.19051
11
0.102158
21
1.19063
0
LINE
8
BLACK
6
CONTINUOUS
10
0.102158
20
1.19063
11
0.102225
21
1.19101
0
LINE
8
BLACK
6
CONTINUOUS
10
0.102225
20
1.19101
11
0.102718
21
1.1916
0
LINE
8
BLACK
6
CONTINUOUS
10
0.102718
20
1.1916
11
0.103102
21
1.19226
0
LINE
8
BLACK
6
CONTINUOUS
10
0.103102
20
1.19226
11
0.103352
21
1.19235
0
LINE
8
BLACK
6
CONTINUOUS
10
0.103352
20
1.19235
11
0.103524
21
1.19256
0
LINE
8
BLACK
6
CONTINUOUS
10
0.103524
20
1.19256
11
0.104279
21
1.19269
0
LINE
8
BLACK
6
CONTINUOUS
10
0.104279
20
1.19269
11
0.105
21
1.19295
0
LINE
8
BLACK
6
CONTINUOUS
10
0.105
20
1.19295
11
0.157514
21
1.19295
0
LINE
8
BLACK
6
CONTINUOUS
10
0.157514
20
1.19295
11
0.157047
21
1.195
0
LINE
8
BLACK
6
CONTINUOUS
10
0.157047
20
1.195
11
0.157835
21
1.19845
0
LINE
8
BLACK
6
CONTINUOUS
10
0.157835
20
1.19845
11
0.160042
21
1.20122
0
LINE
8
BLACK
6
CONTINUOUS
10
0.160042
20
1.20122
11
0.16323
21
1.20275
0
LINE
8
BLACK
6
CONTINUOUS
10
0.16323
20
1.20275
11
0.16677
21
1.20275
0
LINE
8
BLACK
6
CONTINUOUS
10
0.16677
20
1.20275
11
0.169958
21
1.20122
0
LINE
8
BLACK
6
CONTINUOUS
10
0.163433
20
1.19343
11
0.164593
21
1.19295
0
LINE
8
BLACK
6
CONTINUOUS
10
0.164593
20
1.19295
11
0.165
21
1.19295
0
LINE
8
BLACK
6
CONTINUOUS
10
0.165
20
1.19295
11
0.165286
21
1.1929
0
LINE
8
BLACK
6
CONTINUOUS
10
0.165286
20
1.1929
11
0.166567
21
1.19343
0
LINE
8
BLACK
6
CONTINUOUS
10
0.166567
20
1.19343
11
0.167216
21
1.195
0
LINE
8
BLACK
6
CONTINUOUS
10
0.167216
20
1.195
11
0.166567
21
1.19657
0
LINE
8
BLACK
6
CONTINUOUS
10
0.166567
20
1.19657
11
0.165
21
1.19722
0
LINE
8
BLACK
6
CONTINUOUS
10
0.165
20
1.19722
11
0.163433
21
1.19657
0
LINE
8
BLACK
6
CONTINUOUS
10
0.163433
20
1.19657
11
0.162784
21
1.195
0
LINE
8
BLACK
6
CONTINUOUS
10
0.162784
20
1.195
11
0.163433
21
1.19343
0
LINE
8
BLACK
6
CONTINUOUS
10
0.497276
20
1.21628
11
0.497411
21
1.21629
0
LINE
8
BLACK
6
CONTINUOUS
10
0.497411
20
1.21629
11
0.498139
21
1.21578
0
LINE
8
BLACK
6
CONTINUOUS
10
0.498139
20
1.21578
11
0.498908
21
1.21534
0
LINE
8
BLACK
6
CONTINUOUS
10
0.498908
20
1.21534
11
0.498954
21
1.21521
0
LINE
8
BLACK
6
CONTINUOUS
10
0.498954
20
1.21521
11
0.499065
21
1.21513
0
LINE
8
BLACK
6
CONTINUOUS
10
0.499065
20
1.21513
11
0.499295
21
1.21427
0
LINE
8
BLACK
6
CONTINUOUS
10
0.499295
20
1.21427
11
0.499599
21
1.21344
0
LINE
8
BLACK
6
CONTINUOUS
10
0.499599
20
1.21344
11
0.499599
21
1.18907
0
LINE
8
BLACK
6
CONTINUOUS
10
0.499599
20
1.18907
11
0.499421
21
1.18806
0
LINE
8
BLACK
6
CONTINUOUS
10
0.499421
20
1.18806
11
0.498123
21
1.18651
0
LINE
8
BLACK
6
CONTINUOUS
10
0.498123
20
1.18651
11
0.496134
21
1.18616
0
LINE
8
BLACK
6
CONTINUOUS
10
0.496134
20
1.18616
11
0.494384
21
1.18717
0
LINE
8
BLACK
6
CONTINUOUS
10
0.494384
20
1.18717
11
0.493694
21
1.18907
0
LINE
8
BLACK
6
CONTINUOUS
10
0.493694
20
1.18907
11
0.493694
21
1.20631
0
LINE
8
BLACK
6
CONTINUOUS
10
0.493694
20
1.20631
11
0.476237
21
1.18885
0
LINE
8
BLACK
6
CONTINUOUS
10
0.476237
20
1.18885
11
0.475397
21
1.18826
0
LINE
8
BLACK
6
CONTINUOUS
10
0.475397
20
1.18826
11
0.475221
21
1.18825
0
LINE
8
BLACK
6
CONTINUOUS
10
0.475221
20
1.18825
11
0.475083
21
1.18814
0
LINE
8
BLACK
6
CONTINUOUS
10
0.475083
20
1.18814
11
0.469459
21
1.18627
0
LINE
8
BLACK
6
CONTINUOUS
10
0.469459
20
1.18627
11
0.468585
21
1.18614
0
LINE
8
BLACK
6
CONTINUOUS
10
0.468585
20
1.18614
11
0.468525
21
1.18611
0
LINE
8
BLACK
6
CONTINUOUS
10
0.468525
20
1.18611
11
0.464775
21
1.18611
0
LINE
8
BLACK
6
CONTINUOUS
10
0.464775
20
1.18611
11
0.463765
21
1.18629
0
LINE
8
BLACK
6
CONTINUOUS
10
0.463765
20
1.18629
11
0.46363
21
1.18641
0
LINE
8
BLACK
6
CONTINUOUS
10
0.46363
20
1.18641
11
0.463455
21
1.18643
0
LINE
8
BLACK
6
CONTINUOUS
10
0.463455
20
1.18643
11
0.459705
21
1.1883
0
LINE
8
BLACK
6
CONTINUOUS
10
0.459705
20
1.1883
11
0.458996
21
1.18883
0
LINE
8
BLACK
6
CONTINUOUS
10
0.458996
20
1.18883
11
0.458938
21
1.18885
0
LINE
8
BLACK
6
CONTINUOUS
10
0.458938
20
1.18885
11
0.457063
21
1.19073
0
LINE
8
BLACK
6
CONTINUOUS
10
0.457063
20
1.19073
11
0.456557
21
1.19145
0
LINE
8
BLACK
6
CONTINUOUS
10
0.456557
20
1.19145
11
0.45651
21
1.1915
0
LINE
8
BLACK
6
CONTINUOUS
10
0.45651
20
1.1915
11
0.454635
21
1.19524
0
LINE
8
BLACK
6
CONTINUOUS
10
0.454635
20
1.19524
11
0.454343
21
1.19623
0
LINE
8
BLACK
6
CONTINUOUS
10
0.454343
20
1.19623
11
0.454384
21
1.1964
0
LINE
8
BLACK
6
CONTINUOUS
10
0.454384
20
1.1964
11
0.454324
21
1.19657
0
LINE
8
BLACK
6
CONTINUOUS
10
0.454324
20
1.19657
11
0.454324
21
1.20594
0
LINE
8
BLACK
6
CONTINUOUS
10
0.454324
20
1.20594
11
0.454502
21
1.20695
0
LINE
8
BLACK
6
CONTINUOUS
10
0.454502
20
1.20695
11
0.454615
21
1.20708
0
LINE
8
BLACK
6
CONTINUOUS
10
0.454615
20
1.20708
11
0.454635
21
1.20726
0
LINE
8
BLACK
6
CONTINUOUS
10
0.454635
20
1.20726
11
0.45651
21
1.21101
0
LINE
8
BLACK
6
CONTINUOUS
10
0.45651
20
1.21101
11
0.457036
21
1.21172
0
LINE
8
BLACK
6
CONTINUOUS
10
0.457036
20
1.21172
11
0.457063
21
1.21178
0
LINE
8
BLACK
6
CONTINUOUS
10
0.457063
20
1.21178
11
0.458938
21
1.21365
0
LINE
8
BLACK
6
CONTINUOUS
10
0.458938
20
1.21365
11
0.459778
21
1.21424
0
LINE
8
BLACK
6
CONTINUOUS
10
0.459778
20
1.21424
11
0.46179
21
1.21442
0
LINE
8
BLACK
6
CONTINUOUS
10
0.46179
20
1.21442
11
0.463445
21
1.21326
0
LINE
8
BLACK
6
CONTINUOUS
10
0.463445
20
1.21326
11
0.463967
21
1.21131
0
LINE
8
BLACK
6
CONTINUOUS
10
0.463967
20
1.21131
11
0.463114
21
1.20948
0
LINE
8
BLACK
6
CONTINUOUS
10
0.463114
20
1.20948
11
0.461578
21
1.20794
0
LINE
8
BLACK
6
CONTINUOUS
10
0.461578
20
1.20794
11
0.460229
21
1.20524
0
LINE
8
BLACK
6
CONTINUOUS
10
0.460229
20
1.20524
11
0.460229
21
1.19726
0
LINE
8
BLACK
6
CONTINUOUS
10
0.460229
20
1.19726
11
0.461578
21
1.19456
0
LINE
8
BLACK
6
CONTINUOUS
10
0.461578
20
1.19456
11
0.462775
21
1.19337
0
LINE
8
BLACK
6
CONTINUOUS
10
0.462775
20
1.19337
11
0.465472
21
1.19202
0
LINE
8
BLACK
6
CONTINUOUS
10
0.465472
20
1.19202
11
0.468046
21
1.19202
0
LINE
8
BLACK
6
CONTINUOUS
10
0.468046
20
1.19202
11
0.472554
21
1.19352
0
LINE
8
BLACK
6
CONTINUOUS
10
0.472554
20
1.19352
11
0.494559
21
1.21553
0
LINE
8
BLACK
6
CONTINUOUS
10
0.494559
20
1.21553
11
0.495087
21
1.2159
0
LINE
8
BLACK
6
CONTINUOUS
10
0.495087
20
1.2159
11
0.49517
21
1.216
0
LINE
8
BLACK
6
CONTINUOUS
10
0.49517
20
1.216
11
0.495248
21
1.21601
0
LINE
8
BLACK
6
CONTINUOUS
10
0.495248
20
1.21601
11
0.495399
21
1.21611
0
LINE
8
BLACK
6
CONTINUOUS
10
0.495399
20
1.21611
11
0.496284
21
1.21619
0
LINE
8
BLACK
6
CONTINUOUS
10
0.496284
20
1.21619
11
0.497159
21
1.21635
0
LINE
8
BLACK
6
CONTINUOUS
10
0.497159
20
1.21635
11
0.497276
21
1.21628
0
LINE
8
BLACK
6
CONTINUOUS
10
0.49703
20
1.25194
11
0.497159
21
1.25197
0
LINE
8
BLACK
6
CONTINUOUS
10
0.497159
20
1.25197
11
0.497273
21
1.2519
0
LINE
8
BLACK
6
CONTINUOUS
10
0.497273
20
1.2519
11
0.497656
21
1.25183
0
LINE
8
BLACK
6
CONTINUOUS
10
0.497656
20
1.25183
11
0.498244
21
1.25134
0
LINE
8
BLACK
6
CONTINUOUS
10
0.498244
20
1.25134
11
0.498908
21
1.25096
0
LINE
8
BLACK
6
CONTINUOUS
10
0.498908
20
1.25096
11
0.498999
21
1.25071
0
LINE
8
BLACK
6
CONTINUOUS
10
0.498999
20
1.25071
11
0.499204
21
1.25054
0
LINE
8
BLACK
6
CONTINUOUS
10
0.499204
20
1.25054
11
0.499337
21
1.24978
0
LINE
8
BLACK
6
CONTINUOUS
10
0.499337
20
1.24978
11
0.499599
21
1.24906
0
LINE
8
BLACK
6
CONTINUOUS
10
0.499599
20
1.24906
11
0.499599
21
1.23968
0
LINE
8
BLACK
6
CONTINUOUS
10
0.499599
20
1.23968
11
0.499446
21
1.23882
0
LINE
8
BLACK
6
CONTINUOUS
10
0.499446
20
1.23882
11
0.499448
21
1.23875
0
LINE
8
BLACK
6
CONTINUOUS
10
0.499448
20
1.23875
11
0.497573
21
1.23313
0
LINE
8
BLACK
6
CONTINUOUS
10
0.497573
20
1.23313
11
0.497085
21
1.23223
0
LINE
8
BLACK
6
CONTINUOUS
10
0.497085
20
1.23223
11
0.496934
21
1.23213
0
LINE
8
BLACK
6
CONTINUOUS
10
0.496934
20
1.23213
11
0.49686
21
1.23197
0
LINE
8
BLACK
6
CONTINUOUS
10
0.49686
20
1.23197
11
0.49311
21
1.22822
0
LINE
8
BLACK
6
CONTINUOUS
10
0.49311
20
1.22822
11
0.492387
21
1.22772
0
LINE
8
BLACK
6
CONTINUOUS
10
0.492387
20
1.22772
11
0.492343
21
1.22767
0
LINE
8
BLACK
6
CONTINUOUS
10
0.492343
20
1.22767
11
0.488593
21
1.2258
0
LINE
8
BLACK
6
CONTINUOUS
10
0.488593
20
1.2258
11
0.488105
21
1.22565
0
LINE
8
BLACK
6
CONTINUOUS
10
0.488105
20
1.22565
11
0.487989
21
1.22557
0
LINE
8
BLACK
6
CONTINUOUS
10
0.487989
20
1.22557
11
0.48049
21
1.2237
0
LINE
8
BLACK
6
CONTINUOUS
10
0.48049
20
1.2237
11
0.479902
21
1.22366
0
LINE
8
BLACK
6
CONTINUOUS
10
0.479902
20
1.22366
11
0.479774
21
1.22361
0
LINE
8
BLACK
6
CONTINUOUS
10
0.479774
20
1.22361
11
0.474149
21
1.22361
0
LINE
8
BLACK
6
CONTINUOUS
10
0.474149
20
1.22361
11
0.473569
21
1.22371
0
LINE
8
BLACK
6
CONTINUOUS
10
0.473569
20
1.22371
11
0.473433
21
1.2237
0
LINE
8
BLACK
6
CONTINUOUS
10
0.473433
20
1.2237
11
0.465934
21
1.22557
0
LINE
8
BLACK
6
CONTINUOUS
10
0.465934
20
1.22557
11
0.465469
21
1.22578
0
LINE
8
BLACK
6
CONTINUOUS
10
0.465469
20
1.22578
11
0.46533
21
1.2258
0
LINE
8
BLACK
6
CONTINUOUS
10
0.46533
20
1.2258
11
0.46158
21
1.22767
0
LINE
8
BLACK
6
CONTINUOUS
10
0.46158
20
1.22767
11
0.460871
21
1.2282
0
LINE
8
BLACK
6
CONTINUOUS
10
0.460871
20
1.2282
11
0.460813
21
1.22822
0
LINE
8
BLACK
6
CONTINUOUS
10
0.460813
20
1.22822
11
0.457063
21
1.23197
0
LINE
8
BLACK
6
CONTINUOUS
10
0.457063
20
1.23197
11
0.456475
21
1.23281
0
LINE
8
BLACK
6
CONTINUOUS
10
0.456475
20
1.23281
11
0.45646
21
1.23299
0
LINE
8
BLACK
6
CONTINUOUS
10
0.45646
20
1.23299
11
0.45635
21
1.23313
0
LINE
8
BLACK
6
CONTINUOUS
10
0.45635
20
1.23313
11
0.454475
21
1.23875
0
LINE
8
BLACK
6
CONTINUOUS
10
0.454475
20
1.23875
11
0.454346
21
1.23962
0
LINE
8
BLACK
6
CONTINUOUS
10
0.454346
20
1.23962
11
0.454324
21
1.23968
0
LINE
8
BLACK
6
CONTINUOUS
10
0.454324
20
1.23968
11
0.454324
21
1.24906
0
LINE
8
BLACK
6
CONTINUOUS
10
0.454324
20
1.24906
11
0.454391
21
1.24944
0
LINE
8
BLACK
6
CONTINUOUS
10
0.454391
20
1.24944
11
0.454368
21
1.24957
0
LINE
8
BLACK
6
CONTINUOUS
10
0.454368
20
1.24957
11
0.454434
21
1.24969
0
LINE
8
BLACK
6
CONTINUOUS
10
0.454434
20
1.24969
11
0.454502
21
1.25007
0
LINE
8
BLACK
6
CONTINUOUS
10
0.454502
20
1.25007
11
0.454995
21
1.25066
0
LINE
8
BLACK
6
CONTINUOUS
10
0.454995
20
1.25066
11
0.455378
21
1.25132
0
LINE
8
BLACK
6
CONTINUOUS
10
0.455378
20
1.25132
11
0.455629
21
1.25141
0
LINE
8
BLACK
6
CONTINUOUS
10
0.455629
20
1.25141
11
0.4558
21
1.25162
0
LINE
8
BLACK
6
CONTINUOUS
10
0.4558
20
1.25162
11
0.456556
21
1.25175
0
LINE
8
BLACK
6
CONTINUOUS
10
0.456556
20
1.25175
11
0.457276
21
1.25201
0
LINE
8
BLACK
6
CONTINUOUS
10
0.457276
20
1.25201
11
0.496646
21
1.25201
0
LINE
8
BLACK
6
CONTINUOUS
10
0.496646
20
1.25201
11
0.49703
21
1.25194
0
LINE
8
BLACK
6
CONTINUOUS
10
0.460229
20
1.24016
11
0.461732
21
1.23566
0
LINE
8
BLACK
6
CONTINUOUS
10
0.461732
20
1.23566
11
0.46465
21
1.23274
0
LINE
8
BLACK
6
CONTINUOUS
10
0.46465
20
1.23274
11
0.467681
21
1.23122
0
LINE
8
BLACK
6
CONTINUOUS
10
0.467681
20
1.23122
11
0.474513
21
1.22951
0
LINE
8
BLACK
6
CONTINUOUS
10
0.474513
20
1.22951
11
0.47941
21
1.22951
0
LINE
8
BLACK
6
CONTINUOUS
10
0.47941
20
1.22951
11
0.486242
21
1.23122
0
LINE
8
BLACK
6
CONTINUOUS
10
0.486242
20
1.23122
11
0.489273
21
1.23274
0
LINE
8
BLACK
6
CONTINUOUS
10
0.489273
20
1.23274
11
0.492191
21
1.23566
0
LINE
8
BLACK
6
CONTINUOUS
10
0.492191
20
1.23566
11
0.493694
21
1.24016
0
LINE
8
BLACK
6
CONTINUOUS
10
0.493694
20
1.24016
11
0.493694
21
1.24611
0
LINE
8
BLACK
6
CONTINUOUS
10
0.493694
20
1.24611
11
0.460229
21
1.24611
0
LINE
8
BLACK
6
CONTINUOUS
10
0.460229
20
1.24611
11
0.460229
21
1.24016
0
CIRCLE
8
BLACK
10
0.6
20
1.4
40
0.00688976
0
CIRCLE
8
BLACK
10
0.6
20
0.2
40
0.00688976
0
CIRCLE
8
BLACK
10
0.2
20
0.2
40
0.00688976
0
CIRCLE
8
BLACK
10
0.2
20
1.4
40
0.00688976
0
CIRCLE
8
BLACK
10
0.62
20
1.165
40
0.00688976
0
CIRCLE
8
BLACK
10
0.72
20
1.165
40
0.00688976
0
CIRCLE
8
BLACK
10
0.62
20
1.065
40
0.00688976
0
CIRCLE
8
BLACK
10
0.72
20
1.065
40
0.00688976
0
CIRCLE
8
BLACK
10
0.62
20
0.965
40
0.00688976
0
CIRCLE
8
BLACK
10
0.72
20
0.965
40
0.00688976
0
CIRCLE
8
BLACK
10
0.1
20
0.885
40
0.00688976
0
CIRCLE
8
BLACK
10
0.1
20
0.985
40
0.00688976
0
CIRCLE
8
BLACK
10
0.62
20
0.7
40
0.00688976
0
CIRCLE
8
BLACK
10
0.72
20
0.7
40
0.00688976
0
CIRCLE
8
BLACK
10
0.62
20
0.6
40
0.00688976
0
CIRCLE
8
BLACK
10
0.72
20
0.6
40
0.00688976
0
CIRCLE
8
BLACK
10
0.62
20
0.5
40
0.00688976
0
CIRCLE
8
BLACK
10
0.72
20
0.5
40
0.00688976
0
CIRCLE
8
BLACK
10
0.62
20
0.4
40
0.00688976
0
CIRCLE
8
BLACK
10
0.72
20
0.4
40
0.00688976
  0
ENDSEC
  0
EOF
