<?xml version='1.0' encoding='ASCII' standalone='yes'?>
<svg xmlns:svg="http://www.w3.org/2000/svg" xmlns="http://www.w3.org/2000/svg" xmlns:xlink="http://www.w3.org/1999/xlink" version="1.1" width="297.0022mm" height="210.0072mm" viewBox="0.0000 0.0000 297.0022 210.0072">
<title>SVG Image created as STEPUPDC02-B_Fab.svg date 2023/09/11 00:51:50 </title>
  <desc>Image generated by PCBNEW </desc>
<g style="fill:#000084; fill-opacity:1.0000;stroke:#000084; stroke-opacity:1.0000; stroke-linecap:round; stroke-linejoin:round;" transform="translate(0 0) scale(1 1)">
</g>
<g style="fill:#000084; fill-opacity:0.0;  stroke:#000084; stroke-width:0.0000; stroke-opacity:1;  stroke-linecap:round; stroke-linejoin:round;">
</g>
<g style="fill:#000084; fill-opacity:0.0;  stroke:#000084; stroke-width:0.7820; stroke-opacity:1;  stroke-linecap:round; stroke-linejoin:round;">
<g transform="rotate(-90.000000 126.2405 116.9211)">
<text x="126.2405" y="119.5277" transform="scale(-1 1) translate(-252.481069 0)" textLength="11.4816" font-size="6.9510" lengthAdjust="spacingAndGlyphs" text-anchor="middle" opacity="0.01" style="font-family:monospace">D1</text>
</g>
<g class="stroked-text"><desc>D1</desc>
<path d="M123.8695 113.0732 L129.0827 113.0732 "/>
<path d="M129.0827 113.0732 L129.0827 114.3145 "/>
<path d="M129.0827 114.3145 L128.8344 115.0592 "/>
<path d="M128.8344 115.0592 L128.3379 115.5557 "/>
<path d="M128.3379 115.5557 L127.8414 115.8040 "/>
<path d="M127.8414 115.8040 L126.8485 116.0522 "/>
<path d="M126.8485 116.0522 L126.1037 116.0522 "/>
<path d="M126.1037 116.0522 L125.1107 115.8040 "/>
<path d="M125.1107 115.8040 L124.6142 115.5557 "/>
<path d="M124.6142 115.5557 L124.1177 115.0592 "/>
<path d="M124.1177 115.0592 L123.8695 114.3145 "/>
<path d="M123.8695 114.3145 L123.8695 113.0732 "/>
<path d="M123.8695 121.0172 L123.8695 118.0382 "/>
<path d="M123.8695 119.5277 L129.0827 119.5277 "/>
<path d="M129.0827 119.5277 L128.3379 119.0312 "/>
<path d="M128.3379 119.0312 L127.8414 118.5347 "/>
<path d="M127.8414 118.5347 L127.5932 118.0382 "/>
</g></g>
<g style="fill:#000084; fill-opacity:0.0;  stroke:#000084; stroke-width:0.5694; stroke-opacity:1;  stroke-linecap:round; stroke-linejoin:round;">
<g transform="rotate(-90.000000 185.2467 61.3062)">
<text x="185.2467" y="62.6105" transform="scale(-1 1) translate(-370.493333 0)" textLength="6.2794" font-size="3.4781" lengthAdjust="spacingAndGlyphs" text-anchor="middle" opacity="0.01" style="font-family:monospace">R1</text>
</g>
<g class="stroked-text"><desc>R1</desc>
<path d="M184.0695 60.8714 L185.3117 60.0019 "/>
<path d="M184.0695 59.3808 L186.6781 59.3808 "/>
<path d="M186.6781 59.3808 L186.6781 60.3745 "/>
<path d="M186.6781 60.3745 L186.5539 60.6230 "/>
<path d="M186.5539 60.6230 L186.4297 60.7472 "/>
<path d="M186.4297 60.7472 L186.1812 60.8714 "/>
<path d="M186.1812 60.8714 L185.8086 60.8714 "/>
<path d="M185.8086 60.8714 L185.5601 60.7472 "/>
<path d="M185.5601 60.7472 L185.4359 60.6230 "/>
<path d="M185.4359 60.6230 L185.3117 60.3745 "/>
<path d="M185.3117 60.3745 L185.3117 59.3808 "/>
<path d="M184.0695 63.3558 L184.0695 61.8652 "/>
<path d="M184.0695 62.6105 L186.6781 62.6105 "/>
<path d="M186.6781 62.6105 L186.3054 62.3620 "/>
<path d="M186.3054 62.3620 L186.0570 62.1136 "/>
<path d="M186.0570 62.1136 L185.9328 61.8652 "/>
</g><g transform="rotate(-90.000000 181.6052 61.9683)">
<text x="181.6052" y="63.2726" transform="scale(-1 1) translate(-363.210428 0)" textLength="8.2669" font-size="3.4781" lengthAdjust="spacingAndGlyphs" text-anchor="middle" opacity="0.01" style="font-family:monospace">10k</text>
</g>
<g class="stroked-text"><desc>10k</desc>
<path d="M180.4280 60.4155 L180.4280 58.9249 "/>
<path d="M180.4280 59.6702 L183.0366 59.6702 "/>
<path d="M183.0366 59.6702 L182.6640 59.4218 "/>
<path d="M182.6640 59.4218 L182.4155 59.1733 "/>
<path d="M182.4155 59.1733 L182.2913 58.9249 "/>
<path d="M183.0366 62.0304 L183.0366 62.2788 "/>
<path d="M183.0366 62.2788 L182.9124 62.5272 "/>
<path d="M182.9124 62.5272 L182.7882 62.6515 "/>
<path d="M182.7882 62.6515 L182.5398 62.7757 "/>
<path d="M182.5398 62.7757 L182.0429 62.8999 "/>
<path d="M182.0429 62.8999 L181.4218 62.8999 "/>
<path d="M181.4218 62.8999 L180.9249 62.7757 "/>
<path d="M180.9249 62.7757 L180.6765 62.6515 "/>
<path d="M180.6765 62.6515 L180.5523 62.5272 "/>
<path d="M180.5523 62.5272 L180.4280 62.2788 "/>
<path d="M180.4280 62.2788 L180.4280 62.0304 "/>
<path d="M180.4280 62.0304 L180.5523 61.7819 "/>
<path d="M180.5523 61.7819 L180.6765 61.6577 "/>
<path d="M180.6765 61.6577 L180.9249 61.5335 "/>
<path d="M180.9249 61.5335 L181.4218 61.4093 "/>
<path d="M181.4218 61.4093 L182.0429 61.4093 "/>
<path d="M182.0429 61.4093 L182.5398 61.5335 "/>
<path d="M182.5398 61.5335 L182.7882 61.6577 "/>
<path d="M182.7882 61.6577 L182.9124 61.7819 "/>
<path d="M182.9124 61.7819 L183.0366 62.0304 "/>
<path d="M180.4280 64.0179 L183.0366 64.0179 "/>
<path d="M181.4218 64.2663 L180.4280 65.0116 "/>
<path d="M182.1671 65.0116 L181.1734 64.0179 "/>
</g></g>
<g style="fill:#000084; fill-opacity:0.01;  stroke:#000084; stroke-width:0.3910; stroke-opacity:1;  stroke-linecap:round; stroke-linejoin:round;">
<text x="168.0195" y="88.6757" transform="scale(-1 1) translate(-336.038986 0)" textLength="5.8649" font-size="3.4755" lengthAdjust="spacingAndGlyphs" text-anchor="middle" opacity="0.01" style="font-family:monospace">U1</text>
<g class="stroked-text"><desc>U1</desc>
<path d="M166.0335 85.9513 L166.0335 88.0614 "/>
<path d="M166.0335 88.0614 L166.1576 88.3097 "/>
<path d="M166.1576 88.3097 L166.2817 88.4338 "/>
<path d="M166.2817 88.4338 L166.5300 88.5579 "/>
<path d="M166.5300 88.5579 L167.0265 88.5579 "/>
<path d="M167.0265 88.5579 L167.2747 88.4338 "/>
<path d="M167.2747 88.4338 L167.3989 88.3097 "/>
<path d="M167.3989 88.3097 L167.5230 88.0614 "/>
<path d="M167.5230 88.0614 L167.5230 85.9513 "/>
<path d="M170.1296 88.5579 L168.6401 88.5579 "/>
<path d="M169.3849 88.5579 L169.3849 85.9513 "/>
<path d="M169.3849 85.9513 L169.1366 86.3237 "/>
<path d="M169.1366 86.3237 L168.8884 86.5720 "/>
<path d="M168.8884 86.5720 L168.6401 86.6961 "/>
</g></g>
<g style="fill:#000084; fill-opacity:0.0;  stroke:#000084; stroke-width:0.7820; stroke-opacity:1;  stroke-linecap:round; stroke-linejoin:round;">
<g transform="rotate(-90.000000 138.0746 49.3887)">
<text x="138.0746" y="51.9953" transform="scale(-1 1) translate(-276.149209 0)" textLength="11.4816" font-size="6.9510" lengthAdjust="spacingAndGlyphs" text-anchor="middle" opacity="0.01" style="font-family:monospace">D2</text>
</g>
<g class="stroked-text"><desc>D2</desc>
<path d="M135.7035 45.5408 L140.9168 45.5408 "/>
<path d="M140.9168 45.5408 L140.9168 46.7821 "/>
<path d="M140.9168 46.7821 L140.6685 47.5268 "/>
<path d="M140.6685 47.5268 L140.1720 48.0233 "/>
<path d="M140.1720 48.0233 L139.6755 48.2716 "/>
<path d="M139.6755 48.2716 L138.6825 48.5198 "/>
<path d="M138.6825 48.5198 L137.9378 48.5198 "/>
<path d="M137.9378 48.5198 L136.9448 48.2716 "/>
<path d="M136.9448 48.2716 L136.4483 48.0233 "/>
<path d="M136.4483 48.0233 L135.9518 47.5268 "/>
<path d="M135.9518 47.5268 L135.7035 46.7821 "/>
<path d="M135.7035 46.7821 L135.7035 45.5408 "/>
<path d="M140.4203 50.5058 L140.6685 50.7541 "/>
<path d="M140.6685 50.7541 L140.9168 51.2506 "/>
<path d="M140.9168 51.2506 L140.9168 52.4918 "/>
<path d="M140.9168 52.4918 L140.6685 52.9883 "/>
<path d="M140.6685 52.9883 L140.4203 53.2366 "/>
<path d="M140.4203 53.2366 L139.9238 53.4848 "/>
<path d="M139.9238 53.4848 L139.4273 53.4848 "/>
<path d="M139.4273 53.4848 L138.6825 53.2366 "/>
<path d="M138.6825 53.2366 L135.7035 50.2576 "/>
<path d="M135.7035 50.2576 L135.7035 53.4848 "/>
</g></g>
<g style="fill:#000084; fill-opacity:0.0;  stroke:#000084; stroke-width:0.5694; stroke-opacity:1;  stroke-linecap:round; stroke-linejoin:round;">
<g transform="rotate(-90.000000 183.9225 127.8454)">
<text x="183.9225" y="129.1497" transform="scale(-1 1) translate(-367.845004 0)" textLength="6.2794" font-size="3.4781" lengthAdjust="spacingAndGlyphs" text-anchor="middle" opacity="0.01" style="font-family:monospace">C1</text>
</g>
<g class="stroked-text"><desc>C1</desc>
<path d="M182.9938 127.4107 L182.8695 127.2865 "/>
<path d="M182.8695 127.2865 L182.7453 126.9138 "/>
<path d="M182.7453 126.9138 L182.7453 126.6654 "/>
<path d="M182.7453 126.6654 L182.8695 126.2927 "/>
<path d="M182.8695 126.2927 L183.1180 126.0443 "/>
<path d="M183.1180 126.0443 L183.3664 125.9200 "/>
<path d="M183.3664 125.9200 L183.8633 125.7958 "/>
<path d="M183.8633 125.7958 L184.2360 125.7958 "/>
<path d="M184.2360 125.7958 L184.7328 125.9200 "/>
<path d="M184.7328 125.9200 L184.9813 126.0443 "/>
<path d="M184.9813 126.0443 L185.2297 126.2927 "/>
<path d="M185.2297 126.2927 L185.3539 126.6654 "/>
<path d="M185.3539 126.6654 L185.3539 126.9138 "/>
<path d="M185.3539 126.9138 L185.2297 127.2865 "/>
<path d="M185.2297 127.2865 L185.1055 127.4107 "/>
<path d="M182.7453 129.8951 L182.7453 128.4044 "/>
<path d="M182.7453 129.1497 L185.3539 129.1497 "/>
<path d="M185.3539 129.1497 L184.9813 128.9013 "/>
<path d="M184.9813 128.9013 L184.7328 128.6529 "/>
<path d="M184.7328 128.6529 L184.6086 128.4044 "/>
</g><g transform="rotate(-90.000000 187.5640 127.1834)">
<text x="187.5640" y="128.4877" transform="scale(-1 1) translate(-375.127909 0)" textLength="8.5154" font-size="3.4781" lengthAdjust="spacingAndGlyphs" text-anchor="middle" opacity="0.01" style="font-family:monospace">22p</text>
</g>
<g class="stroked-text"><desc>22p</desc>
<path d="M188.7469 124.0158 L188.8712 124.1400 "/>
<path d="M188.8712 124.1400 L188.9954 124.3884 "/>
<path d="M188.9954 124.3884 L188.9954 125.0095 "/>
<path d="M188.9954 125.0095 L188.8712 125.2580 "/>
<path d="M188.8712 125.2580 L188.7469 125.3822 "/>
<path d="M188.7469 125.3822 L188.4985 125.5064 "/>
<path d="M188.4985 125.5064 L188.2501 125.5064 "/>
<path d="M188.2501 125.5064 L187.8774 125.3822 "/>
<path d="M187.8774 125.3822 L186.3868 123.8916 "/>
<path d="M186.3868 123.8916 L186.3868 125.5064 "/>
<path d="M188.7469 126.5002 L188.8712 126.6244 "/>
<path d="M188.8712 126.6244 L188.9954 126.8728 "/>
<path d="M188.9954 126.8728 L188.9954 127.4939 "/>
<path d="M188.9954 127.4939 L188.8712 127.7424 "/>
<path d="M188.8712 127.7424 L188.7469 127.8666 "/>
<path d="M188.7469 127.8666 L188.4985 127.9908 "/>
<path d="M188.4985 127.9908 L188.2501 127.9908 "/>
<path d="M188.2501 127.9908 L187.8774 127.8666 "/>
<path d="M187.8774 127.8666 L186.3868 126.3759 "/>
<path d="M186.3868 126.3759 L186.3868 127.9908 "/>
<path d="M188.1258 129.1088 L185.5172 129.1088 "/>
<path d="M188.0016 129.1088 L188.1258 129.3572 "/>
<path d="M188.1258 129.3572 L188.1258 129.8541 "/>
<path d="M188.1258 129.8541 L188.0016 130.1025 "/>
<path d="M188.0016 130.1025 L187.8774 130.2267 "/>
<path d="M187.8774 130.2267 L187.6290 130.3510 "/>
<path d="M187.6290 130.3510 L186.8837 130.3510 "/>
<path d="M186.8837 130.3510 L186.6352 130.2267 "/>
<path d="M186.6352 130.2267 L186.5110 130.1025 "/>
<path d="M186.5110 130.1025 L186.3868 129.8541 "/>
<path d="M186.3868 129.8541 L186.3868 129.3572 "/>
<path d="M186.3868 129.3572 L186.5110 129.1088 "/>
</g><g transform="rotate(-90.000000 159.4255 127.8454)">
<text x="159.4255" y="129.1497" transform="scale(-1 1) translate(-318.850912 0)" textLength="6.2794" font-size="3.4781" lengthAdjust="spacingAndGlyphs" text-anchor="middle" opacity="0.01" style="font-family:monospace">C2</text>
</g>
<g class="stroked-text"><desc>C2</desc>
<path d="M158.4967 127.4107 L158.3725 127.2865 "/>
<path d="M158.3725 127.2865 L158.2483 126.9138 "/>
<path d="M158.2483 126.9138 L158.2483 126.6654 "/>
<path d="M158.2483 126.6654 L158.3725 126.2927 "/>
<path d="M158.3725 126.2927 L158.6209 126.0443 "/>
<path d="M158.6209 126.0443 L158.8694 125.9200 "/>
<path d="M158.8694 125.9200 L159.3662 125.7958 "/>
<path d="M159.3662 125.7958 L159.7389 125.7958 "/>
<path d="M159.7389 125.7958 L160.2358 125.9200 "/>
<path d="M160.2358 125.9200 L160.4842 126.0443 "/>
<path d="M160.4842 126.0443 L160.7327 126.2927 "/>
<path d="M160.7327 126.2927 L160.8569 126.6654 "/>
<path d="M160.8569 126.6654 L160.8569 126.9138 "/>
<path d="M160.8569 126.9138 L160.7327 127.2865 "/>
<path d="M160.7327 127.2865 L160.6084 127.4107 "/>
<path d="M160.6084 128.4044 L160.7327 128.5287 "/>
<path d="M160.7327 128.5287 L160.8569 128.7771 "/>
<path d="M160.8569 128.7771 L160.8569 129.3982 "/>
<path d="M160.8569 129.3982 L160.7327 129.6466 "/>
<path d="M160.7327 129.6466 L160.6084 129.7708 "/>
<path d="M160.6084 129.7708 L160.3600 129.8951 "/>
<path d="M160.3600 129.8951 L160.1116 129.8951 "/>
<path d="M160.1116 129.8951 L159.7389 129.7708 "/>
<path d="M159.7389 129.7708 L158.2483 128.2802 "/>
<path d="M158.2483 128.2802 L158.2483 129.8951 "/>
</g><g transform="rotate(-90.000000 163.0669 127.1834)">
<text x="163.0669" y="128.4877" transform="scale(-1 1) translate(-326.133818 0)" textLength="18.2045" font-size="3.4781" lengthAdjust="spacingAndGlyphs" text-anchor="middle" opacity="0.01" style="font-family:monospace">1uF/50V</text>
</g>
<g class="stroked-text"><desc>1uF/50V</desc>
<path d="M161.8897 120.6619 L161.8897 119.1712 "/>
<path d="M161.8897 119.9165 L164.4983 119.9165 "/>
<path d="M164.4983 119.9165 L164.1257 119.6681 "/>
<path d="M164.1257 119.6681 L163.8772 119.4197 "/>
<path d="M163.8772 119.4197 L163.7530 119.1712 "/>
<path d="M163.6288 122.8978 L161.8897 122.8978 "/>
<path d="M163.6288 121.7798 L162.2624 121.7798 "/>
<path d="M162.2624 121.7798 L162.0139 121.9040 "/>
<path d="M162.0139 121.9040 L161.8897 122.1525 "/>
<path d="M161.8897 122.1525 L161.8897 122.5251 "/>
<path d="M161.8897 122.5251 L162.0139 122.7736 "/>
<path d="M162.0139 122.7736 L162.1382 122.8978 "/>
<path d="M163.2561 125.0095 L163.2561 124.1400 "/>
<path d="M161.8897 124.1400 L164.4983 124.1400 "/>
<path d="M164.4983 124.1400 L164.4983 125.3822 "/>
<path d="M164.6226 128.2392 L161.2686 126.0033 "/>
<path d="M164.4983 130.3510 L164.4983 129.1088 "/>
<path d="M164.4983 129.1088 L163.2561 128.9845 "/>
<path d="M163.2561 128.9845 L163.3804 129.1088 "/>
<path d="M163.3804 129.1088 L163.5046 129.3572 "/>
<path d="M163.5046 129.3572 L163.5046 129.9783 "/>
<path d="M163.5046 129.9783 L163.3804 130.2267 "/>
<path d="M163.3804 130.2267 L163.2561 130.3510 "/>
<path d="M163.2561 130.3510 L163.0077 130.4752 "/>
<path d="M163.0077 130.4752 L162.3866 130.4752 "/>
<path d="M162.3866 130.4752 L162.1382 130.3510 "/>
<path d="M162.1382 130.3510 L162.0139 130.2267 "/>
<path d="M162.0139 130.2267 L161.8897 129.9783 "/>
<path d="M161.8897 129.9783 L161.8897 129.3572 "/>
<path d="M161.8897 129.3572 L162.0139 129.1088 "/>
<path d="M162.0139 129.1088 L162.1382 128.9845 "/>
<path d="M164.4983 132.0900 L164.4983 132.3385 "/>
<path d="M164.4983 132.3385 L164.3741 132.5869 "/>
<path d="M164.3741 132.5869 L164.2499 132.7111 "/>
<path d="M164.2499 132.7111 L164.0015 132.8353 "/>
<path d="M164.0015 132.8353 L163.5046 132.9596 "/>
<path d="M163.5046 132.9596 L162.8835 132.9596 "/>
<path d="M162.8835 132.9596 L162.3866 132.8353 "/>
<path d="M162.3866 132.8353 L162.1382 132.7111 "/>
<path d="M162.1382 132.7111 L162.0139 132.5869 "/>
<path d="M162.0139 132.5869 L161.8897 132.3385 "/>
<path d="M161.8897 132.3385 L161.8897 132.0900 "/>
<path d="M161.8897 132.0900 L162.0139 131.8416 "/>
<path d="M162.0139 131.8416 L162.1382 131.7174 "/>
<path d="M162.1382 131.7174 L162.3866 131.5932 "/>
<path d="M162.3866 131.5932 L162.8835 131.4689 "/>
<path d="M162.8835 131.4689 L163.5046 131.4689 "/>
<path d="M163.5046 131.4689 L164.0015 131.5932 "/>
<path d="M164.0015 131.5932 L164.2499 131.7174 "/>
<path d="M164.2499 131.7174 L164.3741 131.8416 "/>
<path d="M164.3741 131.8416 L164.4983 132.0900 "/>
<path d="M164.4983 133.7049 L161.8897 134.5744 "/>
<path d="M161.8897 134.5744 L164.4983 135.4439 "/>
</g></g>
<g style="fill:#000084; fill-opacity:0.01;  stroke:#000084; stroke-width:1.5640; stroke-opacity:1;  stroke-linecap:round; stroke-linejoin:round;">
<text x="153.7448" y="153.9977" transform="scale(-1 1) translate(-307.489579 0)" textLength="18.6146" font-size="10.5933" lengthAdjust="spacingAndGlyphs" text-anchor="middle" opacity="0.01" style="font-family:monospace">C5</text>
<g class="stroked-text"><desc>C5</desc>
<path d="M152.4206 152.8627 L152.0423 153.2410 "/>
<path d="M152.0423 153.2410 L150.9073 153.6194 "/>
<path d="M150.9073 153.6194 L150.1506 153.6194 "/>
<path d="M150.1506 153.6194 L149.0156 153.2410 "/>
<path d="M149.0156 153.2410 L148.2590 152.4844 "/>
<path d="M148.2590 152.4844 L147.8806 151.7277 "/>
<path d="M147.8806 151.7277 L147.5023 150.2144 "/>
<path d="M147.5023 150.2144 L147.5023 149.0794 "/>
<path d="M147.5023 149.0794 L147.8806 147.5661 "/>
<path d="M147.8806 147.5661 L148.2590 146.8094 "/>
<path d="M148.2590 146.8094 L149.0156 146.0527 "/>
<path d="M149.0156 146.0527 L150.1506 145.6744 "/>
<path d="M150.1506 145.6744 L150.9073 145.6744 "/>
<path d="M150.9073 145.6744 L152.0423 146.0527 "/>
<path d="M152.0423 146.0527 L152.4206 146.4311 "/>
<path d="M159.6090 145.6744 L155.8256 145.6744 "/>
<path d="M155.8256 145.6744 L155.4473 149.4577 "/>
<path d="M155.4473 149.4577 L155.8256 149.0794 "/>
<path d="M155.8256 149.0794 L156.5823 148.7011 "/>
<path d="M156.5823 148.7011 L158.4740 148.7011 "/>
<path d="M158.4740 148.7011 L159.2306 149.0794 "/>
<path d="M159.2306 149.0794 L159.6090 149.4577 "/>
<path d="M159.6090 149.4577 L159.9873 150.2144 "/>
<path d="M159.9873 150.2144 L159.9873 152.1060 "/>
<path d="M159.9873 152.1060 L159.6090 152.8627 "/>
<path d="M159.6090 152.8627 L159.2306 153.2410 "/>
<path d="M159.2306 153.2410 L158.4740 153.6194 "/>
<path d="M158.4740 153.6194 L156.5823 153.6194 "/>
<path d="M156.5823 153.6194 L155.8256 153.2410 "/>
<path d="M155.8256 153.2410 L155.4473 152.8627 "/>
</g></g>
<g style="fill:#000084; fill-opacity:0.01;  stroke:#000084; stroke-width:0.7820; stroke-opacity:1;  stroke-linecap:round; stroke-linejoin:round;">
<text x="127.1291" y="140.6935" transform="scale(-1 1) translate(-254.258161 0)" textLength="10.4637" font-size="10.4265" lengthAdjust="spacingAndGlyphs" text-anchor="middle" opacity="0.01" style="font-family:monospace">+</text>
<g class="stroked-text"><desc>+</desc>
<path d="M124.1501 137.3815 L130.1081 137.3815 "/>
<path d="M127.1291 140.3605 L127.1291 134.4025 "/>
</g></g>
<g style="fill:#000084; fill-opacity:0.01;  stroke:#000084; stroke-width:0.5694; stroke-opacity:1;  stroke-linecap:round; stroke-linejoin:round;">
<g transform="rotate(-90.000000 172.0050 127.8454)">
<text x="172.0050" y="129.1497" transform="scale(-1 1) translate(-344.010040 0)" textLength="6.2794" font-size="3.4781" lengthAdjust="spacingAndGlyphs" text-anchor="middle" opacity="0.01" style="font-family:monospace">R2</text>
</g>
<g class="stroked-text"><desc>R2</desc>
<path d="M170.8278 127.4107 L172.0700 126.5411 "/>
<path d="M170.8278 125.9200 L173.4364 125.9200 "/>
<path d="M173.4364 125.9200 L173.4364 126.9138 "/>
<path d="M173.4364 126.9138 L173.3122 127.1622 "/>
<path d="M173.3122 127.1622 L173.1880 127.2865 "/>
<path d="M173.1880 127.2865 L172.9396 127.4107 "/>
<path d="M172.9396 127.4107 L172.5669 127.4107 "/>
<path d="M172.5669 127.4107 L172.3185 127.2865 "/>
<path d="M172.3185 127.2865 L172.1943 127.1622 "/>
<path d="M172.1943 127.1622 L172.0700 126.9138 "/>
<path d="M172.0700 126.9138 L172.0700 125.9200 "/>
<path d="M173.1880 128.4044 L173.3122 128.5287 "/>
<path d="M173.3122 128.5287 L173.4364 128.7771 "/>
<path d="M173.4364 128.7771 L173.4364 129.3982 "/>
<path d="M173.4364 129.3982 L173.3122 129.6466 "/>
<path d="M173.3122 129.6466 L173.1880 129.7708 "/>
<path d="M173.1880 129.7708 L172.9396 129.8951 "/>
<path d="M172.9396 129.8951 L172.6911 129.8951 "/>
<path d="M172.6911 129.8951 L172.3185 129.7708 "/>
<path d="M172.3185 129.7708 L170.8278 128.2802 "/>
<path d="M170.8278 128.2802 L170.8278 129.8951 "/>
</g><g transform="rotate(-90.000000 175.6465 127.1834)">
<text x="175.6465" y="128.4877" transform="scale(-1 1) translate(-351.292946 0)" textLength="10.7513" font-size="3.4781" lengthAdjust="spacingAndGlyphs" text-anchor="middle" opacity="0.01" style="font-family:monospace">470k</text>
</g>
<g class="stroked-text"><desc>470k</desc>
<path d="M176.2084 124.1400 L174.4693 124.1400 "/>
<path d="M177.2021 123.5189 L175.3388 122.8978 "/>
<path d="M175.3388 122.8978 L175.3388 124.5127 "/>
<path d="M177.0779 125.2580 L177.0779 126.9970 "/>
<path d="M177.0779 126.9970 L174.4693 125.8791 "/>
<path d="M177.0779 128.4877 L177.0779 128.7361 "/>
<path d="M177.0779 128.7361 L176.9537 128.9845 "/>
<path d="M176.9537 128.9845 L176.8295 129.1088 "/>
<path d="M176.8295 129.1088 L176.5810 129.2330 "/>
<path d="M176.5810 129.2330 L176.0841 129.3572 "/>
<path d="M176.0841 129.3572 L175.4631 129.3572 "/>
<path d="M175.4631 129.3572 L174.9662 129.2330 "/>
<path d="M174.9662 129.2330 L174.7177 129.1088 "/>
<path d="M174.7177 129.1088 L174.5935 128.9845 "/>
<path d="M174.5935 128.9845 L174.4693 128.7361 "/>
<path d="M174.4693 128.7361 L174.4693 128.4877 "/>
<path d="M174.4693 128.4877 L174.5935 128.2392 "/>
<path d="M174.5935 128.2392 L174.7177 128.1150 "/>
<path d="M174.7177 128.1150 L174.9662 127.9908 "/>
<path d="M174.9662 127.9908 L175.4631 127.8666 "/>
<path d="M175.4631 127.8666 L176.0841 127.8666 "/>
<path d="M176.0841 127.8666 L176.5810 127.9908 "/>
<path d="M176.5810 127.9908 L176.8295 128.1150 "/>
<path d="M176.8295 128.1150 L176.9537 128.2392 "/>
<path d="M176.9537 128.2392 L177.0779 128.4877 "/>
<path d="M174.4693 130.4752 L177.0779 130.4752 "/>
<path d="M175.4631 130.7236 L174.4693 131.4689 "/>
<path d="M176.2084 131.4689 L175.2146 130.4752 "/>
</g><text x="166.7084" y="115.2460" transform="scale(-1 1) translate(-333.416723 0)" textLength="6.2794" font-size="3.4781" lengthAdjust="spacingAndGlyphs" text-anchor="middle" opacity="0.01" style="font-family:monospace">R4</text>
<g class="stroked-text"><desc>R4</desc>
<path d="M166.2736 115.1189 L165.4041 113.8767 "/>
<path d="M164.7830 115.1189 L164.7830 112.5103 "/>
<path d="M164.7830 112.5103 L165.7767 112.5103 "/>
<path d="M165.7767 112.5103 L166.0252 112.6345 "/>
<path d="M166.0252 112.6345 L166.1494 112.7587 "/>
<path d="M166.1494 112.7587 L166.2736 113.0072 "/>
<path d="M166.2736 113.0072 L166.2736 113.3798 "/>
<path d="M166.2736 113.3798 L166.1494 113.6283 "/>
<path d="M166.1494 113.6283 L166.0252 113.7525 "/>
<path d="M166.0252 113.7525 L165.7767 113.8767 "/>
<path d="M165.7767 113.8767 L164.7830 113.8767 "/>
<path d="M168.5095 113.3798 L168.5095 115.1189 "/>
<path d="M167.8884 112.3861 L167.2674 114.2494 "/>
<path d="M167.2674 114.2494 L168.8822 114.2494 "/>
</g><text x="166.0463" y="111.6046" transform="scale(-1 1) translate(-332.092558 0)" textLength="10.7513" font-size="3.4781" lengthAdjust="spacingAndGlyphs" text-anchor="middle" opacity="0.01" style="font-family:monospace">120k</text>
<g class="stroked-text"><desc>120k</desc>
<path d="M163.2513 111.4774 L161.7607 111.4774 "/>
<path d="M162.5060 111.4774 L162.5060 108.8688 "/>
<path d="M162.5060 108.8688 L162.2576 109.2415 "/>
<path d="M162.2576 109.2415 L162.0092 109.4899 "/>
<path d="M162.0092 109.4899 L161.7607 109.6142 "/>
<path d="M164.2451 109.1173 L164.3693 108.9931 "/>
<path d="M164.3693 108.9931 L164.6178 108.8688 "/>
<path d="M164.6178 108.8688 L165.2389 108.8688 "/>
<path d="M165.2389 108.8688 L165.4873 108.9931 "/>
<path d="M165.4873 108.9931 L165.6115 109.1173 "/>
<path d="M165.6115 109.1173 L165.7357 109.3657 "/>
<path d="M165.7357 109.3657 L165.7357 109.6142 "/>
<path d="M165.7357 109.6142 L165.6115 109.9868 "/>
<path d="M165.6115 109.9868 L164.1209 111.4774 "/>
<path d="M164.1209 111.4774 L165.7357 111.4774 "/>
<path d="M167.3506 108.8688 L167.5990 108.8688 "/>
<path d="M167.5990 108.8688 L167.8475 108.9931 "/>
<path d="M167.8475 108.9931 L167.9717 109.1173 "/>
<path d="M167.9717 109.1173 L168.0959 109.3657 "/>
<path d="M168.0959 109.3657 L168.2201 109.8626 "/>
<path d="M168.2201 109.8626 L168.2201 110.4837 "/>
<path d="M168.2201 110.4837 L168.0959 110.9806 "/>
<path d="M168.0959 110.9806 L167.9717 111.2290 "/>
<path d="M167.9717 111.2290 L167.8475 111.3532 "/>
<path d="M167.8475 111.3532 L167.5990 111.4774 "/>
<path d="M167.5990 111.4774 L167.3506 111.4774 "/>
<path d="M167.3506 111.4774 L167.1021 111.3532 "/>
<path d="M167.1021 111.3532 L166.9779 111.2290 "/>
<path d="M166.9779 111.2290 L166.8537 110.9806 "/>
<path d="M166.8537 110.9806 L166.7295 110.4837 "/>
<path d="M166.7295 110.4837 L166.7295 109.8626 "/>
<path d="M166.7295 109.8626 L166.8537 109.3657 "/>
<path d="M166.8537 109.3657 L166.9779 109.1173 "/>
<path d="M166.9779 109.1173 L167.1021 108.9931 "/>
<path d="M167.1021 108.9931 L167.3506 108.8688 "/>
<path d="M169.3381 111.4774 L169.3381 108.8688 "/>
<path d="M169.5865 110.4837 L170.3318 111.4774 "/>
<path d="M170.3318 109.7384 L169.3381 110.7321 "/>
</g><text x="165.3842" y="64.2657" transform="scale(-1 1) translate(-330.768394 0)" textLength="6.2794" font-size="3.4781" lengthAdjust="spacingAndGlyphs" text-anchor="middle" opacity="0.01" style="font-family:monospace">C6</text>
<g class="stroked-text"><desc>C6</desc>
<path d="M164.9494 63.8901 L164.8252 64.0143 "/>
<path d="M164.8252 64.0143 L164.4526 64.1386 "/>
<path d="M164.4526 64.1386 L164.2041 64.1386 "/>
<path d="M164.2041 64.1386 L163.8315 64.0143 "/>
<path d="M163.8315 64.0143 L163.5830 63.7659 "/>
<path d="M163.5830 63.7659 L163.4588 63.5175 "/>
<path d="M163.4588 63.5175 L163.3346 63.0206 "/>
<path d="M163.3346 63.0206 L163.3346 62.6479 "/>
<path d="M163.3346 62.6479 L163.4588 62.1510 "/>
<path d="M163.4588 62.1510 L163.5830 61.9026 "/>
<path d="M163.5830 61.9026 L163.8315 61.6542 "/>
<path d="M163.8315 61.6542 L164.2041 61.5300 "/>
<path d="M164.2041 61.5300 L164.4526 61.5300 "/>
<path d="M164.4526 61.5300 L164.8252 61.6542 "/>
<path d="M164.8252 61.6542 L164.9494 61.7784 "/>
<path d="M167.1854 61.5300 L166.6885 61.5300 "/>
<path d="M166.6885 61.5300 L166.4401 61.6542 "/>
<path d="M166.4401 61.6542 L166.3158 61.7784 "/>
<path d="M166.3158 61.7784 L166.0674 62.1510 "/>
<path d="M166.0674 62.1510 L165.9432 62.6479 "/>
<path d="M165.9432 62.6479 L165.9432 63.6417 "/>
<path d="M165.9432 63.6417 L166.0674 63.8901 "/>
<path d="M166.0674 63.8901 L166.1916 64.0143 "/>
<path d="M166.1916 64.0143 L166.4401 64.1386 "/>
<path d="M166.4401 64.1386 L166.9369 64.1386 "/>
<path d="M166.9369 64.1386 L167.1854 64.0143 "/>
<path d="M167.1854 64.0143 L167.3096 63.8901 "/>
<path d="M167.3096 63.8901 L167.4338 63.6417 "/>
<path d="M167.4338 63.6417 L167.4338 63.0206 "/>
<path d="M167.4338 63.0206 L167.3096 62.7721 "/>
<path d="M167.3096 62.7721 L167.1854 62.6479 "/>
<path d="M167.1854 62.6479 L166.9369 62.5237 "/>
<path d="M166.9369 62.5237 L166.4401 62.5237 "/>
<path d="M166.4401 62.5237 L166.1916 62.6479 "/>
<path d="M166.1916 62.6479 L166.0674 62.7721 "/>
<path d="M166.0674 62.7721 L165.9432 63.0206 "/>
</g><text x="166.0463" y="67.9071" transform="scale(-1 1) translate(-332.092558 0)" textLength="8.5154" font-size="3.4781" lengthAdjust="spacingAndGlyphs" text-anchor="middle" opacity="0.01" style="font-family:monospace">4u7</text>
<g class="stroked-text"><desc>4u7</desc>
<path d="M164.1209 66.0409 L164.1209 67.7800 "/>
<path d="M163.4998 65.0472 L162.8787 66.9105 "/>
<path d="M162.8787 66.9105 L164.4935 66.9105 "/>
<path d="M166.6053 66.0409 L166.6053 67.7800 "/>
<path d="M165.4873 66.0409 L165.4873 67.4074 "/>
<path d="M165.4873 67.4074 L165.6115 67.6558 "/>
<path d="M165.6115 67.6558 L165.8600 67.7800 "/>
<path d="M165.8600 67.7800 L166.2326 67.7800 "/>
<path d="M166.2326 67.7800 L166.4811 67.6558 "/>
<path d="M166.4811 67.6558 L166.6053 67.5316 "/>
<path d="M167.5990 65.1714 L169.3381 65.1714 "/>
<path d="M169.3381 65.1714 L168.2201 67.7800 "/>
</g></g>
<g style="fill:#000084; fill-opacity:0.0;  stroke:#000084; stroke-width:0.5213; stroke-opacity:1;  stroke-linecap:round; stroke-linejoin:round;">
<path d="M152.3068 128.9116 L131.4538 128.9116 "/>
<path d="M141.8856 120.3068 L145.7919 114.3083 "/>
<path d="M152.3068 104.9306 L152.3068 128.9116 "/>
<path d="M141.8856 114.3083 L141.8856 109.1043 "/>
<path d="M141.8856 120.3068 L141.8856 125.0076 "/>
<path d="M137.7145 120.3068 L146.0567 120.3068 "/>
<path d="M131.4538 104.9306 L131.4538 128.9116 "/>
<path d="M145.7919 114.3083 L137.7145 114.3083 "/>
<path d="M141.8856 120.3068 L137.7145 114.3083 "/>
<path d="M131.4538 104.9306 L152.3068 104.9306 "/>
</g>
<g style="fill:#000084; fill-opacity:0.0;  stroke:#000084; stroke-width:0.7820; stroke-opacity:1;  stroke-linecap:round; stroke-linejoin:round;">
<path d="M179.6190 69.2512 L179.6190 63.9545 "/>
<path d="M187.5640 63.9545 L187.5640 69.2512 "/>
<path d="M187.5640 53.3612 L187.5640 58.6578 "/>
<path d="M179.6190 53.3612 L187.5640 53.3612 "/>
<path d="M187.5640 69.2512 L179.6190 69.2512 "/>
<path d="M179.6190 58.6578 L179.6190 53.3612 "/>
</g>
<g style="fill:#000084; fill-opacity:0.0;  stroke:#000084; stroke-width:0.5213; stroke-opacity:1;  stroke-linecap:round; stroke-linejoin:round;">
<path d="M163.3276 92.0643 L159.9390 88.6757 "/>
<path d="M163.3276 92.0643 L176.1000 92.0643 "/>
<path d="M159.9390 82.6805 L159.9390 88.6757 "/>
<path d="M159.9390 82.6805 L176.1000 82.6805 "/>
<path d="M176.1000 82.6805 L176.1000 92.0643 "/>
<path d="M150.5864 48.0854 L148.5011 51.2133 "/>
<path d="M146.4158 48.0854 L150.5864 48.0854 "/>
<path d="M148.5011 51.2133 L146.4158 48.0854 "/>
<path d="M152.6717 40.7868 L152.6717 57.9905 "/>
<path d="M144.3305 57.9905 L144.3305 40.7868 "/>
<path d="M148.5011 53.2986 L148.5011 51.2133 "/>
<path d="M148.5011 51.2133 L145.6338 51.2133 "/>
<path d="M152.6717 57.9905 L144.3305 57.9905 "/>
<path d="M148.5011 51.2133 L151.3684 51.2133 "/>
<path d="M144.3305 40.7868 L152.6717 40.7868 "/>
<path d="M148.5011 48.0854 L148.5011 45.4788 "/>
</g>
<g style="fill:#000084; fill-opacity:0.0;  stroke:#000084; stroke-width:0.7820; stroke-opacity:1;  stroke-linecap:round; stroke-linejoin:round;">
<path d="M181.6052 135.7904 L181.6052 130.4938 "/>
<path d="M181.6052 125.1971 L181.6052 119.9005 "/>
<path d="M189.5502 135.7904 L181.6052 135.7904 "/>
<path d="M181.6052 119.9005 L189.5502 119.9005 "/>
<path d="M189.5502 130.4938 L189.5502 135.7904 "/>
<path d="M189.5502 119.9005 L189.5502 125.1971 "/>
<path d="M157.1082 119.9005 L165.0532 119.9005 "/>
<path d="M165.0532 119.9005 L165.0532 125.1971 "/>
<path d="M165.0532 130.4938 L165.0532 135.7904 "/>
<path d="M165.0532 135.7904 L157.1082 135.7904 "/>
<path d="M157.1082 135.7904 L157.1082 130.4938 "/>
<path d="M157.1082 125.1971 L157.1082 119.9005 "/>
<path d="M168.8535 141.1665 L137.5767 141.1665 "/>
<path d="M168.7343 158.8839 L137.4576 158.8839 "/>
<path d="M177.6327 130.4938 L177.6327 135.7904 "/>
<path d="M177.6327 135.7904 L169.6877 135.7904 "/>
<path d="M169.6877 135.7904 L169.6877 130.4938 "/>
<path d="M169.6877 119.9005 L177.6327 119.9005 "/>
<path d="M169.6877 125.1971 L169.6877 119.9005 "/>
<path d="M177.6327 119.9005 L177.6327 125.1971 "/>
<path d="M174.6533 116.2590 L169.3567 116.2590 "/>
<path d="M164.0600 116.2590 L158.7634 116.2590 "/>
<path d="M158.7634 108.3140 L164.0600 108.3140 "/>
<path d="M174.6533 108.3140 L174.6533 116.2590 "/>
<path d="M169.3567 108.3140 L174.6533 108.3140 "/>
<path d="M158.7634 116.2590 L158.7634 108.3140 "/>
<path d="M168.0325 60.6441 L173.3292 60.6441 "/>
<path d="M173.3292 60.6441 L173.3292 68.5891 "/>
<path d="M173.3292 68.5891 L168.0325 68.5891 "/>
<path d="M157.4392 60.6441 L162.7359 60.6441 "/>
<path d="M162.7359 68.5891 L157.4392 68.5891 "/>
<path d="M157.4392 68.5891 L157.4392 60.6441 "/>
<g>
</g>
<g>
</g>
<g>
</g>
<g>
</g>
<g>
</g>
<g>
</g>
<g>
</g>
<g>
</g>
<g>
</g>
<g>
</g>
<g>
</g>
<g>
</g>
<g>
</g>
<g>
</g>
<g>
</g>
<g>
</g>
<g>
</g>
<g>
</g>
<g>
</g>
<g>
</g>
<g>
</g>
</g> 
<svg:g><svg:g><svg:title>SVG Image created as STEPUPDC02-Edge_Cuts.svg date 2023/09/11 00:51:50 </svg:title>
  <svg:desc>Image generated by PCBNEW </svg:desc>
<svg:g style="fill:#C2C200; fill-opacity:1.0000;stroke:#C2C200; stroke-opacity:1.0000; stroke-linecap:round; stroke-linejoin:round;" transform="translate(0 0) scale(1 1)">
</svg:g>
<svg:g style="fill:#C2C200; fill-opacity:0.0;  stroke:#C2C200; stroke-width:0.0000; stroke-opacity:1;  stroke-linecap:round; stroke-linejoin:round;">
</svg:g>
<svg:g style="fill:#C2C200; fill-opacity:0.0;  stroke:#C2C200; stroke-width:0.7820; stroke-opacity:1;  stroke-linecap:round; stroke-linejoin:round;">
<svg:path d="M96.8587 209.6126 L96.8587 0.3946 "/>
<svg:path d="M200.1435 209.6126 L96.8587 209.6126 "/>
<svg:path d="M200.1435 209.6126 L200.1435 0.3946 "/>
<svg:path d="M200.1435 0.3946 L96.8587 0.3946 "/>
<svg:g>
</svg:g>
<svg:g>
</svg:g>
<svg:g>
</svg:g>
<svg:g>
</svg:g>
<svg:g>
</svg:g>
<svg:g>
</svg:g>
<svg:g>
</svg:g>
<svg:g>
</svg:g>
<svg:g>
</svg:g>
<svg:g>
</svg:g>
<svg:g>
</svg:g>
<svg:g>
</svg:g>
<svg:g>
</svg:g>
<svg:g>
</svg:g>
<svg:g>
</svg:g>
<svg:g>
</svg:g>
<svg:g>
</svg:g>
<svg:g>
</svg:g>
<svg:g>
</svg:g>
<svg:g>
</svg:g>
<svg:g>
</svg:g>
</svg:g> 
</svg:g></svg:g></svg>
