<?xml version='1.0' encoding='ASCII' standalone='yes'?>
<svg xmlns:svg="http://www.w3.org/2000/svg" xmlns="http://www.w3.org/2000/svg" xmlns:xlink="http://www.w3.org/1999/xlink" version="1.1" width="29.700220cm" height="21.000720cm" viewBox="0 0 2970022 2100072">
<title>SVG Picture created as STEPUPDC02-B_Fab.svg date 2023/07/05 12:11:27 </title>
  <desc>Picture generated by PCBNEW </desc>
<g style="fill:#000084; fill-opacity:1.000000;stroke:#000084; stroke-opacity:1.000000; stroke-linecap:round; stroke-linejoin:round;" transform="translate(0 0) scale(1 1)">
</g>
<g style="fill:#000084; fill-opacity:0.0;  stroke:#000084; stroke-width:0.000000; stroke-opacity:1;  stroke-linecap:round; stroke-linejoin:round;">
</g>
<g style="fill:#000084; fill-opacity:0.0;  stroke:#000084; stroke-width:7819.869917; stroke-opacity:1;  stroke-linecap:round; stroke-linejoin:round;">
<g transform="rotate(-90.000000 1707616.652599 1169210.841070)">
<text x="1707616.652599" y="1195277.074127" transform="scale(-1 1) translate(-3415233.305198 0)" textLength="101782.384191" font-size="69509.937441" lengthAdjust="spacingAndGlyphs" text-anchor="middle" opacity="0.01" style="font-family:monospace">D1</text>
</g>
<g class="stroked-text"><desc>D1</desc>
<path d="M1731200 1130732 L1679067 1130732 L1679067 1143144 L1681550 1150592 L1686515 1155557 L1691480 1158039 L1701410 1160522 L1708857 1160522 L1718787 1158039 L1723752 1155557 L1728717 1150592 L1731200 1143144 L1731200 1130732 "/>
<path d="M1731200 1210172 L1731200 1180382 "/>
<path d="M1731200 1195277 L1679067 1195277 L1686515 1190312 L1691480 1185347 L1693962 1180382 "/>
</g></g>
<g style="fill:#000084; fill-opacity:0.0;  stroke:#000084; stroke-width:5693.907949; stroke-opacity:1;  stroke-linecap:round; stroke-linejoin:round;">
<g transform="rotate(-90.000000 1117555.334889 613061.692567)">
<text x="1117555.334889" y="626104.714264" transform="scale(-1 1) translate(-2235110.669778 0)" textLength="40764.043493" font-size="34781.373815" lengthAdjust="spacingAndGlyphs" text-anchor="middle" opacity="0.01" style="font-family:monospace">R1</text>
</g>
<g class="stroked-text"><desc>R1</desc>
<path d="M1129356 608714 L1116934 600018 "/>
<path d="M1129356 593807 L1103270 593807 L1103270 603745 L1104512 606229 L1105754 607471 L1108238 608714 L1111965 608714 L1114449 607471 L1115692 606229 L1116934 603745 L1116934 593807 "/>
<path d="M1129356 633557 L1129356 618651 "/>
<path d="M1129356 626104 L1103270 626104 L1106996 623620 L1109481 621135 L1110723 618651 "/>
</g><g transform="rotate(-90.000000 1153969.862470 619682.515764)">
<text x="1153969.862470" y="632725.537461" transform="scale(-1 1) translate(-2307939.724939 0)" textLength="63402.879698" font-size="34781.373815" lengthAdjust="spacingAndGlyphs" text-anchor="middle" opacity="0.01" style="font-family:monospace">10k</text>
</g>
<g class="stroked-text"><desc>10k</desc>
<path d="M1165770 604155 L1165770 589248 "/>
<path d="M1165770 596702 L1139684 596702 L1143411 594217 L1145895 591733 L1147137 589248 "/>
<path d="M1139684 620303 L1139684 622788 L1140926 625272 L1142169 626514 L1144653 627756 L1149622 628999 L1155833 628999 L1160801 627756 L1163286 626514 L1164528 625272 L1165770 622788 L1165770 620303 L1164528 617819 L1163286 616577 L1160801 615334 L1155833 614092 L1149622 614092 L1144653 615334 L1142169 616577 L1140926 617819 L1139684 620303 "/>
<path d="M1165770 640178 L1139684 640178 "/>
<path d="M1155833 642663 L1165770 650116 "/>
<path d="M1148379 650116 L1158317 640178 "/>
</g></g>
<g style="fill:#000084; fill-opacity:0.01;  stroke:#000084; stroke-width:3909.934959; stroke-opacity:1;  stroke-linecap:round; stroke-linejoin:round;">
<text x="1289827.069162" y="886757.139665" transform="scale(-1 1) translate(-2579654.138325 0)" textLength="44730.385780" font-size="34754.942654" lengthAdjust="spacingAndGlyphs" text-anchor="middle" opacity="0.01" style="font-family:monospace">U1</text>
<g class="stroked-text"><desc>U1</desc>
<path d="M1309687 859449 L1309687 880550 L1308445 883033 L1307204 884274 L1304722 885515 L1299757 885515 L1297274 884274 L1296033 883033 L1294792 880550 L1294792 859449 "/>
<path d="M1268725 885515 L1283620 885515 "/>
<path d="M1276173 885515 L1276173 859449 L1278655 863173 L1281138 865655 L1283620 866897 "/>
</g></g>
<g style="fill:#000084; fill-opacity:0.0;  stroke:#000084; stroke-width:7819.869917; stroke-opacity:1;  stroke-linecap:round; stroke-linejoin:round;">
<g transform="rotate(-90.000000 1589275.954521 493886.875031)">
<text x="1589275.954521" y="519953.108088" transform="scale(-1 1) translate(-3178551.909041 0)" textLength="96699.520878" font-size="69509.937441" lengthAdjust="spacingAndGlyphs" text-anchor="middle" opacity="0.01" style="font-family:monospace">D2</text>
</g>
<g class="stroked-text"><desc>D2</desc>
<path d="M1612859 455408 L1560727 455408 L1560727 467820 L1563209 475268 L1568174 480233 L1573139 482715 L1583069 485198 L1590517 485198 L1600447 482715 L1605412 480233 L1610377 475268 L1612859 467820 L1612859 455408 "/>
<path d="M1565692 505058 L1563209 507540 L1560727 512505 L1560727 524918 L1563209 529883 L1565692 532365 L1570657 534848 L1575622 534848 L1583069 532365 L1612859 502575 L1612859 534848 "/>
</g></g>
<g style="fill:#000084; fill-opacity:0.0;  stroke:#000084; stroke-width:5693.907949; stroke-opacity:1;  stroke-linecap:round; stroke-linejoin:round;">
<g transform="rotate(-90.000000 1130796.981282 1278454.423812)">
<text x="1130796.981282" y="1291497.445509" transform="scale(-1 1) translate(-2261593.962564 0)" textLength="40764.043493" font-size="34781.373815" lengthAdjust="spacingAndGlyphs" text-anchor="middle" opacity="0.01" style="font-family:monospace">C1</text>
</g>
<g class="stroked-text"><desc>C1</desc>
<path d="M1140113 1274106 L1141355 1272864 L1142597 1269137 L1142597 1266653 L1141355 1262927 L1138871 1260442 L1136386 1259200 L1131418 1257958 L1127691 1257958 L1122722 1259200 L1120238 1260442 L1117753 1262927 L1116511 1266653 L1116511 1269137 L1117753 1272864 L1118996 1274106 "/>
<path d="M1142597 1298950 L1142597 1284044 "/>
<path d="M1142597 1291497 L1116511 1291497 L1120238 1289013 L1122722 1286528 L1123964 1284044 "/>
</g><g transform="rotate(-90.000000 1094382.453701 1271833.600616)">
<text x="1094382.453701" y="1284876.622313" transform="scale(-1 1) translate(-2188764.907403 0)" textLength="65887.304503" font-size="34781.373815" lengthAdjust="spacingAndGlyphs" text-anchor="middle" opacity="0.01" style="font-family:monospace">22p</text>
</g>
<g class="stroked-text"><desc>22p</desc>
<path d="M1082581 1240157 L1081339 1241399 L1080097 1243884 L1080097 1250095 L1081339 1252579 L1082581 1253821 L1085065 1255064 L1087550 1255064 L1091276 1253821 L1106183 1238915 L1106183 1255064 "/>
<path d="M1082581 1265001 L1081339 1266243 L1080097 1268728 L1080097 1274939 L1081339 1277423 L1082581 1278665 L1085065 1279907 L1087550 1279907 L1091276 1278665 L1106183 1263759 L1106183 1279907 "/>
<path d="M1088792 1291087 L1114878 1291087 "/>
<path d="M1090034 1291087 L1088792 1293572 L1088792 1298540 L1090034 1301025 L1091276 1302267 L1093761 1303509 L1101214 1303509 L1103698 1302267 L1104941 1301025 L1106183 1298540 L1106183 1293572 L1104941 1291087 "/>
</g><g transform="rotate(-90.000000 1375767.439551 1278454.423812)">
<text x="1375767.439551" y="1291497.445509" transform="scale(-1 1) translate(-2751534.879102 0)" textLength="43527.794052" font-size="34781.373815" lengthAdjust="spacingAndGlyphs" text-anchor="middle" opacity="0.01" style="font-family:monospace">C2</text>
</g>
<g class="stroked-text"><desc>C2</desc>
<path d="M1385083 1274106 L1386326 1272864 L1387568 1269137 L1387568 1266653 L1386326 1262927 L1383841 1260442 L1381357 1259200 L1376388 1257958 L1372661 1257958 L1367693 1259200 L1365208 1260442 L1362724 1262927 L1361482 1266653 L1361482 1269137 L1362724 1272864 L1363966 1274106 "/>
<path d="M1363966 1284044 L1362724 1285286 L1361482 1287770 L1361482 1293981 L1362724 1296466 L1363966 1297708 L1366450 1298950 L1368935 1298950 L1372661 1297708 L1387568 1282802 L1387568 1298950 "/>
</g><g transform="rotate(-90.000000 1339352.911971 1271833.600616)">
<text x="1339352.911971" y="1284876.622313" transform="scale(-1 1) translate(-2678705.823941 0)" textLength="162778.307929" font-size="34781.373815" lengthAdjust="spacingAndGlyphs" text-anchor="middle" opacity="0.01" style="font-family:monospace">1uF/50V</text>
</g>
<g class="stroked-text"><desc>1uF/50V</desc>
<path d="M1351153 1206618 L1351153 1191712 "/>
<path d="M1351153 1199165 L1325067 1199165 L1328794 1196681 L1331278 1194196 L1332520 1191712 "/>
<path d="M1333763 1228978 L1351153 1228978 "/>
<path d="M1333763 1217798 L1347427 1217798 L1349911 1219040 L1351153 1221524 L1351153 1225251 L1349911 1227735 L1348669 1228978 "/>
<path d="M1337489 1250095 L1337489 1241399 "/>
<path d="M1351153 1241399 L1325067 1241399 L1325067 1253821 "/>
<path d="M1323825 1282392 L1357364 1260032 "/>
<path d="M1325067 1303509 L1325067 1291087 L1337489 1289845 L1336247 1291087 L1335005 1293572 L1335005 1299782 L1336247 1302267 L1337489 1303509 L1339973 1304751 L1346184 1304751 L1348669 1303509 L1349911 1302267 L1351153 1299782 L1351153 1293572 L1349911 1291087 L1348669 1289845 "/>
<path d="M1325067 1320900 L1325067 1323384 L1326309 1325869 L1327552 1327111 L1330036 1328353 L1335005 1329595 L1341216 1329595 L1346184 1328353 L1348669 1327111 L1349911 1325869 L1351153 1323384 L1351153 1320900 L1349911 1318415 L1348669 1317173 L1346184 1315931 L1341216 1314689 L1335005 1314689 L1330036 1315931 L1327552 1317173 L1326309 1318415 L1325067 1320900 "/>
<path d="M1325067 1337048 L1351153 1345744 L1325067 1354439 "/>
</g></g>
<g style="fill:#000084; fill-opacity:0.01;  stroke:#000084; stroke-width:15639.739834; stroke-opacity:1;  stroke-linecap:round; stroke-linejoin:round;">
<text x="1432574.102577" y="1539976.940072" transform="scale(-1 1) translate(-2865148.205154 0)" textLength="147714.371183" font-size="105933.171143" lengthAdjust="spacingAndGlyphs" text-anchor="middle" opacity="0.01" style="font-family:monospace">C5</text>
<g class="stroked-text"><desc>C5</desc>
<path d="M1445815 1528626 L1449599 1532410 L1460949 1536193 L1468515 1536193 L1479865 1532410 L1487432 1524843 L1491215 1517277 L1494998 1502143 L1494998 1490793 L1491215 1475660 L1487432 1468093 L1479865 1460527 L1468515 1456743 L1460949 1456743 L1449599 1460527 L1445815 1464310 "/>
<path d="M1373932 1456743 L1411765 1456743 L1415549 1494577 L1411765 1490793 L1404199 1487010 L1385282 1487010 L1377715 1490793 L1373932 1494577 L1370149 1502143 L1370149 1521060 L1373932 1528626 L1377715 1532410 L1385282 1536193 L1404199 1536193 L1411765 1532410 L1415549 1528626 "/>
</g></g>
<g style="fill:#000084; fill-opacity:0.01;  stroke:#000084; stroke-width:7819.869917; stroke-opacity:1;  stroke-linecap:round; stroke-linejoin:round;">
<text x="1698731.195075" y="1406934.886550" transform="scale(-1 1) translate(-3397462.390149 0)" textLength="76485.782732" font-size="104264.932228" lengthAdjust="spacingAndGlyphs" text-anchor="middle" opacity="0.01" style="font-family:monospace">+</text>
<g class="stroked-text"><desc>+</desc>
<path d="M1728521 1373421 L1668941 1373421 "/>
<path d="M1698731 1403211 L1698731 1343631 "/>
</g></g>
<g style="fill:#000084; fill-opacity:0.01;  stroke:#000084; stroke-width:5693.907949; stroke-opacity:1;  stroke-linecap:round; stroke-linejoin:round;">
<g transform="rotate(-90.000000 1249971.798818 1278454.423812)">
<text x="1249971.798818" y="1291497.445509" transform="scale(-1 1) translate(-2499943.597637 0)" textLength="40764.043493" font-size="34781.373815" lengthAdjust="spacingAndGlyphs" text-anchor="middle" opacity="0.01" style="font-family:monospace">R2</text>
</g>
<g class="stroked-text"><desc>R2</desc>
<path d="M1261772 1274106 L1249350 1265411 "/>
<path d="M1261772 1259200 L1235686 1259200 L1235686 1269137 L1236928 1271622 L1238170 1272864 L1240655 1274106 L1244381 1274106 L1246866 1272864 L1248108 1271622 L1249350 1269137 L1249350 1259200 "/>
<path d="M1238170 1284044 L1236928 1285286 L1235686 1287770 L1235686 1293981 L1236928 1296466 L1238170 1297708 L1240655 1298950 L1243139 1298950 L1246866 1297708 L1261772 1282802 L1261772 1298950 "/>
</g><g transform="rotate(-90.000000 1213557.271238 1271833.600616)">
<text x="1213557.271238" y="1284876.622313" transform="scale(-1 1) translate(-2427114.542476 0)" textLength="88246.762822" font-size="34781.373815" lengthAdjust="spacingAndGlyphs" text-anchor="middle" opacity="0.01" style="font-family:monospace">470k</text>
</g>
<g class="stroked-text"><desc>470k</desc>
<path d="M1207967 1241399 L1225358 1241399 "/>
<path d="M1198029 1235188 L1216662 1228978 L1216662 1245126 "/>
<path d="M1199272 1252579 L1199272 1269970 L1225358 1258790 "/>
<path d="M1199272 1284876 L1199272 1287361 L1200514 1289845 L1201756 1291087 L1204240 1292329 L1209209 1293572 L1215420 1293572 L1220389 1292329 L1222873 1291087 L1224115 1289845 L1225358 1287361 L1225358 1284876 L1224115 1282392 L1222873 1281150 L1220389 1279907 L1215420 1278665 L1209209 1278665 L1204240 1279907 L1201756 1281150 L1200514 1282392 L1199272 1284876 "/>
<path d="M1225358 1304751 L1199272 1304751 "/>
<path d="M1215420 1307236 L1225358 1314689 "/>
<path d="M1207967 1314689 L1217904 1304751 "/>
</g><text x="1302938.384390" y="1152460.158383" transform="scale(-1 1) translate(-2605876.768780 0)" textLength="43527.794052" font-size="34781.373815" lengthAdjust="spacingAndGlyphs" text-anchor="middle" opacity="0.01" style="font-family:monospace">R4</text>
<g class="stroked-text"><desc>R4</desc>
<path d="M1307286 1151217 L1315981 1138796 "/>
<path d="M1322192 1151217 L1322192 1125131 L1312254 1125131 L1309770 1126374 L1308528 1127616 L1307286 1130100 L1307286 1133827 L1308528 1136311 L1309770 1137553 L1312254 1138796 L1322192 1138796 "/>
<path d="M1284926 1133827 L1284926 1151217 "/>
<path d="M1291137 1123889 L1297348 1142522 L1281199 1142522 "/>
</g><text x="1309559.207587" y="1116045.630803" transform="scale(-1 1) translate(-2619118.415173 0)" textLength="88246.762822" font-size="34781.373815" lengthAdjust="spacingAndGlyphs" text-anchor="middle" opacity="0.01" style="font-family:monospace">120k</text>
<g class="stroked-text"><desc>120k</desc>
<path d="M1337508 1114803 L1352414 1114803 "/>
<path d="M1344961 1114803 L1344961 1088717 L1347446 1092444 L1349930 1094928 L1352414 1096170 "/>
<path d="M1327570 1091201 L1326328 1089959 L1323844 1088717 L1317633 1088717 L1315149 1089959 L1313906 1091201 L1312664 1093686 L1312664 1096170 L1313906 1099897 L1328813 1114803 L1312664 1114803 "/>
<path d="M1296516 1088717 L1294031 1088717 L1291547 1089959 L1290305 1091201 L1289063 1093686 L1287820 1098654 L1287820 1104865 L1289063 1109834 L1290305 1112319 L1291547 1113561 L1294031 1114803 L1296516 1114803 L1299000 1113561 L1300242 1112319 L1301484 1109834 L1302727 1104865 L1302727 1098654 L1301484 1093686 L1300242 1091201 L1299000 1089959 L1296516 1088717 "/>
<path d="M1276641 1114803 L1276641 1088717 "/>
<path d="M1274156 1104865 L1266703 1114803 "/>
<path d="M1266703 1097412 L1276641 1107350 "/>
</g><text x="1316180.030783" y="642656.772256" transform="scale(-1 1) translate(-2632360.061566 0)" textLength="43527.794052" font-size="34781.373815" lengthAdjust="spacingAndGlyphs" text-anchor="middle" opacity="0.01" style="font-family:monospace">C6</text>
<g class="stroked-text"><desc>C6</desc>
<path d="M1320527 638930 L1321769 640172 L1325496 641414 L1327980 641414 L1331707 640172 L1334191 637688 L1335434 635203 L1336676 630234 L1336676 626508 L1335434 621539 L1334191 619055 L1331707 616570 L1327980 615328 L1325496 615328 L1321769 616570 L1320527 617812 "/>
<path d="M1298168 615328 L1303137 615328 L1305621 616570 L1306863 617812 L1309347 621539 L1310590 626508 L1310590 636445 L1309347 638930 L1308105 640172 L1305621 641414 L1300652 641414 L1298168 640172 L1296925 638930 L1295683 636445 L1295683 630234 L1296925 627750 L1298168 626508 L1300652 625266 L1305621 625266 L1308105 626508 L1309347 627750 L1310590 630234 "/>
</g><text x="1309559.207587" y="679071.299836" transform="scale(-1 1) translate(-2619118.415173 0)" textLength="65887.304503" font-size="34781.373815" lengthAdjust="spacingAndGlyphs" text-anchor="middle" opacity="0.01" style="font-family:monospace">4u7</text>
<g class="stroked-text"><desc>4u7</desc>
<path d="M1328813 660438 L1328813 677829 "/>
<path d="M1335024 650500 L1341235 669133 L1325086 669133 "/>
<path d="M1303969 660438 L1303969 677829 "/>
<path d="M1315149 660438 L1315149 674102 L1313906 676586 L1311422 677829 L1307695 677829 L1305211 676586 L1303969 675344 "/>
<path d="M1294031 651743 L1276641 651743 L1287820 677829 "/>
</g></g>
<g style="fill:#000084; fill-opacity:0.0;  stroke:#000084; stroke-width:5213.246611; stroke-opacity:1;  stroke-linecap:round; stroke-linejoin:round;">
<path d="M1446954 1289115 L1655484 1289115 "/>
<path d="M1551166 1203067 L1512103 1143083 "/>
<path d="M1446954 1049306 L1446954 1289115 "/>
<path d="M1551166 1143083 L1551166 1091043 "/>
<path d="M1551166 1203067 L1551166 1250075 "/>
<path d="M1592877 1203067 L1509454 1203067 "/>
<path d="M1655484 1049306 L1655484 1289115 "/>
<path d="M1512103 1143083 L1592877 1143083 "/>
<path d="M1551166 1203067 L1592877 1143083 "/>
<path d="M1655484 1049306 L1446954 1049306 "/>
</g>
<g style="fill:#000084; fill-opacity:0.0;  stroke:#000084; stroke-width:7819.869917; stroke-opacity:1;  stroke-linecap:round; stroke-linejoin:round;">
<path d="M1173832 692511 L1173832 639544 "/>
<path d="M1094382 639544 L1094382 692511 "/>
<path d="M1094382 533611 L1094382 586578 "/>
<path d="M1173832 533611 L1094382 533611 "/>
<path d="M1094382 692511 L1173832 692511 "/>
<path d="M1173832 586578 L1173832 533611 "/>
</g>
<g style="fill:#000084; fill-opacity:0.0;  stroke:#000084; stroke-width:5213.246611; stroke-opacity:1;  stroke-linecap:round; stroke-linejoin:round;">
<path d="M1336746 920643 L1370632 886757 "/>
<path d="M1336746 920643 L1209021 920643 "/>
<path d="M1370632 826804 L1370632 886757 "/>
<path d="M1370632 826804 L1209021 826804 "/>
<path d="M1209021 826804 L1209021 920643 "/>
<path d="M1464158 480853 L1485011 512133 "/>
<path d="M1505864 480853 L1464158 480853 "/>
<path d="M1485011 512133 L1505864 480853 "/>
<path d="M1443305 407868 L1443305 579905 "/>
<path d="M1526716 579905 L1526716 407868 "/>
<path d="M1485011 532986 L1485011 512133 "/>
<path d="M1485011 512133 L1513683 512133 "/>
<path d="M1443305 579905 L1526716 579905 "/>
<path d="M1485011 512133 L1456338 512133 "/>
<path d="M1526716 407868 L1443305 407868 "/>
<path d="M1485011 480853 L1485011 454787 "/>
</g>
<g style="fill:#000084; fill-opacity:0.0;  stroke:#000084; stroke-width:7819.869917; stroke-opacity:1;  stroke-linecap:round; stroke-linejoin:round;">
<path d="M1153969 1357904 L1153969 1304937 "/>
<path d="M1153969 1251971 L1153969 1199004 "/>
<path d="M1074519 1357904 L1153969 1357904 "/>
<path d="M1153969 1199004 L1074519 1199004 "/>
<path d="M1074519 1304937 L1074519 1357904 "/>
<path d="M1074519 1199004 L1074519 1251971 "/>
<path d="M1398940 1199004 L1319490 1199004 "/>
<path d="M1319490 1199004 L1319490 1251971 "/>
<path d="M1319490 1304937 L1319490 1357904 "/>
<path d="M1319490 1357904 L1398940 1357904 "/>
<path d="M1398940 1357904 L1398940 1304937 "/>
<path d="M1398940 1251971 L1398940 1199004 "/>
<path d="M1281486 1411665 L1594254 1411665 "/>
<path d="M1282678 1588838 L1595446 1588838 "/>
<path d="M1193694 1304937 L1193694 1357904 "/>
<path d="M1193694 1357904 L1273144 1357904 "/>
<path d="M1273144 1357904 L1273144 1304937 "/>
<path d="M1273144 1199004 L1193694 1199004 "/>
<path d="M1273144 1251971 L1273144 1199004 "/>
<path d="M1193694 1199004 L1193694 1251971 "/>
<path d="M1223488 1162590 L1276455 1162590 "/>
<path d="M1329421 1162590 L1382388 1162590 "/>
<path d="M1382388 1083140 L1329421 1083140 "/>
<path d="M1223488 1083140 L1223488 1162590 "/>
<path d="M1276455 1083140 L1223488 1083140 "/>
<path d="M1382388 1162590 L1382388 1083140 "/>
<path d="M1289696 606440 L1236730 606440 "/>
<path d="M1236730 606440 L1236730 685890 "/>
<path d="M1236730 685890 L1289696 685890 "/>
<path d="M1395629 606440 L1342663 606440 "/>
<path d="M1342663 685890 L1395629 685890 "/>
<path d="M1395629 685890 L1395629 606440 "/>
<g>
</g>
<g>
</g>
<g>
</g>
<g>
</g>
<g>
</g>
<g>
</g>
<g>
</g>
<g>
</g>
<g>
</g>
<g>
</g>
<g>
</g>
<g>
</g>
<g>
</g>
<g>
</g>
<g>
</g>
<g>
</g>
<g>
</g>
<g>
</g>
<g>
</g>
<g>
</g>
<g>
</g>
</g> 
<svg:g><svg:g><svg:title>SVG Picture created as STEPUPDC02-Edge_Cuts.svg date 2023/07/05 12:11:27 </svg:title>
  <svg:desc>Picture generated by PCBNEW </svg:desc>
<svg:g style="fill:#C2C200; fill-opacity:1.000000;stroke:#C2C200; stroke-opacity:1.000000; stroke-linecap:round; stroke-linejoin:round;" transform="translate(0 0) scale(1 1)">
</svg:g>
<svg:g style="fill:#C2C200; fill-opacity:0.0;  stroke:#C2C200; stroke-width:0.000000; stroke-opacity:1;  stroke-linecap:round; stroke-linejoin:round;">
</svg:g>
<svg:g style="fill:#C2C200; fill-opacity:0.0;  stroke:#C2C200; stroke-width:7819.869917; stroke-opacity:1;  stroke-linecap:round; stroke-linejoin:round;">
<svg:path d="M2001435 2096126 L2001435 3945 "/>
<svg:path d="M968586 2096126 L2001435 2096126 "/>
<svg:path d="M968586 2096126 L968586 3945 "/>
<svg:path d="M968586 3945 L2001435 3945 "/>
<svg:g>
</svg:g>
<svg:g>
</svg:g>
<svg:g>
</svg:g>
<svg:g>
</svg:g>
<svg:g>
</svg:g>
<svg:g>
</svg:g>
<svg:g>
</svg:g>
<svg:g>
</svg:g>
<svg:g>
</svg:g>
<svg:g>
</svg:g>
<svg:g>
</svg:g>
<svg:g>
</svg:g>
<svg:g>
</svg:g>
<svg:g>
</svg:g>
<svg:g>
</svg:g>
<svg:g>
</svg:g>
<svg:g>
</svg:g>
<svg:g>
</svg:g>
<svg:g>
</svg:g>
<svg:g>
</svg:g>
<svg:g>
</svg:g>
</svg:g> 
</svg:g></svg:g></svg>
