<?xml version='1.0' encoding='ASCII' standalone='yes'?>
<svg xmlns:svg="http://www.w3.org/2000/svg" xmlns="http://www.w3.org/2000/svg" xmlns:xlink="http://www.w3.org/1999/xlink" version="1.1" width="297.0022mm" height="210.0072mm" viewBox="0.0000 0.0000 297.0022 210.0072">
<title>SVG Image created as STEPUPDC02-B_Fab.svg date 2023/07/05 13:05:24 </title>
  <desc>Image generated by PCBNEW </desc>
<g style="fill:#000084; fill-opacity:1.0000;stroke:#000084; stroke-opacity:1.0000; stroke-linecap:round; stroke-linejoin:round;" transform="translate(0 0) scale(1 1)">
</g>
<g style="fill:#000084; fill-opacity:0.0;  stroke:#000084; stroke-width:0.0000; stroke-opacity:1;  stroke-linecap:round; stroke-linejoin:round;">
</g>
<g style="fill:#000084; fill-opacity:0.0;  stroke:#000084; stroke-width:0.7820; stroke-opacity:1;  stroke-linecap:round; stroke-linejoin:round;">
<g transform="rotate(-90.000000 170.7617 116.9211)">
<text x="170.7617" y="119.5277" transform="scale(-1 1) translate(-341.523331 0)" textLength="11.0906" font-size="6.9510" lengthAdjust="spacingAndGlyphs" text-anchor="middle" opacity="0.01" style="font-family:monospace">D1</text>
</g>
<g class="stroked-text"><desc>D1</desc>
<path d="M173.1327 113.0732 L167.9195 113.0732 "/>
<path d="M167.9195 113.0732 L167.9195 114.3145 "/>
<path d="M167.9195 114.3145 L168.1678 115.0592 "/>
<path d="M168.1678 115.0592 L168.6643 115.5557 "/>
<path d="M168.6643 115.5557 L169.1608 115.8040 "/>
<path d="M169.1608 115.8040 L170.1537 116.0522 "/>
<path d="M170.1537 116.0522 L170.8985 116.0522 "/>
<path d="M170.8985 116.0522 L171.8915 115.8040 "/>
<path d="M171.8915 115.8040 L172.3880 115.5557 "/>
<path d="M172.3880 115.5557 L172.8845 115.0592 "/>
<path d="M172.8845 115.0592 L173.1327 114.3145 "/>
<path d="M173.1327 114.3145 L173.1327 113.0732 "/>
<path d="M173.1327 121.0172 L173.1327 118.0382 "/>
<path d="M173.1327 119.5277 L167.9195 119.5277 "/>
<path d="M167.9195 119.5277 L168.6643 119.0312 "/>
<path d="M168.6643 119.0312 L169.1608 118.5347 "/>
<path d="M169.1608 118.5347 L169.4090 118.0382 "/>
</g></g>
<g style="fill:#000084; fill-opacity:0.0;  stroke:#000084; stroke-width:0.5694; stroke-opacity:1;  stroke-linecap:round; stroke-linejoin:round;">
<g transform="rotate(-90.000000 111.7555 61.3062)">
<text x="111.7555" y="62.6105" transform="scale(-1 1) translate(-223.511067 0)" textLength="5.9947" font-size="3.4781" lengthAdjust="spacingAndGlyphs" text-anchor="middle" opacity="0.01" style="font-family:monospace">R1</text>
</g>
<g class="stroked-text"><desc>R1</desc>
<path d="M112.9327 60.8714 L111.6905 60.0019 "/>
<path d="M112.9327 59.3808 L110.3241 59.3808 "/>
<path d="M110.3241 59.3808 L110.3241 60.3745 "/>
<path d="M110.3241 60.3745 L110.4483 60.6230 "/>
<path d="M110.4483 60.6230 L110.5725 60.7472 "/>
<path d="M110.5725 60.7472 L110.8210 60.8714 "/>
<path d="M110.8210 60.8714 L111.1936 60.8714 "/>
<path d="M111.1936 60.8714 L111.4421 60.7472 "/>
<path d="M111.4421 60.7472 L111.5663 60.6230 "/>
<path d="M111.5663 60.6230 L111.6905 60.3745 "/>
<path d="M111.6905 60.3745 L111.6905 59.3808 "/>
<path d="M112.9327 63.3558 L112.9327 61.8652 "/>
<path d="M112.9327 62.6105 L110.3241 62.6105 "/>
<path d="M110.3241 62.6105 L110.6968 62.3620 "/>
<path d="M110.6968 62.3620 L110.9452 62.1136 "/>
<path d="M110.9452 62.1136 L111.0694 61.8652 "/>
</g><g transform="rotate(-90.000000 115.3970 61.9683)">
<text x="115.3970" y="63.2726" transform="scale(-1 1) translate(-230.793972 0)" textLength="7.9823" font-size="3.4781" lengthAdjust="spacingAndGlyphs" text-anchor="middle" opacity="0.01" style="font-family:monospace">10k</text>
</g>
<g class="stroked-text"><desc>10k</desc>
<path d="M116.5742 60.4155 L116.5742 58.9249 "/>
<path d="M116.5742 59.6702 L113.9656 59.6702 "/>
<path d="M113.9656 59.6702 L114.3382 59.4218 "/>
<path d="M114.3382 59.4218 L114.5867 59.1733 "/>
<path d="M114.5867 59.1733 L114.7109 58.9249 "/>
<path d="M113.9656 62.0304 L113.9656 62.2788 "/>
<path d="M113.9656 62.2788 L114.0898 62.5272 "/>
<path d="M114.0898 62.5272 L114.2140 62.6515 "/>
<path d="M114.2140 62.6515 L114.4624 62.7757 "/>
<path d="M114.4624 62.7757 L114.9593 62.8999 "/>
<path d="M114.9593 62.8999 L115.5804 62.8999 "/>
<path d="M115.5804 62.8999 L116.0773 62.7757 "/>
<path d="M116.0773 62.7757 L116.3257 62.6515 "/>
<path d="M116.3257 62.6515 L116.4499 62.5272 "/>
<path d="M116.4499 62.5272 L116.5742 62.2788 "/>
<path d="M116.5742 62.2788 L116.5742 62.0304 "/>
<path d="M116.5742 62.0304 L116.4499 61.7819 "/>
<path d="M116.4499 61.7819 L116.3257 61.6577 "/>
<path d="M116.3257 61.6577 L116.0773 61.5335 "/>
<path d="M116.0773 61.5335 L115.5804 61.4093 "/>
<path d="M115.5804 61.4093 L114.9593 61.4093 "/>
<path d="M114.9593 61.4093 L114.4624 61.5335 "/>
<path d="M114.4624 61.5335 L114.2140 61.6577 "/>
<path d="M114.2140 61.6577 L114.0898 61.7819 "/>
<path d="M114.0898 61.7819 L113.9656 62.0304 "/>
<path d="M116.5742 64.0179 L113.9656 64.0179 "/>
<path d="M115.5804 64.2663 L116.5742 65.0116 "/>
<path d="M114.8351 65.0116 L115.8288 64.0179 "/>
</g></g>
<g style="fill:#000084; fill-opacity:0.01;  stroke:#000084; stroke-width:0.3910; stroke-opacity:1;  stroke-linecap:round; stroke-linejoin:round;">
<text x="128.9827" y="88.6757" transform="scale(-1 1) translate(-257.965414 0)" textLength="5.6694" font-size="3.4755" lengthAdjust="spacingAndGlyphs" text-anchor="middle" opacity="0.01" style="font-family:monospace">U1</text>
<g class="stroked-text"><desc>U1</desc>
<path d="M130.9687 85.9513 L130.9687 88.0614 "/>
<path d="M130.9687 88.0614 L130.8446 88.3097 "/>
<path d="M130.8446 88.3097 L130.7205 88.4338 "/>
<path d="M130.7205 88.4338 L130.4722 88.5579 "/>
<path d="M130.4722 88.5579 L129.9757 88.5579 "/>
<path d="M129.9757 88.5579 L129.7275 88.4338 "/>
<path d="M129.7275 88.4338 L129.6033 88.3097 "/>
<path d="M129.6033 88.3097 L129.4792 88.0614 "/>
<path d="M129.4792 88.0614 L129.4792 85.9513 "/>
<path d="M126.8726 88.5579 L128.3621 88.5579 "/>
<path d="M127.6173 88.5579 L127.6173 85.9513 "/>
<path d="M127.6173 85.9513 L127.8656 86.3237 "/>
<path d="M127.8656 86.3237 L128.1138 86.5720 "/>
<path d="M128.1138 86.5720 L128.3621 86.6961 "/>
</g></g>
<g style="fill:#000084; fill-opacity:0.0;  stroke:#000084; stroke-width:0.7820; stroke-opacity:1;  stroke-linecap:round; stroke-linejoin:round;">
<g transform="rotate(-90.000000 158.9276 49.3887)">
<text x="158.9276" y="51.9953" transform="scale(-1 1) translate(-317.855191 0)" textLength="11.0906" font-size="6.9510" lengthAdjust="spacingAndGlyphs" text-anchor="middle" opacity="0.01" style="font-family:monospace">D2</text>
</g>
<g class="stroked-text"><desc>D2</desc>
<path d="M161.2987 45.5408 L156.0854 45.5408 "/>
<path d="M156.0854 45.5408 L156.0854 46.7821 "/>
<path d="M156.0854 46.7821 L156.3337 47.5268 "/>
<path d="M156.3337 47.5268 L156.8302 48.0233 "/>
<path d="M156.8302 48.0233 L157.3267 48.2716 "/>
<path d="M157.3267 48.2716 L158.3197 48.5198 "/>
<path d="M158.3197 48.5198 L159.0644 48.5198 "/>
<path d="M159.0644 48.5198 L160.0574 48.2716 "/>
<path d="M160.0574 48.2716 L160.5539 48.0233 "/>
<path d="M160.5539 48.0233 L161.0504 47.5268 "/>
<path d="M161.0504 47.5268 L161.2987 46.7821 "/>
<path d="M161.2987 46.7821 L161.2987 45.5408 "/>
<path d="M156.5819 50.5058 L156.3337 50.7541 "/>
<path d="M156.3337 50.7541 L156.0854 51.2506 "/>
<path d="M156.0854 51.2506 L156.0854 52.4918 "/>
<path d="M156.0854 52.4918 L156.3337 52.9883 "/>
<path d="M156.3337 52.9883 L156.5819 53.2366 "/>
<path d="M156.5819 53.2366 L157.0784 53.4848 "/>
<path d="M157.0784 53.4848 L157.5749 53.4848 "/>
<path d="M157.5749 53.4848 L158.3197 53.2366 "/>
<path d="M158.3197 53.2366 L161.2987 50.2576 "/>
<path d="M161.2987 50.2576 L161.2987 53.4848 "/>
</g></g>
<g style="fill:#000084; fill-opacity:0.0;  stroke:#000084; stroke-width:0.5694; stroke-opacity:1;  stroke-linecap:round; stroke-linejoin:round;">
<g transform="rotate(-90.000000 113.0797 127.8454)">
<text x="113.0797" y="129.1497" transform="scale(-1 1) translate(-226.159396 0)" textLength="5.9947" font-size="3.4781" lengthAdjust="spacingAndGlyphs" text-anchor="middle" opacity="0.01" style="font-family:monospace">C1</text>
</g>
<g class="stroked-text"><desc>C1</desc>
<path d="M114.0084 127.4107 L114.1327 127.2865 "/>
<path d="M114.1327 127.2865 L114.2569 126.9138 "/>
<path d="M114.2569 126.9138 L114.2569 126.6654 "/>
<path d="M114.2569 126.6654 L114.1327 126.2927 "/>
<path d="M114.1327 126.2927 L113.8842 126.0443 "/>
<path d="M113.8842 126.0443 L113.6358 125.9200 "/>
<path d="M113.6358 125.9200 L113.1389 125.7958 "/>
<path d="M113.1389 125.7958 L112.7662 125.7958 "/>
<path d="M112.7662 125.7958 L112.2694 125.9200 "/>
<path d="M112.2694 125.9200 L112.0209 126.0443 "/>
<path d="M112.0209 126.0443 L111.7725 126.2927 "/>
<path d="M111.7725 126.2927 L111.6483 126.6654 "/>
<path d="M111.6483 126.6654 L111.6483 126.9138 "/>
<path d="M111.6483 126.9138 L111.7725 127.2865 "/>
<path d="M111.7725 127.2865 L111.8967 127.4107 "/>
<path d="M114.2569 129.8951 L114.2569 128.4044 "/>
<path d="M114.2569 129.1497 L111.6483 129.1497 "/>
<path d="M111.6483 129.1497 L112.0209 128.9013 "/>
<path d="M112.0209 128.9013 L112.2694 128.6529 "/>
<path d="M112.2694 128.6529 L112.3936 128.4044 "/>
</g><g transform="rotate(-90.000000 109.4382 127.1834)">
<text x="109.4382" y="128.4877" transform="scale(-1 1) translate(-218.876491 0)" textLength="8.2307" font-size="3.4781" lengthAdjust="spacingAndGlyphs" text-anchor="middle" opacity="0.01" style="font-family:monospace">22p</text>
</g>
<g class="stroked-text"><desc>22p</desc>
<path d="M108.2553 124.0158 L108.1310 124.1400 "/>
<path d="M108.1310 124.1400 L108.0068 124.3884 "/>
<path d="M108.0068 124.3884 L108.0068 125.0095 "/>
<path d="M108.0068 125.0095 L108.1310 125.2580 "/>
<path d="M108.1310 125.2580 L108.2553 125.3822 "/>
<path d="M108.2553 125.3822 L108.5037 125.5064 "/>
<path d="M108.5037 125.5064 L108.7521 125.5064 "/>
<path d="M108.7521 125.5064 L109.1248 125.3822 "/>
<path d="M109.1248 125.3822 L110.6154 123.8916 "/>
<path d="M110.6154 123.8916 L110.6154 125.5064 "/>
<path d="M108.2553 126.5002 L108.1310 126.6244 "/>
<path d="M108.1310 126.6244 L108.0068 126.8728 "/>
<path d="M108.0068 126.8728 L108.0068 127.4939 "/>
<path d="M108.0068 127.4939 L108.1310 127.7424 "/>
<path d="M108.1310 127.7424 L108.2553 127.8666 "/>
<path d="M108.2553 127.8666 L108.5037 127.9908 "/>
<path d="M108.5037 127.9908 L108.7521 127.9908 "/>
<path d="M108.7521 127.9908 L109.1248 127.8666 "/>
<path d="M109.1248 127.8666 L110.6154 126.3759 "/>
<path d="M110.6154 126.3759 L110.6154 127.9908 "/>
<path d="M108.8764 129.1088 L111.4850 129.1088 "/>
<path d="M109.0006 129.1088 L108.8764 129.3572 "/>
<path d="M108.8764 129.3572 L108.8764 129.8541 "/>
<path d="M108.8764 129.8541 L109.0006 130.1025 "/>
<path d="M109.0006 130.1025 L109.1248 130.2267 "/>
<path d="M109.1248 130.2267 L109.3732 130.3510 "/>
<path d="M109.3732 130.3510 L110.1185 130.3510 "/>
<path d="M110.1185 130.3510 L110.3670 130.2267 "/>
<path d="M110.3670 130.2267 L110.4912 130.1025 "/>
<path d="M110.4912 130.1025 L110.6154 129.8541 "/>
<path d="M110.6154 129.8541 L110.6154 129.3572 "/>
<path d="M110.6154 129.3572 L110.4912 129.1088 "/>
</g><g transform="rotate(-90.000000 137.5767 127.8454)">
<text x="137.5767" y="129.1497" transform="scale(-1 1) translate(-275.153488 0)" textLength="5.9947" font-size="3.4781" lengthAdjust="spacingAndGlyphs" text-anchor="middle" opacity="0.01" style="font-family:monospace">C2</text>
</g>
<g class="stroked-text"><desc>C2</desc>
<path d="M138.5055 127.4107 L138.6297 127.2865 "/>
<path d="M138.6297 127.2865 L138.7539 126.9138 "/>
<path d="M138.7539 126.9138 L138.7539 126.6654 "/>
<path d="M138.7539 126.6654 L138.6297 126.2927 "/>
<path d="M138.6297 126.2927 L138.3813 126.0443 "/>
<path d="M138.3813 126.0443 L138.1328 125.9200 "/>
<path d="M138.1328 125.9200 L137.6360 125.7958 "/>
<path d="M137.6360 125.7958 L137.2633 125.7958 "/>
<path d="M137.2633 125.7958 L136.7664 125.9200 "/>
<path d="M136.7664 125.9200 L136.5180 126.0443 "/>
<path d="M136.5180 126.0443 L136.2695 126.2927 "/>
<path d="M136.2695 126.2927 L136.1453 126.6654 "/>
<path d="M136.1453 126.6654 L136.1453 126.9138 "/>
<path d="M136.1453 126.9138 L136.2695 127.2865 "/>
<path d="M136.2695 127.2865 L136.3938 127.4107 "/>
<path d="M136.3938 128.4044 L136.2695 128.5287 "/>
<path d="M136.2695 128.5287 L136.1453 128.7771 "/>
<path d="M136.1453 128.7771 L136.1453 129.3982 "/>
<path d="M136.1453 129.3982 L136.2695 129.6466 "/>
<path d="M136.2695 129.6466 L136.3938 129.7708 "/>
<path d="M136.3938 129.7708 L136.6422 129.8951 "/>
<path d="M136.6422 129.8951 L136.8906 129.8951 "/>
<path d="M136.8906 129.8951 L137.2633 129.7708 "/>
<path d="M137.2633 129.7708 L138.7539 128.2802 "/>
<path d="M138.7539 128.2802 L138.7539 129.8951 "/>
</g><g transform="rotate(-90.000000 133.9353 127.1834)">
<text x="133.9353" y="128.4877" transform="scale(-1 1) translate(-267.870582 0)" textLength="17.9198" font-size="3.4781" lengthAdjust="spacingAndGlyphs" text-anchor="middle" opacity="0.01" style="font-family:monospace">1uF/50V</text>
</g>
<g class="stroked-text"><desc>1uF/50V</desc>
<path d="M135.1125 120.6619 L135.1125 119.1712 "/>
<path d="M135.1125 119.9165 L132.5039 119.9165 "/>
<path d="M132.5039 119.9165 L132.8765 119.6681 "/>
<path d="M132.8765 119.6681 L133.1250 119.4197 "/>
<path d="M133.1250 119.4197 L133.2492 119.1712 "/>
<path d="M133.3734 122.8978 L135.1125 122.8978 "/>
<path d="M133.3734 121.7798 L134.7398 121.7798 "/>
<path d="M134.7398 121.7798 L134.9883 121.9040 "/>
<path d="M134.9883 121.9040 L135.1125 122.1525 "/>
<path d="M135.1125 122.1525 L135.1125 122.5251 "/>
<path d="M135.1125 122.5251 L134.9883 122.7736 "/>
<path d="M134.9883 122.7736 L134.8640 122.8978 "/>
<path d="M133.7461 125.0095 L133.7461 124.1400 "/>
<path d="M135.1125 124.1400 L132.5039 124.1400 "/>
<path d="M132.5039 124.1400 L132.5039 125.3822 "/>
<path d="M132.3796 128.2392 L135.7336 126.0033 "/>
<path d="M132.5039 130.3510 L132.5039 129.1088 "/>
<path d="M132.5039 129.1088 L133.7461 128.9845 "/>
<path d="M133.7461 128.9845 L133.6218 129.1088 "/>
<path d="M133.6218 129.1088 L133.4976 129.3572 "/>
<path d="M133.4976 129.3572 L133.4976 129.9783 "/>
<path d="M133.4976 129.9783 L133.6218 130.2267 "/>
<path d="M133.6218 130.2267 L133.7461 130.3510 "/>
<path d="M133.7461 130.3510 L133.9945 130.4752 "/>
<path d="M133.9945 130.4752 L134.6156 130.4752 "/>
<path d="M134.6156 130.4752 L134.8640 130.3510 "/>
<path d="M134.8640 130.3510 L134.9883 130.2267 "/>
<path d="M134.9883 130.2267 L135.1125 129.9783 "/>
<path d="M135.1125 129.9783 L135.1125 129.3572 "/>
<path d="M135.1125 129.3572 L134.9883 129.1088 "/>
<path d="M134.9883 129.1088 L134.8640 128.9845 "/>
<path d="M132.5039 132.0900 L132.5039 132.3385 "/>
<path d="M132.5039 132.3385 L132.6281 132.5869 "/>
<path d="M132.6281 132.5869 L132.7523 132.7111 "/>
<path d="M132.7523 132.7111 L133.0007 132.8353 "/>
<path d="M133.0007 132.8353 L133.4976 132.9596 "/>
<path d="M133.4976 132.9596 L134.1187 132.9596 "/>
<path d="M134.1187 132.9596 L134.6156 132.8353 "/>
<path d="M134.6156 132.8353 L134.8640 132.7111 "/>
<path d="M134.8640 132.7111 L134.9883 132.5869 "/>
<path d="M134.9883 132.5869 L135.1125 132.3385 "/>
<path d="M135.1125 132.3385 L135.1125 132.0900 "/>
<path d="M135.1125 132.0900 L134.9883 131.8416 "/>
<path d="M134.9883 131.8416 L134.8640 131.7174 "/>
<path d="M134.8640 131.7174 L134.6156 131.5932 "/>
<path d="M134.6156 131.5932 L134.1187 131.4689 "/>
<path d="M134.1187 131.4689 L133.4976 131.4689 "/>
<path d="M133.4976 131.4689 L133.0007 131.5932 "/>
<path d="M133.0007 131.5932 L132.7523 131.7174 "/>
<path d="M132.7523 131.7174 L132.6281 131.8416 "/>
<path d="M132.6281 131.8416 L132.5039 132.0900 "/>
<path d="M132.5039 133.7049 L135.1125 134.5744 "/>
<path d="M135.1125 134.5744 L132.5039 135.4439 "/>
</g></g>
<g style="fill:#000084; fill-opacity:0.01;  stroke:#000084; stroke-width:1.5640; stroke-opacity:1;  stroke-linecap:round; stroke-linejoin:round;">
<text x="143.2574" y="153.9977" transform="scale(-1 1) translate(-286.514821 0)" textLength="17.8326" font-size="10.5933" lengthAdjust="spacingAndGlyphs" text-anchor="middle" opacity="0.01" style="font-family:monospace">C5</text>
<g class="stroked-text"><desc>C5</desc>
<path d="M144.5816 152.8627 L144.9599 153.2410 "/>
<path d="M144.9599 153.2410 L146.0949 153.6194 "/>
<path d="M146.0949 153.6194 L146.8516 153.6194 "/>
<path d="M146.8516 153.6194 L147.9866 153.2410 "/>
<path d="M147.9866 153.2410 L148.7432 152.4844 "/>
<path d="M148.7432 152.4844 L149.1216 151.7277 "/>
<path d="M149.1216 151.7277 L149.4999 150.2144 "/>
<path d="M149.4999 150.2144 L149.4999 149.0794 "/>
<path d="M149.4999 149.0794 L149.1216 147.5661 "/>
<path d="M149.1216 147.5661 L148.7432 146.8094 "/>
<path d="M148.7432 146.8094 L147.9866 146.0527 "/>
<path d="M147.9866 146.0527 L146.8516 145.6744 "/>
<path d="M146.8516 145.6744 L146.0949 145.6744 "/>
<path d="M146.0949 145.6744 L144.9599 146.0527 "/>
<path d="M144.9599 146.0527 L144.5816 146.4311 "/>
<path d="M137.3932 145.6744 L141.1766 145.6744 "/>
<path d="M141.1766 145.6744 L141.5549 149.4577 "/>
<path d="M141.5549 149.4577 L141.1766 149.0794 "/>
<path d="M141.1766 149.0794 L140.4199 148.7011 "/>
<path d="M140.4199 148.7011 L138.5282 148.7011 "/>
<path d="M138.5282 148.7011 L137.7716 149.0794 "/>
<path d="M137.7716 149.0794 L137.3932 149.4577 "/>
<path d="M137.3932 149.4577 L137.0149 150.2144 "/>
<path d="M137.0149 150.2144 L137.0149 152.1060 "/>
<path d="M137.0149 152.1060 L137.3932 152.8627 "/>
<path d="M137.3932 152.8627 L137.7716 153.2410 "/>
<path d="M137.7716 153.2410 L138.5282 153.6194 "/>
<path d="M138.5282 153.6194 L140.4199 153.6194 "/>
<path d="M140.4199 153.6194 L141.1766 153.2410 "/>
<path d="M141.1766 153.2410 L141.5549 152.8627 "/>
</g></g>
<g style="fill:#000084; fill-opacity:0.01;  stroke:#000084; stroke-width:0.7820; stroke-opacity:1;  stroke-linecap:round; stroke-linejoin:round;">
<text x="169.8731" y="140.6935" transform="scale(-1 1) translate(-339.746239 0)" textLength="10.0727" font-size="10.4265" lengthAdjust="spacingAndGlyphs" text-anchor="middle" opacity="0.01" style="font-family:monospace">+</text>
<g class="stroked-text"><desc>+</desc>
<path d="M172.8521 137.3815 L166.8941 137.3815 "/>
<path d="M169.8731 140.3605 L169.8731 134.4025 "/>
</g></g>
<g style="fill:#000084; fill-opacity:0.01;  stroke:#000084; stroke-width:0.5694; stroke-opacity:1;  stroke-linecap:round; stroke-linejoin:round;">
<g transform="rotate(-90.000000 124.9972 127.8454)">
<text x="124.9972" y="129.1497" transform="scale(-1 1) translate(-249.994360 0)" textLength="5.9947" font-size="3.4781" lengthAdjust="spacingAndGlyphs" text-anchor="middle" opacity="0.01" style="font-family:monospace">R2</text>
</g>
<g class="stroked-text"><desc>R2</desc>
<path d="M126.1744 127.4107 L124.9322 126.5411 "/>
<path d="M126.1744 125.9200 L123.5658 125.9200 "/>
<path d="M123.5658 125.9200 L123.5658 126.9138 "/>
<path d="M123.5658 126.9138 L123.6900 127.1622 "/>
<path d="M123.6900 127.1622 L123.8142 127.2865 "/>
<path d="M123.8142 127.2865 L124.0626 127.4107 "/>
<path d="M124.0626 127.4107 L124.4353 127.4107 "/>
<path d="M124.4353 127.4107 L124.6837 127.2865 "/>
<path d="M124.6837 127.2865 L124.8079 127.1622 "/>
<path d="M124.8079 127.1622 L124.9322 126.9138 "/>
<path d="M124.9322 126.9138 L124.9322 125.9200 "/>
<path d="M123.8142 128.4044 L123.6900 128.5287 "/>
<path d="M123.6900 128.5287 L123.5658 128.7771 "/>
<path d="M123.5658 128.7771 L123.5658 129.3982 "/>
<path d="M123.5658 129.3982 L123.6900 129.6466 "/>
<path d="M123.6900 129.6466 L123.8142 129.7708 "/>
<path d="M123.8142 129.7708 L124.0626 129.8951 "/>
<path d="M124.0626 129.8951 L124.3111 129.8951 "/>
<path d="M124.3111 129.8951 L124.6837 129.7708 "/>
<path d="M124.6837 129.7708 L126.1744 128.2802 "/>
<path d="M126.1744 128.2802 L126.1744 129.8951 "/>
</g><g transform="rotate(-90.000000 121.3557 127.1834)">
<text x="121.3557" y="128.4877" transform="scale(-1 1) translate(-242.711454 0)" textLength="10.4666" font-size="3.4781" lengthAdjust="spacingAndGlyphs" text-anchor="middle" opacity="0.01" style="font-family:monospace">470k</text>
</g>
<g class="stroked-text"><desc>470k</desc>
<path d="M120.7938 124.1400 L122.5329 124.1400 "/>
<path d="M119.8001 123.5189 L121.6634 122.8978 "/>
<path d="M121.6634 122.8978 L121.6634 124.5127 "/>
<path d="M119.9243 125.2580 L119.9243 126.9970 "/>
<path d="M119.9243 126.9970 L122.5329 125.8791 "/>
<path d="M119.9243 128.4877 L119.9243 128.7361 "/>
<path d="M119.9243 128.7361 L120.0485 128.9845 "/>
<path d="M120.0485 128.9845 L120.1727 129.1088 "/>
<path d="M120.1727 129.1088 L120.4212 129.2330 "/>
<path d="M120.4212 129.2330 L120.9181 129.3572 "/>
<path d="M120.9181 129.3572 L121.5391 129.3572 "/>
<path d="M121.5391 129.3572 L122.0360 129.2330 "/>
<path d="M122.0360 129.2330 L122.2845 129.1088 "/>
<path d="M122.2845 129.1088 L122.4087 128.9845 "/>
<path d="M122.4087 128.9845 L122.5329 128.7361 "/>
<path d="M122.5329 128.7361 L122.5329 128.4877 "/>
<path d="M122.5329 128.4877 L122.4087 128.2392 "/>
<path d="M122.4087 128.2392 L122.2845 128.1150 "/>
<path d="M122.2845 128.1150 L122.0360 127.9908 "/>
<path d="M122.0360 127.9908 L121.5391 127.8666 "/>
<path d="M121.5391 127.8666 L120.9181 127.8666 "/>
<path d="M120.9181 127.8666 L120.4212 127.9908 "/>
<path d="M120.4212 127.9908 L120.1727 128.1150 "/>
<path d="M120.1727 128.1150 L120.0485 128.2392 "/>
<path d="M120.0485 128.2392 L119.9243 128.4877 "/>
<path d="M122.5329 130.4752 L119.9243 130.4752 "/>
<path d="M121.5391 130.7236 L122.5329 131.4689 "/>
<path d="M120.7938 131.4689 L121.7876 130.4752 "/>
</g><text x="130.2938" y="115.2460" transform="scale(-1 1) translate(-260.587677 0)" textLength="5.9947" font-size="3.4781" lengthAdjust="spacingAndGlyphs" text-anchor="middle" opacity="0.01" style="font-family:monospace">R4</text>
<g class="stroked-text"><desc>R4</desc>
<path d="M130.7286 115.1189 L131.5981 113.8767 "/>
<path d="M132.2192 115.1189 L132.2192 112.5103 "/>
<path d="M132.2192 112.5103 L131.2255 112.5103 "/>
<path d="M131.2255 112.5103 L130.9770 112.6345 "/>
<path d="M130.9770 112.6345 L130.8528 112.7587 "/>
<path d="M130.8528 112.7587 L130.7286 113.0072 "/>
<path d="M130.7286 113.0072 L130.7286 113.3798 "/>
<path d="M130.7286 113.3798 L130.8528 113.6283 "/>
<path d="M130.8528 113.6283 L130.9770 113.7525 "/>
<path d="M130.9770 113.7525 L131.2255 113.8767 "/>
<path d="M131.2255 113.8767 L132.2192 113.8767 "/>
<path d="M128.4927 113.3798 L128.4927 115.1189 "/>
<path d="M129.1138 112.3861 L129.7348 114.2494 "/>
<path d="M129.7348 114.2494 L128.1200 114.2494 "/>
</g><text x="130.9559" y="111.6046" transform="scale(-1 1) translate(-261.911842 0)" textLength="10.4666" font-size="3.4781" lengthAdjust="spacingAndGlyphs" text-anchor="middle" opacity="0.01" style="font-family:monospace">120k</text>
<g class="stroked-text"><desc>120k</desc>
<path d="M133.7509 111.4774 L135.2415 111.4774 "/>
<path d="M134.4962 111.4774 L134.4962 108.8688 "/>
<path d="M134.4962 108.8688 L134.7446 109.2415 "/>
<path d="M134.7446 109.2415 L134.9930 109.4899 "/>
<path d="M134.9930 109.4899 L135.2415 109.6142 "/>
<path d="M132.7571 109.1173 L132.6329 108.9931 "/>
<path d="M132.6329 108.9931 L132.3844 108.8688 "/>
<path d="M132.3844 108.8688 L131.7633 108.8688 "/>
<path d="M131.7633 108.8688 L131.5149 108.9931 "/>
<path d="M131.5149 108.9931 L131.3907 109.1173 "/>
<path d="M131.3907 109.1173 L131.2665 109.3657 "/>
<path d="M131.2665 109.3657 L131.2665 109.6142 "/>
<path d="M131.2665 109.6142 L131.3907 109.9868 "/>
<path d="M131.3907 109.9868 L132.8813 111.4774 "/>
<path d="M132.8813 111.4774 L131.2665 111.4774 "/>
<path d="M129.6516 108.8688 L129.4032 108.8688 "/>
<path d="M129.4032 108.8688 L129.1547 108.9931 "/>
<path d="M129.1547 108.9931 L129.0305 109.1173 "/>
<path d="M129.0305 109.1173 L128.9063 109.3657 "/>
<path d="M128.9063 109.3657 L128.7821 109.8626 "/>
<path d="M128.7821 109.8626 L128.7821 110.4837 "/>
<path d="M128.7821 110.4837 L128.9063 110.9806 "/>
<path d="M128.9063 110.9806 L129.0305 111.2290 "/>
<path d="M129.0305 111.2290 L129.1547 111.3532 "/>
<path d="M129.1547 111.3532 L129.4032 111.4774 "/>
<path d="M129.4032 111.4774 L129.6516 111.4774 "/>
<path d="M129.6516 111.4774 L129.9001 111.3532 "/>
<path d="M129.9001 111.3532 L130.0243 111.2290 "/>
<path d="M130.0243 111.2290 L130.1485 110.9806 "/>
<path d="M130.1485 110.9806 L130.2727 110.4837 "/>
<path d="M130.2727 110.4837 L130.2727 109.8626 "/>
<path d="M130.2727 109.8626 L130.1485 109.3657 "/>
<path d="M130.1485 109.3657 L130.0243 109.1173 "/>
<path d="M130.0243 109.1173 L129.9001 108.9931 "/>
<path d="M129.9001 108.9931 L129.6516 108.8688 "/>
<path d="M127.6641 111.4774 L127.6641 108.8688 "/>
<path d="M127.4157 110.4837 L126.6704 111.4774 "/>
<path d="M126.6704 109.7384 L127.6641 110.7321 "/>
</g><text x="131.6180" y="64.2657" transform="scale(-1 1) translate(-263.236006 0)" textLength="5.9947" font-size="3.4781" lengthAdjust="spacingAndGlyphs" text-anchor="middle" opacity="0.01" style="font-family:monospace">C6</text>
<g class="stroked-text"><desc>C6</desc>
<path d="M132.0528 63.8901 L132.1770 64.0143 "/>
<path d="M132.1770 64.0143 L132.5496 64.1386 "/>
<path d="M132.5496 64.1386 L132.7981 64.1386 "/>
<path d="M132.7981 64.1386 L133.1707 64.0143 "/>
<path d="M133.1707 64.0143 L133.4192 63.7659 "/>
<path d="M133.4192 63.7659 L133.5434 63.5175 "/>
<path d="M133.5434 63.5175 L133.6676 63.0206 "/>
<path d="M133.6676 63.0206 L133.6676 62.6479 "/>
<path d="M133.6676 62.6479 L133.5434 62.1510 "/>
<path d="M133.5434 62.1510 L133.4192 61.9026 "/>
<path d="M133.4192 61.9026 L133.1707 61.6542 "/>
<path d="M133.1707 61.6542 L132.7981 61.5300 "/>
<path d="M132.7981 61.5300 L132.5496 61.5300 "/>
<path d="M132.5496 61.5300 L132.1770 61.6542 "/>
<path d="M132.1770 61.6542 L132.0528 61.7784 "/>
<path d="M129.8168 61.5300 L130.3137 61.5300 "/>
<path d="M130.3137 61.5300 L130.5621 61.6542 "/>
<path d="M130.5621 61.6542 L130.6864 61.7784 "/>
<path d="M130.6864 61.7784 L130.9348 62.1510 "/>
<path d="M130.9348 62.1510 L131.0590 62.6479 "/>
<path d="M131.0590 62.6479 L131.0590 63.6417 "/>
<path d="M131.0590 63.6417 L130.9348 63.8901 "/>
<path d="M130.9348 63.8901 L130.8106 64.0143 "/>
<path d="M130.8106 64.0143 L130.5621 64.1386 "/>
<path d="M130.5621 64.1386 L130.0653 64.1386 "/>
<path d="M130.0653 64.1386 L129.8168 64.0143 "/>
<path d="M129.8168 64.0143 L129.6926 63.8901 "/>
<path d="M129.6926 63.8901 L129.5684 63.6417 "/>
<path d="M129.5684 63.6417 L129.5684 63.0206 "/>
<path d="M129.5684 63.0206 L129.6926 62.7721 "/>
<path d="M129.6926 62.7721 L129.8168 62.6479 "/>
<path d="M129.8168 62.6479 L130.0653 62.5237 "/>
<path d="M130.0653 62.5237 L130.5621 62.5237 "/>
<path d="M130.5621 62.5237 L130.8106 62.6479 "/>
<path d="M130.8106 62.6479 L130.9348 62.7721 "/>
<path d="M130.9348 62.7721 L131.0590 63.0206 "/>
</g><text x="130.9559" y="67.9071" transform="scale(-1 1) translate(-261.911842 0)" textLength="8.2307" font-size="3.4781" lengthAdjust="spacingAndGlyphs" text-anchor="middle" opacity="0.01" style="font-family:monospace">4u7</text>
<g class="stroked-text"><desc>4u7</desc>
<path d="M132.8813 66.0409 L132.8813 67.7800 "/>
<path d="M133.5024 65.0472 L134.1235 66.9105 "/>
<path d="M134.1235 66.9105 L132.5087 66.9105 "/>
<path d="M130.3969 66.0409 L130.3969 67.7800 "/>
<path d="M131.5149 66.0409 L131.5149 67.4074 "/>
<path d="M131.5149 67.4074 L131.3907 67.6558 "/>
<path d="M131.3907 67.6558 L131.1422 67.7800 "/>
<path d="M131.1422 67.7800 L130.7696 67.7800 "/>
<path d="M130.7696 67.7800 L130.5211 67.6558 "/>
<path d="M130.5211 67.6558 L130.3969 67.5316 "/>
<path d="M129.4032 65.1714 L127.6641 65.1714 "/>
<path d="M127.6641 65.1714 L128.7821 67.7800 "/>
</g></g>
<g style="fill:#000084; fill-opacity:0.0;  stroke:#000084; stroke-width:0.5213; stroke-opacity:1;  stroke-linecap:round; stroke-linejoin:round;">
<path d="M144.6954 128.9116 L165.5484 128.9116 "/>
<path d="M155.1166 120.3068 L151.2103 114.3083 "/>
<path d="M144.6954 104.9306 L144.6954 128.9116 "/>
<path d="M155.1166 114.3083 L155.1166 109.1043 "/>
<path d="M155.1166 120.3068 L155.1166 125.0076 "/>
<path d="M159.2877 120.3068 L150.9455 120.3068 "/>
<path d="M165.5484 104.9306 L165.5484 128.9116 "/>
<path d="M151.2103 114.3083 L159.2877 114.3083 "/>
<path d="M155.1166 120.3068 L159.2877 114.3083 "/>
<path d="M165.5484 104.9306 L144.6954 104.9306 "/>
</g>
<g style="fill:#000084; fill-opacity:0.0;  stroke:#000084; stroke-width:0.7820; stroke-opacity:1;  stroke-linecap:round; stroke-linejoin:round;">
<path d="M117.3832 69.2512 L117.3832 63.9545 "/>
<path d="M109.4382 63.9545 L109.4382 69.2512 "/>
<path d="M109.4382 53.3612 L109.4382 58.6578 "/>
<path d="M117.3832 53.3612 L109.4382 53.3612 "/>
<path d="M109.4382 69.2512 L117.3832 69.2512 "/>
<path d="M117.3832 58.6578 L117.3832 53.3612 "/>
</g>
<g style="fill:#000084; fill-opacity:0.0;  stroke:#000084; stroke-width:0.5213; stroke-opacity:1;  stroke-linecap:round; stroke-linejoin:round;">
<path d="M133.6746 92.0643 L137.0632 88.6757 "/>
<path d="M133.6746 92.0643 L120.9022 92.0643 "/>
<path d="M137.0632 82.6805 L137.0632 88.6757 "/>
<path d="M137.0632 82.6805 L120.9022 82.6805 "/>
<path d="M120.9022 82.6805 L120.9022 92.0643 "/>
<path d="M146.4158 48.0854 L148.5011 51.2133 "/>
<path d="M150.5864 48.0854 L146.4158 48.0854 "/>
<path d="M148.5011 51.2133 L150.5864 48.0854 "/>
<path d="M144.3305 40.7868 L144.3305 57.9905 "/>
<path d="M152.6717 57.9905 L152.6717 40.7868 "/>
<path d="M148.5011 53.2986 L148.5011 51.2133 "/>
<path d="M148.5011 51.2133 L151.3684 51.2133 "/>
<path d="M144.3305 57.9905 L152.6717 57.9905 "/>
<path d="M148.5011 51.2133 L145.6338 51.2133 "/>
<path d="M152.6717 40.7868 L144.3305 40.7868 "/>
<path d="M148.5011 48.0854 L148.5011 45.4788 "/>
</g>
<g style="fill:#000084; fill-opacity:0.0;  stroke:#000084; stroke-width:0.7820; stroke-opacity:1;  stroke-linecap:round; stroke-linejoin:round;">
<path d="M115.3970 135.7904 L115.3970 130.4938 "/>
<path d="M115.3970 125.1971 L115.3970 119.9005 "/>
<path d="M107.4520 135.7904 L115.3970 135.7904 "/>
<path d="M115.3970 119.9005 L107.4520 119.9005 "/>
<path d="M107.4520 130.4938 L107.4520 135.7904 "/>
<path d="M107.4520 119.9005 L107.4520 125.1971 "/>
<path d="M139.8940 119.9005 L131.9490 119.9005 "/>
<path d="M131.9490 119.9005 L131.9490 125.1971 "/>
<path d="M131.9490 130.4938 L131.9490 135.7904 "/>
<path d="M131.9490 135.7904 L139.8940 135.7904 "/>
<path d="M139.8940 135.7904 L139.8940 130.4938 "/>
<path d="M139.8940 125.1971 L139.8940 119.9005 "/>
<path d="M128.1487 141.1665 L159.4255 141.1665 "/>
<path d="M128.2679 158.8839 L159.5446 158.8839 "/>
<path d="M119.3695 130.4938 L119.3695 135.7904 "/>
<path d="M119.3695 135.7904 L127.3145 135.7904 "/>
<path d="M127.3145 135.7904 L127.3145 130.4938 "/>
<path d="M127.3145 119.9005 L119.3695 119.9005 "/>
<path d="M127.3145 125.1971 L127.3145 119.9005 "/>
<path d="M119.3695 119.9005 L119.3695 125.1971 "/>
<path d="M122.3489 116.2590 L127.6455 116.2590 "/>
<path d="M132.9422 116.2590 L138.2388 116.2590 "/>
<path d="M138.2388 108.3140 L132.9422 108.3140 "/>
<path d="M122.3489 108.3140 L122.3489 116.2590 "/>
<path d="M127.6455 108.3140 L122.3489 108.3140 "/>
<path d="M138.2388 116.2590 L138.2388 108.3140 "/>
<path d="M128.9697 60.6441 L123.6730 60.6441 "/>
<path d="M123.6730 60.6441 L123.6730 68.5891 "/>
<path d="M123.6730 68.5891 L128.9697 68.5891 "/>
<path d="M139.5630 60.6441 L134.2663 60.6441 "/>
<path d="M134.2663 68.5891 L139.5630 68.5891 "/>
<path d="M139.5630 68.5891 L139.5630 60.6441 "/>
<g>
</g>
<g>
</g>
<g>
</g>
<g>
</g>
<g>
</g>
<g>
</g>
<g>
</g>
<g>
</g>
<g>
</g>
<g>
</g>
<g>
</g>
<g>
</g>
<g>
</g>
<g>
</g>
<g>
</g>
<g>
</g>
<g>
</g>
<g>
</g>
<g>
</g>
<g>
</g>
<g>
</g>
</g> 
<svg:g><svg:g><svg:title>SVG Image created as STEPUPDC02-Edge_Cuts.svg date 2023/07/05 13:05:24 </svg:title>
  <svg:desc>Image generated by PCBNEW </svg:desc>
<svg:g style="fill:#C2C200; fill-opacity:1.0000;stroke:#C2C200; stroke-opacity:1.0000; stroke-linecap:round; stroke-linejoin:round;" transform="translate(0 0) scale(1 1)">
</svg:g>
<svg:g style="fill:#C2C200; fill-opacity:0.0;  stroke:#C2C200; stroke-width:0.0000; stroke-opacity:1;  stroke-linecap:round; stroke-linejoin:round;">
</svg:g>
<svg:g style="fill:#C2C200; fill-opacity:0.0;  stroke:#C2C200; stroke-width:0.7820; stroke-opacity:1;  stroke-linecap:round; stroke-linejoin:round;">
<svg:path d="M200.1435 209.6126 L200.1435 0.3946 "/>
<svg:path d="M96.8587 209.6126 L200.1435 209.6126 "/>
<svg:path d="M96.8587 209.6126 L96.8587 0.3946 "/>
<svg:path d="M96.8587 0.3946 L200.1435 0.3946 "/>
<svg:g>
</svg:g>
<svg:g>
</svg:g>
<svg:g>
</svg:g>
<svg:g>
</svg:g>
<svg:g>
</svg:g>
<svg:g>
</svg:g>
<svg:g>
</svg:g>
<svg:g>
</svg:g>
<svg:g>
</svg:g>
<svg:g>
</svg:g>
<svg:g>
</svg:g>
<svg:g>
</svg:g>
<svg:g>
</svg:g>
<svg:g>
</svg:g>
<svg:g>
</svg:g>
<svg:g>
</svg:g>
<svg:g>
</svg:g>
<svg:g>
</svg:g>
<svg:g>
</svg:g>
<svg:g>
</svg:g>
<svg:g>
</svg:g>
</svg:g> 
</svg:g></svg:g></svg>
