%TF.GenerationSoftware,KiCad,Pcbnew,6.0.11+dfsg-1~bpo11+1*%
%TF.CreationDate,2023-07-05T12:10:32+00:00*%
%TF.ProjectId,STEPUPDC02,53544550-5550-4444-9330-322e6b696361,rev?*%
%TF.SameCoordinates,Original*%
%TF.FileFunction,Copper,L1,Top*%
%TF.FilePolarity,Positive*%
%FSLAX46Y46*%
G04 Gerber Fmt 4.6, Leading zero omitted, Abs format (unit mm)*
G04 Created by KiCad (PCBNEW 6.0.11+dfsg-1~bpo11+1) date 2023-07-05 12:10:32*
%MOMM*%
%LPD*%
G01*
G04 APERTURE LIST*
%TA.AperFunction,ComponentPad*%
%ADD10C,6.000000*%
%TD*%
%TA.AperFunction,ComponentPad*%
%ADD11R,1.524000X1.524000*%
%TD*%
%TA.AperFunction,ViaPad*%
%ADD12C,0.800000*%
%TD*%
%TA.AperFunction,Conductor*%
%ADD13C,0.500000*%
%TD*%
G04 APERTURE END LIST*
D10*
%TO.P,M1,1*%
%TO.N,N/C*%
X15240000Y35560000D03*
%TD*%
%TO.P,M2,1*%
%TO.N,N/C*%
X15240000Y5080000D03*
%TD*%
%TO.P,M3,1*%
%TO.N,N/C*%
X5080000Y5080000D03*
%TD*%
%TO.P,M4,1*%
%TO.N,N/C*%
X5080000Y35560000D03*
%TD*%
D11*
%TO.P,J1,1*%
%TO.N,GND*%
X15748000Y29591000D03*
%TO.P,J1,2*%
X18288000Y29591000D03*
%TO.P,J1,3*%
%TO.N,/Power*%
X15748000Y27051000D03*
%TO.P,J1,4*%
X18288000Y27051000D03*
%TO.P,J1,5*%
%TO.N,GND*%
X15748000Y24511000D03*
%TO.P,J1,6*%
X18288000Y24511000D03*
%TD*%
%TO.P,J2,1*%
%TO.N,GND*%
X2540000Y22479000D03*
%TO.P,J2,2*%
%TO.N,/ENABLE*%
X2540000Y25019000D03*
%TD*%
%TO.P,J4,1*%
%TO.N,GND*%
X15748000Y17780000D03*
%TO.P,J4,2*%
X18288000Y17780000D03*
%TO.P,J4,3*%
%TO.N,/PowerOUT*%
X15748000Y15240000D03*
%TO.P,J4,4*%
X18288000Y15240000D03*
%TO.P,J4,5*%
X15748000Y12700000D03*
%TO.P,J4,6*%
X18288000Y12700000D03*
%TO.P,J4,7*%
%TO.N,GND*%
X15748000Y10160000D03*
%TO.P,J4,8*%
X18288000Y10160000D03*
%TD*%
D12*
%TO.N,GND*%
X1397000Y13462000D03*
X2794000Y13462000D03*
X11811000Y18034000D03*
X4953000Y26670000D03*
X16891000Y19558000D03*
X4826000Y12573000D03*
X9017000Y19685000D03*
X8001000Y20574000D03*
X4826000Y11303000D03*
X18415000Y19558000D03*
X9271000Y17018000D03*
X12700000Y29591000D03*
X4191000Y22479000D03*
X4826000Y10160000D03*
X9017000Y18288000D03*
X13970000Y29591000D03*
X18415000Y22733000D03*
X6350000Y26670000D03*
X10033000Y18033998D03*
X6731000Y20574000D03*
X1397000Y14859000D03*
X15748000Y22733000D03*
X15621000Y19558000D03*
X4826000Y28702000D03*
X17018000Y22733000D03*
X3937000Y13462000D03*
%TD*%
D13*
%TO.N,GND*%
X2794000Y13462000D02*
X1397000Y13462000D01*
X13970000Y29591000D02*
X12700000Y29591000D01*
X9778998Y18288000D02*
X10033000Y18033998D01*
X4826000Y12573000D02*
X3937000Y13462000D01*
X4826000Y10160000D02*
X4826000Y11303000D01*
X6731000Y20574000D02*
X8001000Y20574000D01*
X9017000Y18288000D02*
X9778998Y18288000D01*
X9017000Y19685000D02*
X9017000Y18288000D01*
X15621000Y19558000D02*
X16891000Y19558000D01*
X6350000Y26670000D02*
X4953000Y26670000D01*
X15748000Y22733000D02*
X17018000Y22733000D01*
%TD*%
%TA.AperFunction,Conductor*%
%TO.N,GND*%
G36*
X19707621Y40065498D02*
G01*
X19754114Y40011842D01*
X19765500Y39959500D01*
X19765500Y680500D01*
X19745498Y612379D01*
X19691842Y565886D01*
X19639500Y554500D01*
X680500Y554500D01*
X612379Y574502D01*
X565886Y628158D01*
X554500Y680500D01*
X554500Y5135923D01*
X1075065Y5135923D01*
X1088722Y4744843D01*
X1140477Y4356962D01*
X1229834Y3975983D01*
X1230823Y3973077D01*
X1230825Y3973071D01*
X1354950Y3608457D01*
X1354955Y3608445D01*
X1355943Y3605542D01*
X1517598Y3249174D01*
X1713258Y2910283D01*
X1715047Y2907784D01*
X1715049Y2907781D01*
X1812831Y2771201D01*
X1941053Y2592101D01*
X2198810Y2297667D01*
X2484069Y2029792D01*
X2794107Y1791031D01*
X2796710Y1789404D01*
X2796715Y1789401D01*
X2915687Y1715059D01*
X3125964Y1583663D01*
X3476472Y1409669D01*
X3842287Y1270710D01*
X4219915Y1168110D01*
X4222958Y1167595D01*
X4222964Y1167594D01*
X4602713Y1103364D01*
X4602720Y1103363D01*
X4605754Y1102850D01*
X4608825Y1102635D01*
X4608827Y1102635D01*
X4993053Y1075767D01*
X4993061Y1075767D01*
X4996119Y1075553D01*
X5249704Y1082637D01*
X5384211Y1086394D01*
X5384214Y1086394D01*
X5387285Y1086480D01*
X5390338Y1086866D01*
X5390342Y1086866D01*
X5576145Y1110338D01*
X5775517Y1135525D01*
X5778521Y1136207D01*
X5778524Y1136208D01*
X6154115Y1221540D01*
X6154121Y1221542D01*
X6157111Y1222221D01*
X6302875Y1270710D01*
X6525500Y1344767D01*
X6525506Y1344769D01*
X6528424Y1345740D01*
X6669551Y1408574D01*
X6883111Y1503657D01*
X6883117Y1503660D01*
X6885911Y1504904D01*
X6888580Y1506420D01*
X7223492Y1696676D01*
X7223498Y1696680D01*
X7226160Y1698192D01*
X7545924Y1923761D01*
X7842150Y2179456D01*
X7844271Y2181683D01*
X7844277Y2181689D01*
X8109894Y2460615D01*
X8112011Y2462838D01*
X8211192Y2589783D01*
X8351021Y2768756D01*
X8351023Y2768759D01*
X8352931Y2771201D01*
X8354587Y2773811D01*
X8354593Y2773819D01*
X8560957Y3098997D01*
X8560959Y3099000D01*
X8562610Y3101602D01*
X8739046Y3450888D01*
X8880557Y3815723D01*
X8985790Y4192626D01*
X9053742Y4578000D01*
X9066580Y4744843D01*
X9083613Y4966211D01*
X9083613Y4966222D01*
X9083763Y4968165D01*
X9085325Y5080000D01*
X9082590Y5135923D01*
X11235065Y5135923D01*
X11248722Y4744843D01*
X11300477Y4356962D01*
X11389834Y3975983D01*
X11390823Y3973077D01*
X11390825Y3973071D01*
X11514950Y3608457D01*
X11514955Y3608445D01*
X11515943Y3605542D01*
X11677598Y3249174D01*
X11873258Y2910283D01*
X11875047Y2907784D01*
X11875049Y2907781D01*
X11972831Y2771201D01*
X12101053Y2592101D01*
X12358810Y2297667D01*
X12644069Y2029792D01*
X12954107Y1791031D01*
X12956710Y1789404D01*
X12956715Y1789401D01*
X13075687Y1715059D01*
X13285964Y1583663D01*
X13636472Y1409669D01*
X14002287Y1270710D01*
X14379915Y1168110D01*
X14382958Y1167595D01*
X14382964Y1167594D01*
X14762713Y1103364D01*
X14762720Y1103363D01*
X14765754Y1102850D01*
X14768825Y1102635D01*
X14768827Y1102635D01*
X15153053Y1075767D01*
X15153061Y1075767D01*
X15156119Y1075553D01*
X15409704Y1082637D01*
X15544211Y1086394D01*
X15544214Y1086394D01*
X15547285Y1086480D01*
X15550338Y1086866D01*
X15550342Y1086866D01*
X15736145Y1110338D01*
X15935517Y1135525D01*
X15938521Y1136207D01*
X15938524Y1136208D01*
X16314115Y1221540D01*
X16314121Y1221542D01*
X16317111Y1222221D01*
X16462875Y1270710D01*
X16685500Y1344767D01*
X16685506Y1344769D01*
X16688424Y1345740D01*
X16829551Y1408574D01*
X17043111Y1503657D01*
X17043117Y1503660D01*
X17045911Y1504904D01*
X17048580Y1506420D01*
X17383492Y1696676D01*
X17383498Y1696680D01*
X17386160Y1698192D01*
X17705924Y1923761D01*
X18002150Y2179456D01*
X18004271Y2181683D01*
X18004277Y2181689D01*
X18269894Y2460615D01*
X18272011Y2462838D01*
X18371192Y2589783D01*
X18511021Y2768756D01*
X18511023Y2768759D01*
X18512931Y2771201D01*
X18514587Y2773811D01*
X18514593Y2773819D01*
X18720957Y3098997D01*
X18720959Y3099000D01*
X18722610Y3101602D01*
X18899046Y3450888D01*
X19040557Y3815723D01*
X19145790Y4192626D01*
X19213742Y4578000D01*
X19226580Y4744843D01*
X19243613Y4966211D01*
X19243613Y4966222D01*
X19243763Y4968165D01*
X19245325Y5080000D01*
X19226209Y5470851D01*
X19169044Y5857972D01*
X19074376Y6237666D01*
X18943107Y6606311D01*
X18776492Y6960386D01*
X18747167Y7009580D01*
X18577700Y7293862D01*
X18576120Y7296513D01*
X18343905Y7611483D01*
X18082061Y7902289D01*
X17793090Y8166156D01*
X17479749Y8400565D01*
X17426075Y8433071D01*
X17147658Y8601687D01*
X17147649Y8601692D01*
X17145030Y8603278D01*
X16792126Y8772362D01*
X16789237Y8773414D01*
X16789231Y8773416D01*
X16427306Y8905145D01*
X16427303Y8905146D01*
X16424407Y8906200D01*
X16147326Y8977342D01*
X16048366Y9002751D01*
X16048363Y9002752D01*
X16045382Y9003517D01*
X15658670Y9063383D01*
X15655613Y9063554D01*
X15655612Y9063554D01*
X15625120Y9065259D01*
X15267962Y9085227D01*
X15264883Y9085098D01*
X15264880Y9085098D01*
X15008770Y9074364D01*
X14876987Y9068841D01*
X14873943Y9068413D01*
X14873941Y9068413D01*
X14839368Y9063554D01*
X14489477Y9014380D01*
X14109131Y8922364D01*
X13739579Y8793673D01*
X13736781Y8792380D01*
X13387146Y8630826D01*
X13387136Y8630821D01*
X13384349Y8629533D01*
X13275829Y8565865D01*
X13049486Y8433071D01*
X13049481Y8433068D01*
X13046831Y8431513D01*
X13006433Y8402162D01*
X12732730Y8203306D01*
X12732721Y8203299D01*
X12730248Y8201502D01*
X12727958Y8199469D01*
X12727952Y8199464D01*
X12439924Y7943740D01*
X12437621Y7941695D01*
X12171743Y7654573D01*
X11935152Y7342876D01*
X11730107Y7009580D01*
X11558564Y6657865D01*
X11422162Y6291090D01*
X11322201Y5912754D01*
X11259637Y5526469D01*
X11235065Y5135923D01*
X9082590Y5135923D01*
X9066209Y5470851D01*
X9009044Y5857972D01*
X8914376Y6237666D01*
X8783107Y6606311D01*
X8616492Y6960386D01*
X8587167Y7009580D01*
X8417700Y7293862D01*
X8416120Y7296513D01*
X8183905Y7611483D01*
X7922061Y7902289D01*
X7633090Y8166156D01*
X7319749Y8400565D01*
X7266075Y8433071D01*
X6987658Y8601687D01*
X6987649Y8601692D01*
X6985030Y8603278D01*
X6632126Y8772362D01*
X6629237Y8773414D01*
X6629231Y8773416D01*
X6267306Y8905145D01*
X6267303Y8905146D01*
X6264407Y8906200D01*
X5987326Y8977342D01*
X5888366Y9002751D01*
X5888363Y9002752D01*
X5885382Y9003517D01*
X5498670Y9063383D01*
X5495613Y9063554D01*
X5495612Y9063554D01*
X5465120Y9065259D01*
X5107962Y9085227D01*
X5104883Y9085098D01*
X5104880Y9085098D01*
X4848770Y9074364D01*
X4716987Y9068841D01*
X4713943Y9068413D01*
X4713941Y9068413D01*
X4679368Y9063554D01*
X4329477Y9014380D01*
X3949131Y8922364D01*
X3579579Y8793673D01*
X3576781Y8792380D01*
X3227146Y8630826D01*
X3227136Y8630821D01*
X3224349Y8629533D01*
X3115829Y8565865D01*
X2889486Y8433071D01*
X2889481Y8433068D01*
X2886831Y8431513D01*
X2846433Y8402162D01*
X2572730Y8203306D01*
X2572721Y8203299D01*
X2570248Y8201502D01*
X2567958Y8199469D01*
X2567952Y8199464D01*
X2279924Y7943740D01*
X2277621Y7941695D01*
X2011743Y7654573D01*
X1775152Y7342876D01*
X1570107Y7009580D01*
X1398564Y6657865D01*
X1262162Y6291090D01*
X1162201Y5912754D01*
X1099637Y5526469D01*
X1075065Y5135923D01*
X554500Y5135923D01*
X554500Y11893354D01*
X14685500Y11893354D01*
X14688618Y11867154D01*
X14734061Y11764847D01*
X14813287Y11685759D01*
X14823924Y11681056D01*
X14823926Y11681055D01*
X14883462Y11654735D01*
X14915673Y11640494D01*
X14941354Y11637500D01*
X16554646Y11637500D01*
X16558350Y11637941D01*
X16558353Y11637941D01*
X16565746Y11638821D01*
X16580846Y11640618D01*
X16683153Y11686061D01*
X16762241Y11765287D01*
X16807506Y11867673D01*
X16810500Y11893354D01*
X17225500Y11893354D01*
X17228618Y11867154D01*
X17274061Y11764847D01*
X17353287Y11685759D01*
X17363924Y11681056D01*
X17363926Y11681055D01*
X17423462Y11654735D01*
X17455673Y11640494D01*
X17481354Y11637500D01*
X19094646Y11637500D01*
X19098350Y11637941D01*
X19098353Y11637941D01*
X19105746Y11638821D01*
X19120846Y11640618D01*
X19223153Y11686061D01*
X19302241Y11765287D01*
X19347506Y11867673D01*
X19350500Y11893354D01*
X19350500Y13506646D01*
X19347382Y13532846D01*
X19301939Y13635153D01*
X19222713Y13714241D01*
X19212076Y13718944D01*
X19212074Y13718945D01*
X19152538Y13745265D01*
X19120327Y13759506D01*
X19094646Y13762500D01*
X17481354Y13762500D01*
X17477650Y13762059D01*
X17477647Y13762059D01*
X17470254Y13761179D01*
X17455154Y13759382D01*
X17352847Y13713939D01*
X17273759Y13634713D01*
X17228494Y13532327D01*
X17225500Y13506646D01*
X17225500Y11893354D01*
X16810500Y11893354D01*
X16810500Y13506646D01*
X16807382Y13532846D01*
X16761939Y13635153D01*
X16682713Y13714241D01*
X16672076Y13718944D01*
X16672074Y13718945D01*
X16612538Y13745265D01*
X16580327Y13759506D01*
X16554646Y13762500D01*
X14941354Y13762500D01*
X14937650Y13762059D01*
X14937647Y13762059D01*
X14930254Y13761179D01*
X14915154Y13759382D01*
X14812847Y13713939D01*
X14733759Y13634713D01*
X14688494Y13532327D01*
X14685500Y13506646D01*
X14685500Y11893354D01*
X554500Y11893354D01*
X554500Y14433354D01*
X14685500Y14433354D01*
X14688618Y14407154D01*
X14734061Y14304847D01*
X14813287Y14225759D01*
X14823924Y14221056D01*
X14823926Y14221055D01*
X14883462Y14194735D01*
X14915673Y14180494D01*
X14941354Y14177500D01*
X16554646Y14177500D01*
X16558350Y14177941D01*
X16558353Y14177941D01*
X16565746Y14178821D01*
X16580846Y14180618D01*
X16683153Y14226061D01*
X16762241Y14305287D01*
X16807506Y14407673D01*
X16810500Y14433354D01*
X17225500Y14433354D01*
X17228618Y14407154D01*
X17274061Y14304847D01*
X17353287Y14225759D01*
X17363924Y14221056D01*
X17363926Y14221055D01*
X17423462Y14194735D01*
X17455673Y14180494D01*
X17481354Y14177500D01*
X19094646Y14177500D01*
X19098350Y14177941D01*
X19098353Y14177941D01*
X19105746Y14178821D01*
X19120846Y14180618D01*
X19223153Y14226061D01*
X19302241Y14305287D01*
X19347506Y14407673D01*
X19350500Y14433354D01*
X19350500Y16046646D01*
X19347382Y16072846D01*
X19301939Y16175153D01*
X19222713Y16254241D01*
X19212076Y16258944D01*
X19212074Y16258945D01*
X19152538Y16285265D01*
X19120327Y16299506D01*
X19094646Y16302500D01*
X17481354Y16302500D01*
X17477650Y16302059D01*
X17477647Y16302059D01*
X17470254Y16301179D01*
X17455154Y16299382D01*
X17352847Y16253939D01*
X17273759Y16174713D01*
X17228494Y16072327D01*
X17225500Y16046646D01*
X17225500Y14433354D01*
X16810500Y14433354D01*
X16810500Y16046646D01*
X16807382Y16072846D01*
X16761939Y16175153D01*
X16682713Y16254241D01*
X16672076Y16258944D01*
X16672074Y16258945D01*
X16612538Y16285265D01*
X16580327Y16299506D01*
X16554646Y16302500D01*
X14941354Y16302500D01*
X14937650Y16302059D01*
X14937647Y16302059D01*
X14930254Y16301179D01*
X14915154Y16299382D01*
X14812847Y16253939D01*
X14733759Y16174713D01*
X14688494Y16072327D01*
X14685500Y16046646D01*
X14685500Y14433354D01*
X554500Y14433354D01*
X554500Y24212354D01*
X1477500Y24212354D01*
X1480618Y24186154D01*
X1526061Y24083847D01*
X1605287Y24004759D01*
X1615924Y24000056D01*
X1615926Y24000055D01*
X1675462Y23973735D01*
X1707673Y23959494D01*
X1733354Y23956500D01*
X3346646Y23956500D01*
X3350350Y23956941D01*
X3350353Y23956941D01*
X3357746Y23957821D01*
X3372846Y23959618D01*
X3475153Y24005061D01*
X3554241Y24084287D01*
X3599506Y24186673D01*
X3602500Y24212354D01*
X3602500Y25825646D01*
X3599382Y25851846D01*
X3553939Y25954153D01*
X3474713Y26033241D01*
X3464076Y26037944D01*
X3464074Y26037945D01*
X3404538Y26064265D01*
X3372327Y26078506D01*
X3346646Y26081500D01*
X1733354Y26081500D01*
X1729650Y26081059D01*
X1729647Y26081059D01*
X1722254Y26080179D01*
X1707154Y26078382D01*
X1604847Y26032939D01*
X1596628Y26024706D01*
X1596627Y26024705D01*
X1565142Y25993165D01*
X1525759Y25953713D01*
X1480494Y25851327D01*
X1477500Y25825646D01*
X1477500Y24212354D01*
X554500Y24212354D01*
X554500Y26244354D01*
X14685500Y26244354D01*
X14688618Y26218154D01*
X14734061Y26115847D01*
X14813287Y26036759D01*
X14823924Y26032056D01*
X14823926Y26032055D01*
X14883462Y26005735D01*
X14915673Y25991494D01*
X14941354Y25988500D01*
X16554646Y25988500D01*
X16558350Y25988941D01*
X16558353Y25988941D01*
X16565746Y25989821D01*
X16580846Y25991618D01*
X16683153Y26037061D01*
X16720702Y26074675D01*
X16754023Y26108055D01*
X16762241Y26116287D01*
X16807506Y26218673D01*
X16810500Y26244354D01*
X17225500Y26244354D01*
X17228618Y26218154D01*
X17274061Y26115847D01*
X17353287Y26036759D01*
X17363924Y26032056D01*
X17363926Y26032055D01*
X17423462Y26005735D01*
X17455673Y25991494D01*
X17481354Y25988500D01*
X19094646Y25988500D01*
X19098350Y25988941D01*
X19098353Y25988941D01*
X19105746Y25989821D01*
X19120846Y25991618D01*
X19223153Y26037061D01*
X19260702Y26074675D01*
X19294023Y26108055D01*
X19302241Y26116287D01*
X19347506Y26218673D01*
X19350500Y26244354D01*
X19350500Y27857646D01*
X19347382Y27883846D01*
X19301939Y27986153D01*
X19222713Y28065241D01*
X19212076Y28069944D01*
X19212074Y28069945D01*
X19152538Y28096265D01*
X19120327Y28110506D01*
X19094646Y28113500D01*
X17481354Y28113500D01*
X17477650Y28113059D01*
X17477647Y28113059D01*
X17470254Y28112179D01*
X17455154Y28110382D01*
X17352847Y28064939D01*
X17273759Y27985713D01*
X17228494Y27883327D01*
X17225500Y27857646D01*
X17225500Y26244354D01*
X16810500Y26244354D01*
X16810500Y27857646D01*
X16807382Y27883846D01*
X16761939Y27986153D01*
X16682713Y28065241D01*
X16672076Y28069944D01*
X16672074Y28069945D01*
X16612538Y28096265D01*
X16580327Y28110506D01*
X16554646Y28113500D01*
X14941354Y28113500D01*
X14937650Y28113059D01*
X14937647Y28113059D01*
X14930254Y28112179D01*
X14915154Y28110382D01*
X14812847Y28064939D01*
X14733759Y27985713D01*
X14688494Y27883327D01*
X14685500Y27857646D01*
X14685500Y26244354D01*
X554500Y26244354D01*
X554500Y35615923D01*
X1075065Y35615923D01*
X1088722Y35224843D01*
X1140477Y34836962D01*
X1229834Y34455983D01*
X1230823Y34453077D01*
X1230825Y34453071D01*
X1354950Y34088457D01*
X1354955Y34088445D01*
X1355943Y34085542D01*
X1517598Y33729174D01*
X1713258Y33390283D01*
X1715047Y33387784D01*
X1715049Y33387781D01*
X1812831Y33251201D01*
X1941053Y33072101D01*
X2198810Y32777667D01*
X2484069Y32509792D01*
X2794107Y32271031D01*
X2796710Y32269404D01*
X2796715Y32269401D01*
X2915687Y32195059D01*
X3125964Y32063663D01*
X3476472Y31889669D01*
X3842287Y31750710D01*
X4219915Y31648110D01*
X4222958Y31647595D01*
X4222964Y31647594D01*
X4602713Y31583364D01*
X4602720Y31583363D01*
X4605754Y31582850D01*
X4608825Y31582635D01*
X4608827Y31582635D01*
X4993053Y31555767D01*
X4993061Y31555767D01*
X4996119Y31555553D01*
X5249704Y31562637D01*
X5384211Y31566394D01*
X5384214Y31566394D01*
X5387285Y31566480D01*
X5390338Y31566866D01*
X5390342Y31566866D01*
X5576145Y31590338D01*
X5775517Y31615525D01*
X5778521Y31616207D01*
X5778524Y31616208D01*
X6154115Y31701540D01*
X6154121Y31701542D01*
X6157111Y31702221D01*
X6302875Y31750710D01*
X6525500Y31824767D01*
X6525506Y31824769D01*
X6528424Y31825740D01*
X6669551Y31888574D01*
X6883111Y31983657D01*
X6883117Y31983660D01*
X6885911Y31984904D01*
X6888580Y31986420D01*
X7223492Y32176676D01*
X7223498Y32176680D01*
X7226160Y32178192D01*
X7545924Y32403761D01*
X7842150Y32659456D01*
X7844271Y32661683D01*
X7844277Y32661689D01*
X8109894Y32940615D01*
X8112011Y32942838D01*
X8211192Y33069783D01*
X8351021Y33248756D01*
X8351023Y33248759D01*
X8352931Y33251201D01*
X8354587Y33253811D01*
X8354593Y33253819D01*
X8560957Y33578997D01*
X8560959Y33579000D01*
X8562610Y33581602D01*
X8739046Y33930888D01*
X8880557Y34295723D01*
X8985790Y34672626D01*
X9053742Y35058000D01*
X9066580Y35224843D01*
X9083613Y35446211D01*
X9083613Y35446222D01*
X9083763Y35448165D01*
X9085325Y35560000D01*
X9082590Y35615923D01*
X11235065Y35615923D01*
X11248722Y35224843D01*
X11300477Y34836962D01*
X11389834Y34455983D01*
X11390823Y34453077D01*
X11390825Y34453071D01*
X11514950Y34088457D01*
X11514955Y34088445D01*
X11515943Y34085542D01*
X11677598Y33729174D01*
X11873258Y33390283D01*
X11875047Y33387784D01*
X11875049Y33387781D01*
X11972831Y33251201D01*
X12101053Y33072101D01*
X12358810Y32777667D01*
X12644069Y32509792D01*
X12954107Y32271031D01*
X12956710Y32269404D01*
X12956715Y32269401D01*
X13075687Y32195059D01*
X13285964Y32063663D01*
X13636472Y31889669D01*
X14002287Y31750710D01*
X14379915Y31648110D01*
X14382958Y31647595D01*
X14382964Y31647594D01*
X14762713Y31583364D01*
X14762720Y31583363D01*
X14765754Y31582850D01*
X14768825Y31582635D01*
X14768827Y31582635D01*
X15153053Y31555767D01*
X15153061Y31555767D01*
X15156119Y31555553D01*
X15409704Y31562637D01*
X15544211Y31566394D01*
X15544214Y31566394D01*
X15547285Y31566480D01*
X15550338Y31566866D01*
X15550342Y31566866D01*
X15736145Y31590338D01*
X15935517Y31615525D01*
X15938521Y31616207D01*
X15938524Y31616208D01*
X16314115Y31701540D01*
X16314121Y31701542D01*
X16317111Y31702221D01*
X16462875Y31750710D01*
X16685500Y31824767D01*
X16685506Y31824769D01*
X16688424Y31825740D01*
X16829551Y31888574D01*
X17043111Y31983657D01*
X17043117Y31983660D01*
X17045911Y31984904D01*
X17048580Y31986420D01*
X17383492Y32176676D01*
X17383498Y32176680D01*
X17386160Y32178192D01*
X17705924Y32403761D01*
X18002150Y32659456D01*
X18004271Y32661683D01*
X18004277Y32661689D01*
X18269894Y32940615D01*
X18272011Y32942838D01*
X18371192Y33069783D01*
X18511021Y33248756D01*
X18511023Y33248759D01*
X18512931Y33251201D01*
X18514587Y33253811D01*
X18514593Y33253819D01*
X18720957Y33578997D01*
X18720959Y33579000D01*
X18722610Y33581602D01*
X18899046Y33930888D01*
X19040557Y34295723D01*
X19145790Y34672626D01*
X19213742Y35058000D01*
X19226580Y35224843D01*
X19243613Y35446211D01*
X19243613Y35446222D01*
X19243763Y35448165D01*
X19245325Y35560000D01*
X19226209Y35950851D01*
X19169044Y36337972D01*
X19074376Y36717666D01*
X18943107Y37086311D01*
X18776492Y37440386D01*
X18747167Y37489580D01*
X18577700Y37773862D01*
X18576120Y37776513D01*
X18343905Y38091483D01*
X18082061Y38382289D01*
X17793090Y38646156D01*
X17479749Y38880565D01*
X17426075Y38913071D01*
X17147658Y39081687D01*
X17147649Y39081692D01*
X17145030Y39083278D01*
X16792126Y39252362D01*
X16789237Y39253414D01*
X16789231Y39253416D01*
X16427306Y39385145D01*
X16427303Y39385146D01*
X16424407Y39386200D01*
X16147326Y39457342D01*
X16048366Y39482751D01*
X16048363Y39482752D01*
X16045382Y39483517D01*
X15658670Y39543383D01*
X15655613Y39543554D01*
X15655612Y39543554D01*
X15625120Y39545259D01*
X15267962Y39565227D01*
X15264883Y39565098D01*
X15264880Y39565098D01*
X15008770Y39554364D01*
X14876987Y39548841D01*
X14873943Y39548413D01*
X14873941Y39548413D01*
X14839368Y39543554D01*
X14489477Y39494380D01*
X14109131Y39402364D01*
X13739579Y39273673D01*
X13736781Y39272380D01*
X13387146Y39110826D01*
X13387136Y39110821D01*
X13384349Y39109533D01*
X13275829Y39045865D01*
X13049486Y38913071D01*
X13049481Y38913068D01*
X13046831Y38911513D01*
X13006433Y38882162D01*
X12732730Y38683306D01*
X12732721Y38683299D01*
X12730248Y38681502D01*
X12727958Y38679469D01*
X12727952Y38679464D01*
X12439924Y38423740D01*
X12437621Y38421695D01*
X12171743Y38134573D01*
X11935152Y37822876D01*
X11730107Y37489580D01*
X11558564Y37137865D01*
X11422162Y36771090D01*
X11322201Y36392754D01*
X11259637Y36006469D01*
X11235065Y35615923D01*
X9082590Y35615923D01*
X9066209Y35950851D01*
X9009044Y36337972D01*
X8914376Y36717666D01*
X8783107Y37086311D01*
X8616492Y37440386D01*
X8587167Y37489580D01*
X8417700Y37773862D01*
X8416120Y37776513D01*
X8183905Y38091483D01*
X7922061Y38382289D01*
X7633090Y38646156D01*
X7319749Y38880565D01*
X7266075Y38913071D01*
X6987658Y39081687D01*
X6987649Y39081692D01*
X6985030Y39083278D01*
X6632126Y39252362D01*
X6629237Y39253414D01*
X6629231Y39253416D01*
X6267306Y39385145D01*
X6267303Y39385146D01*
X6264407Y39386200D01*
X5987326Y39457342D01*
X5888366Y39482751D01*
X5888363Y39482752D01*
X5885382Y39483517D01*
X5498670Y39543383D01*
X5495613Y39543554D01*
X5495612Y39543554D01*
X5465120Y39545259D01*
X5107962Y39565227D01*
X5104883Y39565098D01*
X5104880Y39565098D01*
X4848770Y39554364D01*
X4716987Y39548841D01*
X4713943Y39548413D01*
X4713941Y39548413D01*
X4679368Y39543554D01*
X4329477Y39494380D01*
X3949131Y39402364D01*
X3579579Y39273673D01*
X3576781Y39272380D01*
X3227146Y39110826D01*
X3227136Y39110821D01*
X3224349Y39109533D01*
X3115829Y39045865D01*
X2889486Y38913071D01*
X2889481Y38913068D01*
X2886831Y38911513D01*
X2846433Y38882162D01*
X2572730Y38683306D01*
X2572721Y38683299D01*
X2570248Y38681502D01*
X2567958Y38679469D01*
X2567952Y38679464D01*
X2279924Y38423740D01*
X2277621Y38421695D01*
X2011743Y38134573D01*
X1775152Y37822876D01*
X1570107Y37489580D01*
X1398564Y37137865D01*
X1262162Y36771090D01*
X1162201Y36392754D01*
X1099637Y36006469D01*
X1075065Y35615923D01*
X554500Y35615923D01*
X554500Y39959500D01*
X574502Y40027621D01*
X628158Y40074114D01*
X680500Y40085500D01*
X19639500Y40085500D01*
X19707621Y40065498D01*
G37*
%TD.AperFunction*%
%TD*%
M02*
