%TF.GenerationSoftware,KiCad,Pcbnew,7.0.5.1-1-g8f565ef7f0-dirty-deb11*%
%TF.CreationDate,2023-07-05T13:04:36+00:00*%
%TF.ProjectId,STEPUPDC02,53544550-5550-4444-9330-322e6b696361,rev?*%
%TF.SameCoordinates,Original*%
%TF.FileFunction,Soldermask,Bot*%
%TF.FilePolarity,Negative*%
%FSLAX46Y46*%
G04 Gerber Fmt 4.6, Leading zero omitted, Abs format (unit mm)*
G04 Created by KiCad (PCBNEW 7.0.5.1-1-g8f565ef7f0-dirty-deb11) date 2023-07-05 13:04:36*
%MOMM*%
%LPD*%
G01*
G04 APERTURE LIST*
G04 Aperture macros list*
%AMRoundRect*
0 Rectangle with rounded corners*
0 $1 Rounding radius*
0 $2 $3 $4 $5 $6 $7 $8 $9 X,Y pos of 4 corners*
0 Add a 4 corners polygon primitive as box body*
4,1,4,$2,$3,$4,$5,$6,$7,$8,$9,$2,$3,0*
0 Add four circle primitives for the rounded corners*
1,1,$1+$1,$2,$3*
1,1,$1+$1,$4,$5*
1,1,$1+$1,$6,$7*
1,1,$1+$1,$8,$9*
0 Add four rect primitives between the rounded corners*
20,1,$1+$1,$2,$3,$4,$5,0*
20,1,$1+$1,$4,$5,$6,$7,0*
20,1,$1+$1,$6,$7,$8,$9,0*
20,1,$1+$1,$8,$9,$2,$3,0*%
G04 Aperture macros list end*
%ADD10C,6.400000*%
%ADD11RoundRect,0.200000X-0.762000X-0.762000X0.762000X-0.762000X0.762000X0.762000X-0.762000X0.762000X0*%
%ADD12RoundRect,0.200000X0.762000X-0.762000X0.762000X0.762000X-0.762000X0.762000X-0.762000X-0.762000X0*%
%ADD13RoundRect,0.200000X1.150000X-1.250000X1.150000X1.250000X-1.150000X1.250000X-1.150000X-1.250000X0*%
%ADD14RoundRect,0.200000X2.000000X-0.800000X2.000000X0.800000X-2.000000X0.800000X-2.000000X-0.800000X0*%
%ADD15RoundRect,0.200000X-0.698500X0.444500X-0.698500X-0.444500X0.698500X-0.444500X0.698500X0.444500X0*%
%ADD16RoundRect,0.200000X0.325000X-0.780000X0.325000X0.780000X-0.325000X0.780000X-0.325000X-0.780000X0*%
%ADD17RoundRect,0.200000X0.850000X-0.650000X0.850000X0.650000X-0.850000X0.650000X-0.850000X-0.650000X0*%
%ADD18RoundRect,0.200000X0.698500X-0.444500X0.698500X0.444500X-0.698500X0.444500X-0.698500X-0.444500X0*%
%ADD19RoundRect,0.200000X1.275080X1.249680X-1.275080X1.249680X-1.275080X-1.249680X1.275080X-1.249680X0*%
%ADD20RoundRect,0.200000X-0.444500X-0.698500X0.444500X-0.698500X0.444500X0.698500X-0.444500X0.698500X0*%
%ADD21RoundRect,0.200000X0.444500X0.698500X-0.444500X0.698500X-0.444500X-0.698500X0.444500X-0.698500X0*%
G04 APERTURE END LIST*
D10*
%TO.C,M1*%
X15240000Y35560000D03*
%TD*%
%TO.C,M2*%
X15240000Y5080000D03*
%TD*%
%TO.C,M3*%
X5080000Y5080000D03*
%TD*%
%TO.C,M4*%
X5080000Y35560000D03*
%TD*%
D11*
%TO.C,J1*%
X15748000Y29591000D03*
X18288000Y29591000D03*
X15748000Y27051000D03*
X18288000Y27051000D03*
X15748000Y24511000D03*
X18288000Y24511000D03*
%TD*%
D12*
%TO.C,J2*%
X2540000Y22479000D03*
X2540000Y25019000D03*
%TD*%
D11*
%TO.C,J4*%
X15748000Y17780000D03*
X18288000Y17780000D03*
X15748000Y15240000D03*
X18288000Y15240000D03*
X15748000Y12700000D03*
X18288000Y12700000D03*
X15748000Y10160000D03*
X18288000Y10160000D03*
%TD*%
D13*
%TO.C,D1*%
X11430000Y15884000D03*
X11430000Y20184000D03*
%TD*%
D14*
%TO.C,L1*%
X11430000Y26819000D03*
X11430000Y23219000D03*
%TD*%
D15*
%TO.C,R1*%
X3429000Y29654500D03*
X3429000Y27749500D03*
%TD*%
D16*
%TO.C,U1*%
X7366000Y22352000D03*
X6416000Y22352000D03*
X5466000Y22352000D03*
X5466000Y25052000D03*
X7366000Y25052000D03*
%TD*%
D17*
%TO.C,D2*%
X10160000Y29238000D03*
X10160000Y32738000D03*
%TD*%
D18*
%TO.C,C1*%
X3048000Y14986000D03*
X3048000Y16891000D03*
%TD*%
%TO.C,C2*%
X7747000Y14986000D03*
X7747000Y16891000D03*
%TD*%
D19*
%TO.C,C5*%
X11780520Y11684000D03*
X6731000Y11684000D03*
%TD*%
D18*
%TO.C,R2*%
X5334000Y14986000D03*
X5334000Y16891000D03*
%TD*%
D20*
%TO.C,R4*%
X5715000Y18923000D03*
X7620000Y18923000D03*
%TD*%
D21*
%TO.C,C6*%
X7874000Y28067000D03*
X5969000Y28067000D03*
%TD*%
M02*
