%TF.GenerationSoftware,KiCad,Pcbnew,7.0.5.1-1-g8f565ef7f0-dirty-deb11*%
%TF.CreationDate,2023-07-10T01:13:40+00:00*%
%TF.ProjectId,STEPUPDC02,53544550-5550-4444-9330-322e6b696361,rev?*%
%TF.SameCoordinates,Original*%
%TF.FileFunction,Legend,Bot*%
%TF.FilePolarity,Positive*%
%FSLAX46Y46*%
G04 Gerber Fmt 4.6, Leading zero omitted, Abs format (unit mm)*
G04 Created by KiCad (PCBNEW 7.0.5.1-1-g8f565ef7f0-dirty-deb11) date 2023-07-10 01:13:40*
%MOMM*%
%LPD*%
G01*
G04 APERTURE LIST*
%ADD10C,0.150000*%
%ADD11C,0.304800*%
%ADD12C,0.120000*%
G04 APERTURE END LIST*
D10*
%TO.C,D1*%
X14884819Y18772094D02*
X13884819Y18772094D01*
X13884819Y18772094D02*
X13884819Y18533999D01*
X13884819Y18533999D02*
X13932438Y18391142D01*
X13932438Y18391142D02*
X14027676Y18295904D01*
X14027676Y18295904D02*
X14122914Y18248285D01*
X14122914Y18248285D02*
X14313390Y18200666D01*
X14313390Y18200666D02*
X14456247Y18200666D01*
X14456247Y18200666D02*
X14646723Y18248285D01*
X14646723Y18248285D02*
X14741961Y18295904D01*
X14741961Y18295904D02*
X14837200Y18391142D01*
X14837200Y18391142D02*
X14884819Y18533999D01*
X14884819Y18533999D02*
X14884819Y18772094D01*
X14884819Y17248285D02*
X14884819Y17819713D01*
X14884819Y17533999D02*
X13884819Y17533999D01*
X13884819Y17533999D02*
X14027676Y17629237D01*
X14027676Y17629237D02*
X14122914Y17724475D01*
X14122914Y17724475D02*
X14170533Y17819713D01*
%TO.C,L1*%
X11596666Y24564180D02*
X12072856Y24564180D01*
X12072856Y24564180D02*
X12072856Y25564180D01*
X10739523Y24564180D02*
X11310951Y24564180D01*
X11025237Y24564180D02*
X11025237Y25564180D01*
X11025237Y25564180D02*
X11120475Y25421323D01*
X11120475Y25421323D02*
X11215713Y25326085D01*
X11215713Y25326085D02*
X11310951Y25278466D01*
%TO.C,U1*%
X5804819Y24383904D02*
X6614342Y24383904D01*
X6614342Y24383904D02*
X6709580Y24336285D01*
X6709580Y24336285D02*
X6757200Y24288666D01*
X6757200Y24288666D02*
X6804819Y24193428D01*
X6804819Y24193428D02*
X6804819Y24002952D01*
X6804819Y24002952D02*
X6757200Y23907714D01*
X6757200Y23907714D02*
X6709580Y23860095D01*
X6709580Y23860095D02*
X6614342Y23812476D01*
X6614342Y23812476D02*
X5804819Y23812476D01*
X6804819Y22812476D02*
X6804819Y23383904D01*
X6804819Y23098190D02*
X5804819Y23098190D01*
X5804819Y23098190D02*
X5947676Y23193428D01*
X5947676Y23193428D02*
X6042914Y23288666D01*
X6042914Y23288666D02*
X6090533Y23383904D01*
%TO.C,D2*%
X12614819Y31726094D02*
X11614819Y31726094D01*
X11614819Y31726094D02*
X11614819Y31487999D01*
X11614819Y31487999D02*
X11662438Y31345142D01*
X11662438Y31345142D02*
X11757676Y31249904D01*
X11757676Y31249904D02*
X11852914Y31202285D01*
X11852914Y31202285D02*
X12043390Y31154666D01*
X12043390Y31154666D02*
X12186247Y31154666D01*
X12186247Y31154666D02*
X12376723Y31202285D01*
X12376723Y31202285D02*
X12471961Y31249904D01*
X12471961Y31249904D02*
X12567200Y31345142D01*
X12567200Y31345142D02*
X12614819Y31487999D01*
X12614819Y31487999D02*
X12614819Y31726094D01*
X11710057Y30773713D02*
X11662438Y30726094D01*
X11662438Y30726094D02*
X11614819Y30630856D01*
X11614819Y30630856D02*
X11614819Y30392761D01*
X11614819Y30392761D02*
X11662438Y30297523D01*
X11662438Y30297523D02*
X11710057Y30249904D01*
X11710057Y30249904D02*
X11805295Y30202285D01*
X11805295Y30202285D02*
X11900533Y30202285D01*
X11900533Y30202285D02*
X12043390Y30249904D01*
X12043390Y30249904D02*
X12614819Y30821332D01*
X12614819Y30821332D02*
X12614819Y30202285D01*
D11*
%TO.C,C5*%
X10032999Y8218961D02*
X10105571Y8146390D01*
X10105571Y8146390D02*
X10323285Y8073818D01*
X10323285Y8073818D02*
X10468428Y8073818D01*
X10468428Y8073818D02*
X10686142Y8146390D01*
X10686142Y8146390D02*
X10831285Y8291532D01*
X10831285Y8291532D02*
X10903856Y8436675D01*
X10903856Y8436675D02*
X10976428Y8726961D01*
X10976428Y8726961D02*
X10976428Y8944675D01*
X10976428Y8944675D02*
X10903856Y9234961D01*
X10903856Y9234961D02*
X10831285Y9380104D01*
X10831285Y9380104D02*
X10686142Y9525247D01*
X10686142Y9525247D02*
X10468428Y9597818D01*
X10468428Y9597818D02*
X10323285Y9597818D01*
X10323285Y9597818D02*
X10105571Y9525247D01*
X10105571Y9525247D02*
X10032999Y9452675D01*
X8654142Y9597818D02*
X9379856Y9597818D01*
X9379856Y9597818D02*
X9452428Y8872104D01*
X9452428Y8872104D02*
X9379856Y8944675D01*
X9379856Y8944675D02*
X9234714Y9017247D01*
X9234714Y9017247D02*
X8871856Y9017247D01*
X8871856Y9017247D02*
X8726714Y8944675D01*
X8726714Y8944675D02*
X8654142Y8872104D01*
X8654142Y8872104D02*
X8581571Y8726961D01*
X8581571Y8726961D02*
X8581571Y8364104D01*
X8581571Y8364104D02*
X8654142Y8218961D01*
X8654142Y8218961D02*
X8726714Y8146390D01*
X8726714Y8146390D02*
X8871856Y8073818D01*
X8871856Y8073818D02*
X9234714Y8073818D01*
X9234714Y8073818D02*
X9379856Y8146390D01*
X9379856Y8146390D02*
X9452428Y8218961D01*
X14835050Y14125550D02*
X13673908Y14125550D01*
X14254479Y13544978D02*
X14254479Y14706121D01*
D12*
%TO.C,D1*%
X13580000Y14484000D02*
X13580000Y20184000D01*
X9280000Y14484000D02*
X9280000Y20184000D01*
X13580000Y14484000D02*
X9280000Y14484000D01*
D10*
%TO.C,L1*%
X8930000Y27519000D02*
X13930000Y27519000D01*
X13930000Y22519000D02*
X8930000Y22519000D01*
X8930000Y22519000D02*
X8930000Y27519000D01*
X13930000Y27519000D02*
X13930000Y22519000D01*
%TO.C,R1*%
X4191000Y27178000D02*
X4191000Y28194000D01*
X4191000Y29210000D02*
X4191000Y30226000D01*
X2667000Y27178000D02*
X4191000Y27178000D01*
X2667000Y30226000D02*
X2667000Y29210000D01*
X4191000Y30226000D02*
X2667000Y30226000D01*
X2667000Y28194000D02*
X2667000Y27178000D01*
X4318000Y30353000D02*
G75*
G03*
X4318000Y30353000I-127000J0D01*
G01*
D12*
%TO.C,U1*%
X4806000Y22802000D02*
X4806000Y24602000D01*
X8026000Y24602000D02*
X8026000Y22152000D01*
%TO.C,D2*%
X11160000Y28438000D02*
X9160000Y28438000D01*
X11160000Y32738000D02*
X11160000Y28438000D01*
X9160000Y28438000D02*
X9160000Y32738000D01*
D10*
%TO.C,C1*%
X2286000Y15430500D02*
X2286000Y14414500D01*
X3810000Y16446500D02*
X3810000Y17462500D01*
X3810000Y17462500D02*
X2286000Y17462500D01*
X2286000Y17462500D02*
X2286000Y16446500D01*
X3810000Y14414500D02*
X3810000Y15430500D01*
X2286000Y14414500D02*
X3810000Y14414500D01*
X2413000Y14287500D02*
G75*
G03*
X2413000Y14287500I-127000J0D01*
G01*
%TO.C,C2*%
X6985000Y15430500D02*
X6985000Y14414500D01*
X8509000Y14414500D02*
X8509000Y15430500D01*
X6985000Y17462500D02*
X6985000Y16446500D01*
X8509000Y16446500D02*
X8509000Y17462500D01*
X6985000Y14414500D02*
X8509000Y14414500D01*
X8509000Y17462500D02*
X6985000Y17462500D01*
X7112000Y14287500D02*
G75*
G03*
X7112000Y14287500I-127000J0D01*
G01*
%TO.C,C5*%
X14257020Y14737080D02*
X14257020Y13637260D01*
X6256020Y9984740D02*
X12255500Y9984740D01*
X6278880Y13385800D02*
X12278360Y13385800D01*
X14856460Y14236700D02*
X13657580Y14236700D01*
X13573760Y13385800D02*
X13573760Y9987280D01*
X13555980Y13383260D02*
X13555980Y9984740D01*
%TO.C,R2*%
X6096000Y16446500D02*
X6096000Y17462500D01*
X6096000Y17462500D02*
X4572000Y17462500D01*
X6096000Y14414500D02*
X6096000Y15430500D01*
X4572000Y17462500D02*
X4572000Y16446500D01*
X4572000Y14414500D02*
X6096000Y14414500D01*
X4572000Y15430500D02*
X4572000Y14414500D01*
X4699000Y14287500D02*
G75*
G03*
X4699000Y14287500I-127000J0D01*
G01*
%TO.C,R4*%
X8191500Y19685000D02*
X7175500Y19685000D01*
X5143500Y18161000D02*
X6159500Y18161000D01*
X8191500Y18161000D02*
X8191500Y19685000D01*
X5143500Y19685000D02*
X5143500Y18161000D01*
X7175500Y18161000D02*
X8191500Y18161000D01*
X6159500Y19685000D02*
X5143500Y19685000D01*
X5143500Y19685000D02*
G75*
G03*
X5143500Y19685000I-127000J0D01*
G01*
%TO.C,C6*%
X5397500Y28829000D02*
X5397500Y27305000D01*
X7429500Y27305000D02*
X8445500Y27305000D01*
X8445500Y28829000D02*
X7429500Y28829000D01*
X5397500Y27305000D02*
X6413500Y27305000D01*
X6413500Y28829000D02*
X5397500Y28829000D01*
X8445500Y27305000D02*
X8445500Y28829000D01*
X8699500Y27305000D02*
G75*
G03*
X8699500Y27305000I-127000J0D01*
G01*
%TD*%
M02*
