%TF.GenerationSoftware,KiCad,Pcbnew,6.0.11+dfsg-1~bpo11+1*%
%TF.CreationDate,2023-07-05T12:10:32+00:00*%
%TF.ProjectId,STEPUPDC02,53544550-5550-4444-9330-322e6b696361,rev?*%
%TF.SameCoordinates,Original*%
%TF.FileFunction,Legend,Bot*%
%TF.FilePolarity,Positive*%
%FSLAX46Y46*%
G04 Gerber Fmt 4.6, Leading zero omitted, Abs format (unit mm)*
G04 Created by KiCad (PCBNEW 6.0.11+dfsg-1~bpo11+1) date 2023-07-05 12:10:32*
%MOMM*%
%LPD*%
G01*
G04 APERTURE LIST*
%ADD10C,0.150000*%
%ADD11C,0.304800*%
%ADD12C,0.120000*%
G04 APERTURE END LIST*
D10*
%TO.C,D1*%
X14882380Y18772095D02*
X13882380Y18772095D01*
X13882380Y18534000D01*
X13930000Y18391142D01*
X14025238Y18295904D01*
X14120476Y18248285D01*
X14310952Y18200666D01*
X14453809Y18200666D01*
X14644285Y18248285D01*
X14739523Y18295904D01*
X14834761Y18391142D01*
X14882380Y18534000D01*
X14882380Y18772095D01*
X14882380Y17248285D02*
X14882380Y17819714D01*
X14882380Y17534000D02*
X13882380Y17534000D01*
X14025238Y17629238D01*
X14120476Y17724476D01*
X14168095Y17819714D01*
%TO.C,L1*%
X11596666Y24566619D02*
X12072857Y24566619D01*
X12072857Y25566619D01*
X10739523Y24566619D02*
X11310952Y24566619D01*
X11025238Y24566619D02*
X11025238Y25566619D01*
X11120476Y25423761D01*
X11215714Y25328523D01*
X11310952Y25280904D01*
%TO.C,U1*%
X5802380Y24383904D02*
X6611904Y24383904D01*
X6707142Y24336285D01*
X6754761Y24288666D01*
X6802380Y24193428D01*
X6802380Y24002952D01*
X6754761Y23907714D01*
X6707142Y23860095D01*
X6611904Y23812476D01*
X5802380Y23812476D01*
X6802380Y22812476D02*
X6802380Y23383904D01*
X6802380Y23098190D02*
X5802380Y23098190D01*
X5945238Y23193428D01*
X6040476Y23288666D01*
X6088095Y23383904D01*
%TO.C,D2*%
X12612380Y31726095D02*
X11612380Y31726095D01*
X11612380Y31488000D01*
X11660000Y31345142D01*
X11755238Y31249904D01*
X11850476Y31202285D01*
X12040952Y31154666D01*
X12183809Y31154666D01*
X12374285Y31202285D01*
X12469523Y31249904D01*
X12564761Y31345142D01*
X12612380Y31488000D01*
X12612380Y31726095D01*
X11707619Y30773714D02*
X11660000Y30726095D01*
X11612380Y30630857D01*
X11612380Y30392761D01*
X11660000Y30297523D01*
X11707619Y30249904D01*
X11802857Y30202285D01*
X11898095Y30202285D01*
X12040952Y30249904D01*
X12612380Y30821333D01*
X12612380Y30202285D01*
D11*
%TO.C,C5*%
X10033000Y8218714D02*
X10105571Y8146142D01*
X10323285Y8073571D01*
X10468428Y8073571D01*
X10686142Y8146142D01*
X10831285Y8291285D01*
X10903857Y8436428D01*
X10976428Y8726714D01*
X10976428Y8944428D01*
X10903857Y9234714D01*
X10831285Y9379857D01*
X10686142Y9525000D01*
X10468428Y9597571D01*
X10323285Y9597571D01*
X10105571Y9525000D01*
X10033000Y9452428D01*
X8654142Y9597571D02*
X9379857Y9597571D01*
X9452428Y8871857D01*
X9379857Y8944428D01*
X9234714Y9017000D01*
X8871857Y9017000D01*
X8726714Y8944428D01*
X8654142Y8871857D01*
X8581571Y8726714D01*
X8581571Y8363857D01*
X8654142Y8218714D01*
X8726714Y8146142D01*
X8871857Y8073571D01*
X9234714Y8073571D01*
X9379857Y8146142D01*
X9452428Y8218714D01*
X14835051Y14125302D02*
X13673908Y14125302D01*
X14254480Y13544731D02*
X14254480Y14705874D01*
D12*
%TO.C,D1*%
X13580000Y14484000D02*
X13580000Y20184000D01*
X9280000Y14484000D02*
X9280000Y20184000D01*
X13580000Y14484000D02*
X9280000Y14484000D01*
D10*
%TO.C,L1*%
X8930000Y27519000D02*
X13930000Y27519000D01*
X13930000Y22519000D02*
X8930000Y22519000D01*
X8930000Y22519000D02*
X8930000Y27519000D01*
X13930000Y27519000D02*
X13930000Y22519000D01*
%TO.C,R1*%
X4191000Y27178000D02*
X4191000Y28194000D01*
X4191000Y29210000D02*
X4191000Y30226000D01*
X2667000Y27178000D02*
X4191000Y27178000D01*
X2667000Y30226000D02*
X2667000Y29210000D01*
X4191000Y30226000D02*
X2667000Y30226000D01*
X2667000Y28194000D02*
X2667000Y27178000D01*
X4318000Y30353000D02*
G75*
G03*
X4318000Y30353000I-127000J0D01*
G01*
D12*
%TO.C,U1*%
X4806000Y22802000D02*
X4806000Y24602000D01*
X8026000Y24602000D02*
X8026000Y22152000D01*
%TO.C,D2*%
X11160000Y28438000D02*
X9160000Y28438000D01*
X11160000Y32738000D02*
X11160000Y28438000D01*
X9160000Y28438000D02*
X9160000Y32738000D01*
D10*
%TO.C,C1*%
X2286000Y15430500D02*
X2286000Y14414500D01*
X3810000Y16446500D02*
X3810000Y17462500D01*
X3810000Y17462500D02*
X2286000Y17462500D01*
X2286000Y17462500D02*
X2286000Y16446500D01*
X3810000Y14414500D02*
X3810000Y15430500D01*
X2286000Y14414500D02*
X3810000Y14414500D01*
X2413000Y14287500D02*
G75*
G03*
X2413000Y14287500I-127000J0D01*
G01*
%TO.C,C2*%
X6985000Y15430500D02*
X6985000Y14414500D01*
X8509000Y14414500D02*
X8509000Y15430500D01*
X6985000Y17462500D02*
X6985000Y16446500D01*
X8509000Y16446500D02*
X8509000Y17462500D01*
X6985000Y14414500D02*
X8509000Y14414500D01*
X8509000Y17462500D02*
X6985000Y17462500D01*
X7112000Y14287500D02*
G75*
G03*
X7112000Y14287500I-127000J0D01*
G01*
%TO.C,C5*%
X14257020Y14737080D02*
X14257020Y13637260D01*
X6256020Y9984740D02*
X12255500Y9984740D01*
X6278880Y13385800D02*
X12278360Y13385800D01*
X14856460Y14236700D02*
X13657580Y14236700D01*
X13573760Y13385800D02*
X13573760Y9987280D01*
X13555980Y13383260D02*
X13555980Y9984740D01*
%TO.C,R2*%
X6096000Y16446500D02*
X6096000Y17462500D01*
X6096000Y17462500D02*
X4572000Y17462500D01*
X6096000Y14414500D02*
X6096000Y15430500D01*
X4572000Y17462500D02*
X4572000Y16446500D01*
X4572000Y14414500D02*
X6096000Y14414500D01*
X4572000Y15430500D02*
X4572000Y14414500D01*
X4699000Y14287500D02*
G75*
G03*
X4699000Y14287500I-127000J0D01*
G01*
%TO.C,R4*%
X8191500Y19685000D02*
X7175500Y19685000D01*
X5143500Y18161000D02*
X6159500Y18161000D01*
X8191500Y18161000D02*
X8191500Y19685000D01*
X5143500Y19685000D02*
X5143500Y18161000D01*
X7175500Y18161000D02*
X8191500Y18161000D01*
X6159500Y19685000D02*
X5143500Y19685000D01*
X5143500Y19685000D02*
G75*
G03*
X5143500Y19685000I-127000J0D01*
G01*
%TO.C,C6*%
X5397500Y28829000D02*
X5397500Y27305000D01*
X7429500Y27305000D02*
X8445500Y27305000D01*
X8445500Y28829000D02*
X7429500Y28829000D01*
X5397500Y27305000D02*
X6413500Y27305000D01*
X6413500Y28829000D02*
X5397500Y28829000D01*
X8445500Y27305000D02*
X8445500Y28829000D01*
X8699500Y27305000D02*
G75*
G03*
X8699500Y27305000I-127000J0D01*
G01*
%TD*%
M02*
