%TF.GenerationSoftware,KiCad,Pcbnew,7.0.5.1-1-g8f565ef7f0-dirty-deb11*%
%TF.CreationDate,2023-07-21T01:05:26+00:00*%
%TF.ProjectId,STEPUPDC02,53544550-5550-4444-9330-322e6b696361,rev?*%
%TF.SameCoordinates,Original*%
%TF.FileFunction,Legend,Top*%
%TF.FilePolarity,Positive*%
%FSLAX46Y46*%
G04 Gerber Fmt 4.6, Leading zero omitted, Abs format (unit mm)*
G04 Created by KiCad (PCBNEW 7.0.5.1-1-g8f565ef7f0-dirty-deb11) date 2023-07-21 01:05:26*
%MOMM*%
%LPD*%
G01*
G04 APERTURE LIST*
%ADD10C,0.300000*%
%ADD11C,0.050000*%
%ADD12C,0.150000*%
%ADD13R,1.524000X1.524000*%
G04 APERTURE END LIST*
D10*
X8131450Y15971761D02*
X8191926Y16153190D01*
X8191926Y16153190D02*
X8191926Y16455571D01*
X8191926Y16455571D02*
X8131450Y16576523D01*
X8131450Y16576523D02*
X8070973Y16636999D01*
X8070973Y16636999D02*
X7950021Y16697476D01*
X7950021Y16697476D02*
X7829069Y16697476D01*
X7829069Y16697476D02*
X7708116Y16636999D01*
X7708116Y16636999D02*
X7647640Y16576523D01*
X7647640Y16576523D02*
X7587164Y16455571D01*
X7587164Y16455571D02*
X7526688Y16213666D01*
X7526688Y16213666D02*
X7466211Y16092714D01*
X7466211Y16092714D02*
X7405735Y16032237D01*
X7405735Y16032237D02*
X7284783Y15971761D01*
X7284783Y15971761D02*
X7163830Y15971761D01*
X7163830Y15971761D02*
X7042878Y16032237D01*
X7042878Y16032237D02*
X6982402Y16092714D01*
X6982402Y16092714D02*
X6921926Y16213666D01*
X6921926Y16213666D02*
X6921926Y16516047D01*
X6921926Y16516047D02*
X6982402Y16697476D01*
X6921926Y17060333D02*
X6921926Y17786047D01*
X8191926Y17423190D02*
X6921926Y17423190D01*
X7526688Y18209380D02*
X7526688Y18632714D01*
X8191926Y18814142D02*
X8191926Y18209380D01*
X8191926Y18209380D02*
X6921926Y18209380D01*
X6921926Y18209380D02*
X6921926Y18814142D01*
X8191926Y19358428D02*
X6921926Y19358428D01*
X6921926Y19358428D02*
X6921926Y19842238D01*
X6921926Y19842238D02*
X6982402Y19963190D01*
X6982402Y19963190D02*
X7042878Y20023667D01*
X7042878Y20023667D02*
X7163830Y20084143D01*
X7163830Y20084143D02*
X7345259Y20084143D01*
X7345259Y20084143D02*
X7466211Y20023667D01*
X7466211Y20023667D02*
X7526688Y19963190D01*
X7526688Y19963190D02*
X7587164Y19842238D01*
X7587164Y19842238D02*
X7587164Y19358428D01*
X6921926Y20628428D02*
X7950021Y20628428D01*
X7950021Y20628428D02*
X8070973Y20688905D01*
X8070973Y20688905D02*
X8131450Y20749381D01*
X8131450Y20749381D02*
X8191926Y20870333D01*
X8191926Y20870333D02*
X8191926Y21112238D01*
X8191926Y21112238D02*
X8131450Y21233190D01*
X8131450Y21233190D02*
X8070973Y21293667D01*
X8070973Y21293667D02*
X7950021Y21354143D01*
X7950021Y21354143D02*
X6921926Y21354143D01*
X8191926Y21958904D02*
X6921926Y21958904D01*
X6921926Y21958904D02*
X6921926Y22442714D01*
X6921926Y22442714D02*
X6982402Y22563666D01*
X6982402Y22563666D02*
X7042878Y22624143D01*
X7042878Y22624143D02*
X7163830Y22684619D01*
X7163830Y22684619D02*
X7345259Y22684619D01*
X7345259Y22684619D02*
X7466211Y22624143D01*
X7466211Y22624143D02*
X7526688Y22563666D01*
X7526688Y22563666D02*
X7587164Y22442714D01*
X7587164Y22442714D02*
X7587164Y21958904D01*
X8191926Y23228904D02*
X6921926Y23228904D01*
X6921926Y23228904D02*
X6921926Y23531285D01*
X6921926Y23531285D02*
X6982402Y23712714D01*
X6982402Y23712714D02*
X7103354Y23833666D01*
X7103354Y23833666D02*
X7224307Y23894143D01*
X7224307Y23894143D02*
X7466211Y23954619D01*
X7466211Y23954619D02*
X7647640Y23954619D01*
X7647640Y23954619D02*
X7889545Y23894143D01*
X7889545Y23894143D02*
X8010497Y23833666D01*
X8010497Y23833666D02*
X8131450Y23712714D01*
X8131450Y23712714D02*
X8191926Y23531285D01*
X8191926Y23531285D02*
X8191926Y23228904D01*
X8070973Y25224619D02*
X8131450Y25164143D01*
X8131450Y25164143D02*
X8191926Y24982714D01*
X8191926Y24982714D02*
X8191926Y24861762D01*
X8191926Y24861762D02*
X8131450Y24680333D01*
X8131450Y24680333D02*
X8010497Y24559381D01*
X8010497Y24559381D02*
X7889545Y24498904D01*
X7889545Y24498904D02*
X7647640Y24438428D01*
X7647640Y24438428D02*
X7466211Y24438428D01*
X7466211Y24438428D02*
X7224307Y24498904D01*
X7224307Y24498904D02*
X7103354Y24559381D01*
X7103354Y24559381D02*
X6982402Y24680333D01*
X6982402Y24680333D02*
X6921926Y24861762D01*
X6921926Y24861762D02*
X6921926Y24982714D01*
X6921926Y24982714D02*
X6982402Y25164143D01*
X6982402Y25164143D02*
X7042878Y25224619D01*
X6921926Y26010809D02*
X6921926Y26131762D01*
X6921926Y26131762D02*
X6982402Y26252714D01*
X6982402Y26252714D02*
X7042878Y26313190D01*
X7042878Y26313190D02*
X7163830Y26373666D01*
X7163830Y26373666D02*
X7405735Y26434143D01*
X7405735Y26434143D02*
X7708116Y26434143D01*
X7708116Y26434143D02*
X7950021Y26373666D01*
X7950021Y26373666D02*
X8070973Y26313190D01*
X8070973Y26313190D02*
X8131450Y26252714D01*
X8131450Y26252714D02*
X8191926Y26131762D01*
X8191926Y26131762D02*
X8191926Y26010809D01*
X8191926Y26010809D02*
X8131450Y25889857D01*
X8131450Y25889857D02*
X8070973Y25829381D01*
X8070973Y25829381D02*
X7950021Y25768904D01*
X7950021Y25768904D02*
X7708116Y25708428D01*
X7708116Y25708428D02*
X7405735Y25708428D01*
X7405735Y25708428D02*
X7163830Y25768904D01*
X7163830Y25768904D02*
X7042878Y25829381D01*
X7042878Y25829381D02*
X6982402Y25889857D01*
X6982402Y25889857D02*
X6921926Y26010809D01*
X7042878Y26917952D02*
X6982402Y26978428D01*
X6982402Y26978428D02*
X6921926Y27099381D01*
X6921926Y27099381D02*
X6921926Y27401762D01*
X6921926Y27401762D02*
X6982402Y27522714D01*
X6982402Y27522714D02*
X7042878Y27583190D01*
X7042878Y27583190D02*
X7163830Y27643667D01*
X7163830Y27643667D02*
X7284783Y27643667D01*
X7284783Y27643667D02*
X7466211Y27583190D01*
X7466211Y27583190D02*
X8191926Y26857476D01*
X8191926Y26857476D02*
X8191926Y27643667D01*
X7829069Y28127476D02*
X7829069Y28732238D01*
X8191926Y28006524D02*
X6921926Y28429857D01*
X6921926Y28429857D02*
X8191926Y28853191D01*
X1735667Y14414073D02*
X1735667Y13506930D01*
X1735667Y13506930D02*
X1675190Y13325502D01*
X1675190Y13325502D02*
X1554238Y13204550D01*
X1554238Y13204550D02*
X1372809Y13144073D01*
X1372809Y13144073D02*
X1251857Y13144073D01*
X2279952Y13506930D02*
X2884714Y13506930D01*
X2159000Y13144073D02*
X2582333Y14414073D01*
X2582333Y14414073D02*
X3005667Y13144073D01*
X4154714Y13265026D02*
X4094238Y13204550D01*
X4094238Y13204550D02*
X3912809Y13144073D01*
X3912809Y13144073D02*
X3791857Y13144073D01*
X3791857Y13144073D02*
X3610428Y13204550D01*
X3610428Y13204550D02*
X3489476Y13325502D01*
X3489476Y13325502D02*
X3428999Y13446454D01*
X3428999Y13446454D02*
X3368523Y13688359D01*
X3368523Y13688359D02*
X3368523Y13869788D01*
X3368523Y13869788D02*
X3428999Y14111692D01*
X3428999Y14111692D02*
X3489476Y14232645D01*
X3489476Y14232645D02*
X3610428Y14353597D01*
X3610428Y14353597D02*
X3791857Y14414073D01*
X3791857Y14414073D02*
X3912809Y14414073D01*
X3912809Y14414073D02*
X4094238Y14353597D01*
X4094238Y14353597D02*
X4154714Y14293121D01*
X4698999Y13144073D02*
X4698999Y14414073D01*
X4698999Y13809311D02*
X5424714Y13809311D01*
X5424714Y13144073D02*
X5424714Y14414073D01*
X6271380Y14414073D02*
X6513285Y14414073D01*
X6513285Y14414073D02*
X6634237Y14353597D01*
X6634237Y14353597D02*
X6755190Y14232645D01*
X6755190Y14232645D02*
X6815666Y13990740D01*
X6815666Y13990740D02*
X6815666Y13567407D01*
X6815666Y13567407D02*
X6755190Y13325502D01*
X6755190Y13325502D02*
X6634237Y13204550D01*
X6634237Y13204550D02*
X6513285Y13144073D01*
X6513285Y13144073D02*
X6271380Y13144073D01*
X6271380Y13144073D02*
X6150428Y13204550D01*
X6150428Y13204550D02*
X6029475Y13325502D01*
X6029475Y13325502D02*
X5968999Y13567407D01*
X5968999Y13567407D02*
X5968999Y13990740D01*
X5968999Y13990740D02*
X6029475Y14232645D01*
X6029475Y14232645D02*
X6150428Y14353597D01*
X6150428Y14353597D02*
X6271380Y14414073D01*
X1886856Y12261121D02*
X1947332Y12321597D01*
X1947332Y12321597D02*
X2068285Y12382073D01*
X2068285Y12382073D02*
X2370666Y12382073D01*
X2370666Y12382073D02*
X2491618Y12321597D01*
X2491618Y12321597D02*
X2552094Y12261121D01*
X2552094Y12261121D02*
X2612571Y12140169D01*
X2612571Y12140169D02*
X2612571Y12019216D01*
X2612571Y12019216D02*
X2552094Y11837788D01*
X2552094Y11837788D02*
X1826380Y11112073D01*
X1826380Y11112073D02*
X2612571Y11112073D01*
X3398761Y12382073D02*
X3519714Y12382073D01*
X3519714Y12382073D02*
X3640666Y12321597D01*
X3640666Y12321597D02*
X3701142Y12261121D01*
X3701142Y12261121D02*
X3761618Y12140169D01*
X3761618Y12140169D02*
X3822095Y11898264D01*
X3822095Y11898264D02*
X3822095Y11595883D01*
X3822095Y11595883D02*
X3761618Y11353978D01*
X3761618Y11353978D02*
X3701142Y11233026D01*
X3701142Y11233026D02*
X3640666Y11172550D01*
X3640666Y11172550D02*
X3519714Y11112073D01*
X3519714Y11112073D02*
X3398761Y11112073D01*
X3398761Y11112073D02*
X3277809Y11172550D01*
X3277809Y11172550D02*
X3217333Y11233026D01*
X3217333Y11233026D02*
X3156856Y11353978D01*
X3156856Y11353978D02*
X3096380Y11595883D01*
X3096380Y11595883D02*
X3096380Y11898264D01*
X3096380Y11898264D02*
X3156856Y12140169D01*
X3156856Y12140169D02*
X3217333Y12261121D01*
X3217333Y12261121D02*
X3277809Y12321597D01*
X3277809Y12321597D02*
X3398761Y12382073D01*
X5031619Y11112073D02*
X4305904Y11112073D01*
X4668761Y11112073D02*
X4668761Y12382073D01*
X4668761Y12382073D02*
X4547809Y12200645D01*
X4547809Y12200645D02*
X4426857Y12079692D01*
X4426857Y12079692D02*
X4305904Y12019216D01*
X5636381Y11112073D02*
X5878285Y11112073D01*
X5878285Y11112073D02*
X5999238Y11172550D01*
X5999238Y11172550D02*
X6059714Y11233026D01*
X6059714Y11233026D02*
X6180666Y11414454D01*
X6180666Y11414454D02*
X6241143Y11656359D01*
X6241143Y11656359D02*
X6241143Y12140169D01*
X6241143Y12140169D02*
X6180666Y12261121D01*
X6180666Y12261121D02*
X6120190Y12321597D01*
X6120190Y12321597D02*
X5999238Y12382073D01*
X5999238Y12382073D02*
X5757333Y12382073D01*
X5757333Y12382073D02*
X5636381Y12321597D01*
X5636381Y12321597D02*
X5575904Y12261121D01*
X5575904Y12261121D02*
X5515428Y12140169D01*
X5515428Y12140169D02*
X5515428Y11837788D01*
X5515428Y11837788D02*
X5575904Y11716835D01*
X5575904Y11716835D02*
X5636381Y11656359D01*
X5636381Y11656359D02*
X5757333Y11595883D01*
X5757333Y11595883D02*
X5999238Y11595883D01*
X5999238Y11595883D02*
X6120190Y11656359D01*
X6120190Y11656359D02*
X6180666Y11716835D01*
X6180666Y11716835D02*
X6241143Y11837788D01*
X11233576Y22539475D02*
X9963576Y22539475D01*
X9963576Y22539475D02*
X9963576Y23023285D01*
X9963576Y23023285D02*
X10024052Y23144237D01*
X10024052Y23144237D02*
X10084528Y23204714D01*
X10084528Y23204714D02*
X10205480Y23265190D01*
X10205480Y23265190D02*
X10386909Y23265190D01*
X10386909Y23265190D02*
X10507861Y23204714D01*
X10507861Y23204714D02*
X10568338Y23144237D01*
X10568338Y23144237D02*
X10628814Y23023285D01*
X10628814Y23023285D02*
X10628814Y22539475D01*
X9963576Y24051380D02*
X9963576Y24293285D01*
X9963576Y24293285D02*
X10024052Y24414237D01*
X10024052Y24414237D02*
X10145004Y24535190D01*
X10145004Y24535190D02*
X10386909Y24595666D01*
X10386909Y24595666D02*
X10810242Y24595666D01*
X10810242Y24595666D02*
X11052147Y24535190D01*
X11052147Y24535190D02*
X11173100Y24414237D01*
X11173100Y24414237D02*
X11233576Y24293285D01*
X11233576Y24293285D02*
X11233576Y24051380D01*
X11233576Y24051380D02*
X11173100Y23930428D01*
X11173100Y23930428D02*
X11052147Y23809475D01*
X11052147Y23809475D02*
X10810242Y23748999D01*
X10810242Y23748999D02*
X10386909Y23748999D01*
X10386909Y23748999D02*
X10145004Y23809475D01*
X10145004Y23809475D02*
X10024052Y23930428D01*
X10024052Y23930428D02*
X9963576Y24051380D01*
X9963576Y25018999D02*
X11233576Y25321380D01*
X11233576Y25321380D02*
X10326433Y25563285D01*
X10326433Y25563285D02*
X11233576Y25805190D01*
X11233576Y25805190D02*
X9963576Y26107571D01*
X10568338Y26591380D02*
X10568338Y27014714D01*
X11233576Y27196142D02*
X11233576Y26591380D01*
X11233576Y26591380D02*
X9963576Y26591380D01*
X9963576Y26591380D02*
X9963576Y27196142D01*
X11233576Y28466143D02*
X10628814Y28042809D01*
X11233576Y27740428D02*
X9963576Y27740428D01*
X9963576Y27740428D02*
X9963576Y28224238D01*
X9963576Y28224238D02*
X10024052Y28345190D01*
X10024052Y28345190D02*
X10084528Y28405667D01*
X10084528Y28405667D02*
X10205480Y28466143D01*
X10205480Y28466143D02*
X10386909Y28466143D01*
X10386909Y28466143D02*
X10507861Y28405667D01*
X10507861Y28405667D02*
X10568338Y28345190D01*
X10568338Y28345190D02*
X10628814Y28224238D01*
X10628814Y28224238D02*
X10628814Y27740428D01*
X11233576Y29978047D02*
X9963576Y29978047D01*
X11233576Y30582809D02*
X9963576Y30582809D01*
X9963576Y30582809D02*
X11233576Y31308524D01*
X11233576Y31308524D02*
X9963576Y31308524D01*
X13278276Y24444476D02*
X13278276Y23718761D01*
X13278276Y24081618D02*
X12008276Y24081618D01*
X12008276Y24081618D02*
X12189704Y23960666D01*
X12189704Y23960666D02*
X12310657Y23839714D01*
X12310657Y23839714D02*
X12371133Y23718761D01*
X13157323Y24988761D02*
X13217800Y25049238D01*
X13217800Y25049238D02*
X13278276Y24988761D01*
X13278276Y24988761D02*
X13217800Y24928285D01*
X13217800Y24928285D02*
X13157323Y24988761D01*
X13157323Y24988761D02*
X13278276Y24988761D01*
X12552561Y25774952D02*
X12492085Y25654000D01*
X12492085Y25654000D02*
X12431609Y25593523D01*
X12431609Y25593523D02*
X12310657Y25533047D01*
X12310657Y25533047D02*
X12250180Y25533047D01*
X12250180Y25533047D02*
X12129228Y25593523D01*
X12129228Y25593523D02*
X12068752Y25654000D01*
X12068752Y25654000D02*
X12008276Y25774952D01*
X12008276Y25774952D02*
X12008276Y26016857D01*
X12008276Y26016857D02*
X12068752Y26137809D01*
X12068752Y26137809D02*
X12129228Y26198285D01*
X12129228Y26198285D02*
X12250180Y26258762D01*
X12250180Y26258762D02*
X12310657Y26258762D01*
X12310657Y26258762D02*
X12431609Y26198285D01*
X12431609Y26198285D02*
X12492085Y26137809D01*
X12492085Y26137809D02*
X12552561Y26016857D01*
X12552561Y26016857D02*
X12552561Y25774952D01*
X12552561Y25774952D02*
X12613038Y25654000D01*
X12613038Y25654000D02*
X12673514Y25593523D01*
X12673514Y25593523D02*
X12794466Y25533047D01*
X12794466Y25533047D02*
X13036371Y25533047D01*
X13036371Y25533047D02*
X13157323Y25593523D01*
X13157323Y25593523D02*
X13217800Y25654000D01*
X13217800Y25654000D02*
X13278276Y25774952D01*
X13278276Y25774952D02*
X13278276Y26016857D01*
X13278276Y26016857D02*
X13217800Y26137809D01*
X13217800Y26137809D02*
X13157323Y26198285D01*
X13157323Y26198285D02*
X13036371Y26258762D01*
X13036371Y26258762D02*
X12794466Y26258762D01*
X12794466Y26258762D02*
X12673514Y26198285D01*
X12673514Y26198285D02*
X12613038Y26137809D01*
X12613038Y26137809D02*
X12552561Y26016857D01*
X12794466Y26803047D02*
X12794466Y27770667D01*
X12008276Y28980190D02*
X12008276Y28375428D01*
X12008276Y28375428D02*
X12613038Y28314952D01*
X12613038Y28314952D02*
X12552561Y28375428D01*
X12552561Y28375428D02*
X12492085Y28496381D01*
X12492085Y28496381D02*
X12492085Y28798762D01*
X12492085Y28798762D02*
X12552561Y28919714D01*
X12552561Y28919714D02*
X12613038Y28980190D01*
X12613038Y28980190D02*
X12733990Y29040667D01*
X12733990Y29040667D02*
X13036371Y29040667D01*
X13036371Y29040667D02*
X13157323Y28980190D01*
X13157323Y28980190D02*
X13217800Y28919714D01*
X13217800Y28919714D02*
X13278276Y28798762D01*
X13278276Y28798762D02*
X13278276Y28496381D01*
X13278276Y28496381D02*
X13217800Y28375428D01*
X13217800Y28375428D02*
X13157323Y28314952D01*
X12008276Y29403524D02*
X13278276Y29826857D01*
X13278276Y29826857D02*
X12008276Y30250191D01*
X11233576Y8992809D02*
X9963576Y8992809D01*
X9963576Y8992809D02*
X9963576Y9476619D01*
X9963576Y9476619D02*
X10024052Y9597571D01*
X10024052Y9597571D02*
X10084528Y9658048D01*
X10084528Y9658048D02*
X10205480Y9718524D01*
X10205480Y9718524D02*
X10386909Y9718524D01*
X10386909Y9718524D02*
X10507861Y9658048D01*
X10507861Y9658048D02*
X10568338Y9597571D01*
X10568338Y9597571D02*
X10628814Y9476619D01*
X10628814Y9476619D02*
X10628814Y8992809D01*
X9963576Y10504714D02*
X9963576Y10746619D01*
X9963576Y10746619D02*
X10024052Y10867571D01*
X10024052Y10867571D02*
X10145004Y10988524D01*
X10145004Y10988524D02*
X10386909Y11049000D01*
X10386909Y11049000D02*
X10810242Y11049000D01*
X10810242Y11049000D02*
X11052147Y10988524D01*
X11052147Y10988524D02*
X11173100Y10867571D01*
X11173100Y10867571D02*
X11233576Y10746619D01*
X11233576Y10746619D02*
X11233576Y10504714D01*
X11233576Y10504714D02*
X11173100Y10383762D01*
X11173100Y10383762D02*
X11052147Y10262809D01*
X11052147Y10262809D02*
X10810242Y10202333D01*
X10810242Y10202333D02*
X10386909Y10202333D01*
X10386909Y10202333D02*
X10145004Y10262809D01*
X10145004Y10262809D02*
X10024052Y10383762D01*
X10024052Y10383762D02*
X9963576Y10504714D01*
X9963576Y11472333D02*
X11233576Y11774714D01*
X11233576Y11774714D02*
X10326433Y12016619D01*
X10326433Y12016619D02*
X11233576Y12258524D01*
X11233576Y12258524D02*
X9963576Y12560905D01*
X10568338Y13044714D02*
X10568338Y13468048D01*
X11233576Y13649476D02*
X11233576Y13044714D01*
X11233576Y13044714D02*
X9963576Y13044714D01*
X9963576Y13044714D02*
X9963576Y13649476D01*
X11233576Y14919477D02*
X10628814Y14496143D01*
X11233576Y14193762D02*
X9963576Y14193762D01*
X9963576Y14193762D02*
X9963576Y14677572D01*
X9963576Y14677572D02*
X10024052Y14798524D01*
X10024052Y14798524D02*
X10084528Y14859001D01*
X10084528Y14859001D02*
X10205480Y14919477D01*
X10205480Y14919477D02*
X10386909Y14919477D01*
X10386909Y14919477D02*
X10507861Y14859001D01*
X10507861Y14859001D02*
X10568338Y14798524D01*
X10568338Y14798524D02*
X10628814Y14677572D01*
X10628814Y14677572D02*
X10628814Y14193762D01*
X9963576Y16673286D02*
X9963576Y16915191D01*
X9963576Y16915191D02*
X10024052Y17036143D01*
X10024052Y17036143D02*
X10145004Y17157096D01*
X10145004Y17157096D02*
X10386909Y17217572D01*
X10386909Y17217572D02*
X10810242Y17217572D01*
X10810242Y17217572D02*
X11052147Y17157096D01*
X11052147Y17157096D02*
X11173100Y17036143D01*
X11173100Y17036143D02*
X11233576Y16915191D01*
X11233576Y16915191D02*
X11233576Y16673286D01*
X11233576Y16673286D02*
X11173100Y16552334D01*
X11173100Y16552334D02*
X11052147Y16431381D01*
X11052147Y16431381D02*
X10810242Y16370905D01*
X10810242Y16370905D02*
X10386909Y16370905D01*
X10386909Y16370905D02*
X10145004Y16431381D01*
X10145004Y16431381D02*
X10024052Y16552334D01*
X10024052Y16552334D02*
X9963576Y16673286D01*
X9963576Y17761857D02*
X10991671Y17761857D01*
X10991671Y17761857D02*
X11112623Y17822334D01*
X11112623Y17822334D02*
X11173100Y17882810D01*
X11173100Y17882810D02*
X11233576Y18003762D01*
X11233576Y18003762D02*
X11233576Y18245667D01*
X11233576Y18245667D02*
X11173100Y18366619D01*
X11173100Y18366619D02*
X11112623Y18427096D01*
X11112623Y18427096D02*
X10991671Y18487572D01*
X10991671Y18487572D02*
X9963576Y18487572D01*
X9963576Y18910905D02*
X9963576Y19636619D01*
X11233576Y19273762D02*
X9963576Y19273762D01*
X13278276Y10111618D02*
X12008276Y10111618D01*
X12008276Y10111618D02*
X12915419Y10534952D01*
X12915419Y10534952D02*
X12008276Y10958285D01*
X12008276Y10958285D02*
X13278276Y10958285D01*
X12915419Y11502571D02*
X12915419Y12107333D01*
X13278276Y11381619D02*
X12008276Y11804952D01*
X12008276Y11804952D02*
X13278276Y12228286D01*
X12008276Y12530666D02*
X13278276Y13377333D01*
X12008276Y13377333D02*
X13278276Y12530666D01*
X12129228Y14768285D02*
X12068752Y14828761D01*
X12068752Y14828761D02*
X12008276Y14949714D01*
X12008276Y14949714D02*
X12008276Y15252095D01*
X12008276Y15252095D02*
X12068752Y15373047D01*
X12068752Y15373047D02*
X12129228Y15433523D01*
X12129228Y15433523D02*
X12250180Y15494000D01*
X12250180Y15494000D02*
X12371133Y15494000D01*
X12371133Y15494000D02*
X12552561Y15433523D01*
X12552561Y15433523D02*
X13278276Y14707809D01*
X13278276Y14707809D02*
X13278276Y15494000D01*
X12552561Y16219714D02*
X12492085Y16098762D01*
X12492085Y16098762D02*
X12431609Y16038285D01*
X12431609Y16038285D02*
X12310657Y15977809D01*
X12310657Y15977809D02*
X12250180Y15977809D01*
X12250180Y15977809D02*
X12129228Y16038285D01*
X12129228Y16038285D02*
X12068752Y16098762D01*
X12068752Y16098762D02*
X12008276Y16219714D01*
X12008276Y16219714D02*
X12008276Y16461619D01*
X12008276Y16461619D02*
X12068752Y16582571D01*
X12068752Y16582571D02*
X12129228Y16643047D01*
X12129228Y16643047D02*
X12250180Y16703524D01*
X12250180Y16703524D02*
X12310657Y16703524D01*
X12310657Y16703524D02*
X12431609Y16643047D01*
X12431609Y16643047D02*
X12492085Y16582571D01*
X12492085Y16582571D02*
X12552561Y16461619D01*
X12552561Y16461619D02*
X12552561Y16219714D01*
X12552561Y16219714D02*
X12613038Y16098762D01*
X12613038Y16098762D02*
X12673514Y16038285D01*
X12673514Y16038285D02*
X12794466Y15977809D01*
X12794466Y15977809D02*
X13036371Y15977809D01*
X13036371Y15977809D02*
X13157323Y16038285D01*
X13157323Y16038285D02*
X13217800Y16098762D01*
X13217800Y16098762D02*
X13278276Y16219714D01*
X13278276Y16219714D02*
X13278276Y16461619D01*
X13278276Y16461619D02*
X13217800Y16582571D01*
X13217800Y16582571D02*
X13157323Y16643047D01*
X13157323Y16643047D02*
X13036371Y16703524D01*
X13036371Y16703524D02*
X12794466Y16703524D01*
X12794466Y16703524D02*
X12673514Y16643047D01*
X12673514Y16643047D02*
X12613038Y16582571D01*
X12613038Y16582571D02*
X12552561Y16461619D01*
X12008276Y17066381D02*
X13278276Y17489714D01*
X13278276Y17489714D02*
X12008276Y17913048D01*
X13157323Y18336380D02*
X13217800Y18396857D01*
X13217800Y18396857D02*
X13278276Y18336380D01*
X13278276Y18336380D02*
X13217800Y18275904D01*
X13217800Y18275904D02*
X13157323Y18336380D01*
X13157323Y18336380D02*
X13278276Y18336380D01*
X12794466Y18336380D02*
X12068752Y18275904D01*
X12068752Y18275904D02*
X12008276Y18336380D01*
X12008276Y18336380D02*
X12068752Y18396857D01*
X12068752Y18396857D02*
X12794466Y18336380D01*
X12794466Y18336380D02*
X12008276Y18336380D01*
X2446688Y26915748D02*
X2446688Y27339082D01*
X3111926Y27520510D02*
X3111926Y26915748D01*
X3111926Y26915748D02*
X1841926Y26915748D01*
X1841926Y26915748D02*
X1841926Y27520510D01*
X3111926Y28064796D02*
X1841926Y28064796D01*
X1841926Y28064796D02*
X3111926Y28790511D01*
X3111926Y28790511D02*
X1841926Y28790511D01*
X1902402Y17727775D02*
X1841926Y17606822D01*
X1841926Y17606822D02*
X1841926Y17425394D01*
X1841926Y17425394D02*
X1902402Y17243965D01*
X1902402Y17243965D02*
X2023354Y17123013D01*
X2023354Y17123013D02*
X2144307Y17062536D01*
X2144307Y17062536D02*
X2386211Y17002060D01*
X2386211Y17002060D02*
X2567640Y17002060D01*
X2567640Y17002060D02*
X2809545Y17062536D01*
X2809545Y17062536D02*
X2930497Y17123013D01*
X2930497Y17123013D02*
X3051450Y17243965D01*
X3051450Y17243965D02*
X3111926Y17425394D01*
X3111926Y17425394D02*
X3111926Y17546346D01*
X3111926Y17546346D02*
X3051450Y17727775D01*
X3051450Y17727775D02*
X2990973Y17788251D01*
X2990973Y17788251D02*
X2567640Y17788251D01*
X2567640Y17788251D02*
X2567640Y17546346D01*
X3111926Y18332536D02*
X1841926Y18332536D01*
X1841926Y18332536D02*
X3111926Y19058251D01*
X3111926Y19058251D02*
X1841926Y19058251D01*
X3111926Y19663012D02*
X1841926Y19663012D01*
X1841926Y19663012D02*
X1841926Y19965393D01*
X1841926Y19965393D02*
X1902402Y20146822D01*
X1902402Y20146822D02*
X2023354Y20267774D01*
X2023354Y20267774D02*
X2144307Y20328251D01*
X2144307Y20328251D02*
X2386211Y20388727D01*
X2386211Y20388727D02*
X2567640Y20388727D01*
X2567640Y20388727D02*
X2809545Y20328251D01*
X2809545Y20328251D02*
X2930497Y20267774D01*
X2930497Y20267774D02*
X3051450Y20146822D01*
X3051450Y20146822D02*
X3111926Y19965393D01*
X3111926Y19965393D02*
X3111926Y19663012D01*
X6159926Y18185190D02*
X4889926Y18185190D01*
X4889926Y18185190D02*
X5797069Y18608524D01*
X5797069Y18608524D02*
X4889926Y19031857D01*
X4889926Y19031857D02*
X6159926Y19031857D01*
X6159926Y20241381D02*
X6159926Y19636619D01*
X6159926Y19636619D02*
X4889926Y19636619D01*
X5797069Y20604238D02*
X5797069Y21209000D01*
X6159926Y20483286D02*
X4889926Y20906619D01*
X4889926Y20906619D02*
X6159926Y21329953D01*
X5494688Y22176619D02*
X5555164Y22358047D01*
X5555164Y22358047D02*
X5615640Y22418524D01*
X5615640Y22418524D02*
X5736592Y22479000D01*
X5736592Y22479000D02*
X5918021Y22479000D01*
X5918021Y22479000D02*
X6038973Y22418524D01*
X6038973Y22418524D02*
X6099450Y22358047D01*
X6099450Y22358047D02*
X6159926Y22237095D01*
X6159926Y22237095D02*
X6159926Y21753285D01*
X6159926Y21753285D02*
X4889926Y21753285D01*
X4889926Y21753285D02*
X4889926Y22176619D01*
X4889926Y22176619D02*
X4950402Y22297571D01*
X4950402Y22297571D02*
X5010878Y22358047D01*
X5010878Y22358047D02*
X5131830Y22418524D01*
X5131830Y22418524D02*
X5252783Y22418524D01*
X5252783Y22418524D02*
X5373735Y22358047D01*
X5373735Y22358047D02*
X5434211Y22297571D01*
X5434211Y22297571D02*
X5494688Y22176619D01*
X5494688Y22176619D02*
X5494688Y21753285D01*
X6038973Y23023285D02*
X6099450Y23083762D01*
X6099450Y23083762D02*
X6159926Y23023285D01*
X6159926Y23023285D02*
X6099450Y22962809D01*
X6099450Y22962809D02*
X6038973Y23023285D01*
X6038973Y23023285D02*
X6159926Y23023285D01*
X6038973Y24353762D02*
X6099450Y24293286D01*
X6099450Y24293286D02*
X6159926Y24111857D01*
X6159926Y24111857D02*
X6159926Y23990905D01*
X6159926Y23990905D02*
X6099450Y23809476D01*
X6099450Y23809476D02*
X5978497Y23688524D01*
X5978497Y23688524D02*
X5857545Y23628047D01*
X5857545Y23628047D02*
X5615640Y23567571D01*
X5615640Y23567571D02*
X5434211Y23567571D01*
X5434211Y23567571D02*
X5192307Y23628047D01*
X5192307Y23628047D02*
X5071354Y23688524D01*
X5071354Y23688524D02*
X4950402Y23809476D01*
X4950402Y23809476D02*
X4889926Y23990905D01*
X4889926Y23990905D02*
X4889926Y24111857D01*
X4889926Y24111857D02*
X4950402Y24293286D01*
X4950402Y24293286D02*
X5010878Y24353762D01*
X4889926Y24777095D02*
X4889926Y25623762D01*
X4889926Y25623762D02*
X6159926Y24777095D01*
X6159926Y24777095D02*
X6159926Y25623762D01*
D11*
%TO.C,J1*%
X14239857Y29362290D02*
X13954143Y29362290D01*
X14097000Y29362290D02*
X14097000Y29862290D01*
X14097000Y29862290D02*
X14049381Y29790861D01*
X14049381Y29790861D02*
X14001762Y29743242D01*
X14001762Y29743242D02*
X13954143Y29719433D01*
%TO.C,J4*%
X14239857Y17551290D02*
X13954143Y17551290D01*
X14097000Y17551290D02*
X14097000Y18051290D01*
X14097000Y18051290D02*
X14049381Y17979861D01*
X14049381Y17979861D02*
X14001762Y17932242D01*
X14001762Y17932242D02*
X13954143Y17908433D01*
D12*
%TO.C,J1*%
X14478000Y30861000D02*
X19558000Y30861000D01*
X19558000Y23241000D02*
X14478000Y23241000D01*
X19558000Y30861000D02*
X19558000Y23241000D01*
X14478000Y23241000D02*
X14478000Y30861000D01*
%TO.C,J2*%
X3810000Y26289000D02*
X3810000Y21209000D01*
X1270000Y21209000D02*
X1270000Y26289000D01*
X3810000Y21209000D02*
X1270000Y21209000D01*
X1270000Y26289000D02*
X3810000Y26289000D01*
%TO.C,J4*%
X19558000Y8890000D02*
X14478000Y8890000D01*
X14478000Y8890000D02*
X14478000Y19050000D01*
X19558000Y19050000D02*
X19558000Y8890000D01*
X14478000Y19050000D02*
X19558000Y19050000D01*
%TD*%
D13*
%TO.C,J1*%
X15748000Y29591000D03*
X18288000Y29591000D03*
X15748000Y27051000D03*
X18288000Y27051000D03*
X15748000Y24511000D03*
X18288000Y24511000D03*
%TD*%
%TO.C,J2*%
X2540000Y22479000D03*
X2540000Y25019000D03*
%TD*%
%TO.C,J4*%
X15748000Y17780000D03*
X18288000Y17780000D03*
X15748000Y15240000D03*
X18288000Y15240000D03*
X15748000Y12700000D03*
X18288000Y12700000D03*
X15748000Y10160000D03*
X18288000Y10160000D03*
%TD*%
M02*
