M48
; DRILL file {KiCad 7.0.5.1-1-g8f565ef7f0-dirty-deb11} date Thu Jul 20 11:08:37 2023
; FORMAT={3:3/ absolute / metric / suppress leading zeros}
; #@! TF.CreationDate,2023-07-20T11:08:37+00:00
; #@! TF.GenerationSoftware,Kicad,Pcbnew,7.0.5.1-1-g8f565ef7f0-dirty-deb11
; #@! TF.FileFunction,Plated,1,2,PTH
FMAT,2
METRIC,TZ
; #@! TA.AperFunction,Plated,PTH,ViaDrill
T1C0.400
; #@! TA.AperFunction,Plated,PTH,ComponentDrill
T2C0.889
; #@! TA.AperFunction,Plated,PTH,ComponentDrill
T3C3.000
%
G90
G05
T1
X1397Y14859
X1397Y13462
X2794Y13462
X3937Y13462
X4191Y22479
X4826Y28702
X4826Y12573
X4826Y11303
X4826Y10160
X4953Y26670
X6350Y26670
X6731Y20574
X8001Y20574
X9017Y19685
X9017Y18288
X9271Y17018
X10033Y18034
X11811Y18034
X12700Y29591
X13970Y29591
X15621Y19558
X15748Y22733
X16891Y19558
X17018Y22733
X18415Y22733
X18415Y19558
T2
X2540Y25019
X2540Y22479
X15748Y29591
X15748Y27051
X15748Y24511
X15748Y17780
X15748Y15240
X15748Y12700
X15748Y10160
X18288Y29591
X18288Y27051
X18288Y24511
X18288Y17780
X18288Y15240
X18288Y12700
X18288Y10160
T3
X5080Y35560
X5080Y5080
X15240Y35560
X15240Y5080
T0
M30
