%TF.GenerationSoftware,KiCad,Pcbnew,7.0.5.1-1-g8f565ef7f0-dirty-deb11*%
%TF.CreationDate,2023-07-21T01:05:26+00:00*%
%TF.ProjectId,STEPUPDC02,53544550-5550-4444-9330-322e6b696361,rev?*%
%TF.SameCoordinates,Original*%
%TF.FileFunction,Copper,L1,Top*%
%TF.FilePolarity,Positive*%
%FSLAX46Y46*%
G04 Gerber Fmt 4.6, Leading zero omitted, Abs format (unit mm)*
G04 Created by KiCad (PCBNEW 7.0.5.1-1-g8f565ef7f0-dirty-deb11) date 2023-07-21 01:05:26*
%MOMM*%
%LPD*%
G01*
G04 APERTURE LIST*
%TA.AperFunction,ComponentPad*%
%ADD10C,6.000000*%
%TD*%
%TA.AperFunction,ComponentPad*%
%ADD11R,1.524000X1.524000*%
%TD*%
%TA.AperFunction,ViaPad*%
%ADD12C,0.800000*%
%TD*%
%TA.AperFunction,Conductor*%
%ADD13C,0.500000*%
%TD*%
G04 APERTURE END LIST*
D10*
%TO.P,M1,1*%
%TO.N,N/C*%
X15240000Y35560000D03*
%TD*%
%TO.P,M2,1*%
%TO.N,N/C*%
X15240000Y5080000D03*
%TD*%
%TO.P,M3,1*%
%TO.N,N/C*%
X5080000Y5080000D03*
%TD*%
%TO.P,M4,1*%
%TO.N,N/C*%
X5080000Y35560000D03*
%TD*%
D11*
%TO.P,J1,1*%
%TO.N,GND*%
X15748000Y29591000D03*
%TO.P,J1,2*%
X18288000Y29591000D03*
%TO.P,J1,3*%
%TO.N,/Power*%
X15748000Y27051000D03*
%TO.P,J1,4*%
X18288000Y27051000D03*
%TO.P,J1,5*%
%TO.N,GND*%
X15748000Y24511000D03*
%TO.P,J1,6*%
X18288000Y24511000D03*
%TD*%
%TO.P,J2,1*%
%TO.N,GND*%
X2540000Y22479000D03*
%TO.P,J2,2*%
%TO.N,/ENABLE*%
X2540000Y25019000D03*
%TD*%
%TO.P,J4,1*%
%TO.N,GND*%
X15748000Y17780000D03*
%TO.P,J4,2*%
X18288000Y17780000D03*
%TO.P,J4,3*%
%TO.N,/PowerOUT*%
X15748000Y15240000D03*
%TO.P,J4,4*%
X18288000Y15240000D03*
%TO.P,J4,5*%
X15748000Y12700000D03*
%TO.P,J4,6*%
X18288000Y12700000D03*
%TO.P,J4,7*%
%TO.N,GND*%
X15748000Y10160000D03*
%TO.P,J4,8*%
X18288000Y10160000D03*
%TD*%
D12*
%TO.N,GND*%
X1397000Y13462000D03*
X2794000Y13462000D03*
X11811000Y18034000D03*
X4953000Y26670000D03*
X16891000Y19558000D03*
X4826000Y12573000D03*
X9017000Y19685000D03*
X8001000Y20574000D03*
X4826000Y11303000D03*
X18415000Y19558000D03*
X9271000Y17018000D03*
X12700000Y29591000D03*
X4191000Y22479000D03*
X4826000Y10160000D03*
X9017000Y18288000D03*
X13970000Y29591000D03*
X18415000Y22733000D03*
X6350000Y26670000D03*
X10033000Y18033998D03*
X6731000Y20574000D03*
X1397000Y14859000D03*
X15748000Y22733000D03*
X15621000Y19558000D03*
X4826000Y28702000D03*
X17018000Y22733000D03*
X3937000Y13462000D03*
%TD*%
D13*
%TO.N,GND*%
X2794000Y13462000D02*
X1397000Y13462000D01*
X13970000Y29591000D02*
X12700000Y29591000D01*
X9778998Y18288000D02*
X10033000Y18033998D01*
X4826000Y12573000D02*
X3937000Y13462000D01*
X4826000Y10160000D02*
X4826000Y11303000D01*
X6731000Y20574000D02*
X8001000Y20574000D01*
X9017000Y18288000D02*
X9778998Y18288000D01*
X9017000Y19685000D02*
X9017000Y18288000D01*
X15621000Y19558000D02*
X16891000Y19558000D01*
X6350000Y26670000D02*
X4953000Y26670000D01*
X15748000Y22733000D02*
X17018000Y22733000D01*
%TD*%
%TA.AperFunction,Conductor*%
%TO.N,GND*%
G36*
X19932621Y40290498D02*
G01*
X19979114Y40236842D01*
X19990500Y40184500D01*
X19990500Y455500D01*
X19970498Y387379D01*
X19916842Y340886D01*
X19864500Y329500D01*
X455500Y329500D01*
X387379Y349502D01*
X340886Y403158D01*
X329500Y455500D01*
X329500Y5079996D01*
X1074675Y5079996D01*
X1093962Y4687412D01*
X1093963Y4687398D01*
X1151635Y4298606D01*
X1151636Y4298600D01*
X1199389Y4107958D01*
X1247144Y3917310D01*
X1379561Y3547230D01*
X1547621Y3191899D01*
X1749696Y2854756D01*
X1983834Y2539057D01*
X2247808Y2247808D01*
X2539057Y1983834D01*
X2854756Y1749696D01*
X3191899Y1547621D01*
X3547230Y1379561D01*
X3917310Y1247144D01*
X4107958Y1199389D01*
X4298600Y1151636D01*
X4298604Y1151635D01*
X4298606Y1151635D01*
X4687398Y1093963D01*
X4687406Y1093962D01*
X4687409Y1093962D01*
X4855662Y1085696D01*
X5079996Y1074675D01*
X5080000Y1074675D01*
X5080004Y1074675D01*
X5276295Y1084318D01*
X5472591Y1093962D01*
X5472594Y1093962D01*
X5472601Y1093963D01*
X5861393Y1151635D01*
X5861400Y1151636D01*
X6146995Y1223174D01*
X6242689Y1247144D01*
X6612769Y1379561D01*
X6612772Y1379562D01*
X6968097Y1547619D01*
X7081649Y1615680D01*
X7305243Y1749696D01*
X7620942Y1983834D01*
X7620951Y1983842D01*
X7912192Y2247808D01*
X8176158Y2539049D01*
X8176159Y2539050D01*
X8176165Y2539057D01*
X8410303Y2854756D01*
X8410306Y2854761D01*
X8612381Y3191903D01*
X8780438Y3547228D01*
X8912857Y3917316D01*
X9008364Y4298600D01*
X9066038Y4687409D01*
X9085325Y5079996D01*
X11234675Y5079996D01*
X11253962Y4687412D01*
X11253963Y4687398D01*
X11311635Y4298606D01*
X11311636Y4298600D01*
X11359389Y4107958D01*
X11407144Y3917310D01*
X11539561Y3547230D01*
X11707621Y3191899D01*
X11909696Y2854756D01*
X12143834Y2539057D01*
X12407808Y2247808D01*
X12699057Y1983834D01*
X13014756Y1749696D01*
X13351899Y1547621D01*
X13707230Y1379561D01*
X14077310Y1247144D01*
X14267958Y1199389D01*
X14458600Y1151636D01*
X14458604Y1151635D01*
X14458606Y1151635D01*
X14847398Y1093963D01*
X14847406Y1093962D01*
X14847409Y1093962D01*
X15015662Y1085696D01*
X15239996Y1074675D01*
X15240000Y1074675D01*
X15240004Y1074675D01*
X15436295Y1084318D01*
X15632591Y1093962D01*
X15632594Y1093962D01*
X15632601Y1093963D01*
X16021393Y1151635D01*
X16021400Y1151636D01*
X16306995Y1223174D01*
X16402689Y1247144D01*
X16772769Y1379561D01*
X16772772Y1379562D01*
X17128097Y1547619D01*
X17241649Y1615680D01*
X17465243Y1749696D01*
X17780942Y1983834D01*
X17780951Y1983842D01*
X18072192Y2247808D01*
X18336158Y2539049D01*
X18336159Y2539050D01*
X18336165Y2539057D01*
X18570303Y2854756D01*
X18570306Y2854761D01*
X18772381Y3191903D01*
X18940438Y3547228D01*
X19072857Y3917316D01*
X19168364Y4298600D01*
X19226038Y4687409D01*
X19245325Y5080000D01*
X19226038Y5472591D01*
X19168364Y5861400D01*
X19072857Y6242684D01*
X18940438Y6612772D01*
X18772381Y6968097D01*
X18570306Y7305239D01*
X18336158Y7620951D01*
X18072192Y7912192D01*
X17780951Y8176158D01*
X17465239Y8410306D01*
X17128097Y8612381D01*
X16772772Y8780438D01*
X16402684Y8912857D01*
X16021400Y9008364D01*
X15632591Y9066038D01*
X15295384Y9082604D01*
X15240004Y9085325D01*
X15239996Y9085325D01*
X15182590Y9082504D01*
X14847409Y9066038D01*
X14458600Y9008364D01*
X14077316Y8912857D01*
X13707228Y8780438D01*
X13351903Y8612381D01*
X13014761Y8410306D01*
X13014756Y8410303D01*
X12699057Y8176165D01*
X12699050Y8176159D01*
X12699049Y8176158D01*
X12407808Y7912192D01*
X12143842Y7620951D01*
X12143834Y7620942D01*
X11909696Y7305243D01*
X11909694Y7305239D01*
X11707619Y6968097D01*
X11539562Y6612772D01*
X11539561Y6612769D01*
X11407144Y6242689D01*
X11407143Y6242684D01*
X11311636Y5861400D01*
X11311635Y5861393D01*
X11253963Y5472601D01*
X11253962Y5472587D01*
X11234675Y5080003D01*
X11234675Y5079996D01*
X9085325Y5079996D01*
X9085325Y5080000D01*
X9066038Y5472591D01*
X9008364Y5861400D01*
X8912857Y6242684D01*
X8780438Y6612772D01*
X8612381Y6968097D01*
X8410306Y7305239D01*
X8176158Y7620951D01*
X7912192Y7912192D01*
X7620951Y8176158D01*
X7305239Y8410306D01*
X6968097Y8612381D01*
X6612772Y8780438D01*
X6242684Y8912857D01*
X5861400Y9008364D01*
X5472591Y9066038D01*
X5135384Y9082604D01*
X5080004Y9085325D01*
X5079996Y9085325D01*
X5022590Y9082504D01*
X4687409Y9066038D01*
X4298600Y9008364D01*
X3917316Y8912857D01*
X3547228Y8780438D01*
X3191903Y8612381D01*
X2854761Y8410306D01*
X2854756Y8410303D01*
X2539057Y8176165D01*
X2539050Y8176159D01*
X2539049Y8176158D01*
X2247808Y7912192D01*
X1983842Y7620951D01*
X1983834Y7620942D01*
X1749696Y7305243D01*
X1749694Y7305239D01*
X1547619Y6968097D01*
X1379562Y6612772D01*
X1379561Y6612769D01*
X1247144Y6242689D01*
X1247143Y6242684D01*
X1151636Y5861400D01*
X1151635Y5861393D01*
X1093963Y5472601D01*
X1093962Y5472587D01*
X1074675Y5080003D01*
X1074675Y5079996D01*
X329500Y5079996D01*
X329500Y11893140D01*
X14685500Y11893140D01*
X14685501Y11893133D01*
X14688414Y11868009D01*
X14688416Y11868005D01*
X14733793Y11765234D01*
X14813232Y11685795D01*
X14813234Y11685794D01*
X14916010Y11640414D01*
X14916009Y11640414D01*
X14941131Y11637500D01*
X14941135Y11637500D01*
X16554859Y11637500D01*
X16554866Y11637501D01*
X16579990Y11640414D01*
X16579994Y11640416D01*
X16682765Y11685793D01*
X16762204Y11765232D01*
X16762205Y11765234D01*
X16762206Y11765235D01*
X16807585Y11868009D01*
X16810500Y11893135D01*
X16810500Y11893140D01*
X17225500Y11893140D01*
X17225501Y11893133D01*
X17228414Y11868009D01*
X17228416Y11868005D01*
X17273793Y11765234D01*
X17353232Y11685795D01*
X17353234Y11685794D01*
X17456010Y11640414D01*
X17456009Y11640414D01*
X17481131Y11637500D01*
X17481135Y11637500D01*
X19094859Y11637500D01*
X19094866Y11637501D01*
X19119990Y11640414D01*
X19119994Y11640416D01*
X19222765Y11685793D01*
X19302204Y11765232D01*
X19302205Y11765234D01*
X19302206Y11765235D01*
X19347585Y11868009D01*
X19350500Y11893135D01*
X19350499Y13506864D01*
X19347585Y13531991D01*
X19302206Y13634765D01*
X19222765Y13714206D01*
X19119991Y13759585D01*
X19094865Y13762500D01*
X17481136Y13762499D01*
X17456009Y13759585D01*
X17420422Y13743872D01*
X17353234Y13714206D01*
X17273795Y13634767D01*
X17273794Y13634765D01*
X17228414Y13531990D01*
X17225500Y13506870D01*
X17225500Y11893140D01*
X16810500Y11893140D01*
X16810499Y13506864D01*
X16807585Y13531991D01*
X16762206Y13634765D01*
X16682765Y13714206D01*
X16579991Y13759585D01*
X16554865Y13762500D01*
X14941136Y13762499D01*
X14916009Y13759585D01*
X14880422Y13743872D01*
X14813234Y13714206D01*
X14733795Y13634767D01*
X14733794Y13634765D01*
X14688414Y13531990D01*
X14685500Y13506870D01*
X14685500Y11893140D01*
X329500Y11893140D01*
X329500Y14433140D01*
X14685500Y14433140D01*
X14685501Y14433133D01*
X14688414Y14408009D01*
X14688416Y14408005D01*
X14733793Y14305234D01*
X14813232Y14225795D01*
X14813234Y14225794D01*
X14916010Y14180414D01*
X14916009Y14180414D01*
X14941131Y14177500D01*
X14941135Y14177500D01*
X16554859Y14177500D01*
X16554866Y14177501D01*
X16579990Y14180414D01*
X16579994Y14180416D01*
X16682765Y14225793D01*
X16762204Y14305232D01*
X16762205Y14305234D01*
X16762206Y14305235D01*
X16807585Y14408009D01*
X16810500Y14433135D01*
X16810500Y14433140D01*
X17225500Y14433140D01*
X17225501Y14433133D01*
X17228414Y14408009D01*
X17228416Y14408005D01*
X17273793Y14305234D01*
X17353232Y14225795D01*
X17353234Y14225794D01*
X17456010Y14180414D01*
X17456009Y14180414D01*
X17481131Y14177500D01*
X17481135Y14177500D01*
X19094859Y14177500D01*
X19094866Y14177501D01*
X19119990Y14180414D01*
X19119994Y14180416D01*
X19222765Y14225793D01*
X19302204Y14305232D01*
X19302205Y14305234D01*
X19302206Y14305235D01*
X19347585Y14408009D01*
X19350500Y14433135D01*
X19350499Y16046864D01*
X19347585Y16071991D01*
X19302206Y16174765D01*
X19222765Y16254206D01*
X19119991Y16299585D01*
X19094865Y16302500D01*
X17481136Y16302499D01*
X17456009Y16299585D01*
X17420422Y16283872D01*
X17353234Y16254206D01*
X17273795Y16174767D01*
X17273794Y16174765D01*
X17228414Y16071990D01*
X17225500Y16046870D01*
X17225500Y14433140D01*
X16810500Y14433140D01*
X16810499Y16046864D01*
X16807585Y16071991D01*
X16762206Y16174765D01*
X16682765Y16254206D01*
X16579991Y16299585D01*
X16554865Y16302500D01*
X14941136Y16302499D01*
X14916009Y16299585D01*
X14880422Y16283872D01*
X14813234Y16254206D01*
X14733795Y16174767D01*
X14733794Y16174765D01*
X14688414Y16071990D01*
X14685500Y16046870D01*
X14685500Y14433140D01*
X329500Y14433140D01*
X329500Y24212140D01*
X1477500Y24212140D01*
X1477501Y24212133D01*
X1480414Y24187009D01*
X1480416Y24187005D01*
X1525793Y24084234D01*
X1605232Y24004795D01*
X1605234Y24004794D01*
X1708010Y23959414D01*
X1708009Y23959414D01*
X1733131Y23956500D01*
X1733135Y23956500D01*
X3346859Y23956500D01*
X3346866Y23956501D01*
X3371990Y23959414D01*
X3371994Y23959416D01*
X3474765Y24004793D01*
X3554204Y24084232D01*
X3554205Y24084234D01*
X3554204Y24084234D01*
X3554206Y24084235D01*
X3599585Y24187009D01*
X3602500Y24212135D01*
X3602499Y25825864D01*
X3599585Y25850991D01*
X3554206Y25953765D01*
X3474765Y26033206D01*
X3371991Y26078585D01*
X3346865Y26081500D01*
X1733136Y26081499D01*
X1708009Y26078585D01*
X1672422Y26062872D01*
X1605234Y26033206D01*
X1525795Y25953767D01*
X1525794Y25953765D01*
X1480414Y25850990D01*
X1477500Y25825870D01*
X1477500Y24212140D01*
X329500Y24212140D01*
X329500Y26244140D01*
X14685500Y26244140D01*
X14685501Y26244133D01*
X14688414Y26219009D01*
X14688416Y26219005D01*
X14733793Y26116234D01*
X14813232Y26036795D01*
X14813234Y26036794D01*
X14916010Y25991414D01*
X14916009Y25991414D01*
X14941131Y25988500D01*
X14941135Y25988500D01*
X16554859Y25988500D01*
X16554866Y25988501D01*
X16579990Y25991414D01*
X16579994Y25991416D01*
X16682765Y26036793D01*
X16762204Y26116232D01*
X16762205Y26116234D01*
X16762204Y26116234D01*
X16762206Y26116235D01*
X16807585Y26219009D01*
X16810500Y26244135D01*
X16810500Y26244140D01*
X17225500Y26244140D01*
X17225501Y26244133D01*
X17228414Y26219009D01*
X17228416Y26219005D01*
X17273793Y26116234D01*
X17353232Y26036795D01*
X17353234Y26036794D01*
X17456010Y25991414D01*
X17456009Y25991414D01*
X17481131Y25988500D01*
X17481135Y25988500D01*
X19094859Y25988500D01*
X19094866Y25988501D01*
X19119990Y25991414D01*
X19119994Y25991416D01*
X19222765Y26036793D01*
X19302204Y26116232D01*
X19302205Y26116234D01*
X19302206Y26116235D01*
X19347585Y26219009D01*
X19350500Y26244135D01*
X19350499Y27857864D01*
X19347585Y27882991D01*
X19302206Y27985765D01*
X19222765Y28065206D01*
X19119991Y28110585D01*
X19094865Y28113500D01*
X17481136Y28113499D01*
X17456009Y28110585D01*
X17420422Y28094872D01*
X17353234Y28065206D01*
X17273795Y27985767D01*
X17273794Y27985765D01*
X17228414Y27882990D01*
X17225500Y27857870D01*
X17225500Y26244140D01*
X16810500Y26244140D01*
X16810499Y27857864D01*
X16807585Y27882991D01*
X16762206Y27985765D01*
X16682765Y28065206D01*
X16579991Y28110585D01*
X16554865Y28113500D01*
X14941136Y28113499D01*
X14916009Y28110585D01*
X14880422Y28094872D01*
X14813234Y28065206D01*
X14733795Y27985767D01*
X14733794Y27985765D01*
X14688414Y27882990D01*
X14685500Y27857870D01*
X14685500Y26244140D01*
X329500Y26244140D01*
X329500Y35559996D01*
X1074675Y35559996D01*
X1093962Y35167412D01*
X1093963Y35167398D01*
X1151635Y34778606D01*
X1151636Y34778600D01*
X1199389Y34587958D01*
X1247144Y34397310D01*
X1379561Y34027230D01*
X1547621Y33671899D01*
X1749696Y33334756D01*
X1983834Y33019057D01*
X2247808Y32727808D01*
X2539057Y32463834D01*
X2854756Y32229696D01*
X3191899Y32027621D01*
X3547230Y31859561D01*
X3917310Y31727144D01*
X4107958Y31679389D01*
X4298600Y31631636D01*
X4298604Y31631635D01*
X4298606Y31631635D01*
X4687398Y31573963D01*
X4687406Y31573962D01*
X4687409Y31573962D01*
X4855662Y31565696D01*
X5079996Y31554675D01*
X5080000Y31554675D01*
X5080004Y31554675D01*
X5276295Y31564318D01*
X5472591Y31573962D01*
X5472594Y31573962D01*
X5472601Y31573963D01*
X5861393Y31631635D01*
X5861400Y31631636D01*
X6146995Y31703174D01*
X6242689Y31727144D01*
X6612769Y31859561D01*
X6612772Y31859562D01*
X6968097Y32027619D01*
X7081649Y32095679D01*
X7305243Y32229696D01*
X7620942Y32463834D01*
X7620951Y32463842D01*
X7912192Y32727808D01*
X8176158Y33019049D01*
X8176159Y33019050D01*
X8176165Y33019057D01*
X8410303Y33334756D01*
X8410306Y33334761D01*
X8612381Y33671903D01*
X8780438Y34027228D01*
X8912857Y34397316D01*
X9008364Y34778600D01*
X9066038Y35167409D01*
X9085325Y35559996D01*
X11234675Y35559996D01*
X11253962Y35167412D01*
X11253963Y35167398D01*
X11311635Y34778606D01*
X11311636Y34778600D01*
X11359389Y34587958D01*
X11407144Y34397310D01*
X11539561Y34027230D01*
X11707621Y33671899D01*
X11909696Y33334756D01*
X12143834Y33019057D01*
X12407808Y32727808D01*
X12699057Y32463834D01*
X13014756Y32229696D01*
X13351899Y32027621D01*
X13707230Y31859561D01*
X14077310Y31727144D01*
X14267958Y31679389D01*
X14458600Y31631636D01*
X14458604Y31631635D01*
X14458606Y31631635D01*
X14847398Y31573963D01*
X14847406Y31573962D01*
X14847409Y31573962D01*
X15015662Y31565696D01*
X15239996Y31554675D01*
X15240000Y31554675D01*
X15240004Y31554675D01*
X15436295Y31564318D01*
X15632591Y31573962D01*
X15632594Y31573962D01*
X15632601Y31573963D01*
X16021393Y31631635D01*
X16021400Y31631636D01*
X16306995Y31703174D01*
X16402689Y31727144D01*
X16772769Y31859561D01*
X16772772Y31859562D01*
X17128097Y32027619D01*
X17241649Y32095679D01*
X17465243Y32229696D01*
X17780942Y32463834D01*
X17780951Y32463842D01*
X18072192Y32727808D01*
X18336158Y33019049D01*
X18336159Y33019050D01*
X18336165Y33019057D01*
X18570303Y33334756D01*
X18570306Y33334761D01*
X18772381Y33671903D01*
X18940438Y34027228D01*
X19072857Y34397316D01*
X19168364Y34778600D01*
X19226038Y35167409D01*
X19245325Y35560000D01*
X19226038Y35952591D01*
X19168364Y36341400D01*
X19072857Y36722684D01*
X18940438Y37092772D01*
X18772381Y37448097D01*
X18570306Y37785239D01*
X18336158Y38100951D01*
X18072192Y38392192D01*
X17780951Y38656158D01*
X17465239Y38890306D01*
X17128097Y39092381D01*
X16772772Y39260438D01*
X16402684Y39392857D01*
X16021400Y39488364D01*
X15632591Y39546038D01*
X15295384Y39562604D01*
X15240004Y39565325D01*
X15239996Y39565325D01*
X15182590Y39562504D01*
X14847409Y39546038D01*
X14458600Y39488364D01*
X14077316Y39392857D01*
X13707228Y39260438D01*
X13351903Y39092381D01*
X13014761Y38890306D01*
X13014756Y38890303D01*
X12699057Y38656165D01*
X12699050Y38656159D01*
X12699049Y38656158D01*
X12407808Y38392192D01*
X12143842Y38100951D01*
X12143834Y38100942D01*
X11909696Y37785243D01*
X11909694Y37785239D01*
X11707619Y37448097D01*
X11539562Y37092772D01*
X11539561Y37092769D01*
X11407144Y36722689D01*
X11407143Y36722684D01*
X11311636Y36341400D01*
X11311635Y36341393D01*
X11253963Y35952601D01*
X11253962Y35952587D01*
X11234675Y35560003D01*
X11234675Y35559996D01*
X9085325Y35559996D01*
X9085325Y35560000D01*
X9066038Y35952591D01*
X9008364Y36341400D01*
X8912857Y36722684D01*
X8780438Y37092772D01*
X8612381Y37448097D01*
X8410306Y37785239D01*
X8176158Y38100951D01*
X7912192Y38392192D01*
X7620951Y38656158D01*
X7305239Y38890306D01*
X6968097Y39092381D01*
X6612772Y39260438D01*
X6242684Y39392857D01*
X5861400Y39488364D01*
X5472591Y39546038D01*
X5135384Y39562604D01*
X5080004Y39565325D01*
X5079996Y39565325D01*
X5022590Y39562504D01*
X4687409Y39546038D01*
X4298600Y39488364D01*
X3917316Y39392857D01*
X3547228Y39260438D01*
X3191903Y39092381D01*
X2854761Y38890306D01*
X2854756Y38890303D01*
X2539057Y38656165D01*
X2539050Y38656159D01*
X2539049Y38656158D01*
X2247808Y38392192D01*
X1983842Y38100951D01*
X1983834Y38100942D01*
X1749696Y37785243D01*
X1749694Y37785239D01*
X1547619Y37448097D01*
X1379562Y37092772D01*
X1379561Y37092769D01*
X1247144Y36722689D01*
X1247143Y36722684D01*
X1151636Y36341400D01*
X1151635Y36341393D01*
X1093963Y35952601D01*
X1093962Y35952587D01*
X1074675Y35560003D01*
X1074675Y35559996D01*
X329500Y35559996D01*
X329500Y40184500D01*
X349502Y40252621D01*
X403158Y40299114D01*
X455500Y40310500D01*
X19864500Y40310500D01*
X19932621Y40290498D01*
G37*
%TD.AperFunction*%
%TD*%
M02*
